<?xml version="1.0" encoding="UTF-8" standalone="no"?>
<!DOCTYPE svg PUBLIC "-//W3C//DTD SVG 1.1//EN" "http://www.w3.org/Graphics/SVG/1.1/DTD/svg11.dtd">
<svg width="100%" height="100%" viewBox="0 0 138 125" version="1.1" xmlns="http://www.w3.org/2000/svg" xmlns:xlink="http://www.w3.org/1999/xlink" xml:space="preserve" xmlns:serif="http://www.serif.com/" style="fill-rule:evenodd;clip-rule:evenodd;stroke-linejoin:round;stroke-miterlimit:2;">
    <g transform="matrix(1,0,0,1,-929.609,-253.287)">
        <g transform="matrix(0.833333,0,0,0.833333,216.328,130.921)">
            <g>
                <path d="M923.081,210.635L942.081,209.126L942.758,231.735L941.362,236.584L939.042,295.636L865.918,260.613L867.858,205.624L878.061,201.504L916.198,197.245L923.081,210.635Z" style="fill:url(#_Linear1);"/>
                <clipPath id="_clip2">
                    <path d="M923.081,210.635L942.081,209.126L942.758,231.735L941.362,236.584L939.042,295.636L865.918,260.613L867.858,205.624L878.061,201.504L916.198,197.245L923.081,210.635Z"/>
                </clipPath>
                <g clip-path="url(#_clip2)">
                    <g transform="matrix(0.624097,0.124852,-0.118893,0.594314,368.752,-38.7696)">
                        <path d="M915.585,246.182C911.838,245.197 907.848,235.835 904.206,234.814C899.88,233.602 895.923,240.724 891.729,239.467L898.055,274.84L921.752,281.69L915.585,246.182Z" style="fill:url(#_Linear3);"/>
                        <path d="M917.3,245.853C917.177,245.146 916.672,244.58 916.008,244.406C915.499,244.272 915.008,243.867 914.489,243.368C913.406,242.329 912.321,240.855 911.232,239.387C910.02,237.751 908.805,236.12 907.619,234.956C906.626,233.981 905.619,233.315 904.656,233.045C903.187,232.634 901.745,232.879 900.326,233.528C899.186,234.048 898.056,234.842 896.935,235.645C896.001,236.314 895.077,236.993 894.141,237.422C893.5,237.716 892.862,237.902 892.208,237.706C891.627,237.532 891.001,237.686 890.555,238.114C890.108,238.541 889.904,239.181 890.016,239.805L896.341,275.178C896.464,275.865 896.949,276.419 897.592,276.605L921.289,283.456C921.867,283.623 922.487,283.466 922.929,283.041C923.372,282.616 923.575,281.981 923.467,281.362L917.3,245.853ZM914.042,247.506C913.409,247.164 912.769,246.678 912.136,246.071C910.926,244.91 909.697,243.277 908.48,241.636C907.388,240.162 906.306,238.68 905.238,237.631C904.728,237.131 904.251,236.722 903.757,236.583C903.062,236.389 902.388,236.579 901.717,236.885C900.767,237.32 899.835,238.001 898.901,238.67C897.781,239.472 896.659,240.263 895.538,240.778C894.974,241.037 894.407,241.229 893.838,241.34L899.567,273.378L919.538,279.151L914.042,247.506Z"/>
                    </g>
                    <g transform="matrix(0.624097,0.124852,-0.118893,0.594314,344.382,-18.5385)">
                        <path d="M915.585,246.182C911.838,245.197 907.848,235.835 904.206,234.814C899.88,233.602 895.923,240.724 891.729,239.467L898.055,274.84L921.752,281.69L915.585,246.182Z" style="fill:url(#_Linear4);"/>
                        <path d="M917.3,245.853C917.177,245.146 916.672,244.58 916.008,244.406C915.499,244.272 915.008,243.867 914.489,243.368C913.406,242.329 912.321,240.855 911.232,239.387C910.02,237.751 908.805,236.12 907.619,234.956C906.626,233.981 905.619,233.315 904.656,233.045C903.187,232.634 901.745,232.879 900.326,233.528C899.186,234.048 898.056,234.842 896.935,235.645C896.001,236.314 895.077,236.993 894.141,237.422C893.5,237.716 892.862,237.902 892.208,237.706C891.627,237.532 891.001,237.686 890.555,238.114C890.108,238.541 889.904,239.181 890.016,239.805L896.341,275.178C896.464,275.865 896.949,276.419 897.592,276.605L921.289,283.456C921.867,283.623 922.487,283.466 922.929,283.041C923.372,282.616 923.575,281.981 923.467,281.362L917.3,245.853ZM914.042,247.506C913.409,247.164 912.769,246.678 912.136,246.071C910.926,244.91 909.697,243.277 908.48,241.636C907.388,240.162 906.306,238.68 905.238,237.631C904.728,237.131 904.251,236.722 903.757,236.583C903.062,236.389 902.388,236.579 901.717,236.885C900.767,237.32 899.835,238.001 898.901,238.67C897.781,239.472 896.659,240.263 895.538,240.778C894.974,241.037 894.407,241.229 893.838,241.34L899.567,273.378L919.538,279.151L914.042,247.506Z"/>
                    </g>
                    <g transform="matrix(0.624097,0.124852,-0.118893,0.594314,387.611,1.70942)">
                        <path d="M915.585,246.182C911.838,245.197 907.848,235.835 904.206,234.814C899.88,233.602 895.923,240.724 891.729,239.467L898.055,274.84L921.752,281.69L915.585,246.182Z" style="fill:url(#_Linear5);"/>
                        <path d="M917.3,245.853C917.177,245.146 916.672,244.58 916.008,244.406C915.499,244.272 915.008,243.867 914.489,243.368C913.406,242.329 912.321,240.855 911.232,239.387C910.02,237.751 908.805,236.12 907.619,234.956C906.626,233.981 905.619,233.315 904.656,233.045C903.187,232.634 901.745,232.879 900.326,233.528C899.186,234.048 898.056,234.842 896.935,235.645C896.001,236.314 895.077,236.993 894.141,237.422C893.5,237.716 892.862,237.902 892.208,237.706C891.627,237.532 891.001,237.686 890.555,238.114C890.108,238.541 889.904,239.181 890.016,239.805L896.341,275.178C896.464,275.865 896.949,276.419 897.592,276.605L921.289,283.456C921.867,283.623 922.487,283.466 922.929,283.041C923.372,282.616 923.575,281.981 923.467,281.362L917.3,245.853ZM914.042,247.506C913.409,247.164 912.769,246.678 912.136,246.071C910.926,244.91 909.697,243.277 908.48,241.636C907.388,240.162 906.306,238.68 905.238,237.631C904.728,237.131 904.251,236.722 903.757,236.583C903.062,236.389 902.388,236.579 901.717,236.885C900.767,237.32 899.835,238.001 898.901,238.67C897.781,239.472 896.659,240.263 895.538,240.778C894.974,241.037 894.407,241.229 893.838,241.34L899.567,273.378L919.538,279.151L914.042,247.506Z"/>
                    </g>
                    <g transform="matrix(0.624097,0.124852,-0.118893,0.594314,389.691,-30.548)">
                        <path d="M915.585,246.182C911.838,245.197 907.848,235.835 904.206,234.814C899.88,233.602 895.923,240.724 891.729,239.467L898.055,274.84L921.752,281.69L915.585,246.182Z" style="fill:url(#_Linear6);"/>
                        <path d="M917.3,245.853C917.177,245.146 916.672,244.58 916.008,244.406C915.499,244.272 915.008,243.867 914.489,243.368C913.406,242.329 912.321,240.855 911.232,239.387C910.02,237.751 908.805,236.12 907.619,234.956C906.626,233.981 905.619,233.315 904.656,233.045C903.187,232.634 901.745,232.879 900.326,233.528C899.186,234.048 898.056,234.842 896.935,235.645C896.001,236.314 895.077,236.993 894.141,237.422C893.5,237.716 892.862,237.902 892.208,237.706C891.627,237.532 891.001,237.686 890.555,238.114C890.108,238.541 889.904,239.181 890.016,239.805L896.341,275.178C896.464,275.865 896.949,276.419 897.592,276.605L921.289,283.456C921.867,283.623 922.487,283.466 922.929,283.041C923.372,282.616 923.575,281.981 923.467,281.362L917.3,245.853ZM914.042,247.506C913.409,247.164 912.769,246.678 912.136,246.071C910.926,244.91 909.697,243.277 908.48,241.636C907.388,240.162 906.306,238.68 905.238,237.631C904.728,237.131 904.251,236.722 903.757,236.583C903.062,236.389 902.388,236.579 901.717,236.885C900.767,237.32 899.835,238.001 898.901,238.67C897.781,239.472 896.659,240.263 895.538,240.778C894.974,241.037 894.407,241.229 893.838,241.34L899.567,273.378L919.538,279.151L914.042,247.506Z"/>
                    </g>
                    <g transform="matrix(0.624097,0.124852,-0.118893,0.594314,346.569,-48.8099)">
                        <path d="M915.585,246.182C911.838,245.197 907.848,235.835 904.206,234.814C899.88,233.602 895.923,240.724 891.729,239.467L898.055,274.84L921.752,281.69L915.585,246.182Z" style="fill:url(#_Linear7);"/>
                        <path d="M917.3,245.853C917.177,245.146 916.672,244.58 916.008,244.406C915.499,244.272 915.008,243.867 914.489,243.368C913.406,242.329 912.321,240.855 911.232,239.387C910.02,237.751 908.805,236.12 907.619,234.956C906.626,233.981 905.619,233.315 904.656,233.045C903.187,232.634 901.745,232.879 900.326,233.528C899.186,234.048 898.056,234.842 896.935,235.645C896.001,236.314 895.077,236.993 894.141,237.422C893.5,237.716 892.862,237.902 892.208,237.706C891.627,237.532 891.001,237.686 890.555,238.114C890.108,238.541 889.904,239.181 890.016,239.805L896.341,275.178C896.464,275.865 896.949,276.419 897.592,276.605L921.289,283.456C921.867,283.623 922.487,283.466 922.929,283.041C923.372,282.616 923.575,281.981 923.467,281.362L917.3,245.853ZM914.042,247.506C913.409,247.164 912.769,246.678 912.136,246.071C910.926,244.91 909.697,243.277 908.48,241.636C907.388,240.162 906.306,238.68 905.238,237.631C904.728,237.131 904.251,236.722 903.757,236.583C903.062,236.389 902.388,236.579 901.717,236.885C900.767,237.32 899.835,238.001 898.901,238.67C897.781,239.472 896.659,240.263 895.538,240.778C894.974,241.037 894.407,241.229 893.838,241.34L899.567,273.378L919.538,279.151L914.042,247.506Z"/>
                    </g>
                    <g transform="matrix(0.550869,0.166242,-0.15125,0.50119,442.256,-19.317)">
                        <path d="M913.234,246.751L888.592,242.547L903.181,297.668L926.423,298.758L913.234,246.751Z" style="fill:url(#_Linear8);"/>
                        <path d="M915.076,246.187C914.874,245.393 914.269,244.801 913.527,244.675L888.885,240.471C888.239,240.361 887.587,240.621 887.156,241.161C886.725,241.7 886.574,242.445 886.756,243.134L901.345,298.255C901.574,299.12 902.28,299.729 903.099,299.767L926.341,300.857C926.953,300.886 927.54,300.591 927.92,300.064C928.3,299.537 928.428,298.842 928.264,298.194L915.076,246.187ZM904.633,295.633L923.874,296.535L911.723,248.62L891.267,245.13L904.633,295.633Z"/>
                    </g>
                </g>
                <path d="M942.465,236.762L940.151,295.68C940.136,296.053 939.934,296.394 939.615,296.587C939.295,296.779 938.899,296.798 938.562,296.637L865.438,261.614C865.04,261.423 864.793,261.015 864.809,260.574L866.749,205.585C866.765,205.147 867.037,204.759 867.443,204.595L877.645,200.475C877.739,200.437 877.837,200.412 877.938,200.401L916.075,196.142C916.533,196.091 916.974,196.328 917.185,196.737L923.73,209.47L941.993,208.02C942.296,207.996 942.596,208.097 942.822,208.3C943.048,208.502 943.181,208.789 943.19,209.093L943.867,231.702L942.758,231.735L943.78,231.735C943.954,231.735 943.865,231.735 943.554,231.735L942.758,231.735C943.253,231.735 943.688,231.735 943.824,232.042L942.465,236.762ZM915.561,198.432L878.335,202.59L868.942,206.383L867.053,259.926L937.999,293.906L940.253,236.54C940.256,236.451 940.271,236.362 940.295,236.277L941.644,231.595L941.007,210.324L923.168,211.741C922.722,211.776 922.298,211.54 922.094,211.142L915.561,198.432Z"/>
                <g transform="matrix(0.612782,-0.47172,0.714678,0.928392,214.313,394.689)">
                    <path d="M977.338,276.806L867.317,273.061L820.872,310.316L936.981,309.48L977.338,276.806Z" style="fill:url(#_Linear9);"/>
                    <path d="M978.45,277.404C978.792,277.128 978.869,276.748 978.65,276.421C978.431,276.095 977.952,275.878 977.412,275.86L867.391,272.116C866.937,272.1 866.498,272.228 866.209,272.46L819.764,309.714C819.409,309.998 819.337,310.392 819.578,310.725C819.819,311.057 820.329,311.267 820.887,311.263L936.996,310.428C937.422,310.424 937.824,310.297 938.093,310.079L978.45,277.404ZM867.966,274.032L823.939,309.346L936.293,308.538L974.437,277.655L867.966,274.032Z"/>
                </g>
            </g>
            <g transform="matrix(1,0,0,1,1.10471,-1.51308)">
                <path d="M900.931,194.175L945.673,251.322L1019.12,198.203L983.118,149.462L900.931,194.175Z" style="fill:url(#_Linear10);"/>
                <path d="M900.4,193.2C900.114,193.356 899.91,193.63 899.844,193.95C899.778,194.269 899.856,194.602 900.057,194.859L944.799,252.006C945.167,252.475 945.84,252.57 946.323,252.221L1019.77,199.103C1020.01,198.929 1020.17,198.667 1020.22,198.374C1020.26,198.081 1020.19,197.782 1020.01,197.544L984.01,148.803C983.681,148.357 983.074,148.223 982.587,148.487L900.4,193.2ZM902.613,194.523L945.888,249.796L1017.56,197.961L982.799,150.899L902.613,194.523Z"/>
                <path d="M905.514,201.148L982.851,149.513L931.823,166.158L855.942,211.024L905.514,201.148Z" style="fill:url(#_Linear11);"/>
                <path d="M905.731,202.236C905.873,202.208 906.009,202.152 906.13,202.071L983.467,150.436C983.928,150.128 984.091,149.527 983.849,149.028C983.607,148.529 983.034,148.286 982.507,148.458L931.479,165.103C931.402,165.128 931.328,165.161 931.258,165.203L855.377,210.068C854.912,210.344 854.712,210.915 854.906,211.42C855.099,211.925 855.629,212.218 856.159,212.112L905.731,202.236ZM932.283,167.175L862.117,208.662L905.081,200.103L975.525,153.07L932.283,167.175Z"/>
            </g>
        </g>
    </g>
    <defs>
        <linearGradient id="_Linear1" x1="0" y1="0" x2="1" y2="0" gradientUnits="userSpaceOnUse" gradientTransform="matrix(14.6113,-24.02,24.02,14.6113,898.123,224.19)"><stop offset="0" style="stop-color:rgb(253,198,10);stop-opacity:1"/><stop offset="1" style="stop-color:rgb(221,157,5);stop-opacity:1"/></linearGradient>
        <linearGradient id="_Linear3" x1="0" y1="0" x2="1" y2="0" gradientUnits="userSpaceOnUse" gradientTransform="matrix(23.1484,31.0386,-29.5573,24.3085,892.916,243.791)"><stop offset="0" style="stop-color:white;stop-opacity:1"/><stop offset="1" style="stop-color:rgb(124,226,255);stop-opacity:1"/></linearGradient>
        <linearGradient id="_Linear4" x1="0" y1="0" x2="1" y2="0" gradientUnits="userSpaceOnUse" gradientTransform="matrix(23.1484,31.0386,-29.5573,24.3085,892.916,243.791)"><stop offset="0" style="stop-color:white;stop-opacity:1"/><stop offset="1" style="stop-color:rgb(124,226,255);stop-opacity:1"/></linearGradient>
        <linearGradient id="_Linear5" x1="0" y1="0" x2="1" y2="0" gradientUnits="userSpaceOnUse" gradientTransform="matrix(23.1484,31.0386,-29.5573,24.3085,892.916,243.791)"><stop offset="0" style="stop-color:white;stop-opacity:1"/><stop offset="1" style="stop-color:rgb(124,226,255);stop-opacity:1"/></linearGradient>
        <linearGradient id="_Linear6" x1="0" y1="0" x2="1" y2="0" gradientUnits="userSpaceOnUse" gradientTransform="matrix(23.1484,31.0386,-29.5573,24.3085,892.916,243.791)"><stop offset="0" style="stop-color:white;stop-opacity:1"/><stop offset="1" style="stop-color:rgb(124,226,255);stop-opacity:1"/></linearGradient>
        <linearGradient id="_Linear7" x1="0" y1="0" x2="1" y2="0" gradientUnits="userSpaceOnUse" gradientTransform="matrix(23.1484,31.0386,-29.5573,24.3085,892.916,243.791)"><stop offset="0" style="stop-color:white;stop-opacity:1"/><stop offset="1" style="stop-color:rgb(124,226,255);stop-opacity:1"/></linearGradient>
        <linearGradient id="_Linear8" x1="0" y1="0" x2="1" y2="0" gradientUnits="userSpaceOnUse" gradientTransform="matrix(1.31391,-21.9598,19.9794,1.44414,904.114,266.03)"><stop offset="0" style="stop-color:rgb(18,87,177);stop-opacity:1"/><stop offset="1" style="stop-color:rgb(0,46,105);stop-opacity:1"/></linearGradient>
        <linearGradient id="_Linear9" x1="0" y1="0" x2="1" y2="0" gradientUnits="userSpaceOnUse" gradientTransform="matrix(42.1196,3.19995,-4.84806,27.8009,903.119,298.206)"><stop offset="0" style="stop-color:rgb(253,198,10);stop-opacity:1"/><stop offset="1" style="stop-color:rgb(221,157,5);stop-opacity:1"/></linearGradient>
        <linearGradient id="_Linear10" x1="0" y1="0" x2="1" y2="0" gradientUnits="userSpaceOnUse" gradientTransform="matrix(30.2502,-53.9523,53.9523,30.2502,950.715,208.024)"><stop offset="0" style="stop-color:rgb(22,95,190);stop-opacity:1"/><stop offset="1" style="stop-color:rgb(0,52,119);stop-opacity:1"/></linearGradient>
        <linearGradient id="_Linear11" x1="0" y1="0" x2="1" y2="0" gradientUnits="userSpaceOnUse" gradientTransform="matrix(51.6412,-31.513,31.513,51.6412,915.07,184.755)"><stop offset="0" style="stop-color:rgb(22,95,190);stop-opacity:1"/><stop offset="1" style="stop-color:rgb(0,52,119);stop-opacity:1"/></linearGradient>
    </defs>
</svg>
