<?xml version="1.0" encoding="UTF-8" standalone="no"?>
<!DOCTYPE svg PUBLIC "-//W3C//DTD SVG 1.1//EN" "http://www.w3.org/Graphics/SVG/1.1/DTD/svg11.dtd">
<svg width="100%" height="100%" viewBox="0 0 132 166" version="1.1" xmlns="http://www.w3.org/2000/svg" xmlns:xlink="http://www.w3.org/1999/xlink" xml:space="preserve" xmlns:serif="http://www.serif.com/" style="fill-rule:evenodd;clip-rule:evenodd;stroke-linejoin:round;stroke-miterlimit:2;">
    <g transform="matrix(1,0,0,1,-632.595,-463.457)">
        <g transform="matrix(0.134208,0,0,0.134208,571.51,340.852)">
            <g>
                <g transform="matrix(0.993277,-0.115766,0.115766,0.993277,85.6775,-80.8153)">
                    <g transform="matrix(0.783505,0,0,0.883727,238.881,216.229)">
                        <path d="M980.05,1629.68L949.675,1649.89L1023.58,2118.61L1055.3,2092.05L980.05,1629.68Z" style="fill:url(#_Linear1);"/>
                        <path d="M985.697,1628.96C985.41,1627.19 984.091,1625.69 982.229,1625.01C980.366,1624.33 978.236,1624.56 976.625,1625.64L946.25,1645.85C944.589,1646.95 943.736,1648.77 944.024,1650.59L1017.93,2119.31C1018.23,2121.19 1019.68,2122.76 1021.69,2123.39C1023.71,2124.01 1025.95,2123.59 1027.5,2122.29L1059.22,2095.72C1060.57,2094.59 1061.21,2092.95 1060.95,2091.32L985.697,1628.96ZM955.792,1652.15L1027.7,2108.2L1049.23,2090.17L975.777,1638.85L955.792,1652.15Z"/>
                    </g>
                    <g transform="matrix(-0.753562,0.214534,0.241976,0.849953,1299.29,68.326)">
                        <path d="M980.05,1629.68L949.675,1649.89L1023.58,2118.61L1055.3,2092.05L980.05,1629.68Z" style="fill:url(#_Linear2);"/>
                        <path d="M976.625,1625.64C978.236,1624.56 980.366,1624.33 982.229,1625.01C984.091,1625.69 985.41,1627.19 985.697,1628.96L1060.95,2091.32C1061.21,2092.95 1060.57,2094.59 1059.22,2095.72L1027.5,2122.29C1025.95,2123.59 1023.71,2124.01 1021.69,2123.39C1019.68,2122.76 1018.23,2121.19 1017.93,2119.31L944.024,1650.59C943.736,1648.77 944.589,1646.95 946.25,1645.85L976.625,1625.64ZM1049.23,2090.17L1027.7,2108.2L955.792,1652.15L975.777,1638.85L1049.23,2090.17Z"/>
                    </g>
                    <g transform="matrix(0.930449,0.366421,-0.366421,0.930449,652.907,-223.363)">
                        <path d="M1017.39,1619.33L988.385,1621.24L972.572,1644.56L1002.52,1644.5L1017.39,1619.33Z" style="fill:url(#_Linear3);"/>
                        <path d="M1021.24,1621.6C1022.08,1620.18 1022.07,1618.4 1021.2,1616.99C1020.33,1615.58 1018.75,1614.76 1017.1,1614.87L988.091,1616.78C986.715,1616.87 985.458,1617.59 984.684,1618.73L968.872,1642.05C967.942,1643.42 967.847,1645.19 968.624,1646.66C969.401,1648.12 970.924,1649.03 972.581,1649.03L1002.53,1648.97C1004.11,1648.97 1005.57,1648.13 1006.37,1646.78L1021.24,1621.6ZM981.016,1640.07L999.968,1640.04L1009.23,1624.35L990.859,1625.56L981.016,1640.07Z"/>
                    </g>
                </g>
                <g transform="matrix(0.993277,-0.115766,0.115766,0.993277,65.3362,-57.3682)">
                    <g transform="matrix(0.783505,0,0,0.883727,238.881,216.229)">
                        <path d="M980.05,1629.68L949.675,1649.89L1023.58,2118.61L1055.3,2092.05L980.05,1629.68Z" style="fill:url(#_Linear4);"/>
                        <path d="M985.697,1628.96C985.41,1627.19 984.091,1625.69 982.229,1625.01C980.366,1624.33 978.236,1624.56 976.625,1625.64L946.25,1645.85C944.589,1646.95 943.736,1648.77 944.024,1650.59L1017.93,2119.31C1018.23,2121.19 1019.68,2122.76 1021.69,2123.39C1023.71,2124.01 1025.95,2123.59 1027.5,2122.29L1059.22,2095.72C1060.57,2094.59 1061.21,2092.95 1060.95,2091.32C1060.95,2091.32 985.697,1628.96 985.697,1628.96ZM955.792,1652.15L1027.7,2108.2L1049.23,2090.17L975.777,1638.85L955.792,1652.15Z"/>
                    </g>
                    <g transform="matrix(-0.753562,0.214534,0.241976,0.849953,1299.29,68.326)">
                        <path d="M980.05,1629.68L949.675,1649.89L1023.58,2118.61L1055.3,2092.05L980.05,1629.68Z" style="fill:url(#_Linear5);"/>
                        <path d="M976.625,1625.64C978.236,1624.56 980.366,1624.33 982.229,1625.01C984.091,1625.69 985.41,1627.19 985.697,1628.96L1060.95,2091.32C1061.21,2092.95 1060.57,2094.59 1059.22,2095.72L1027.5,2122.29C1025.95,2123.59 1023.71,2124.01 1021.69,2123.39C1019.68,2122.76 1018.23,2121.19 1017.93,2119.31L944.024,1650.59C943.736,1648.77 944.589,1646.95 946.25,1645.85L976.625,1625.64ZM1049.23,2090.17L1027.7,2108.2L955.792,1652.15L975.777,1638.85L1049.23,2090.17Z"/>
                    </g>
                    <g transform="matrix(0.930449,0.366421,-0.366421,0.930449,652.907,-223.363)">
                        <path d="M1017.39,1619.33L988.385,1621.24L972.572,1644.56L1002.52,1644.5L1017.39,1619.33Z" style="fill:url(#_Linear6);"/>
                        <path d="M1021.24,1621.6C1022.08,1620.18 1022.07,1618.4 1021.2,1616.99C1020.33,1615.58 1018.75,1614.76 1017.1,1614.87L988.091,1616.78C986.715,1616.87 985.458,1617.59 984.684,1618.73L968.872,1642.05C967.942,1643.42 967.847,1645.19 968.624,1646.66C969.401,1648.12 970.924,1649.03 972.581,1649.03L1002.53,1648.97C1004.11,1648.97 1005.57,1648.13 1006.37,1646.78L1021.24,1621.6ZM981.016,1640.07L999.968,1640.04L1009.23,1624.35L990.859,1625.56L981.016,1640.07Z"/>
                    </g>
                </g>
                <g transform="matrix(0.999494,-0.0317963,0.0317963,0.999494,209.764,-132.856)">
                    <g transform="matrix(0.783505,0,0,0.883727,238.881,216.229)">
                        <path d="M980.05,1629.68L949.675,1649.89L1023.58,2118.61L1055.3,2092.05L980.05,1629.68Z" style="fill:url(#_Linear7);"/>
                        <path d="M985.697,1628.96C985.41,1627.19 984.091,1625.69 982.229,1625.01C980.366,1624.33 978.236,1624.56 976.625,1625.64L946.25,1645.85C944.589,1646.95 943.736,1648.77 944.024,1650.59L1017.93,2119.31C1018.23,2121.19 1019.68,2122.76 1021.69,2123.39C1023.71,2124.01 1025.95,2123.59 1027.5,2122.29L1059.22,2095.72C1060.57,2094.59 1061.21,2092.95 1060.95,2091.32L985.697,1628.96ZM955.792,1652.15L1027.7,2108.2L1049.23,2090.17L975.777,1638.85L955.792,1652.15Z"/>
                    </g>
                    <g transform="matrix(-0.753562,0.214534,0.241976,0.849953,1299.29,68.326)">
                        <path d="M980.05,1629.68L949.675,1649.89L1023.58,2118.61L1055.3,2092.05L980.05,1629.68Z" style="fill:url(#_Linear8);"/>
                        <path d="M976.625,1625.64C978.236,1624.56 980.366,1624.33 982.229,1625.01C984.091,1625.69 985.41,1627.19 985.697,1628.96L1060.95,2091.32C1061.21,2092.95 1060.57,2094.59 1059.22,2095.72L1027.5,2122.29C1025.95,2123.59 1023.71,2124.01 1021.69,2123.39C1019.68,2122.76 1018.23,2121.19 1017.93,2119.31L944.024,1650.59C943.736,1648.77 944.589,1646.95 946.25,1645.85L976.625,1625.64ZM1049.23,2090.17L1027.7,2108.2L955.792,1652.15L975.777,1638.85L1049.23,2090.17Z"/>
                    </g>
                    <g transform="matrix(0.930449,0.366421,-0.366421,0.930449,652.907,-223.363)">
                        <path d="M1017.39,1619.33L988.385,1621.24L972.572,1644.56L1002.52,1644.5L1017.39,1619.33Z" style="fill:url(#_Linear9);"/>
                        <path d="M1021.24,1621.6C1022.08,1620.18 1022.07,1618.4 1021.2,1616.99C1020.33,1615.58 1018.75,1614.76 1017.1,1614.87L988.091,1616.78C986.715,1616.87 985.458,1617.59 984.684,1618.73L968.872,1642.05C967.942,1643.42 967.847,1645.19 968.624,1646.66C969.401,1648.12 970.924,1649.03 972.581,1649.03L1002.53,1648.97C1004.11,1648.97 1005.57,1648.13 1006.37,1646.78L1021.24,1621.6ZM981.016,1640.07L999.968,1640.04L1009.23,1624.35L990.859,1625.56L981.016,1640.07Z"/>
                    </g>
                </g>
                <g transform="matrix(0.965221,-0.261434,0.261434,0.965221,-138.23,151.068)">
                    <g transform="matrix(0.783505,0,0,0.883727,238.881,216.229)">
                        <path d="M980.05,1629.68L949.675,1649.89L1023.58,2118.61L1055.3,2092.05L980.05,1629.68Z" style="fill:url(#_Linear10);"/>
                        <path d="M985.697,1628.96C985.41,1627.19 984.091,1625.69 982.229,1625.01C980.366,1624.33 978.236,1624.56 976.625,1625.64L946.25,1645.85C944.589,1646.95 943.736,1648.77 944.024,1650.59L1017.93,2119.31C1018.23,2121.19 1019.68,2122.76 1021.69,2123.39C1023.71,2124.01 1025.95,2123.59 1027.5,2122.29L1059.22,2095.72C1060.57,2094.59 1061.21,2092.95 1060.95,2091.32L985.697,1628.96ZM955.792,1652.15L1027.7,2108.2L1049.23,2090.17L975.777,1638.85L955.792,1652.15Z"/>
                    </g>
                    <g transform="matrix(-0.753562,0.214534,0.241976,0.849953,1299.29,68.326)">
                        <path d="M980.05,1629.68L949.675,1649.89L1023.58,2118.61L1055.3,2092.05L980.05,1629.68Z" style="fill:url(#_Linear11);"/>
                        <path d="M976.625,1625.64C978.236,1624.56 980.366,1624.33 982.229,1625.01C984.091,1625.69 985.41,1627.19 985.697,1628.96L1060.95,2091.32C1061.21,2092.95 1060.57,2094.59 1059.22,2095.72L1027.5,2122.29C1025.95,2123.59 1023.71,2124.01 1021.69,2123.39C1019.68,2122.76 1018.23,2121.19 1017.93,2119.31L944.024,1650.59C943.736,1648.77 944.589,1646.95 946.25,1645.85L976.625,1625.64ZM1049.23,2090.17L1027.7,2108.2L955.792,1652.15L975.777,1638.85L1049.23,2090.17Z"/>
                    </g>
                    <g transform="matrix(0.930449,0.366421,-0.366421,0.930449,652.907,-223.363)">
                        <path d="M1017.39,1619.33L988.385,1621.24L972.572,1644.56L1002.52,1644.5L1017.39,1619.33Z" style="fill:url(#_Linear12);"/>
                        <path d="M1021.24,1621.6C1022.08,1620.18 1022.07,1618.4 1021.2,1616.99C1020.33,1615.58 1018.75,1614.76 1017.1,1614.87L988.091,1616.78C986.715,1616.87 985.458,1617.59 984.684,1618.73L968.872,1642.05C967.942,1643.42 967.847,1645.19 968.624,1646.66C969.401,1648.12 970.924,1649.03 972.581,1649.03L1002.53,1648.97C1004.11,1648.97 1005.57,1648.13 1006.37,1646.78L1021.24,1621.6ZM981.016,1640.07L999.968,1640.04L1009.23,1624.35L990.859,1625.56L981.016,1640.07Z"/>
                    </g>
                </g>
            </g>
            <g>
                <g transform="matrix(1,0,0,1,0.741658,401.581)">
                    <g transform="matrix(-1.52656,0.791563,0.892815,1.72183,1031.1,-2585.37)">
                        <path d="M1101.88,1774.34L1085.48,1781.88L1192.76,1965.31L1206.59,1953.38L1101.88,1774.34Z" style="fill:url(#_Linear13);"/>
                        <path d="M1100.69,1772.3C1101.96,1771.71 1103.53,1772.15 1104.19,1773.28L1208.9,1952.32C1209.42,1953.22 1209.23,1954.32 1208.4,1955.03L1194.57,1966.96C1193.98,1967.47 1193.16,1967.7 1192.34,1967.59C1191.53,1967.47 1190.83,1967.02 1190.45,1966.37L1083.17,1782.94C1082.51,1781.82 1083.01,1780.42 1084.28,1779.84L1100.69,1772.3ZM1100.77,1777.45L1203.39,1952.92L1193.45,1961.5L1088.99,1782.87L1100.77,1777.45Z"/>
                    </g>
                    <g transform="matrix(1.52656,0.791563,-0.892815,1.72183,899.124,-2585.37)">
                        <path d="M1097.97,1776.32L1085.56,1782.02L1192.76,1965.31L1200.03,1950.82L1097.97,1776.32Z" style="fill:url(#_Linear14);"/>
                        <path d="M1100.28,1775.26C1099.62,1774.13 1098.05,1773.69 1096.78,1774.27L1084.37,1779.98C1083.09,1780.56 1082.59,1781.95 1083.26,1783.09L1190.45,1966.37C1190.91,1967.16 1191.84,1967.64 1192.84,1967.62C1193.84,1967.59 1194.73,1967.06 1195.13,1966.25L1202.41,1951.76C1202.73,1951.12 1202.71,1950.38 1202.34,1949.76L1100.28,1775.26ZM1089.07,1783.01L1192.58,1960L1197.15,1950.9L1096.86,1779.42L1089.07,1783.01Z"/>
                    </g>
                </g>
                <g transform="matrix(1,0,0,1,258.007,165.995)">
                    <g transform="matrix(-1.52656,0.791563,0.892815,1.72183,1031.1,-2585.37)">
                        <path d="M1101.88,1774.34L1085.48,1781.88L1192.76,1965.31L1206.59,1953.38L1101.88,1774.34Z" style="fill:url(#_Linear15);"/>
                        <path d="M1100.69,1772.3C1101.96,1771.71 1103.53,1772.15 1104.19,1773.28L1208.9,1952.32C1209.42,1953.22 1209.23,1954.32 1208.4,1955.03L1194.57,1966.96C1193.98,1967.47 1193.16,1967.7 1192.34,1967.59C1191.53,1967.47 1190.83,1967.02 1190.45,1966.37L1083.17,1782.94C1082.51,1781.82 1083.01,1780.42 1084.28,1779.84L1100.69,1772.3ZM1100.77,1777.45L1203.39,1952.92L1193.45,1961.5L1088.99,1782.87L1100.77,1777.45Z"/>
                    </g>
                    <g transform="matrix(1.52656,0.791563,-0.892815,1.72183,899.124,-2585.37)">
                        <path d="M1097.97,1776.32L1085.56,1782.02L1192.76,1965.31L1200.03,1950.82L1097.97,1776.32Z" style="fill:url(#_Linear16);"/>
                        <path d="M1100.28,1775.26C1099.62,1774.13 1098.05,1773.69 1096.78,1774.27L1084.37,1779.98C1083.09,1780.56 1082.59,1781.95 1083.26,1783.09L1190.45,1966.37C1190.91,1967.16 1191.84,1967.64 1192.84,1967.62C1193.84,1967.59 1194.73,1967.06 1195.13,1966.25L1202.41,1951.76C1202.73,1951.12 1202.71,1950.38 1202.34,1949.76L1100.28,1775.26ZM1192.58,1960L1197.15,1950.9L1096.86,1779.42L1089.07,1783.01L1192.58,1960Z"/>
                    </g>
                </g>
                <g transform="matrix(1,0,0,1,-126.105,187.256)">
                    <g transform="matrix(-1.52656,0.791563,0.892815,1.72183,1031.1,-2585.37)">
                        <path d="M1101.88,1774.34L1085.48,1781.88L1192.76,1965.31L1206.59,1953.38L1101.88,1774.34Z" style="fill:url(#_Linear17);"/>
                        <path d="M1100.69,1772.3C1101.96,1771.71 1103.53,1772.15 1104.19,1773.28L1208.9,1952.32C1209.42,1953.22 1209.23,1954.32 1208.4,1955.03L1194.57,1966.96C1193.98,1967.47 1193.16,1967.7 1192.34,1967.59C1191.53,1967.47 1190.83,1967.02 1190.45,1966.37L1083.17,1782.94C1082.51,1781.82 1083.01,1780.42 1084.28,1779.84L1100.69,1772.3ZM1100.77,1777.45L1203.39,1952.92L1193.45,1961.5L1088.99,1782.87L1100.77,1777.45Z"/>
                    </g>
                    <g transform="matrix(1.52656,0.791563,-0.892815,1.72183,899.124,-2585.37)">
                        <path d="M1097.97,1776.32L1085.56,1782.02L1192.76,1965.31L1200.03,1950.82L1097.97,1776.32Z" style="fill:url(#_Linear18);"/>
                        <path d="M1100.28,1775.26C1099.62,1774.13 1098.05,1773.69 1096.78,1774.27L1084.37,1779.98C1083.09,1780.56 1082.59,1781.95 1083.26,1783.09L1190.45,1966.37C1190.91,1967.16 1191.84,1967.64 1192.84,1967.62C1193.84,1967.59 1194.73,1967.06 1195.13,1966.25L1202.41,1951.76C1202.73,1951.12 1202.71,1950.38 1202.34,1949.76L1100.28,1775.26ZM1192.58,1960L1197.15,1950.9L1096.86,1779.42L1089.07,1783.01L1192.58,1960Z"/>
                    </g>
                </g>
                <g transform="matrix(1,0,0,1,-367.657,281.412)">
                    <g transform="matrix(-1.52656,0.791563,0.892815,1.72183,1031.1,-2585.37)">
                        <path d="M1101.88,1774.34L1085.48,1781.88L1192.76,1965.31L1206.59,1953.38L1101.88,1774.34Z" style="fill:url(#_Linear19);"/>
                        <path d="M1100.69,1772.3C1101.96,1771.71 1103.53,1772.15 1104.19,1773.28L1208.9,1952.32C1209.42,1953.22 1209.23,1954.32 1208.4,1955.03L1194.57,1966.96C1193.98,1967.47 1193.16,1967.7 1192.34,1967.59C1191.53,1967.47 1190.83,1967.02 1190.45,1966.37L1083.17,1782.94C1082.51,1781.82 1083.01,1780.42 1084.28,1779.84L1100.69,1772.3ZM1100.77,1777.45L1203.39,1952.92L1193.45,1961.5L1088.99,1782.87L1100.77,1777.45Z"/>
                    </g>
                    <g transform="matrix(1.52656,0.791563,-0.892815,1.72183,899.124,-2585.37)">
                        <path d="M1097.97,1776.32L1085.56,1782.02L1192.76,1965.31L1200.03,1950.82L1097.97,1776.32Z" style="fill:url(#_Linear20);"/>
                        <path d="M1100.28,1775.26C1099.62,1774.13 1098.05,1773.69 1096.78,1774.27L1084.37,1779.98C1083.09,1780.56 1082.59,1781.95 1083.26,1783.09L1190.45,1966.37C1190.91,1967.16 1191.84,1967.64 1192.84,1967.62C1193.84,1967.59 1194.73,1967.06 1195.13,1966.25L1202.41,1951.76C1202.73,1951.12 1202.71,1950.38 1202.34,1949.76L1100.28,1775.26ZM1192.58,1960L1197.15,1950.9L1096.86,1779.42L1089.07,1783.01L1192.58,1960Z"/>
                    </g>
                </g>
            </g>
            <g transform="matrix(2.15055,-0.438181,0.438181,2.15055,-2160.68,-2212.22)">
                <g transform="matrix(-0.753562,0.214534,0.241976,0.849953,1299.29,68.326)">
                    <path d="M1190.53,1925.92L1016.83,2075.78L1032.9,2103.26L1206.59,1953.38L1190.53,1925.92Z" style="fill:url(#_Linear21);"/>
                    <path d="M1188.72,1924.27C1189.31,1923.76 1190.14,1923.53 1190.95,1923.65C1191.76,1923.76 1192.46,1924.21 1192.84,1924.86L1208.9,1952.32C1209.42,1953.22 1209.23,1954.32 1208.4,1955.03L1034.71,2104.91C1034.12,2105.42 1033.3,2105.65 1032.49,2105.54C1031.67,2105.42 1030.97,2104.97 1030.59,2104.32L1014.52,2076.84C1013.99,2075.94 1014.19,2074.84 1015.01,2074.13L1188.72,1924.27ZM1203.39,1952.92L1033.6,2099.44L1020.02,2076.24L1189.84,1929.74L1203.39,1952.92Z"/>
                </g>
                <g transform="matrix(-0.753562,0.214534,0.241976,0.849953,1304.8,41.2673)">
                    <path d="M1011.28,1928.87L823.829,2062.99L1032.9,2103.26L1206.59,1953.38L1011.28,1928.87Z" style="fill:url(#_Linear22);"/>
                    <path d="M1009.64,1927.08C1010.21,1926.67 1010.93,1926.5 1011.64,1926.59L1206.95,1951.09C1207.94,1951.22 1208.75,1951.83 1209.06,1952.66C1209.37,1953.5 1209.11,1954.41 1208.4,1955.03L1034.71,2104.91C1034.09,2105.45 1033.2,2105.68 1032.35,2105.51L823.277,2065.24C822.299,2065.05 821.529,2064.38 821.299,2063.52C821.068,2062.66 821.417,2061.75 822.196,2061.19L1009.64,1927.08ZM1200.98,1955L1032.09,2100.74L829.688,2061.76L1012.03,1931.29L1200.98,1955Z"/>
                </g>
                <g transform="matrix(0.753562,0.214534,-0.241976,0.849953,771.917,68.5059)">
                    <path d="M1170.16,1943.6L1016.83,2075.78L1019.5,2106.8L1172.83,1974.44L1170.16,1943.6Z" style="fill:url(#_Linear23);"/>
                    <path d="M1172.76,1943.42C1172.68,1942.53 1172.03,1941.76 1171.08,1941.44C1170.14,1941.13 1169.07,1941.33 1168.35,1941.95L1015.02,2074.12C1014.46,2074.6 1014.18,2075.27 1014.24,2075.95L1016.91,2106.98C1016.99,2107.87 1017.64,2108.64 1018.59,2108.96C1019.53,2109.27 1020.6,2109.08 1021.32,2108.45L1174.64,1976.1C1175.19,1975.62 1175.48,1974.95 1175.42,1974.27L1172.76,1943.42ZM1019.51,2076.68L1021.67,2101.71L1170.14,1973.55L1168,1948.68L1019.51,2076.68Z"/>
                </g>
            </g>
            <g transform="matrix(0.996483,-0.0837981,0.0837981,0.996483,-72.8377,93.6146)">
                <g transform="matrix(1,0,0,1,104.596,-70.6051)">
                    <g transform="matrix(0.783505,0,0,0.883727,238.881,216.229)">
                        <path d="M980.05,1629.68L949.675,1649.89L1023.58,2118.61L1055.3,2092.05L980.05,1629.68Z" style="fill:url(#_Linear24);"/>
                        <path d="M985.697,1628.96C985.41,1627.19 984.091,1625.69 982.229,1625.01C980.366,1624.33 978.236,1624.56 976.625,1625.64L946.25,1645.85C944.589,1646.95 943.736,1648.77 944.024,1650.59L1017.93,2119.31C1018.23,2121.19 1019.68,2122.76 1021.69,2123.39C1023.71,2124.01 1025.95,2123.59 1027.5,2122.29C1027.5,2122.29 1059.22,2095.72 1059.22,2095.72C1060.57,2094.59 1061.21,2092.95 1060.95,2091.32C1060.95,2091.32 985.697,1628.96 985.697,1628.96ZM955.792,1652.15L1027.7,2108.2L1049.23,2090.17L975.777,1638.85L955.792,1652.15Z"/>
                    </g>
                    <g transform="matrix(-0.753562,0.214534,0.241976,0.849953,1299.29,68.326)">
                        <path d="M980.05,1629.68L949.675,1649.89L1023.58,2118.61L1055.3,2092.05L980.05,1629.68Z" style="fill:url(#_Linear25);"/>
                        <path d="M976.625,1625.64C978.236,1624.56 980.366,1624.33 982.229,1625.01C984.091,1625.69 985.41,1627.19 985.697,1628.96L1060.95,2091.32C1061.21,2092.95 1060.57,2094.59 1059.22,2095.72L1027.5,2122.29C1025.95,2123.59 1023.71,2124.01 1021.69,2123.39C1019.68,2122.76 1018.23,2121.19 1017.93,2119.31L944.024,1650.59C943.736,1648.77 944.589,1646.95 946.25,1645.85L976.625,1625.64ZM1049.23,2090.17L1027.7,2108.2L955.792,1652.15L975.777,1638.85L1049.23,2090.17Z"/>
                    </g>
                    <g transform="matrix(0.930449,0.366421,-0.366421,0.930449,652.907,-223.363)">
                        <path d="M1017.39,1619.33L988.385,1621.24L972.572,1644.56L1002.52,1644.5L1017.39,1619.33Z" style="fill:url(#_Linear26);"/>
                        <path d="M1021.24,1621.6C1022.08,1620.18 1022.07,1618.4 1021.2,1616.99C1020.33,1615.58 1018.75,1614.76 1017.1,1614.87L988.091,1616.78C986.715,1616.87 985.458,1617.59 984.684,1618.73L968.872,1642.05C967.942,1643.42 967.847,1645.19 968.624,1646.66C969.401,1648.12 970.924,1649.03 972.581,1649.03L1002.53,1648.97C1004.11,1648.97 1005.57,1648.13 1006.37,1646.78L1021.24,1621.6ZM981.016,1640.07L999.968,1640.04L1009.23,1624.35L990.859,1625.56L981.016,1640.07Z"/>
                    </g>
                </g>
                <g transform="matrix(-0.266973,-0.369422,0.369422,-0.266973,631.6,2898.78)">
                    <g transform="matrix(0.783505,0,0,0.883727,238.881,216.229)">
                        <path d="M1048.56,1844.98L1008.47,1848.56L1023.58,2118.61L1055.3,2092.05L1048.56,1844.98Z" style="fill:url(#_Linear27);"/>
                        <path d="M1061.07,1844.71C1060.99,1841.62 1059.45,1838.7 1056.84,1836.66C1054.22,1834.61 1050.77,1833.63 1047.3,1833.94C1047.3,1833.94 1007.22,1837.52 1007.22,1837.52C1000.59,1838.11 995.64,1843.21 995.97,1849.11L1011.08,2119.16C1011.32,2123.49 1014.38,2127.3 1018.91,2128.91C1023.45,2130.53 1028.63,2129.66 1032.18,2126.68L1063.9,2100.12C1066.48,2097.95 1067.9,2094.92 1067.82,2091.78L1061.07,1844.71ZM1036.37,1857.22L1021.57,1858.55L1034.74,2094L1042.65,2087.37L1036.37,1857.22Z"/>
                    </g>
                    <g transform="matrix(-0.753562,0.214534,0.241976,0.849953,1299.29,68.326)">
                        <path d="M988.062,1822.86L956.717,1856.27L1023.58,2118.61L1055.3,2092.05L988.062,1822.86Z" style="fill:url(#_Linear28);"/>
                        <path d="M978.437,1815.77C981.492,1812.51 986.371,1811.08 991.013,1812.08C995.655,1813.08 999.252,1816.33 1000.28,1820.46L1067.52,2089.65C1068.48,2093.46 1067.1,2097.43 1063.9,2100.12L1032.18,2126.68C1028.91,2129.42 1024.24,2130.39 1019.93,2129.23C1015.63,2128.07 1012.36,2124.95 1011.37,2121.06L944.506,1858.72C943.648,1855.36 944.604,1851.83 947.092,1849.18L978.437,1815.77ZM970.288,1859.16L981.36,1847.36L1041.54,2088.3L1030.95,2097.17L970.288,1859.16Z"/>
                    </g>
                </g>
                <g transform="matrix(-0.266973,-0.369422,0.369422,-0.266973,620.215,2810.3)">
                    <g transform="matrix(0.783505,0,0,0.883727,238.881,216.229)">
                        <path d="M1048.56,1844.98L1008.47,1848.56L1023.58,2118.61L1055.3,2092.05L1048.56,1844.98Z" style="fill:url(#_Linear29);"/>
                        <path d="M1061.07,1844.71C1060.99,1841.62 1059.45,1838.7 1056.84,1836.66C1054.22,1834.61 1050.77,1833.63 1047.3,1833.94L1007.22,1837.52C1000.59,1838.11 995.64,1843.21 995.97,1849.11L1011.08,2119.16C1011.32,2123.49 1014.38,2127.3 1018.91,2128.91C1023.45,2130.53 1028.63,2129.66 1032.18,2126.68L1063.9,2100.12C1066.48,2097.95 1067.9,2094.92 1067.82,2091.78L1061.07,1844.71ZM1036.37,1857.22L1021.57,1858.55L1034.74,2094L1042.65,2087.37L1036.37,1857.22Z"/>
                    </g>
                    <g transform="matrix(-0.753562,0.214534,0.241976,0.849953,1299.29,68.326)">
                        <path d="M988.062,1822.86L956.717,1856.27L1023.58,2118.61L1055.3,2092.05L988.062,1822.86Z" style="fill:url(#_Linear30);"/>
                        <path d="M978.437,1815.77C981.492,1812.51 986.371,1811.08 991.013,1812.08C995.655,1813.08 999.252,1816.33 1000.28,1820.46L1067.52,2089.65C1068.48,2093.46 1067.1,2097.43 1063.9,2100.12L1032.18,2126.68C1028.91,2129.42 1024.24,2130.39 1019.93,2129.23C1015.63,2128.07 1012.36,2124.95 1011.37,2121.06L944.506,1858.72C943.648,1855.36 944.604,1851.83 947.092,1849.18L978.437,1815.77ZM970.288,1859.16L981.36,1847.36L1041.54,2088.3L1030.95,2097.17L970.288,1859.16Z"/>
                    </g>
                </g>
                <g transform="matrix(-0.266973,-0.369422,0.369422,-0.266973,606.668,2714.47)">
                    <g transform="matrix(0.783505,0,0,0.883727,238.881,216.229)">
                        <path d="M1048.56,1844.98L1008.47,1848.56L1023.58,2118.61L1055.3,2092.05L1048.56,1844.98Z" style="fill:url(#_Linear31);"/>
                        <path d="M1061.07,1844.71C1060.99,1841.62 1059.45,1838.7 1056.84,1836.66C1054.22,1834.61 1050.77,1833.63 1047.3,1833.94L1007.22,1837.52C1000.59,1838.11 995.64,1843.21 995.97,1849.11C995.97,1849.11 1011.08,2119.16 1011.08,2119.16C1011.32,2123.49 1014.38,2127.3 1018.91,2128.91C1023.45,2130.53 1028.63,2129.66 1032.18,2126.68L1063.9,2100.12C1066.48,2097.95 1067.9,2094.92 1067.82,2091.78L1061.07,1844.71ZM1036.37,1857.22L1021.57,1858.55L1034.74,2094L1042.65,2087.37L1036.37,1857.22Z"/>
                    </g>
                    <g transform="matrix(-0.753562,0.214534,0.241976,0.849953,1299.29,68.326)">
                        <path d="M988.062,1822.86L956.717,1856.27L1023.58,2118.61L1055.3,2092.05L988.062,1822.86Z" style="fill:url(#_Linear32);"/>
                        <path d="M978.437,1815.77C981.492,1812.51 986.371,1811.08 991.013,1812.08C995.655,1813.08 999.252,1816.33 1000.28,1820.46L1067.52,2089.65C1068.48,2093.46 1067.1,2097.43 1063.9,2100.12L1032.18,2126.68C1028.91,2129.42 1024.24,2130.39 1019.93,2129.23C1015.63,2128.07 1012.36,2124.95 1011.37,2121.06L944.506,1858.72C943.648,1855.36 944.604,1851.83 947.092,1849.18L978.437,1815.77ZM970.288,1859.16L981.36,1847.36L1041.54,2088.3L1030.95,2097.17L970.288,1859.16Z"/>
                    </g>
                </g>
                <g transform="matrix(-0.266973,-0.369422,0.369422,-0.266973,594.076,2622.59)">
                    <g transform="matrix(0.783505,0,0,0.883727,238.881,216.229)">
                        <path d="M1048.56,1844.98L1008.47,1848.56L1023.58,2118.61L1055.3,2092.05L1048.56,1844.98Z" style="fill:url(#_Linear33);"/>
                        <path d="M1061.07,1844.71C1060.99,1841.62 1059.45,1838.7 1056.84,1836.66C1054.22,1834.61 1050.77,1833.63 1047.3,1833.94C1047.3,1833.94 1007.22,1837.52 1007.22,1837.52C1000.59,1838.11 995.64,1843.21 995.97,1849.11L1011.08,2119.16C1011.32,2123.49 1014.38,2127.3 1018.91,2128.91C1023.45,2130.53 1028.63,2129.66 1032.18,2126.68L1063.9,2100.12C1066.48,2097.95 1067.9,2094.92 1067.82,2091.78L1061.07,1844.71ZM1036.37,1857.22L1021.57,1858.55L1034.74,2094L1042.65,2087.37L1036.37,1857.22Z"/>
                    </g>
                    <g transform="matrix(-0.753562,0.214534,0.241976,0.849953,1299.29,68.326)">
                        <path d="M988.062,1822.86L956.717,1856.27L1023.58,2118.61L1055.3,2092.05L988.062,1822.86Z" style="fill:url(#_Linear34);"/>
                        <path d="M978.437,1815.77C981.492,1812.51 986.371,1811.08 991.013,1812.08C995.655,1813.08 999.252,1816.33 1000.28,1820.46L1067.52,2089.65C1068.48,2093.46 1067.1,2097.43 1063.9,2100.12L1032.18,2126.68C1028.91,2129.42 1024.24,2130.39 1019.93,2129.23C1015.63,2128.07 1012.36,2124.95 1011.37,2121.06L944.506,1858.72C943.648,1855.36 944.604,1851.83 947.092,1849.18L978.437,1815.77ZM970.288,1859.16L981.36,1847.36L1041.54,2088.3L1030.95,2097.17L970.288,1859.16Z"/>
                    </g>
                </g>
                <g>
                    <g transform="matrix(0.783505,0,0,0.883727,238.881,216.229)">
                        <path d="M980.05,1629.68L949.675,1649.89L1023.58,2118.61L1055.3,2092.05L980.05,1629.68Z" style="fill:url(#_Linear35);"/>
                        <path d="M985.697,1628.96C985.41,1627.19 984.091,1625.69 982.229,1625.01C980.366,1624.33 978.236,1624.56 976.625,1625.64L946.25,1645.85C944.589,1646.95 943.736,1648.77 944.024,1650.59L1017.93,2119.31C1018.23,2121.19 1019.68,2122.76 1021.69,2123.39C1023.71,2124.01 1025.95,2123.59 1027.5,2122.29L1059.22,2095.72C1060.57,2094.59 1061.21,2092.95 1060.95,2091.32L985.697,1628.96ZM955.792,1652.15L1027.7,2108.2L1049.23,2090.17L975.777,1638.85L955.792,1652.15Z"/>
                    </g>
                    <g transform="matrix(-0.753562,0.214534,0.241976,0.849953,1299.29,68.326)">
                        <path d="M980.05,1629.68L949.675,1649.89L1023.58,2118.61L1055.3,2092.05L980.05,1629.68Z" style="fill:url(#_Linear36);"/>
                        <path d="M976.625,1625.64C978.236,1624.56 980.366,1624.33 982.229,1625.01C984.091,1625.69 985.41,1627.19 985.697,1628.96L1060.95,2091.32C1061.21,2092.95 1060.57,2094.59 1059.22,2095.72L1027.5,2122.29C1025.95,2123.59 1023.71,2124.01 1021.69,2123.39C1019.68,2122.76 1018.23,2121.19 1017.93,2119.31L944.024,1650.59C943.736,1648.77 944.589,1646.95 946.25,1645.85L976.625,1625.64ZM1049.23,2090.17L1027.7,2108.2L955.792,1652.15L975.777,1638.85L1049.23,2090.17Z"/>
                    </g>
                    <g transform="matrix(0.930449,0.366421,-0.366421,0.930449,652.907,-223.363)">
                        <path d="M1017.39,1619.33L988.385,1621.24L972.572,1644.56L1002.52,1644.5L1017.39,1619.33Z" style="fill:url(#_Linear37);"/>
                        <path d="M1021.24,1621.6C1022.08,1620.18 1022.07,1618.4 1021.2,1616.99C1020.33,1615.58 1018.75,1614.76 1017.1,1614.87L988.091,1616.78C986.715,1616.87 985.458,1617.59 984.684,1618.73L968.872,1642.05C967.942,1643.42 967.847,1645.19 968.624,1646.66C969.401,1648.12 970.924,1649.03 972.581,1649.03L1002.53,1648.97C1004.11,1648.97 1005.57,1648.13 1006.37,1646.78L1021.24,1621.6ZM981.016,1640.07L999.968,1640.04L1009.23,1624.35L990.859,1625.56L981.016,1640.07Z"/>
                    </g>
                </g>
            </g>
            <g>
                <g transform="matrix(1,0,0,1,-367.697,-110.126)">
                    <g transform="matrix(-1.52656,0.791563,0.892815,1.72183,1031.1,-2585.37)">
                        <path d="M1101.88,1774.34L1085.48,1781.88L1192.76,1965.31L1206.59,1953.38L1101.88,1774.34Z" style="fill:url(#_Linear38);"/>
                        <path d="M1100.69,1772.3C1101.96,1771.71 1103.53,1772.15 1104.19,1773.28L1208.9,1952.32C1209.42,1953.22 1209.23,1954.32 1208.4,1955.03L1194.57,1966.96C1193.98,1967.47 1193.16,1967.7 1192.34,1967.59C1191.53,1967.47 1190.83,1967.02 1190.45,1966.37L1083.17,1782.94C1082.51,1781.82 1083.01,1780.42 1084.28,1779.84L1100.69,1772.3ZM1100.77,1777.45L1203.39,1952.92L1193.45,1961.5L1088.99,1782.87L1100.77,1777.45Z"/>
                    </g>
                    <g transform="matrix(1.52656,0.791563,-0.892815,1.72183,899.124,-2585.37)">
                        <path d="M1097.97,1776.32L1085.56,1782.02L1192.76,1965.31L1200.03,1950.82L1097.97,1776.32Z" style="fill:url(#_Linear39);"/>
                        <path d="M1100.28,1775.26C1099.62,1774.13 1098.05,1773.69 1096.78,1774.27L1084.37,1779.98C1083.09,1780.56 1082.59,1781.95 1083.26,1783.09L1190.45,1966.37C1190.91,1967.16 1191.84,1967.64 1192.84,1967.62C1193.84,1967.59 1194.73,1967.06 1195.13,1966.25L1202.41,1951.76C1202.73,1951.12 1202.71,1950.38 1202.34,1949.76L1100.28,1775.26ZM1192.58,1960L1197.15,1950.9L1096.86,1779.42L1089.07,1783.01L1192.58,1960Z"/>
                    </g>
                </g>
                <g transform="matrix(1,0,0,1,-0.548886,1.17722)">
                    <g transform="matrix(-1.52656,0.791563,0.892815,1.72183,1031.1,-2585.37)">
                        <path d="M1101.88,1774.34L1085.48,1781.88L1192.76,1965.31L1206.59,1953.38L1101.88,1774.34Z" style="fill:url(#_Linear40);"/>
                        <path d="M1100.69,1772.3C1101.96,1771.71 1103.53,1772.15 1104.19,1773.28L1208.9,1952.32C1209.42,1953.22 1209.23,1954.32 1208.4,1955.03L1194.57,1966.96C1193.98,1967.47 1193.16,1967.7 1192.34,1967.59C1191.53,1967.47 1190.83,1967.02 1190.45,1966.37L1083.17,1782.94C1082.51,1781.82 1083.01,1780.42 1084.28,1779.84L1100.69,1772.3ZM1100.77,1777.45L1203.39,1952.92L1193.45,1961.5L1088.99,1782.87L1100.77,1777.45Z"/>
                    </g>
                    <g transform="matrix(1.52656,0.791563,-0.892815,1.72183,899.124,-2585.37)">
                        <path d="M1097.97,1776.32L1085.56,1782.02L1192.76,1965.31L1200.03,1950.82L1097.97,1776.32Z" style="fill:url(#_Linear41);"/>
                        <path d="M1100.28,1775.26C1099.62,1774.13 1098.05,1773.69 1096.78,1774.27L1084.37,1779.98C1083.09,1780.56 1082.59,1781.95 1083.26,1783.09L1190.45,1966.37C1190.91,1967.16 1191.84,1967.64 1192.84,1967.62C1193.84,1967.59 1194.73,1967.06 1195.13,1966.25L1202.41,1951.76C1202.73,1951.12 1202.71,1950.38 1202.34,1949.76L1100.28,1775.26ZM1089.07,1783.01L1192.58,1960L1197.15,1950.9L1096.86,1779.42L1089.07,1783.01Z"/>
                    </g>
                </g>
                <g transform="matrix(1,0,0,1,258.177,-215.27)">
                    <g transform="matrix(-1.52656,0.791563,0.892815,1.72183,1031.1,-2585.37)">
                        <path d="M1101.88,1774.34L1085.48,1781.88L1192.76,1965.31L1206.59,1953.38L1101.88,1774.34Z" style="fill:url(#_Linear42);"/>
                        <path d="M1100.69,1772.3C1101.96,1771.71 1103.53,1772.15 1104.19,1773.28L1208.9,1952.32C1209.42,1953.22 1209.23,1954.32 1208.4,1955.03L1194.57,1966.96C1193.98,1967.47 1193.16,1967.7 1192.34,1967.59C1191.53,1967.47 1190.83,1967.02 1190.45,1966.37L1083.17,1782.94C1082.51,1781.82 1083.01,1780.42 1084.28,1779.84L1100.69,1772.3ZM1100.77,1777.45L1203.39,1952.92L1193.45,1961.5L1088.99,1782.87L1100.77,1777.45Z"/>
                    </g>
                    <g transform="matrix(1.52656,0.791563,-0.892815,1.72183,899.124,-2585.37)">
                        <path d="M1097.97,1776.32L1085.56,1782.02L1192.76,1965.31L1200.03,1950.82L1097.97,1776.32Z" style="fill:url(#_Linear43);"/>
                        <path d="M1100.28,1775.26C1099.62,1774.13 1098.05,1773.69 1096.78,1774.27L1084.37,1779.98C1083.09,1780.56 1082.59,1781.95 1083.26,1783.09L1190.45,1966.37C1190.91,1967.16 1191.84,1967.64 1192.84,1967.62C1193.84,1967.59 1194.73,1967.06 1195.13,1966.25L1202.41,1951.76C1202.73,1951.12 1202.71,1950.38 1202.34,1949.76L1100.28,1775.26ZM1192.58,1960L1197.15,1950.9L1096.86,1779.42L1089.07,1783.01L1192.58,1960Z"/>
                    </g>
                </g>
                <g transform="matrix(1,0,0,1,-112.569,-289.883)">
                    <g transform="matrix(-1.52656,0.791563,0.892815,1.72183,1031.1,-2585.37)">
                        <path d="M1101.88,1774.34L1085.48,1781.88L1192.76,1965.31L1206.59,1953.38L1101.88,1774.34Z" style="fill:url(#_Linear44);"/>
                        <path d="M1100.69,1772.3C1101.96,1771.71 1103.53,1772.15 1104.19,1773.28L1208.9,1952.32C1209.42,1953.22 1209.23,1954.32 1208.4,1955.03L1194.57,1966.96C1193.98,1967.47 1193.16,1967.7 1192.34,1967.59C1191.53,1967.47 1190.83,1967.02 1190.45,1966.37L1083.17,1782.94C1082.51,1781.82 1083.01,1780.42 1084.28,1779.84L1100.69,1772.3ZM1100.77,1777.45L1203.39,1952.92L1193.45,1961.5L1088.99,1782.87L1100.77,1777.45Z"/>
                    </g>
                    <g transform="matrix(1.52656,0.791563,-0.892815,1.72183,899.124,-2585.37)">
                        <path d="M1097.97,1776.32L1085.56,1782.02L1192.76,1965.31L1200.03,1950.82L1097.97,1776.32Z" style="fill:url(#_Linear45);"/>
                        <path d="M1100.28,1775.26C1099.62,1774.13 1098.05,1773.69 1096.78,1774.27L1084.37,1779.98C1083.09,1780.56 1082.59,1781.95 1083.26,1783.09L1190.45,1966.37C1190.91,1967.16 1191.84,1967.64 1192.84,1967.62C1193.84,1967.59 1194.73,1967.06 1195.13,1966.25L1202.41,1951.76C1202.73,1951.12 1202.71,1950.38 1202.34,1949.76L1100.28,1775.26ZM1192.58,1960L1197.15,1950.9L1096.86,1779.42L1089.07,1783.01L1192.58,1960Z"/>
                    </g>
                </g>
            </g>
            <g>
                <g transform="matrix(-2.00715,0.943875,0.825375,1.75516,1297.89,-3287.91)">
                    <path d="M980.948,1890.85L823.28,2101.05L1040.76,2128.06L1222.51,1963.46L980.948,1890.85Z" style="fill:url(#_Linear46);"/>
                    <path d="M979.418,1889.35C979.921,1888.67 980.714,1888.39 981.46,1888.62L1223.03,1961.23C1223.77,1961.45 1224.33,1962.13 1224.49,1962.99C1224.64,1963.84 1224.36,1964.73 1223.77,1965.27L1042.01,2129.87C1041.6,2130.24 1041.07,2130.42 1040.54,2130.35L823.063,2103.34C822.319,2103.25 821.681,2102.69 821.406,2101.89C821.131,2101.1 821.263,2100.2 821.75,2099.55L979.418,1889.35ZM1218.1,1964.52L1040.15,2125.67L827.3,2099.23L981.656,1893.44L1218.1,1964.52Z"/>
                </g>
                <path d="M885.221,957.431L960.961,1430.23C961.352,1432.67 963.647,1434.33 966.083,1433.94C968.519,1433.55 970.18,1431.26 969.79,1428.82L894.05,956.017C893.66,953.581 891.365,951.919 888.928,952.31C886.492,952.7 884.831,954.995 885.221,957.431Z"/>
                <g transform="matrix(-2.00715,0.943875,0.825375,1.75516,1293.45,-3326.61)">
                    <path d="M980.948,1890.85L823.288,2108.01L832.472,2106.96L844.036,2111.21L865.509,2078.34L855.428,2105.09L882.033,2110.17L894.396,2084.13L891.397,2105.14L916.704,2118L926.528,2071.68L930.57,2075.23L925.769,2113.13L948.875,2080.8L949.121,2120.35L968.462,2090.17L967.862,2119.54L1004.25,2126.39L1003.46,2088.23L1010.3,2087.45L1018.62,2125.11L1040.76,2128.06L980.948,1890.85Z" style="fill:rgb(222,179,66);"/>
                    <clipPath id="_clip47">
                        <path d="M980.948,1890.85L823.288,2108.01L832.472,2106.96L844.036,2111.21L865.509,2078.34L855.428,2105.09L882.033,2110.17L894.396,2084.13L891.397,2105.14L916.704,2118L926.528,2071.68L930.57,2075.23L925.769,2113.13L948.875,2080.8L949.121,2120.35L968.462,2090.17L967.862,2119.54L1004.25,2126.39L1003.46,2088.23L1010.3,2087.45L1018.62,2125.11L1040.76,2128.06L980.948,1890.85Z"/>
                    </clipPath>
                    <g clip-path="url(#_clip47)">
                        <g transform="matrix(-0.407995,0.219408,0.191862,0.466571,1165.97,1268.31)">
                            <path d="M884.544,918.684L954.166,1353.3L983.79,1337.26L934.096,1111.04L954.166,1102.77L1028.59,1307.09L1069.94,1275.43L983.79,1090.79L1094.07,1246.26L1069.94,1175.57L1133.38,1217.58L1061.7,1102.77L1061.7,1079.37L1183.29,1208.18L1218.06,1188.65L1104.7,1069.39L1114.76,1061.26L1246.87,1175.57L1274.22,1156.34L1125.72,1042.13L1295.16,1138.13L1345.31,1124.73L1345.31,1102.77L1332.91,1090.79L1332.91,1079.37L1400.83,1079.37L884.544,918.684Z" style="fill:url(#_Linear48);"/>
                            <path d="M936.988,1112.55L986.232,1336.73C986.471,1337.82 985.96,1338.93 984.98,1339.46L955.356,1355.5C954.643,1355.88 953.788,1355.9 953.061,1355.54C952.334,1355.18 951.826,1354.49 951.698,1353.69L882.075,919.079C881.938,918.225 882.253,917.361 882.906,916.795C883.56,916.228 884.46,916.04 885.286,916.297L1401.58,1076.98C1402.76,1077.35 1403.49,1078.52 1403.31,1079.74C1403.12,1080.96 1402.07,1081.87 1400.83,1081.87L1335.41,1081.87L1335.41,1089.73L1347.04,1100.98C1347.53,1101.45 1347.81,1102.1 1347.81,1102.77L1347.81,1124.73C1347.81,1125.86 1347.05,1126.85 1345.95,1127.14L1295.81,1140.55C1295.17,1140.72 1294.5,1140.63 1293.93,1140.31L1155.49,1061.87L1275.75,1154.36C1276.38,1154.84 1276.74,1155.6 1276.72,1156.39C1276.71,1157.19 1276.31,1157.93 1275.66,1158.38L1248.31,1177.61C1247.37,1178.27 1246.11,1178.21 1245.24,1177.45L1114.7,1064.52L1108.38,1069.63L1219.87,1186.93C1220.4,1187.49 1220.65,1188.26 1220.53,1189.03C1220.42,1189.79 1219.95,1190.45 1219.28,1190.83L1184.52,1210.36C1183.52,1210.92 1182.26,1210.73 1181.47,1209.89L1064.2,1085.66L1064.2,1102.06L1135.5,1216.25C1136.12,1217.25 1135.97,1218.55 1135.12,1219.37C1134.28,1220.19 1132.98,1220.31 1132,1219.66L1074.67,1181.7L1096.43,1245.45C1096.84,1246.63 1096.31,1247.92 1095.21,1248.49C1094.1,1249.05 1092.75,1248.72 1092.03,1247.71L997.742,1114.78L1072.2,1274.38C1072.7,1275.44 1072.39,1276.7 1071.46,1277.42L1030.11,1309.08C1029.48,1309.56 1028.65,1309.71 1027.89,1309.49C1027.13,1309.27 1026.51,1308.69 1026.24,1307.95L952.709,1106.08L936.988,1112.55ZM1384.39,1076.87L887.65,922.269L956.077,1349.42L980.944,1335.96L931.655,1111.57C931.394,1110.39 932.023,1109.18 933.145,1108.72L953.215,1100.46C953.844,1100.2 954.552,1100.21 955.175,1100.49C955.798,1100.76 956.282,1101.28 956.515,1101.92L1029.77,1303.04L1066.82,1274.67L981.525,1091.85C980.978,1090.68 981.415,1089.28 982.533,1088.63C983.651,1087.98 985.081,1088.29 985.829,1089.35L1086.13,1230.75L1067.57,1176.37C1067.22,1175.36 1067.56,1174.24 1068.41,1173.59C1069.26,1172.93 1070.42,1172.89 1071.32,1173.48L1125.16,1209.14L1059.58,1104.1C1059.33,1103.7 1059.2,1103.24 1059.2,1102.77L1059.2,1079.37C1059.2,1078.34 1059.82,1077.42 1060.77,1077.04C1061.72,1076.66 1062.81,1076.9 1063.52,1077.65L1183.77,1205.04L1214.03,1188.05L1102.89,1071.11C1102.4,1070.6 1102.16,1069.92 1102.2,1069.22C1102.25,1068.53 1102.59,1067.88 1103.13,1067.44L1113.19,1059.32C1114.13,1058.56 1115.48,1058.58 1116.4,1059.37L1247.03,1172.4L1270.01,1156.25L1124.2,1044.11C1123.16,1043.31 1122.91,1041.84 1123.64,1040.75C1124.37,1039.65 1125.81,1039.31 1126.95,1039.95L1295.5,1135.45L1342.81,1122.81L1342.81,1103.83L1331.18,1092.59C1330.69,1092.12 1330.41,1091.47 1330.41,1090.79L1330.41,1079.37C1330.41,1077.99 1331.53,1076.87 1332.91,1076.87L1384.39,1076.87Z"/>
                        </g>
                    </g>
                    <path d="M1008.77,2089.94L1016.67,2125.67C1016.87,2126.6 1017.56,2127.28 1018.39,2127.4L1040.53,2130.35C1041.2,2130.44 1041.86,2130.14 1042.3,2129.55C1042.73,2128.96 1042.88,2128.16 1042.7,2127.42L982.885,1890.21C982.678,1889.39 982.091,1888.77 981.36,1888.59C980.63,1888.41 979.874,1888.72 979.397,1889.37L821.737,2106.54C821.215,2107.26 821.124,2108.27 821.509,2109.1C821.893,2109.92 822.676,2110.4 823.49,2110.31L832.255,2109.3L843.419,2113.41C844.239,2113.71 845.135,2113.38 845.651,2112.59L856.888,2095.39L853.577,2104.17C853.332,2104.82 853.362,2105.57 853.658,2106.19C853.954,2106.81 854.484,2107.24 855.095,2107.36L881.7,2112.45C882.549,2112.61 883.394,2112.14 883.804,2111.27L890.489,2097.19L889.407,2104.77C889.26,2105.8 889.741,2106.82 890.578,2107.24L915.886,2120.11C916.432,2120.39 917.058,2120.37 917.594,2120.07C918.131,2119.77 918.522,2119.21 918.663,2118.54L927.757,2075.67L928.406,2076.24L923.774,2112.8C923.644,2113.82 924.128,2114.82 924.957,2115.24C925.786,2115.65 926.756,2115.39 927.329,2114.59L946.899,2087.21L947.106,2120.36C947.112,2121.36 947.674,2122.23 948.501,2122.54C949.328,2122.84 950.233,2122.51 950.747,2121.71L966.297,2097.44L965.847,2119.48C965.823,2120.63 966.543,2121.62 967.534,2121.81L1003.92,2128.67C1004.51,2128.78 1005.12,2128.59 1005.57,2128.14C1006.02,2127.68 1006.28,2127.03 1006.26,2126.34L1005.51,2090.31L1008.77,2089.94ZM827.981,2105.16L980.066,1895.67L1037.98,2125.37L1020.23,2123L1012.25,2086.88C1012.01,2085.78 1011.09,2085.04 1010.1,2085.15L1003.25,2085.93C1002.21,2086.05 1001.42,2087.08 1001.44,2088.28L1002.17,2123.67L969.918,2117.59L970.477,2090.22C970.498,2089.21 969.945,2088.31 969.111,2087.99C968.278,2087.66 967.357,2087.99 966.836,2088.8L951.093,2113.37L950.891,2080.79C950.885,2079.82 950.347,2078.95 949.546,2078.63C948.745,2078.31 947.852,2078.59 947.315,2079.34L928.805,2105.24L932.565,2075.56C932.669,2074.74 932.377,2073.91 931.799,2073.41L927.757,2069.85C927.217,2069.38 926.502,2069.24 925.859,2069.5C925.216,2069.76 924.73,2070.38 924.57,2071.13L915.315,2114.77L893.636,2103.75L896.385,2084.5C896.543,2083.39 895.978,2082.31 895.048,2081.95C894.117,2081.58 893.093,2082.04 892.624,2083.03L880.947,2107.63L858.297,2103.3L867.36,2079.25C867.764,2078.18 867.403,2076.93 866.518,2076.34C865.633,2075.76 864.506,2076.02 863.894,2076.96L843.282,2108.51L833.089,2104.76C832.825,2104.67 832.547,2104.63 832.271,2104.67L827.981,2105.16Z"/>
                </g>
                <g transform="matrix(-2.00715,0.943875,0.825375,1.75516,1292.8,-3325.95)">
                    <path d="M980.948,1890.85L1040.76,2128.06L1059.4,2112.89L1051.04,2083.93L1056.32,2081.09L1068.86,2104.64L1083.71,2088.58L1074.9,2067.15L1074.94,2057.48L1090.66,2084.84L1115.01,2059.91L1099.97,2036.85L1110.43,2035.45L1126.39,2051.51L1141.93,2035.06L1133.34,2023.13L1137.65,2018.62L1152.52,2029.36L1140.23,2010.11L1161.32,2016.7L1152.83,1996.06L1175.66,2008.98L1184.35,2001.18L1175.76,1991L1191.87,1994.6L1204.2,1982.83L1189.32,1974.06L1211.41,1976.92L1212.55,1968.82L1222.51,1963.46L980.948,1890.85Z" style="fill:rgb(222,179,66);"/>
                    <clipPath id="_clip49">
                        <path d="M980.948,1890.85L1040.76,2128.06L1059.4,2112.89L1051.04,2083.93L1056.32,2081.09L1068.86,2104.64L1083.71,2088.58L1074.9,2067.15L1074.94,2057.48L1090.66,2084.84L1115.01,2059.91L1099.97,2036.85L1110.43,2035.45L1126.39,2051.51L1141.93,2035.06L1133.34,2023.13L1137.65,2018.62L1152.52,2029.36L1140.23,2010.11L1161.32,2016.7L1152.83,1996.06L1175.66,2008.98L1184.35,2001.18L1175.76,1991L1191.87,1994.6L1204.2,1982.83L1189.32,1974.06L1211.41,1976.92L1212.55,1968.82L1222.51,1963.46L980.948,1890.85Z"/>
                    </clipPath>
                    <g clip-path="url(#_clip49)">
                        <g transform="matrix(-0.407995,0.219408,0.191862,0.466571,1165.58,1268.14)">
                            <path d="M818.125,911.133L474.299,1234.75L532.86,1243.61L679.092,1114.56L557.724,1251.17L604.07,1260.69L679.092,1154.92L651.442,1260.69L740.993,1130.43L699.462,1267.56L740.993,1279.3L774.818,1154.92L813.635,1114.56L774.818,1309.03L818.125,1323.29L847.273,1130.43L862.446,1142.97L854.194,1301.43L877.273,1313.46L884.979,1114.56L896.856,1114.56L922.937,1349.77L973.126,1357.2L890.861,875.022L818.125,911.133Z" style="fill:url(#_Linear50);"/>
                            <path d="M649.895,1143.66L534.514,1245.48C533.96,1245.97 533.217,1246.19 532.486,1246.08L473.925,1237.22C472.979,1237.07 472.198,1236.4 471.913,1235.49C471.628,1234.58 471.889,1233.58 472.586,1232.92L816.411,909.312C816.59,909.144 816.793,909.003 817.013,908.894L889.749,872.783C890.457,872.432 891.29,872.436 891.994,872.794C892.699,873.152 893.192,873.823 893.325,874.602L975.591,1356.79C975.725,1357.57 975.474,1358.38 974.913,1358.95C974.353,1359.53 973.552,1359.8 972.76,1359.68L922.571,1352.24C921.448,1352.07 920.578,1351.17 920.453,1350.04L894.618,1117.06L887.384,1117.06L879.771,1313.56C879.738,1314.42 879.269,1315.2 878.528,1315.63C877.787,1316.06 876.877,1316.08 876.118,1315.68L853.038,1303.65C852.17,1303.2 851.646,1302.28 851.697,1301.3L859.884,1144.09L849.085,1135.17L820.596,1323.66C820.486,1324.39 820.061,1325.03 819.434,1325.42C818.807,1325.8 818.042,1325.89 817.343,1325.66L774.037,1311.41C772.836,1311.01 772.119,1309.78 772.367,1308.54L809.51,1122.46L777.063,1156.19L743.405,1279.96C743.23,1280.6 742.804,1281.15 742.224,1281.48C741.643,1281.81 740.955,1281.89 740.312,1281.71L698.782,1269.97C698.136,1269.79 697.591,1269.35 697.268,1268.76C696.946,1268.17 696.875,1267.48 697.069,1266.84L733.935,1145.11L653.502,1262.11C652.814,1263.11 651.507,1263.47 650.402,1262.96C649.298,1262.46 648.716,1261.23 649.024,1260.06L673.211,1167.53L606.109,1262.14C605.535,1262.94 604.538,1263.34 603.567,1263.14L557.221,1253.62C556.346,1253.44 555.634,1252.81 555.352,1251.96C555.07,1251.11 555.262,1250.18 555.855,1249.51L649.895,1143.66ZM925.21,1347.58L970.082,1354.23L888.962,878.756L819.568,913.207L479.756,1233.04L532.081,1240.96L677.438,1112.69C678.429,1111.82 679.93,1111.86 680.863,1112.8C681.796,1113.74 681.839,1115.24 680.961,1116.23L562.47,1249.6L602.974,1257.91L677.053,1153.47C677.751,1152.49 679.054,1152.14 680.149,1152.65C681.243,1153.16 681.816,1154.38 681.511,1155.55L657.473,1247.5L738.932,1129.01C739.631,1127.99 740.965,1127.64 742.076,1128.17C743.187,1128.71 743.742,1129.97 743.385,1131.15L702.593,1265.85L739.243,1276.21L772.406,1154.26C772.516,1153.86 772.726,1153.49 773.017,1153.18L811.833,1112.83C812.603,1112.03 813.809,1111.83 814.793,1112.35C815.777,1112.86 816.304,1113.96 816.087,1115.05L777.703,1307.35L816.095,1319.99L844.801,1130.05C844.936,1129.16 845.539,1128.41 846.381,1128.09C847.222,1127.77 848.172,1127.93 848.866,1128.5L864.039,1141.04C864.648,1141.55 864.984,1142.31 864.942,1143.1L856.774,1299.96L874.928,1309.42L882.481,1114.47C882.533,1113.12 883.636,1112.06 884.979,1112.06L896.856,1112.06C898.13,1112.06 899.201,1113.02 899.341,1114.29L925.21,1347.58Z"/>
                        </g>
                    </g>
                    <path d="M1214.37,1970.39L1223.37,1965.55C1224.14,1965.13 1224.6,1964.22 1224.52,1963.25C1224.44,1962.29 1223.85,1961.48 1223.03,1961.23L981.46,1888.62C980.759,1888.41 980.013,1888.64 979.506,1889.24C978.999,1889.83 978.81,1890.69 979.011,1891.49L1038.82,2128.7C1039,2129.42 1039.48,2129.99 1040.1,2130.24C1040.71,2130.48 1041.39,2130.37 1041.93,2129.94L1060.57,2114.77C1061.29,2114.18 1061.59,2113.13 1061.31,2112.17L1053.51,2085.15L1055.54,2084.06L1067.14,2105.84C1067.46,2106.43 1067.99,2106.83 1068.6,2106.93C1069.2,2107.02 1069.81,2106.79 1070.25,2106.32L1085.1,2090.25C1085.73,2089.57 1085.9,2088.5 1085.54,2087.6L1076.92,2066.64L1076.92,2065.13L1088.97,2086.11C1089.3,2086.67 1089.82,2087.04 1090.4,2087.13C1090.98,2087.21 1091.57,2087.01 1092,2086.56L1116.35,2061.63C1117.13,2060.83 1117.25,2059.49 1116.62,2058.53L1103.68,2038.67L1109.77,2037.86L1125.06,2053.24C1125.84,2054.02 1127.01,2054 1127.76,2053.2L1143.3,2036.75C1144.08,2035.92 1144.16,2034.53 1143.48,2033.59L1136.11,2023.36L1137.87,2021.51L1151.45,2031.31C1152.27,2031.9 1153.34,2031.74 1154,2030.93C1154.66,2030.12 1154.72,2028.89 1154.15,2028L1145.25,2014.07L1160.79,2018.92C1161.55,2019.16 1162.36,2018.87 1162.86,2018.18C1163.37,2017.49 1163.48,2016.53 1163.14,2015.72L1157.12,2001.05L1174.77,2011.05C1175.46,2011.44 1176.3,2011.35 1176.91,2010.8L1185.6,2002.99C1186.04,2002.59 1186.32,2001.99 1186.36,2001.34C1186.4,2000.69 1186.2,2000.05 1185.8,1999.58L1181.66,1994.67L1191.48,1996.86C1192.08,1997 1192.69,1996.81 1193.16,1996.37L1205.49,1984.6C1206.01,1984.11 1206.27,1983.35 1206.2,1982.58C1206.13,1981.81 1205.72,1981.14 1205.12,1980.78L1200,1977.76L1211.18,1979.21C1212.25,1979.35 1213.23,1978.5 1213.4,1977.29L1214.37,1970.39ZM1057.02,2112L1041.91,2124.3L983.868,1894.11L1216.63,1964.08L1211.69,1966.74C1211.09,1967.06 1210.66,1967.7 1210.56,1968.46L1209.72,1974.38L1189.55,1971.77C1188.58,1971.64 1187.68,1972.32 1187.39,1973.39C1187.11,1974.45 1187.54,1975.6 1188.4,1976.11L1200.57,1983.29L1191.31,1992.13L1176.15,1988.74C1175.29,1988.55 1174.41,1989.02 1173.99,1989.9C1173.57,1990.79 1173.7,1991.88 1174.31,1992.6L1181.35,2000.94L1175.42,2006.27L1153.73,1993.99C1152.96,1993.56 1152.03,1993.72 1151.42,1994.41C1150.81,1995.1 1150.64,1996.15 1151.01,1997.04L1157.64,2013.16L1140.76,2007.89C1139.93,2007.63 1139.05,2008 1138.57,2008.81C1138.08,2009.61 1138.09,2010.68 1138.6,2011.47L1144.66,2020.95L1138.72,2016.67C1137.95,2016.12 1136.96,2016.22 1136.29,2016.92L1131.98,2021.43C1131.19,2022.26 1131.1,2023.65 1131.78,2024.6L1139.16,2034.84L1126.36,2048.4L1111.76,2033.72C1111.33,2033.29 1110.76,2033.09 1110.19,2033.16L1099.74,2034.56C1099.03,2034.65 1098.41,2035.18 1098.12,2035.93C1097.84,2036.69 1097.93,2037.56 1098.36,2038.22L1112.29,2059.6L1091.06,2081.34L1076.62,2056.22C1076.13,2055.37 1075.22,2054.98 1074.36,2055.27C1073.51,2055.56 1072.93,2056.45 1072.92,2057.47L1072.88,2067.14C1072.88,2067.48 1072.95,2067.82 1073.08,2068.13L1081.27,2088.05L1069.29,2101.01L1058.04,2079.89C1057.5,2078.89 1056.39,2078.51 1055.46,2079.01L1050.18,2081.85C1049.26,2082.34 1048.8,2083.55 1049.12,2084.66L1057.02,2112Z"/>
                </g>
            </g>
        </g>
    </g>
    <defs>
        <linearGradient id="_Linear1" x1="0" y1="0" x2="1" y2="0" gradientUnits="userSpaceOnUse" gradientTransform="matrix(-45.6992,8.30451,-9.36677,-40.5166,989.62,1679.12)"><stop offset="0" style="stop-color:rgb(162,143,107);stop-opacity:1"/><stop offset="1" style="stop-color:rgb(121,94,43);stop-opacity:1"/></linearGradient>
        <linearGradient id="_Linear2" x1="0" y1="0" x2="1" y2="0" gradientUnits="userSpaceOnUse" gradientTransform="matrix(46.5174,-3.10686,-3.50427,-41.242,920.155,1687.6)"><stop offset="0" style="stop-color:rgb(162,143,107);stop-opacity:1"/><stop offset="1" style="stop-color:rgb(121,94,43);stop-opacity:1"/></linearGradient>
        <linearGradient id="_Linear3" x1="0" y1="0" x2="1" y2="0" gradientUnits="userSpaceOnUse" gradientTransform="matrix(-30.6261,19.9484,-19.9484,-30.6261,1041.02,1657.29)"><stop offset="0" style="stop-color:rgb(162,143,107);stop-opacity:1"/><stop offset="1" style="stop-color:rgb(121,94,43);stop-opacity:1"/></linearGradient>
        <linearGradient id="_Linear4" x1="0" y1="0" x2="1" y2="0" gradientUnits="userSpaceOnUse" gradientTransform="matrix(-31.6879,9.09816,-10.2619,-28.0942,1044.06,1944.55)"><stop offset="0" style="stop-color:rgb(162,143,107);stop-opacity:1"/><stop offset="1" style="stop-color:rgb(121,94,43);stop-opacity:1"/></linearGradient>
        <linearGradient id="_Linear5" x1="0" y1="0" x2="1" y2="0" gradientUnits="userSpaceOnUse" gradientTransform="matrix(33.2867,1.05787,1.19319,-29.5117,949.768,1956.11)"><stop offset="0" style="stop-color:rgb(162,143,107);stop-opacity:1"/><stop offset="1" style="stop-color:rgb(121,94,43);stop-opacity:1"/></linearGradient>
        <linearGradient id="_Linear6" x1="0" y1="0" x2="1" y2="0" gradientUnits="userSpaceOnUse" gradientTransform="matrix(-20.1547,16.5784,-16.5784,-20.1547,1166.66,1859.92)"><stop offset="0" style="stop-color:rgb(162,143,107);stop-opacity:1"/><stop offset="1" style="stop-color:rgb(121,94,43);stop-opacity:1"/></linearGradient>
        <linearGradient id="_Linear7" x1="0" y1="0" x2="1" y2="0" gradientUnits="userSpaceOnUse" gradientTransform="matrix(-22.59,3.42548,-3.86365,-20.0281,988.971,1843.55)"><stop offset="0" style="stop-color:rgb(162,143,107);stop-opacity:1"/><stop offset="1" style="stop-color:rgb(121,94,43);stop-opacity:1"/></linearGradient>
        <linearGradient id="_Linear8" x1="0" y1="0" x2="1" y2="0" gradientUnits="userSpaceOnUse" gradientTransform="matrix(22.7846,-2.1894,-2.46945,-20.2006,971.561,1845.59)"><stop offset="0" style="stop-color:rgb(162,143,107);stop-opacity:1"/><stop offset="1" style="stop-color:rgb(121,94,43);stop-opacity:1"/></linearGradient>
        <linearGradient id="_Linear9" x1="0" y1="0" x2="1" y2="0" gradientUnits="userSpaceOnUse" gradientTransform="matrix(-15.3591,9.30205,-9.30205,-15.3591,1093.79,1792.68)"><stop offset="0" style="stop-color:rgb(162,143,107);stop-opacity:1"/><stop offset="1" style="stop-color:rgb(121,94,43);stop-opacity:1"/></linearGradient>
        <linearGradient id="_Linear10" x1="0" y1="0" x2="1" y2="0" gradientUnits="userSpaceOnUse" gradientTransform="matrix(-25.0511,2.84312,-3.20679,-22.2101,1008.12,1948.09)"><stop offset="0" style="stop-color:rgb(162,143,107);stop-opacity:1"/><stop offset="1" style="stop-color:rgb(121,94,43);stop-opacity:1"/></linearGradient>
        <linearGradient id="_Linear11" x1="0" y1="0" x2="1" y2="0" gradientUnits="userSpaceOnUse" gradientTransform="matrix(24.9717,-3.34696,-3.77508,-22.1398,985.426,1950.78)"><stop offset="0" style="stop-color:rgb(162,143,107);stop-opacity:1"/><stop offset="1" style="stop-color:rgb(121,94,43);stop-opacity:1"/></linearGradient>
        <linearGradient id="_Linear12" x1="0" y1="0" x2="1" y2="0" gradientUnits="userSpaceOnUse" gradientTransform="matrix(-17.3419,9.52976,-9.52976,-17.3419,1141.6,1873.14)"><stop offset="0" style="stop-color:rgb(162,143,107);stop-opacity:1"/><stop offset="1" style="stop-color:rgb(121,94,43);stop-opacity:1"/></linearGradient>
        <linearGradient id="_Linear13" x1="0" y1="0" x2="1" y2="0" gradientUnits="userSpaceOnUse" gradientTransform="matrix(68.3019,113.752,128.303,-60.556,1137.01,1850.77)"><stop offset="0" style="stop-color:rgb(162,143,107);stop-opacity:1"/><stop offset="1" style="stop-color:rgb(121,94,43);stop-opacity:1"/></linearGradient>
        <linearGradient id="_Linear14" x1="0" y1="0" x2="1" y2="0" gradientUnits="userSpaceOnUse" gradientTransform="matrix(45.284,79.7583,-89.9605,40.1484,1154.06,1867.15)"><stop offset="0" style="stop-color:rgb(162,143,107);stop-opacity:1"/><stop offset="1" style="stop-color:rgb(121,94,43);stop-opacity:1"/></linearGradient>
        <linearGradient id="_Linear15" x1="0" y1="0" x2="1" y2="0" gradientUnits="userSpaceOnUse" gradientTransform="matrix(89.5883,141.719,159.847,-79.4283,1131.02,1838.44)"><stop offset="0" style="stop-color:rgb(162,143,107);stop-opacity:1"/><stop offset="1" style="stop-color:rgb(121,94,43);stop-opacity:1"/></linearGradient>
        <linearGradient id="_Linear16" x1="0" y1="0" x2="1" y2="0" gradientUnits="userSpaceOnUse" gradientTransform="matrix(84.4191,122.26,-137.899,74.8454,1131.99,1849.87)"><stop offset="0" style="stop-color:rgb(162,143,107);stop-opacity:1"/><stop offset="0.08" style="stop-color:rgb(170,143,97);stop-opacity:1"/><stop offset="1" style="stop-color:rgb(121,94,43);stop-opacity:1"/></linearGradient>
        <linearGradient id="_Linear17" x1="0" y1="0" x2="1" y2="0" gradientUnits="userSpaceOnUse" gradientTransform="matrix(54.4463,91.3056,102.985,-48.2717,1149.87,1869.55)"><stop offset="0" style="stop-color:rgb(162,143,107);stop-opacity:1"/><stop offset="1" style="stop-color:rgb(121,94,43);stop-opacity:1"/></linearGradient>
        <linearGradient id="_Linear18" x1="0" y1="0" x2="1" y2="0" gradientUnits="userSpaceOnUse" gradientTransform="matrix(57.3428,92.9926,-104.888,50.8397,1143.7,1869.93)"><stop offset="0" style="stop-color:rgb(162,143,107);stop-opacity:1"/><stop offset="1" style="stop-color:rgb(121,94,43);stop-opacity:1"/></linearGradient>
        <linearGradient id="_Linear19" x1="0" y1="0" x2="1" y2="0" gradientUnits="userSpaceOnUse" gradientTransform="matrix(68.9417,113.195,127.674,-61.1232,1127.7,1839.74)"><stop offset="0" style="stop-color:rgb(162,143,107);stop-opacity:1"/><stop offset="1" style="stop-color:rgb(121,94,43);stop-opacity:1"/></linearGradient>
        <linearGradient id="_Linear20" x1="0" y1="0" x2="1" y2="0" gradientUnits="userSpaceOnUse" gradientTransform="matrix(72.3007,127.217,-143.49,64.1012,1128.15,1835.25)"><stop offset="0" style="stop-color:rgb(162,143,107);stop-opacity:1"/><stop offset="1" style="stop-color:rgb(121,94,43);stop-opacity:1"/></linearGradient>
        <linearGradient id="_Linear21" x1="0" y1="0" x2="1" y2="0" gradientUnits="userSpaceOnUse" gradientTransform="matrix(-27.3823,-26.7874,-30.2138,24.277,1145.45,2017.99)"><stop offset="0" style="stop-color:rgb(162,143,107);stop-opacity:1"/><stop offset="1" style="stop-color:rgb(121,94,43);stop-opacity:1"/></linearGradient>
        <linearGradient id="_Linear22" x1="0" y1="0" x2="1" y2="0" gradientUnits="userSpaceOnUse" gradientTransform="matrix(100.07,107.979,121.791,-88.7216,945.733,1980.63)"><stop offset="0" style="stop-color:rgb(162,143,107);stop-opacity:1"/><stop offset="1" style="stop-color:rgb(121,94,43);stop-opacity:1"/></linearGradient>
        <linearGradient id="_Linear23" x1="0" y1="0" x2="1" y2="0" gradientUnits="userSpaceOnUse" gradientTransform="matrix(-19.9828,-20.0933,22.6635,-17.7166,1099.03,2039.6)"><stop offset="0" style="stop-color:rgb(162,143,107);stop-opacity:1"/><stop offset="1" style="stop-color:rgb(121,94,43);stop-opacity:1"/></linearGradient>
        <linearGradient id="_Linear24" x1="0" y1="0" x2="1" y2="0" gradientUnits="userSpaceOnUse" gradientTransform="matrix(-32.2433,6.44939,-7.27436,-28.5867,1014.73,1919.8)"><stop offset="0" style="stop-color:rgb(162,143,107);stop-opacity:1"/><stop offset="1" style="stop-color:rgb(121,94,43);stop-opacity:1"/></linearGradient>
        <linearGradient id="_Linear25" x1="0" y1="0" x2="1" y2="0" gradientUnits="userSpaceOnUse" gradientTransform="matrix(33.0029,-1.62452,-1.83232,-29.2601,970.337,1925.18)"><stop offset="0" style="stop-color:rgb(162,143,107);stop-opacity:1"/><stop offset="1" style="stop-color:rgb(121,94,43);stop-opacity:1"/></linearGradient>
        <linearGradient id="_Linear26" x1="0" y1="0" x2="1" y2="0" gradientUnits="userSpaceOnUse" gradientTransform="matrix(-21.4174,14.5599,-14.5599,-21.4174,1137.25,1847.98)"><stop offset="0" style="stop-color:rgb(162,143,107);stop-opacity:1"/><stop offset="1" style="stop-color:rgb(121,94,43);stop-opacity:1"/></linearGradient>
        <linearGradient id="_Linear27" x1="0" y1="0" x2="1" y2="0" gradientUnits="userSpaceOnUse" gradientTransform="matrix(17.4993,-199.255,224.743,15.5147,1015.95,2091.37)"><stop offset="0" style="stop-color:rgb(162,143,107);stop-opacity:1"/><stop offset="1" style="stop-color:rgb(121,94,43);stop-opacity:1"/></linearGradient>
        <linearGradient id="_Linear28" x1="0" y1="0" x2="1" y2="0" gradientUnits="userSpaceOnUse" gradientTransform="matrix(-78.3681,-187.392,-211.362,69.4806,1022.15,2090.49)"><stop offset="0" style="stop-color:rgb(162,143,107);stop-opacity:1"/><stop offset="1" style="stop-color:rgb(121,94,43);stop-opacity:1"/></linearGradient>
        <linearGradient id="_Linear29" x1="0" y1="0" x2="1" y2="0" gradientUnits="userSpaceOnUse" gradientTransform="matrix(6.91421,-180.173,203.219,6.13009,1013.91,2065.69)"><stop offset="0" style="stop-color:rgb(162,143,107);stop-opacity:1"/><stop offset="1" style="stop-color:rgb(121,94,43);stop-opacity:1"/></linearGradient>
        <linearGradient id="_Linear30" x1="0" y1="0" x2="1" y2="0" gradientUnits="userSpaceOnUse" gradientTransform="matrix(-62.2942,-171.609,-193.56,55.2296,1016.18,2065.29)"><stop offset="0" style="stop-color:rgb(162,143,107);stop-opacity:1"/><stop offset="1" style="stop-color:rgb(121,94,43);stop-opacity:1"/></linearGradient>
        <linearGradient id="_Linear31" x1="0" y1="0" x2="1" y2="0" gradientUnits="userSpaceOnUse" gradientTransform="matrix(-12.4424,-162.608,183.408,-11.0313,1027.52,2056.65)"><stop offset="0" style="stop-color:rgb(162,143,107);stop-opacity:1"/><stop offset="1" style="stop-color:rgb(121,94,43);stop-opacity:1"/></linearGradient>
        <linearGradient id="_Linear32" x1="0" y1="0" x2="1" y2="0" gradientUnits="userSpaceOnUse" gradientTransform="matrix(-38.2527,-159.414,-179.805,33.9145,1000.29,2059.91)"><stop offset="0" style="stop-color:rgb(162,143,107);stop-opacity:1"/><stop offset="1" style="stop-color:rgb(121,94,43);stop-opacity:1"/></linearGradient>
        <linearGradient id="_Linear33" x1="0" y1="0" x2="1" y2="0" gradientUnits="userSpaceOnUse" gradientTransform="matrix(1.6448,-212.583,239.775,1.45827,1028.54,2057.33)"><stop offset="0" style="stop-color:rgb(162,143,107);stop-opacity:1"/><stop offset="1" style="stop-color:rgb(121,94,43);stop-opacity:1"/></linearGradient>
        <linearGradient id="_Linear34" x1="0" y1="0" x2="1" y2="0" gradientUnits="userSpaceOnUse" gradientTransform="matrix(-67.2357,-204.059,-230.162,59.6107,999.53,2060.8)"><stop offset="0" style="stop-color:rgb(162,143,107);stop-opacity:1"/><stop offset="1" style="stop-color:rgb(121,94,43);stop-opacity:1"/></linearGradient>
        <linearGradient id="_Linear35" x1="0" y1="0" x2="1" y2="0" gradientUnits="userSpaceOnUse" gradientTransform="matrix(-33.3572,4.75641,-5.36482,-29.5742,1042.83,2089.15)"><stop offset="0" style="stop-color:rgb(162,143,107);stop-opacity:1"/><stop offset="1" style="stop-color:rgb(121,94,43);stop-opacity:1"/></linearGradient>
        <linearGradient id="_Linear36" x1="0" y1="0" x2="1" y2="0" gradientUnits="userSpaceOnUse" gradientTransform="matrix(33.5513,-3.5232,-3.97386,-29.7464,995.609,2094.88)"><stop offset="0" style="stop-color:rgb(162,143,107);stop-opacity:1"/><stop offset="1" style="stop-color:rgb(121,94,43);stop-opacity:1"/></linearGradient>
        <linearGradient id="_Linear37" x1="0" y1="0" x2="1" y2="0" gradientUnits="userSpaceOnUse" gradientTransform="matrix(-22.7776,13.4876,-13.4876,-22.7776,1212.58,1979.17)"><stop offset="0" style="stop-color:rgb(162,143,107);stop-opacity:1"/><stop offset="1" style="stop-color:rgb(121,94,43);stop-opacity:1"/></linearGradient>
        <linearGradient id="_Linear38" x1="0" y1="0" x2="1" y2="0" gradientUnits="userSpaceOnUse" gradientTransform="matrix(66.3564,109.224,123.195,-58.8311,1133.42,1853.46)"><stop offset="0" style="stop-color:rgb(162,143,107);stop-opacity:1"/><stop offset="1" style="stop-color:rgb(121,94,43);stop-opacity:1"/></linearGradient>
        <linearGradient id="_Linear39" x1="0" y1="0" x2="1" y2="0" gradientUnits="userSpaceOnUse" gradientTransform="matrix(57.3645,102.6,-115.724,50.8589,1131.74,1849.83)"><stop offset="0" style="stop-color:rgb(162,143,107);stop-opacity:1"/><stop offset="1" style="stop-color:rgb(121,94,43);stop-opacity:1"/></linearGradient>
        <linearGradient id="_Linear40" x1="0" y1="0" x2="1" y2="0" gradientUnits="userSpaceOnUse" gradientTransform="matrix(57.4724,92.933,104.82,-50.9546,1133.47,1848.48)"><stop offset="0" style="stop-color:rgb(162,143,107);stop-opacity:1"/><stop offset="1" style="stop-color:rgb(121,94,43);stop-opacity:1"/></linearGradient>
        <linearGradient id="_Linear41" x1="0" y1="0" x2="1" y2="0" gradientUnits="userSpaceOnUse" gradientTransform="matrix(53.6579,94.8621,-106.996,47.5727,1134.44,1851.82)"><stop offset="0" style="stop-color:rgb(162,143,107);stop-opacity:1"/><stop offset="1" style="stop-color:rgb(121,94,43);stop-opacity:1"/></linearGradient>
        <linearGradient id="_Linear42" x1="0" y1="0" x2="1" y2="0" gradientUnits="userSpaceOnUse" gradientTransform="matrix(51.2851,88.2136,99.4973,-45.469,1143.4,1866.56)"><stop offset="0" style="stop-color:rgb(162,143,107);stop-opacity:1"/><stop offset="1" style="stop-color:rgb(121,94,43);stop-opacity:1"/></linearGradient>
        <linearGradient id="_Linear43" x1="0" y1="0" x2="1" y2="0" gradientUnits="userSpaceOnUse" gradientTransform="matrix(49.4515,84.1778,-94.9453,43.8433,1141.67,1865.49)"><stop offset="0" style="stop-color:rgb(162,143,107);stop-opacity:1"/><stop offset="1" style="stop-color:rgb(121,94,43);stop-opacity:1"/></linearGradient>
        <linearGradient id="_Linear44" x1="0" y1="0" x2="1" y2="0" gradientUnits="userSpaceOnUse" gradientTransform="matrix(50.3166,80.042,90.2805,-44.6103,1153.46,1872.32)"><stop offset="0" style="stop-color:rgb(162,143,107);stop-opacity:1"/><stop offset="1" style="stop-color:rgb(121,94,43);stop-opacity:1"/></linearGradient>
        <linearGradient id="_Linear45" x1="0" y1="0" x2="1" y2="0" gradientUnits="userSpaceOnUse" gradientTransform="matrix(44.7938,82.581,-93.1442,39.7138,1129.5,1883.34)"><stop offset="0" style="stop-color:rgb(162,143,107);stop-opacity:1"/><stop offset="1" style="stop-color:rgb(121,94,43);stop-opacity:1"/></linearGradient>
        <linearGradient id="_Linear46" x1="0" y1="0" x2="1" y2="0" gradientUnits="userSpaceOnUse" gradientTransform="matrix(29.463,89.8298,78.552,-33.6931,1015.5,2034.69)"><stop offset="0" style="stop-color:rgb(162,143,107);stop-opacity:1"/><stop offset="1" style="stop-color:rgb(121,94,43);stop-opacity:1"/></linearGradient>
        <linearGradient id="_Linear48" x1="0" y1="0" x2="1" y2="0" gradientUnits="userSpaceOnUse" gradientTransform="matrix(184.883,287.171,-287.171,184.883,898.812,930.846)"><stop offset="0" style="stop-color:rgb(157,130,57);stop-opacity:1"/><stop offset="1" style="stop-color:rgb(212,168,53);stop-opacity:1"/></linearGradient>
        <linearGradient id="_Linear50" x1="0" y1="0" x2="1" y2="0" gradientUnits="userSpaceOnUse" gradientTransform="matrix(58.052,-258.955,258.955,58.052,821.817,1180.1)"><stop offset="0" style="stop-color:rgb(212,168,53);stop-opacity:1"/><stop offset="1" style="stop-color:rgb(157,130,57);stop-opacity:1"/></linearGradient>
    </defs>
</svg>
