<?xml version="1.0" encoding="utf-8"?>
<!-- Generator: Adobe Illustrator 16.0.0, SVG Export Plug-In . SVG Version: 6.00 Build 0)  -->
<!DOCTYPE svg PUBLIC "-//W3C//DTD SVG 1.1//EN" "http://www.w3.org/Graphics/SVG/1.1/DTD/svg11.dtd">
<svg version="1.1" id="Layer_1" xmlns="http://www.w3.org/2000/svg" xmlns:xlink="http://www.w3.org/1999/xlink" x="0px" y="0px"
	 width="1400px" height="6415px" viewBox="0 0 1400 6415" enable-background="new 0 0 1400 6415" xml:space="preserve">
<polygon fill="none" stroke="#FDC711" stroke-width="50" stroke-linecap="round" stroke-linejoin="round" stroke-miterlimit="10" points="
	966.578,6321.828 946.578,6321.828 946.578,5608.867 468.102,5608.867 468.102,5362.881 117.119,5362.881 117.119,4675.417 
	690,4675.417 690,4501.426 1261.563,4501.426 1261.563,3670.97 357.108,3670.97 357.108,3375.485 149,3375.485 149,2758.998 
	515,2758.998 515,2495 893.84,2495 893.84,2146.84 1214.872,2146.84 1214.872,1266.751 149,1266.751 149,439 690,439 690,45 710,45 
	710,459 169,459 169,1246.751 1234.872,1246.751 1234.872,2166.84 913.84,2166.84 913.84,2515 535,2515 535,2778.998 169,2778.998 
	169,3355.485 377.108,3355.485 377.108,3650.97 1281.563,3650.97 1281.563,4521.426 710,4521.426 710,4695.417 137.119,4695.417 
	137.119,5342.881 488.102,5342.881 488.102,5588.867 966.578,5588.867 "/>
<polyline fill="none" stroke="#FDC711" stroke-width="50" stroke-linecap="round" stroke-linejoin="round" stroke-miterlimit="10" points="
	700,45 700,449 159,449 159,1256.751 1224.872,1256.751 1224.872,2156.84 903.84,2156.84 903.84,2505 525,2505 525,2768.998 
	159,2768.998 159,3138.031 159,3365.485 367.107,3365.485 367.107,3660.97 1271.563,3660.97 1271.563,4511.426 700,4511.426 
	700,4685.417 127.119,4685.417 127.119,5352.881 478.102,5352.881 478.102,5598.867 956.578,5598.867 956.578,6321.828 "/>
</svg>
