<svg width="138" height="125" xmlns="http://www.w3.org/2000/svg" fill-rule="evenodd" clip-rule="evenodd" stroke-linejoin="round" stroke-miterlimit="2"><path d="M55.953 53.163l15.834-1.258.564 18.842-1.164 4.04-1.933 49.21L8.317 94.811l1.617-45.824 8.503-3.433 31.78-3.55 5.736 11.159z" fill="url(#_Linear1)"/><clipPath id="a"><path d="M55.953 53.163l15.834-1.258.564 18.842-1.164 4.04-1.933 49.21L8.317 94.811l1.617-45.824 8.503-3.433 31.78-3.55 5.736 11.159z"/></clipPath><g clip-path="url(#a)"><path d="M45.799 62.511c-1.851-.878-2.998-5.93-4.791-6.814-2.13-1.051-4.894 2.065-6.95 1.006l-.215 18.177 11.645 5.858.311-18.227z" fill="url(#_Linear3)"/><path d="M46.724 62.526a.924.924 0 00-.529-.851c-.251-.119-.466-.371-.687-.672-.46-.627-.879-1.47-1.299-2.311-.469-.936-.939-1.87-1.44-2.57-.42-.586-.878-1.021-1.352-1.255-.723-.356-1.498-.385-2.3-.211-.644.139-1.311.415-1.973.696-.552.234-1.1.474-1.629.589-.363.079-.713.105-1.034-.06a.923.923 0 00-1.348.811l-.215 18.177a.925.925 0 00.509.837l11.646 5.858a.926.926 0 001.34-.81l.311-18.228zm-1.858.48a4.768 4.768 0 01-.85-.909c-.514-.701-.991-1.638-1.461-2.577-.423-.844-.838-1.69-1.29-2.321-.216-.301-.423-.553-.666-.673-.342-.169-.711-.145-1.091-.062-.537.116-1.089.356-1.641.59-.663.281-1.324.556-1.958.694-.319.07-.633.106-.94.102l-.195 16.463 9.815 4.937.277-16.244z"/><path d="M25.492 79.37c-1.851-.878-2.999-5.93-4.792-6.814-2.13-1.051-4.893 2.065-6.95 1.006l-.215 18.177 11.646 5.858.311-18.227z" fill="url(#_Linear4)"/><path d="M26.416 79.386a.926.926 0 00-.528-.852c-.252-.119-.467-.371-.688-.672-.46-.627-.878-1.47-1.299-2.311-.468-.936-.939-1.87-1.44-2.57-.42-.586-.878-1.021-1.352-1.254-.723-.357-1.497-.386-2.3-.212-.644.139-1.311.415-1.973.696-.552.234-1.1.474-1.629.589-.363.079-.713.105-1.034-.06a.924.924 0 00-1.348.811l-.215 18.177a.926.926 0 00.51.837l11.645 5.859a.923.923 0 001.34-.811l.311-18.227zm-1.858.479a4.737 4.737 0 01-.849-.909c-.514-.701-.992-1.637-1.462-2.577-.422-.843-.838-1.69-1.29-2.321-.215-.301-.423-.553-.666-.673-.342-.168-.711-.144-1.091-.062-.537.116-1.089.356-1.641.59-.662.281-1.324.556-1.958.694a4.08 4.08 0 01-.94.102l-.194 16.463 9.814 4.938.277-16.245z"/><path d="M61.516 96.243c-1.851-.878-2.999-5.929-4.792-6.814-2.129-1.05-4.893 2.065-6.95 1.006l-.215 18.177 11.646 5.859.311-18.228z" fill="url(#_Linear5)"/><path d="M62.44 96.259a.924.924 0 00-.528-.852c-.252-.119-.467-.371-.687-.672-.461-.627-.879-1.47-1.3-2.31-.468-.937-.938-1.871-1.44-2.57-.42-.587-.878-1.021-1.351-1.255-.724-.357-1.498-.385-2.3-.212-.645.14-1.311.415-1.973.696-.553.234-1.101.474-1.63.59-.362.079-.713.104-1.033-.061a.926.926 0 00-1.348.811l-.215 18.177a.921.921 0 00.509.837l11.645 5.859a.925.925 0 001.341-.811l.31-18.227zm-1.858.479a4.737 4.737 0 01-.849-.909c-.514-.701-.992-1.637-1.462-2.577-.422-.843-.837-1.69-1.289-2.32-.216-.301-.423-.553-.667-.673-.342-.169-.711-.145-1.09-.063-.538.116-1.09.356-1.642.591-.662.281-1.324.555-1.958.694a4.131 4.131 0 01-.939.101l-.195 16.464 9.814 4.937.277-16.245z"/><path d="M63.249 69.362c-1.851-.878-2.999-5.93-4.792-6.814-2.13-1.051-4.893 2.065-6.95 1.006l-.215 18.177 11.646 5.858.311-18.227z" fill="url(#_Linear6)"/><path d="M64.173 69.378a.926.926 0 00-.528-.852c-.252-.119-.467-.371-.688-.672-.46-.627-.878-1.47-1.299-2.31-.468-.937-.938-1.871-1.44-2.571-.42-.586-.878-1.021-1.352-1.254-.723-.357-1.497-.385-2.3-.212-.644.139-1.31.415-1.973.696-.552.234-1.1.474-1.629.589-.363.079-.713.105-1.033-.06a.926.926 0 00-1.349.811l-.215 18.177a.925.925 0 00.51.837l11.645 5.859a.926.926 0 001.341-.811l.31-18.227zm-1.858.479a4.737 4.737 0 01-.849-.909c-.514-.701-.992-1.637-1.462-2.577-.422-.843-.838-1.69-1.289-2.32-.216-.301-.423-.554-.667-.674-.342-.168-.711-.144-1.09-.062-.538.116-1.09.356-1.642.591-.662.28-1.324.555-1.958.694a4.131 4.131 0 01-.939.101l-.195 16.464 9.814 4.937.277-16.245z"/><path d="M27.314 54.144c-1.851-.878-2.999-5.93-4.791-6.814-2.13-1.051-4.894 2.065-6.95 1.006l-.215 18.177 11.645 5.858.311-18.227z" fill="url(#_Linear7)"/><path d="M28.239 54.159a.926.926 0 00-.529-.851c-.252-.119-.466-.371-.687-.672-.46-.627-.879-1.47-1.299-2.311-.469-.936-.939-1.87-1.441-2.57-.419-.586-.877-1.021-1.351-1.255-.723-.356-1.498-.385-2.3-.211-.644.139-1.311.415-1.973.696-.552.234-1.1.474-1.629.589-.363.079-.713.105-1.034-.06a.924.924 0 00-1.348.811l-.215 18.177a.925.925 0 00.509.837l11.646 5.858a.926.926 0 001.34-.81l.311-18.228zm-1.858.48a4.738 4.738 0 01-.85-.909c-.514-.701-.991-1.638-1.461-2.577-.423-.844-.838-1.69-1.29-2.321-.216-.301-.423-.553-.666-.673-.342-.169-.712-.145-1.091-.062-.537.116-1.09.356-1.642.59-.662.281-1.323.556-1.957.694-.32.07-.633.106-.94.102l-.195 16.463 9.815 4.937.277-16.244z"/><path d="M43.392 91.109l-10.782-5.17-.251 25.043 10.532 3.675.501-23.548z" fill="url(#_Linear8)"/><path d="M44.308 91.128a.918.918 0 00-.52-.846l-10.782-5.169a.917.917 0 00-1.313.817l-.25 25.043a.917.917 0 00.614.875l10.532 3.675a.92.92 0 001.219-.846l.5-23.549zm-11.026 19.205l8.719 3.043.462-21.696-8.951-4.291-.23 22.944z"/></g><path d="M72.107 74.935l-1.929 49.099a.923.923 0 01-1.324.797L7.918 95.645a.924.924 0 01-.525-.866L9.01 48.955a.924.924 0 01.578-.825l8.502-3.434a.93.93 0 01.244-.061l31.781-3.55a.926.926 0 01.925.497l5.454 10.61 15.219-1.208a.926.926 0 01.998.894l.564 18.841-.924.028h.663-.663c.412 0 .774 0 .888.256l-1.132 3.932zM49.686 42.994l-31.021 3.465-7.828 3.161-1.574 44.619 59.122 28.317 1.878-47.805a.962.962 0 01.035-.22l1.124-3.901-.531-17.726-14.865 1.181a.928.928 0 01-.896-.499l-5.444-10.592z"/><path d="M129.248 36.503L70.836 76.856l-1.531 47.079 58.794-46.288 1.149-41.144z" fill="url(#_Linear9)"/><path d="M130.172 36.529a.926.926 0 00-1.45-.787L70.31 76.095a.928.928 0 00-.399.731l-1.53 47.079a.925.925 0 001.497.757l58.793-46.288a.927.927 0 00.353-.701l1.148-41.144zM71.745 77.352l-1.451 44.628 56.893-44.792 1.086-38.887-56.528 39.051z"/><g><path d="M38.415 38.185L75.7 85.808l61.208-44.266L106.904.925l-68.489 37.26z" fill="url(#_Linear10)"/><path d="M37.973 37.373a.924.924 0 00-.286 1.382l37.285 47.623a.925.925 0 001.27.179l61.208-44.265a.925.925 0 00.202-1.299L107.648.375a.926.926 0 00-1.186-.263L37.973 37.373zm1.844 1.103L75.88 84.537l59.729-43.196-28.97-39.219-66.822 36.354z"/><path d="M42.234 43.996L106.682.967 64.159 14.838.925 52.226l41.309-8.23z" fill="url(#_Linear11)"/><path d="M42.415 44.903a.92.92 0 00.333-.138l64.448-43.029a.924.924 0 00-.801-1.648L63.872 13.959a.951.951 0 00-.184.083L.454 51.43a.924.924 0 00.651 1.703l41.31-8.23zm22.127-29.217L6.07 50.258l35.804-7.133 58.703-39.194-36.035 11.755z"/></g><defs><linearGradient id="_Linear1" x1="0" y1="0" x2="1" y2="0" gradientUnits="userSpaceOnUse" gradientTransform="scale(23.4292) rotate(-58.688 3.197 .041)"><stop offset="0" stop-color="#fdc60a"/><stop offset="1" stop-color="#dd9d05"/></linearGradient><linearGradient id="_Linear3" x1="0" y1="0" x2="1" y2="0" gradientUnits="userSpaceOnUse" gradientTransform="rotate(63.246 -30.76 57.293) scale(19.91231)"><stop offset="0" stop-color="#fff"/><stop offset="1" stop-color="#7ce2ff"/></linearGradient><linearGradient id="_Linear4" x1="0" y1="0" x2="1" y2="0" gradientUnits="userSpaceOnUse" gradientTransform="rotate(63.246 -54.603 49.232) scale(19.91231)"><stop offset="0" stop-color="#fff"/><stop offset="1" stop-color="#7ce2ff"/></linearGradient><linearGradient id="_Linear5" x1="0" y1="0" x2="1" y2="0" gradientUnits="userSpaceOnUse" gradientTransform="rotate(63.246 -50.292 86.92) scale(19.91231)"><stop offset="0" stop-color="#fff"/><stop offset="1" stop-color="#7ce2ff"/></linearGradient><linearGradient id="_Linear6" x1="0" y1="0" x2="1" y2="0" gradientUnits="userSpaceOnUse" gradientTransform="rotate(63.246 -27.598 74.888) scale(19.91231)"><stop offset="0" stop-color="#fff"/><stop offset="1" stop-color="#7ce2ff"/></linearGradient><linearGradient id="_Linear7" x1="0" y1="0" x2="1" y2="0" gradientUnits="userSpaceOnUse" gradientTransform="rotate(63.246 -33.208 38.099) scale(19.91231)"><stop offset="0" stop-color="#fff"/><stop offset="1" stop-color="#7ce2ff"/></linearGradient><linearGradient id="_Linear8" x1="0" y1="0" x2="1" y2="0" gradientUnits="userSpaceOnUse" gradientTransform="rotate(-69.445 89.02 22.416) scale(9.60094)"><stop offset="0" stop-color="#1257b1"/><stop offset="1" stop-color="#002e69"/></linearGradient><linearGradient id="_Linear9" x1="0" y1="0" x2="1" y2="0" gradientUnits="userSpaceOnUse" gradientTransform="scale(27.3224) rotate(-31.023 7.327 -5.359)"><stop offset="0" stop-color="#fdc60a"/><stop offset="1" stop-color="#dd9d05"/></linearGradient><linearGradient id="_Linear10" x1="0" y1="0" x2="1" y2="0" gradientUnits="userSpaceOnUse" gradientTransform="rotate(-60.721 82.396 -43.339) scale(51.5451)"><stop offset="0" stop-color="#165fbe"/><stop offset="1" stop-color="#003477"/></linearGradient><linearGradient id="_Linear11" x1="0" y1="0" x2="1" y2="0" gradientUnits="userSpaceOnUse" gradientTransform="rotate(-31.393 79.073 -74.146) scale(50.4141)"><stop offset="0" stop-color="#165fbe"/><stop offset="1" stop-color="#003477"/></linearGradient></defs></svg>