<?xml version="1.0" encoding="UTF-8" standalone="no"?>
<!DOCTYPE svg PUBLIC "-//W3C//DTD SVG 1.1//EN" "http://www.w3.org/Graphics/SVG/1.1/DTD/svg11.dtd">
<svg width="138px" height="125px" version="1.1" xmlns="http://www.w3.org/2000/svg" xmlns:xlink="http://www.w3.org/1999/xlink" xml:space="preserve" xmlns:serif="http://www.serif.com/" style="fill-rule:evenodd;clip-rule:evenodd;stroke-linejoin:round;stroke-miterlimit:2;">
    <g>
        <g>
            <path d="M55.953,53.163L71.787,51.905L72.351,70.747L71.187,74.787L69.254,123.997L8.317,94.811L9.934,48.987L18.437,45.554L50.217,42.004L55.953,53.163Z" style="fill:url(#_Linear1);"/>
            <clipPath id="_clip2">
                <path d="M55.953,53.163L71.787,51.905L72.351,70.747L71.187,74.787L69.254,123.997L8.317,94.811L9.934,48.987L18.437,45.554L50.217,42.004L55.953,53.163Z"/>
            </clipPath>
            <g clip-path="url(#_clip2)">
                <path d="M45.799,62.511C43.948,61.633 42.801,56.581 41.008,55.697C38.878,54.646 36.114,57.762 34.058,56.703L33.843,74.88L45.488,80.738L45.799,62.511Z" style="fill:url(#_Linear3);"/>
                <path d="M46.724,62.526C46.73,62.163 46.523,61.83 46.195,61.675C45.944,61.556 45.729,61.304 45.508,61.003C45.048,60.376 44.629,59.533 44.209,58.692C43.74,57.756 43.27,56.822 42.769,56.122C42.349,55.536 41.891,55.101 41.417,54.867C40.694,54.511 39.919,54.482 39.117,54.656C38.473,54.795 37.806,55.071 37.144,55.352C36.592,55.586 36.044,55.826 35.515,55.941C35.152,56.02 34.802,56.046 34.481,55.881C34.196,55.734 33.856,55.745 33.581,55.911C33.306,56.076 33.137,56.371 33.133,56.692L32.918,74.869C32.914,75.222 33.111,75.547 33.427,75.706L45.073,81.564C45.357,81.707 45.695,81.694 45.967,81.53C46.239,81.365 46.408,81.072 46.413,80.754L46.724,62.526ZM44.866,63.006C44.57,62.77 44.285,62.463 44.016,62.097C43.502,61.396 43.025,60.459 42.555,59.52C42.132,58.676 41.717,57.83 41.265,57.199C41.049,56.898 40.842,56.646 40.599,56.526C40.257,56.357 39.888,56.381 39.508,56.464C38.971,56.58 38.419,56.82 37.867,57.054C37.204,57.335 36.543,57.61 35.909,57.748C35.59,57.818 35.276,57.854 34.969,57.85L34.774,74.313L44.589,79.25L44.866,63.006Z"/>
                <path d="M25.492,79.37C23.641,78.492 22.493,73.44 20.7,72.556C18.57,71.505 15.807,74.621 13.75,73.562L13.535,91.739L25.181,97.597L25.492,79.37Z" style="fill:url(#_Linear4);"/>
                <path d="M26.416,79.386C26.422,79.023 26.216,78.69 25.888,78.534C25.636,78.415 25.421,78.163 25.2,77.862C24.74,77.235 24.322,76.392 23.901,75.551C23.433,74.615 22.962,73.681 22.461,72.981C22.041,72.395 21.583,71.96 21.109,71.727C20.386,71.37 19.612,71.341 18.809,71.515C18.165,71.654 17.498,71.93 16.836,72.211C16.284,72.445 15.736,72.685 15.207,72.8C14.844,72.879 14.494,72.905 14.173,72.74C13.888,72.593 13.548,72.605 13.273,72.77C12.999,72.935 12.829,73.231 12.825,73.551L12.61,91.728C12.606,92.081 12.804,92.406 13.12,92.565L24.765,98.424C25.049,98.566 25.387,98.553 25.659,98.389C25.932,98.224 26.1,97.931 26.105,97.613L26.416,79.386ZM24.558,79.865C24.263,79.63 23.978,79.323 23.709,78.956C23.195,78.255 22.717,77.319 22.247,76.379C21.825,75.536 21.409,74.689 20.957,74.058C20.742,73.757 20.534,73.505 20.291,73.385C19.949,73.217 19.58,73.241 19.2,73.323C18.663,73.439 18.111,73.679 17.559,73.913C16.897,74.194 16.235,74.469 15.601,74.607C15.282,74.677 14.968,74.714 14.661,74.709L14.467,91.172L24.281,96.11L24.558,79.865Z"/>
                <path d="M61.516,96.243C59.665,95.365 58.517,90.314 56.724,89.429C54.595,88.379 51.831,91.494 49.774,90.435L49.559,108.612L61.205,114.471L61.516,96.243Z" style="fill:url(#_Linear5);"/>
                <path d="M62.44,96.259C62.447,95.896 62.24,95.563 61.912,95.407C61.66,95.288 61.445,95.036 61.225,94.735C60.764,94.108 60.346,93.265 59.925,92.425C59.457,91.488 58.987,90.554 58.485,89.855C58.065,89.268 57.607,88.834 57.134,88.6C56.41,88.243 55.636,88.215 54.834,88.388C54.189,88.528 53.523,88.803 52.861,89.084C52.308,89.318 51.76,89.558 51.231,89.674C50.869,89.753 50.518,89.778 50.198,89.613C49.913,89.466 49.572,89.478 49.297,89.643C49.023,89.808 48.853,90.104 48.85,90.424L48.635,108.601C48.63,108.955 48.828,109.28 49.144,109.438L60.789,115.297C61.074,115.44 61.411,115.427 61.684,115.262C61.956,115.097 62.124,114.804 62.13,114.486L62.44,96.259ZM60.582,96.738C60.287,96.503 60.002,96.196 59.733,95.829C59.219,95.128 58.741,94.192 58.271,93.252C57.849,92.409 57.434,91.562 56.982,90.932C56.766,90.631 56.559,90.379 56.315,90.259C55.973,90.09 55.604,90.114 55.225,90.196C54.687,90.312 54.135,90.552 53.583,90.787C52.921,91.068 52.259,91.342 51.625,91.481C51.306,91.55 50.992,91.587 50.686,91.582L50.491,108.046L60.305,112.983L60.582,96.738Z"/>
                <path d="M63.249,69.362C61.398,68.484 60.25,63.432 58.457,62.548C56.327,61.497 53.564,64.613 51.507,63.554L51.292,81.731L62.938,87.589L63.249,69.362Z" style="fill:url(#_Linear6);"/>
                <path d="M64.173,69.378C64.179,69.015 63.973,68.682 63.645,68.526C63.393,68.407 63.178,68.155 62.957,67.854C62.497,67.227 62.079,66.384 61.658,65.544C61.19,64.607 60.72,63.673 60.218,62.973C59.798,62.387 59.34,61.952 58.866,61.719C58.143,61.362 57.369,61.334 56.566,61.507C55.922,61.646 55.256,61.922 54.593,62.203C54.041,62.437 53.493,62.677 52.964,62.792C52.601,62.871 52.251,62.897 51.931,62.732C51.646,62.585 51.305,62.597 51.03,62.762C50.756,62.927 50.586,63.223 50.582,63.543L50.367,81.72C50.363,82.074 50.561,82.398 50.877,82.557L62.522,88.416C62.807,88.559 63.144,88.545 63.416,88.381C63.689,88.216 63.857,87.923 63.863,87.605L64.173,69.378ZM62.315,69.857C62.02,69.622 61.735,69.315 61.466,68.948C60.952,68.247 60.474,67.311 60.004,66.371C59.582,65.528 59.166,64.681 58.715,64.051C58.499,63.75 58.292,63.497 58.048,63.377C57.706,63.209 57.337,63.233 56.958,63.315C56.42,63.431 55.868,63.671 55.316,63.906C54.654,64.186 53.992,64.461 53.358,64.6C53.039,64.669 52.725,64.706 52.419,64.701L52.224,81.165L62.038,86.102L62.315,69.857Z"/>
                <path d="M27.314,54.144C25.463,53.266 24.315,48.214 22.523,47.33C20.393,46.279 17.629,49.395 15.573,48.336L15.358,66.513L27.003,72.371L27.314,54.144Z" style="fill:url(#_Linear7);"/>
                <path d="M28.239,54.159C28.245,53.797 28.038,53.464 27.71,53.308C27.458,53.189 27.244,52.937 27.023,52.636C26.563,52.009 26.144,51.166 25.724,50.325C25.255,49.389 24.785,48.455 24.283,47.755C23.864,47.169 23.406,46.734 22.932,46.5C22.209,46.144 21.434,46.115 20.632,46.289C19.988,46.428 19.321,46.704 18.659,46.985C18.107,47.219 17.559,47.459 17.03,47.574C16.667,47.653 16.317,47.679 15.996,47.514C15.711,47.367 15.37,47.378 15.096,47.544C14.821,47.709 14.652,48.005 14.648,48.325L14.433,66.502C14.429,66.855 14.626,67.18 14.942,67.339L26.588,73.197C26.872,73.34 27.21,73.327 27.482,73.163C27.754,72.998 27.923,72.705 27.928,72.387L28.239,54.159ZM26.381,54.639C26.085,54.404 25.8,54.096 25.531,53.73C25.017,53.029 24.54,52.092 24.07,51.153C23.647,50.309 23.232,49.463 22.78,48.832C22.564,48.531 22.357,48.279 22.114,48.159C21.772,47.99 21.402,48.014 21.023,48.097C20.486,48.213 19.933,48.453 19.381,48.687C18.719,48.968 18.058,49.243 17.424,49.381C17.104,49.451 16.791,49.487 16.484,49.483L16.289,65.946L26.104,70.883L26.381,54.639Z"/>
                <path d="M43.392,91.109L32.61,85.939L32.359,110.982L42.891,114.657L43.392,91.109Z" style="fill:url(#_Linear8);"/>
                <path d="M44.308,91.128C44.316,90.769 44.112,90.438 43.788,90.282L33.006,85.113C32.723,84.977 32.391,84.996 32.125,85.161C31.859,85.327 31.696,85.617 31.693,85.93L31.443,110.973C31.439,111.366 31.686,111.718 32.057,111.848L42.589,115.523C42.866,115.619 43.173,115.577 43.414,115.41C43.655,115.243 43.801,114.97 43.808,114.677L44.308,91.128ZM33.282,110.333L42.001,113.376L42.463,91.68L33.512,87.389L33.282,110.333Z"/>
            </g>
            <path d="M72.107,74.935L70.178,124.034C70.166,124.345 69.998,124.629 69.731,124.789C69.464,124.95 69.135,124.966 68.854,124.831L7.918,95.645C7.586,95.486 7.38,95.146 7.393,94.779L9.01,48.955C9.023,48.59 9.249,48.266 9.588,48.13L18.09,44.696C18.168,44.665 18.25,44.644 18.334,44.635L50.115,41.085C50.496,41.043 50.864,41.24 51.04,41.582L56.494,52.192L71.713,50.984C71.966,50.964 72.215,51.048 72.404,51.217C72.592,51.386 72.703,51.625 72.711,51.878L73.275,70.719L72.351,70.747L73.202,70.747C73.347,70.747 73.273,70.747 73.014,70.747L72.351,70.747C72.763,70.747 73.125,70.747 73.239,71.003L72.107,74.935ZM49.686,42.994L18.665,46.459L10.837,49.62L9.263,94.239L68.385,122.556L70.263,74.751C70.266,74.676 70.278,74.603 70.298,74.531L71.422,70.63L70.891,52.904L56.026,54.085C55.654,54.114 55.301,53.917 55.13,53.586L49.686,42.994Z"/>
            <path d="M129.248,36.503L70.836,76.856L69.305,123.935L128.099,77.647L129.248,36.503Z" style="fill:url(#_Linear9);"/>
            <path d="M130.172,36.529C130.182,36.181 129.995,35.857 129.689,35.69C129.383,35.524 129.009,35.544 128.722,35.742L70.31,76.095C70.069,76.262 69.921,76.533 69.911,76.826L68.381,123.905C68.369,124.265 68.567,124.598 68.888,124.761C69.209,124.923 69.595,124.885 69.878,124.662L128.671,78.374C128.887,78.204 129.016,77.947 129.024,77.673L130.172,36.529ZM71.745,77.352L70.294,121.98L127.187,77.188L128.273,38.301L71.745,77.352Z"/>
        </g>
        <g>
            <path d="M38.415,38.185L75.7,85.808L136.908,41.542L106.904,0.925L38.415,38.185Z" style="fill:url(#_Linear10);"/>
            <path d="M37.973,37.373C37.734,37.503 37.565,37.732 37.51,37.998C37.454,38.264 37.519,38.541 37.687,38.755L74.972,86.378C75.279,86.769 75.84,86.848 76.242,86.557L137.45,42.292C137.65,42.147 137.784,41.929 137.822,41.685C137.86,41.441 137.799,41.192 137.652,40.993L107.648,0.375C107.374,0.004 106.868,-0.108 106.462,0.112L37.973,37.373ZM39.817,38.476L75.88,84.537L135.609,41.341L106.639,2.122L39.817,38.476Z"/>
            <path d="M42.234,43.996L106.682,0.967L64.159,14.838L0.925,52.226L42.234,43.996Z" style="fill:url(#_Linear11);"/>
            <path d="M42.415,44.903C42.534,44.879 42.647,44.833 42.748,44.765L107.196,1.736C107.58,1.48 107.716,0.979 107.514,0.563C107.312,0.147 106.834,-0.055 106.395,0.088L63.872,13.959C63.808,13.98 63.746,14.008 63.688,14.042L0.454,51.43C0.066,51.659 -0.1,52.135 0.061,52.556C0.222,52.977 0.663,53.221 1.105,53.133L42.415,44.903ZM64.542,15.686L6.07,50.258L41.874,43.125L100.577,3.931L64.542,15.686Z"/>
        </g>
    </g>
    <defs>
        <linearGradient id="_Linear1" x1="0" y1="0" x2="1" y2="0" gradientUnits="userSpaceOnUse" gradientTransform="matrix(12.1761,-20.0167,20.0167,12.1761,35.1545,64.4587)"><stop offset="0" style="stop-color:rgb(253,198,10);stop-opacity:1"/><stop offset="1" style="stop-color:rgb(221,157,5);stop-opacity:1"/></linearGradient>
        <linearGradient id="_Linear3" x1="0" y1="0" x2="1" y2="0" gradientUnits="userSpaceOnUse" gradientTransform="matrix(8.96384,17.7806,-17.7806,8.96384,34.2465,58.9681)"><stop offset="0" style="stop-color:white;stop-opacity:1"/><stop offset="1" style="stop-color:rgb(124,226,255);stop-opacity:1"/></linearGradient>
        <linearGradient id="_Linear4" x1="0" y1="0" x2="1" y2="0" gradientUnits="userSpaceOnUse" gradientTransform="matrix(8.96384,17.7806,-17.7806,8.96384,13.9388,75.8273)"><stop offset="0" style="stop-color:white;stop-opacity:1"/><stop offset="1" style="stop-color:rgb(124,226,255);stop-opacity:1"/></linearGradient>
        <linearGradient id="_Linear5" x1="0" y1="0" x2="1" y2="0" gradientUnits="userSpaceOnUse" gradientTransform="matrix(8.96384,17.7806,-17.7806,8.96384,49.9631,92.7005)"><stop offset="0" style="stop-color:white;stop-opacity:1"/><stop offset="1" style="stop-color:rgb(124,226,255);stop-opacity:1"/></linearGradient>
        <linearGradient id="_Linear6" x1="0" y1="0" x2="1" y2="0" gradientUnits="userSpaceOnUse" gradientTransform="matrix(8.96384,17.7806,-17.7806,8.96384,51.696,65.8194)"><stop offset="0" style="stop-color:white;stop-opacity:1"/><stop offset="1" style="stop-color:rgb(124,226,255);stop-opacity:1"/></linearGradient>
        <linearGradient id="_Linear7" x1="0" y1="0" x2="1" y2="0" gradientUnits="userSpaceOnUse" gradientTransform="matrix(8.96384,17.7806,-17.7806,8.96384,15.7613,50.6011)"><stop offset="0" style="stop-color:white;stop-opacity:1"/><stop offset="1" style="stop-color:rgb(124,226,255);stop-opacity:1"/></linearGradient>
        <linearGradient id="_Linear8" x1="0" y1="0" x2="1" y2="0" gradientUnits="userSpaceOnUse" gradientTransform="matrix(3.37101,-8.98968,8.98968,3.37101,36.775,97.8976)"><stop offset="0" style="stop-color:rgb(18,87,177);stop-opacity:1"/><stop offset="1" style="stop-color:rgb(0,46,105);stop-opacity:1"/></linearGradient>
        <linearGradient id="_Linear9" x1="0" y1="0" x2="1" y2="0" gradientUnits="userSpaceOnUse" gradientTransform="matrix(23.4142,-14.0816,14.0816,23.4142,104.093,82.2354)"><stop offset="0" style="stop-color:rgb(253,198,10);stop-opacity:1"/><stop offset="1" style="stop-color:rgb(221,157,5);stop-opacity:1"/></linearGradient>
        <linearGradient id="_Linear10" x1="0" y1="0" x2="1" y2="0" gradientUnits="userSpaceOnUse" gradientTransform="matrix(25.2085,-44.9603,44.9603,25.2085,79.9018,49.726)"><stop offset="0" style="stop-color:rgb(22,95,190);stop-opacity:1"/><stop offset="1" style="stop-color:rgb(0,52,119);stop-opacity:1"/></linearGradient>
        <linearGradient id="_Linear11" x1="0" y1="0" x2="1" y2="0" gradientUnits="userSpaceOnUse" gradientTransform="matrix(43.0343,-26.2608,26.2608,43.0343,50.1976,30.3356)"><stop offset="0" style="stop-color:rgb(22,95,190);stop-opacity:1"/><stop offset="1" style="stop-color:rgb(0,52,119);stop-opacity:1"/></linearGradient>
    </defs>
</svg>
