<?xml version="1.0" encoding="UTF-8" standalone="no"?>
<!DOCTYPE svg PUBLIC "-//W3C//DTD SVG 1.1//EN" "http://www.w3.org/Graphics/SVG/1.1/DTD/svg11.dtd">
<svg width="132px" height="166px" version="1.1" xmlns="http://www.w3.org/2000/svg" xmlns:xlink="http://www.w3.org/1999/xlink" xml:space="preserve" xmlns:serif="http://www.serif.com/" style="fill-rule:evenodd;clip-rule:evenodd;stroke-linejoin:round;stroke-miterlimit:2;">
    <g>
        <g>
            <g>
                <path d="M110.355,71.717L107.46,74.468L121.615,128.786L124.563,125.271L110.355,71.717Z" style="fill:url(#_Linear1);"/>
                <path d="M110.935,71.564C110.881,71.359 110.723,71.198 110.519,71.14C110.315,71.082 110.096,71.137 109.942,71.282L107.047,74.033C106.889,74.184 106.825,74.408 106.88,74.62L121.035,128.938C121.091,129.155 121.264,129.322 121.483,129.372C121.702,129.421 121.931,129.344 122.075,129.172L125.023,125.656C125.148,125.507 125.193,125.305 125.143,125.117L110.935,71.564ZM108.13,74.659L121.903,127.51L123.904,125.124L110.035,72.85L108.13,74.659Z"/>
                <path d="M103.583,73.495L107.452,74.484L121.583,128.809L117.295,127.177L103.583,73.495Z" style="fill:url(#_Linear2);"/>
                <path d="M103.732,72.913C103.527,72.861 103.309,72.92 103.159,73.07C103.009,73.22 102.95,73.438 103.002,73.643L116.714,127.325C116.762,127.514 116.899,127.668 117.082,127.738L121.37,129.369C121.58,129.449 121.817,129.405 121.984,129.255C122.151,129.105 122.221,128.875 122.164,128.657L108.033,74.333C107.978,74.122 107.813,73.957 107.601,73.903L103.732,72.913ZM117.799,126.727L120.71,127.834L106.961,74.978L104.415,74.327L117.799,126.727Z"/>
                <path d="M110.274,71.688L106.446,70.938L103.593,73.42L107.48,74.442L110.274,71.688Z" style="fill:url(#_Linear3);"/>
                <path d="M110.695,72.115C110.854,71.959 110.913,71.728 110.849,71.515C110.785,71.302 110.608,71.142 110.39,71.099L106.561,70.35C106.379,70.314 106.192,70.364 106.052,70.486L103.199,72.967C103.031,73.113 102.958,73.339 103.008,73.556C103.059,73.772 103.225,73.943 103.44,74L107.327,75.022C107.532,75.076 107.75,75.018 107.901,74.869L110.695,72.115ZM104.842,73.128L107.302,73.775L109.044,72.058L106.618,71.584L104.842,73.128Z"/>
            </g>
            <g>
                <path d="M107.625,74.864L104.73,77.615L118.885,131.933L121.833,128.417L107.625,74.864Z" style="fill:url(#_Linear4);"/>
                <path d="M108.205,74.71C108.151,74.506 107.993,74.345 107.789,74.287C107.585,74.229 107.366,74.283 107.212,74.429L104.317,77.18C104.159,77.33 104.095,77.555 104.15,77.766L118.305,132.084C118.361,132.302 118.534,132.469 118.753,132.518C118.972,132.568 119.201,132.491 119.345,132.319L122.293,128.803C122.419,128.653 122.463,128.452 122.413,128.263L108.205,74.71ZM105.4,77.806L119.173,130.657L121.174,128.27L107.305,75.996L105.4,77.806Z"/>
                <path d="M100.854,76.641L104.722,77.631L118.853,131.955L114.565,130.324L100.854,76.641Z" style="fill:url(#_Linear5);"/>
                <path d="M101.002,76.06C100.797,76.008 100.579,76.067 100.429,76.217C100.279,76.367 100.22,76.585 100.272,76.79L113.984,130.472C114.032,130.661 114.169,130.815 114.352,130.884L118.64,132.516C118.85,132.596 119.087,132.552 119.254,132.402C119.421,132.252 119.491,132.022 119.434,131.804L105.303,77.48C105.248,77.269 105.083,77.104 104.871,77.05L101.002,76.06ZM115.069,129.874L117.98,130.981L104.231,78.125L101.685,77.473L115.069,129.874Z"/>
                <path d="M107.544,74.835L103.716,74.085L100.863,76.566L104.75,77.589L107.544,74.835Z" style="fill:url(#_Linear6);"/>
                <path d="M107.965,75.262C108.124,75.106 108.183,74.875 108.119,74.662C108.055,74.449 107.878,74.289 107.66,74.246L103.831,73.496C103.65,73.461 103.462,73.511 103.322,73.632L100.469,76.114C100.301,76.259 100.228,76.486 100.278,76.703C100.329,76.919 100.495,77.09 100.71,77.147L104.597,78.169C104.802,78.223 105.02,78.165 105.171,78.016L107.965,75.262ZM102.112,76.275L104.572,76.922L106.314,75.205L103.888,74.73L102.112,76.275Z"/>
            </g>
            <g>
                <path d="M109.182,77.461L106.066,79.958L115.601,135.275L118.835,132.019L109.182,77.461Z" style="fill:url(#_Linear7);"/>
                <path d="M109.773,77.356C109.736,77.148 109.592,76.974 109.393,76.899C109.195,76.825 108.972,76.86 108.807,76.993L105.691,79.49C105.52,79.627 105.437,79.845 105.475,80.06L115.01,135.377C115.048,135.598 115.206,135.779 115.42,135.847C115.635,135.914 115.869,135.857 116.027,135.697L119.26,132.442C119.398,132.304 119.459,132.107 119.425,131.915L109.773,77.356ZM106.717,80.205L115.995,134.027L118.189,131.817L108.768,78.562L106.717,80.205Z"/>
                <path d="M102.285,78.662L106.057,79.974L115.568,135.294L111.432,133.308L102.285,78.662Z" style="fill:url(#_Linear8);"/>
                <path d="M102.482,78.095C102.282,78.026 102.06,78.067 101.898,78.204C101.736,78.34 101.658,78.552 101.693,78.761L110.84,133.407C110.872,133.599 110.996,133.764 111.172,133.848L115.308,135.835C115.51,135.932 115.75,135.908 115.929,135.773C116.108,135.638 116.197,135.414 116.159,135.193L106.648,79.872C106.611,79.657 106.46,79.479 106.254,79.407L102.482,78.095ZM111.972,132.902L114.779,134.25L105.525,80.424L103.044,79.561L111.972,132.902Z"/>
                <path d="M109.104,77.425L105.352,76.356L102.3,78.588L106.088,79.934L109.104,77.425Z" style="fill:url(#_Linear9);"/>
                <path d="M109.487,77.886C109.659,77.744 109.737,77.518 109.691,77.301C109.645,77.083 109.482,76.909 109.268,76.848L105.516,75.779C105.338,75.728 105.147,75.762 104.998,75.871L101.946,78.104C101.766,78.235 101.674,78.455 101.706,78.675C101.738,78.895 101.89,79.079 102.099,79.153L105.887,80.499C106.086,80.57 106.309,80.531 106.471,80.395L109.487,77.886ZM103.57,78.403L105.967,79.254L107.846,77.69L105.469,77.013L103.57,78.403Z"/>
            </g>
            <g>
                <path d="M108.897,76.919L106.441,80.068L128.476,131.694L130.871,127.781L108.897,76.919Z" style="fill:url(#_Linear10);"/>
                <path d="M109.448,76.681C109.364,76.487 109.184,76.351 108.973,76.324C108.763,76.297 108.554,76.383 108.424,76.55L105.968,79.699C105.834,79.871 105.803,80.103 105.889,80.304L127.924,131.93C128.012,132.137 128.208,132.277 128.432,132.293C128.656,132.309 128.87,132.199 128.987,132.008L131.383,128.095C131.485,127.928 131.5,127.723 131.422,127.543L109.448,76.681ZM107.132,80.158L128.571,130.39L130.197,127.734L108.748,78.086L107.132,80.158Z"/>
                <path d="M102.463,79.679L106.436,80.085L128.448,131.721L123.965,130.742L102.463,79.679Z" style="fill:url(#_Linear11);"/>
                <path d="M102.524,79.082C102.313,79.06 102.107,79.152 101.98,79.322C101.854,79.492 101.828,79.716 101.91,79.912L123.412,130.975C123.488,131.155 123.646,131.286 123.837,131.328L128.32,132.307C128.539,132.355 128.767,132.277 128.91,132.104C129.053,131.931 129.088,131.692 129,131.486L106.987,79.85C106.902,79.649 106.714,79.511 106.497,79.488L102.524,79.082ZM124.397,130.222L127.44,130.887L106.022,80.646L103.409,80.379L124.397,130.222Z"/>
                <path d="M108.813,76.902L104.915,76.727L102.461,79.603L106.457,80.039L108.813,76.902Z" style="fill:url(#_Linear12);"/>
                <path d="M109.292,77.262C109.426,77.084 109.45,76.847 109.355,76.646C109.26,76.445 109.062,76.313 108.84,76.303L104.942,76.128C104.757,76.12 104.579,76.197 104.459,76.338L102.004,79.214C101.86,79.383 101.821,79.618 101.903,79.825C101.985,80.031 102.175,80.176 102.396,80.2L106.391,80.636C106.602,80.659 106.809,80.569 106.936,80.4L109.292,77.262ZM103.654,79.13L106.182,79.406L107.65,77.451L105.181,77.34L103.654,79.13Z"/>
            </g>
        </g>
        <g>
            <g>
                <path d="M64.253,111.392L68.517,111.392L68.517,165.176L64.253,163.887L64.253,111.392Z" style="fill:url(#_Linear13);"/>
                <path d="M64.253,110.792C63.922,110.792 63.653,111.061 63.653,111.392L63.653,163.887C63.653,164.152 63.826,164.385 64.08,164.462L68.343,165.75C68.525,165.805 68.722,165.771 68.875,165.658C69.027,165.545 69.117,165.366 69.117,165.176L69.117,111.392C69.117,111.061 68.848,110.792 68.517,110.792L64.253,110.792ZM64.853,111.992L64.853,163.442L67.917,164.368L67.917,111.992L64.853,111.992Z"/>
                <path d="M71.791,111.434L68.564,111.434L68.564,165.176L71.791,162.601L71.791,111.434Z" style="fill:url(#_Linear14);"/>
                <path d="M72.391,111.434C72.391,111.102 72.122,110.834 71.791,110.834L68.564,110.834C68.233,110.834 67.964,111.102 67.964,111.434L67.964,165.176C67.964,165.407 68.096,165.617 68.304,165.717C68.512,165.817 68.758,165.789 68.939,165.645L72.165,163.07C72.308,162.956 72.391,162.784 72.391,162.601L72.391,111.434ZM69.164,112.034L69.164,163.93L71.191,162.312L71.191,112.034L69.164,112.034Z"/>
            </g>
            <g>
                <path d="M98.78,79.775L103.044,79.775L103.044,133.559L98.78,132.27L98.78,79.775Z" style="fill:url(#_Linear15);"/>
                <path d="M98.78,79.175C98.449,79.175 98.18,79.444 98.18,79.775L98.18,132.27C98.18,132.534 98.353,132.768 98.607,132.844L102.87,134.133C103.052,134.188 103.249,134.154 103.402,134.04C103.554,133.927 103.644,133.749 103.644,133.559L103.644,79.775C103.644,79.444 103.375,79.175 103.044,79.175L98.78,79.175ZM99.38,80.375L99.38,131.824L102.444,132.75L102.444,80.375L99.38,80.375Z"/>
                <path d="M106.318,79.816L103.091,79.816L103.091,133.559L106.318,130.984L106.318,79.816Z" style="fill:url(#_Linear16);"/>
                <path d="M106.918,79.816C106.918,79.485 106.649,79.216 106.318,79.216L103.091,79.216C102.76,79.216 102.491,79.485 102.491,79.816L102.491,133.559C102.491,133.79 102.623,134 102.831,134.1C103.039,134.2 103.285,134.172 103.466,134.028L106.692,131.453C106.835,131.339 106.918,131.166 106.918,130.984L106.918,79.816ZM103.691,132.312L105.718,130.695L105.718,80.416L103.691,80.416L103.691,132.312Z"/>
            </g>
            <g>
                <path d="M47.229,82.628L51.493,82.628L51.493,136.412L47.229,135.123L47.229,82.628Z" style="fill:url(#_Linear17);"/>
                <path d="M47.229,82.028C46.898,82.028 46.629,82.297 46.629,82.628L46.629,135.123C46.629,135.388 46.803,135.621 47.056,135.698L51.319,136.986C51.501,137.041 51.698,137.007 51.851,136.894C52.003,136.781 52.093,136.602 52.093,136.412L52.093,82.628C52.093,82.297 51.824,82.028 51.493,82.028L47.229,82.028ZM47.829,83.228L47.829,134.678L50.893,135.604L50.893,83.228L47.829,83.228Z"/>
                <path d="M54.767,82.67L51.54,82.67L51.54,136.412L54.767,133.837L54.767,82.67Z" style="fill:url(#_Linear18);"/>
                <path d="M55.367,82.67C55.367,82.338 55.098,82.07 54.767,82.07L51.54,82.07C51.209,82.07 50.94,82.338 50.94,82.67L50.94,136.412C50.94,136.643 51.072,136.853 51.28,136.953C51.488,137.053 51.734,137.025 51.915,136.881L55.141,134.306C55.284,134.192 55.367,134.02 55.367,133.837L55.367,82.67ZM52.14,135.166L54.167,133.548L54.167,83.27L52.14,83.27L52.14,135.166Z"/>
            </g>
            <g>
                <path d="M14.811,95.265L19.075,95.265L19.075,149.049L14.811,147.76L14.811,95.265Z" style="fill:url(#_Linear19);"/>
                <path d="M14.811,94.665C14.48,94.665 14.211,94.933 14.211,95.265L14.211,147.76C14.211,148.024 14.384,148.258 14.638,148.334L18.901,149.623C19.083,149.678 19.28,149.643 19.433,149.53C19.585,149.417 19.675,149.238 19.675,149.049L19.675,95.265C19.675,94.933 19.406,94.665 19.075,94.665L14.811,94.665ZM15.411,95.865L15.411,147.314L18.475,148.24L18.475,95.865L15.411,95.865Z"/>
                <path d="M22.349,95.306L19.122,95.306L19.122,149.049L22.349,146.474L22.349,95.306Z" style="fill:url(#_Linear20);"/>
                <path d="M22.949,95.306C22.949,94.975 22.68,94.706 22.349,94.706L19.122,94.706C18.791,94.706 18.522,94.975 18.522,95.306L18.522,149.049C18.522,149.279 18.654,149.49 18.862,149.589C19.07,149.689 19.316,149.662 19.497,149.518L22.723,146.943C22.866,146.829 22.949,146.656 22.949,146.474L22.949,95.306ZM19.722,147.802L21.749,146.185L21.749,95.906L19.722,95.906L19.722,147.802Z"/>
            </g>
        </g>
        <g>
            <path d="M14.81,95.334L68.355,111.51L68.355,119.568L14.81,103.384L14.81,95.334Z" style="fill:url(#_Linear21);"/>
            <path d="M14.984,94.76C14.802,94.705 14.605,94.739 14.453,94.852C14.3,94.965 14.21,95.144 14.21,95.334L14.21,103.384C14.21,103.648 14.384,103.882 14.637,103.958L68.181,120.142C68.363,120.197 68.56,120.163 68.712,120.05C68.865,119.937 68.955,119.758 68.955,119.568L68.955,111.51C68.955,111.245 68.781,111.012 68.528,110.935L14.984,94.76ZM15.41,102.939L67.755,118.76L67.755,111.955L15.41,96.142L15.41,102.939Z"/>
            <path d="M51.89,68.838L106.365,79.917L68.356,111.434L14.812,95.25L51.89,68.838Z" style="fill:url(#_Linear22);"/>
            <path d="M52.01,68.25C51.847,68.216 51.677,68.252 51.542,68.349L14.464,94.761C14.277,94.894 14.183,95.121 14.22,95.347C14.257,95.573 14.419,95.758 14.638,95.824L68.183,112.008C68.375,112.066 68.584,112.024 68.739,111.896L106.748,80.379C106.925,80.231 107.003,79.995 106.947,79.771C106.89,79.547 106.711,79.375 106.484,79.329L52.01,68.25ZM16.156,95.029L68.221,110.766L105.017,80.255L52.026,69.478L16.156,95.029Z"/>
            <path d="M106.429,79.924L68.52,111.53L68.52,119.629L106.429,87.976L106.429,79.924Z" style="fill:url(#_Linear23);"/>
            <path d="M107.029,79.924C107.029,79.691 106.894,79.479 106.683,79.38C106.472,79.282 106.223,79.314 106.045,79.463L68.136,111.069C67.999,111.183 67.92,111.352 67.92,111.53L67.92,119.629C67.92,119.862 68.055,120.074 68.266,120.173C68.477,120.271 68.726,120.239 68.905,120.09L106.813,88.436C106.95,88.322 107.029,88.154 107.029,87.976L107.029,79.924ZM69.12,111.811L69.12,118.346L105.829,87.695L105.829,81.205L69.12,111.811Z"/>
        </g>
        <g>
            <g>
                <path d="M95.602,89.541L92.62,92.197L105.023,146.942L108.082,143.522L95.602,89.541Z" style="fill:url(#_Linear24);"/>
                <path d="M96.187,89.405C96.139,89.199 95.986,89.033 95.784,88.969C95.582,88.905 95.361,88.952 95.203,89.093L92.221,91.749C92.058,91.894 91.987,92.117 92.035,92.33L104.438,147.074C104.487,147.293 104.655,147.466 104.872,147.522C105.09,147.579 105.32,147.509 105.47,147.342L108.53,143.923C108.66,143.777 108.711,143.577 108.667,143.387L96.187,89.405ZM93.284,92.41L105.351,145.675L107.428,143.354L95.245,90.662L93.284,92.41Z"/>
                <path d="M88.777,91.099L92.612,92.213L104.99,146.963L100.757,145.194L88.777,91.099Z" style="fill:url(#_Linear25);"/>
                <path d="M88.944,90.523C88.74,90.464 88.521,90.517 88.366,90.662C88.212,90.806 88.145,91.022 88.191,91.229L100.171,145.324C100.213,145.515 100.345,145.673 100.525,145.748L104.759,147.517C104.966,147.603 105.204,147.567 105.376,147.422C105.548,147.278 105.625,147.05 105.576,146.831L93.197,92.081C93.149,91.868 92.989,91.698 92.779,91.637L88.944,90.523ZM101.275,144.761L104.149,145.961L92.105,92.69L89.581,91.958L101.275,144.761Z"/>
                <path d="M95.522,89.508L91.72,88.636L88.788,91.025L92.641,92.172L95.522,89.508Z" style="fill:url(#_Linear26);"/>
                <path d="M95.929,89.949C96.093,89.798 96.159,89.569 96.102,89.354C96.045,89.139 95.873,88.973 95.656,88.924L91.854,88.052C91.673,88.01 91.484,88.054 91.341,88.171L88.409,90.559C88.237,90.7 88.156,90.924 88.2,91.142C88.243,91.36 88.404,91.536 88.617,91.6L92.469,92.747C92.673,92.807 92.892,92.756 93.048,92.612L95.929,89.949ZM90.047,90.773L92.484,91.499L94.28,89.839L91.871,89.287L90.047,90.773Z"/>
            </g>
            <g>
                <path d="M89.632,147.714L91.031,149.045L101.633,138.983L99.553,138.766L89.632,147.714Z" style="fill:url(#_Linear27);"/>
                <path d="M89.23,147.268C89.106,147.38 89.034,147.538 89.032,147.705C89.03,147.873 89.097,148.033 89.218,148.148L90.617,149.479C90.848,149.7 91.212,149.7 91.444,149.48L102.046,139.418C102.216,139.257 102.276,139.012 102.201,138.79C102.126,138.568 101.928,138.411 101.695,138.386L99.615,138.169C99.446,138.151 99.277,138.206 99.151,138.32L89.23,147.268ZM90.515,147.725L91.031,148.217L100.275,139.444L99.756,139.39L90.515,147.725Z"/>
                <path d="M91.417,151.391L91.159,149.056L101.649,138.989L102.126,141.026L91.417,151.391Z" style="fill:url(#_Linear28);"/>
                <path d="M90.821,151.457C90.846,151.685 90.998,151.878 91.214,151.956C91.429,152.033 91.67,151.981 91.834,151.822L102.544,141.457C102.695,141.31 102.759,141.094 102.711,140.889L102.234,138.853C102.184,138.643 102.026,138.475 101.82,138.414C101.613,138.353 101.389,138.407 101.234,138.556L90.744,148.623C90.609,148.752 90.542,148.937 90.563,149.122L90.821,151.457ZM91.788,149.284L91.879,150.109L101.465,140.831L101.305,140.151L91.788,149.284Z"/>
            </g>
            <g>
                <path d="M87.114,136.008L88.513,137.339L99.115,127.278L97.035,127.06L87.114,136.008Z" style="fill:url(#_Linear29);"/>
                <path d="M86.713,135.563C86.589,135.675 86.517,135.833 86.515,136C86.512,136.167 86.58,136.328 86.701,136.443L88.099,137.774C88.331,137.994 88.694,137.994 88.926,137.775L99.528,127.713C99.698,127.552 99.759,127.306 99.683,127.085C99.608,126.863 99.411,126.705 99.178,126.681L97.098,126.464C96.929,126.446 96.76,126.501 96.633,126.615L86.713,135.563ZM87.997,136.02L88.514,136.512L97.758,127.739L97.239,127.685L87.997,136.02Z"/>
                <path d="M88.899,139.686L88.641,137.351L99.132,127.284L99.609,129.32L88.899,139.686Z" style="fill:url(#_Linear30);"/>
                <path d="M88.303,139.752C88.328,139.979 88.481,140.173 88.696,140.25C88.911,140.328 89.152,140.276 89.317,140.117L100.026,129.751C100.178,129.605 100.241,129.389 100.193,129.183L99.716,127.147C99.667,126.937 99.509,126.77 99.302,126.709C99.096,126.647 98.872,126.702 98.716,126.851L88.226,136.918C88.091,137.047 88.025,137.231 88.045,137.417L88.303,139.752ZM89.27,137.579L89.361,138.404L98.947,129.126L98.788,128.446L89.27,137.579Z"/>
            </g>
            <g>
                <path d="M84.225,123.346L85.624,124.677L96.226,114.615L94.146,114.398L84.225,123.346Z" style="fill:url(#_Linear31);"/>
                <path d="M83.823,122.9C83.699,123.012 83.627,123.171 83.625,123.338C83.623,123.505 83.69,123.665 83.811,123.78L85.21,125.111C85.441,125.332 85.805,125.332 86.037,125.112L96.639,115.05C96.809,114.889 96.869,114.644 96.794,114.422C96.719,114.2 96.521,114.043 96.288,114.018L94.208,113.801C94.039,113.783 93.87,113.838 93.744,113.952L83.823,122.9ZM85.108,123.357L85.624,123.849L94.868,115.076L94.349,115.022L85.108,123.357Z"/>
                <path d="M86.01,127.023L85.752,124.688L96.242,114.621L96.719,116.658L86.01,127.023Z" style="fill:url(#_Linear32);"/>
                <path d="M85.414,127.089C85.439,127.317 85.591,127.51 85.807,127.588C86.022,127.665 86.263,127.614 86.427,127.454L97.137,117.089C97.288,116.942 97.352,116.726 97.304,116.521L96.827,114.485C96.777,114.275 96.619,114.107 96.413,114.046C96.206,113.985 95.982,114.039 95.827,114.189L85.337,124.255C85.202,124.384 85.135,124.569 85.156,124.754L85.414,127.089ZM86.381,124.916L86.472,125.741L96.058,116.463L95.898,115.783L86.381,124.916Z"/>
            </g>
            <g>
                <path d="M81.508,111.199L82.906,112.531L93.509,102.469L91.429,102.252L81.508,111.199Z" style="fill:url(#_Linear33);"/>
                <path d="M81.106,110.754C80.982,110.866 80.91,111.024 80.908,111.191C80.906,111.358 80.973,111.519 81.094,111.634L82.493,112.965C82.724,113.185 83.088,113.186 83.319,112.966L93.922,102.904C94.091,102.743 94.152,102.498 94.077,102.276C94.001,102.054 93.804,101.897 93.571,101.872L91.491,101.655C91.322,101.637 91.153,101.692 91.027,101.806L81.106,110.754ZM82.39,111.211L82.907,111.703L92.151,102.93L91.632,102.876L82.39,111.211Z"/>
                <path d="M83.293,114.877L83.035,112.542L93.525,102.475L94.002,104.511L83.293,114.877Z" style="fill:url(#_Linear34);"/>
                <path d="M82.696,114.943C82.721,115.171 82.874,115.364 83.089,115.442C83.305,115.519 83.545,115.467 83.71,115.308L94.419,104.943C94.571,104.796 94.634,104.58 94.586,104.375L94.109,102.338C94.06,102.129 93.902,101.961 93.695,101.9C93.489,101.839 93.265,101.893 93.11,102.042L82.619,112.109C82.485,112.238 82.418,112.423 82.438,112.608L82.696,114.943ZM83.664,112.77L83.755,113.595L93.34,104.317L93.181,103.637L83.664,112.77Z"/>
            </g>
            <g>
                <path d="M82.408,100.159L79.426,102.816L91.829,157.56L94.888,154.141L82.408,100.159Z" style="fill:url(#_Linear35);"/>
                <path d="M82.993,100.024C82.945,99.818 82.792,99.652 82.59,99.588C82.388,99.523 82.167,99.57 82.009,99.711L79.027,102.368C78.864,102.513 78.793,102.735 78.841,102.948L91.244,157.693C91.293,157.912 91.461,158.085 91.678,158.141C91.896,158.198 92.126,158.128 92.276,157.961L95.335,154.541C95.466,154.396 95.517,154.196 95.473,154.006L82.993,100.024ZM80.089,103.028L92.157,156.294L94.234,153.973L82.051,101.281L80.089,103.028Z"/>
                <path d="M75.583,101.718L79.418,102.832L91.796,157.582L87.563,155.813L75.583,101.718Z" style="fill:url(#_Linear36);"/>
                <path d="M75.75,101.142C75.546,101.083 75.327,101.135 75.172,101.28C75.018,101.425 74.951,101.641 74.997,101.848L86.977,155.943C87.019,156.133 87.151,156.292 87.331,156.367L91.565,158.135C91.772,158.222 92.01,158.185 92.182,158.041C92.354,157.897 92.431,157.668 92.382,157.449L80.003,102.699C79.955,102.486 79.795,102.316 79.585,102.255L75.75,101.142ZM88.081,155.379L90.955,156.58L78.91,103.309L76.387,102.576L88.081,155.379Z"/>
                <path d="M82.328,100.127L78.525,99.255L75.594,101.643L79.447,102.79L82.328,100.127Z" style="fill:url(#_Linear37);"/>
                <path d="M82.735,100.568C82.899,100.417 82.965,100.188 82.908,99.973C82.85,99.758 82.679,99.592 82.462,99.542L78.66,98.67C78.479,98.629 78.29,98.673 78.146,98.79L75.215,101.178C75.043,101.319 74.962,101.543 75.006,101.761C75.049,101.979 75.21,102.155 75.423,102.218L79.275,103.365C79.478,103.426 79.698,103.375 79.854,103.231L82.735,100.568ZM76.852,101.392L79.29,102.118L81.086,100.458L78.677,99.905L76.852,101.392Z"/>
            </g>
        </g>
        <g>
            <g>
                <path d="M14.806,42.718L19.07,42.718L19.07,96.501L14.806,95.212L14.806,42.718Z" style="fill:url(#_Linear38);"/>
                <path d="M14.806,42.118C14.474,42.118 14.206,42.386 14.206,42.718L14.206,95.212C14.206,95.477 14.379,95.71 14.632,95.787L18.896,97.076C19.078,97.13 19.275,97.096 19.427,96.983C19.58,96.87 19.67,96.691 19.67,96.501L19.67,42.718C19.67,42.386 19.401,42.118 19.07,42.118L14.806,42.118ZM15.406,43.318L15.406,94.767L18.47,95.693L18.47,43.318L15.406,43.318Z"/>
                <path d="M22.343,42.759L19.117,42.759L19.117,96.502L22.343,93.926L22.343,42.759Z" style="fill:url(#_Linear39);"/>
                <path d="M22.943,42.759C22.943,42.427 22.675,42.159 22.343,42.159L19.117,42.159C18.785,42.159 18.517,42.427 18.517,42.759L18.517,96.502C18.517,96.732 18.649,96.942 18.857,97.042C19.064,97.142 19.311,97.114 19.491,96.97L22.718,94.395C22.86,94.281 22.943,94.109 22.943,93.926L22.943,42.759ZM19.717,95.255L21.743,93.637L21.743,43.359L19.717,43.359L19.717,95.255Z"/>
            </g>
            <g>
                <path d="M64.08,57.655L68.344,57.655L68.344,111.439L64.08,110.15L64.08,57.655Z" style="fill:url(#_Linear40);"/>
                <path d="M64.08,57.055C63.749,57.055 63.48,57.324 63.48,57.655L63.48,110.15C63.48,110.415 63.653,110.648 63.906,110.724L68.17,112.013C68.352,112.068 68.549,112.034 68.701,111.921C68.854,111.807 68.944,111.629 68.944,111.439L68.944,57.655C68.944,57.324 68.675,57.055 68.344,57.055L64.08,57.055ZM64.68,58.255L64.68,109.705L67.744,110.631L67.744,58.255L64.68,58.255Z"/>
                <path d="M71.618,57.696L68.391,57.696L68.391,111.439L71.618,108.864L71.618,57.696Z" style="fill:url(#_Linear41);"/>
                <path d="M72.218,57.696C72.218,57.365 71.949,57.096 71.618,57.096L68.391,57.096C68.06,57.096 67.791,57.365 67.791,57.696L67.791,111.439C67.791,111.67 67.923,111.88 68.131,111.98C68.339,112.08 68.585,112.052 68.765,111.908L71.992,109.333C72.135,109.219 72.218,109.046 72.218,108.864L72.218,57.696ZM68.991,58.296L68.991,110.193L71.018,108.575L71.018,58.296L68.991,58.296Z"/>
            </g>
            <g>
                <path d="M98.803,28.606L103.067,28.606L103.067,82.39L98.803,81.101L98.803,28.606Z" style="fill:url(#_Linear42);"/>
                <path d="M98.803,28.006C98.472,28.006 98.203,28.275 98.203,28.606L98.203,81.101C98.203,81.366 98.376,81.599 98.629,81.676L102.893,82.964C103.075,83.019 103.272,82.985 103.424,82.872C103.577,82.759 103.667,82.58 103.667,82.39L103.667,28.606C103.667,28.275 103.398,28.006 103.067,28.006L98.803,28.006ZM99.403,29.206L99.403,80.656L102.467,81.582L102.467,29.206L99.403,29.206Z"/>
                <path d="M106.341,28.648L103.114,28.648L103.114,82.39L106.341,79.815L106.341,28.648Z" style="fill:url(#_Linear43);"/>
                <path d="M106.941,28.648C106.941,28.316 106.672,28.048 106.341,28.048L103.114,28.048C102.783,28.048 102.514,28.316 102.514,28.648L102.514,82.39C102.514,82.621 102.646,82.831 102.854,82.931C103.061,83.031 103.308,83.003 103.488,82.859L106.715,80.284C106.857,80.17 106.941,79.998 106.941,79.815L106.941,28.648ZM103.714,81.144L105.741,79.526L105.741,29.248L103.714,29.248L103.714,81.144Z"/>
            </g>
            <g>
                <path d="M49.046,18.593L53.31,18.593L53.31,72.376L49.046,71.088L49.046,18.593Z" style="fill:url(#_Linear44);"/>
                <path d="M49.046,17.993C48.715,17.993 48.446,18.261 48.446,18.593L48.446,71.088C48.446,71.352 48.619,71.585 48.872,71.662L53.136,72.951C53.318,73.006 53.515,72.971 53.667,72.858C53.82,72.745 53.91,72.566 53.91,72.376L53.91,18.593C53.91,18.261 53.641,17.993 53.31,17.993L49.046,17.993ZM49.646,19.193L49.646,70.642L52.71,71.568L52.71,19.193L49.646,19.193Z"/>
                <path d="M56.584,18.634L53.357,18.634L53.357,72.377L56.584,69.801L56.584,18.634Z" style="fill:url(#_Linear45);"/>
                <path d="M57.184,18.634C57.184,18.303 56.915,18.034 56.584,18.034L53.357,18.034C53.026,18.034 52.757,18.303 52.757,18.634L52.757,72.377C52.757,72.607 52.889,72.817 53.097,72.917C53.305,73.017 53.551,72.989 53.731,72.846L56.958,70.27C57.101,70.156 57.184,69.984 57.184,69.801L57.184,18.634ZM53.957,71.13L55.984,69.513L55.984,19.234L53.957,19.234L53.957,71.13Z"/>
            </g>
        </g>
        <g>
            <path d="M58.312,5.795L124.068,35.336L68.476,69.249L1.283,53.5L58.312,5.795Z" style="fill:url(#_Linear46);"/>
            <path d="M58.557,5.248C58.348,5.153 58.103,5.187 57.927,5.335L0.898,53.04C0.724,53.186 0.647,53.418 0.7,53.639C0.752,53.86 0.925,54.032 1.146,54.084L68.34,69.833C68.493,69.869 68.654,69.843 68.789,69.761L124.38,35.848C124.57,35.732 124.68,35.521 124.666,35.299C124.652,35.076 124.516,34.88 124.313,34.789L58.557,5.248ZM2.589,53.19L68.374,68.608L122.783,35.417L58.408,6.496L2.589,53.19Z"/>
            <path d="M57.719,5.89L67.884,69.343C67.936,69.67 68.244,69.893 68.571,69.841C68.898,69.789 69.121,69.481 69.069,69.154L58.904,5.7C58.852,5.373 58.544,5.15 58.217,5.202C57.89,5.255 57.667,5.563 57.719,5.89Z"/>
            <path d="M57.715,0.6L124.241,31.784L121.65,32.699L119.006,35.165L109.58,30.141L115.259,35.165L108.656,39.734L102.441,35.165L105.576,39.734L100.183,45.97L92.405,36.302L91.711,37.652L97.201,45.97L87.397,41.283L91.711,50.628L83.158,45.97L86.573,52.812L77.531,59.036L73.517,49.945L71.587,50.628L73.517,60.554L67.88,64.054L57.715,0.6Z" style="fill:#deb342;"/>
            <clipPath id="_clip47">
                <path d="M57.715,0.6L124.241,31.784L121.65,32.699L119.006,35.165L109.58,30.141L115.259,35.165L108.656,39.734L102.441,35.165L105.576,39.734L100.183,45.97L92.405,36.302L91.711,37.652L97.201,45.97L87.397,41.283L91.711,50.628L83.158,45.97L86.573,52.812L77.531,59.036L73.517,49.945L71.587,50.628L73.517,60.554L67.88,64.054L57.715,0.6Z"/>
            </clipPath>
            <g clip-path="url(#_clip47)">
                <path d="M57.628,0.69L66.972,59.018L70.948,56.866L64.279,26.505L66.972,25.396L76.96,52.817L82.509,48.568L70.948,23.788L85.748,44.653L82.509,35.165L91.024,40.803L81.404,25.396L81.404,22.254L97.722,39.542L102.388,36.921L87.175,20.915L88.525,19.825L106.256,35.165L109.926,32.585L89.996,17.257L112.736,30.141L119.466,28.342L119.466,25.396L117.803,23.788L117.803,22.254L126.918,22.254L57.628,0.69Z" style="fill:url(#_Linear48);"/>
                <path d="M64.667,26.708L71.276,56.794C71.308,56.94 71.239,57.09 71.108,57.161L67.132,59.313C67.036,59.365 66.921,59.367 66.824,59.319C66.726,59.271 66.658,59.179 66.641,59.071L57.297,0.743C57.278,0.628 57.321,0.512 57.408,0.436C57.496,0.36 57.617,0.335 57.728,0.369L127.018,21.934C127.176,21.983 127.275,22.141 127.25,22.305C127.225,22.469 127.084,22.59 126.918,22.59L118.138,22.59L118.138,23.646L119.699,25.155C119.765,25.218 119.802,25.305 119.802,25.396L119.802,28.342C119.802,28.494 119.7,28.627 119.553,28.666L112.823,30.465C112.738,30.488 112.647,30.477 112.571,30.433L93.991,19.906L110.131,32.319C110.215,32.384 110.264,32.485 110.262,32.592C110.259,32.698 110.207,32.798 110.119,32.859L106.449,35.439C106.323,35.528 106.153,35.519 106.036,35.419L88.518,20.262L87.668,20.948L102.632,36.69C102.703,36.765 102.736,36.869 102.72,36.971C102.705,37.074 102.643,37.163 102.553,37.214L97.887,39.834C97.752,39.91 97.584,39.884 97.478,39.772L81.739,23.099L81.739,25.3L91.308,40.625C91.392,40.759 91.371,40.933 91.258,41.044C91.145,41.154 90.97,41.17 90.839,41.083L83.145,35.988L86.066,44.545C86.119,44.702 86.049,44.876 85.901,44.952C85.753,45.028 85.571,44.983 85.474,44.847L72.82,27.008L82.813,48.426C82.88,48.569 82.838,48.739 82.713,48.834L77.164,53.083C77.08,53.148 76.969,53.169 76.866,53.139C76.764,53.109 76.682,53.032 76.645,52.932L66.776,25.839L64.667,26.708ZM124.711,21.919L58.045,1.171L67.228,58.498L70.566,56.691L63.951,26.577C63.916,26.417 64,26.256 64.151,26.194L66.844,25.086C66.929,25.051 67.024,25.052 67.107,25.089C67.191,25.126 67.256,25.195 67.287,25.281L77.119,52.273L82.091,48.465L70.644,23.93C70.57,23.773 70.629,23.585 70.779,23.498C70.929,23.411 71.121,23.452 71.221,23.594L84.683,42.572L82.192,35.273C82.145,35.137 82.191,34.987 82.304,34.899C82.418,34.812 82.575,34.806 82.695,34.885L89.921,39.67L81.119,25.574C81.086,25.52 81.068,25.459 81.068,25.396L81.068,22.254C81.068,22.117 81.152,21.993 81.28,21.943C81.407,21.892 81.553,21.924 81.647,22.024L97.787,39.121L101.848,36.84L86.931,21.146C86.867,21.078 86.834,20.986 86.84,20.893C86.846,20.799 86.891,20.713 86.964,20.654L88.314,19.564C88.441,19.462 88.622,19.465 88.745,19.571L106.277,34.74L109.36,32.572L89.792,17.523C89.652,17.415 89.619,17.218 89.717,17.071C89.814,16.925 90.008,16.878 90.162,16.965L112.782,29.782L119.131,28.084L119.131,25.538L117.57,24.029C117.504,23.966 117.467,23.879 117.467,23.788L117.467,22.254C117.467,22.069 117.618,21.919 117.803,21.919L124.711,21.919Z"/>
            </g>
            <path d="M72.274,51.021L74.106,60.439C74.153,60.684 74.045,60.932 73.833,61.063L68.197,64.563C68.026,64.669 67.814,64.683 67.631,64.6C67.448,64.516 67.319,64.347 67.288,64.149L57.123,0.695C57.088,0.475 57.177,0.255 57.354,0.121C57.532,-0.013 57.769,-0.038 57.97,0.057L124.496,31.24C124.716,31.344 124.852,31.57 124.84,31.813C124.828,32.056 124.67,32.268 124.441,32.349L121.968,33.223L119.415,35.604C119.228,35.779 118.95,35.815 118.724,35.694L113.791,33.065L115.656,34.716C115.794,34.838 115.869,35.017 115.858,35.201C115.847,35.385 115.752,35.553 115.6,35.658L108.997,40.227C108.787,40.373 108.507,40.369 108.3,40.217L104.94,37.747L106.07,39.394C106.225,39.619 106.208,39.92 106.029,40.126L100.637,46.362C100.521,46.497 100.35,46.573 100.172,46.569C99.995,46.566 99.827,46.484 99.716,46.346L92.516,37.397L92.405,37.614L97.702,45.639C97.851,45.864 97.831,46.16 97.654,46.364C97.477,46.567 97.186,46.627 96.943,46.511L88.638,42.541L92.255,50.377C92.364,50.612 92.309,50.89 92.121,51.066C91.932,51.243 91.651,51.279 91.424,51.155L84.547,47.41L87.11,52.544C87.243,52.811 87.159,53.136 86.913,53.306L77.872,59.531C77.724,59.632 77.54,59.662 77.368,59.614C77.196,59.565 77.055,59.442 76.982,59.279L73.192,50.696L72.274,51.021ZM122.66,31.705L58.487,1.624L68.33,63.068L72.849,60.262L70.998,50.743C70.941,50.451 71.106,50.162 71.386,50.063L73.316,49.38C73.612,49.275 73.939,49.416 74.065,49.703L77.788,58.132L85.803,52.613L82.621,46.238C82.504,46.003 82.552,45.72 82.741,45.538C82.93,45.356 83.215,45.317 83.445,45.443L90.406,49.235L86.852,41.534C86.746,41.305 86.795,41.033 86.975,40.856C87.155,40.678 87.427,40.632 87.655,40.741L95.51,44.496L91.21,37.982C91.09,37.801 91.078,37.57 91.177,37.377L91.872,36.028C91.965,35.847 92.143,35.726 92.345,35.705C92.547,35.685 92.746,35.768 92.873,35.926L100.2,45.033L104.819,39.692L101.946,35.504C101.78,35.263 101.813,34.937 102.023,34.734C102.234,34.53 102.56,34.508 102.796,34.682L108.666,38.997L114.288,35.107L109.183,30.591C108.955,30.389 108.914,30.049 109.087,29.799C109.261,29.549 109.594,29.469 109.863,29.612L118.91,34.434L121.241,32.26C121.301,32.204 121.372,32.16 121.45,32.133L122.66,31.705Z"/>
            <path d="M57.628,0.69L67.793,64.143L61.092,62.932L60.136,55.051L58.399,55.051L57.628,62.187L51.849,60.284L51.849,54.121L50.768,51.848L49.564,60.284L40.244,57.495L41.738,50.158L38.768,51.154L36.245,56.958L30.239,55.051L31.232,51.154L29.571,50.637L26.753,55.051L27.934,48.96L22.981,53.183L22.981,47.246L18.263,53.183L15.059,52.445L16.244,48.96L12.305,51.848L7.68,50.637L10.714,46.687L5.083,50.158L3.879,48.395L0.6,48.395L57.628,0.69Z" style="fill:#deb342;"/>
            <clipPath id="_clip49">
                <path d="M57.628,0.69L67.793,64.143L61.092,62.932L60.136,55.051L58.399,55.051L57.628,62.187L51.849,60.284L51.849,54.121L50.768,51.848L49.564,60.284L40.244,57.495L41.738,50.158L38.768,51.154L36.245,56.958L30.239,55.051L31.232,51.154L29.571,50.637L26.753,55.051L27.934,48.96L22.981,53.183L22.981,47.246L18.263,53.183L15.059,52.445L16.244,48.96L12.305,51.848L7.68,50.637L10.714,46.687L5.083,50.158L3.879,48.395L0.6,48.395L57.628,0.69Z"/>
            </clipPath>
            <g clip-path="url(#_clip49)">
                <path d="M48.714,-0.324L2.57,43.108L10.43,44.297L30.055,26.978L13.766,45.312L19.986,46.589L30.055,32.394L26.344,46.589L38.362,29.107L32.789,47.512L38.362,49.087L42.902,32.394L48.112,26.978L42.902,53.077L48.714,54.991L52.626,29.107L54.662,30.79L53.555,52.057L56.652,53.672L57.687,26.978L59.281,26.978L62.781,58.544L69.517,59.542L58.476,-5.17L48.714,-0.324Z" style="fill:url(#_Linear50);"/>
                <path d="M26.137,30.884L10.652,44.548C10.577,44.614 10.477,44.643 10.379,44.629L2.52,43.439C2.393,43.42 2.288,43.33 2.25,43.207C2.212,43.085 2.247,42.951 2.34,42.863L48.484,-0.568C48.508,-0.591 48.535,-0.61 48.565,-0.624L58.327,-5.471C58.422,-5.518 58.534,-5.517 58.628,-5.469C58.723,-5.421 58.789,-5.331 58.807,-5.227L69.847,59.486C69.865,59.592 69.832,59.7 69.756,59.777C69.681,59.854 69.574,59.89 69.467,59.874L62.732,58.876C62.581,58.854 62.464,58.733 62.447,58.581L58.98,27.314L58.009,27.314L56.988,53.685C56.983,53.8 56.92,53.905 56.821,53.962C56.721,54.02 56.599,54.023 56.497,53.97L53.4,52.355C53.283,52.294 53.213,52.171 53.22,52.04L54.319,30.941L52.869,29.743L49.046,55.041C49.031,55.138 48.974,55.225 48.89,55.276C48.806,55.328 48.703,55.34 48.609,55.309L42.797,53.396C42.636,53.343 42.54,53.178 42.573,53.012L47.558,28.038L43.203,32.565L38.686,49.175C38.663,49.262 38.606,49.335 38.528,49.379C38.45,49.424 38.357,49.435 38.271,49.41L32.697,47.835C32.611,47.81 32.538,47.752 32.494,47.673C32.451,47.594 32.442,47.501 32.468,47.414L37.415,31.077L26.621,46.779C26.528,46.914 26.353,46.962 26.205,46.894C26.056,46.827 25.978,46.662 26.02,46.505L29.266,34.087L20.26,46.783C20.183,46.892 20.049,46.945 19.919,46.918L13.699,45.641C13.582,45.617 13.486,45.532 13.448,45.418C13.41,45.304 13.436,45.179 13.516,45.089L26.137,30.884ZM63.086,58.25L69.108,59.143L58.221,-4.669L48.908,-0.045L3.302,42.879L10.325,43.942L29.833,26.727C29.966,26.609 30.167,26.616 30.293,26.741C30.418,26.867 30.424,27.068 30.306,27.201L14.403,45.1L19.839,46.217L29.781,32.2C29.875,32.068 30.05,32.021 30.197,32.09C30.344,32.158 30.421,32.322 30.38,32.479L27.154,44.82L38.086,28.917C38.18,28.781 38.359,28.733 38.508,28.805C38.657,28.876 38.732,29.046 38.684,29.204L33.209,47.282L38.128,48.672L42.578,32.306C42.593,32.252 42.621,32.202 42.66,32.161L47.87,26.746C47.973,26.638 48.135,26.612 48.267,26.681C48.399,26.75 48.47,26.898 48.441,27.044L43.289,52.852L48.442,54.548L52.294,29.057C52.313,28.937 52.393,28.837 52.506,28.794C52.619,28.75 52.747,28.771 52.84,28.848L54.876,30.532C54.958,30.599 55.003,30.702 54.998,30.808L53.901,51.86L56.338,53.13L57.351,26.965C57.358,26.785 57.506,26.643 57.687,26.643L59.281,26.643C59.452,26.643 59.595,26.771 59.614,26.941L63.086,58.25Z"/>
            </g>
            <path d="M3.562,48.995L0.6,48.995C0.348,48.995 0.122,48.837 0.036,48.6C-0.05,48.362 0.021,48.097 0.215,47.935L57.243,0.229C57.409,0.091 57.636,0.052 57.838,0.128C58.04,0.203 58.186,0.381 58.221,0.595L68.386,64.048C68.416,64.24 68.352,64.436 68.213,64.572C68.074,64.708 67.878,64.768 67.686,64.734L60.985,63.522C60.726,63.475 60.528,63.265 60.496,63.004L59.605,55.651L58.938,55.651L58.225,62.251C58.205,62.431 58.105,62.593 57.953,62.691C57.801,62.789 57.613,62.813 57.44,62.757L51.662,60.854C51.416,60.773 51.249,60.543 51.249,60.284L51.249,54.256L51.081,53.902L50.158,60.369C50.133,60.542 50.034,60.695 49.887,60.789C49.74,60.883 49.559,60.909 49.392,60.859L40.072,58.07C39.774,57.981 39.594,57.68 39.656,57.375L40.943,51.058L39.212,51.638L36.795,57.198C36.673,57.48 36.356,57.623 36.063,57.53L30.057,55.623C29.754,55.527 29.579,55.211 29.657,54.903L30.51,51.558L29.83,51.346L27.259,55.374C27.104,55.617 26.798,55.715 26.531,55.608C26.263,55.501 26.109,55.22 26.164,54.937L27.018,50.529L23.37,53.64C23.192,53.792 22.942,53.826 22.73,53.728C22.517,53.63 22.381,53.417 22.381,53.183L22.381,48.966L18.733,53.557C18.589,53.738 18.354,53.82 18.129,53.768L14.924,53.03C14.759,52.992 14.617,52.885 14.534,52.737C14.452,52.589 14.436,52.413 14.491,52.252L15.063,50.57L12.659,52.332C12.514,52.438 12.327,52.474 12.153,52.428L7.528,51.218C7.334,51.167 7.177,51.022 7.112,50.832C7.047,50.641 7.082,50.431 7.204,50.272L8.249,48.911L5.397,50.669C5.125,50.837 4.768,50.761 4.587,50.497L3.562,48.995ZM61.634,62.42L67.067,63.402L57.203,1.828L2.252,47.795L3.879,47.795C4.077,47.795 4.262,47.893 4.374,48.057L5.255,49.347L10.399,46.176C10.646,46.024 10.966,46.07 11.16,46.285C11.354,46.5 11.367,46.822 11.19,47.052L8.707,50.286L12.18,51.195L15.889,48.476C16.101,48.322 16.388,48.322 16.599,48.477C16.81,48.632 16.896,48.906 16.812,49.153L15.841,52.01L18.029,52.514L22.511,46.873C22.67,46.673 22.938,46.595 23.179,46.679C23.42,46.764 23.581,46.991 23.581,47.246L23.581,51.883L27.544,48.504C27.738,48.338 28.016,48.314 28.236,48.442C28.456,48.57 28.571,48.824 28.523,49.074L27.941,52.075L29.065,50.314C29.211,50.086 29.491,49.984 29.749,50.064L31.41,50.582C31.715,50.677 31.892,50.993 31.813,51.303L30.96,54.651L35.91,56.223L38.218,50.915C38.285,50.759 38.416,50.64 38.577,50.586L41.547,49.589C41.751,49.521 41.975,49.567 42.136,49.709C42.296,49.851 42.369,50.068 42.326,50.278L40.941,57.078L49.068,59.509L50.174,51.763C50.212,51.501 50.416,51.294 50.678,51.254C50.939,51.215 51.196,51.351 51.31,51.59L52.391,53.863C52.43,53.943 52.449,54.032 52.449,54.121L52.449,59.85L57.111,61.385L57.803,54.987C57.836,54.682 58.093,54.451 58.399,54.451L60.136,54.451C60.44,54.451 60.695,54.678 60.732,54.979L61.634,62.42Z"/>
        </g>
    </g>
    <defs>
        <linearGradient id="_Linear1" x1="0" y1="0" x2="1" y2="0" gradientUnits="userSpaceOnUse" gradientTransform="matrix(-4.65905,1.53462,-1.53462,-4.65905,112.034,77.4253)"><stop offset="0" style="stop-color:#a28f6b;stop-opacity:1"/><stop offset="1" style="stop-color:#795e2b;stop-opacity:1"/></linearGradient>
        <linearGradient id="_Linear2" x1="0" y1="0" x2="1" y2="0" gradientUnits="userSpaceOnUse" gradientTransform="matrix(-4.65905,1.53462,-1.53462,-4.65905,112.034,77.4253)"><stop offset="0" style="stop-color:#a28f6b;stop-opacity:1"/><stop offset="1" style="stop-color:#795e2b;stop-opacity:1"/></linearGradient>
        <linearGradient id="_Linear3" x1="0" y1="0" x2="1" y2="0" gradientUnits="userSpaceOnUse" gradientTransform="matrix(-4.65905,1.53462,-1.53462,-4.65905,112.034,77.4253)"><stop offset="0" style="stop-color:#a28f6b;stop-opacity:1"/><stop offset="1" style="stop-color:#795e2b;stop-opacity:1"/></linearGradient>
        <linearGradient id="_Linear4" x1="0" y1="0" x2="1" y2="0" gradientUnits="userSpaceOnUse" gradientTransform="matrix(-3.18474,1.45755,-1.45755,-3.18474,118.635,111.179)"><stop offset="0" style="stop-color:#a28f6b;stop-opacity:1"/><stop offset="1" style="stop-color:#795e2b;stop-opacity:1"/></linearGradient>
        <linearGradient id="_Linear5" x1="0" y1="0" x2="1" y2="0" gradientUnits="userSpaceOnUse" gradientTransform="matrix(-3.18474,1.45755,-1.45755,-3.18474,118.635,111.179)"><stop offset="0" style="stop-color:#a28f6b;stop-opacity:1"/><stop offset="1" style="stop-color:#795e2b;stop-opacity:1"/></linearGradient>
        <linearGradient id="_Linear6" x1="0" y1="0" x2="1" y2="0" gradientUnits="userSpaceOnUse" gradientTransform="matrix(-3.18474,1.45755,-1.45755,-3.18474,118.635,111.179)"><stop offset="0" style="stop-color:#a28f6b;stop-opacity:1"/><stop offset="1" style="stop-color:#795e2b;stop-opacity:1"/></linearGradient>
        <linearGradient id="_Linear7" x1="0" y1="0" x2="1" y2="0" gradientUnits="userSpaceOnUse" gradientTransform="matrix(-2.36127,0.481595,-0.481595,-2.36127,110.926,102.784)"><stop offset="0" style="stop-color:#a28f6b;stop-opacity:1"/><stop offset="1" style="stop-color:#795e2b;stop-opacity:1"/></linearGradient>
        <linearGradient id="_Linear8" x1="0" y1="0" x2="1" y2="0" gradientUnits="userSpaceOnUse" gradientTransform="matrix(-2.36127,0.481595,-0.481595,-2.36127,110.926,102.784)"><stop offset="0" style="stop-color:#a28f6b;stop-opacity:1"/><stop offset="1" style="stop-color:#795e2b;stop-opacity:1"/></linearGradient>
        <linearGradient id="_Linear9" x1="0" y1="0" x2="1" y2="0" gradientUnits="userSpaceOnUse" gradientTransform="matrix(-2.36127,0.481595,-0.481595,-2.36127,110.926,102.784)"><stop offset="0" style="stop-color:#a28f6b;stop-opacity:1"/><stop offset="1" style="stop-color:#795e2b;stop-opacity:1"/></linearGradient>
        <linearGradient id="_Linear10" x1="0" y1="0" x2="1" y2="0" gradientUnits="userSpaceOnUse" gradientTransform="matrix(-2.45441,1.01414,-1.01414,-2.45441,121.619,112.598)"><stop offset="0" style="stop-color:#a28f6b;stop-opacity:1"/><stop offset="1" style="stop-color:#795e2b;stop-opacity:1"/></linearGradient>
        <linearGradient id="_Linear11" x1="0" y1="0" x2="1" y2="0" gradientUnits="userSpaceOnUse" gradientTransform="matrix(-2.45441,1.01414,-1.01414,-2.45441,121.619,112.598)"><stop offset="0" style="stop-color:#a28f6b;stop-opacity:1"/><stop offset="1" style="stop-color:#795e2b;stop-opacity:1"/></linearGradient>
        <linearGradient id="_Linear12" x1="0" y1="0" x2="1" y2="0" gradientUnits="userSpaceOnUse" gradientTransform="matrix(-2.45441,1.01414,-1.01414,-2.45441,121.619,112.598)"><stop offset="0" style="stop-color:#a28f6b;stop-opacity:1"/><stop offset="1" style="stop-color:#795e2b;stop-opacity:1"/></linearGradient>
        <linearGradient id="_Linear13" x1="0" y1="0" x2="1" y2="0" gradientUnits="userSpaceOnUse" gradientTransform="matrix(-0.363386,33.5422,-33.5422,-0.363386,66.2151,132.785)"><stop offset="0" style="stop-color:#a28f6b;stop-opacity:1"/><stop offset="1" style="stop-color:#795e2b;stop-opacity:1"/></linearGradient>
        <linearGradient id="_Linear14" x1="0" y1="0" x2="1" y2="0" gradientUnits="userSpaceOnUse" gradientTransform="matrix(-0.279221,23.2415,-23.2415,-0.279221,72.3972,138.381)"><stop offset="0" style="stop-color:#a28f6b;stop-opacity:1"/><stop offset="1" style="stop-color:#795e2b;stop-opacity:1"/></linearGradient>
        <linearGradient id="_Linear15" x1="0" y1="0" x2="1" y2="0" gradientUnits="userSpaceOnUse" gradientTransform="matrix(-1.37338,42.2663,-42.2663,-1.37338,100.49,97.6826)"><stop offset="0" style="stop-color:#a28f6b;stop-opacity:1"/><stop offset="1" style="stop-color:#795e2b;stop-opacity:1"/></linearGradient>
        <linearGradient id="_Linear16" x1="0" y1="0" x2="1" y2="0" gradientUnits="userSpaceOnUse" gradientTransform="matrix(2.64598,37.2205,-37.2205,2.64598,104.474,100.427)"><stop offset="0" style="stop-color:#a28f6b;stop-opacity:1"/><stop offset="0.08" style="stop-color:#aa8f61;stop-opacity:1"/><stop offset="1" style="stop-color:#795e2b;stop-opacity:1"/></linearGradient>
        <linearGradient id="_Linear17" x1="0" y1="0" x2="1" y2="0" gradientUnits="userSpaceOnUse" gradientTransform="matrix(-0.214303,26.8833,-26.8833,-0.214303,48.8062,109.726)"><stop offset="0" style="stop-color:#a28f6b;stop-opacity:1"/><stop offset="1" style="stop-color:#795e2b;stop-opacity:1"/></linearGradient>
        <linearGradient id="_Linear18" x1="0" y1="0" x2="1" y2="0" gradientUnits="userSpaceOnUse" gradientTransform="matrix(0.605586,27.5808,-27.5808,0.605586,52.9177,109.158)"><stop offset="0" style="stop-color:#a28f6b;stop-opacity:1"/><stop offset="1" style="stop-color:#795e2b;stop-opacity:1"/></linearGradient>
        <linearGradient id="_Linear19" x1="0" y1="0" x2="1" y2="0" gradientUnits="userSpaceOnUse" gradientTransform="matrix(-0.561238,33.4814,-33.4814,-0.561238,17.3588,113.12)"><stop offset="0" style="stop-color:#a28f6b;stop-opacity:1"/><stop offset="1" style="stop-color:#795e2b;stop-opacity:1"/></linearGradient>
        <linearGradient id="_Linear20" x1="0" y1="0" x2="1" y2="0" gradientUnits="userSpaceOnUse" gradientTransform="matrix(-0.430768,37.0786,-37.0786,-0.430768,21.4694,112.131)"><stop offset="0" style="stop-color:#a28f6b;stop-opacity:1"/><stop offset="1" style="stop-color:#795e2b;stop-opacity:1"/></linearGradient>
        <linearGradient id="_Linear21" x1="0" y1="0" x2="1" y2="0" gradientUnits="userSpaceOnUse" gradientTransform="matrix(2.40027,-9.09905,9.09905,2.40027,35.0781,111.819)"><stop offset="0" style="stop-color:#a28f6b;stop-opacity:1"/><stop offset="1" style="stop-color:#795e2b;stop-opacity:1"/></linearGradient>
        <linearGradient id="_Linear22" x1="0" y1="0" x2="1" y2="0" gradientUnits="userSpaceOnUse" gradientTransform="matrix(-7.56377,35.583,-35.583,-7.56377,71.5207,73.8352)"><stop offset="0" style="stop-color:#a28f6b;stop-opacity:1"/><stop offset="1" style="stop-color:#795e2b;stop-opacity:1"/></linearGradient>
        <linearGradient id="_Linear23" x1="0" y1="0" x2="1" y2="0" gradientUnits="userSpaceOnUse" gradientTransform="matrix(-4.19927,-5.56685,5.56685,-4.19927,88.1533,103.589)"><stop offset="0" style="stop-color:#a28f6b;stop-opacity:1"/><stop offset="1" style="stop-color:#795e2b;stop-opacity:1"/></linearGradient>
        <linearGradient id="_Linear24" x1="0" y1="0" x2="1" y2="0" gradientUnits="userSpaceOnUse" gradientTransform="matrix(-3.31444,1.04634,-1.04634,-3.31444,102.119,123.523)"><stop offset="0" style="stop-color:#a28f6b;stop-opacity:1"/><stop offset="1" style="stop-color:#795e2b;stop-opacity:1"/></linearGradient>
        <linearGradient id="_Linear25" x1="0" y1="0" x2="1" y2="0" gradientUnits="userSpaceOnUse" gradientTransform="matrix(-3.31444,1.04634,-1.04634,-3.31444,102.119,123.523)"><stop offset="0" style="stop-color:#a28f6b;stop-opacity:1"/><stop offset="1" style="stop-color:#795e2b;stop-opacity:1"/></linearGradient>
        <linearGradient id="_Linear26" x1="0" y1="0" x2="1" y2="0" gradientUnits="userSpaceOnUse" gradientTransform="matrix(-3.31444,1.04634,-1.04634,-3.31444,102.119,123.523)"><stop offset="0" style="stop-color:#a28f6b;stop-opacity:1"/><stop offset="1" style="stop-color:#795e2b;stop-opacity:1"/></linearGradient>
        <linearGradient id="_Linear27" x1="0" y1="0" x2="1" y2="0" gradientUnits="userSpaceOnUse" gradientTransform="matrix(-8.71736,6.38233,-6.38233,-8.71736,100.754,140.22)"><stop offset="0" style="stop-color:#a28f6b;stop-opacity:1"/><stop offset="1" style="stop-color:#795e2b;stop-opacity:1"/></linearGradient>
        <linearGradient id="_Linear28" x1="0" y1="0" x2="1" y2="0" gradientUnits="userSpaceOnUse" gradientTransform="matrix(-8.71736,6.38233,-6.38233,-8.71736,100.754,140.22)"><stop offset="0" style="stop-color:#a28f6b;stop-opacity:1"/><stop offset="1" style="stop-color:#795e2b;stop-opacity:1"/></linearGradient>
        <linearGradient id="_Linear29" x1="0" y1="0" x2="1" y2="0" gradientUnits="userSpaceOnUse" gradientTransform="matrix(-7.60429,6.09502,-6.09502,-7.60429,97.2468,129.494)"><stop offset="0" style="stop-color:#a28f6b;stop-opacity:1"/><stop offset="1" style="stop-color:#795e2b;stop-opacity:1"/></linearGradient>
        <linearGradient id="_Linear30" x1="0" y1="0" x2="1" y2="0" gradientUnits="userSpaceOnUse" gradientTransform="matrix(-7.60429,6.09502,-6.09502,-7.60429,97.2468,129.494)"><stop offset="0" style="stop-color:#a28f6b;stop-opacity:1"/><stop offset="1" style="stop-color:#795e2b;stop-opacity:1"/></linearGradient>
        <linearGradient id="_Linear31" x1="0" y1="0" x2="1" y2="0" gradientUnits="userSpaceOnUse" gradientTransform="matrix(-6.27951,6.18005,-6.18005,-6.27951,93.5619,116.654)"><stop offset="0" style="stop-color:#a28f6b;stop-opacity:1"/><stop offset="1" style="stop-color:#795e2b;stop-opacity:1"/></linearGradient>
        <linearGradient id="_Linear32" x1="0" y1="0" x2="1" y2="0" gradientUnits="userSpaceOnUse" gradientTransform="matrix(-6.27951,6.18005,-6.18005,-6.27951,93.5619,116.654)"><stop offset="0" style="stop-color:#a28f6b;stop-opacity:1"/><stop offset="1" style="stop-color:#795e2b;stop-opacity:1"/></linearGradient>
        <linearGradient id="_Linear33" x1="0" y1="0" x2="1" y2="0" gradientUnits="userSpaceOnUse" gradientTransform="matrix(-8.76878,7.42822,-7.42822,-8.76878,90.8407,104.447)"><stop offset="0" style="stop-color:#a28f6b;stop-opacity:1"/><stop offset="1" style="stop-color:#795e2b;stop-opacity:1"/></linearGradient>
        <linearGradient id="_Linear34" x1="0" y1="0" x2="1" y2="0" gradientUnits="userSpaceOnUse" gradientTransform="matrix(-8.76878,7.42822,-7.42822,-8.76878,90.8407,104.447)"><stop offset="0" style="stop-color:#a28f6b;stop-opacity:1"/><stop offset="1" style="stop-color:#795e2b;stop-opacity:1"/></linearGradient>
        <linearGradient id="_Linear35" x1="0" y1="0" x2="1" y2="0" gradientUnits="userSpaceOnUse" gradientTransform="matrix(-3.44798,0.85607,-0.85607,-3.44798,93.553,153.909)"><stop offset="0" style="stop-color:#a28f6b;stop-opacity:1"/><stop offset="1" style="stop-color:#795e2b;stop-opacity:1"/></linearGradient>
        <linearGradient id="_Linear36" x1="0" y1="0" x2="1" y2="0" gradientUnits="userSpaceOnUse" gradientTransform="matrix(-3.44798,0.85607,-0.85607,-3.44798,93.553,153.909)"><stop offset="0" style="stop-color:#a28f6b;stop-opacity:1"/><stop offset="1" style="stop-color:#795e2b;stop-opacity:1"/></linearGradient>
        <linearGradient id="_Linear37" x1="0" y1="0" x2="1" y2="0" gradientUnits="userSpaceOnUse" gradientTransform="matrix(-3.44798,0.85607,-0.85607,-3.44798,93.553,153.909)"><stop offset="0" style="stop-color:#a28f6b;stop-opacity:1"/><stop offset="1" style="stop-color:#795e2b;stop-opacity:1"/></linearGradient>
        <linearGradient id="_Linear38" x1="0" y1="0" x2="1" y2="0" gradientUnits="userSpaceOnUse" gradientTransform="matrix(-0.507393,32.2891,-32.2891,-0.507393,17.824,64.35)"><stop offset="0" style="stop-color:#a28f6b;stop-opacity:1"/><stop offset="1" style="stop-color:#795e2b;stop-opacity:1"/></linearGradient>
        <linearGradient id="_Linear39" x1="0" y1="0" x2="1" y2="0" gradientUnits="userSpaceOnUse" gradientTransform="matrix(-0.541119,29.8032,-29.8032,-0.541119,20.4532,63.3321)"><stop offset="0" style="stop-color:#a28f6b;stop-opacity:1"/><stop offset="1" style="stop-color:#795e2b;stop-opacity:1"/></linearGradient>
        <linearGradient id="_Linear40" x1="0" y1="0" x2="1" y2="0" gradientUnits="userSpaceOnUse" gradientTransform="matrix(-0.639288,27.5808,-27.5808,-0.639288,66.491,78.1424)"><stop offset="0" style="stop-color:#a28f6b;stop-opacity:1"/><stop offset="1" style="stop-color:#795e2b;stop-opacity:1"/></linearGradient>
        <linearGradient id="_Linear41" x1="0" y1="0" x2="1" y2="0" gradientUnits="userSpaceOnUse" gradientTransform="matrix(-0.373382,27.6214,-27.6214,-0.373382,70.0423,79.0184)"><stop offset="0" style="stop-color:#a28f6b;stop-opacity:1"/><stop offset="1" style="stop-color:#795e2b;stop-opacity:1"/></linearGradient>
        <linearGradient id="_Linear42" x1="0" y1="0" x2="1" y2="0" gradientUnits="userSpaceOnUse" gradientTransform="matrix(0.0628588,25.8329,-25.8329,0.0628588,101.347,54.325)"><stop offset="0" style="stop-color:#a28f6b;stop-opacity:1"/><stop offset="1" style="stop-color:#795e2b;stop-opacity:1"/></linearGradient>
        <linearGradient id="_Linear43" x1="0" y1="0" x2="1" y2="0" gradientUnits="userSpaceOnUse" gradientTransform="matrix(0.045053,24.7055,-24.7055,0.045053,104.609,53.8951)"><stop offset="0" style="stop-color:#a28f6b;stop-opacity:1"/><stop offset="1" style="stop-color:#795e2b;stop-opacity:1"/></linearGradient>
        <linearGradient id="_Linear44" x1="0" y1="0" x2="1" y2="0" gradientUnits="userSpaceOnUse" gradientTransform="matrix(-0.717862,23.8417,-23.8417,-0.717862,50.2182,46.713)"><stop offset="0" style="stop-color:#a28f6b;stop-opacity:1"/><stop offset="1" style="stop-color:#795e2b;stop-opacity:1"/></linearGradient>
        <linearGradient id="_Linear45" x1="0" y1="0" x2="1" y2="0" gradientUnits="userSpaceOnUse" gradientTransform="matrix(-0.717862,23.8417,-23.8417,-0.717862,50.2182,46.713)"><stop offset="0" style="stop-color:#a28f6b;stop-opacity:1"/><stop offset="1" style="stop-color:#795e2b;stop-opacity:1"/></linearGradient>
        <linearGradient id="_Linear46" x1="0" y1="0" x2="1" y2="0" gradientUnits="userSpaceOnUse" gradientTransform="matrix(2.01399,24.8922,-24.8922,2.01399,64.9388,44.0548)"><stop offset="0" style="stop-color:#a28f6b;stop-opacity:1"/><stop offset="1" style="stop-color:#795e2b;stop-opacity:1"/></linearGradient>
        <linearGradient id="_Linear48" x1="0" y1="0" x2="1" y2="0" gradientUnits="userSpaceOnUse" gradientTransform="matrix(24.8127,38.5406,-38.5406,24.8127,59.5431,2.32181)"><stop offset="0" style="stop-color:#9d8239;stop-opacity:1"/><stop offset="1" style="stop-color:#d4a835;stop-opacity:1"/></linearGradient>
        <linearGradient id="_Linear50" x1="0" y1="0" x2="1" y2="0" gradientUnits="userSpaceOnUse" gradientTransform="matrix(7.79103,-34.7538,34.7538,7.79103,49.2097,35.7738)"><stop offset="0" style="stop-color:#d4a835;stop-opacity:1"/><stop offset="1" style="stop-color:#9d8239;stop-opacity:1"/></linearGradient>
    </defs>
</svg>
