<svg width="132" height="166" xmlns="http://www.w3.org/2000/svg" fill-rule="evenodd" clip-rule="evenodd" stroke-linejoin="round" stroke-miterlimit="2"><path d="M110.355 71.717l-2.895 2.751 14.155 54.318 2.948-3.515-14.208-53.554z" fill="url(#_Linear1)"/><path d="M110.935 71.564a.6.6 0 00-.993-.282l-2.895 2.751a.602.602 0 00-.167.587l14.155 54.318a.6.6 0 001.04.234l2.948-3.516a.6.6 0 00.12-.539l-14.208-53.553zm-2.805 3.095l13.773 52.851 2.001-2.386-13.869-52.274-1.905 1.809z"/><path d="M103.583 73.495l3.869.989 14.131 54.325-4.288-1.632-13.712-53.682z" fill="url(#_Linear2)"/><path d="M103.732 72.913a.601.601 0 00-.73.73l13.712 53.682a.6.6 0 00.368.413l4.288 1.631a.6.6 0 00.794-.712l-14.131-54.324a.6.6 0 00-.432-.43l-3.869-.99zm14.067 53.814l2.911 1.107-13.749-52.856-2.546-.651 13.384 52.4z"/><path d="M110.274 71.688l-3.828-.75-2.853 2.482 3.887 1.022 2.794-2.754z" fill="url(#_Linear3)"/><path d="M110.695 72.115a.599.599 0 00-.305-1.016l-3.829-.749a.597.597 0 00-.509.136l-2.853 2.481A.6.6 0 00103.44 74l3.887 1.022a.6.6 0 00.574-.153l2.794-2.754zm-5.853 1.013l2.46.647 1.742-1.717-2.426-.474-1.776 1.544z"/><g><path d="M107.625 74.864l-2.895 2.751 14.155 54.318 2.948-3.516-14.208-53.553z" fill="url(#_Linear4)"/><path d="M108.205 74.71a.6.6 0 00-.993-.281l-2.895 2.751a.6.6 0 00-.167.586l14.155 54.318a.599.599 0 001.04.235l2.948-3.516a.6.6 0 00.12-.54L108.205 74.71zm-2.805 3.096l13.773 52.851 2.001-2.387-13.869-52.274-1.905 1.81z"/><path d="M100.854 76.641l3.868.99 14.131 54.324-4.288-1.631-13.711-53.683z" fill="url(#_Linear5)"/><path d="M101.002 76.06a.601.601 0 00-.73.73l13.712 53.682a.597.597 0 00.368.412l4.288 1.632a.6.6 0 00.794-.712L105.303 77.48a.6.6 0 00-.432-.43l-3.869-.99zm14.067 53.814l2.911 1.107-13.749-52.856-2.546-.652 13.384 52.401z"/><path d="M107.544 74.835l-3.828-.75-2.853 2.481 3.887 1.023 2.794-2.754z" fill="url(#_Linear6)"/><path d="M107.965 75.262a.599.599 0 00-.305-1.016l-3.829-.75a.604.604 0 00-.509.136l-2.853 2.482a.6.6 0 00.241 1.033l3.887 1.022a.6.6 0 00.574-.153l2.794-2.754zm-5.853 1.013l2.46.647 1.742-1.717-2.426-.475-1.776 1.545z"/></g><g><path d="M109.182 77.461l-3.116 2.497 9.535 55.317 3.234-3.256-9.653-54.558z" fill="url(#_Linear7)"/><path d="M109.773 77.356a.601.601 0 00-.966-.363l-3.116 2.497a.597.597 0 00-.216.57l9.535 55.317a.6.6 0 001.017.32l3.233-3.255a.598.598 0 00.165-.527l-9.652-54.559zm-3.056 2.849l9.278 53.822 2.194-2.21-9.421-53.255-2.051 1.643z"/><path d="M102.285 78.662l3.772 1.312 9.511 55.32-4.136-1.986-9.147-54.646z" fill="url(#_Linear8)"/><path d="M102.482 78.095a.6.6 0 00-.789.666l9.147 54.646a.598.598 0 00.332.441l4.136 1.987a.6.6 0 00.851-.642l-9.511-55.321a.6.6 0 00-.394-.465l-3.772-1.312zm9.49 54.807l2.807 1.348-9.254-53.826-2.481-.863 8.928 53.341z"/><path d="M109.104 77.425l-3.752-1.069-3.052 2.232 3.788 1.346 3.016-2.509z" fill="url(#_Linear9)"/><path d="M109.487 77.886a.598.598 0 00-.219-1.038l-3.752-1.069a.598.598 0 00-.518.092l-3.052 2.233a.6.6 0 00.153 1.049l3.788 1.346a.597.597 0 00.584-.104l3.016-2.509zm-5.917.517l2.397.851 1.879-1.564-2.377-.677-1.899 1.39z"/></g><g><path d="M108.897 76.919l-2.456 3.149 22.035 51.626 2.395-3.913-21.974-50.862z" fill="url(#_Linear10)"/><path d="M109.448 76.681a.6.6 0 00-1.024-.131l-2.456 3.149a.6.6 0 00-.079.605l22.035 51.626a.598.598 0 001.063.078l2.396-3.913a.6.6 0 00.039-.552l-21.974-50.862zm-2.316 3.477l21.439 50.232 1.626-2.656-21.449-49.648-1.616 2.072z"/><path d="M102.463 79.679l3.973.406 22.012 51.636-4.483-.979-21.502-51.063z" fill="url(#_Linear11)"/><path d="M102.524 79.082a.602.602 0 00-.614.83l21.502 51.063a.6.6 0 00.425.353l4.483.979a.6.6 0 00.68-.821L106.987 79.85a.6.6 0 00-.49-.362l-3.973-.406zm21.873 51.14l3.043.665-21.418-50.241-2.613-.267 20.988 49.843z"/><path d="M108.813 76.902l-3.898-.175-2.454 2.876 3.996.436 2.356-3.137z" fill="url(#_Linear12)"/><path d="M109.292 77.262a.598.598 0 00-.452-.959l-3.898-.175a.6.6 0 00-.483.21l-2.455 2.876a.6.6 0 00.392.986l3.995.436a.6.6 0 00.545-.236l2.356-3.138zm-5.638 1.868l2.528.276 1.468-1.955-2.469-.111-1.527 1.79z"/></g><g><path d="M64.253 111.392h4.264v53.784l-4.264-1.289v-52.495z" fill="url(#_Linear13)"/><path d="M64.253 110.792a.6.6 0 00-.6.6v52.495a.6.6 0 00.427.575l4.263 1.288a.602.602 0 00.774-.574v-53.784a.6.6 0 00-.6-.6h-4.264zm.6 1.2v51.45l3.064.926v-52.376h-3.064z"/><path d="M71.791 111.434h-3.227v53.742l3.227-2.575v-51.167z" fill="url(#_Linear14)"/><path d="M72.391 111.434a.6.6 0 00-.6-.6h-3.227a.6.6 0 00-.6.6v53.742a.6.6 0 00.975.469l3.226-2.575a.599.599 0 00.226-.469v-51.167zm-3.227.6v51.896l2.027-1.618v-50.278h-2.027z"/><g><path d="M98.78 79.775h4.264v53.784l-4.264-1.289V79.775z" fill="url(#_Linear15)"/><path d="M98.78 79.175a.6.6 0 00-.6.6v52.495a.6.6 0 00.427.574l4.263 1.289a.6.6 0 00.774-.574V79.775a.6.6 0 00-.6-.6H98.78zm.6 1.2v51.449l3.064.926V80.375H99.38z"/><path d="M106.318 79.816h-3.227v53.743l3.227-2.575V79.816z" fill="url(#_Linear16)"/><path d="M106.918 79.816a.6.6 0 00-.6-.6h-3.227a.6.6 0 00-.6.6v53.743a.6.6 0 00.975.469l3.226-2.575a.6.6 0 00.226-.469V79.816zm-3.227 52.496l2.027-1.617V80.416h-2.027v51.896z"/></g><g><path d="M47.229 82.628h4.264v53.784l-4.264-1.289V82.628z" fill="url(#_Linear17)"/><path d="M47.229 82.028a.6.6 0 00-.6.6v52.495c0 .265.174.498.427.575l4.263 1.288a.602.602 0 00.774-.574V82.628a.6.6 0 00-.6-.6h-4.264zm.6 1.2v51.45l3.064.926V83.228h-3.064z"/><path d="M54.767 82.67H51.54v53.742l3.227-2.575V82.67z" fill="url(#_Linear18)"/><path d="M55.367 82.67a.6.6 0 00-.6-.6H51.54a.6.6 0 00-.6.6v53.742a.6.6 0 00.975.469l3.226-2.575a.599.599 0 00.226-.469V82.67zm-3.227 52.496l2.027-1.618V83.27H52.14v51.896z"/></g><g><path d="M14.811 95.265h4.264v53.784l-4.264-1.289V95.265z" fill="url(#_Linear19)"/><path d="M14.811 94.665a.6.6 0 00-.6.6v52.495a.6.6 0 00.427.574l4.263 1.289a.602.602 0 00.774-.574V95.265a.6.6 0 00-.6-.6h-4.264zm.6 1.2v51.449l3.064.926V95.865h-3.064z"/><path d="M22.349 95.306h-3.227v53.743l3.227-2.575V95.306z" fill="url(#_Linear20)"/><path d="M22.949 95.306a.6.6 0 00-.6-.6h-3.227a.6.6 0 00-.6.6v53.743a.6.6 0 00.975.469l3.226-2.575a.6.6 0 00.226-.469V95.306zm-3.227 52.496l2.027-1.617V95.906h-2.027v51.896z"/></g></g><g><path d="M14.81 95.334l53.545 16.176v8.058L14.81 103.384v-8.05z" fill="url(#_Linear21)"/><path d="M14.984 94.76a.6.6 0 00-.774.574v8.05a.6.6 0 00.427.574l53.544 16.184a.6.6 0 00.774-.574v-8.058a.602.602 0 00-.427-.575L14.984 94.76zm.426 8.179l52.345 15.821v-6.805L15.41 96.142v6.797z"/><path d="M51.89 68.838l54.475 11.079-38.009 31.517L14.812 95.25 51.89 68.838z" fill="url(#_Linear22)"/><path d="M52.01 68.25a.595.595 0 00-.468.099L14.464 94.761a.6.6 0 00.174 1.063l53.545 16.184a.601.601 0 00.556-.112l38.009-31.517a.601.601 0 00-.264-1.05L52.01 68.25zM16.156 95.029l52.065 15.737 36.796-30.511-52.991-10.777-35.87 25.551z"/><path d="M106.429 79.924L68.52 111.53v8.099l37.909-31.653v-8.052z" fill="url(#_Linear23)"/><path d="M107.029 79.924a.601.601 0 00-.984-.461l-37.909 31.606a.6.6 0 00-.216.461v8.099a.601.601 0 00.985.461l37.908-31.654a.598.598 0 00.216-.46v-8.052zM69.12 111.811v6.535l36.709-30.651v-6.49L69.12 111.811z"/></g><g><path d="M95.602 89.541l-2.982 2.656 12.403 54.745 3.059-3.42-12.48-53.981z" fill="url(#_Linear24)"/><path d="M96.187 89.405a.6.6 0 00-.984-.312l-2.982 2.656a.601.601 0 00-.186.581l12.403 54.744a.598.598 0 001.032.268l3.06-3.419a.602.602 0 00.137-.536l-12.48-53.982zm-2.903 3.005l12.067 53.265 2.077-2.321-12.183-52.692-1.961 1.748z"/><path d="M88.777 91.099l3.835 1.114 12.378 54.75-4.233-1.769-11.98-54.095z" fill="url(#_Linear25)"/><path d="M88.944 90.523a.6.6 0 00-.753.706l11.98 54.095a.598.598 0 00.354.424l4.234 1.769a.6.6 0 00.817-.686l-12.379-54.75a.6.6 0 00-.418-.444l-3.835-1.114zm12.331 54.238l2.874 1.2L92.105 92.69l-2.524-.732 11.694 52.803z"/><path d="M95.522 89.508l-3.802-.872-2.932 2.389 3.853 1.147 2.881-2.664z" fill="url(#_Linear26)"/><path d="M95.929 89.949a.6.6 0 00-.273-1.025l-3.802-.872a.596.596 0 00-.513.119l-2.932 2.388a.6.6 0 00.208 1.041l3.852 1.147c.204.06.423.009.579-.135l2.881-2.663zm-5.882.824l2.437.726 1.796-1.66-2.409-.552-1.824 1.486z"/><g><path d="M89.632 147.714l1.399 1.331 10.602-10.062-2.08-.217-9.921 8.948z" fill="url(#_Linear27)"/><path d="M89.23 147.268a.598.598 0 00-.012.88l1.399 1.331a.6.6 0 00.827.001l10.602-10.062a.6.6 0 00-.351-1.032l-2.08-.217a.598.598 0 00-.464.151l-9.921 8.948zm1.285.457l.516.492 9.244-8.773-.519-.054-9.241 8.335z"/><path d="M91.417 151.391l-.258-2.335 10.49-10.067.477 2.037-10.709 10.365z" fill="url(#_Linear28)"/><path d="M90.821 151.457a.6.6 0 001.013.365l10.71-10.365a.603.603 0 00.167-.568l-.477-2.036a.6.6 0 00-1-.297l-10.49 10.067a.598.598 0 00-.181.499l.258 2.335zm.967-2.173l.091.825 9.586-9.278-.16-.68-9.517 9.133z"/></g><g><path d="M87.114 136.008l1.399 1.331 10.602-10.061-2.08-.218-9.921 8.948z" fill="url(#_Linear29)"/><path d="M86.713 135.563a.598.598 0 00-.012.88l1.398 1.331c.232.22.595.22.827.001l10.602-10.062a.598.598 0 00-.35-1.032l-2.08-.217a.601.601 0 00-.465.151l-9.92 8.948zm1.284.457l.517.492 9.244-8.773-.519-.054-9.242 8.335z"/><path d="M88.899 139.686l-.258-2.335 10.491-10.067.477 2.036-10.71 10.366z" fill="url(#_Linear30)"/><path d="M88.303 139.752a.6.6 0 001.014.365l10.709-10.366a.599.599 0 00.167-.568l-.477-2.036a.598.598 0 00-1-.296l-10.49 10.067a.6.6 0 00-.181.499l.258 2.335zm.967-2.173l.091.825 9.586-9.278-.159-.68-9.518 9.133z"/></g><g><path d="M84.225 123.346l1.399 1.331 10.602-10.062-2.08-.217-9.921 8.948z" fill="url(#_Linear31)"/><path d="M83.823 122.9a.6.6 0 00-.012.88l1.399 1.331a.6.6 0 00.827.001l10.602-10.062a.6.6 0 00-.351-1.032l-2.08-.217a.598.598 0 00-.464.151l-9.921 8.948zm1.285.457l.516.492 9.244-8.773-.519-.054-9.241 8.335z"/><path d="M86.01 127.023l-.258-2.335 10.49-10.067.477 2.037-10.709 10.365z" fill="url(#_Linear32)"/><path d="M85.414 127.089a.6.6 0 001.013.365l10.71-10.365a.603.603 0 00.167-.568l-.477-2.036a.599.599 0 00-1-.296l-10.49 10.066a.598.598 0 00-.181.499l.258 2.335zm.967-2.173l.091.825 9.586-9.278-.16-.68-9.517 9.133z"/></g><g><path d="M81.508 111.199l1.398 1.332 10.603-10.062-2.08-.217-9.921 8.947z" fill="url(#_Linear33)"/><path d="M81.106 110.754a.598.598 0 00-.012.88l1.399 1.331a.6.6 0 00.826.001l10.603-10.062a.602.602 0 00-.351-1.032l-2.08-.217a.598.598 0 00-.464.151l-9.921 8.948zm1.284.457l.517.492 9.244-8.773-.519-.054-9.242 8.335z"/><path d="M83.293 114.877l-.258-2.335 10.49-10.067.477 2.036-10.709 10.366z" fill="url(#_Linear34)"/><path d="M82.696 114.943a.6.6 0 001.014.365l10.709-10.365a.6.6 0 00.167-.568l-.477-2.037a.6.6 0 00-.999-.296l-10.491 10.067a.604.604 0 00-.181.499l.258 2.335zm.968-2.173l.091.825 9.585-9.278-.159-.68-9.517 9.133z"/></g><g><path d="M82.408 100.159l-2.982 2.657 12.403 54.744 3.059-3.419-12.48-53.982z" fill="url(#_Linear35)"/><path d="M82.993 100.024a.6.6 0 00-.984-.313l-2.982 2.657a.6.6 0 00-.186.58l12.403 54.745a.598.598 0 001.032.268l3.059-3.42a.597.597 0 00.138-.535l-12.48-53.982zm-2.904 3.004l12.068 53.266 2.077-2.321-12.183-52.692-1.962 1.747z"/><path d="M75.583 101.718l3.835 1.114 12.378 54.75-4.233-1.769-11.98-54.095z" fill="url(#_Linear36)"/><path d="M75.75 101.142a.6.6 0 00-.753.706l11.98 54.095a.6.6 0 00.354.424l4.234 1.768a.6.6 0 00.817-.686l-12.379-54.75a.6.6 0 00-.418-.444l-3.835-1.113zm12.331 54.237l2.874 1.201-12.045-53.271-2.523-.733 11.694 52.803z"/><path d="M82.328 100.127l-3.803-.872-2.931 2.388 3.853 1.147 2.881-2.663z" fill="url(#_Linear37)"/><path d="M82.735 100.568a.6.6 0 00-.273-1.026l-3.802-.872a.603.603 0 00-.514.12l-2.931 2.388a.6.6 0 00.208 1.04l3.852 1.147a.6.6 0 00.579-.134l2.881-2.663zm-5.883.824l2.438.726 1.796-1.66-2.409-.553-1.825 1.487z"/></g></g><g><path d="M14.806 42.718h4.264v53.783l-4.264-1.289V42.718z" fill="url(#_Linear38)"/><path d="M14.806 42.118a.6.6 0 00-.6.6v52.494a.6.6 0 00.426.575l4.264 1.289a.603.603 0 00.774-.575V42.718a.6.6 0 00-.6-.6h-4.264zm.6 1.2v51.449l3.064.926V43.318h-3.064z"/><path d="M22.343 42.759h-3.226v53.743l3.226-2.576V42.759z" fill="url(#_Linear39)"/><path d="M22.943 42.759a.6.6 0 00-.6-.6h-3.226a.6.6 0 00-.6.6v53.743a.6.6 0 00.974.468l3.227-2.575a.6.6 0 00.225-.469V42.759zm-3.226 52.496l2.026-1.618V43.359h-2.026v51.896z"/><g><path d="M64.08 57.655h4.264v53.784l-4.264-1.289V57.655z" fill="url(#_Linear40)"/><path d="M64.08 57.055a.6.6 0 00-.6.6v52.495c0 .265.173.498.426.574l4.264 1.289a.6.6 0 00.774-.574V57.655a.6.6 0 00-.6-.6H64.08zm.6 1.2v51.45l3.064.926V58.255H64.68z"/><path d="M71.618 57.696h-3.227v53.743l3.227-2.575V57.696z" fill="url(#_Linear41)"/><path d="M72.218 57.696a.6.6 0 00-.6-.6h-3.227a.6.6 0 00-.6.6v53.743a.6.6 0 00.974.469l3.227-2.575a.6.6 0 00.226-.469V57.696zm-3.227.6v51.897l2.027-1.618V58.296h-2.027z"/></g><g><path d="M98.803 28.606h4.264V82.39l-4.264-1.289V28.606z" fill="url(#_Linear42)"/><path d="M98.803 28.006a.6.6 0 00-.6.6v52.495a.6.6 0 00.426.575l4.264 1.288a.6.6 0 00.774-.574V28.606a.6.6 0 00-.6-.6h-4.264zm.6 1.2v51.45l3.064.926V29.206h-3.064z"/><path d="M106.341 28.648h-3.227V82.39l3.227-2.575V28.648z" fill="url(#_Linear43)"/><path d="M106.941 28.648a.6.6 0 00-.6-.6h-3.227a.6.6 0 00-.6.6V82.39a.6.6 0 00.974.469l3.227-2.575a.602.602 0 00.226-.469V28.648zm-3.227 52.496l2.027-1.618V29.248h-2.027v51.896z"/></g><g><path d="M49.046 18.593h4.264v53.783l-4.264-1.288V18.593z" fill="url(#_Linear44)"/><path d="M49.046 17.993a.6.6 0 00-.6.6v52.495a.6.6 0 00.426.574l4.264 1.289a.6.6 0 00.774-.575V18.593a.6.6 0 00-.6-.6h-4.264zm.6 1.2v51.449l3.064.926V19.193h-3.064z"/><path d="M56.584 18.634h-3.227v53.743l3.227-2.576V18.634z" fill="url(#_Linear45)"/><path d="M57.184 18.634a.6.6 0 00-.6-.6h-3.227a.6.6 0 00-.6.6v53.743a.6.6 0 00.974.469l3.227-2.576a.599.599 0 00.226-.469V18.634zM53.957 71.13l2.027-1.617V19.234h-2.027V71.13z"/></g></g><g><path d="M58.312 5.795l65.756 29.541-55.592 33.913L1.283 53.5 58.312 5.795z" fill="url(#_Linear46)"/><path d="M58.557 5.248a.596.596 0 00-.63.087L.898 53.04a.6.6 0 00.248 1.044L68.34 69.833a.6.6 0 00.449-.072l55.591-33.913a.599.599 0 00-.067-1.059L58.557 5.248zM2.589 53.19l65.785 15.418 54.409-33.191L58.408 6.496 2.589 53.19z"/><path d="M57.719 5.89l10.165 63.453a.6.6 0 001.185-.189L58.904 5.7a.6.6 0 10-1.185.19z"/><path d="M57.715.6l66.526 31.184-2.591.915-2.644 2.466-9.426-5.024 5.679 5.024-6.603 4.569-6.215-4.569 3.135 4.569-5.393 6.236-7.778-9.668-.694 1.35 5.49 8.318-9.804-4.687 4.314 9.345-8.553-4.658 3.415 6.842-9.042 6.224-4.014-9.091-1.93.683 1.93 9.926-5.637 3.5L57.715.6z" fill="#deb342"/><clipPath id="a"><path d="M57.715.6l66.526 31.184-2.591.915-2.644 2.466-9.426-5.024 5.679 5.024-6.603 4.569-6.215-4.569 3.135 4.569-5.393 6.236-7.778-9.668-.694 1.35 5.49 8.318-9.804-4.687 4.314 9.345-8.553-4.658 3.415 6.842-9.042 6.224-4.014-9.091-1.93.683 1.93 9.926-5.637 3.5L57.715.6z"/></clipPath><g clip-path="url(#a)"><path d="M57.628.69l9.344 58.328 3.976-2.152-6.669-30.361 2.693-1.109 9.988 27.421 5.549-4.249-11.561-24.78 14.8 20.865-3.239-9.488 8.515 5.638-9.62-15.407v-3.142l16.318 17.288 4.666-2.621-15.213-16.006 1.35-1.09 17.731 15.34 3.67-2.58-19.93-15.328 22.74 12.884 6.73-1.799v-2.946l-1.663-1.608v-1.534h9.115L57.628.69z" fill="url(#_Linear48)"/><path d="M64.667 26.708l6.609 30.086a.336.336 0 01-.168.367l-3.976 2.152a.335.335 0 01-.491-.242L57.297.743a.336.336 0 01.431-.374l69.29 21.565a.336.336 0 01-.1.656h-8.78v1.056l1.561 1.509c.066.063.103.15.103.241v2.946a.335.335 0 01-.249.324l-6.73 1.799a.33.33 0 01-.252-.032l-18.58-10.527 16.14 12.413a.336.336 0 01-.012.54l-3.67 2.58a.337.337 0 01-.413-.02L88.518 20.262l-.85.686 14.964 15.742a.335.335 0 01-.079.524l-4.666 2.62a.336.336 0 01-.409-.062L81.739 23.099V25.3l9.569 15.325a.335.335 0 01-.469.458l-7.694-5.095 2.921 8.557a.336.336 0 01-.592.302L72.82 27.008l9.993 21.418a.334.334 0 01-.1.408l-5.549 4.249a.335.335 0 01-.519-.151l-9.869-27.093-2.109.869zm60.044-4.789L58.045 1.171l9.183 57.327 3.338-1.807-6.615-30.114a.335.335 0 01.2-.383l2.693-1.108a.334.334 0 01.443.195l9.832 26.992 4.972-3.808L70.644 23.93a.335.335 0 01.577-.336l13.462 18.978-2.491-7.299a.335.335 0 01.503-.388l7.226 4.785-8.802-14.096a.34.34 0 01-.051-.178v-3.142c0-.137.084-.261.212-.311a.334.334 0 01.367.081l16.14 17.097 4.061-2.281-14.917-15.694a.338.338 0 01.033-.492l1.35-1.09a.337.337 0 01.431.007l17.532 15.169 3.083-2.168-19.568-15.049a.335.335 0 01.37-.558l22.62 12.817 6.349-1.698v-2.546l-1.561-1.509a.333.333 0 01-.103-.241v-1.534c0-.185.151-.335.336-.335h6.908z"/></g><path d="M72.274 51.021l1.832 9.418a.6.6 0 01-.273.624l-5.636 3.5a.602.602 0 01-.909-.414L57.123.695a.6.6 0 01.847-.638l66.526 31.183a.601.601 0 01-.055 1.109l-2.473.874-2.553 2.381a.598.598 0 01-.691.09l-4.933-2.629 1.865 1.651a.6.6 0 01-.056.942l-6.603 4.569a.6.6 0 01-.697-.01l-3.36-2.47 1.13 1.647a.598.598 0 01-.041.732l-5.392 6.236a.6.6 0 01-.921-.016l-7.2-8.949-.111.217 5.297 8.025a.6.6 0 01-.759.872l-8.305-3.97 3.617 7.836a.6.6 0 01-.831.778l-6.877-3.745 2.563 5.134a.601.601 0 01-.197.762l-9.041 6.225a.605.605 0 01-.504.083.605.605 0 01-.386-.335l-3.79-8.583-.918.325zm50.386-19.316L58.487 1.624l9.843 61.444 4.519-2.806-1.851-9.519a.599.599 0 01.388-.68l1.93-.683a.6.6 0 01.749.323l3.723 8.429 8.015-5.519-3.182-6.375a.6.6 0 01.824-.795l6.961 3.792-3.554-7.701a.599.599 0 01.803-.793l7.855 3.755-4.3-6.514a.6.6 0 01-.033-.605l.695-1.349a.601.601 0 011.001-.102l7.327 9.107 4.619-5.341-2.873-4.188a.599.599 0 01.85-.822l5.87 4.315 5.622-3.89-5.105-4.516a.601.601 0 01.68-.979l9.047 4.822 2.331-2.174a.59.59 0 01.209-.127l1.21-.428z"/><path d="M57.628.69l10.165 63.453-6.701-1.211-.956-7.881h-1.737l-.771 7.136-5.779-1.903v-6.163l-1.081-2.273-1.204 8.436-9.32-2.789 1.494-7.337-2.97.996-2.523 5.804-6.006-1.907.993-3.897-1.661-.517-2.818 4.414 1.181-6.091-4.953 4.223v-5.937l-4.718 5.937-3.204-.738 1.185-3.485-3.939 2.888-4.625-1.211 3.034-3.95-5.631 3.471-1.204-1.763H.6L57.628.69z" fill="#deb342"/><clipPath id="b"><path d="M57.628.69l10.165 63.453-6.701-1.211-.956-7.881h-1.737l-.771 7.136-5.779-1.903v-6.163l-1.081-2.273-1.204 8.436-9.32-2.789 1.494-7.337-2.97.996-2.523 5.804-6.006-1.907.993-3.897-1.661-.517-2.818 4.414 1.181-6.091-4.953 4.223v-5.937l-4.718 5.937-3.204-.738 1.185-3.485-3.939 2.888-4.625-1.211 3.034-3.95-5.631 3.471-1.204-1.763H.6L57.628.69z"/></clipPath><g clip-path="url(#b)"><path d="M48.714-.324L2.57 43.108l7.86 1.189 19.625-17.319-16.289 18.334 6.22 1.277 10.069-14.195-3.711 14.195 12.018-17.482-5.573 18.405 5.573 1.575 4.54-16.693 5.21-5.416-5.21 26.099 5.812 1.914 3.912-25.884 2.036 1.683-1.107 21.267 3.097 1.615 1.035-26.694h1.594l3.5 31.566 6.736.998L58.476-5.17 48.714-.324z" fill="url(#_Linear50)"/><path d="M26.137 30.884L10.652 44.548a.34.34 0 01-.273.081l-7.859-1.19a.334.334 0 01-.18-.576L48.484-.568a.3.3 0 01.081-.056l9.762-4.847a.336.336 0 01.48.244l11.04 64.713a.333.333 0 01-.38.388l-6.735-.998a.335.335 0 01-.285-.295L58.98 27.314h-.971l-1.021 26.371a.336.336 0 01-.491.285L53.4 52.355a.335.335 0 01-.18-.315l1.099-21.099-1.45-1.198-3.823 25.298a.335.335 0 01-.437.268l-5.812-1.913a.336.336 0 01-.224-.384l4.985-24.974-4.355 4.527-4.517 16.61a.331.331 0 01-.158.204.33.33 0 01-.257.031l-5.574-1.575a.342.342 0 01-.203-.162.338.338 0 01-.026-.259l4.947-16.337-10.794 15.702a.335.335 0 01-.601-.274l3.246-12.418-9.006 12.696a.335.335 0 01-.341.135l-6.22-1.277a.336.336 0 01-.183-.552l12.621-14.205zM63.086 58.25l6.022.893L58.221-4.669 48.908-.045 3.302 42.879l7.023 1.063 19.508-17.215a.336.336 0 01.473.474L14.403 45.1l5.436 1.117L29.781 32.2a.336.336 0 01.599.279L27.154 44.82l10.932-15.903a.336.336 0 01.598.287l-5.475 18.078 4.919 1.39 4.45-16.366a.344.344 0 01.082-.145l5.21-5.415a.334.334 0 01.571.298l-5.152 25.808 5.153 1.696 3.852-25.491a.336.336 0 01.546-.209l2.036 1.684c.082.067.127.17.122.276L53.901 51.86l2.437 1.27 1.013-26.165a.335.335 0 01.336-.322h1.594c.171 0 .314.128.333.298l3.472 31.309z"/></g><path d="M3.562 48.995H.6a.6.6 0 01-.385-1.06L57.243.229a.6.6 0 01.978.366l10.165 63.453a.603.603 0 01-.7.686l-6.701-1.212a.6.6 0 01-.489-.518l-.891-7.353h-.667l-.713 6.6a.603.603 0 01-.785.506l-5.778-1.903a.6.6 0 01-.413-.57v-6.028l-.168-.354-.923 6.467a.6.6 0 01-.766.49l-9.32-2.789a.6.6 0 01-.416-.695l1.287-6.317-1.731.58-2.417 5.56a.6.6 0 01-.732.332l-6.006-1.907a.6.6 0 01-.4-.72l.853-3.345-.68-.212-2.571 4.028a.6.6 0 01-1.095-.437l.854-4.408-3.648 3.111a.599.599 0 01-.989-.457v-4.217l-3.648 4.591a.6.6 0 01-.604.211l-3.205-.738a.6.6 0 01-.433-.778l.572-1.682-2.404 1.762a.6.6 0 01-.506.096l-4.625-1.21a.602.602 0 01-.324-.946l1.045-1.361-2.852 1.758a.6.6 0 01-.81-.172l-1.025-1.502zM61.634 62.42l5.433.982-9.864-61.574L2.252 47.795h1.627a.6.6 0 01.495.262l.881 1.29 5.144-3.171a.6.6 0 01.791.876l-2.483 3.234 3.473.909 3.709-2.719a.602.602 0 01.923.677l-.971 2.857 2.188.504 4.482-5.641a.601.601 0 011.07.373v4.637l3.963-3.379a.6.6 0 01.979.57l-.582 3.001 1.124-1.761a.6.6 0 01.684-.25l1.661.518a.6.6 0 01.403.721l-.853 3.348 4.95 1.572 2.308-5.308a.596.596 0 01.359-.329l2.97-.997a.602.602 0 01.779.689l-1.385 6.8 8.127 2.431 1.106-7.746a.601.601 0 011.136-.173l1.081 2.273a.59.59 0 01.058.258v5.729l4.662 1.535.692-6.398a.6.6 0 01.596-.536h1.737a.6.6 0 01.596.528l.902 7.441z"/></g><defs><linearGradient id="_Linear1" x1="0" y1="0" x2="1" y2="0" gradientUnits="userSpaceOnUse" gradientTransform="scale(-4.90528) rotate(-18.231 -60.606 63.28)"><stop offset="0" stop-color="#a28f6b"/><stop offset="1" stop-color="#795e2b"/></linearGradient><linearGradient id="_Linear2" x1="0" y1="0" x2="1" y2="0" gradientUnits="userSpaceOnUse" gradientTransform="scale(-4.90528) rotate(-18.231 -60.606 63.28)"><stop offset="0" stop-color="#a28f6b"/><stop offset="1" stop-color="#795e2b"/></linearGradient><linearGradient id="_Linear3" x1="0" y1="0" x2="1" y2="0" gradientUnits="userSpaceOnUse" gradientTransform="scale(-4.90528) rotate(-18.231 -60.606 63.28)"><stop offset="0" stop-color="#a28f6b"/><stop offset="1" stop-color="#795e2b"/></linearGradient><linearGradient id="_Linear4" x1="0" y1="0" x2="1" y2="0" gradientUnits="userSpaceOnUse" gradientTransform="rotate(155.408 47.201 68.518) scale(3.50243)"><stop offset="0" stop-color="#a28f6b"/><stop offset="1" stop-color="#795e2b"/></linearGradient><linearGradient id="_Linear5" x1="0" y1="0" x2="1" y2="0" gradientUnits="userSpaceOnUse" gradientTransform="rotate(155.408 47.201 68.518) scale(3.50243)"><stop offset="0" stop-color="#a28f6b"/><stop offset="1" stop-color="#795e2b"/></linearGradient><linearGradient id="_Linear6" x1="0" y1="0" x2="1" y2="0" gradientUnits="userSpaceOnUse" gradientTransform="rotate(155.408 47.201 68.518) scale(3.50243)"><stop offset="0" stop-color="#a28f6b"/><stop offset="1" stop-color="#795e2b"/></linearGradient><linearGradient id="_Linear7" x1="0" y1="0" x2="1" y2="0" gradientUnits="userSpaceOnUse" gradientTransform="rotate(168.472 50.276 56.99) scale(2.40988)"><stop offset="0" stop-color="#a28f6b"/><stop offset="1" stop-color="#795e2b"/></linearGradient><linearGradient id="_Linear8" x1="0" y1="0" x2="1" y2="0" gradientUnits="userSpaceOnUse" gradientTransform="rotate(168.472 50.276 56.99) scale(2.40988)"><stop offset="0" stop-color="#a28f6b"/><stop offset="1" stop-color="#795e2b"/></linearGradient><linearGradient id="_Linear9" x1="0" y1="0" x2="1" y2="0" gradientUnits="userSpaceOnUse" gradientTransform="rotate(168.472 50.276 56.99) scale(2.40988)"><stop offset="0" stop-color="#a28f6b"/><stop offset="1" stop-color="#795e2b"/></linearGradient><linearGradient id="_Linear10" x1="0" y1="0" x2="1" y2="0" gradientUnits="userSpaceOnUse" gradientTransform="scale(-2.65567) rotate(-22.45 -129.719 94.18)"><stop offset="0" stop-color="#a28f6b"/><stop offset="1" stop-color="#795e2b"/></linearGradient><linearGradient id="_Linear11" x1="0" y1="0" x2="1" y2="0" gradientUnits="userSpaceOnUse" gradientTransform="scale(-2.65567) rotate(-22.45 -129.719 94.18)"><stop offset="0" stop-color="#a28f6b"/><stop offset="1" stop-color="#795e2b"/></linearGradient><linearGradient id="_Linear12" x1="0" y1="0" x2="1" y2="0" gradientUnits="userSpaceOnUse" gradientTransform="scale(-2.65567) rotate(-22.45 -129.719 94.18)"><stop offset="0" stop-color="#a28f6b"/><stop offset="1" stop-color="#795e2b"/></linearGradient><linearGradient id="_Linear13" x1="0" y1="0" x2="1" y2="0" gradientUnits="userSpaceOnUse" gradientTransform="rotate(90.621 -32.57 99.143) scale(33.54417)"><stop offset="0" stop-color="#a28f6b"/><stop offset="1" stop-color="#795e2b"/></linearGradient><linearGradient id="_Linear14" x1="0" y1="0" x2="1" y2="0" gradientUnits="userSpaceOnUse" gradientTransform="scale(-23.24318) rotate(-89.312 -4.57 -1.4)"><stop offset="0" stop-color="#a28f6b"/><stop offset="1" stop-color="#795e2b"/></linearGradient><linearGradient id="_Linear15" x1="0" y1="0" x2="1" y2="0" gradientUnits="userSpaceOnUse" gradientTransform="scale(-42.2886) rotate(-88.139 -2.381 .072)"><stop offset="0" stop-color="#a28f6b"/><stop offset="1" stop-color="#795e2b"/></linearGradient><linearGradient id="_Linear16" x1="0" y1="0" x2="1" y2="0" gradientUnits="userSpaceOnUse" gradientTransform="rotate(85.934 -1.673 106.296) scale(37.31443)"><stop offset="0" stop-color="#a28f6b"/><stop offset=".08" stop-color="#aa8f61"/><stop offset="1" stop-color="#795e2b"/></linearGradient><linearGradient id="_Linear17" x1="0" y1="0" x2="1" y2="0" gradientUnits="userSpaceOnUse" gradientTransform="matrix(-.2143 26.8833 -26.8833 -.2143 48.806 109.726)"><stop offset="0" stop-color="#a28f6b"/><stop offset="1" stop-color="#795e2b"/></linearGradient><linearGradient id="_Linear18" x1="0" y1="0" x2="1" y2="0" gradientUnits="userSpaceOnUse" gradientTransform="rotate(88.742 -29.332 81.625) scale(27.58745)"><stop offset="0" stop-color="#a28f6b"/><stop offset="1" stop-color="#795e2b"/></linearGradient><linearGradient id="_Linear19" x1="0" y1="0" x2="1" y2="0" gradientUnits="userSpaceOnUse" gradientTransform="scale(-33.4861) rotate(-89.04 -1.977 -1.425)"><stop offset="0" stop-color="#a28f6b"/><stop offset="1" stop-color="#795e2b"/></linearGradient><linearGradient id="_Linear20" x1="0" y1="0" x2="1" y2="0" gradientUnits="userSpaceOnUse" gradientTransform="rotate(90.666 -44.683 66.676) scale(37.0811)"><stop offset="0" stop-color="#a28f6b"/><stop offset="1" stop-color="#795e2b"/></linearGradient><linearGradient id="_Linear21" x1="0" y1="0" x2="1" y2="0" gradientUnits="userSpaceOnUse" gradientTransform="scale(9.41031) rotate(-75.222 9.576 3.522)"><stop offset="0" stop-color="#a28f6b"/><stop offset="1" stop-color="#795e2b"/></linearGradient><linearGradient id="_Linear22" x1="0" y1="0" x2="1" y2="0" gradientUnits="userSpaceOnUse" gradientTransform="rotate(102.001 5.865 65.875) scale(36.37802)"><stop offset="0" stop-color="#a28f6b"/><stop offset="1" stop-color="#795e2b"/></linearGradient><linearGradient id="_Linear23" x1="0" y1="0" x2="1" y2="0" gradientUnits="userSpaceOnUse" gradientTransform="rotate(-127.029 69.884 29.832) scale(6.97307)"><stop offset="0" stop-color="#a28f6b"/><stop offset="1" stop-color="#795e2b"/></linearGradient><linearGradient id="_Linear24" x1="0" y1="0" x2="1" y2="0" gradientUnits="userSpaceOnUse" gradientTransform="rotate(162.479 41.542 69.63) scale(3.47568)"><stop offset="0" stop-color="#a28f6b"/><stop offset="1" stop-color="#795e2b"/></linearGradient><linearGradient id="_Linear25" x1="0" y1="0" x2="1" y2="0" gradientUnits="userSpaceOnUse" gradientTransform="rotate(162.479 41.542 69.63) scale(3.47568)"><stop offset="0" stop-color="#a28f6b"/><stop offset="1" stop-color="#795e2b"/></linearGradient><linearGradient id="_Linear26" x1="0" y1="0" x2="1" y2="0" gradientUnits="userSpaceOnUse" gradientTransform="rotate(162.479 41.542 69.63) scale(3.47568)"><stop offset="0" stop-color="#a28f6b"/><stop offset="1" stop-color="#795e2b"/></linearGradient><linearGradient id="_Linear27" x1="0" y1="0" x2="1" y2="0" gradientUnits="userSpaceOnUse" gradientTransform="scale(-10.804) rotate(-36.209 -24.511 7.773)"><stop offset="0" stop-color="#a28f6b"/><stop offset="1" stop-color="#795e2b"/></linearGradient><linearGradient id="_Linear28" x1="0" y1="0" x2="1" y2="0" gradientUnits="userSpaceOnUse" gradientTransform="scale(-10.804) rotate(-36.209 -24.511 7.773)"><stop offset="0" stop-color="#a28f6b"/><stop offset="1" stop-color="#795e2b"/></linearGradient><linearGradient id="_Linear29" x1="0" y1="0" x2="1" y2="0" gradientUnits="userSpaceOnUse" gradientTransform="scale(-9.74549) rotate(-38.713 -23.901 7.559)"><stop offset="0" stop-color="#a28f6b"/><stop offset="1" stop-color="#795e2b"/></linearGradient><linearGradient id="_Linear30" x1="0" y1="0" x2="1" y2="0" gradientUnits="userSpaceOnUse" gradientTransform="scale(-9.74549) rotate(-38.713 -23.901 7.559)"><stop offset="0" stop-color="#a28f6b"/><stop offset="1" stop-color="#795e2b"/></linearGradient><linearGradient id="_Linear31" x1="0" y1="0" x2="1" y2="0" gradientUnits="userSpaceOnUse" gradientTransform="rotate(135.457 22.893 77.486) scale(8.81052)"><stop offset="0" stop-color="#a28f6b"/><stop offset="1" stop-color="#795e2b"/></linearGradient><linearGradient id="_Linear32" x1="0" y1="0" x2="1" y2="0" gradientUnits="userSpaceOnUse" gradientTransform="rotate(135.457 22.893 77.486) scale(8.81052)"><stop offset="0" stop-color="#a28f6b"/><stop offset="1" stop-color="#795e2b"/></linearGradient><linearGradient id="_Linear33" x1="0" y1="0" x2="1" y2="0" gradientUnits="userSpaceOnUse" gradientTransform="rotate(139.731 26.274 68.876) scale(11.49217)"><stop offset="0" stop-color="#a28f6b"/><stop offset="1" stop-color="#795e2b"/></linearGradient><linearGradient id="_Linear34" x1="0" y1="0" x2="1" y2="0" gradientUnits="userSpaceOnUse" gradientTransform="rotate(139.731 26.274 68.876) scale(11.49217)"><stop offset="0" stop-color="#a28f6b"/><stop offset="1" stop-color="#795e2b"/></linearGradient><linearGradient id="_Linear35" x1="0" y1="0" x2="1" y2="0" gradientUnits="userSpaceOnUse" gradientTransform="scale(-3.55266) rotate(-13.944 -190.303 86.01)"><stop offset="0" stop-color="#a28f6b"/><stop offset="1" stop-color="#795e2b"/></linearGradient><linearGradient id="_Linear36" x1="0" y1="0" x2="1" y2="0" gradientUnits="userSpaceOnUse" gradientTransform="scale(-3.55266) rotate(-13.944 -190.303 86.01)"><stop offset="0" stop-color="#a28f6b"/><stop offset="1" stop-color="#795e2b"/></linearGradient><linearGradient id="_Linear37" x1="0" y1="0" x2="1" y2="0" gradientUnits="userSpaceOnUse" gradientTransform="scale(-3.55266) rotate(-13.944 -190.303 86.01)"><stop offset="0" stop-color="#a28f6b"/><stop offset="1" stop-color="#795e2b"/></linearGradient><linearGradient id="_Linear38" x1="0" y1="0" x2="1" y2="0" gradientUnits="userSpaceOnUse" gradientTransform="matrix(-.5074 32.2891 -32.2891 -.5074 17.824 64.35)"><stop offset="0" stop-color="#a28f6b"/><stop offset="1" stop-color="#795e2b"/></linearGradient><linearGradient id="_Linear39" x1="0" y1="0" x2="1" y2="0" gradientUnits="userSpaceOnUse" gradientTransform="rotate(91.04 -20.87 41.709) scale(29.80811)"><stop offset="0" stop-color="#a28f6b"/><stop offset="1" stop-color="#795e2b"/></linearGradient><linearGradient id="_Linear40" x1="0" y1="0" x2="1" y2="0" gradientUnits="userSpaceOnUse" gradientTransform="rotate(91.328 -4.93 71.555) scale(27.58821)"><stop offset="0" stop-color="#a28f6b"/><stop offset="1" stop-color="#795e2b"/></linearGradient><linearGradient id="_Linear41" x1="0" y1="0" x2="1" y2="0" gradientUnits="userSpaceOnUse" gradientTransform="matrix(-.37338 27.6214 -27.6214 -.37338 70.042 79.018)"><stop offset="0" stop-color="#a28f6b"/><stop offset="1" stop-color="#795e2b"/></linearGradient><linearGradient id="_Linear42" x1="0" y1="0" x2="1" y2="0" gradientUnits="userSpaceOnUse" gradientTransform="scale(25.83298) rotate(89.861 .908 3.018)"><stop offset="0" stop-color="#a28f6b"/><stop offset="1" stop-color="#795e2b"/></linearGradient><linearGradient id="_Linear43" x1="0" y1="0" x2="1" y2="0" gradientUnits="userSpaceOnUse" gradientTransform="rotate(89.896 25.308 79.348) scale(24.70554)"><stop offset="0" stop-color="#a28f6b"/><stop offset="1" stop-color="#795e2b"/></linearGradient><linearGradient id="_Linear44" x1="0" y1="0" x2="1" y2="0" gradientUnits="userSpaceOnUse" gradientTransform="scale(-23.8525) rotate(-88.275 -2.062 .106)"><stop offset="0" stop-color="#a28f6b"/><stop offset="1" stop-color="#795e2b"/></linearGradient><linearGradient id="_Linear45" x1="0" y1="0" x2="1" y2="0" gradientUnits="userSpaceOnUse" gradientTransform="scale(-23.8525) rotate(-88.275 -2.062 .106)"><stop offset="0" stop-color="#a28f6b"/><stop offset="1" stop-color="#795e2b"/></linearGradient><linearGradient id="_Linear46" x1="0" y1="0" x2="1" y2="0" gradientUnits="userSpaceOnUse" gradientTransform="rotate(85.374 8.588 57.23) scale(24.97354)"><stop offset="0" stop-color="#a28f6b"/><stop offset="1" stop-color="#795e2b"/></linearGradient><linearGradient id="_Linear48" x1="0" y1="0" x2="1" y2="0" gradientUnits="userSpaceOnUse" gradientTransform="rotate(57.226 27.643 55.736) scale(45.8372)"><stop offset="0" stop-color="#9d8239"/><stop offset="1" stop-color="#d4a835"/></linearGradient><linearGradient id="_Linear50" x1="0" y1="0" x2="1" y2="0" gradientUnits="userSpaceOnUse" gradientTransform="scale(35.61638) rotate(-77.364 1.318 -.36)"><stop offset="0" stop-color="#d4a835"/><stop offset="1" stop-color="#9d8239"/></linearGradient></defs></svg>