<?xml version="1.0" encoding="UTF-8" standalone="no"?>
<!DOCTYPE svg PUBLIC "-//W3C//DTD SVG 1.1//EN" "http://www.w3.org/Graphics/SVG/1.1/DTD/svg11.dtd">
<svg width="199px" height="93px" version="1.1" xmlns="http://www.w3.org/2000/svg" xmlns:xlink="http://www.w3.org/1999/xlink" xml:space="preserve" xmlns:serif="http://www.serif.com/" style="fill-rule:evenodd;clip-rule:evenodd;stroke-linejoin:round;stroke-miterlimit:2;">
    <g>
        <g>
            <path d="M179.341,57.822L177.165,57.794C177.165,57.794 174.119,49.546 181.622,41.42C182.324,41.753 183.195,42.836 183.87,43.193C183.87,43.193 176.808,47.481 179.341,57.822Z" style="fill:#3f5f48;"/>
            <path d="M179.334,58.366C179.502,58.368 179.662,58.292 179.767,58.16C179.871,58.029 179.909,57.856 179.869,57.692C177.442,47.784 184.153,43.658 184.153,43.658C184.32,43.556 184.42,43.372 184.414,43.176C184.408,42.981 184.298,42.803 184.124,42.712C183.82,42.551 183.476,42.219 183.124,41.896C182.69,41.499 182.246,41.114 181.855,40.929C181.64,40.827 181.384,40.876 181.223,41.051C173.469,49.449 176.654,57.982 176.654,57.982C176.732,58.194 176.932,58.335 177.158,58.338L179.334,58.366ZM181.722,42.12C175.713,48.893 177.119,55.663 177.566,57.255L178.657,57.269C176.896,48.923 181.245,44.544 182.943,43.192C182.761,43.039 182.575,42.869 182.389,42.699C182.163,42.491 181.938,42.282 181.722,42.12Z"/>
            <path d="M183.891,41.098C184.492,41.664 184.636,42.529 184.212,43.027C183.789,43.525 182.957,43.47 182.356,42.903C181.755,42.337 181.611,41.473 182.035,40.974C182.459,40.476 183.291,40.532 183.891,41.098Z" style="fill:#3f5f48;"/>
            <path d="M184.251,40.716C183.406,39.919 182.231,39.934 181.635,40.635C181.056,41.316 181.174,42.51 181.996,43.285C182.841,44.082 184.016,44.068 184.612,43.367C185.192,42.685 185.073,41.491 184.251,40.716ZM183.531,41.48C183.912,41.839 184.081,42.371 183.813,42.687C183.56,42.984 183.074,42.859 182.716,42.522C182.335,42.163 182.166,41.63 182.435,41.314C182.687,41.017 183.173,41.142 183.531,41.48Z"/>
            <path d="M173.504,58.261C172.135,58.122 170.744,59.652 166.978,60.503C159.543,62.183 155.004,53.539 155.004,53.539C158.077,54.154 158.347,55.406 160.691,55.805C162.057,56.038 164.665,56.392 165.398,55.708C161.489,52.907 157.566,47.634 161.57,43.154C161.57,43.154 160.742,46.148 163.25,48.066C165.039,49.434 166.217,49.874 171.166,54.767C168.809,46.491 173.08,48.759 176.962,41.53C175.593,47.427 174.598,51.961 177.595,55.997C177.034,47.502 183.312,50.195 189.015,46.538C184.097,51.251 183.281,53.438 183.749,57.799C187.541,56.307 186.795,55.511 190.849,55.027C192.292,54.856 195.031,55.015 198.012,53.98C191.953,57.029 194.461,58.869 187.718,60.519C188.186,61.207 190.45,62.147 191.701,62.955C194.215,64.577 196.828,63.681 197.613,64.037C197.773,64.11 192.45,67.092 188.532,66.553C184.774,66.037 182.038,61.682 182.038,61.682L173.504,58.261Z" style="fill:#4e825d;"/>
            <path d="M170.001,52.709C169.757,51.299 169.786,50.275 170.002,49.455C170.331,48.203 171.09,47.387 172.115,46.44C173.304,45.341 174.872,44.016 176.376,41.215C176.534,40.921 176.884,40.79 177.196,40.907C177.508,41.025 177.685,41.355 177.61,41.68C176.518,46.387 175.61,50.193 176.98,53.571C177.158,52.18 177.606,51.197 178.231,50.466C179.175,49.363 180.558,48.814 182.192,48.36C184.127,47.822 186.438,47.4 188.656,45.978C188.944,45.793 189.326,45.857 189.537,46.126C189.749,46.395 189.722,46.781 189.475,47.018C185.137,51.176 184.108,53.252 184.333,56.834C185.284,56.412 185.868,56.054 186.376,55.748C187.433,55.112 188.181,54.676 190.771,54.367C192.185,54.198 194.872,54.366 197.794,53.351C198.125,53.236 198.488,53.398 198.625,53.721C198.761,54.043 198.624,54.416 198.311,54.574C195.396,56.041 194.545,57.219 193.608,58.227C192.713,59.19 191.758,60.03 189.193,60.808L189.291,60.863C190.174,61.366 191.302,61.906 192.062,62.396C193.678,63.439 195.345,63.324 196.443,63.288C197.09,63.267 197.591,63.297 197.888,63.431C198.072,63.515 198.177,63.648 198.235,63.797C198.283,63.918 198.305,64.065 198.253,64.238C198.235,64.298 198.154,64.502 197.877,64.69C197.056,65.248 192.148,67.722 188.442,67.212C186.809,66.988 185.349,66.11 184.191,65.121C182.849,63.976 181.919,62.694 181.599,62.223L173.353,58.917C172.936,58.904 172.517,59.098 171.981,59.348C170.893,59.854 169.447,60.627 167.125,61.152C163.936,61.872 161.241,60.835 159.159,59.315C156.119,57.096 154.415,53.849 154.415,53.849C154.295,53.622 154.317,53.346 154.471,53.141C154.624,52.936 154.882,52.837 155.134,52.887C156.773,53.215 157.665,53.711 158.459,54.18C159.139,54.581 159.733,54.967 160.803,55.149C161.589,55.283 162.805,55.462 163.803,55.44C163.856,55.439 163.908,55.437 163.959,55.434C162.29,54.044 160.747,52.258 159.907,50.326C158.838,47.869 158.866,45.181 161.074,42.71C161.28,42.48 161.617,42.422 161.888,42.57C162.16,42.718 162.293,43.033 162.211,43.331C162.211,43.331 161.506,45.894 163.654,47.538C165.242,48.752 166.352,49.241 170.001,52.709ZM175.557,44.842C174.636,45.961 173.759,46.732 173.018,47.417C172.2,48.173 171.551,48.794 171.288,49.794C171.012,50.844 171.147,52.27 171.806,54.585C171.889,54.876 171.765,55.186 171.505,55.34C171.245,55.494 170.913,55.453 170.698,55.24C165.79,50.386 164.62,49.951 162.846,48.594C161.625,47.661 161.097,46.504 160.892,45.483C160.345,46.929 160.523,48.408 161.127,49.795C162.05,51.918 163.924,53.833 165.786,55.167C165.948,55.283 166.049,55.466 166.062,55.665C166.075,55.864 165.998,56.058 165.852,56.194C165.551,56.475 165.034,56.668 164.386,56.736C163.226,56.858 161.583,56.632 160.579,56.461C159.545,56.284 158.876,55.96 158.23,55.588C157.717,55.293 157.22,54.962 156.504,54.67C157.24,55.708 158.405,57.118 159.943,58.24C161.745,59.556 164.072,60.478 166.832,59.854C169.027,59.358 170.391,58.621 171.419,58.142C172.257,57.752 172.921,57.533 173.571,57.6C173.633,57.606 173.693,57.621 173.751,57.644L182.286,61.065C182.416,61.117 182.527,61.209 182.602,61.328C182.602,61.328 183.537,62.814 185.055,64.11C186.03,64.942 187.248,65.705 188.623,65.894C190.744,66.186 193.298,65.383 195.071,64.629C193.951,64.581 192.635,64.349 191.34,63.514C190.467,62.95 189.099,62.322 188.196,61.761C187.709,61.458 187.344,61.153 187.168,60.894C187.045,60.713 187.019,60.485 187.097,60.281C187.175,60.077 187.348,59.925 187.559,59.873C191.379,58.938 192.058,57.946 193.222,56.674C193.581,56.283 193.981,55.868 194.509,55.425C193.021,55.594 191.762,55.589 190.928,55.688C188.653,55.959 187.991,56.329 187.062,56.888C186.377,57.3 185.56,57.802 183.993,58.418C183.799,58.494 183.582,58.476 183.404,58.368C183.227,58.261 183.11,58.076 183.088,57.87C182.692,54.186 183.142,51.969 186.035,48.659C184.812,49.07 183.626,49.342 182.548,49.642C181.196,50.017 180.023,50.418 179.242,51.331C178.462,52.243 178.107,53.648 178.259,55.953C178.279,56.247 178.102,56.519 177.825,56.621C177.548,56.723 177.237,56.63 177.061,56.393C174.563,53.03 174.679,49.335 175.557,44.842Z"/>
            <path d="M169.081,88.989C167.602,90.209 165.95,89.61 165.224,88.975C162.461,86.557 163.993,81.778 163.319,78.943C162.773,76.65 160.387,71.324 160.361,68.143C160.315,62.251 164.14,54.637 171.714,56.68C173.859,57.258 175.801,58.183 177.315,59.662C179.374,59.262 181.556,59.469 183.645,60.345C190.033,63.028 191.189,69.67 187.571,76.447C186.057,79.284 180.529,82.385 178.797,84.187C177.295,85.749 176.045,90.647 172.7,91.46C171.613,91.724 169.694,90.834 169.081,88.989Z" style="fill:#b80000;"/>
            <path d="M168.843,89.81C167.261,90.694 165.63,90.053 164.866,89.385C163.368,88.073 162.995,86.136 162.944,84.129C162.899,82.318 163.119,80.455 162.79,79.069C162.238,76.751 159.843,71.363 159.817,68.148C159.768,61.942 163.878,54.003 171.856,56.154C173.998,56.732 175.942,57.647 177.49,59.078C179.568,58.728 181.757,58.963 183.855,59.844C190.552,62.656 191.844,69.599 188.051,76.703C187.418,77.89 186.123,79.131 184.668,80.302C182.603,81.964 180.218,83.494 179.189,84.564C178.458,85.325 177.8,86.904 176.905,88.386C175.911,90.033 174.64,91.549 172.828,91.988C172.297,92.117 171.601,92.039 170.912,91.733C170.119,91.38 169.333,90.73 168.843,89.81ZM169.598,88.818C169.541,88.647 169.404,88.516 169.232,88.466C169.059,88.417 168.873,88.455 168.735,88.57C167.526,89.567 166.176,89.085 165.582,88.566C164.317,87.459 164.075,85.797 164.032,84.102C163.984,82.21 164.193,80.265 163.848,78.817C163.308,76.549 160.93,71.285 160.905,68.139C160.861,62.56 164.401,55.271 171.573,57.205C173.625,57.758 175.487,58.636 176.935,60.051C177.062,60.176 177.243,60.23 177.419,60.196C179.375,59.816 181.449,60.014 183.434,60.847C189.514,63.4 190.535,69.741 187.092,76.191C186.514,77.273 185.313,78.387 183.986,79.455C181.88,81.15 179.454,82.718 178.404,83.81C177.634,84.612 176.917,86.262 175.974,87.823C175.132,89.219 174.106,90.559 172.571,90.931C172.233,91.014 171.793,90.934 171.354,90.739C170.63,90.417 169.912,89.765 169.598,88.818Z"/>
            <path d="M167.072,60.125C167.072,60.125 165.113,61.863 164.837,62.862C164.628,63.621 165.069,64.426 165.821,64.657C166.574,64.889 167.355,64.46 167.565,63.701C167.841,62.701 167.072,60.125 167.072,60.125Z" style="fill:#cbd800;"/>
            <path d="M167.52,59.992C167.475,59.839 167.354,59.719 167.2,59.676C167.047,59.632 166.882,59.67 166.762,59.776C166.762,59.776 165.768,60.657 165.074,61.541C164.742,61.963 164.482,62.392 164.387,62.738C164.11,63.739 164.692,64.799 165.684,65.104C166.69,65.414 167.735,64.841 168.016,63.825C168.111,63.481 168.109,62.974 168.044,62.432C167.909,61.296 167.52,59.992 167.52,59.992ZM166.823,61.004C166.602,61.223 166.342,61.491 166.096,61.774C165.731,62.192 165.385,62.636 165.288,62.986C165.145,63.504 165.445,64.053 165.959,64.211C166.458,64.364 166.975,64.08 167.114,63.576C167.211,63.224 167.145,62.651 167.05,62.088C166.984,61.701 166.899,61.318 166.823,61.004Z"/>
            <path d="M173.064,62.135C173.064,62.135 171.104,63.872 170.829,64.872C170.619,65.631 171.06,66.436 171.813,66.667C172.565,66.899 173.347,66.47 173.556,65.711C173.832,64.711 173.064,62.135 173.064,62.135Z" style="fill:#cbd800;"/>
            <path d="M173.512,62.001C173.466,61.848 173.345,61.729 173.192,61.686C173.038,61.642 172.873,61.679 172.753,61.785C172.753,61.785 171.76,62.667 171.065,63.551C170.734,63.973 170.473,64.402 170.378,64.747C170.102,65.749 170.683,66.809 171.675,67.114C172.682,67.424 173.727,66.851 174.007,65.835C174.102,65.491 174.1,64.984 174.036,64.442C173.9,63.306 173.512,62.001 173.512,62.001ZM172.814,63.014C172.593,63.233 172.333,63.501 172.087,63.784C171.723,64.202 171.376,64.646 171.279,64.996C171.136,65.514 171.437,66.063 171.95,66.22C172.449,66.374 172.967,66.09 173.106,65.586C173.203,65.234 173.136,64.66 173.041,64.098C172.976,63.711 172.891,63.328 172.814,63.014Z"/>
            <path d="M179.277,63.917C179.277,63.917 177.318,65.654 177.042,66.654C176.832,67.413 177.273,68.217 178.026,68.449C178.779,68.68 179.56,68.252 179.769,67.492C180.045,66.493 179.277,63.917 179.277,63.917Z" style="fill:#cbd800;"/>
            <path d="M179.725,63.783C179.679,63.63 179.559,63.511 179.405,63.467C179.251,63.423 179.086,63.461 178.967,63.567C178.967,63.567 177.973,64.449 177.279,65.333C176.947,65.755 176.687,66.183 176.591,66.529C176.315,67.53 176.896,68.591 177.888,68.896C178.895,69.205 179.94,68.632 180.22,67.617C180.315,67.272 180.314,66.765 180.249,66.224C180.113,65.087 179.725,63.783 179.725,63.783ZM179.027,64.796C178.806,65.014 178.547,65.283 178.3,65.566C177.936,65.984 177.589,66.428 177.492,66.778C177.35,67.296 177.65,67.844 178.163,68.002C178.662,68.156 179.18,67.871 179.319,67.368C179.416,67.016 179.349,66.442 179.254,65.88C179.189,65.492 179.104,65.11 179.027,64.796Z"/>
            <path d="M185.437,65.795C185.437,65.795 183.478,67.533 183.202,68.532C182.992,69.291 183.433,70.096 184.186,70.327C184.939,70.559 185.72,70.13 185.93,69.371C186.205,68.371 185.437,65.795 185.437,65.795Z" style="fill:#cbd800;"/>
            <path d="M185.885,65.662C185.839,65.509 185.719,65.389 185.565,65.346C185.412,65.302 185.246,65.34 185.127,65.445C185.127,65.445 184.133,66.327 183.439,67.211C183.107,67.633 182.847,68.062 182.751,68.408C182.475,69.409 183.056,70.469 184.049,70.774C185.055,71.084 186.1,70.511 186.38,69.495C186.475,69.151 186.474,68.644 186.409,68.102C186.273,66.966 185.885,65.662 185.885,65.662ZM185.187,66.674C184.966,66.893 184.707,67.161 184.46,67.444C184.096,67.862 183.749,68.306 183.653,68.656C183.51,69.174 183.81,69.723 184.323,69.881C184.822,70.034 185.34,69.75 185.479,69.246C185.576,68.894 185.509,68.321 185.414,67.758C185.349,67.371 185.264,66.988 185.187,66.674Z"/>
            <path d="M168.013,67.34C168.013,67.34 166.053,69.078 165.778,70.077C165.568,70.836 166.009,71.641 166.762,71.872C167.514,72.104 168.296,71.675 168.505,70.916C168.781,69.916 168.013,67.34 168.013,67.34Z" style="fill:#cbd800;"/>
            <path d="M168.461,67.207C168.415,67.054 168.294,66.935 168.141,66.891C167.987,66.847 167.822,66.885 167.702,66.991C167.702,66.991 166.709,67.872 166.014,68.756C165.683,69.178 165.422,69.607 165.327,69.953C165.051,70.954 165.632,72.014 166.624,72.319C167.631,72.629 168.676,72.056 168.956,71.04C169.051,70.696 169.049,70.189 168.985,69.647C168.849,68.511 168.461,67.207 168.461,67.207ZM167.763,68.219C167.542,68.438 167.282,68.706 167.036,68.989C166.672,69.407 166.325,69.851 166.228,70.201C166.085,70.719 166.386,71.268 166.899,71.426C167.398,71.579 167.916,71.295 168.055,70.791C168.152,70.439 168.085,69.866 167.99,69.303C167.925,68.916 167.84,68.534 167.763,68.219Z"/>
            <path d="M174.59,69.247C174.59,69.247 172.631,70.984 172.355,71.984C172.145,72.743 172.586,73.548 173.339,73.779C174.092,74.011 174.873,73.582 175.083,72.823C175.358,71.823 174.59,69.247 174.59,69.247Z" style="fill:#cbd800;"/>
            <path d="M175.038,69.114C174.992,68.96 174.872,68.841 174.718,68.798C174.564,68.754 174.399,68.791 174.28,68.897C174.28,68.897 173.286,69.779 172.592,70.663C172.26,71.085 172,71.514 171.904,71.86C171.628,72.861 172.209,73.921 173.201,74.226C174.208,74.536 175.253,73.963 175.533,72.947C175.628,72.603 175.627,72.096 175.562,71.554C175.426,70.418 175.038,69.114 175.038,69.114ZM174.34,70.126C174.119,70.345 173.86,70.613 173.613,70.896C173.249,71.314 172.902,71.758 172.806,72.108C172.663,72.626 172.963,73.175 173.476,73.332C173.975,73.486 174.493,73.202 174.632,72.698C174.729,72.346 174.662,71.773 174.567,71.21C174.502,70.823 174.417,70.44 174.34,70.126Z"/>
            <path d="M169.675,74.269C169.675,74.269 167.716,76.006 167.44,77.006C167.23,77.765 167.671,78.57 168.424,78.801C169.176,79.032 169.958,78.604 170.167,77.844C170.443,76.845 169.675,74.269 169.675,74.269Z" style="fill:#cbd800;"/>
            <path d="M170.123,74.135C170.077,73.982 169.956,73.863 169.803,73.819C169.649,73.775 169.484,73.813 169.364,73.919C169.364,73.919 168.371,74.801 167.676,75.685C167.345,76.107 167.084,76.535 166.989,76.881C166.713,77.882 167.294,78.943 168.286,79.248C169.293,79.557 170.338,78.984 170.618,77.969C170.713,77.624 170.711,77.117 170.647,76.576C170.511,75.439 170.123,74.135 170.123,74.135ZM169.425,75.148C169.204,75.366 168.944,75.635 168.698,75.918C168.334,76.336 167.987,76.78 167.89,77.13C167.747,77.648 168.048,78.196 168.561,78.354C169.06,78.508 169.578,78.223 169.717,77.72C169.814,77.368 169.747,76.794 169.652,76.232C169.587,75.844 169.502,75.462 169.425,75.148Z"/>
            <path d="M176.352,76.542C176.352,76.542 174.393,78.279 174.117,79.279C173.908,80.038 174.349,80.843 175.101,81.074C175.854,81.306 176.635,80.877 176.845,80.118C177.121,79.118 176.352,76.542 176.352,76.542Z" style="fill:#cbd800;"/>
            <path d="M176.8,76.408C176.755,76.255 176.634,76.136 176.48,76.093C176.327,76.049 176.162,76.086 176.042,76.192C176.042,76.192 175.049,77.074 174.354,77.958C174.022,78.38 173.762,78.809 173.667,79.154C173.39,80.156 173.972,81.216 174.964,81.521C175.97,81.831 177.015,81.258 177.296,80.242C177.391,79.898 177.389,79.391 177.324,78.849C177.189,77.713 176.8,76.408 176.8,76.408ZM176.103,77.421C175.882,77.64 175.622,77.908 175.376,78.191C175.011,78.609 174.665,79.053 174.568,79.403C174.425,79.921 174.726,80.47 175.239,80.627C175.738,80.781 176.255,80.497 176.394,79.993C176.491,79.641 176.425,79.068 176.33,78.505C176.264,78.118 176.179,77.735 176.103,77.421Z"/>
            <path d="M171.047,82.308C171.047,82.308 169.584,83.823 169.352,84.663C169.204,85.199 169.515,85.768 170.047,85.931C170.579,86.095 171.131,85.792 171.279,85.255C171.511,84.416 171.047,82.308 171.047,82.308Z" style="fill:#cbd800;"/>
            <path d="M171.39,82.233C171.362,82.107 171.267,82.006 171.143,81.97C171.018,81.935 170.885,81.971 170.795,82.064C170.795,82.064 170.057,82.829 169.532,83.584C169.288,83.935 169.091,84.288 169.014,84.569C168.815,85.287 169.232,86.048 169.944,86.267C170.666,86.489 171.416,86.078 171.617,85.349C171.862,84.462 171.39,82.233 171.39,82.233ZM170.833,83.066C170.677,83.247 170.499,83.461 170.328,83.684C170.044,84.056 169.774,84.453 169.69,84.756C169.592,85.111 169.798,85.487 170.15,85.596C170.491,85.701 170.846,85.506 170.941,85.162C171.025,84.857 170.999,84.369 170.948,83.892C170.917,83.6 170.875,83.311 170.833,83.066Z"/>
            <path d="M174.864,83.875C174.864,83.875 173.401,85.39 173.169,86.229C173.021,86.766 173.333,87.334 173.864,87.498C174.396,87.661 174.948,87.358 175.096,86.822C175.328,85.982 174.864,83.875 174.864,83.875Z" style="fill:#cbd800;"/>
            <path d="M175.207,83.799C175.179,83.673 175.084,83.572 174.96,83.537C174.835,83.502 174.702,83.538 174.612,83.631C174.612,83.631 173.874,84.395 173.349,85.15C173.105,85.502 172.909,85.854 172.831,86.136C172.633,86.854 173.05,87.614 173.761,87.833C174.483,88.055 175.233,87.644 175.434,86.915C175.679,86.028 175.207,83.799 175.207,83.799ZM174.651,84.632C174.494,84.813 174.316,85.027 174.145,85.251C173.861,85.623 173.591,86.019 173.508,86.323C173.41,86.678 173.616,87.054 173.967,87.162C174.309,87.267 174.663,87.073 174.758,86.728C174.842,86.424 174.816,85.935 174.766,85.459C174.735,85.166 174.692,84.877 174.651,84.632Z"/>
            <path d="M166.911,80.855C166.911,80.855 165.447,82.37 165.216,83.21C165.068,83.746 165.379,84.315 165.911,84.478C166.443,84.642 166.995,84.339 167.143,83.802C167.374,82.963 166.911,80.855 166.911,80.855Z" style="fill:#cbd800;"/>
            <path d="M167.254,80.78C167.226,80.654 167.131,80.553 167.007,80.518C166.882,80.482 166.748,80.518 166.658,80.611C166.658,80.611 165.921,81.376 165.396,82.131C165.152,82.482 164.955,82.835 164.877,83.116C164.679,83.834 165.096,84.595 165.808,84.814C166.53,85.036 167.28,84.625 167.481,83.896C167.726,83.009 167.254,80.78 167.254,80.78ZM166.697,81.613C166.541,81.794 166.362,82.008 166.192,82.231C165.908,82.603 165.638,83 165.554,83.303C165.456,83.658 165.662,84.035 166.014,84.143C166.355,84.248 166.709,84.053 166.804,83.709C166.888,83.405 166.863,82.916 166.812,82.439C166.781,82.147 166.738,81.858 166.697,81.613Z"/>
            <path d="M181.079,71.337C181.079,71.337 179.12,73.075 178.844,74.074C178.635,74.833 179.075,75.638 179.828,75.869C180.581,76.101 181.362,75.672 181.572,74.913C181.848,73.913 181.079,71.337 181.079,71.337Z" style="fill:#cbd800;"/>
            <path d="M181.527,71.204C181.481,71.051 181.361,70.931 181.207,70.888C181.054,70.844 180.888,70.882 180.769,70.987C180.769,70.987 179.775,71.869 179.081,72.753C178.749,73.175 178.489,73.604 178.393,73.95C178.117,74.951 178.699,76.011 179.691,76.316C180.697,76.626 181.742,76.053 182.022,75.037C182.117,74.693 182.116,74.186 182.051,73.644C181.916,72.508 181.527,71.204 181.527,71.204ZM180.83,72.216C180.609,72.435 180.349,72.703 180.103,72.986C179.738,73.404 179.391,73.848 179.295,74.198C179.152,74.716 179.452,75.265 179.966,75.423C180.464,75.576 180.982,75.292 181.121,74.788C181.218,74.436 181.152,73.863 181.057,73.3C180.991,72.913 180.906,72.53 180.83,72.216Z"/>
        </g>
        <g>
            <path d="M128.999,44.118L126.823,44.09C126.823,44.09 123.778,35.842 131.281,27.716C131.983,28.049 132.854,29.132 133.529,29.488C133.529,29.488 126.467,33.776 128.999,44.118Z" style="fill:#3f5f48;"/>
            <path d="M128.992,44.661C129.161,44.664 129.32,44.588 129.425,44.456C129.53,44.324 129.568,44.152 129.528,43.988C127.101,34.079 133.811,29.953 133.811,29.953C133.979,29.852 134.079,29.668 134.073,29.472C134.067,29.276 133.956,29.099 133.783,29.007C133.478,28.846 133.135,28.514 132.782,28.192C132.349,27.795 131.904,27.409 131.514,27.224C131.299,27.122 131.043,27.172 130.881,27.347C123.127,35.745 126.313,44.278 126.313,44.278C126.391,44.489 126.591,44.631 126.816,44.634L128.992,44.661ZM131.381,28.416C125.371,35.189 126.777,41.958 127.225,43.551L128.316,43.565C126.554,35.218 130.904,30.839 132.602,29.488C132.42,29.334 132.234,29.165 132.048,28.994C131.821,28.787 131.597,28.578 131.381,28.416Z"/>
            <path d="M133.55,27.394C134.151,27.96 134.295,28.824 133.871,29.323C133.447,29.821 132.616,29.766 132.015,29.199C131.414,28.633 131.27,27.768 131.694,27.27C132.117,26.772 132.949,26.827 133.55,27.394Z" style="fill:#3f5f48;"/>
            <path d="M133.91,27.012C133.065,26.215 131.89,26.229 131.294,26.93C130.715,27.612 130.833,28.806 131.655,29.581C132.5,30.378 133.675,30.364 134.271,29.663C134.85,28.981 134.732,27.787 133.91,27.012ZM133.19,27.775C133.571,28.135 133.74,28.667 133.471,28.983C133.219,29.28 132.733,29.155 132.375,28.817C131.994,28.458 131.825,27.926 132.094,27.61C132.346,27.313 132.832,27.438 133.19,27.775Z"/>
            <path d="M123.162,44.557C121.794,44.418 120.402,45.948 116.637,46.799C109.201,48.479 104.662,39.835 104.662,39.835C107.736,40.449 108.006,41.701 110.35,42.101C111.715,42.333 114.324,42.688 115.057,42.004C111.148,39.203 107.224,33.93 111.228,29.449C111.228,29.449 110.401,32.444 112.909,34.362C114.698,35.73 115.876,36.169 120.825,41.063C118.468,32.787 122.739,35.055 126.621,27.826C125.252,33.723 124.256,38.257 127.254,42.292C126.693,33.797 132.971,36.491 138.674,32.834C133.756,37.546 132.94,39.733 133.408,44.095C137.199,42.603 136.454,41.806 140.508,41.323C141.95,41.151 144.69,41.31 147.671,40.276C141.611,43.325 144.119,45.164 137.376,46.815C137.844,47.503 140.108,48.443 141.36,49.251C143.874,50.873 146.487,49.977 147.272,50.333C147.432,50.405 142.108,53.388 138.191,52.849C134.432,52.332 131.697,47.978 131.697,47.978L123.162,44.557Z" style="fill:#4e825d;"/>
            <path d="M119.659,39.005C119.416,37.595 119.444,36.571 119.66,35.751C119.99,34.499 120.749,33.683 121.773,32.736C122.963,31.637 124.531,30.311 126.034,27.511C126.192,27.217 126.543,27.086 126.855,27.203C127.167,27.321 127.344,27.651 127.268,27.976C126.176,32.683 125.269,36.489 126.639,39.867C126.817,38.476 127.264,37.493 127.89,36.762C128.834,35.659 130.217,35.11 131.851,34.656C133.786,34.118 136.097,33.696 138.315,32.274C138.603,32.089 138.984,32.153 139.196,32.422C139.408,32.691 139.381,33.077 139.134,33.314C134.796,37.471 133.767,39.548 133.992,43.13C134.942,42.708 135.527,42.349 136.034,42.044C137.092,41.407 137.84,40.971 140.429,40.663C141.843,40.494 144.53,40.661 147.452,39.647C147.783,39.532 148.147,39.694 148.283,40.016C148.42,40.339 148.283,40.712 147.97,40.87C145.055,42.336 144.203,43.515 143.267,44.523C142.372,45.486 141.416,46.326 138.852,47.103L138.949,47.159C139.833,47.662 140.961,48.201 141.72,48.692C143.337,49.735 145.003,49.62 146.102,49.584C146.748,49.563 147.249,49.592 147.546,49.727C147.73,49.81 147.835,49.943 147.894,50.093C147.941,50.214 147.964,50.361 147.911,50.534C147.893,50.593 147.813,50.797 147.536,50.986C146.715,51.544 141.807,54.018 138.1,53.508C136.468,53.284 135.007,52.406 133.849,51.417C132.507,50.271 131.578,48.989 131.257,48.518L123.011,45.213C122.595,45.199 122.176,45.394 121.639,45.644C120.552,46.15 119.106,46.923 116.783,47.448C113.595,48.168 110.9,47.13 108.817,45.611C105.778,43.392 104.073,40.144 104.073,40.144C103.954,39.917 103.976,39.642 104.13,39.437C104.283,39.231 104.541,39.133 104.793,39.183C106.432,39.51 107.324,40.007 108.118,40.476C108.798,40.877 109.391,41.263 110.461,41.445C111.248,41.579 112.463,41.758 113.462,41.735C113.514,41.734 113.566,41.733 113.617,41.73C111.949,40.34 110.405,38.554 109.565,36.622C108.497,34.164 108.525,31.476 110.732,29.006C110.938,28.776 111.276,28.717 111.547,28.865C111.818,29.013 111.952,29.329 111.87,29.627C111.87,29.627 111.165,32.19 113.313,33.833C114.901,35.048 116.011,35.537 119.659,39.005ZM125.216,31.138C124.295,32.257 123.418,33.028 122.676,33.713C121.858,34.469 121.21,35.09 120.947,36.09C120.671,37.139 120.805,38.566 121.465,40.881C121.547,41.171 121.424,41.481 121.164,41.635C120.903,41.789 120.572,41.748 120.357,41.536C115.448,36.682 114.279,36.247 112.505,34.89C111.284,33.956 110.755,32.8 110.551,31.779C110.003,33.225 110.182,34.704 110.785,36.091C111.708,38.214 113.583,40.129 115.444,41.463C115.606,41.579 115.708,41.762 115.721,41.961C115.734,42.16 115.657,42.354 115.511,42.49C115.21,42.771 114.692,42.964 114.044,43.032C112.885,43.153 111.242,42.927 110.238,42.756C109.204,42.58 108.535,42.256 107.889,41.884C107.375,41.589 106.879,41.258 106.163,40.966C106.898,42.004 108.064,43.413 109.602,44.536C111.404,45.851 113.731,46.773 116.49,46.15C118.686,45.654 120.05,44.916 121.078,44.438C121.916,44.048 122.579,43.829 123.23,43.895C123.291,43.902 123.352,43.917 123.41,43.94L131.944,47.36C132.075,47.413 132.185,47.505 132.26,47.624C132.26,47.624 133.196,49.11 134.713,50.405C135.688,51.238 136.907,52.001 138.281,52.19C140.403,52.482 142.957,51.679 144.73,50.924C143.61,50.877 142.293,50.645 140.999,49.81C140.126,49.246 138.757,48.618 137.855,48.057C137.368,47.753 137.003,47.449 136.826,47.189C136.704,47.009 136.677,46.78 136.755,46.577C136.833,46.373 137.006,46.221 137.218,46.169C141.037,45.234 141.716,44.242 142.881,42.97C143.239,42.579 143.639,42.164 144.167,41.72C142.68,41.89 141.421,41.884 140.587,41.984C138.311,42.255 137.65,42.624 136.721,43.184C136.036,43.596 135.219,44.097 133.651,44.714C133.458,44.79 133.241,44.771 133.063,44.664C132.886,44.556 132.768,44.372 132.746,44.166C132.351,40.481 132.801,38.265 135.694,34.954C134.47,35.365 133.285,35.638 132.207,35.937C130.855,36.313 129.682,36.714 128.901,37.627C128.121,38.538 127.766,39.943 127.918,42.248C127.937,42.543 127.76,42.815 127.484,42.917C127.207,43.018 126.896,42.926 126.72,42.689C124.222,39.325 124.338,35.631 125.216,31.138Z"/>
            <path d="M118.74,75.285C117.261,76.505 115.609,75.906 114.883,75.271C112.12,72.853 113.652,68.073 112.978,65.239C112.432,62.946 110.045,57.62 110.02,54.439C109.973,48.547 113.799,40.933 121.373,42.975C123.518,43.554 125.46,44.478 126.974,45.958C129.032,45.558 131.215,45.764 133.303,46.641C139.691,49.324 140.848,55.966 137.23,62.743C135.715,65.58 130.188,68.681 128.455,70.483C126.954,72.045 125.704,76.943 122.358,77.756C121.271,78.02 119.353,77.13 118.74,75.285Z" style="fill:#b80000;"/>
            <path d="M118.502,76.106C116.92,76.989 115.288,76.349 114.525,75.68C113.027,74.369 112.654,72.432 112.603,70.425C112.557,68.614 112.778,66.751 112.448,65.365C111.897,63.047 109.502,57.659 109.476,54.443C109.427,48.238 113.537,40.299 121.515,42.45C123.657,43.028 125.601,43.943 127.148,45.373C129.227,45.024 131.416,45.259 133.514,46.14C140.21,48.952 141.502,55.895 137.71,62.999C137.076,64.186 135.781,65.427 134.327,66.598C132.262,68.26 129.877,69.789 128.847,70.86C128.116,71.62 127.458,73.2 126.564,74.681C125.57,76.329 124.298,77.844 122.487,78.284C121.956,78.413 121.26,78.335 120.57,78.028C119.777,77.676 118.992,77.025 118.502,76.106ZM119.256,75.113C119.2,74.943 119.063,74.812 118.89,74.762C118.718,74.712 118.532,74.751 118.394,74.865C117.185,75.863 115.834,75.381 115.241,74.862C113.976,73.754 113.733,72.093 113.691,70.397C113.643,68.506 113.851,66.561 113.507,65.113C112.967,62.844 110.589,57.581 110.564,54.435C110.52,48.856 114.06,41.566 121.231,43.501C123.284,44.054 125.145,44.931 126.593,46.347C126.721,46.471 126.902,46.526 127.077,46.492C129.034,46.112 131.108,46.309 133.093,47.143C139.172,49.696 140.193,56.037 136.75,62.486C136.172,63.569 134.971,64.682 133.645,65.75C131.539,67.446 129.113,69.014 128.063,70.106C127.293,70.907 126.575,72.558 125.633,74.119C124.79,75.515 123.764,76.854 122.23,77.227C121.891,77.309 121.452,77.23 121.013,77.034C120.289,76.712 119.571,76.061 119.256,75.113Z"/>
            <path d="M116.731,46.421C116.731,46.421 114.772,48.158 114.496,49.158C114.286,49.917 114.727,50.722 115.48,50.953C116.233,51.185 117.014,50.756 117.224,49.997C117.499,48.997 116.731,46.421 116.731,46.421Z" style="fill:#cbd800;"/>
            <path d="M117.179,46.287C117.133,46.134 117.013,46.015 116.859,45.971C116.706,45.928 116.54,45.965 116.421,46.071C116.421,46.071 115.427,46.953 114.733,47.837C114.401,48.259 114.141,48.687 114.045,49.033C113.769,50.034 114.35,51.095 115.343,51.4C116.349,51.71 117.394,51.136 117.674,50.121C117.769,49.777 117.768,49.27 117.703,48.728C117.567,47.592 117.179,46.287 117.179,46.287ZM116.481,47.3C116.26,47.519 116.001,47.787 115.754,48.07C115.39,48.488 115.043,48.932 114.947,49.282C114.804,49.8 115.104,50.348 115.617,50.506C116.116,50.66 116.634,50.375 116.773,49.872C116.87,49.52 116.803,48.946 116.708,48.384C116.643,47.997 116.558,47.614 116.481,47.3Z"/>
            <path d="M122.722,48.431C122.722,48.431 120.763,50.168 120.487,51.168C120.278,51.927 120.719,52.732 121.471,52.963C122.224,53.194 123.005,52.766 123.215,52.006C123.491,51.007 122.722,48.431 122.722,48.431Z" style="fill:#cbd800;"/>
            <path d="M123.17,48.297C123.125,48.144 123.004,48.025 122.85,47.981C122.697,47.938 122.532,47.975 122.412,48.081C122.412,48.081 121.418,48.963 120.724,49.847C120.392,50.269 120.132,50.697 120.037,51.043C119.76,52.044 120.342,53.105 121.334,53.41C122.34,53.719 123.385,53.146 123.666,52.131C123.761,51.786 123.759,51.279 123.694,50.738C123.559,49.601 123.17,48.297 123.17,48.297ZM122.473,49.31C122.252,49.528 121.992,49.797 121.746,50.08C121.381,50.498 121.035,50.942 120.938,51.292C120.795,51.81 121.095,52.358 121.609,52.516C122.108,52.67 122.625,52.385 122.764,51.882C122.861,51.53 122.795,50.956 122.7,50.394C122.634,50.006 122.549,49.624 122.473,49.31Z"/>
            <path d="M128.936,50.213C128.936,50.213 126.976,51.95 126.701,52.949C126.491,53.709 126.932,54.513 127.685,54.745C128.437,54.976 129.219,54.548 129.428,53.788C129.704,52.789 128.936,50.213 128.936,50.213Z" style="fill:#cbd800;"/>
            <path d="M129.383,50.079C129.338,49.926 129.217,49.807 129.064,49.763C128.91,49.719 128.745,49.757 128.625,49.863C128.625,49.863 127.632,50.745 126.937,51.629C126.606,52.051 126.345,52.479 126.25,52.825C125.974,53.826 126.555,54.886 127.547,55.192C128.554,55.501 129.598,54.928 129.879,53.912C129.974,53.568 129.972,53.061 129.908,52.52C129.772,51.383 129.383,50.079 129.383,50.079ZM128.686,51.092C128.465,51.31 128.205,51.578 127.959,51.861C127.595,52.279 127.248,52.724 127.151,53.074C127.008,53.591 127.309,54.14 127.822,54.298C128.321,54.451 128.839,54.167 128.978,53.664C129.075,53.312 129.008,52.738 128.913,52.176C128.848,51.788 128.763,51.406 128.686,51.092Z"/>
            <path d="M135.096,52.091C135.096,52.091 133.136,53.828 132.861,54.828C132.651,55.587 133.092,56.392 133.845,56.623C134.597,56.855 135.379,56.426 135.588,55.666C135.864,54.667 135.096,52.091 135.096,52.091Z" style="fill:#cbd800;"/>
            <path d="M135.544,51.957C135.498,51.804 135.377,51.685 135.224,51.641C135.07,51.598 134.905,51.635 134.785,51.741C134.785,51.741 133.792,52.623 133.097,53.507C132.766,53.929 132.505,54.357 132.41,54.703C132.134,55.704 132.715,56.765 133.707,57.07C134.714,57.379 135.759,56.806 136.039,55.791C136.134,55.447 136.132,54.939 136.068,54.398C135.932,53.261 135.544,51.957 135.544,51.957ZM134.846,52.97C134.625,53.188 134.365,53.457 134.119,53.74C133.755,54.158 133.408,54.602 133.311,54.952C133.168,55.47 133.469,56.018 133.982,56.176C134.481,56.33 134.999,56.045 135.138,55.542C135.235,55.19 135.168,54.616 135.073,54.054C135.008,53.667 134.923,53.284 134.846,52.97Z"/>
            <path d="M117.671,53.636C117.671,53.636 115.712,55.373 115.436,56.373C115.227,57.132 115.668,57.937 116.42,58.168C117.173,58.4 117.954,57.971 118.164,57.212C118.44,56.212 117.671,53.636 117.671,53.636Z" style="fill:#cbd800;"/>
            <path d="M118.119,53.502C118.074,53.349 117.953,53.23 117.799,53.186C117.646,53.143 117.481,53.18 117.361,53.286C117.361,53.286 116.367,54.168 115.673,55.052C115.341,55.474 115.081,55.902 114.986,56.248C114.709,57.25 115.291,58.31 116.283,58.615C117.289,58.925 118.334,58.351 118.615,57.336C118.71,56.992 118.708,56.485 118.643,55.943C118.508,54.807 118.119,53.502 118.119,53.502ZM117.422,54.515C117.201,54.734 116.941,55.002 116.695,55.285C116.33,55.703 115.984,56.147 115.887,56.497C115.744,57.015 116.044,57.564 116.558,57.721C117.057,57.875 117.574,57.591 117.713,57.087C117.81,56.735 117.744,56.161 117.649,55.599C117.583,55.212 117.498,54.829 117.422,54.515Z"/>
            <path d="M124.249,55.543C124.249,55.543 122.289,57.28 122.014,58.28C121.804,59.039 122.245,59.844 122.998,60.075C123.75,60.306 124.532,59.878 124.741,59.118C125.017,58.119 124.249,55.543 124.249,55.543Z" style="fill:#cbd800;"/>
            <path d="M124.697,55.409C124.651,55.256 124.53,55.137 124.377,55.093C124.223,55.05 124.058,55.087 123.938,55.193C123.938,55.193 122.945,56.075 122.25,56.959C121.919,57.381 121.658,57.809 121.563,58.155C121.287,59.156 121.868,60.217 122.86,60.522C123.867,60.831 124.912,60.258 125.192,59.243C125.287,58.898 125.285,58.391 125.221,57.85C125.085,56.713 124.697,55.409 124.697,55.409ZM123.999,56.422C123.778,56.64 123.518,56.909 123.272,57.192C122.908,57.61 122.561,58.054 122.464,58.404C122.321,58.922 122.622,59.47 123.135,59.628C123.634,59.782 124.152,59.497 124.291,58.994C124.388,58.642 124.321,58.068 124.226,57.506C124.161,57.118 124.076,56.736 123.999,56.422Z"/>
            <path d="M119.333,60.565C119.333,60.565 117.374,62.302 117.098,63.301C116.889,64.061 117.33,64.865 118.082,65.097C118.835,65.328 119.616,64.9 119.826,64.14C120.102,63.141 119.333,60.565 119.333,60.565Z" style="fill:#cbd800;"/>
            <path d="M119.781,60.431C119.736,60.278 119.615,60.159 119.461,60.115C119.308,60.071 119.143,60.109 119.023,60.215C119.023,60.215 118.03,61.097 117.335,61.981C117.004,62.403 116.743,62.831 116.648,63.177C116.371,64.178 116.953,65.238 117.945,65.544C118.951,65.853 119.996,65.28 120.277,64.264C120.372,63.92 120.37,63.413 120.305,62.872C120.17,61.735 119.781,60.431 119.781,60.431ZM119.084,61.444C118.863,61.662 118.603,61.93 118.357,62.213C117.993,62.632 117.646,63.076 117.549,63.426C117.406,63.944 117.707,64.492 118.22,64.65C118.719,64.803 119.236,64.519 119.375,64.016C119.473,63.664 119.406,63.09 119.311,62.528C119.245,62.14 119.161,61.758 119.084,61.444Z"/>
            <path d="M126.011,62.838C126.011,62.838 124.052,64.575 123.776,65.575C123.566,66.334 124.007,67.139 124.76,67.37C125.513,67.601 126.294,67.173 126.504,66.413C126.779,65.414 126.011,62.838 126.011,62.838Z" style="fill:#cbd800;"/>
            <path d="M126.459,62.704C126.413,62.551 126.293,62.432 126.139,62.388C125.986,62.345 125.82,62.382 125.701,62.488C125.701,62.488 124.707,63.37 124.013,64.254C123.681,64.676 123.421,65.104 123.325,65.45C123.049,66.451 123.63,67.512 124.623,67.817C125.629,68.126 126.674,67.553 126.954,66.538C127.049,66.193 127.048,65.686 126.983,65.145C126.847,64.008 126.459,62.704 126.459,62.704ZM125.761,63.717C125.54,63.935 125.281,64.204 125.034,64.487C124.67,64.905 124.323,65.349 124.227,65.699C124.084,66.217 124.384,66.765 124.897,66.923C125.396,67.077 125.914,66.792 126.053,66.289C126.15,65.937 126.083,65.363 125.988,64.801C125.923,64.413 125.838,64.031 125.761,63.717Z"/>
            <path d="M120.706,68.604C120.706,68.604 119.242,70.119 119.011,70.959C118.863,71.495 119.174,72.063 119.706,72.227C120.238,72.39 120.789,72.088 120.938,71.551C121.169,70.712 120.706,68.604 120.706,68.604Z" style="fill:#cbd800;"/>
            <path d="M121.049,68.529C121.021,68.402 120.926,68.301 120.801,68.266C120.677,68.231 120.543,68.267 120.453,68.36C120.453,68.36 119.715,69.125 119.191,69.879C118.946,70.231 118.75,70.584 118.672,70.865C118.474,71.583 118.891,72.344 119.603,72.562C120.325,72.785 121.075,72.373 121.276,71.645C121.521,70.757 121.049,68.529 121.049,68.529ZM120.492,69.362C120.336,69.542 120.157,69.756 119.986,69.98C119.702,70.352 119.433,70.749 119.349,71.052C119.251,71.407 119.457,71.783 119.809,71.891C120.15,71.996 120.504,71.802 120.599,71.458C120.683,71.153 120.657,70.665 120.607,70.188C120.576,69.895 120.533,69.607 120.492,69.362Z"/>
            <path d="M124.523,70.17C124.523,70.17 123.06,71.685 122.828,72.525C122.68,73.061 122.991,73.63 123.523,73.793C124.055,73.957 124.607,73.654 124.755,73.117C124.986,72.278 124.523,70.17 124.523,70.17Z" style="fill:#cbd800;"/>
            <path d="M124.866,70.095C124.838,69.969 124.743,69.868 124.619,69.833C124.494,69.797 124.36,69.833 124.271,69.926C124.271,69.926 123.533,70.691 123.008,71.446C122.764,71.797 122.567,72.15 122.489,72.432C122.291,73.149 122.708,73.91 123.42,74.129C124.142,74.351 124.892,73.94 125.093,73.211C125.338,72.324 124.866,70.095 124.866,70.095ZM124.309,70.928C124.153,71.109 123.975,71.323 123.804,71.546C123.52,71.919 123.25,72.315 123.166,72.618C123.068,72.973 123.274,73.35 123.626,73.458C123.967,73.563 124.321,73.368 124.416,73.024C124.5,72.72 124.475,72.231 124.424,71.754C124.393,71.462 124.35,71.173 124.309,70.928Z"/>
            <path d="M116.57,67.151C116.57,67.151 115.106,68.666 114.874,69.506C114.726,70.042 115.038,70.61 115.57,70.774C116.101,70.938 116.653,70.635 116.801,70.098C117.033,69.259 116.57,67.151 116.57,67.151Z" style="fill:#cbd800;"/>
            <path d="M116.912,67.076C116.885,66.949 116.79,66.848 116.665,66.813C116.541,66.778 116.407,66.814 116.317,66.907C116.317,66.907 115.579,67.672 115.055,68.427C114.81,68.778 114.614,69.131 114.536,69.412C114.338,70.13 114.755,70.891 115.466,71.11C116.189,71.332 116.939,70.92 117.14,70.192C117.385,69.304 116.912,67.076 116.912,67.076ZM116.356,67.909C116.199,68.089 116.021,68.303 115.85,68.527C115.566,68.899 115.297,69.296 115.213,69.599C115.115,69.954 115.321,70.33 115.673,70.438C116.014,70.543 116.368,70.349 116.463,70.005C116.547,69.7 116.521,69.212 116.471,68.735C116.44,68.442 116.397,68.154 116.356,67.909Z"/>
            <path d="M130.738,57.633C130.738,57.633 128.779,59.37 128.503,60.37C128.293,61.129 128.734,61.934 129.487,62.165C130.24,62.397 131.021,61.968 131.23,61.208C131.506,60.209 130.738,57.633 130.738,57.633Z" style="fill:#cbd800;"/>
            <path d="M131.186,57.499C131.14,57.346 131.02,57.227 130.866,57.183C130.712,57.14 130.547,57.177 130.428,57.283C130.428,57.283 129.434,58.165 128.74,59.049C128.408,59.471 128.148,59.899 128.052,60.245C127.776,61.246 128.357,62.307 129.349,62.612C130.356,62.921 131.401,62.348 131.681,61.333C131.776,60.989 131.775,60.481 131.71,59.94C131.574,58.803 131.186,57.499 131.186,57.499ZM130.488,58.512C130.267,58.73 130.008,58.999 129.761,59.282C129.397,59.7 129.05,60.144 128.953,60.494C128.811,61.012 129.111,61.56 129.624,61.718C130.123,61.872 130.641,61.587 130.78,61.084C130.877,60.732 130.81,60.158 130.715,59.596C130.65,59.209 130.565,58.826 130.488,58.512Z"/>
        </g>
        <g>
            <path d="M77.001,30.915L74.825,30.887C74.825,30.887 71.779,22.639 79.283,14.513C79.984,14.846 80.855,15.929 81.531,16.286C81.531,16.286 74.468,20.574 77.001,30.915Z" style="fill:#3f5f48;"/>
            <path d="M76.994,31.459C77.162,31.461 77.322,31.385 77.427,31.253C77.531,31.122 77.569,30.949 77.529,30.786C75.103,20.877 81.813,16.751 81.813,16.751C81.98,16.649 82.08,16.465 82.074,16.269C82.068,16.074 81.958,15.896 81.785,15.805C81.48,15.644 81.136,15.312 80.784,14.989C80.35,14.592 79.906,14.207 79.515,14.022C79.3,13.92 79.044,13.97 78.883,14.144C71.129,22.542 74.314,31.075 74.314,31.075C74.392,31.287 74.593,31.428 74.818,31.431L76.994,31.459ZM79.383,15.214C73.373,21.986 74.779,28.756 75.226,30.348L76.317,30.362C74.556,22.016 78.905,17.637 80.603,16.285C80.422,16.132 80.235,15.962 80.049,15.792C79.823,15.585 79.598,15.375 79.383,15.214Z"/>
            <path d="M81.552,14.191C82.152,14.757 82.296,15.622 81.872,16.12C81.449,16.618 80.617,16.563 80.016,15.997C79.415,15.43 79.272,14.566 79.695,14.068C80.119,13.569 80.951,13.625 81.552,14.191Z" style="fill:#3f5f48;"/>
            <path d="M81.911,13.809C81.066,13.012 79.892,13.027 79.296,13.728C78.716,14.409 78.834,15.604 79.656,16.378C80.502,17.175 81.676,17.161 82.272,16.46C82.852,15.778 82.733,14.584 81.911,13.809ZM81.192,14.573C81.572,14.932 81.741,15.464 81.473,15.78C81.22,16.077 80.734,15.953 80.376,15.615C79.995,15.256 79.826,14.723 80.095,14.407C80.348,14.11 80.833,14.235 81.192,14.573Z"/>
            <path d="M71.164,31.354C69.796,31.215 68.404,32.746 64.638,33.596C57.203,35.276 52.664,26.633 52.664,26.633C55.737,27.247 56.008,28.499 58.351,28.898C59.717,29.131 62.326,29.485 63.058,28.801C59.15,26 55.226,20.727 59.23,16.247C59.23,16.247 58.403,19.241 60.91,21.159C62.699,22.527 63.877,22.967 68.826,27.86C66.469,19.584 70.74,21.852 74.622,14.623C73.254,20.521 72.258,25.054 75.256,29.09C74.695,20.595 80.972,23.288 86.675,19.631C81.758,24.344 80.941,26.531 81.409,30.892C85.201,29.401 84.455,28.604 88.509,28.121C89.952,27.949 92.691,28.108 95.672,27.073C89.613,30.122 92.121,31.962 85.378,33.613C85.846,34.3 88.11,35.24 89.361,36.048C91.875,37.671 94.488,36.775 95.273,37.13C95.433,37.203 90.11,40.185 86.192,39.646C82.434,39.13 79.698,34.775 79.698,34.775L71.164,31.354Z" style="fill:#4e825d;"/>
            <path d="M67.661,25.802C67.417,24.392 67.446,23.368 67.662,22.548C67.992,21.296 68.75,20.48 69.775,19.534C70.964,18.434 72.532,17.109 74.036,14.308C74.194,14.015 74.545,13.883 74.857,14.001C75.169,14.118 75.345,14.449 75.27,14.773C74.178,19.48 73.271,23.287 74.641,26.664C74.818,25.273 75.266,24.29 75.891,23.559C76.835,22.456 78.218,21.907 79.852,21.453C81.787,20.915 84.099,20.493 86.316,19.071C86.604,18.886 86.986,18.951 87.198,19.22C87.41,19.489 87.383,19.875 87.135,20.111C82.797,24.269 81.769,26.345 81.994,29.927C82.944,29.505 83.529,29.147 84.036,28.842C85.093,28.205 85.841,27.769 88.431,27.46C89.845,27.292 92.532,27.459 95.454,26.445C95.785,26.33 96.148,26.491 96.285,26.814C96.421,27.136 96.284,27.51 95.971,27.667C93.057,29.134 92.205,30.313 91.269,31.32C90.373,32.284 89.418,33.123 86.853,33.901L86.951,33.956C87.834,34.459 88.962,34.999 89.722,35.489C91.338,36.533 93.005,36.418 94.103,36.381C94.75,36.36 95.251,36.39 95.548,36.524C95.732,36.608 95.837,36.741 95.896,36.89C95.943,37.011 95.965,37.158 95.913,37.331C95.895,37.391 95.814,37.595 95.538,37.783C94.717,38.341 89.809,40.815 86.102,40.305C84.47,40.081 83.009,39.203 81.851,38.215C80.509,37.069 79.579,35.787 79.259,35.316L71.013,32.011C70.596,31.997 70.178,32.192 69.641,32.441C68.553,32.948 67.108,33.72 64.785,34.245C61.596,34.965 58.901,33.928 56.819,32.408C53.779,30.189 52.075,26.942 52.075,26.942C51.956,26.715 51.977,26.439 52.131,26.234C52.285,26.029 52.543,25.93 52.794,25.98C54.433,26.308 55.325,26.804 56.119,27.273C56.799,27.675 57.393,28.06 58.463,28.242C59.249,28.376 60.465,28.555 61.463,28.533C61.516,28.532 61.568,28.53 61.619,28.527C59.951,27.137 58.407,25.351 57.567,23.419C56.498,20.962 56.526,18.274 58.734,15.804C58.94,15.573 59.277,15.515 59.548,15.663C59.82,15.811 59.953,16.126 59.871,16.424C59.871,16.424 59.166,18.988 61.315,20.631C62.902,21.845 64.012,22.334 67.661,25.802ZM73.217,17.935C72.296,19.055 71.419,19.825 70.678,20.511C69.86,21.266 69.212,21.887 68.948,22.887C68.672,23.937 68.807,25.363 69.466,27.678C69.549,27.969 69.425,28.279 69.165,28.433C68.905,28.587 68.574,28.546 68.359,28.333C63.45,23.479 62.28,23.045 60.506,21.687C59.286,20.754 58.757,19.597 58.552,18.576C58.005,20.022 58.184,21.501 58.787,22.888C59.71,25.011 61.584,26.926 63.446,28.26C63.608,28.377 63.709,28.559 63.722,28.758C63.735,28.957 63.658,29.151 63.512,29.287C63.212,29.568 62.694,29.761 62.046,29.829C60.887,29.951 59.243,29.725 58.239,29.554C57.206,29.378 56.537,29.053 55.89,28.682C55.377,28.386 54.88,28.055 54.164,27.763C54.9,28.801 56.065,30.211 57.603,31.333C59.405,32.649 61.732,33.571 64.492,32.947C66.687,32.451 68.051,31.714 69.079,31.235C69.918,30.845 70.581,30.626 71.231,30.693C71.293,30.699 71.354,30.714 71.411,30.737L79.946,34.158C80.076,34.21 80.187,34.302 80.262,34.421C80.262,34.421 81.197,35.907 82.715,37.203C83.69,38.035 84.908,38.799 86.283,38.987C88.404,39.279 90.958,38.477 92.731,37.722C91.611,37.674 90.295,37.442 89,36.607C88.127,36.043 86.759,35.416 85.857,34.854C85.369,34.551 85.004,34.246 84.828,33.987C84.705,33.807 84.679,33.578 84.757,33.374C84.835,33.171 85.008,33.018 85.22,32.966C89.039,32.032 89.718,31.039 90.882,29.768C91.241,29.376 91.641,28.961 92.169,28.518C90.681,28.687 89.422,28.682 88.588,28.781C86.313,29.052 85.651,29.422 84.722,29.981C84.038,30.393 83.22,30.895 81.653,31.511C81.46,31.587 81.242,31.569 81.065,31.461C80.887,31.354 80.77,31.17 80.748,30.963C80.353,27.279 80.802,25.062 83.695,21.752C82.472,22.163 81.286,22.435 80.208,22.735C78.856,23.111 77.684,23.511 76.902,24.424C76.122,25.336 75.767,26.741 75.919,29.046C75.939,29.34 75.762,29.612 75.485,29.714C75.208,29.816 74.897,29.723 74.722,29.486C72.223,26.123 72.339,22.429 73.217,17.935Z"/>
            <path d="M66.741,62.082C65.263,63.302 63.61,62.704 62.884,62.068C60.121,59.65 61.653,54.871 60.979,52.036C60.434,49.743 58.047,44.417 58.022,41.236C57.975,35.344 61.8,27.73 69.374,29.773C71.52,30.351 73.461,31.276 74.975,32.755C77.034,32.356 79.217,32.562 81.305,33.439C87.693,36.121 88.849,42.763 85.232,49.54C83.717,52.377 78.189,55.478 76.457,57.28C74.955,58.842 73.706,63.74 70.36,64.553C69.273,64.817 67.354,63.927 66.741,62.082Z" style="fill:#b80000;"/>
            <path d="M66.504,62.903C64.921,63.787 63.29,63.146 62.526,62.478C61.028,61.167 60.655,59.23 60.605,57.222C60.559,55.411 60.78,53.549 60.45,52.162C59.898,49.844 57.503,44.456 57.478,41.241C57.428,35.035 61.538,27.096 69.516,29.248C71.658,29.825 73.602,30.74 75.15,32.171C77.228,31.821 79.417,32.056 81.515,32.937C88.212,35.749 89.504,42.693 85.711,49.796C85.078,50.983 83.783,52.224 82.329,53.395C80.264,55.057 77.878,56.587 76.849,57.657C76.118,58.418 75.46,59.997 74.566,61.479C73.571,63.126 72.3,64.642 70.488,65.082C69.957,65.211 69.261,65.132 68.572,64.826C67.779,64.473 66.993,63.823 66.504,62.903ZM67.258,61.911C67.201,61.741 67.064,61.609 66.892,61.56C66.719,61.51 66.534,61.548 66.395,61.663C65.187,62.66 63.836,62.178 63.243,61.659C61.977,60.552 61.735,58.89 61.692,57.195C61.644,55.303 61.853,53.358 61.508,51.91C60.969,49.642 58.591,44.378 58.566,41.232C58.521,35.654 62.061,28.364 69.233,30.298C71.285,30.851 73.147,31.729 74.595,33.144C74.723,33.269 74.903,33.323 75.079,33.289C77.035,32.909 79.11,33.107 81.094,33.94C87.174,36.493 88.195,42.834 84.752,49.284C84.174,50.367 82.973,51.48 81.646,52.548C79.54,54.243 77.114,55.812 76.065,56.903C75.294,57.705 74.577,59.355 73.634,60.917C72.792,62.312 71.766,63.652 70.232,64.024C69.893,64.107 69.453,64.027 69.014,63.832C68.29,63.51 67.572,62.858 67.258,61.911Z"/>
            <path d="M64.732,33.218C64.732,33.218 62.773,34.956 62.497,35.955C62.288,36.715 62.729,37.519 63.481,37.751C64.234,37.982 65.015,37.553 65.225,36.794C65.501,35.794 64.732,33.218 64.732,33.218Z" style="fill:#cbd800;"/>
            <path d="M65.18,33.085C65.135,32.932 65.014,32.813 64.861,32.769C64.707,32.725 64.542,32.763 64.422,32.869C64.422,32.869 63.429,33.751 62.734,34.634C62.403,35.057 62.142,35.485 62.047,35.831C61.77,36.832 62.352,37.892 63.344,38.197C64.351,38.507 65.395,37.934 65.676,36.918C65.771,36.574 65.769,36.067 65.705,35.525C65.569,34.389 65.18,33.085 65.18,33.085ZM64.483,34.098C64.262,34.316 64.002,34.584 63.756,34.867C63.392,35.285 63.045,35.729 62.948,36.08C62.805,36.597 63.106,37.146 63.619,37.304C64.118,37.457 64.636,37.173 64.774,36.67C64.872,36.317 64.805,35.744 64.71,35.181C64.644,34.794 64.56,34.412 64.483,34.098Z"/>
            <path d="M70.724,35.228C70.724,35.228 68.765,36.966 68.489,37.965C68.279,38.724 68.72,39.529 69.473,39.76C70.225,39.992 71.007,39.563 71.216,38.804C71.492,37.804 70.724,35.228 70.724,35.228Z" style="fill:#cbd800;"/>
            <path d="M71.172,35.095C71.126,34.942 71.005,34.822 70.852,34.779C70.698,34.735 70.533,34.773 70.414,34.878C70.414,34.878 69.42,35.76 68.726,36.644C68.394,37.066 68.134,37.495 68.038,37.841C67.762,38.842 68.343,39.902 69.335,40.207C70.342,40.517 71.387,39.944 71.667,38.928C71.762,38.584 71.76,38.077 71.696,37.535C71.56,36.399 71.172,35.095 71.172,35.095ZM70.474,36.107C70.253,36.326 69.994,36.594 69.747,36.877C69.383,37.295 69.036,37.739 68.939,38.089C68.796,38.607 69.097,39.156 69.61,39.314C70.109,39.467 70.627,39.183 70.766,38.679C70.863,38.327 70.796,37.754 70.701,37.191C70.636,36.804 70.551,36.421 70.474,36.107Z"/>
            <path d="M76.937,37.01C76.937,37.01 74.978,38.747 74.702,39.747C74.492,40.506 74.933,41.311 75.686,41.542C76.439,41.774 77.22,41.345 77.43,40.585C77.706,39.586 76.937,37.01 76.937,37.01Z" style="fill:#cbd800;"/>
            <path d="M77.385,36.876C77.339,36.723 77.219,36.604 77.065,36.56C76.912,36.517 76.746,36.554 76.627,36.66C76.627,36.66 75.633,37.542 74.939,38.426C74.607,38.848 74.347,39.276 74.251,39.622C73.975,40.623 74.556,41.684 75.549,41.989C76.555,42.298 77.6,41.725 77.88,40.71C77.975,40.366 77.974,39.858 77.909,39.317C77.773,38.18 77.385,36.876 77.385,36.876ZM76.687,37.889C76.466,38.107 76.207,38.376 75.96,38.659C75.596,39.077 75.249,39.521 75.153,39.871C75.01,40.389 75.31,40.937 75.823,41.095C76.322,41.249 76.84,40.964 76.979,40.461C77.076,40.109 77.009,39.535 76.914,38.973C76.849,38.585 76.764,38.203 76.687,37.889Z"/>
            <path d="M83.097,38.888C83.097,38.888 81.138,40.626 80.862,41.625C80.652,42.385 81.093,43.189 81.846,43.42C82.599,43.652 83.38,43.223 83.59,42.464C83.866,41.464 83.097,38.888 83.097,38.888Z" style="fill:#cbd800;"/>
            <path d="M83.545,38.755C83.499,38.602 83.379,38.483 83.225,38.439C83.072,38.395 82.906,38.433 82.787,38.539C82.787,38.539 81.793,39.421 81.099,40.304C80.767,40.726 80.507,41.155 80.411,41.501C80.135,42.502 80.716,43.562 81.709,43.867C82.715,44.177 83.76,43.604 84.04,42.588C84.135,42.244 84.134,41.737 84.069,41.195C83.934,40.059 83.545,38.755 83.545,38.755ZM82.848,39.767C82.626,39.986 82.367,40.254 82.121,40.537C81.756,40.955 81.409,41.399 81.313,41.75C81.17,42.267 81.47,42.816 81.984,42.974C82.482,43.127 83,42.843 83.139,42.339C83.236,41.987 83.17,41.414 83.075,40.851C83.009,40.464 82.924,40.082 82.848,39.767Z"/>
            <path d="M65.673,40.433C65.673,40.433 63.714,42.171 63.438,43.17C63.228,43.93 63.669,44.734 64.422,44.966C65.174,45.197 65.956,44.768 66.165,44.009C66.441,43.01 65.673,40.433 65.673,40.433Z" style="fill:#cbd800;"/>
            <path d="M66.121,40.3C66.075,40.147 65.954,40.028 65.801,39.984C65.647,39.94 65.482,39.978 65.363,40.084C65.363,40.084 64.369,40.966 63.675,41.85C63.343,42.272 63.083,42.7 62.987,43.046C62.711,44.047 63.292,45.107 64.284,45.412C65.291,45.722 66.336,45.149 66.616,44.133C66.711,43.789 66.709,43.282 66.645,42.74C66.509,41.604 66.121,40.3 66.121,40.3ZM65.423,41.313C65.202,41.531 64.943,41.799 64.696,42.082C64.332,42.5 63.985,42.944 63.888,43.295C63.745,43.812 64.046,44.361 64.559,44.519C65.058,44.672 65.576,44.388 65.715,43.885C65.812,43.532 65.745,42.959 65.65,42.396C65.585,42.009 65.5,41.627 65.423,41.313Z"/>
            <path d="M72.25,42.34C72.25,42.34 70.291,44.078 70.015,45.077C69.805,45.836 70.246,46.641 70.999,46.872C71.752,47.104 72.533,46.675 72.743,45.916C73.019,44.916 72.25,42.34 72.25,42.34Z" style="fill:#cbd800;"/>
            <path d="M72.698,42.207C72.652,42.054 72.532,41.934 72.378,41.891C72.225,41.847 72.059,41.885 71.94,41.991C71.94,41.991 70.946,42.872 70.252,43.756C69.92,44.178 69.66,44.607 69.564,44.953C69.288,45.954 69.869,47.014 70.862,47.319C71.868,47.629 72.913,47.056 73.193,46.04C73.288,45.696 73.287,45.189 73.222,44.647C73.086,43.511 72.698,42.207 72.698,42.207ZM72,43.219C71.779,43.438 71.52,43.706 71.273,43.989C70.909,44.407 70.562,44.851 70.466,45.201C70.323,45.719 70.623,46.268 71.136,46.426C71.635,46.579 72.153,46.295 72.292,45.791C72.389,45.439 72.322,44.866 72.228,44.303C72.162,43.916 72.077,43.533 72,43.219Z"/>
            <path d="M67.335,47.362C67.335,47.362 65.376,49.099 65.1,50.099C64.89,50.858 65.331,51.663 66.084,51.894C66.837,52.126 67.618,51.697 67.827,50.937C68.103,49.938 67.335,47.362 67.335,47.362Z" style="fill:#cbd800;"/>
            <path d="M67.783,47.228C67.737,47.075 67.617,46.956 67.463,46.912C67.309,46.869 67.144,46.906 67.025,47.012C67.025,47.012 66.031,47.894 65.337,48.778C65.005,49.2 64.745,49.628 64.649,49.974C64.373,50.975 64.954,52.036 65.946,52.341C66.953,52.65 67.998,52.077 68.278,51.062C68.373,50.718 68.372,50.21 68.307,49.669C68.171,48.532 67.783,47.228 67.783,47.228ZM67.085,48.241C66.864,48.46 66.605,48.728 66.358,49.011C65.994,49.429 65.647,49.873 65.55,50.223C65.408,50.741 65.708,51.289 66.221,51.447C66.72,51.601 67.238,51.316 67.377,50.813C67.474,50.461 67.407,49.887 67.312,49.325C67.247,48.938 67.162,48.555 67.085,48.241Z"/>
            <path d="M74.012,49.635C74.012,49.635 72.053,51.373 71.777,52.372C71.568,53.131 72.009,53.936 72.761,54.167C73.514,54.399 74.295,53.97 74.505,53.211C74.781,52.211 74.012,49.635 74.012,49.635Z" style="fill:#cbd800;"/>
            <path d="M74.46,49.502C74.415,49.349 74.294,49.229 74.141,49.186C73.987,49.142 73.822,49.18 73.702,49.285C73.702,49.285 72.709,50.167 72.014,51.051C71.683,51.473 71.422,51.902 71.327,52.248C71.05,53.249 71.632,54.309 72.624,54.614C73.631,54.924 74.675,54.351 74.956,53.335C75.051,52.991 75.049,52.484 74.985,51.942C74.849,50.806 74.46,49.502 74.46,49.502ZM73.763,50.514C73.542,50.733 73.282,51.001 73.036,51.284C72.672,51.702 72.325,52.146 72.228,52.496C72.085,53.014 72.386,53.563 72.899,53.721C73.398,53.874 73.916,53.59 74.054,53.086C74.152,52.734 74.085,52.161 73.99,51.598C73.924,51.211 73.84,50.828 73.763,50.514Z"/>
            <path d="M68.707,55.401C68.707,55.401 67.244,56.917 67.012,57.756C66.864,58.292 67.176,58.861 67.707,59.024C68.239,59.188 68.791,58.885 68.939,58.349C69.171,57.509 68.707,55.401 68.707,55.401Z" style="fill:#cbd800;"/>
            <path d="M69.05,55.326C69.022,55.2 68.927,55.099 68.803,55.064C68.678,55.028 68.545,55.064 68.455,55.158C68.455,55.158 67.717,55.922 67.192,56.677C66.948,57.028 66.751,57.381 66.674,57.663C66.476,58.381 66.892,59.141 67.604,59.36C68.326,59.582 69.076,59.171 69.277,58.442C69.522,57.555 69.05,55.326 69.05,55.326ZM68.494,56.159C68.337,56.34 68.159,56.554 67.988,56.778C67.704,57.15 67.434,57.546 67.35,57.849C67.252,58.204 67.459,58.581 67.81,58.689C68.152,58.794 68.506,58.599 68.601,58.255C68.685,57.951 68.659,57.462 68.609,56.985C68.578,56.693 68.535,56.404 68.494,56.159Z"/>
            <path d="M72.525,56.968C72.525,56.968 71.061,58.483 70.829,59.322C70.681,59.859 70.993,60.427 71.524,60.591C72.056,60.754 72.608,60.451 72.756,59.915C72.988,59.075 72.525,56.968 72.525,56.968Z" style="fill:#cbd800;"/>
            <path d="M72.867,56.892C72.84,56.766 72.745,56.665 72.62,56.63C72.496,56.595 72.362,56.631 72.272,56.724C72.272,56.724 71.534,57.488 71.009,58.243C70.765,58.595 70.569,58.947 70.491,59.229C70.293,59.947 70.71,60.707 71.421,60.926C72.144,61.148 72.893,60.737 73.095,60.008C73.34,59.121 72.867,56.892 72.867,56.892ZM72.311,57.725C72.154,57.906 71.976,58.12 71.805,58.344C71.521,58.716 71.251,59.112 71.168,59.416C71.07,59.771 71.276,60.147 71.628,60.255C71.969,60.36 72.323,60.166 72.418,59.821C72.502,59.517 72.476,59.028 72.426,58.552C72.395,58.259 72.352,57.97 72.311,57.725Z"/>
            <path d="M64.571,53.948C64.571,53.948 63.108,55.464 62.876,56.303C62.728,56.84 63.039,57.408 63.571,57.571C64.103,57.735 64.655,57.432 64.803,56.896C65.035,56.056 64.571,53.948 64.571,53.948Z" style="fill:#cbd800;"/>
            <path d="M64.914,53.873C64.886,53.747 64.791,53.646 64.667,53.611C64.542,53.575 64.409,53.612 64.319,53.705C64.319,53.705 63.581,54.469 63.056,55.224C62.812,55.575 62.615,55.928 62.538,56.21C62.339,56.928 62.756,57.688 63.468,57.907C64.19,58.129 64.94,57.718 65.141,56.989C65.386,56.102 64.914,53.873 64.914,53.873ZM64.357,54.706C64.201,54.887 64.023,55.101 63.852,55.325C63.568,55.697 63.298,56.093 63.214,56.396C63.116,56.751 63.322,57.128 63.674,57.236C64.015,57.341 64.37,57.146 64.465,56.802C64.549,56.498 64.523,56.009 64.472,55.532C64.441,55.24 64.399,54.951 64.357,54.706Z"/>
            <path d="M78.739,44.43C78.739,44.43 76.78,46.168 76.504,47.167C76.295,47.927 76.736,48.731 77.488,48.962C78.241,49.194 79.022,48.765 79.232,48.006C79.508,47.006 78.739,44.43 78.739,44.43Z" style="fill:#cbd800;"/>
            <path d="M79.187,44.297C79.142,44.144 79.021,44.025 78.867,43.981C78.714,43.937 78.549,43.975 78.429,44.081C78.429,44.081 77.436,44.963 76.741,45.846C76.41,46.268 76.149,46.697 76.054,47.043C75.777,48.044 76.359,49.104 77.351,49.409C78.357,49.719 79.402,49.146 79.683,48.13C79.778,47.786 79.776,47.279 79.711,46.737C79.576,45.601 79.187,44.297 79.187,44.297ZM78.49,45.309C78.269,45.528 78.009,45.796 77.763,46.079C77.398,46.497 77.052,46.941 76.955,47.292C76.812,47.809 77.113,48.358 77.626,48.516C78.125,48.669 78.642,48.385 78.781,47.881C78.879,47.529 78.812,46.956 78.717,46.393C78.651,46.006 78.567,45.624 78.49,45.309Z"/>
        </g>
        <g>
            <path d="M25.002,17.712L22.826,17.684C22.826,17.684 19.781,9.437 27.284,1.311C27.986,1.643 28.857,2.727 29.532,3.083C29.532,3.083 22.47,7.371 25.002,17.712Z" style="fill:#3f5f48;"/>
            <path d="M24.995,18.256C25.164,18.258 25.323,18.183 25.428,18.051C25.533,17.919 25.571,17.746 25.531,17.583C23.104,7.674 29.814,3.548 29.814,3.548C29.982,3.446 30.082,3.263 30.076,3.067C30.07,2.871 29.959,2.694 29.786,2.602C29.481,2.441 29.138,2.109 28.785,1.787C28.352,1.39 27.907,1.004 27.517,0.819C27.302,0.717 27.046,0.767 26.884,0.942C19.13,9.339 22.316,17.873 22.316,17.873C22.394,18.084 22.594,18.225 22.819,18.228L24.995,18.256ZM27.384,2.011C21.374,8.784 22.78,15.553 23.228,17.146L24.319,17.16C22.557,8.813 26.907,4.434 28.605,3.082C28.423,2.929 28.237,2.759 28.051,2.589C27.824,2.382 27.6,2.172 27.384,2.011Z"/>
            <path d="M29.553,0.988C30.154,1.555 30.298,2.419 29.874,2.917C29.45,3.416 28.619,3.36 28.018,2.794C27.417,2.228 27.273,1.363 27.697,0.865C28.12,0.367 28.952,0.422 29.553,0.988Z" style="fill:#3f5f48;"/>
            <path d="M29.913,0.607C29.068,-0.19 27.893,-0.176 27.297,0.525C26.718,1.207 26.836,2.401 27.658,3.176C28.503,3.973 29.678,3.958 30.274,3.257C30.853,2.576 30.735,1.382 29.913,0.607ZM29.193,1.37C29.574,1.729 29.743,2.262 29.474,2.578C29.222,2.875 28.736,2.75 28.378,2.412C27.997,2.053 27.828,1.521 28.097,1.205C28.349,0.908 28.835,1.033 29.193,1.37Z"/>
            <path d="M19.165,18.152C17.797,18.012 16.405,19.543 12.64,20.394C5.204,22.073 0.665,13.43 0.665,13.43C3.739,14.044 4.009,15.296 6.353,15.695C7.718,15.928 10.327,16.283 11.06,15.599C7.151,12.797 3.227,7.525 7.231,3.044C7.231,3.044 6.404,6.038 8.912,7.957C10.701,9.325 11.879,9.764 16.828,14.658C14.471,6.381 18.742,8.65 22.624,1.42C21.255,7.318 20.259,11.852 23.257,15.887C22.696,7.392 28.974,10.086 34.677,6.429C29.759,11.141 28.943,13.328 29.411,17.69C33.202,16.198 32.457,15.401 36.511,14.918C37.953,14.746 40.693,14.905 43.674,13.87C37.614,16.92 40.122,18.759 33.379,20.41C33.847,21.098 36.111,22.038 37.363,22.845C39.877,24.468 42.49,23.572 43.275,23.928C43.435,24 38.111,26.982 34.194,26.444C30.435,25.927 27.7,21.573 27.7,21.573L19.165,18.152Z" style="fill:#4e825d;"/>
            <path d="M15.662,12.6C15.419,11.19 15.447,10.166 15.663,9.346C15.993,8.093 16.752,7.278 17.776,6.331C18.966,5.232 20.534,3.906 22.037,1.106C22.195,0.812 22.546,0.68 22.858,0.798C23.17,0.916 23.347,1.246 23.271,1.571C22.179,6.278 21.272,10.084 22.642,13.462C22.82,12.07 23.267,11.088 23.893,10.357C24.837,9.253 26.22,8.704 27.854,8.25C29.789,7.713 32.1,7.291 34.318,5.869C34.606,5.684 34.987,5.748 35.199,6.017C35.411,6.286 35.384,6.672 35.137,6.909C30.799,11.066 29.77,13.142 29.995,16.725C30.945,16.302 31.53,15.944 32.037,15.639C33.095,15.002 33.843,14.566 36.432,14.257C37.846,14.089 40.533,14.256 43.455,13.242C43.786,13.127 44.15,13.289 44.286,13.611C44.423,13.934 44.286,14.307 43.973,14.464C41.058,15.931 40.206,17.11 39.27,18.118C38.375,19.081 37.419,19.921 34.855,20.698L34.952,20.754C35.836,21.256 36.964,21.796 37.723,22.287C39.34,23.33 41.006,23.215 42.105,23.179C42.751,23.158 43.252,23.187 43.549,23.322C43.733,23.405 43.838,23.538 43.897,23.688C43.944,23.809 43.967,23.956 43.914,24.129C43.896,24.188 43.816,24.392 43.539,24.58C42.718,25.139 37.81,27.612 34.103,27.103C32.471,26.878 31.01,26 29.852,25.012C28.51,23.866 27.581,22.584 27.26,22.113L19.014,18.808C18.598,18.794 18.179,18.989 17.642,19.239C16.555,19.745 15.109,20.518 12.786,21.042C9.598,21.763 6.903,20.725 4.82,19.205C1.781,16.987 0.076,13.739 0.076,13.739C-0.043,13.512 -0.021,13.237 0.133,13.032C0.286,12.826 0.544,12.727 0.796,12.778C2.435,13.105 3.327,13.602 4.121,14.07C4.801,14.472 5.394,14.857 6.464,15.04C7.251,15.174 8.466,15.353 9.465,15.33C9.517,15.329 9.569,15.327 9.62,15.325C7.952,13.935 6.408,12.148 5.568,10.216C4.5,7.759 4.528,5.071 6.735,2.601C6.941,2.371 7.279,2.312 7.55,2.46C7.821,2.608 7.955,2.923 7.873,3.221C7.873,3.221 7.168,5.785 9.316,7.428C10.904,8.643 12.014,9.132 15.662,12.6ZM21.219,4.732C20.298,5.852 19.421,6.622 18.679,7.308C17.861,8.064 17.213,8.685 16.95,9.684C16.674,10.734 16.808,12.161 17.468,14.476C17.55,14.766 17.427,15.076 17.167,15.23C16.906,15.384 16.575,15.343 16.36,15.131C11.451,10.277 10.282,9.842 8.508,8.485C7.287,7.551 6.758,6.394 6.554,5.373C6.006,6.82 6.185,8.298 6.788,9.686C7.711,11.809 9.586,13.724 11.447,15.058C11.609,15.174 11.711,15.357 11.724,15.555C11.737,15.754 11.66,15.949 11.514,16.085C11.213,16.366 10.695,16.559 10.047,16.627C8.888,16.748 7.245,16.522 6.241,16.351C5.207,16.175 4.538,15.851 3.892,15.479C3.378,15.184 2.882,14.852 2.166,14.56C2.901,15.599 4.067,17.008 5.605,18.131C7.407,19.446 9.734,20.368 12.493,19.745C14.689,19.249 16.053,18.511 17.081,18.033C17.919,17.643 18.582,17.424 19.233,17.49C19.294,17.496 19.355,17.511 19.413,17.534L27.947,20.955C28.078,21.008 28.188,21.1 28.263,21.219C28.263,21.219 29.199,22.705 30.716,24C31.691,24.833 32.91,25.596 34.284,25.785C36.406,26.076 38.96,25.274 40.733,24.519C39.613,24.472 38.296,24.24 37.002,23.404C36.129,22.841 34.76,22.213 33.858,21.651C33.371,21.348 33.006,21.043 32.829,20.784C32.707,20.604 32.68,20.375 32.758,20.172C32.836,19.968 33.009,19.816 33.221,19.764C37.04,18.829 37.719,17.836 38.884,16.565C39.242,16.174 39.642,15.758 40.17,15.315C38.683,15.484 37.424,15.479 36.59,15.579C34.314,15.85 33.653,16.219 32.724,16.779C32.039,17.191 31.222,17.692 29.654,18.309C29.461,18.385 29.244,18.366 29.066,18.259C28.889,18.151 28.771,17.967 28.749,17.761C28.354,14.076 28.804,11.86 31.697,8.549C30.473,8.96 29.288,9.233 28.21,9.532C26.858,9.908 25.685,10.308 24.904,11.221C24.124,12.133 23.769,13.538 23.921,15.843C23.94,16.138 23.763,16.41 23.487,16.511C23.21,16.613 22.899,16.521 22.723,16.284C20.225,12.92 20.341,9.226 21.219,4.732Z"/>
            <path d="M14.743,48.88C13.264,50.1 11.612,49.501 10.886,48.866C8.123,46.447 9.655,41.668 8.981,38.834C8.435,36.54 6.048,31.215 6.023,28.034C5.976,22.142 9.802,14.527 17.376,16.57C19.521,17.149 21.463,18.073 22.977,19.552C25.035,19.153 27.218,19.359 29.306,20.236C35.694,22.919 36.851,29.561 33.233,36.337C31.718,39.175 26.191,42.276 24.458,44.078C22.957,45.639 21.707,50.538 18.361,51.35C17.274,51.614 15.356,50.725 14.743,48.88Z" style="fill:#b80000;"/>
            <path d="M14.505,49.7C12.923,50.584 11.291,49.943 10.528,49.275C9.03,47.964 8.657,46.027 8.606,44.019C8.56,42.208 8.781,40.346 8.451,38.959C7.9,36.641 5.505,31.253 5.479,28.038C5.43,21.832 9.54,13.893 17.518,16.045C19.66,16.623 21.604,17.537 23.151,18.968C25.23,18.619 27.419,18.853 29.517,19.734C36.213,22.547 37.505,29.49 33.713,36.594C33.079,37.781 31.784,39.022 30.33,40.192C28.265,41.855 25.88,43.384 24.85,44.455C24.119,45.215 23.461,46.795 22.567,48.276C21.573,49.924 20.301,51.439 18.49,51.879C17.959,52.008 17.263,51.93 16.573,51.623C15.78,51.27 14.995,50.62 14.505,49.7ZM15.259,48.708C15.203,48.538 15.066,48.407 14.893,48.357C14.721,48.307 14.535,48.346 14.397,48.46C13.188,49.457 11.837,48.976 11.244,48.457C9.979,47.349 9.736,45.688 9.694,43.992C9.646,42.1 9.854,40.156 9.51,38.708C8.97,36.439 6.592,31.176 6.567,28.03C6.523,22.451 10.063,15.161 17.234,17.095C19.287,17.649 21.148,18.526 22.596,19.941C22.724,20.066 22.905,20.12 23.08,20.086C25.037,19.707 27.111,19.904 29.096,20.738C35.175,23.291 36.196,29.632 32.753,36.081C32.175,37.164 30.974,38.277 29.648,39.345C27.542,41.04 25.116,42.609 24.066,43.701C23.296,44.502 22.578,46.153 21.636,47.714C20.793,49.109 19.767,50.449 18.233,50.822C17.894,50.904 17.455,50.824 17.016,50.629C16.292,50.307 15.574,49.655 15.259,48.708Z"/>
            <path d="M12.734,20.016C12.734,20.016 10.775,21.753 10.499,22.753C10.289,23.512 10.73,24.316 11.483,24.548C12.236,24.779 13.017,24.351 13.227,23.591C13.502,22.592 12.734,20.016 12.734,20.016Z" style="fill:#cbd800;"/>
            <path d="M13.182,19.882C13.136,19.729 13.016,19.61 12.862,19.566C12.709,19.522 12.543,19.56 12.424,19.666C12.424,19.666 11.43,20.548 10.736,21.432C10.404,21.854 10.144,22.282 10.048,22.628C9.772,23.629 10.353,24.69 11.346,24.995C12.352,25.304 13.397,24.731 13.677,23.716C13.772,23.371 13.771,22.864 13.706,22.323C13.57,21.186 13.182,19.882 13.182,19.882ZM12.484,20.895C12.263,21.113 12.004,21.382 11.757,21.665C11.393,22.083 11.046,22.527 10.95,22.877C10.807,23.395 11.107,23.943 11.62,24.101C12.119,24.254 12.637,23.97 12.776,23.467C12.873,23.115 12.806,22.541 12.711,21.979C12.646,21.591 12.561,21.209 12.484,20.895Z"/>
            <path d="M18.725,22.026C18.725,22.026 16.766,23.763 16.49,24.762C16.281,25.522 16.722,26.326 17.474,26.558C18.227,26.789 19.008,26.361 19.218,25.601C19.494,24.602 18.725,22.026 18.725,22.026Z" style="fill:#cbd800;"/>
            <path d="M19.173,21.892C19.128,21.739 19.007,21.62 18.853,21.576C18.7,21.532 18.535,21.57 18.415,21.676C18.415,21.676 17.421,22.558 16.727,23.442C16.395,23.864 16.135,24.292 16.04,24.638C15.763,25.639 16.345,26.699 17.337,27.005C18.343,27.314 19.388,26.741 19.669,25.726C19.764,25.381 19.762,24.874 19.697,24.333C19.562,23.196 19.173,21.892 19.173,21.892ZM18.476,22.905C18.255,23.123 17.995,23.391 17.749,23.674C17.384,24.093 17.038,24.537 16.941,24.887C16.798,25.405 17.098,25.953 17.612,26.111C18.111,26.264 18.628,25.98 18.767,25.477C18.864,25.125 18.798,24.551 18.703,23.989C18.637,23.601 18.552,23.219 18.476,22.905Z"/>
            <path d="M24.939,23.807C24.939,23.807 22.979,25.545 22.704,26.544C22.494,27.304 22.935,28.108 23.688,28.339C24.44,28.571 25.222,28.142 25.431,27.383C25.707,26.383 24.939,23.807 24.939,23.807Z" style="fill:#cbd800;"/>
            <path d="M25.386,23.674C25.341,23.521 25.22,23.402 25.067,23.358C24.913,23.314 24.748,23.352 24.628,23.458C24.628,23.458 23.635,24.34 22.94,25.223C22.609,25.645 22.348,26.074 22.253,26.42C21.977,27.421 22.558,28.481 23.55,28.786C24.557,29.096 25.601,28.523 25.882,27.507C25.977,27.163 25.975,26.656 25.911,26.114C25.775,24.978 25.386,23.674 25.386,23.674ZM24.689,24.686C24.468,24.905 24.208,25.173 23.962,25.456C23.598,25.874 23.251,26.318 23.154,26.668C23.011,27.186 23.312,27.735 23.825,27.893C24.324,28.046 24.842,27.762 24.981,27.258C25.078,26.906 25.011,26.333 24.916,25.77C24.851,25.383 24.766,25.001 24.689,24.686Z"/>
            <path d="M31.099,25.686C31.099,25.686 29.139,27.423 28.864,28.423C28.654,29.182 29.095,29.986 29.848,30.218C30.6,30.449 31.382,30.021 31.591,29.261C31.867,28.262 31.099,25.686 31.099,25.686Z" style="fill:#cbd800;"/>
            <path d="M31.547,25.552C31.501,25.399 31.38,25.28 31.227,25.236C31.073,25.192 30.908,25.23 30.788,25.336C30.788,25.336 29.795,26.218 29.1,27.102C28.769,27.524 28.508,27.952 28.413,28.298C28.137,29.299 28.718,30.36 29.71,30.665C30.717,30.974 31.762,30.401 32.042,29.386C32.137,29.041 32.135,28.534 32.071,27.993C31.935,26.856 31.547,25.552 31.547,25.552ZM30.849,26.565C30.628,26.783 30.368,27.052 30.122,27.334C29.758,27.753 29.411,28.197 29.314,28.547C29.171,29.065 29.472,29.613 29.985,29.771C30.484,29.924 31.002,29.64 31.141,29.137C31.238,28.785 31.171,28.211 31.076,27.649C31.011,27.261 30.926,26.879 30.849,26.565Z"/>
            <path d="M13.674,27.231C13.674,27.231 11.715,28.968 11.439,29.968C11.23,30.727 11.671,31.532 12.423,31.763C13.176,31.994 13.957,31.566 14.167,30.806C14.443,29.807 13.674,27.231 13.674,27.231Z" style="fill:#cbd800;"/>
            <path d="M14.122,27.097C14.077,26.944 13.956,26.825 13.802,26.781C13.649,26.737 13.484,26.775 13.364,26.881C13.364,26.881 12.37,27.763 11.676,28.647C11.344,29.069 11.084,29.497 10.989,29.843C10.712,30.844 11.294,31.905 12.286,32.21C13.292,32.519 14.337,31.946 14.618,30.931C14.713,30.586 14.711,30.079 14.646,29.538C14.511,28.401 14.122,27.097 14.122,27.097ZM13.425,28.11C13.204,28.328 12.944,28.597 12.698,28.88C12.333,29.298 11.987,29.742 11.89,30.092C11.747,30.61 12.047,31.158 12.561,31.316C13.06,31.47 13.577,31.185 13.716,30.682C13.813,30.33 13.747,29.756 13.652,29.194C13.586,28.806 13.501,28.424 13.425,28.11Z"/>
            <path d="M20.252,29.138C20.252,29.138 18.292,30.875 18.017,31.874C17.807,32.634 18.248,33.438 19.001,33.67C19.753,33.901 20.535,33.473 20.744,32.713C21.02,31.714 20.252,29.138 20.252,29.138Z" style="fill:#cbd800;"/>
            <path d="M20.7,29.004C20.654,28.851 20.533,28.732 20.38,28.688C20.226,28.644 20.061,28.682 19.941,28.788C19.941,28.788 18.948,29.67 18.253,30.554C17.922,30.976 17.661,31.404 17.566,31.75C17.29,32.751 17.871,33.812 18.863,34.117C19.87,34.426 20.915,33.853 21.195,32.838C21.29,32.493 21.288,31.986 21.224,31.445C21.088,30.308 20.7,29.004 20.7,29.004ZM20.002,30.017C19.781,30.235 19.521,30.503 19.275,30.786C18.911,31.205 18.564,31.649 18.467,31.999C18.324,32.517 18.625,33.065 19.138,33.223C19.637,33.376 20.155,33.092 20.294,32.589C20.391,32.237 20.324,31.663 20.229,31.101C20.164,30.713 20.079,30.331 20.002,30.017Z"/>
            <path d="M15.336,34.159C15.336,34.159 13.377,35.897 13.101,36.896C12.892,37.656 13.333,38.46 14.085,38.692C14.838,38.923 15.619,38.494 15.829,37.735C16.105,36.735 15.336,34.159 15.336,34.159Z" style="fill:#cbd800;"/>
            <path d="M15.784,34.026C15.739,33.873 15.618,33.754 15.464,33.71C15.311,33.666 15.146,33.704 15.026,33.81C15.026,33.81 14.033,34.692 13.338,35.575C13.007,35.998 12.746,36.426 12.651,36.772C12.374,37.773 12.956,38.833 13.948,39.138C14.954,39.448 15.999,38.875 16.28,37.859C16.375,37.515 16.373,37.008 16.308,36.466C16.173,35.33 15.784,34.026 15.784,34.026ZM15.087,35.038C14.866,35.257 14.606,35.525 14.36,35.808C13.996,36.226 13.649,36.67 13.552,37.021C13.409,37.538 13.71,38.087 14.223,38.245C14.722,38.398 15.239,38.114 15.378,37.611C15.476,37.258 15.409,36.685 15.314,36.122C15.248,35.735 15.164,35.353 15.087,35.038Z"/>
            <path d="M22.014,36.433C22.014,36.433 20.055,38.17 19.779,39.169C19.569,39.929 20.01,40.733 20.763,40.965C21.516,41.196 22.297,40.768 22.507,40.008C22.782,39.009 22.014,36.433 22.014,36.433Z" style="fill:#cbd800;"/>
            <path d="M22.462,36.299C22.416,36.146 22.296,36.027 22.142,35.983C21.989,35.939 21.823,35.977 21.704,36.083C21.704,36.083 20.71,36.965 20.016,37.849C19.684,38.271 19.424,38.699 19.328,39.045C19.052,40.046 19.633,41.107 20.626,41.412C21.632,41.721 22.677,41.148 22.957,40.133C23.052,39.788 23.051,39.281 22.986,38.74C22.85,37.603 22.462,36.299 22.462,36.299ZM21.764,37.312C21.543,37.53 21.284,37.798 21.037,38.081C20.673,38.5 20.326,38.944 20.23,39.294C20.087,39.812 20.387,40.36 20.9,40.518C21.399,40.671 21.917,40.387 22.056,39.884C22.153,39.532 22.086,38.958 21.991,38.396C21.926,38.008 21.841,37.626 21.764,37.312Z"/>
            <path d="M16.709,42.199C16.709,42.199 15.245,43.714 15.014,44.553C14.866,45.09 15.177,45.658 15.709,45.822C16.241,45.985 16.792,45.682 16.941,45.146C17.172,44.306 16.709,42.199 16.709,42.199Z" style="fill:#cbd800;"/>
            <path d="M17.052,42.123C17.024,41.997 16.929,41.896 16.804,41.861C16.68,41.826 16.546,41.862 16.456,41.955C16.456,41.955 15.718,42.719 15.194,43.474C14.949,43.826 14.753,44.178 14.675,44.46C14.477,45.178 14.894,45.938 15.606,46.157C16.328,46.379 17.078,45.968 17.279,45.239C17.524,44.352 17.052,42.123 17.052,42.123ZM16.495,42.957C16.339,43.137 16.16,43.351 15.989,43.575C15.705,43.947 15.436,44.343 15.352,44.647C15.254,45.002 15.46,45.378 15.812,45.486C16.153,45.591 16.507,45.397 16.602,45.053C16.686,44.748 16.66,44.259 16.61,43.783C16.579,43.49 16.536,43.202 16.495,42.957Z"/>
            <path d="M20.526,43.765C20.526,43.765 19.063,45.28 18.831,46.12C18.683,46.656 18.994,47.225 19.526,47.388C20.058,47.552 20.61,47.249 20.758,46.712C20.989,45.873 20.526,43.765 20.526,43.765Z" style="fill:#cbd800;"/>
            <path d="M20.869,43.69C20.841,43.563 20.746,43.463 20.622,43.427C20.497,43.392 20.363,43.428 20.274,43.521C20.274,43.521 19.536,44.286 19.011,45.041C18.767,45.392 18.57,45.745 18.492,46.026C18.294,46.744 18.711,47.505 19.423,47.724C20.145,47.946 20.895,47.534 21.096,46.806C21.341,45.919 20.869,43.69 20.869,43.69ZM20.312,44.523C20.156,44.703 19.978,44.917 19.807,45.141C19.523,45.513 19.253,45.91 19.169,46.213C19.071,46.568 19.277,46.944 19.629,47.053C19.97,47.157 20.324,46.963 20.419,46.619C20.503,46.314 20.478,45.826 20.427,45.349C20.396,45.056 20.353,44.768 20.312,44.523Z"/>
            <path d="M12.573,40.746C12.573,40.746 11.109,42.261 10.877,43.1C10.729,43.637 11.041,44.205 11.573,44.369C12.104,44.532 12.656,44.229 12.804,43.693C13.036,42.854 12.573,40.746 12.573,40.746Z" style="fill:#cbd800;"/>
            <path d="M12.915,40.67C12.888,40.544 12.793,40.443 12.668,40.408C12.544,40.373 12.41,40.409 12.32,40.502C12.32,40.502 11.582,41.266 11.058,42.021C10.813,42.373 10.617,42.725 10.539,43.007C10.341,43.725 10.758,44.485 11.469,44.704C12.192,44.926 12.942,44.515 13.143,43.786C13.388,42.899 12.915,40.67 12.915,40.67ZM12.359,41.504C12.202,41.684 12.024,41.898 11.853,42.122C11.569,42.494 11.3,42.89 11.216,43.194C11.118,43.549 11.324,43.925 11.676,44.033C12.017,44.138 12.371,43.944 12.466,43.6C12.55,43.295 12.524,42.806 12.474,42.33C12.443,42.037 12.4,41.749 12.359,41.504Z"/>
            <path d="M26.741,31.228C26.741,31.228 24.782,32.965 24.506,33.965C24.296,34.724 24.737,35.528 25.49,35.76C26.243,35.991 27.024,35.563 27.233,34.803C27.509,33.804 26.741,31.228 26.741,31.228Z" style="fill:#cbd800;"/>
            <path d="M27.189,31.094C27.143,30.941 27.023,30.822 26.869,30.778C26.715,30.734 26.55,30.772 26.431,30.878C26.431,30.878 25.437,31.76 24.743,32.644C24.411,33.066 24.151,33.494 24.055,33.84C23.779,34.841 24.36,35.902 25.352,36.207C26.359,36.516 27.404,35.943 27.684,34.928C27.779,34.583 27.778,34.076 27.713,33.535C27.577,32.398 27.189,31.094 27.189,31.094ZM26.491,32.107C26.27,32.325 26.011,32.594 25.764,32.876C25.4,33.295 25.053,33.739 24.956,34.089C24.814,34.607 25.114,35.155 25.627,35.313C26.126,35.466 26.644,35.182 26.783,34.679C26.88,34.327 26.813,33.753 26.718,33.191C26.653,32.803 26.568,32.421 26.491,32.107Z"/>
        </g>
    </g>
</svg>
