<?xml version="1.0" encoding="UTF-8" standalone="no"?>
<!DOCTYPE svg PUBLIC "-//W3C//DTD SVG 1.1//EN" "http://www.w3.org/Graphics/SVG/1.1/DTD/svg11.dtd">
<svg width="173px" height="81px" version="1.1" xmlns="http://www.w3.org/2000/svg" xmlns:xlink="http://www.w3.org/1999/xlink" xml:space="preserve" xmlns:serif="http://www.serif.com/" style="fill-rule:evenodd;clip-rule:evenodd;stroke-linejoin:round;stroke-miterlimit:2;">
    <g transform="matrix(0.833266,0.0106209,-0.00829224,0.833295,-312.456,-1670.47)">
        <g transform="matrix(0.967376,0.253343,-0.253343,0.967376,526.422,-33.2002)">
            <text x="392.121px" y="2027.4px" style="font-family:'Noteworthy-Light', 'Noteworthy';font-weight:300;font-size:52px;">s</text>
        </g>
        <g transform="matrix(0.967376,0.253343,-0.253343,0.967376,528.378,-38.0397)">
            <text x="411.891px" y="2032.58px" style="font-family:'Noteworthy-Light', 'Noteworthy';font-weight:300;font-size:52px;">t</text>
        </g>
        <g transform="matrix(0.967376,0.253343,-0.253343,0.967376,530.07,-42.2235)">
            <text x="428.981px" y="2037.06px" style="font-family:'Noteworthy-Light', 'Noteworthy';font-weight:300;font-size:52px;">r</text>
        </g>
        <g transform="matrix(0.967376,0.253343,-0.253343,0.967376,531.422,-45.5697)">
            <text x="442.651px" y="2040.64px" style="font-family:'Noteworthy-Light', 'Noteworthy';font-weight:300;font-size:52px;">a</text>
        </g>
        <g transform="matrix(0.967376,0.253343,-0.253343,0.967376,533.761,-51.354)">
            <text x="466.279px" y="2046.83px" style="font-family:'Noteworthy-Light', 'Noteworthy';font-weight:300;font-size:52px;">w</text>
        </g>
        <g transform="matrix(0.967376,0.253343,-0.253343,0.967376,536.941,-59.2205)">
            <text x="498.414px" y="2055.24px" style="font-family:'Noteworthy-Light', 'Noteworthy';font-weight:300;font-size:52px;">b</text>
        </g>
        <g transform="matrix(0.967376,0.253343,-0.253343,0.967376,539.072,-64.4903)">
            <text x="519.941px" y="2060.88px" style="font-family:'Noteworthy-Light', 'Noteworthy';font-weight:300;font-size:52px;">e</text>
        </g>
        <g transform="matrix(0.967376,0.253343,-0.253343,0.967376,541.169,-69.6782)">
            <text x="541.133px" y="2066.43px" style="font-family:'Noteworthy-Light', 'Noteworthy';font-weight:300;font-size:52px;">r</text>
        </g>
        <g transform="matrix(0.967376,0.253343,-0.253343,0.967376,542.868,-73.8804)">
            <text x="558.299px" y="2070.92px" style="font-family:'Noteworthy-Light', 'Noteworthy';font-weight:300;font-size:52px;">r</text>
        </g>
        <g transform="matrix(0.967376,0.253343,-0.253343,0.967376,544.455,-77.8044)">
            <text x="574.329px" y="2075.12px" style="font-family:'Noteworthy-Light', 'Noteworthy';font-weight:300;font-size:52px;">y</text>
        </g>
    </g>
</svg>
