<svg width="199" height="93" xmlns="http://www.w3.org/2000/svg" fill-rule="evenodd" clip-rule="evenodd" stroke-linejoin="round" stroke-miterlimit="2"><path d="M179.341 57.822l-2.176-.028s-3.046-8.248 4.457-16.374c.702.333 1.573 1.416 2.248 1.773 0 0-7.062 4.288-4.529 14.629z" fill="#3f5f48"/><path d="M179.334 58.366a.545.545 0 00.535-.674c-2.427-9.908 4.284-14.034 4.284-14.034a.546.546 0 00-.029-.946c-.304-.161-.648-.493-1-.816-.434-.397-.878-.782-1.269-.967a.542.542 0 00-.632.122c-7.754 8.398-4.569 16.931-4.569 16.931a.544.544 0 00.504.356l2.176.028zm2.388-16.246c-6.009 6.773-4.603 13.543-4.156 15.135l1.091.014c-1.761-8.346 2.588-12.725 4.286-14.077a18.256 18.256 0 01-.554-.493c-.226-.208-.451-.417-.667-.579z"/><path d="M183.891 41.098c.601.566.745 1.431.321 1.929-.423.498-1.255.443-1.856-.124-.601-.566-.745-1.43-.321-1.929.424-.498 1.256-.442 1.856.124z" fill="#3f5f48"/><path d="M184.251 40.716c-.845-.797-2.02-.782-2.616-.081-.579.681-.461 1.875.361 2.65.845.797 2.02.783 2.616.082.58-.682.461-1.876-.361-2.651zm-.72.764c.381.359.55.891.282 1.207-.253.297-.739.172-1.097-.165-.381-.359-.55-.892-.281-1.208.252-.297.738-.172 1.096.166z"/><path d="M173.504 58.261c-1.369-.139-2.76 1.391-6.526 2.242-7.435 1.68-11.974-6.964-11.974-6.964 3.073.615 3.343 1.867 5.687 2.266 1.366.233 3.974.587 4.707-.097-3.909-2.801-7.832-8.074-3.828-12.554 0 0-.828 2.994 1.68 4.912 1.789 1.368 2.967 1.808 7.916 6.701-2.357-8.276 1.914-6.008 5.796-13.237-1.369 5.897-2.364 10.431.633 14.467-.561-8.495 5.717-5.802 11.42-9.459-4.918 4.713-5.734 6.9-5.266 11.261 3.792-1.492 3.046-2.288 7.1-2.772 1.443-.171 4.182-.012 7.163-1.047-6.059 3.049-3.551 4.889-10.294 6.539.468.688 2.732 1.628 3.983 2.436 2.514 1.622 5.127.726 5.912 1.082.16.073-5.163 3.055-9.081 2.516-3.758-.516-6.494-4.871-6.494-4.871l-8.534-3.421z" fill="#4e825d"/><path d="M170.001 52.709c-.244-1.41-.215-2.434.001-3.254.329-1.252 1.088-2.068 2.113-3.015 1.189-1.099 2.757-2.424 4.261-5.225a.665.665 0 011.234.465c-1.092 4.707-2 8.513-.63 11.891.178-1.391.626-2.374 1.251-3.105.944-1.103 2.327-1.652 3.961-2.106 1.935-.538 4.246-.96 6.464-2.382a.664.664 0 01.819 1.04c-4.338 4.158-5.367 6.234-5.142 9.816.951-.422 1.535-.78 2.043-1.086 1.057-.636 1.805-1.072 4.395-1.381 1.414-.169 4.101-.001 7.023-1.016a.666.666 0 01.517 1.223c-2.915 1.467-3.766 2.645-4.703 3.653-.895.963-1.85 1.803-4.415 2.581l.098.055c.883.503 2.011 1.043 2.771 1.533 1.616 1.043 3.283.928 4.381.892.647-.021 1.148.009 1.445.143a.646.646 0 01.347.366c.048.121.07.268.018.441-.018.06-.099.264-.376.452-.821.558-5.729 3.032-9.435 2.522-1.633-.224-3.093-1.102-4.251-2.091a15.352 15.352 0 01-2.592-2.898l-8.246-3.306c-.417-.013-.836.181-1.372.431-1.088.506-2.534 1.279-4.856 1.804-3.189.72-5.884-.317-7.966-1.837-3.04-2.219-4.744-5.466-4.744-5.466a.663.663 0 01.719-.962c1.639.328 2.531.824 3.325 1.293.68.401 1.274.787 2.344.969.786.134 2.002.313 3 .291.053-.001.105-.003.156-.006-1.669-1.39-3.212-3.176-4.052-5.108-1.069-2.457-1.041-5.145 1.167-7.616a.665.665 0 011.137.621s-.705 2.563 1.443 4.207c1.588 1.214 2.698 1.703 6.347 5.171zm5.556-7.867c-.921 1.119-1.798 1.89-2.539 2.575-.818.756-1.467 1.377-1.73 2.377-.276 1.05-.141 2.476.518 4.791a.665.665 0 01-1.108.655c-4.908-4.854-6.078-5.289-7.852-6.646a5.087 5.087 0 01-1.954-3.111c-.547 1.446-.369 2.925.235 4.312.923 2.123 2.797 4.038 4.659 5.372a.666.666 0 01.066 1.027c-.301.281-.818.474-1.466.542-1.16.122-2.803-.104-3.807-.275-1.034-.177-1.703-.501-2.349-.873-.513-.295-1.01-.626-1.726-.918.736 1.038 1.901 2.448 3.439 3.57 1.802 1.316 4.129 2.238 6.889 1.614 2.195-.496 3.559-1.233 4.587-1.712.838-.39 1.502-.609 2.152-.542a.659.659 0 01.18.044l8.535 3.421c.13.052.241.144.316.263 0 0 .935 1.486 2.453 2.782.975.832 2.193 1.595 3.568 1.784 2.121.292 4.675-.511 6.448-1.265-1.12-.048-2.436-.28-3.731-1.115-.873-.564-2.241-1.192-3.144-1.753-.487-.303-.852-.608-1.028-.867a.665.665 0 01.391-1.021c3.82-.935 4.499-1.927 5.663-3.199.359-.391.759-.806 1.287-1.249-1.488.169-2.747.164-3.581.263-2.275.271-2.937.641-3.866 1.2-.685.412-1.502.914-3.069 1.53a.665.665 0 01-.905-.548c-.396-3.684.054-5.901 2.947-9.211-1.223.411-2.409.683-3.487.983-1.352.375-2.525.776-3.306 1.689-.78.912-1.135 2.317-.983 4.622a.664.664 0 01-1.198.44c-2.498-3.363-2.382-7.058-1.504-11.551z"/><path d="M169.081 88.989c-1.479 1.22-3.131.621-3.857-.014-2.763-2.418-1.231-7.197-1.905-10.032-.546-2.293-2.932-7.619-2.958-10.8-.046-5.892 3.779-13.506 11.353-11.463 2.145.578 4.087 1.503 5.601 2.982 2.059-.4 4.241-.193 6.33.683 6.388 2.683 7.544 9.325 3.926 16.102-1.514 2.837-7.042 5.938-8.774 7.74-1.502 1.562-2.752 6.46-6.097 7.273-1.087.264-3.006-.626-3.619-2.471z" fill="#b80000"/><path d="M168.843 89.81c-1.582.884-3.213.243-3.977-.425-1.498-1.312-1.871-3.249-1.922-5.256-.045-1.811.175-3.674-.154-5.06-.552-2.318-2.947-7.706-2.973-10.921-.049-6.206 4.061-14.145 12.039-11.994 2.142.578 4.086 1.493 5.634 2.924 2.078-.35 4.267-.115 6.365.766 6.697 2.812 7.989 9.755 4.196 16.859-.633 1.187-1.928 2.428-3.383 3.599-2.065 1.662-4.45 3.192-5.479 4.262-.731.761-1.389 2.34-2.284 3.822-.994 1.647-2.265 3.163-4.077 3.602-.531.129-1.227.051-1.916-.255a4.387 4.387 0 01-2.069-1.923zm.755-.992a.546.546 0 00-.863-.248c-1.209.997-2.559.515-3.153-.004-1.265-1.107-1.507-2.769-1.55-4.464-.048-1.892.161-3.837-.184-5.285-.54-2.268-2.918-7.532-2.943-10.678-.044-5.579 3.496-12.868 10.668-10.934 2.052.553 3.914 1.431 5.362 2.846a.543.543 0 00.484.145c1.956-.38 4.03-.182 6.015.651 6.08 2.553 7.101 8.894 3.658 15.344-.578 1.082-1.779 2.196-3.106 3.264-2.106 1.695-4.532 3.263-5.582 4.355-.77.802-1.487 2.452-2.43 4.013-.842 1.396-1.868 2.736-3.403 3.108-.338.083-.778.003-1.217-.192a3.245 3.245 0 01-1.756-1.921z"/><path d="M167.072 60.125s-1.959 1.738-2.235 2.737a1.48 1.48 0 00.984 1.795 1.379 1.379 0 001.744-.956c.276-1-.493-3.576-.493-3.576z" fill="#cbd800"/><path d="M167.52 59.992a.467.467 0 00-.758-.216s-.994.881-1.688 1.765c-.332.422-.592.851-.687 1.197a1.948 1.948 0 001.297 2.366 1.844 1.844 0 002.332-1.279c.095-.344.093-.851.028-1.393-.135-1.136-.524-2.44-.524-2.44zm-.697 1.012c-.221.219-.481.487-.727.77-.365.418-.711.862-.808 1.212a1.008 1.008 0 00.671 1.225.913.913 0 001.155-.635c.097-.352.031-.925-.064-1.488-.066-.387-.151-.77-.227-1.084z"/><path d="M173.064 62.135s-1.96 1.737-2.235 2.737c-.21.759.231 1.564.984 1.795a1.378 1.378 0 001.743-.956c.276-1-.492-3.576-.492-3.576z" fill="#cbd800"/><path d="M173.512 62.001a.467.467 0 00-.759-.216s-.993.882-1.688 1.766c-.331.422-.592.851-.687 1.196a1.95 1.95 0 001.297 2.367 1.843 1.843 0 002.332-1.279c.095-.344.093-.851.029-1.393-.136-1.136-.524-2.441-.524-2.441zm-.698 1.013c-.221.219-.481.487-.727.77-.364.418-.711.862-.808 1.212a1.008 1.008 0 00.671 1.224.913.913 0 001.156-.634c.097-.352.03-.926-.065-1.488a15.28 15.28 0 00-.227-1.084z"/><path d="M179.277 63.917s-1.959 1.737-2.235 2.737c-.21.759.231 1.563.984 1.795a1.378 1.378 0 001.743-.957c.276-.999-.492-3.575-.492-3.575z" fill="#cbd800"/><path d="M179.725 63.783a.468.468 0 00-.758-.216s-.994.882-1.688 1.766c-.332.422-.592.85-.688 1.196a1.95 1.95 0 001.297 2.367 1.844 1.844 0 002.332-1.279c.095-.345.094-.852.029-1.393-.136-1.137-.524-2.441-.524-2.441zm-.698 1.013c-.221.218-.48.487-.727.77-.364.418-.711.862-.808 1.212a1.01 1.01 0 00.671 1.224.914.914 0 001.156-.634c.097-.352.03-.926-.065-1.488-.065-.388-.15-.77-.227-1.084z"/><path d="M185.437 65.795s-1.959 1.738-2.235 2.737c-.21.759.231 1.564.984 1.795a1.379 1.379 0 001.744-.956c.275-1-.493-3.576-.493-3.576z" fill="#cbd800"/><path d="M185.885 65.662a.466.466 0 00-.758-.217s-.994.882-1.688 1.766c-.332.422-.592.851-.688 1.197a1.949 1.949 0 001.298 2.366 1.842 1.842 0 002.331-1.279c.095-.344.094-.851.029-1.393-.136-1.136-.524-2.44-.524-2.44zm-.698 1.012c-.221.219-.48.487-.727.77-.364.418-.711.862-.807 1.212a1.009 1.009 0 00.67 1.225.914.914 0 001.156-.635c.097-.352.03-.925-.065-1.488a15.28 15.28 0 00-.227-1.084z"/><path d="M168.013 67.34s-1.96 1.738-2.235 2.737c-.21.759.231 1.564.984 1.795a1.378 1.378 0 001.743-.956c.276-1-.492-3.576-.492-3.576z" fill="#cbd800"/><path d="M168.461 67.207a.47.47 0 00-.759-.216s-.993.881-1.688 1.765c-.331.422-.592.851-.687 1.197a1.949 1.949 0 001.297 2.366 1.843 1.843 0 002.332-1.279c.095-.344.093-.851.029-1.393-.136-1.136-.524-2.44-.524-2.44zm-.698 1.012c-.221.219-.481.487-.727.77-.364.418-.711.862-.808 1.212a1.01 1.01 0 00.671 1.225.914.914 0 001.156-.635c.097-.352.03-.925-.065-1.488a15.4 15.4 0 00-.227-1.084z"/><path d="M174.59 69.247s-1.959 1.737-2.235 2.737c-.21.759.231 1.564.984 1.795a1.379 1.379 0 001.744-.956c.275-1-.493-3.576-.493-3.576z" fill="#cbd800"/><path d="M175.038 69.114a.464.464 0 00-.32-.316.465.465 0 00-.438.099s-.994.882-1.688 1.766c-.332.422-.592.851-.688 1.197a1.949 1.949 0 001.297 2.366 1.843 1.843 0 002.332-1.279c.095-.344.094-.851.029-1.393-.136-1.136-.524-2.44-.524-2.44zm-.698 1.012c-.221.219-.48.487-.727.77-.364.418-.711.862-.807 1.212a1.007 1.007 0 00.67 1.224.913.913 0 001.156-.634c.097-.352.03-.925-.065-1.488a15.28 15.28 0 00-.227-1.084z"/><path d="M169.675 74.269s-1.959 1.737-2.235 2.737c-.21.759.231 1.564.984 1.795a1.378 1.378 0 001.743-.957c.276-.999-.492-3.575-.492-3.575z" fill="#cbd800"/><path d="M170.123 74.135a.47.47 0 00-.759-.216s-.993.882-1.688 1.766c-.331.422-.592.85-.687 1.196a1.95 1.95 0 001.297 2.367 1.844 1.844 0 002.332-1.279c.095-.345.093-.852.029-1.393-.136-1.137-.524-2.441-.524-2.441zm-.698 1.013a14.11 14.11 0 00-.727.77c-.364.418-.711.862-.808 1.212a1.008 1.008 0 00.671 1.224.914.914 0 001.156-.634c.097-.352.03-.926-.065-1.488-.065-.388-.15-.77-.227-1.084z"/><path d="M176.352 76.542s-1.959 1.737-2.235 2.737a1.48 1.48 0 00.984 1.795 1.379 1.379 0 001.744-.956c.276-1-.493-3.576-.493-3.576z" fill="#cbd800"/><path d="M176.8 76.408a.466.466 0 00-.758-.216s-.993.882-1.688 1.766c-.332.422-.592.851-.687 1.196a1.949 1.949 0 001.297 2.367 1.844 1.844 0 002.332-1.279c.095-.344.093-.851.028-1.393-.135-1.136-.524-2.441-.524-2.441zm-.697 1.013c-.221.219-.481.487-.727.77-.365.418-.711.862-.808 1.212a1.008 1.008 0 00.671 1.224.912.912 0 001.155-.634c.097-.352.031-.925-.064-1.488-.066-.387-.151-.77-.227-1.084z"/><path d="M171.047 82.308s-1.463 1.515-1.695 2.355a1.044 1.044 0 00.695 1.268.973.973 0 001.232-.676c.232-.839-.232-2.947-.232-2.947z" fill="#cbd800"/><path d="M171.39 82.233a.351.351 0 00-.595-.169s-.738.765-1.263 1.52c-.244.351-.441.704-.518.985a1.398 1.398 0 00.93 1.698 1.323 1.323 0 001.673-.918c.245-.887-.227-3.116-.227-3.116zm-.557.833c-.156.181-.334.395-.505.618-.284.372-.554.769-.638 1.072a.692.692 0 00.46.84.626.626 0 00.791-.434c.084-.305.058-.793.007-1.27a13.324 13.324 0 00-.115-.826z"/><path d="M174.864 83.875s-1.463 1.515-1.695 2.354a1.046 1.046 0 00.695 1.269.975.975 0 001.232-.676c.232-.84-.232-2.947-.232-2.947z" fill="#cbd800"/><path d="M175.207 83.799a.352.352 0 00-.595-.168s-.738.764-1.263 1.519c-.244.352-.44.704-.518.986a1.398 1.398 0 00.93 1.697 1.323 1.323 0 001.673-.918c.245-.887-.227-3.116-.227-3.116zm-.556.833c-.157.181-.335.395-.506.619-.284.372-.554.768-.637 1.072a.691.691 0 00.459.839.625.625 0 00.791-.434c.084-.304.058-.793.008-1.269a14.05 14.05 0 00-.115-.827z"/><path d="M166.911 80.855s-1.464 1.515-1.695 2.355a1.044 1.044 0 00.695 1.268.973.973 0 001.232-.676c.231-.839-.232-2.947-.232-2.947z" fill="#cbd800"/><path d="M167.254 80.78a.352.352 0 00-.596-.169s-.737.765-1.262 1.52c-.244.351-.441.704-.519.985a1.399 1.399 0 00.931 1.698 1.323 1.323 0 001.673-.918c.245-.887-.227-3.116-.227-3.116zm-.557.833c-.156.181-.335.395-.505.618-.284.372-.554.769-.638 1.072a.692.692 0 00.46.84.625.625 0 00.79-.434c.084-.304.059-.793.008-1.27a14.128 14.128 0 00-.115-.826z"/><path d="M181.079 71.337s-1.959 1.738-2.235 2.737a1.479 1.479 0 00.984 1.795 1.379 1.379 0 001.744-.956c.276-1-.493-3.576-.493-3.576z" fill="#cbd800"/><path d="M181.527 71.204a.466.466 0 00-.758-.217s-.994.882-1.688 1.766c-.332.422-.592.851-.688 1.197a1.95 1.95 0 001.298 2.366 1.842 1.842 0 002.331-1.279c.095-.344.094-.851.029-1.393-.135-1.136-.524-2.44-.524-2.44zm-.697 1.012c-.221.219-.481.487-.727.77-.365.418-.712.862-.808 1.212a1.008 1.008 0 00.671 1.225.914.914 0 001.155-.635c.097-.352.031-.925-.064-1.488-.066-.387-.151-.77-.227-1.084z"/><g><path d="M128.999 44.118l-2.176-.028s-3.045-8.248 4.458-16.374c.702.333 1.573 1.416 2.248 1.772 0 0-7.062 4.288-4.53 14.63z" fill="#3f5f48"/><path d="M128.992 44.661a.543.543 0 00.536-.673c-2.427-9.909 4.283-14.035 4.283-14.035a.542.542 0 00-.028-.946c-.305-.161-.648-.493-1.001-.815-.433-.397-.878-.783-1.268-.968a.544.544 0 00-.633.123c-7.754 8.398-4.568 16.931-4.568 16.931a.545.545 0 00.503.356l2.176.027zm2.389-16.245c-6.01 6.773-4.604 13.542-4.156 15.135l1.091.014c-1.762-8.347 2.588-12.726 4.286-14.077a18.315 18.315 0 01-.554-.494c-.227-.207-.451-.416-.667-.578z"/><path d="M133.55 27.394c.601.566.745 1.43.321 1.929-.424.498-1.255.443-1.856-.124-.601-.566-.745-1.431-.321-1.929.423-.498 1.255-.443 1.856.124z" fill="#3f5f48"/><path d="M133.91 27.012c-.845-.797-2.02-.783-2.616-.082-.579.682-.461 1.876.361 2.651.845.797 2.02.783 2.616.082.579-.682.461-1.876-.361-2.651zm-.72.763c.381.36.55.892.281 1.208-.252.297-.738.172-1.096-.166-.381-.359-.55-.891-.281-1.207.252-.297.738-.172 1.096.165z"/><path d="M123.162 44.557c-1.368-.139-2.76 1.391-6.525 2.242-7.436 1.68-11.975-6.964-11.975-6.964 3.074.614 3.344 1.866 5.688 2.266 1.365.232 3.974.587 4.707-.097-3.909-2.801-7.833-8.074-3.829-12.555 0 0-.827 2.995 1.681 4.913 1.789 1.368 2.967 1.807 7.916 6.701-2.357-8.276 1.914-6.008 5.796-13.237-1.369 5.897-2.365 10.431.633 14.466-.561-8.495 5.717-5.801 11.42-9.458-4.918 4.712-5.734 6.899-5.266 11.261 3.791-1.492 3.046-2.289 7.1-2.772 1.442-.172 4.182-.013 7.163-1.047-6.06 3.049-3.552 4.888-10.295 6.539.468.688 2.732 1.628 3.984 2.436 2.514 1.622 5.127.726 5.912 1.082.16.072-5.164 3.055-9.081 2.516-3.759-.517-6.494-4.871-6.494-4.871l-8.535-3.421z" fill="#4e825d"/><path d="M119.659 39.005c-.243-1.41-.215-2.434.001-3.254.33-1.252 1.089-2.068 2.113-3.015 1.19-1.099 2.758-2.425 4.261-5.225a.666.666 0 011.234.465c-1.092 4.707-1.999 8.513-.629 11.891.178-1.391.625-2.374 1.251-3.105.944-1.103 2.327-1.652 3.961-2.106 1.935-.538 4.246-.96 6.464-2.382a.664.664 0 01.819 1.04c-4.338 4.157-5.367 6.234-5.142 9.816.95-.422 1.535-.781 2.042-1.086 1.058-.637 1.806-1.073 4.395-1.381 1.414-.169 4.101-.002 7.023-1.016a.666.666 0 01.518 1.223c-2.915 1.466-3.767 2.645-4.703 3.653-.895.963-1.851 1.803-4.415 2.58l.097.056c.884.503 2.012 1.042 2.771 1.533 1.617 1.043 3.283.928 4.382.892.646-.021 1.147.008 1.444.143a.646.646 0 01.348.366c.047.121.07.268.017.441-.018.059-.098.263-.375.452-.821.558-5.729 3.032-9.436 2.522-1.632-.224-3.093-1.102-4.251-2.091a15.418 15.418 0 01-2.592-2.899l-8.246-3.305c-.416-.014-.835.181-1.372.431-1.087.506-2.533 1.279-4.856 1.804-3.188.72-5.883-.318-7.966-1.837-3.039-2.219-4.744-5.467-4.744-5.467a.664.664 0 01.72-.961c1.639.327 2.531.824 3.325 1.293.68.401 1.273.787 2.343.969.787.134 2.002.313 3.001.29.052-.001.104-.002.155-.005-1.668-1.39-3.212-3.176-4.052-5.108-1.068-2.458-1.04-5.146 1.167-7.616a.666.666 0 011.138.621s-.705 2.563 1.443 4.206c1.588 1.215 2.698 1.704 6.346 5.172zm5.557-7.867c-.921 1.119-1.798 1.89-2.54 2.575-.818.756-1.466 1.377-1.729 2.377-.276 1.049-.142 2.476.518 4.791a.666.666 0 01-1.108.655c-4.909-4.854-6.078-5.289-7.852-6.646-1.221-.934-1.75-2.09-1.954-3.111-.548 1.446-.369 2.925.234 4.312.923 2.123 2.798 4.038 4.659 5.372a.667.667 0 01.067 1.027c-.301.281-.819.474-1.467.542-1.159.121-2.802-.105-3.806-.276-1.034-.176-1.703-.5-2.349-.872-.514-.295-1.01-.626-1.726-.918.735 1.038 1.901 2.447 3.439 3.57 1.802 1.315 4.129 2.237 6.888 1.614 2.196-.496 3.56-1.234 4.588-1.712.838-.39 1.501-.609 2.152-.543a.71.71 0 01.18.045l8.534 3.42a.67.67 0 01.316.264s.936 1.486 2.453 2.781c.975.833 2.194 1.596 3.568 1.785 2.122.292 4.676-.511 6.449-1.266-1.12-.047-2.437-.279-3.731-1.114-.873-.564-2.242-1.192-3.144-1.753-.487-.304-.852-.608-1.029-.868a.666.666 0 01.392-1.02c3.819-.935 4.498-1.927 5.663-3.199.358-.391.758-.806 1.286-1.25-1.487.17-2.746.164-3.58.264-2.276.271-2.937.64-3.866 1.2-.685.412-1.502.913-3.07 1.53a.667.667 0 01-.905-.548c-.395-3.685.055-5.901 2.948-9.212-1.224.411-2.409.684-3.487.983-1.352.376-2.525.777-3.306 1.69-.78.911-1.135 2.316-.983 4.621a.667.667 0 01-1.198.441c-2.498-3.364-2.382-7.058-1.504-11.551z"/><path d="M118.74 75.285c-1.479 1.22-3.131.621-3.857-.014-2.763-2.418-1.231-7.198-1.905-10.032-.546-2.293-2.933-7.619-2.958-10.8-.047-5.892 3.779-13.506 11.353-11.464 2.145.579 4.087 1.503 5.601 2.983 2.058-.4 4.241-.194 6.329.683 6.388 2.683 7.545 9.325 3.927 16.102-1.515 2.837-7.042 5.938-8.775 7.74-1.501 1.562-2.751 6.46-6.097 7.273-1.087.264-3.005-.626-3.618-2.471z" fill="#b80000"/><path d="M118.502 76.106c-1.582.883-3.214.243-3.977-.426-1.498-1.311-1.871-3.248-1.922-5.255-.046-1.811.175-3.674-.155-5.06-.551-2.318-2.946-7.706-2.972-10.922-.049-6.205 4.061-14.144 12.039-11.993 2.142.578 4.086 1.493 5.633 2.923 2.079-.349 4.268-.114 6.366.767 6.696 2.812 7.988 9.755 4.196 16.859-.634 1.187-1.929 2.428-3.383 3.599-2.065 1.662-4.45 3.191-5.48 4.262-.731.76-1.389 2.34-2.283 3.821-.994 1.648-2.266 3.163-4.077 3.603-.531.129-1.227.051-1.917-.256a4.383 4.383 0 01-2.068-1.922zm.754-.993a.543.543 0 00-.862-.248c-1.209.998-2.56.516-3.153-.003-1.265-1.108-1.508-2.769-1.55-4.465-.048-1.891.16-3.836-.184-5.284-.54-2.269-2.918-7.532-2.943-10.678-.044-5.579 3.496-12.869 10.667-10.934 2.053.553 3.914 1.43 5.362 2.846a.547.547 0 00.484.145c1.957-.38 4.031-.183 6.016.651 6.079 2.553 7.1 8.894 3.657 15.343-.578 1.083-1.779 2.196-3.105 3.264-2.106 1.696-4.532 3.264-5.582 4.356-.77.801-1.488 2.452-2.43 4.013-.843 1.396-1.869 2.735-3.403 3.108-.339.082-.778.003-1.217-.193a3.247 3.247 0 01-1.757-1.921z"/><path d="M116.731 46.421s-1.959 1.737-2.235 2.737c-.21.759.231 1.564.984 1.795a1.379 1.379 0 001.744-.956c.275-1-.493-3.576-.493-3.576z" fill="#cbd800"/><path d="M117.179 46.287a.468.468 0 00-.758-.216s-.994.882-1.688 1.766c-.332.422-.592.85-.688 1.196a1.95 1.95 0 001.298 2.367 1.843 1.843 0 002.331-1.279c.095-.344.094-.851.029-1.393-.136-1.136-.524-2.441-.524-2.441zm-.698 1.013c-.221.219-.48.487-.727.77-.364.418-.711.862-.807 1.212a1.008 1.008 0 00.67 1.224.914.914 0 001.156-.634c.097-.352.03-.926-.065-1.488a15.28 15.28 0 00-.227-1.084z"/><path d="M122.722 48.431s-1.959 1.737-2.235 2.737a1.48 1.48 0 00.984 1.795 1.38 1.38 0 001.744-.957c.276-.999-.493-3.575-.493-3.575z" fill="#cbd800"/><path d="M123.17 48.297a.466.466 0 00-.758-.216s-.994.882-1.688 1.766c-.332.422-.592.85-.687 1.196a1.95 1.95 0 001.297 2.367 1.845 1.845 0 002.332-1.279c.095-.345.093-.852.028-1.393-.135-1.137-.524-2.441-.524-2.441zm-.697 1.013a14.11 14.11 0 00-.727.77c-.365.418-.711.862-.808 1.212a1.007 1.007 0 00.671 1.224.913.913 0 001.155-.634c.097-.352.031-.926-.064-1.488-.066-.388-.151-.77-.227-1.084z"/><path d="M128.936 50.213s-1.96 1.737-2.235 2.736c-.21.76.231 1.564.984 1.796a1.378 1.378 0 001.743-.957c.276-.999-.492-3.575-.492-3.575z" fill="#cbd800"/><path d="M129.383 50.079a.467.467 0 00-.758-.216s-.993.882-1.688 1.766c-.331.422-.592.85-.687 1.196a1.95 1.95 0 001.297 2.367 1.845 1.845 0 002.332-1.28c.095-.344.093-.851.029-1.392-.136-1.137-.525-2.441-.525-2.441zm-.697 1.013a14.07 14.07 0 00-.727.769c-.364.418-.711.863-.808 1.213a1.009 1.009 0 00.671 1.224.915.915 0 001.156-.634c.097-.352.03-.926-.065-1.488-.065-.388-.15-.77-.227-1.084z"/><path d="M135.096 52.091s-1.96 1.737-2.235 2.737c-.21.759.231 1.564.984 1.795a1.377 1.377 0 001.743-.957c.276-.999-.492-3.575-.492-3.575z" fill="#cbd800"/><path d="M135.544 51.957a.47.47 0 00-.759-.216s-.993.882-1.688 1.766c-.331.422-.592.85-.687 1.196a1.95 1.95 0 001.297 2.367 1.844 1.844 0 002.332-1.279c.095-.344.093-.852.029-1.393-.136-1.137-.524-2.441-.524-2.441zm-.698 1.013a14.11 14.11 0 00-.727.77c-.364.418-.711.862-.808 1.212a1.008 1.008 0 00.671 1.224.914.914 0 001.156-.634c.097-.352.03-.926-.065-1.488a15.28 15.28 0 00-.227-1.084z"/><path d="M117.671 53.636s-1.959 1.737-2.235 2.737a1.48 1.48 0 00.984 1.795 1.379 1.379 0 001.744-.956c.276-1-.493-3.576-.493-3.576z" fill="#cbd800"/><path d="M118.119 53.502a.466.466 0 00-.758-.216s-.994.882-1.688 1.766c-.332.422-.592.85-.687 1.196a1.949 1.949 0 001.297 2.367 1.844 1.844 0 002.332-1.279c.095-.344.093-.851.028-1.393-.135-1.136-.524-2.441-.524-2.441zm-.697 1.013c-.221.219-.481.487-.727.77-.365.418-.711.862-.808 1.212a1.007 1.007 0 00.671 1.224.912.912 0 001.155-.634c.097-.352.031-.926-.064-1.488-.066-.387-.151-.77-.227-1.084z"/><path d="M124.249 55.543s-1.96 1.737-2.235 2.737c-.21.759.231 1.564.984 1.795a1.378 1.378 0 001.743-.957c.276-.999-.492-3.575-.492-3.575z" fill="#cbd800"/><path d="M124.697 55.409a.47.47 0 00-.759-.216s-.993.882-1.688 1.766c-.331.422-.592.85-.687 1.196a1.95 1.95 0 001.297 2.367 1.844 1.844 0 002.332-1.279c.095-.345.093-.852.029-1.393-.136-1.137-.524-2.441-.524-2.441zm-.698 1.013a14.11 14.11 0 00-.727.77c-.364.418-.711.862-.808 1.212a1.008 1.008 0 00.671 1.224.914.914 0 001.156-.634c.097-.352.03-.926-.065-1.488-.065-.388-.15-.77-.227-1.084z"/><path d="M119.333 60.565s-1.959 1.737-2.235 2.736a1.48 1.48 0 00.984 1.796 1.38 1.38 0 001.744-.957c.276-.999-.493-3.575-.493-3.575z" fill="#cbd800"/><path d="M119.781 60.431a.466.466 0 00-.758-.216s-.993.882-1.688 1.766c-.331.422-.592.85-.687 1.196a1.95 1.95 0 001.297 2.367 1.845 1.845 0 002.332-1.28c.095-.344.093-.851.028-1.392-.135-1.137-.524-2.441-.524-2.441zm-.697 1.013a14.07 14.07 0 00-.727.769c-.364.419-.711.863-.808 1.213a1.008 1.008 0 00.671 1.224.914.914 0 001.155-.634c.098-.352.031-.926-.064-1.488-.066-.388-.15-.77-.227-1.084z"/><path d="M126.011 62.838s-1.959 1.737-2.235 2.737c-.21.759.231 1.564.984 1.795a1.38 1.38 0 001.744-.957c.275-.999-.493-3.575-.493-3.575z" fill="#cbd800"/><path d="M126.459 62.704a.468.468 0 00-.758-.216s-.994.882-1.688 1.766c-.332.422-.592.85-.688 1.196a1.95 1.95 0 001.298 2.367 1.844 1.844 0 002.331-1.279c.095-.345.094-.852.029-1.393-.136-1.137-.524-2.441-.524-2.441zm-.698 1.013c-.221.218-.48.487-.727.77-.364.418-.711.862-.807 1.212a1.008 1.008 0 00.67 1.224.914.914 0 001.156-.634c.097-.352.03-.926-.065-1.488-.065-.388-.15-.77-.227-1.084z"/><path d="M120.706 68.604s-1.464 1.515-1.695 2.355a1.045 1.045 0 00.695 1.268.975.975 0 001.232-.676c.231-.839-.232-2.947-.232-2.947z" fill="#cbd800"/><path d="M121.049 68.529a.35.35 0 00-.596-.169s-.738.765-1.262 1.519c-.245.352-.441.705-.519.986a1.397 1.397 0 00.931 1.697 1.322 1.322 0 001.673-.917c.245-.888-.227-3.116-.227-3.116zm-.557.833c-.156.18-.335.394-.506.618-.284.372-.553.769-.637 1.072a.69.69 0 00.46.839.624.624 0 00.79-.433c.084-.305.058-.793.008-1.27a14.01 14.01 0 00-.115-.826z"/><path d="M124.523 70.17s-1.463 1.515-1.695 2.355a1.044 1.044 0 00.695 1.268.973.973 0 001.232-.676c.231-.839-.232-2.947-.232-2.947z" fill="#cbd800"/><path d="M124.866 70.095a.352.352 0 00-.595-.169s-.738.765-1.263 1.52c-.244.351-.441.704-.519.986a1.398 1.398 0 00.931 1.697 1.323 1.323 0 001.673-.918c.245-.887-.227-3.116-.227-3.116zm-.557.833c-.156.181-.334.395-.505.618-.284.373-.554.769-.638 1.072a.692.692 0 00.46.84.625.625 0 00.79-.434c.084-.304.059-.793.008-1.27a14.128 14.128 0 00-.115-.826z"/><path d="M116.57 67.151s-1.464 1.515-1.696 2.355a1.045 1.045 0 00.696 1.268.973.973 0 001.231-.676c.232-.839-.231-2.947-.231-2.947z" fill="#cbd800"/><path d="M116.912 67.076a.352.352 0 00-.595-.169s-.738.765-1.262 1.52c-.245.351-.441.704-.519.985a1.4 1.4 0 00.93 1.698 1.324 1.324 0 001.674-.918c.245-.888-.228-3.116-.228-3.116zm-.556.833c-.157.18-.335.394-.506.618-.284.372-.553.769-.637 1.072a.69.69 0 00.46.839.624.624 0 00.79-.433c.084-.305.058-.793.008-1.27a14.01 14.01 0 00-.115-.826z"/><path d="M130.738 57.633s-1.959 1.737-2.235 2.737c-.21.759.231 1.564.984 1.795a1.377 1.377 0 001.743-.957c.276-.999-.492-3.575-.492-3.575z" fill="#cbd800"/><path d="M131.186 57.499a.468.468 0 00-.758-.216s-.994.882-1.688 1.766c-.332.422-.592.85-.688 1.196a1.95 1.95 0 001.297 2.367 1.844 1.844 0 002.332-1.279c.095-.344.094-.852.029-1.393-.136-1.137-.524-2.441-.524-2.441zm-.698 1.013c-.221.218-.48.487-.727.77-.364.418-.711.862-.808 1.212a1.01 1.01 0 00.671 1.224.914.914 0 001.156-.634c.097-.352.03-.926-.065-1.488a15.28 15.28 0 00-.227-1.084z"/></g><g><path d="M77.001 30.915l-2.176-.028s-3.046-8.248 4.458-16.374c.701.333 1.572 1.416 2.248 1.773 0 0-7.063 4.288-4.53 14.629z" fill="#3f5f48"/><path d="M76.994 31.459a.545.545 0 00.535-.673c-2.426-9.909 4.284-14.035 4.284-14.035a.546.546 0 00-.028-.946c-.305-.161-.649-.493-1.001-.816-.434-.397-.878-.782-1.269-.967a.544.544 0 00-.632.122c-7.754 8.398-4.569 16.931-4.569 16.931a.545.545 0 00.504.356l2.176.028zm2.389-16.245c-6.01 6.772-4.604 13.542-4.157 15.134l1.091.014c-1.761-8.346 2.588-12.725 4.286-14.077a19.55 19.55 0 01-.554-.493c-.226-.207-.451-.417-.666-.578z"/><path d="M81.552 14.191c.6.566.744 1.431.32 1.929-.423.498-1.255.443-1.856-.123-.601-.567-.744-1.431-.321-1.929.424-.499 1.256-.443 1.857.123z" fill="#3f5f48"/><path d="M81.911 13.809c-.845-.797-2.019-.782-2.615-.081-.58.681-.462 1.876.36 2.65.846.797 2.02.783 2.616.082.58-.682.461-1.876-.361-2.651zm-.719.764c.38.359.549.891.281 1.207-.253.297-.739.173-1.097-.165-.381-.359-.55-.892-.281-1.208.253-.297.738-.172 1.097.166z"/><path d="M71.164 31.354c-1.368-.139-2.76 1.392-6.526 2.242-7.435 1.68-11.974-6.963-11.974-6.963 3.073.614 3.344 1.866 5.687 2.265 1.366.233 3.975.587 4.707-.097C59.15 26 55.226 20.727 59.23 16.247c0 0-.827 2.994 1.68 4.912 1.789 1.368 2.967 1.808 7.916 6.701-2.357-8.276 1.914-6.008 5.796-13.237-1.368 5.898-2.364 10.431.634 14.467-.561-8.495 5.716-5.802 11.419-9.459-4.917 4.713-5.734 6.9-5.266 11.261 3.792-1.491 3.046-2.288 7.1-2.771 1.443-.172 4.182-.013 7.163-1.048-6.059 3.049-3.551 4.889-10.294 6.54.468.687 2.732 1.627 3.983 2.435 2.514 1.623 5.127.727 5.912 1.082.16.073-5.163 3.055-9.081 2.516-3.758-.516-6.494-4.871-6.494-4.871l-8.534-3.421z" fill="#4e825d"/><path d="M67.661 25.802c-.244-1.41-.215-2.434.001-3.254.33-1.252 1.088-2.068 2.113-3.014 1.189-1.1 2.757-2.425 4.261-5.226a.666.666 0 011.234.465c-1.092 4.707-1.999 8.514-.629 11.891.177-1.391.625-2.374 1.25-3.105.944-1.103 2.327-1.652 3.961-2.106 1.935-.538 4.247-.96 6.464-2.382a.666.666 0 01.819 1.04c-4.338 4.158-5.366 6.234-5.141 9.816.95-.422 1.535-.78 2.042-1.085 1.057-.637 1.805-1.073 4.395-1.382 1.414-.168 4.101-.001 7.023-1.015a.665.665 0 01.517 1.222c-2.914 1.467-3.766 2.646-4.702 3.653-.896.964-1.851 1.803-4.416 2.581l.098.055c.883.503 2.011 1.043 2.771 1.533 1.616 1.044 3.283.929 4.381.892.647-.021 1.148.009 1.445.143a.651.651 0 01.348.366.658.658 0 01.017.441c-.018.06-.099.264-.375.452-.821.558-5.729 3.032-9.436 2.522-1.632-.224-3.093-1.102-4.251-2.09a15.38 15.38 0 01-2.592-2.899l-8.246-3.305c-.417-.014-.835.181-1.372.43-1.088.507-2.533 1.279-4.856 1.804-3.189.72-5.884-.317-7.966-1.837-3.04-2.219-4.744-5.466-4.744-5.466a.665.665 0 01.719-.962c1.639.328 2.531.824 3.325 1.293.68.402 1.274.787 2.344.969.786.134 2.002.313 3 .291.053-.001.105-.003.156-.006-1.668-1.39-3.212-3.176-4.052-5.108-1.069-2.457-1.041-5.145 1.167-7.615a.664.664 0 011.137.62s-.705 2.564 1.444 4.207c1.587 1.214 2.697 1.703 6.346 5.171zm5.556-7.867c-.921 1.12-1.798 1.89-2.539 2.576-.818.755-1.466 1.376-1.73 2.376-.276 1.05-.141 2.476.518 4.791a.665.665 0 01-1.107.655c-4.909-4.854-6.079-5.288-7.853-6.646a5.092 5.092 0 01-1.954-3.111c-.547 1.446-.368 2.925.235 4.312.923 2.123 2.797 4.038 4.659 5.372a.667.667 0 01.066 1.027c-.3.281-.818.474-1.466.542-1.159.122-2.803-.104-3.807-.275-1.033-.176-1.702-.501-2.349-.872-.513-.296-1.01-.627-1.726-.919.736 1.038 1.901 2.448 3.439 3.57 1.802 1.316 4.129 2.238 6.889 1.614 2.195-.496 3.559-1.233 4.587-1.712.839-.39 1.502-.609 2.152-.542a.65.65 0 01.18.044l8.535 3.421c.13.052.241.144.316.263 0 0 .935 1.486 2.453 2.782.975.832 2.193 1.596 3.568 1.784 2.121.292 4.675-.51 6.448-1.265-1.12-.048-2.436-.28-3.731-1.115-.873-.564-2.241-1.191-3.143-1.753-.488-.303-.853-.608-1.029-.867a.665.665 0 01.392-1.021c3.819-.934 4.498-1.927 5.662-3.198.359-.392.759-.807 1.287-1.25-1.488.169-2.747.164-3.581.263-2.275.271-2.937.641-3.866 1.2-.684.412-1.502.914-3.069 1.53a.663.663 0 01-.905-.548c-.395-3.684.054-5.901 2.947-9.211-1.223.411-2.409.683-3.487.983-1.352.376-2.524.776-3.306 1.689-.78.912-1.135 2.317-.983 4.622a.664.664 0 01-1.197.44c-2.499-3.363-2.383-7.057-1.505-11.551z"/><path d="M66.741 62.082c-1.478 1.22-3.131.622-3.857-.014-2.763-2.418-1.231-7.197-1.905-10.032-.545-2.293-2.932-7.619-2.957-10.8-.047-5.892 3.778-13.506 11.352-11.463 2.146.578 4.087 1.503 5.601 2.982 2.059-.399 4.242-.193 6.33.684 6.388 2.682 7.544 9.324 3.927 16.101-1.515 2.837-7.043 5.938-8.775 7.74-1.502 1.562-2.751 6.46-6.097 7.273-1.087.264-3.006-.626-3.619-2.471z" fill="#b80000"/><path d="M66.504 62.903c-1.583.884-3.214.243-3.978-.425-1.498-1.311-1.871-3.248-1.921-5.256-.046-1.811.175-3.673-.155-5.06-.552-2.318-2.947-7.706-2.972-10.921-.05-6.206 4.06-14.145 12.038-11.993 2.142.577 4.086 1.492 5.634 2.923 2.078-.35 4.267-.115 6.365.766 6.697 2.812 7.989 9.756 4.196 16.859-.633 1.187-1.928 2.428-3.382 3.599-2.065 1.662-4.451 3.192-5.48 4.262-.731.761-1.389 2.34-2.283 3.822-.995 1.647-2.266 3.163-4.078 3.603-.531.129-1.227.05-1.916-.256a4.381 4.381 0 01-2.068-1.923zm.754-.992a.545.545 0 00-.863-.248c-1.208.997-2.559.515-3.152-.004-1.266-1.107-1.508-2.769-1.551-4.464-.048-1.892.161-3.837-.184-5.285-.539-2.268-2.917-7.532-2.942-10.678-.045-5.578 3.495-12.868 10.667-10.934 2.052.553 3.914 1.431 5.362 2.846a.543.543 0 00.484.145c1.956-.38 4.031-.182 6.015.651 6.08 2.553 7.101 8.894 3.658 15.344-.578 1.083-1.779 2.196-3.106 3.264-2.106 1.695-4.532 3.264-5.581 4.355-.771.802-1.488 2.452-2.431 4.014-.842 1.395-1.868 2.735-3.402 3.107-.339.083-.779.003-1.218-.192a3.245 3.245 0 01-1.756-1.921z"/><path d="M64.732 33.218s-1.959 1.738-2.235 2.737a1.48 1.48 0 00.984 1.796 1.38 1.38 0 001.744-.957c.276-1-.493-3.576-.493-3.576z" fill="#cbd800"/><path d="M65.18 33.085a.467.467 0 00-.758-.216s-.993.882-1.688 1.765c-.331.423-.592.851-.687 1.197a1.948 1.948 0 001.297 2.366 1.843 1.843 0 002.332-1.279c.095-.344.093-.851.029-1.393-.136-1.136-.525-2.44-.525-2.44zm-.697 1.013a14.07 14.07 0 00-.727.769c-.364.418-.711.862-.808 1.213a1.009 1.009 0 00.671 1.224.913.913 0 001.155-.634c.098-.353.031-.926-.064-1.489-.066-.387-.15-.769-.227-1.083z"/><path d="M70.724 35.228s-1.959 1.738-2.235 2.737c-.21.759.231 1.564.984 1.795a1.378 1.378 0 001.743-.956c.276-1-.492-3.576-.492-3.576z" fill="#cbd800"/><path d="M71.172 35.095a.468.468 0 00-.758-.217s-.994.882-1.688 1.766c-.332.422-.592.851-.688 1.197a1.949 1.949 0 001.297 2.366 1.843 1.843 0 002.332-1.279c.095-.344.093-.851.029-1.393-.136-1.136-.524-2.44-.524-2.44zm-.698 1.012c-.221.219-.48.487-.727.77-.364.418-.711.862-.808 1.212a1.01 1.01 0 00.671 1.225.914.914 0 001.156-.635c.097-.352.03-.925-.065-1.488a15.28 15.28 0 00-.227-1.084z"/><path d="M76.937 37.01s-1.959 1.737-2.235 2.737c-.21.759.231 1.564.984 1.795a1.378 1.378 0 001.744-.957c.276-.999-.493-3.575-.493-3.575z" fill="#cbd800"/><path d="M77.385 36.876a.468.468 0 00-.758-.216s-.994.882-1.688 1.766c-.332.422-.592.85-.688 1.196a1.95 1.95 0 001.298 2.367 1.844 1.844 0 002.331-1.279c.095-.344.094-.852.029-1.393-.136-1.137-.524-2.441-.524-2.441zm-.698 1.013c-.221.218-.48.487-.727.77-.364.418-.711.862-.807 1.212a1.008 1.008 0 00.67 1.224.914.914 0 001.156-.634c.097-.352.03-.926-.065-1.488-.065-.388-.15-.77-.227-1.084z"/><path d="M83.097 38.888s-1.959 1.738-2.235 2.737c-.21.76.231 1.564.984 1.795a1.379 1.379 0 001.744-.956c.276-1-.493-3.576-.493-3.576z" fill="#cbd800"/><path d="M83.545 38.755a.468.468 0 00-.758-.216s-.994.882-1.688 1.765c-.332.422-.592.851-.688 1.197a1.949 1.949 0 001.298 2.366 1.842 1.842 0 002.331-1.279c.095-.344.094-.851.029-1.393-.135-1.136-.524-2.44-.524-2.44zm-.697 1.012a14.09 14.09 0 00-.727.77c-.365.418-.712.862-.808 1.213a1.008 1.008 0 00.671 1.224.914.914 0 001.155-.635c.097-.352.031-.925-.064-1.488a16.626 16.626 0 00-.227-1.084z"/><path d="M65.673 40.433s-1.959 1.738-2.235 2.737c-.21.76.231 1.564.984 1.796a1.379 1.379 0 001.743-.957c.276-.999-.492-3.576-.492-3.576z" fill="#cbd800"/><path d="M66.121 40.3a.466.466 0 00-.758-.216s-.994.882-1.688 1.766c-.332.422-.592.85-.688 1.196a1.949 1.949 0 001.297 2.366 1.843 1.843 0 002.332-1.279c.095-.344.093-.851.029-1.393-.136-1.136-.524-2.44-.524-2.44zm-.698 1.013c-.221.218-.48.486-.727.769-.364.418-.711.862-.808 1.213a1.009 1.009 0 00.671 1.224.915.915 0 001.156-.634c.097-.353.03-.926-.065-1.489-.065-.387-.15-.769-.227-1.083z"/><path d="M72.25 42.34s-1.959 1.738-2.235 2.737c-.21.759.231 1.564.984 1.795a1.379 1.379 0 001.744-.956c.276-1-.493-3.576-.493-3.576z" fill="#cbd800"/><path d="M72.698 42.207a.466.466 0 00-.758-.216s-.994.881-1.688 1.765c-.332.422-.592.851-.688 1.197a1.949 1.949 0 001.298 2.366 1.842 1.842 0 002.331-1.279c.095-.344.094-.851.029-1.393-.136-1.136-.524-2.44-.524-2.44zM72 43.219c-.221.219-.48.487-.727.77-.364.418-.711.862-.807 1.212a1.009 1.009 0 00.67 1.225.914.914 0 001.156-.635c.097-.352.03-.925-.064-1.488A15.83 15.83 0 0072 43.219z"/><path d="M67.335 47.362s-1.959 1.737-2.235 2.737c-.21.759.231 1.564.984 1.795a1.377 1.377 0 001.743-.957c.276-.999-.492-3.575-.492-3.575z" fill="#cbd800"/><path d="M67.783 47.228a.468.468 0 00-.758-.216s-.994.882-1.688 1.766c-.332.422-.592.85-.688 1.196a1.95 1.95 0 001.297 2.367 1.844 1.844 0 002.332-1.279c.095-.344.094-.852.029-1.393-.136-1.137-.524-2.441-.524-2.441zm-.698 1.013c-.221.219-.48.487-.727.77-.364.418-.711.862-.808 1.212a1.01 1.01 0 00.671 1.224.914.914 0 001.156-.634c.097-.352.03-.926-.065-1.488a15.28 15.28 0 00-.227-1.084z"/><path d="M74.012 49.635s-1.959 1.738-2.235 2.737a1.48 1.48 0 00.984 1.795 1.379 1.379 0 001.744-.956c.276-1-.493-3.576-.493-3.576z" fill="#cbd800"/><path d="M74.46 49.502a.465.465 0 00-.319-.316.47.47 0 00-.439.099s-.993.882-1.688 1.766c-.331.422-.592.851-.687 1.197a1.948 1.948 0 001.297 2.366 1.843 1.843 0 002.332-1.279c.095-.344.093-.851.029-1.393-.136-1.136-.525-2.44-.525-2.44zm-.697 1.012c-.221.219-.481.487-.727.77-.364.418-.711.862-.808 1.212a1.01 1.01 0 00.671 1.225.913.913 0 001.155-.635c.098-.352.031-.925-.064-1.488-.066-.387-.15-.77-.227-1.084z"/><path d="M68.707 55.401s-1.463 1.516-1.695 2.355a1.045 1.045 0 00.695 1.268.974.974 0 001.232-.675c.232-.84-.232-2.948-.232-2.948z" fill="#cbd800"/><path d="M69.05 55.326a.352.352 0 00-.595-.168s-.738.764-1.263 1.519c-.244.351-.441.704-.518.986a1.397 1.397 0 00.93 1.697 1.323 1.323 0 001.673-.918c.245-.887-.227-3.116-.227-3.116zm-.556.833c-.157.181-.335.395-.506.619-.284.372-.554.768-.638 1.071a.693.693 0 00.46.84.626.626 0 00.791-.434c.084-.304.058-.793.008-1.27a14.128 14.128 0 00-.115-.826z"/><path d="M72.525 56.968s-1.464 1.515-1.696 2.354a1.046 1.046 0 00.695 1.269.975.975 0 001.232-.676c.232-.84-.231-2.947-.231-2.947z" fill="#cbd800"/><path d="M72.867 56.892a.352.352 0 00-.595-.168s-.738.764-1.263 1.519c-.244.352-.44.704-.518.986a1.398 1.398 0 00.93 1.697 1.324 1.324 0 001.674-.918c.245-.887-.228-3.116-.228-3.116zm-.556.833c-.157.181-.335.395-.506.619-.284.372-.554.768-.637 1.072a.69.69 0 00.46.839.624.624 0 00.79-.434c.084-.304.058-.793.008-1.269a14.05 14.05 0 00-.115-.827z"/><path d="M64.571 53.948s-1.463 1.516-1.695 2.355a1.044 1.044 0 00.695 1.268.974.974 0 001.232-.675c.232-.84-.232-2.948-.232-2.948z" fill="#cbd800"/><path d="M64.914 53.873a.352.352 0 00-.595-.168s-.738.764-1.263 1.519c-.244.351-.441.704-.518.986a1.396 1.396 0 00.93 1.697 1.323 1.323 0 001.673-.918c.245-.887-.227-3.116-.227-3.116zm-.557.833c-.156.181-.334.395-.505.619-.284.372-.554.768-.638 1.071a.692.692 0 00.46.84.626.626 0 00.791-.434c.084-.304.058-.793.007-1.27a13.324 13.324 0 00-.115-.826z"/><path d="M78.739 44.43s-1.959 1.738-2.235 2.737c-.209.76.232 1.564.984 1.795a1.379 1.379 0 001.744-.956c.276-1-.493-3.576-.493-3.576z" fill="#cbd800"/><path d="M79.187 44.297a.466.466 0 00-.758-.216s-.993.882-1.688 1.765c-.331.422-.592.851-.687 1.197a1.948 1.948 0 001.297 2.366 1.844 1.844 0 002.332-1.279c.095-.344.093-.851.028-1.393-.135-1.136-.524-2.44-.524-2.44zm-.697 1.012c-.221.219-.481.487-.727.77-.365.418-.711.862-.808 1.213a1.009 1.009 0 00.671 1.224.913.913 0 001.155-.635c.098-.352.031-.925-.064-1.488a15.99 15.99 0 00-.227-1.084z"/></g><g><path d="M25.002 17.712l-2.176-.028s-3.045-8.247 4.458-16.373c.702.332 1.573 1.416 2.248 1.772 0 0-7.062 4.288-4.53 14.629z" fill="#3f5f48"/><path d="M24.995 18.256a.543.543 0 00.536-.673c-2.427-9.909 4.283-14.035 4.283-14.035a.543.543 0 00-.028-.946c-.305-.161-.648-.493-1.001-.815-.433-.397-.878-.783-1.268-.968a.544.544 0 00-.633.123c-7.754 8.397-4.568 16.931-4.568 16.931a.544.544 0 00.503.355l2.176.028zm2.389-16.245c-6.01 6.773-4.604 13.542-4.156 15.135l1.091.014c-1.762-8.347 2.588-12.726 4.286-14.078a18.256 18.256 0 01-.554-.493c-.227-.207-.451-.417-.667-.578z"/><path d="M29.553.988c.601.567.745 1.431.321 1.929-.424.499-1.255.443-1.856-.123-.601-.566-.745-1.431-.321-1.929.423-.498 1.255-.443 1.856.123z" fill="#3f5f48"/><path d="M29.913.607c-.845-.797-2.02-.783-2.616-.082-.579.682-.461 1.876.361 2.651.845.797 2.02.782 2.616.081.579-.681.461-1.875-.361-2.65zm-.72.763c.381.359.55.892.281 1.208-.252.297-.738.172-1.096-.166-.381-.359-.55-.891-.281-1.207.252-.297.738-.172 1.096.165z"/><path d="M19.165 18.152c-1.368-.14-2.76 1.391-6.525 2.242C5.204 22.073.665 13.43.665 13.43c3.074.614 3.344 1.866 5.688 2.265 1.365.233 3.974.588 4.707-.096-3.909-2.802-7.833-8.074-3.829-12.555 0 0-.827 2.994 1.681 4.913 1.789 1.368 2.967 1.807 7.916 6.701-2.357-8.277 1.914-6.008 5.796-13.238-1.369 5.898-2.365 10.432.633 14.467-.561-8.495 5.717-5.801 11.42-9.458-4.918 4.712-5.734 6.899-5.266 11.261 3.791-1.492 3.046-2.289 7.1-2.772 1.442-.172 4.182-.013 7.163-1.048-6.06 3.05-3.552 4.889-10.295 6.54.468.688 2.732 1.628 3.984 2.435 2.514 1.623 5.127.727 5.912 1.083.16.072-5.164 3.054-9.081 2.516-3.759-.517-6.494-4.871-6.494-4.871l-8.535-3.421z" fill="#4e825d"/><path d="M15.662 12.6c-.243-1.41-.215-2.434.001-3.254.33-1.253 1.089-2.068 2.113-3.015 1.19-1.099 2.758-2.425 4.261-5.225a.665.665 0 011.234.465c-1.092 4.707-1.999 8.513-.629 11.891.178-1.392.625-2.374 1.251-3.105.944-1.104 2.327-1.653 3.961-2.107 1.935-.537 4.246-.959 6.464-2.381a.664.664 0 01.819 1.04c-4.338 4.157-5.367 6.233-5.142 9.816.95-.423 1.535-.781 2.042-1.086 1.058-.637 1.806-1.073 4.395-1.382 1.414-.168 4.101-.001 7.023-1.015a.666.666 0 01.518 1.222c-2.915 1.467-3.767 2.646-4.703 3.654-.895.963-1.851 1.803-4.415 2.58l.097.056c.884.502 2.012 1.042 2.771 1.533 1.617 1.043 3.283.928 4.382.892.646-.021 1.147.008 1.444.143a.646.646 0 01.348.366c.047.121.07.268.017.441-.018.059-.098.263-.375.451-.821.559-5.729 3.032-9.436 2.523-1.632-.225-3.093-1.103-4.251-2.091a15.418 15.418 0 01-2.592-2.899l-8.246-3.305c-.416-.014-.835.181-1.372.431-1.087.506-2.533 1.279-4.856 1.803-3.188.721-5.883-.317-7.966-1.837C1.781 16.987.076 13.739.076 13.739a.664.664 0 01.72-.961c1.639.327 2.531.824 3.325 1.292.68.402 1.273.787 2.343.97.787.134 2.002.313 3.001.29a7.77 7.77 0 00.155-.005c-1.668-1.39-3.212-3.177-4.052-5.109C4.5 7.759 4.528 5.071 6.735 2.601a.666.666 0 011.138.62s-.705 2.564 1.443 4.207c1.588 1.215 2.698 1.704 6.346 5.172zm5.557-7.868c-.921 1.12-1.798 1.89-2.54 2.576-.818.756-1.466 1.377-1.729 2.376-.276 1.05-.142 2.477.518 4.792a.666.666 0 01-1.108.655c-4.909-4.854-6.078-5.289-7.852-6.646a5.087 5.087 0 01-1.954-3.112c-.548 1.447-.369 2.925.234 4.313.923 2.123 2.798 4.038 4.659 5.372a.666.666 0 01.067 1.027c-.301.281-.819.474-1.467.542-1.159.121-2.802-.105-3.806-.276-1.034-.176-1.703-.5-2.349-.872-.514-.295-1.01-.627-1.726-.919.735 1.039 1.901 2.448 3.439 3.571 1.802 1.315 4.129 2.237 6.888 1.614 2.196-.496 3.56-1.234 4.588-1.712.838-.39 1.501-.609 2.152-.543a.668.668 0 01.18.044l8.534 3.421a.67.67 0 01.316.264s.936 1.486 2.453 2.781c.975.833 2.194 1.596 3.568 1.785 2.122.291 4.676-.511 6.449-1.266-1.12-.047-2.437-.279-3.731-1.115-.873-.563-2.242-1.191-3.144-1.753-.487-.303-.852-.608-1.029-.867a.666.666 0 01.392-1.02c3.819-.935 4.498-1.928 5.663-3.199a13.16 13.16 0 011.286-1.25c-1.487.169-2.746.164-3.58.264-2.276.271-2.937.64-3.866 1.2-.685.412-1.502.913-3.07 1.53a.667.667 0 01-.905-.548c-.395-3.685.055-5.901 2.948-9.212-1.224.411-2.409.684-3.487.983-1.352.376-2.525.776-3.306 1.689-.78.912-1.135 2.317-.983 4.622a.665.665 0 01-1.198.441c-2.498-3.364-2.382-7.058-1.504-11.552z"/><path d="M14.743 48.88c-1.479 1.22-3.131.621-3.857-.014-2.763-2.419-1.231-7.198-1.905-10.032-.546-2.294-2.933-7.619-2.958-10.8-.047-5.892 3.779-13.507 11.353-11.464 2.145.579 4.087 1.503 5.601 2.982 2.058-.399 4.241-.193 6.329.684 6.388 2.683 7.545 9.325 3.927 16.101-1.515 2.838-7.042 5.939-8.775 7.741-1.501 1.561-2.751 6.46-6.097 7.272-1.087.264-3.005-.625-3.618-2.47z" fill="#b80000"/><path d="M14.505 49.7c-1.582.884-3.214.243-3.977-.425-1.498-1.311-1.871-3.248-1.922-5.256-.046-1.811.175-3.673-.155-5.06-.551-2.318-2.946-7.706-2.972-10.921-.049-6.206 4.061-14.145 12.039-11.993 2.142.578 4.086 1.492 5.633 2.923 2.079-.349 4.268-.115 6.366.766 6.696 2.813 7.988 9.756 4.196 16.86-.634 1.187-1.929 2.428-3.383 3.598-2.065 1.663-4.45 3.192-5.48 4.263-.731.76-1.389 2.34-2.283 3.821-.994 1.648-2.266 3.163-4.077 3.603-.531.129-1.227.051-1.917-.256a4.386 4.386 0 01-2.068-1.923zm.754-.992a.543.543 0 00-.862-.248c-1.209.997-2.56.516-3.153-.003-1.265-1.108-1.508-2.769-1.55-4.465-.048-1.892.16-3.836-.184-5.284-.54-2.269-2.918-7.532-2.943-10.678-.044-5.579 3.496-12.869 10.667-10.935 2.053.554 3.914 1.431 5.362 2.846a.544.544 0 00.484.145c1.957-.379 4.031-.182 6.016.652 6.079 2.553 7.1 8.894 3.657 15.343-.578 1.083-1.779 2.196-3.105 3.264-2.106 1.695-4.532 3.264-5.582 4.356-.77.801-1.488 2.452-2.43 4.013-.843 1.395-1.869 2.735-3.403 3.108-.339.082-.778.002-1.217-.193a3.25 3.25 0 01-1.757-1.921z"/><path d="M12.734 20.016s-1.959 1.737-2.235 2.737c-.21.759.231 1.563.984 1.795a1.38 1.38 0 001.744-.957c.275-.999-.493-3.575-.493-3.575z" fill="#cbd800"/><path d="M13.182 19.882a.468.468 0 00-.758-.216s-.994.882-1.688 1.766c-.332.422-.592.85-.688 1.196a1.95 1.95 0 001.298 2.367 1.844 1.844 0 002.331-1.279c.095-.345.094-.852.029-1.393-.136-1.137-.524-2.441-.524-2.441zm-.698 1.013c-.221.218-.48.487-.727.77-.364.418-.711.862-.807 1.212a1.008 1.008 0 00.67 1.224.915.915 0 001.156-.634c.097-.352.03-.926-.065-1.488-.065-.388-.15-.77-.227-1.084z"/><path d="M18.725 22.026s-1.959 1.737-2.235 2.736a1.48 1.48 0 00.984 1.796 1.38 1.38 0 001.744-.957c.276-.999-.493-3.575-.493-3.575z" fill="#cbd800"/><path d="M19.173 21.892a.466.466 0 00-.758-.216s-.994.882-1.688 1.766c-.332.422-.592.85-.687 1.196a1.95 1.95 0 001.297 2.367 1.845 1.845 0 002.332-1.279c.095-.345.093-.852.028-1.393-.135-1.137-.524-2.441-.524-2.441zm-.697 1.013a14.07 14.07 0 00-.727.769c-.365.419-.711.863-.808 1.213a1.007 1.007 0 00.671 1.224.914.914 0 001.155-.634c.097-.352.031-.926-.064-1.488-.066-.388-.151-.77-.227-1.084z"/><path d="M24.939 23.807s-1.96 1.738-2.235 2.737c-.21.76.231 1.564.984 1.795a1.378 1.378 0 001.743-.956c.276-1-.492-3.576-.492-3.576z" fill="#cbd800"/><path d="M25.386 23.674a.467.467 0 00-.758-.216s-.993.882-1.688 1.765c-.331.422-.592.851-.687 1.197a1.949 1.949 0 001.297 2.366 1.843 1.843 0 002.332-1.279c.095-.344.093-.851.029-1.393-.136-1.136-.525-2.44-.525-2.44zm-.697 1.012c-.221.219-.481.487-.727.77-.364.418-.711.862-.808 1.212a1.01 1.01 0 00.671 1.225.914.914 0 001.156-.635c.097-.352.03-.925-.065-1.488a15.4 15.4 0 00-.227-1.084z"/><path d="M31.099 25.686s-1.96 1.737-2.235 2.737c-.21.759.231 1.563.984 1.795a1.378 1.378 0 001.743-.957c.276-.999-.492-3.575-.492-3.575z" fill="#cbd800"/><path d="M31.547 25.552a.47.47 0 00-.759-.216s-.993.882-1.688 1.766c-.331.422-.592.85-.687 1.196a1.95 1.95 0 001.297 2.367 1.844 1.844 0 002.332-1.279c.095-.345.093-.852.029-1.393-.136-1.137-.524-2.441-.524-2.441zm-.698 1.013c-.221.218-.481.487-.727.769-.364.419-.711.863-.808 1.213a1.008 1.008 0 00.671 1.224.915.915 0 001.156-.634c.097-.352.03-.926-.065-1.488-.065-.388-.15-.77-.227-1.084z"/><path d="M13.674 27.231s-1.959 1.737-2.235 2.737a1.48 1.48 0 00.984 1.795 1.38 1.38 0 001.744-.957c.276-.999-.493-3.575-.493-3.575z" fill="#cbd800"/><path d="M14.122 27.097a.466.466 0 00-.758-.216s-.994.882-1.688 1.766c-.332.422-.592.85-.687 1.196a1.95 1.95 0 001.297 2.367 1.845 1.845 0 002.332-1.279c.095-.345.093-.852.028-1.393-.135-1.137-.524-2.441-.524-2.441zm-.697 1.013a14.11 14.11 0 00-.727.77c-.365.418-.711.862-.808 1.212a1.007 1.007 0 00.671 1.224.913.913 0 001.155-.634c.097-.352.031-.926-.064-1.488-.066-.388-.151-.77-.227-1.084z"/><path d="M20.252 29.138s-1.96 1.737-2.235 2.736c-.21.76.231 1.564.984 1.796a1.378 1.378 0 001.743-.957c.276-.999-.492-3.575-.492-3.575z" fill="#cbd800"/><path d="M20.7 29.004a.47.47 0 00-.759-.216s-.993.882-1.688 1.766c-.331.422-.592.85-.687 1.196a1.95 1.95 0 001.297 2.367 1.844 1.844 0 002.332-1.279c.095-.345.093-.852.029-1.393-.136-1.137-.524-2.441-.524-2.441zm-.698 1.013a14.07 14.07 0 00-.727.769c-.364.419-.711.863-.808 1.213a1.008 1.008 0 00.671 1.224.915.915 0 001.156-.634c.097-.352.03-.926-.065-1.488-.065-.388-.15-.77-.227-1.084z"/><path d="M15.336 34.159s-1.959 1.738-2.235 2.737a1.48 1.48 0 00.984 1.796 1.38 1.38 0 001.744-.957c.276-1-.493-3.576-.493-3.576z" fill="#cbd800"/><path d="M15.784 34.026a.466.466 0 00-.758-.216s-.993.882-1.688 1.765c-.331.423-.592.851-.687 1.197a1.948 1.948 0 001.297 2.366 1.844 1.844 0 002.332-1.279c.095-.344.093-.851.028-1.393-.135-1.136-.524-2.44-.524-2.44zm-.697 1.012c-.221.219-.481.487-.727.77-.364.418-.711.862-.808 1.213a1.009 1.009 0 00.671 1.224.914.914 0 001.155-.634c.098-.353.031-.926-.064-1.489a15.99 15.99 0 00-.227-1.084z"/><path d="M22.014 36.433s-1.959 1.737-2.235 2.736c-.21.76.231 1.564.984 1.796a1.38 1.38 0 001.744-.957c.275-.999-.493-3.575-.493-3.575z" fill="#cbd800"/><path d="M22.462 36.299a.468.468 0 00-.758-.216s-.994.882-1.688 1.766c-.332.422-.592.85-.688 1.196a1.95 1.95 0 001.298 2.367 1.844 1.844 0 002.331-1.279c.095-.345.094-.852.029-1.393-.136-1.137-.524-2.441-.524-2.441zm-.698 1.013c-.221.218-.48.486-.727.769-.364.419-.711.863-.807 1.213a1.008 1.008 0 00.67 1.224.915.915 0 001.156-.634c.097-.352.03-.926-.065-1.488-.065-.388-.15-.77-.227-1.084z"/><path d="M16.709 42.199s-1.464 1.515-1.695 2.354a1.045 1.045 0 00.695 1.269.975.975 0 001.232-.676c.231-.84-.232-2.947-.232-2.947z" fill="#cbd800"/><path d="M17.052 42.123a.351.351 0 00-.596-.168s-.738.764-1.262 1.519c-.245.352-.441.704-.519.986a1.398 1.398 0 00.931 1.697 1.323 1.323 0 001.673-.918c.245-.887-.227-3.116-.227-3.116zm-.557.834c-.156.18-.335.394-.506.618-.284.372-.553.768-.637 1.072a.69.69 0 00.46.839.624.624 0 00.79-.433c.084-.305.058-.794.008-1.27a14.01 14.01 0 00-.115-.826z"/><path d="M20.526 43.765s-1.463 1.515-1.695 2.355a1.044 1.044 0 00.695 1.268.973.973 0 001.232-.676c.231-.839-.232-2.947-.232-2.947z" fill="#cbd800"/><path d="M20.869 43.69a.35.35 0 00-.595-.169s-.738.765-1.263 1.52c-.244.351-.441.704-.519.985a1.399 1.399 0 00.931 1.698 1.324 1.324 0 001.673-.918c.245-.887-.227-3.116-.227-3.116zm-.557.833c-.156.18-.334.394-.505.618-.284.372-.554.769-.638 1.072a.692.692 0 00.46.84.626.626 0 00.79-.434c.084-.305.059-.793.008-1.27a14.01 14.01 0 00-.115-.826z"/><path d="M12.573 40.746s-1.464 1.515-1.696 2.354a1.046 1.046 0 00.696 1.269.974.974 0 001.231-.676c.232-.839-.231-2.947-.231-2.947z" fill="#cbd800"/><path d="M12.915 40.67a.352.352 0 00-.595-.168s-.738.764-1.262 1.519c-.245.352-.441.704-.519.986a1.398 1.398 0 00.93 1.697 1.323 1.323 0 001.674-.918c.245-.887-.228-3.116-.228-3.116zm-.556.834c-.157.18-.335.394-.506.618-.284.372-.553.768-.637 1.072a.69.69 0 00.46.839.624.624 0 00.79-.433c.084-.305.058-.794.008-1.27a14.01 14.01 0 00-.115-.826z"/><path d="M26.741 31.228s-1.959 1.737-2.235 2.737c-.21.759.231 1.563.984 1.795a1.378 1.378 0 001.743-.957c.276-.999-.492-3.575-.492-3.575z" fill="#cbd800"/><path d="M27.189 31.094a.468.468 0 00-.758-.216s-.994.882-1.688 1.766c-.332.422-.592.85-.688 1.196a1.95 1.95 0 001.297 2.367 1.844 1.844 0 002.332-1.279c.095-.345.094-.852.029-1.393-.136-1.137-.524-2.441-.524-2.441zm-.698 1.013c-.221.218-.48.487-.727.769-.364.419-.711.863-.808 1.213a1.01 1.01 0 00.671 1.224.915.915 0 001.156-.634c.097-.352.03-.926-.065-1.488-.065-.388-.15-.77-.227-1.084z"/></g></svg>