<?xml version="1.0" encoding="utf-8"?>
<!-- Generator: Adobe Illustrator 16.0.0, SVG Export Plug-In . SVG Version: 6.00 Build 0)  -->
<!DOCTYPE svg PUBLIC "-//W3C//DTD SVG 1.1//EN" "http://www.w3.org/Graphics/SVG/1.1/DTD/svg11.dtd">
<svg version="1.1" id="Layer_1" xmlns="http://www.w3.org/2000/svg" xmlns:xlink="http://www.w3.org/1999/xlink" x="0px" y="0px"
	 width="138px" height="41.219px" viewBox="0 0 138 41.219" enable-background="new 0 0 138 41.219" xml:space="preserve">
<path d="M123.736,18.846c0.016,1.912,1.549,3.462,3.461,3.462c1.914,0,3.463-1.548,3.463-3.462V9.28
	c0-1.913-1.549-3.463-3.463-3.463c-1.912,0-3.461,1.55-3.461,3.463l0.016,5.645c0,0-0.436,1.881-2.494,1.961
	c-2.063,0.078-7.646-2.813-9.689-8.158c-0.73-1.786-1.748-2.495-3.326-2.495c-1.561,0-2.883,0.995-3.313,2.456
	c-1.936,6.374-6.49,8.346-7.916,8.443c-1.111,0.109-1.863,0.834-1.863,1.813c0,0.98,0.752,1.624,1.902,1.624
	c2.496,0,7.488-1.544,11.25-5.585C112.305,18.906,120.533,22.47,123.736,18.846"/>
<path d="M58.688,15.487c-1,0-1.811-0.81-1.811-1.81l0.012-4.872c0-1.912,1.549-3.463,3.463-3.463c1.912,0,3.424,1.551,3.424,3.463
	v3.09h19.838c2.229,0,2.908-0.488,3.615-0.713c0.99-0.317,2.092-0.103,2.512,0.84c0.42,0.943-0.072,1.885-0.875,2.404
	c-0.805,0.519-2.607,1.034-5.252,1.034h-7.574v1.902l13.725,0.032c1,0,1.811,0.81,1.811,1.81s-0.811,1.81-1.811,1.81H56.311
	c-1,0-1.809-0.81-1.809-1.81s0.809-1.81,1.809-1.81l12.953-0.032v-1.902L58.688,15.487z"/>
<path d="M56.166,28.769c0-3.924,7.488-7.107,16.723-7.107s16.723,3.184,16.723,7.107c0,3.926-7.488,7.107-16.723,7.107
	S56.166,32.695,56.166,28.769 M72.889,32.466c5.383,0,9.748-1.654,9.748-3.697c0-2.041-4.365-3.697-9.748-3.697
	c-5.385,0-9.748,1.656-9.748,3.697C63.141,30.812,67.504,32.466,72.889,32.466"/>
<path d="M98.473,24.314c0-1,0.809-1.811,1.809-1.811h28.641c1,0,1.809,0.811,1.809,1.811v8.021c0,0.998-0.809,1.809-1.809,1.809
	h-28.641c-1,0-1.809-0.811-1.809-1.809V24.314z M105.332,30.552h18.42v-4.516h-18.42V30.552z"/>
<path fill="#FFFFFF" d="M27.016,41.218c13.35,0,24.17-9.227,24.17-20.609S40.365,0,27.016,0S2.844,9.227,2.844,20.609
	S13.666,41.218,27.016,41.218"/>
<path fill="#ED1C24" d="M4.574,20.609c0-10.567,10.047-19.133,22.441-19.133c12.393,0,22.439,8.566,22.439,19.133
	c0,10.566-10.047,19.132-22.439,19.132C14.621,39.742,4.574,31.175,4.574,20.609 M27.016,23.853c3.936,0,7.127-4.593,7.127-10.259
	c0-5.665-3.191-10.259-7.127-10.259c-3.938,0-7.127,4.594-7.127,10.259C19.889,19.26,23.078,23.853,27.016,23.853"/>
</svg>
