<?xml version="1.0" encoding="utf-8"?>
<!-- Generator: Adobe Illustrator 16.0.0, SVG Export Plug-In . SVG Version: 6.00 Build 0)  -->
<!DOCTYPE svg PUBLIC "-//W3C//DTD SVG 1.1//EN" "http://www.w3.org/Graphics/SVG/1.1/DTD/svg11.dtd">
<svg version="1.1" id="Layer_1" xmlns="http://www.w3.org/2000/svg" xmlns:xlink="http://www.w3.org/1999/xlink" x="0px" y="0px"
	 width="928px" height="928px" viewBox="0 0 928 928" enable-background="new 0 0 928 928" xml:space="preserve">
<path fill-rule="evenodd" clip-rule="evenodd" fill="#F9B6AA" d="M577.777,534.803c13.648,0.041,27.297,0.129,40.945,0.113
	c29.896-0.035,59.73,1.252,89.517,3.838c14.671,1.277,23.948,10.012,25.354,24.385c1.046,10.683-0.401,21.318-2.382,31.69
	c-1.904,9.951-10.4,11.932-19.244,12.235c-0.257-1.707-0.878-3.703-2.642-3.73c-10.536-0.16-21.077-0.232-31.606,0.109
	c-2.595,0.085-4.949,2.2-5.134,5.216c-0.173,2.806,2.237,3.889,4.372,4.717c9.904,3.832,20.088,6.248,30.817,5.53
	c-8.423,45.172-21.096,89.29-33.62,133.414c-9.625,33.912-18.133,68.248-33.906,100.14c-5.131,10.378-12.565,18.908-20.414,26.971
	c-9.503,9.766-22.235,12.989-35.47,13.727c-8.31,0.464-16.648,1.779-24.843,1.817c-27.011,0.128-53.94,3.903-80.939,2.118
	c-17.878-1.181-35.806-2.316-53.424-6.183c-28.799-6.314-44.997-25.238-53.83-52.199c-5.497-16.777-11.267-33.473-14.75-50.799
	c-5.923-29.466-18.214-57.023-25.431-86.087c-2.882-11.614-6.772-22.987-8.213-34.935c6.043-1.576,12.214-2.774,18.1-4.796
	c29.353-10.087,33.475-20.298,20.633-48.562c-6.76-14.873-13.512-29.694-22.305-43.519c-4.052-6.368-3.942-13.646,1.584-18.196
	c5.117-4.215,9.657,1.13,13.567,4.802c1.183,1.114,2.721,1.849,4.1,2.756c0.792,1.229,1.579,2.463,2.365,3.7
	c9.865,19.598,19.33,39.275,20.28,61.867c0.262,6.239,4.063,9.189,10.291,5.957c6.496-3.371,12.979-6.839,19.115-10.812
	c17.474-11.316,21.372-21.905,16.646-42.438c-3.28-14.248-10.705-26.447-18.207-38.654c5.341-0.977,11.025,0.73,16.136-2.063
	c3.26,2.533,4.831,6.229,6.84,9.666c5.97,10.219,8.588,21.52,11.249,32.87c0.904,3.86,1.971,9.697,8.315,5.363
	c17.121-11.699,31.79-25.257,33.936-47.667c3.941-0.166,7.883-0.333,11.824-0.496c14.638-0.091,29.274-0.185,43.911-0.279
	C553.456,535.5,565.727,537.668,577.777,534.803z M589.546,697.228c0.662,0.6,1.327,1.199,1.993,1.802
	c3.458,0.851,6.913,1.701,10.372,2.552c-1.187,0.53-2.326,1.317-3.568,1.547c-3.951,0.728-8.693,0.929-8.411,6.377
	c0.295,5.692,4.566,7.629,9.795,7.651c4.983,0.019,9.971-0.022,14.954-0.088c3.251-0.044,6.17-1.055,6.631-4.667
	c0.452-3.524-2.225-5.386-5.037-6.628c-2.551-1.127-6.279-0.179-7.021-4.268c0.923-0.148,1.849-0.299,2.771-0.446
	c1.814-0.938,4.544,0.446,5.668-2.237l-0.248,0.15c4.632,0.489,8.162-1.776,11.787-4.293c13.193-9.154,12.889-28.003,7.843-40.703
	c-2.959-7.447-6.142-15.595-16.247-16.367l0.615-0.003c-0.232-1.904-1.952-2.043-3.227-2.711c-4.98-2.514-10.271-2.423-15.622-1.858
	c-27.118-5.128-43.763,25.486-34.825,44.909c3.625,7.877,7.212,16.935,18.761,16.071l-0.519,0.292
	c-0.094,2.45,1.972,2.294,3.449,2.853L589.546,697.228z M481.41,680.846l-0.308,0.173c7.438-8.203,9.01-23.559,2.712-34.135
	c-2.963-4.978-4.987-12.099-13.351-10.812l0.157-0.594l0.587,0.173c-0.462-2.454-2.499-2.385-4.308-2.677
	c-4.968-2.436-10.074-4.328-15.743-3.988c-17.187-1.394-28.984,7.66-36.142,21.625c-6.429,12.541-6.931,26.29,2.429,38.576
	c8.429,11.068,20.162,13.036,33.021,11.76c12.288-0.55,21.719-6.306,29.021-15.934C480.13,683.623,480.77,682.233,481.41,680.846z
	 M515.488,763.38c-0.994,1.772-1.647,3.587-0.706,5.602c2.981,9.531,10.545,3.76,15.833,4.196c5.084,0.417,2.532-4.915,3.204-7.752
	c0.675-2.859-1.701-7.196,3.69-7.688c5.536-0.509,4.375,4.259,4.724,6.973c0.844,6.604,4.321,8.546,10.325,7.09
	c6.057-1.476,12.738-3.396,10.406-11.452c-1.789-6.182,0.973-7.346,5.536-8.827c13.347-4.331,26.041-10.222,37.995-17.534
	c4.557-2.787,9.719-5.523,11.586-14.523c-31.072,15.751-59.646,31.291-94.296,30.187c-34.013-1.086-64.814-9.427-92.849-28.451
	c2.536-3.208,6.846-1.789,9.905-3.832c2.471-1.65,5.774-2.859,5.707-6.167c-0.088-4.117-4.123-5.09-7.13-5.614
	c-4.489-0.784-9.166-0.505-13.765-0.668c-4.77-0.17-10.257-0.041-11.218,5.504c-0.814,4.698,3.636,7.146,7.901,8.546
	c1.621,4.195,4.47,6.882,8.58,9.038c8.511,4.463,16.487,9.945,24.97,14.468c4.055,2.159,5.476,4.274,3.063,8.379
	c-4.891,8.323-2.669,12.127,6.746,15.729c11.089,4.243,13.227-1.927,16.016-9.368c0.816-2.172,1.752-4.924,4.773-3.437
	c2.37,1.165,0.77,3.506,0.305,5.298c-0.957,3.725-3.564,7.569,0.637,10.902c7.912,6.283,18.055,2.755,20.509-7.093
	c0.591-2.369-0.319-5.655,3.942-5.433C516.119,757.671,514.513,761.277,515.488,763.38z"/>
<path fill-rule="evenodd" clip-rule="evenodd" fill="#76A592" d="M22.248,179.646c13.371-24.293,35.245-36.322,61.586-39.012
	c35.698-3.641,64.258,8.674,80.834,42.596c1.084,2.219,1.533,6.355,4.458,5.743c3.337-0.697,4.668-4.601,4.538-8
	c-0.374-9.75-2.71-19.109-6.697-28.015c-8.174-18.256-18.518-34.766-36.781-44.74c-6.203-3.389-12.71-5.743-19.84-6.342
	c-2.722-0.229-6.557,1.258-7.559-2.919c-0.791-3.298,1.555-5.677,3.705-7.779c9.55-9.333,21.463-14.932,33.807-18.864
	c37.452-11.922,27.855-15.547,52.825,15.475c15.434,19.175,26.267,40.901,33.761,64.329c1.063,3.323,1.176,7.902,5.854,8.297
	c4.072,0.342,6.683-2.991,8.786-5.903c7.037-9.738,4.849-20.76,2.032-30.809c-6.576-23.449-19.714-42.963-39.745-57.176
	c-5.18-3.675-5.381-5.809-0.433-9.29c21.223-14.925,45.189-20.59,70.694-21.136c3.997-0.085,6.84,2.429,9.781,4.572
	c18.902,13.774,26.093,33.545,29.587,55.739c3.192,20.289-0.009,39.73-4.93,59.179c-0.97,3.838-2.909,8.297,1.011,11.063
	c3.466,2.444,6.928-0.841,10.042-2.476c10.102-5.301,14.562-14.251,15.512-25.21c0.344-3.986,0.716-8.059,0.286-12.004
	c-3.322-30.375-1.688-61.375-10.949-90.995c-1.734-5.552,0.13-6.778,4.907-5.957c25.64,4.406,51.165,9.261,73.146,24.526
	c5.208,3.615,7.348,9.346,9.195,15.111c13.796,43.076,2.967,80.707-25.329,114.472c-3.421,4.083-6.826,8.178-10.212,12.289
	c-0.187,0.229-0.15,0.644-0.216,0.973c1.491,1.293,3.108,1.02,4.527,0.053c29.233-19.912,53.36-43.073,56.88-81.354
	c1.508-16.407,6.997-18.149,19.674-6.75c17.572,15.798,29.277,35.007,31.691,59.361c2.94,29.669-1.78,57.594-16.392,83.707
	c-26.887-7.23-54.087-13.171-83.242-18.503c55.851-30.576,61.704-35.124,63.172-48.603c-2.406-0.759-3.755,1.007-5.023,2.392
	c-17.342,18.917-39.695,29.864-62.459,40.562c-8.135,3.823-15.452,2.078-23.208,1.616c-3.962-0.235-8.054-0.581-11.793-1.782
	c-8.856-2.843-18.585-0.104-28.335-4.52c17.293-18.098,35.138-35.124,43.357-58.632c7.858-22.479,14.649-45.37,14.505-72.19
	c-5.073,5.404-5.146,9.453-6.145,13.225c-9.889,37.465-20.058,74.421-48.874,103.457c-10.035,10.111-18.118,17.59-32.943,13.356
	c-4.337-1.24-9.291-0.267-13.962-0.398c-17.981-0.509-35.999,0.684-53.953-1.639c-4.525-0.586-6.273-1.936-6.539-6.609
	c-2.361-41.924-21.552-76.314-48.505-107.138c-2.745-3.138-5.743-6.138-10.615-6.408c-0.123,4.629,3.342,6.192,5.31,8.637
	c22.282,27.683,39.241,57.811,44.313,93.671c2.448,17.317,2.697,17.345-15.17,15.588C133.885,212.752,77.51,198.627,22.248,179.646z
	 M262.137,215.329c4.557-1.359,4.634-3.142,5.166-4.664c7.836-22.351,9.155-45.559,7.451-68.794
	c-1.459-19.922-5.439-39.57-17.94-56.109c-3.869-5.119-7.494-11.047-15.387-11.982c18.663,18.535,25.723,41.667,27.557,66.692
	C270.802,165.339,267.732,189.965,262.137,215.329z M87.827,147.479c-5.357,1.854-12.975-2.144-13.432,4.462
	c-0.3,4.315,7.361,1.167,11.1,2.828c0.604,0.267,1.243,0.521,1.892,0.625c19.36,3.063,36.345,12.217,53.566,20.797
	c2.166,1.08,5.02,3.628,6.928,0.408c1.403-2.366-1.527-4.124-3.141-5.599C128.356,156.034,108.225,150.445,87.827,147.479z
	 M407.493,102.093c-2.176-14.298-2.539-29.427-12.112-41.981c-1.748-2.288-3.177-6.251-6.502-4.776
	c-3.284,1.457-1.778,5.323-0.786,7.987c4.905,13.155,7.703,26.546,7.736,40.738c0.011,4.303-0.763,13.244,5.77,12.691
	C407.569,116.247,406.589,107.899,407.493,102.093z M276.629,49.512c-0.527,2.303-0.948,3.025-0.755,3.508
	c0.606,1.544,1.214,3.173,2.219,4.462c11.71,14.976,18.759,32.026,22.685,50.495c0.415,1.949,0.67,3.967,1.392,5.8
	c0.56,1.415,1.133,3.747,3.171,3.129c1.25-0.38,2.39-2.144,2.962-3.537c1.655-4.026-0.513-7.983-1.34-11.668
	C302.454,81.632,294.601,63.289,276.629,49.512z M449.546,141.146c-0.498-4.673,1.032-10.168-4.566-10.391
	c-5.726-0.223-2.862,5.445-3.84,8.483c-0.604,1.883-1.396,3.825-1.428,5.749c-0.046,2.765-1.952,6.939,1.477,7.934
	c3.758,1.092,5.282-3.132,6.661-6.022C448.819,144.865,449.156,142.53,449.546,141.146z"/>
<path fill-rule="evenodd" clip-rule="evenodd" fill="#76A592" d="M358.609,559.379c-1.375-0.91-2.913-1.645-4.096-2.759
	c-3.91-3.672-8.45-9.017-13.567-4.802c-5.526,4.551-5.636,11.828-1.584,18.196c8.793,13.824,15.545,28.646,22.305,43.519
	c12.842,28.264,8.72,38.475-20.633,48.562c-5.886,2.021-12.057,3.22-18.1,4.796c-22.027-1.701-44.018-2.357-65.843,2.111
	c4.122-23.954,14.162-45.941,22.853-68.37c0.342-0.882,2.134-1.202,3.25-1.786c0.32,7.444,7.75,8.42,11.757,12.387
	c5.669,5.608,9.547,13.128,17.245,17.957c-1.409-12.845-17.843-29.317-29.114-30.23c-0.544-3.051,0.059-5.896,1.391-8.665
	c6.734-13.99,12.371-28.605,21.805-41.111c6.674-8.841,10.138-18.447,9.427-29.516c6.692-1.208,8.302-7.218,10.859-12.014
	c11.601-21.754,25.351-42.074,40.463-61.494c2.046-2.633,4.121-7.067,8.725-4.221c9.803,6.063,20.179,11.433,27.502,20.8
	c-4.122,0.785-6.675-2.291-9.854-3.91c-3.49-1.776-6.767-4.544-11.014-3.917c-1.437,0.216-3.061,1.293-3.967,2.463
	c-1.235,1.598-0.174,3.656,1.337,4.102c11.868,3.515,19.482,13.488,29.803,19.3c1.63,0.92,3.721,2.482,5.199,0.166
	c1.221-1.914-0.273-3.69-1.483-5.338c-2.667-3.628-7.712-5.536-7.943-10.928c4.277-0.006,6.458,3.349,8.708,6.02
	c6.829,8.109,13.074,16.715,20,24.739c4.037,4.673,6.284,11.019,13.711,15.625c-2.714-7.202-4.731-12.268-7.684-17.091
	c-14.224-23.22-33.882-40.707-57.143-54.311c-5.571-3.257-7.165-5.715-2.458-11.313c10.458-12.421,19.894-25.718,30.576-37.936
	c5.765-6.59,9.057-15.421,17.358-19.762c1.009-1.418,2.017-2.831,3.025-4.25l-0.199,0.167c5.154-2.63,8.265-7.008,10.413-12.205
	c8.74-5.699,17.113-11.731,20.427-22.386c11.942-4.268,20.755-13.57,31.582-19.639c8.128,0.963,15.39-3.06,23.204-4.061
	c12.89-1.654,24.636,2.63,36.587,6.101c2.569,3.631,5.862,6.145,10.415,6.697c0.069,3.832,3.418,5.458,5.352,8.056
	c4.735,6.374,11.229,12.217,13.651,19.41c10.968,32.557,7.911,64.815-5.404,96.154c-3.119,7.347-7.089,15.557-16.89,6.132
	c-0.34-0.327-1.29-0.016-1.956-0.006c-9.926-14.828-24.83-23.475-39.721-32.214c-7.633-4.479-15.541-7.271-24.51-6.167
	c-1.934,0.239-4.426-0.075-4.802,2.46c-0.49,3.258,2.31,3.21,4.538,3.907c21.415,6.713,37.995,19.919,50.498,38.328
	c2.366,3.486,5.247,7.566,2.959,12.051c-11.188,21.921-25.182,41.814-42.894,59.574c-3.958-7.749-3.804-15.983-9.086-21.983
	c-0.655-1.083-1.39-2.125-1.961-3.252c-7.809-15.493-17.173-29.54-33.975-36.702c-7.43-10.102-18.29-14.797-29.236-19.426
	c8.412,9.227,17.469,17.508,26.559,25.756c0.714,0.649,1.659,1.042,2.497,1.557c5.916,8.179,12.037,16.216,17.699,24.566
	c7.758,11.451,13.476,23.519,8.407,37.892c-2.149,22.41-16.818,35.968-33.939,47.667c-6.344,4.334-7.411-1.503-8.315-5.363
	c-2.661-11.351-5.279-22.651-11.249-32.87c-2.009-3.437-3.58-7.133-6.84-9.669c-9.231-15.293-20.853-28.357-36.043-37.951
	c-4.704-2.972-11.917-4.927-14.77-1.048c-3.349,4.553,3.185,9.044,6.841,11.536c11.536,7.864,19.595,18.723,27.836,29.528
	c7.502,12.207,14.927,24.406,18.207,38.654c4.726,20.533,0.828,31.122-16.646,42.438c-6.136,3.973-12.619,7.44-19.115,10.812
	c-6.228,3.232-10.029,0.282-10.291-5.957c-0.95-22.592-10.415-42.27-20.28-61.867l0.344-0.302c3.066-0.69,7.356,1.978,9.071-1.858
	c1.676-3.75-1.367-6.947-3.794-9.631c-2.898-3.204-6.042-6.211-9.297-9.057c-1.969-1.721-4.331-1.686-6.285,0.291
	c-2.305,2.335-0.635,4.146,0.879,6.025c2.646,3.286,7.067,5.308,7.396,10.266L358.609,559.379z M475.184,433.101
	c11.907,6.32,16.338,21.001,29.764,27.435c-0.434-4.795-2.498-7.362-4.476-9.951c-11.36-14.897-24.755-27.758-39.65-39.053
	c-10.902-8.267-22.542-15.258-35.786-19.231c-2.578-0.775-5.789-2.134-6.629,1.484c-0.725,3.123,3.022,2.884,4.955,3.637
	c11.761,4.588,23.183,9.679,31.887,19.3c-6.779,0.154-11.583-4.713-17.444-6.901c-3.435-1.28-6.354-0.242-7.7,2.551
	c-1.625,3.377,1.735,4.566,4.139,5.521c11.908,4.732,21.625,12.823,31.83,20.226c3.527,2.558,7.372,8.25,11.637,5.357
	C481.197,441.119,473.771,437.306,475.184,433.101z M579.623,370.285c-1.724-20.292-11.527-35.704-28.863-46.054
	c-10.011-5.979-20.452-11.401-32.857-9.857c-3.961,0.493-7.476,1.999-7.494,6.402c-0.02,3.352,3.354,3.21,5.994,3.832
	c21.151,4.996,37.556,15.83,45.957,36.954c2.303,5.784,3.42,12.312,8.149,16.956c1.592,1.566,2.95,4.086,5.702,3.286
	c3.151-0.922,3.299-3.816,3.399-6.521C579.673,373.618,579.623,371.948,579.623,370.285z M336.1,503.932
	c25.111,22.25,43.944,49.497,61.478,77.779C386.077,548.624,364.792,523.329,336.1,503.932z"/>
<path fill-rule="evenodd" clip-rule="evenodd" fill="#236252" d="M553.44,314.376c-11.951-3.471-23.697-7.754-36.587-6.101
	c-7.814,1.001-15.076,5.024-23.204,4.061c0.188-19.495,11.644-32.908,25.068-44.796c20.72-18.346,44.124-32.189,71.058-39.542
	c2.149-0.587,5.586-0.612,5.42-3.354c-0.252-4.13-4.115-2.071-6.371-2.278c-4.306-0.396-8.662-0.261-12.996-0.342
	c6.428-4.789,13.959-5.542,21.595-5.894c30.049-1.39,58.749,2.834,84.263,20.289c0.38,0.289,0.76,0.578,1.14,0.866
	c-0.311-0.361-0.618-0.722-0.926-1.08c-2.868-9.437-11.913-13.102-18.403-18.911c-30.949-27.717-63.917-51.311-109.303-46.076
	c5.596-4.252,12.104-7.168,21.306-6.502c41.783,3.016,72.015,28.075,101.624,55.915c0.784-8.009-4.799-13.344-3.107-19.872
	c1.158-0.929,2.316-1.858,3.475-2.787c5.529,5.344,4.839,14.166,11.1,20.352c6.989-23.029,18.033-43.132,31.393-61.821
	c8.733-12.221,18.72-23.76,35.187-27.73c-0.374,1.723-0.289,2.639-0.678,2.931c-22.643,17.123-36.991,40.496-50.555,64.85
	c-10.786,19.366-15.735,37.901-2.278,57.75c0.916,1.35,1.346,3.035,2.002,4.566c0.122,2.429,0.063,4.968,3.289,5.567
	c3.669,8.257,8.433,15.861,13.683,23.189c3.142,4.381,5.878,5.231,10.237,0.835c14.696-14.813,32.904-23.719,52.867-28.8
	c10.134-2.58,20.646-5.238,31.242-1.218c-4.026,2.027-8.129,3.208-12.296,4.083c-24.077,5.053-46.551,13.821-66.29,28.788
	c-2.881,2.181-9.823,4.243-3.119,9.076c4.425,3.186,6.207,15.362,15.716,5.925c3.794-3.766,8.386-6.421,13.426-8.433
	c29.497-11.771,59.392-13.237,89.765-3.775c3.383,2.052,6.766,4.105,10.148,6.158c1.062,6.119-2.498,3.715-5.08,2.664
	c-18.921-7.705-38.284-10.542-58.579-6.452c-15.368,3.094-30.753,5.959-44.485,14.021c-3.486,2.046-8.313,3.663-3.845,9.669
	c11.91,16.015,22.379,33.222,35.391,48.254c10.827,12.515,14.784,26.895,18.148,42.056c-24.61,0.976-49.318,2.984-73.115-5.912
	c-12.717-4.751-12.983-5.747-6.744-17.22c2.837-5.213,6.938-11.122,0.627-16.103c-6.007-4.745-11.756-3.054-17.734,2.196
	c-31.906,28.028-45.69,64.684-50.94,105.412c-1.688,13.08-3.088,14.502-15.014,8.338c-16.435-8.495-30.419-20.22-43.098-36.108
	c-6.917,28.838-13.498,56.278-20.082,83.723c-12.051,2.865-24.321,0.697-36.457,1.595c5.768-28.524,11.526-57.051,17.288-85.578
	c0.666-0.009,1.616-0.32,1.956,0.006c9.801,9.424,13.771,1.214,16.89-6.132c13.315-31.339,16.372-63.597,5.404-96.154
	c-2.423-7.193-8.916-13.037-13.651-19.41c-1.934-2.599-5.282-4.224-5.352-8.056c5.59-7.045,11.553-13.836,19.053-18.805
	c5.947-3.938,8.132-8.988,7.68-16.814C574.172,290.632,563.956,302.708,553.44,314.376z M637.998,338.77
	c7.748-5.021,15.5-10.04,23.248-15.061c-9.69,0.505-17.122,5.005-23.813,10.95c-11.395,9.471-25.407,17.047-26.051,37.201
	C621.058,359.511,628.338,348.141,637.998,338.77z M642.633,271.171c-7.676-1.619-13.09,0.32-18.568,1.462
	c-2.439,0.509-3.029,2.523-2.756,4.604c0.477,3.631,3,1.723,4.45,1.152C630.83,276.403,636.646,276.117,642.633,271.171z"/>
<path fill-rule="evenodd" clip-rule="evenodd" fill="#236252" d="M462.067,331.976c-3.314,10.655-11.687,16.687-20.427,22.386
	c-1.02-2.963-2.038-5.925-3.06-8.888c0.347-8.307,1.078-16.617,0.965-24.918c-0.348-25.662-18.72-43.314-44.339-44.488
	c-37.461-1.72-67.236,15.56-95.648,36.865c-15.279,11.458-27.041,26.484-40.594,39.69c-4.877-1.055-9.731-2.225-14.634-3.142
	c-8.239-1.541-10.102-5.392-5.002-12.377c11.467-15.71,21.389-32.195,24.885-51.747c0.573-3.204,1.053-6.43,1.53-9.358
	c-2.25-1.519-2.881-0.088-3.451,0.967c-11.535,21.337-28.024,38.896-43.451,57.28c-7.571,9.022-16.556,12.641-28.721,12.748
	c-37.471,0.327-73.588-5.988-108.723-18.613c-2.983-1.07-7.433-1.117-7.778-5.122c-0.328-3.816,2.587-6.719,5.771-8.822
	c1.659-1.092,3.419-2.109,5.26-2.843c31.753-12.71,62.178-28.313,93.226-42.652c-5.363-6.503-10.967-6.098-18.299-2.618
	c-31.038,14.728-63.582,25.652-96.001,36.869c-8.688,3.006-13.512,0.948-16.078-8.178c-1.878-6.678-5.131-12.993-7.975-19.376
	c-5.415-12.161-3.799-16.329,8.944-20.882c17.871-6.386,35.842-12.496,53.743-18.804c10.362-3.65,20.698-7.375,30.981-11.245
	c2.126-0.797,6.402-0.333,5.054-4.353c-1.075-3.198-4.542-2.159-7.023-1.44c-11.513,3.348-23.038,6.672-34.441,10.362
	c-19.701,6.374-39.501,12.202-60.396,12.813c-13.838,0.405-17.196-2.081-19.282-15.779c-2.421-15.917-2.87-31.81,5.145-46.663
	c55.262,18.98,111.637,33.106,169.925,38.836c17.868,1.757,17.619,1.729,15.17-15.588c-5.071-35.861-22.03-65.989-44.313-93.671
	c-1.968-2.445-5.432-4.008-5.31-8.637c4.872,0.27,7.871,3.271,10.615,6.408c26.953,30.824,46.144,65.214,48.505,107.138
	c0.266,4.673,2.014,6.022,6.539,6.609c17.954,2.323,35.972,1.13,53.953,1.639c4.671,0.132,9.625-0.841,13.962,0.398
	c14.825,4.233,22.908-3.245,32.943-13.356c28.816-29.036,38.985-65.992,48.874-103.457c0.998-3.772,1.072-7.82,6.145-13.225
	c0.145,26.82-6.647,49.71-14.505,72.19c-8.219,23.509-26.063,40.534-43.357,58.632c9.75,4.416,19.479,1.676,28.335,4.52
	c3.739,1.202,7.832,1.547,11.793,1.782c7.756,0.461,15.073,2.207,23.208-1.616c22.765-10.698,45.117-21.645,62.459-40.562
	c1.268-1.384,2.617-3.151,5.023-2.392c-1.469,13.479-7.322,18.026-63.172,48.603c29.155,5.332,56.354,11.273,83.242,18.503
	c-4.142,12.192-11.744,22.159-20.804,30.953c-3.703,3.596-4.114,6.446-2.309,11.188C453.869,306.866,457.82,319.479,462.067,331.976
	z"/>
<path fill-rule="evenodd" clip-rule="evenodd" fill="#76A592" d="M852.18,294.106c-30.373-9.462-60.268-7.996-89.765,3.775
	c-5.04,2.012-9.632,4.667-13.426,8.433c-9.509,9.437-11.291-2.74-15.716-5.925c-6.704-4.833,0.238-6.895,3.119-9.076
	c19.739-14.966,42.213-23.735,66.29-28.788c4.167-0.875,8.27-2.056,12.296-4.083c-10.596-4.02-21.108-1.362-31.242,1.218
	c-19.963,5.081-38.171,13.987-52.867,28.8c-4.359,4.396-7.096,3.546-10.237-0.835c-5.25-7.328-10.014-14.932-13.68-23.186
	c14.251-36.379,41.281-60.183,76.006-76.722c-11.254-0.352-21.246,2.545-30.049,8.721c-22.617,15.871-41.636,34.678-49.249,62.43
	c-0.656-1.531-1.086-3.216-2.002-4.566c-13.457-19.85-8.508-38.384,2.278-57.75c13.563-24.354,27.912-47.727,50.555-64.85
	c0.389-0.292,0.304-1.208,0.678-2.931c-16.467,3.97-26.453,15.509-35.187,27.73c-13.359,18.688-24.403,38.792-31.393,61.821
	c-6.261-6.186-5.57-15.007-11.1-20.352c4.274-10.388,1.764-20.644-2.087-30.168c-6.516-16.1-0.483-28.797,9.625-40.273
	c20.295-23.048,47.19-28.982,76.276-26.842c16.952,1.246,33.714,4.638,49.054,12.745c17.816,9.415,24.359,22.935,20.635,40.904
	c-1.134,5.451-3.506,8.345-8.916,8.837c-8.95-0.605-17.672-2.533-26.481-4.136c-27.582-5.012-44.111,4.516-49.804,30.576
	c3.147-3.439,6.013-6.195,8.441-9.29c9.252-11.771,21.409-18.189,36.235-17.922c10.531,0.191,21.035,2.231,31.552,3.446
	c8.674,4.255,17.323,8.561,26.029,12.745c12.354,5.944,17.172,17.286,19.959,29.396c2.608,11.364-1.805,15.161-12.979,11.477
	c-14.848-4.89-29.896-6.493-45.333-4.877c-12.606,1.324-24.3,5.278-34.398,13.99c10.284-2.652,20.437-6.179,30.881-7.78
	c24.362-3.731,47.237,2.621,67.413,15.566c10.768,6.908,10.99,21.71,13.887,33.347c2.508,10.083,6.004,18.993,11.06,28.075
	c15.691,28.182,15.312,57.977,5.448,87.957c-2.793,8.495-7.561,4.572-10.758,0.27c-18.868-25.357-45.876-38.939-73.556-51.747
	c-7.12-3.295-13.871-4.148-21.547-0.725c2.934,6.512,9.327,8.257,14.828,10.595c16.607,7.042,28.533,19.586,38.836,33.542
	c9.431,12.77,4.887,24.51-10.334,29.217c-12.227,3.782-24.868,4.302-37.578,3.581c-3.364-15.161-7.321-29.541-18.148-42.056
	c-13.012-15.033-23.48-32.24-35.391-48.254c-4.469-6.007,0.358-7.623,3.845-9.669c13.732-8.062,29.117-10.927,44.485-14.021
	c20.295-4.089,39.658-1.252,58.579,6.452c2.582,1.051,6.142,3.455,5.077-2.661c5.308-0.292,9.157,3.364,13.721,5.09
	c1.544,0.583,3.292,1.509,4.579,0.091c1.92-2.118-0.295-3.493-1.44-4.921c-5.417-6.731-13.576-9.066-20.811-12.873
	c-2.087-1.095-4.541-2.065-6.559-0.625C848.658,289.282,852.615,291.687,852.18,294.106z M789.981,172.315
	c-6.97-0.267-14.366-0.464-20.825,3.857c-1.908,1.274-3.741,3.198-2.74,5.875c1.13,3.006,3.731,2.125,5.976,1.713
	c14.204-2.602,28.411-2.338,42.634-0.153c2.128,0.326,5.015,1.773,5.881-1.479c0.605-2.269-1.857-3.182-3.577-4.127
	C808.918,173.386,799.877,171.707,789.981,172.315z M794.639,119.2c0.65-2.015-0.028-3.104-1.13-3.941
	c-9.794-7.457-47.566-9.908-58.124-3.816c-1.472,0.847-3.248,1.72-2.551,3.65c0.932,2.58,3.373,3.123,5.824,2.752
	C757.429,114.998,776.154,114.578,794.639,119.2z M838.434,234.959c-8.725-7.313-17.652-8.621-26.992-8.414
	c-2.42,0.057-4.833,0.992-4.67,4.026c0.126,2.357,2.193,3.524,4.218,3.415C819.585,233.512,827.852,238.474,838.434,234.959z"/>
<path fill-rule="evenodd" clip-rule="evenodd" fill="#74A38F" d="M258.964,352.623c13.553-13.206,25.315-28.232,40.594-39.69
	c28.413-21.306,58.187-38.585,95.648-36.865c25.62,1.174,43.991,18.826,44.339,44.488c0.113,8.301-0.618,16.611-0.965,24.918
	c-0.451,1.054-0.899,2.109-1.35,3.167c-1.481,0.944-1.823,2.397-1.798,4.017l0.281-0.11c-2.898-0.357-3.94,1.912-5.376,3.716
	c-13.639,17.135-27.419,34.16-40.936,51.39c-27.24,34.722-56.205,68.292-74.184,109.307c-1.255-9.023-8.136-12.371-15.327-15.823
	c-15.59-7.481-30.952-15.422-46.475-23.035c-15.443-7.573-31.187-14.204-48.877-13.959c6.399-37.594,24.382-69.824,46.384-100.196
	C253.638,360.195,256.284,356.398,258.964,352.623z M298.778,368.938c-2.186,0.034-4.842-1.531-6.059,1.786
	c-5.443,1.707-3.865,5.809-2.36,8.903c2.164,4.453,4.481,9.365,8.106,12.481c13.559,11.659,22.176,27.341,33.982,40.402
	c7.301,8.078,14.727,10.805,21.552,6.242c7.415-4.956,9-13.2,3.711-22.985c-10.87-20.106-26.924-35.394-45.832-47.827
	C307.488,365.05,302.743,363.409,298.778,368.938z M317.364,463.762c0.297-3.782-0.838-7.67-3.457-10.792
	c-11.203-13.363-23.763-25.144-40.244-31.782c-6.634-2.67-14.082-4.688-19.215,2.097c-5.055,6.675-3.054,14.373,1.611,20.377
	c11.373,14.63,25.384,26.317,42.621,33.526C308.927,481.475,317.476,475.238,317.364,463.762z M385.295,280.072
	c-6.962,0.791-13.799,1.958-19.368,6.763c-2.148,1.854-3.349,4.346-2.172,7.143c1.406,3.342,4.445,2.922,6.77,1.635
	c10.581-5.859,20.526-3.054,30.509,1.588c2.696,1.252,5.575,2.288,8.479,2.862c3.228,0.64,7.187,1.321,8.818-2.473
	c1.491-3.458-1.928-5.539-4.177-7.13C405.57,284.387,395.741,281.541,385.295,280.072z M396.157,387.234
	c-6.018-24.639-60.981-68.734-76.516-62.175C351.382,338.466,375.865,360.302,396.157,387.234z M334.19,451.362
	c-19.526-22.869-45.358-37.449-70.456-53.027C285.523,418.2,311.143,433.047,334.19,451.362z"/>
<path fill-rule="evenodd" clip-rule="evenodd" fill="#236252" d="M204.538,464.142c17.691-0.245,33.434,6.386,48.877,13.959
	c15.523,7.613,30.885,15.554,46.475,23.035c7.191,3.452,14.072,6.8,15.327,15.823c0.162,0.9,0.326,1.805,0.488,2.708
	c0.711,11.068-2.753,20.675-9.427,29.516c-9.434,12.506-15.07,27.121-21.805,41.111c-1.332,2.769-1.935,5.614-1.391,8.665
	l0.112-0.113c-1.116,0.584-2.908,0.904-3.25,1.786c-8.691,22.429-18.731,44.416-22.853,68.37c-2.396,1.104-4.721,2.414-7.205,3.261
	c-3.363,1.148-5.258-0.091-4.631-3.845c1.913-11.426-3.437-19.853-11.316-27.099c-12.82-11.781-24.641-24.356-33.349-39.599
	c-5.455-9.55-8.214-19.658-6.66-30.68c1.365-9.67,6.312-14,16.059-14.066c11.304-0.078,22.61-0.019,34.171-1.44
	c-11.677-2.307-23.429-4.309-35.006-7.042c-6.215-1.466-14.773-1.208-16.344-9.195c-1.98-10.07-2.044-20.653,1.384-30.579
	c1.445-4.184,6.354-3.431,9.777-2.831c9.5,1.657,18.929,3.763,28.326,5.953c7.465,1.742,14.909,2.182,22.623,0.775
	c-15.236-3.217-29.892-8.059-44.765-12.086c-8.66-2.341-11.293-6.725-9.347-15.151C202.425,478.386,203.322,471.228,204.538,464.142
	z"/>
<path fill-rule="evenodd" clip-rule="evenodd" fill="#76A592" d="M674.016,200.758c-1.691,6.528,3.892,11.863,3.107,19.872
	c-29.609-27.839-59.841-52.899-101.624-55.915c-9.201-0.666-15.71,2.25-21.306,6.502c45.386-5.235,78.354,18.359,109.303,46.076
	c6.49,5.809,15.535,9.475,18.403,18.911l-0.214,0.217c-25.514-17.458-54.214-21.683-84.263-20.292
	c-7.636,0.352-15.167,1.105-21.595,5.894c-19.834,2.018-39.586,3.575-59.564,0.581c-16.806-2.523-21.277-7.975-17.574-24.642
	c8.655-38.937,52.686-78.379,91.779-81.464c15.653-1.233,29.93,4.158,41.055,15.048c17.741,17.371,33.756,36.131,34.48,62.976
	C666.154,200.089,669.479,201.084,674.016,200.758z M585.479,131.964c-7.504,0.342-13.269-0.75-18.459,2.498
	c-2.943,1.839-4.033,4.396-3.173,7.647c0.69,2.596,2.504,3.826,5.278,3.245c18.551-3.888,35.528-0.069,51.346,10.124
	c2.256,1.45,5.617,4.472,7.927,1.334c1.902-2.586-1.029-5.574-2.918-7.773C614.464,136.178,599.959,131.76,585.479,131.964z"/>
<path fill-rule="evenodd" clip-rule="evenodd" fill="#EF7E69" d="M707.774,618.906c-10.729,0.718-20.913-1.698-30.817-5.53
	c-2.135-0.828-4.545-1.911-4.372-4.717c0.185-3.016,2.539-5.131,5.134-5.216c10.529-0.342,21.07-0.27,31.606-0.109
	c1.764,0.027,2.385,2.023,2.642,3.73C710.57,611.01,709.174,614.958,707.774,618.906z"/>
<path fill-rule="evenodd" clip-rule="evenodd" fill="#F5F4F4" d="M822.021,165.848c-10.517-1.215-21.021-3.254-31.552-3.446
	c-14.826-0.267-26.983,6.151-36.235,17.922c-2.429,3.095-5.294,5.85-8.441,9.29c5.692-26.06,22.222-35.588,49.804-30.576
	c8.81,1.604,17.531,3.531,26.481,4.136C822.059,164.068,822.039,164.959,822.021,165.848z"/>
<path fill-rule="evenodd" clip-rule="evenodd" fill="#1B1515" d="M479.486,685.014c-7.303,9.628-16.733,15.384-29.021,15.93
	c-3.98-3.408-8.501-6.072-11.726-10.484c-14.488-19.834-9.663-44.185,12.418-61.473c5.669-0.34,10.775,1.553,15.745,3.988
	c1.12,1.402,1.733,3.615,4.306,2.677l-0.587-0.173c0,0-0.157,0.594-0.154,0.584c10.658,13.297,13.071,28.553,10.636,44.956
	l0.308-0.173C479.553,681.675,479.637,683.397,479.486,685.014z"/>
<path fill-rule="evenodd" clip-rule="evenodd" fill="#F5F4F4" d="M558.608,450.819c-5.762,28.527-11.521,57.054-17.288,85.578
	c-14.644,0.088-29.28,0.182-43.918,0.276c-0.602-9.968-1.205-19.935-1.811-29.898c5.282,6,5.128,14.234,9.086,21.983
	c17.712-17.76,31.706-37.653,42.894-59.574c2.288-4.484-0.593-8.564-2.959-12.051c-12.503-18.409-29.083-31.615-50.498-38.328
	c-2.229-0.697-5.028-0.649-4.538-3.907c0.376-2.536,2.868-2.222,4.802-2.46c8.969-1.104,16.877,1.688,24.51,6.167
	C533.778,427.345,548.683,435.991,558.608,450.819z"/>
<path fill-rule="evenodd" clip-rule="evenodd" fill="#1B1515" d="M430.937,721.198c28.035,19.024,58.836,27.365,92.849,28.451
	c34.65,1.104,63.224-14.436,94.296-30.187c-1.867,9-7.029,11.736-11.586,14.523c-11.954,7.313-24.648,13.203-37.995,17.534
	c-4.563,1.481-7.325,2.646-5.536,8.827c2.332,8.057-4.35,9.977-10.406,11.452c-6.004,1.456-9.481-0.486-10.325-7.09
	c-0.349-2.714,0.813-7.481-4.724-6.973c-5.392,0.492-3.016,4.829-3.69,7.688c-0.672,2.837,1.88,8.169-3.204,7.752
	c-5.288-0.437-12.852,5.335-15.833-4.196c1.607-0.047,3.214-0.104,4.817-0.157c1.002-0.024,2.006-0.024,3.004-0.091
	c3.141-0.2,7.309,0.92,6.747-4.557c-0.264-2.57,1.686-6.179-3.361-6.819c-4.854-0.612-6.638,1.616-7.029,5.9
	c-1.158,0.04-2.313,0.084-3.472,0.128c-0.976-2.108,0.631-5.715-3.611-5.935c-4.262-0.223-3.352,3.063-3.942,5.433
	c-2.454,9.848-12.597,13.376-20.509,7.093c-4.201-3.333-1.594-7.178-0.637-10.902c0.465-1.792,2.065-4.133-0.305-5.298
	c-3.021-1.487-3.957,1.265-4.773,3.437c-2.789,7.441-4.927,13.611-16.016,9.368c-9.415-3.603-11.637-7.406-6.746-15.729
	c2.414-4.104,0.992-6.22-3.063-8.379c-8.483-4.522-16.459-10.005-24.97-14.468c-4.11-2.156-6.959-4.843-8.58-9.038
	C425.646,718.007,428.088,720.397,430.937,721.198z M479.929,751.209c-5.73,0.941-10.899-8.103-14.96,1.66
	c-1.202,2.888-2.608,5.006,1.596,7.121C474.808,764.143,475.902,757.307,479.929,751.209z M497.402,767.184
	c6.49,0.483,4.827-7.052,8.825-8.982c-2.325-1.399-4.425-2.997-7.45-3.135c-5.943-0.276-5.84,4.598-6.638,7.962
	C491.258,766.75,495.105,766.38,497.402,767.184z M557.24,761.854c-1.578-2.26-1.236-6.054-5.033-6.519
	c-3.296-0.404-4.975,1.243-4.586,4.529c0.271,2.303-1.255,6.063,2.655,6.113C552.815,766.013,556.327,765.627,557.24,761.854z"/>
<path fill-rule="evenodd" clip-rule="evenodd" fill="#1B1515" d="M612.025,701.06c-0.923,0.147-1.849,0.298-2.765,0.446
	c-2.448,0.021-4.899,0.05-7.35,0.075c-3.459-0.851-6.914-1.701-10.372-2.552c-0.666-0.603-1.331-1.202-1.993-1.802
	c0,0-0.085-0.065-0.085-0.068c-0.882-1.277-1.271-3.145-3.449-2.85c0,0,0.519-0.292,0.516-0.282
	c-10.695-24.799-5.182-45.719,16.067-60.99c5.351-0.564,10.642-0.655,15.622,1.858c0.822,1.205,1.212,2.925,3.227,2.711
	c0,0-0.615,0.003-0.608,0c1.205,2.322,2.435,4.629,3.6,6.971c9.734,19.623,6.938,41.356-6.989,54.396l0.248-0.15
	C615.591,699.026,613.488,699.227,612.025,701.06z"/>
<path fill-rule="evenodd" clip-rule="evenodd" fill="#F5F4F4" d="M451.157,628.986c-22.081,17.288-26.906,41.639-12.418,61.473
	c3.225,4.412,7.746,7.076,11.726,10.484c-12.859,1.28-24.591-0.688-33.021-11.756c-9.36-12.286-8.858-26.035-2.429-38.576
	C422.173,636.646,433.97,627.593,451.157,628.986z"/>
<path fill-rule="evenodd" clip-rule="evenodd" fill="#F5F4F4" d="M602.595,633.037c-21.249,15.271-26.763,36.191-16.067,60.99
	c-11.546,0.854-15.133-8.204-18.758-16.081C558.832,658.523,575.477,627.909,602.595,633.037z"/>
<path fill-rule="evenodd" clip-rule="evenodd" fill="#286656" d="M495.592,506.775c0.605,9.964,1.209,19.931,1.811,29.898
	c-3.941,0.159-7.883,0.326-11.824,0.492c5.071-14.373-0.646-26.44-8.404-37.892c-5.662-8.351-11.783-16.388-17.699-24.566
	c0.061-2.627,0.119-5.257,0.181-7.887c16.802,7.162,26.167,21.209,33.975,36.702C494.202,504.65,494.937,505.692,495.592,506.775z"
	/>
<path fill-rule="evenodd" clip-rule="evenodd" fill="#F5F4F4" d="M409.103,538.996c-8.241-10.806-16.3-21.664-27.836-29.528
	c-3.656-2.492-10.19-6.983-6.841-11.536c2.853-3.879,10.066-1.924,14.77,1.048c15.191,9.594,26.812,22.658,36.043,37.951
	C420.127,539.727,414.444,538.02,409.103,538.996z"/>
<path fill-rule="evenodd" clip-rule="evenodd" fill="#F5F4F4" d="M617.445,698.973c13.928-13.039,16.724-34.772,6.989-54.396
	c-1.165-2.342-2.395-4.648-3.6-6.971c10.099,0.775,13.281,8.923,16.24,16.37c5.046,12.7,5.351,31.549-7.843,40.703
	C625.607,697.196,622.077,699.462,617.445,698.973z"/>
<path fill-rule="evenodd" clip-rule="evenodd" fill="#EF7E69" d="M601.911,701.581c2.45-0.025,4.901-0.054,7.35-0.079
	c0.734,4.093,4.463,3.145,7.014,4.271c2.813,1.242,5.489,3.104,5.037,6.628c-0.461,3.612-3.38,4.623-6.631,4.667
	c-4.983,0.065-9.971,0.106-14.954,0.088c-5.229-0.022-9.5-1.959-9.795-7.651c-0.282-5.448,4.46-5.649,8.411-6.377
	C599.585,702.898,600.725,702.111,601.911,701.581z"/>
<path fill-rule="evenodd" clip-rule="evenodd" fill="#EF7E69" d="M430.937,721.198c-2.849-0.801-5.291-3.191-8.6-2.231
	c-4.265-1.399-8.715-3.848-7.901-8.546c0.96-5.545,6.448-5.674,11.218-5.504c4.599,0.163,9.275-0.116,13.765,0.668
	c3.008,0.524,7.042,1.497,7.13,5.614c0.067,3.308-3.236,4.517-5.707,6.167C437.783,719.409,433.473,717.99,430.937,721.198z"/>
<path fill-rule="evenodd" clip-rule="evenodd" fill="#F5F4F4" d="M481.103,681.019c2.436-16.403,0.022-31.659-10.636-44.956
	c8.36-1.277,10.385,5.844,13.348,10.821C490.112,657.46,488.54,672.815,481.103,681.019z"/>
<path fill-rule="evenodd" clip-rule="evenodd" fill="#236252" d="M519.6,768.824c-1.604,0.054-3.21,0.11-4.817,0.157
	c-0.941-2.015-0.288-3.829,0.706-5.599c1.158-0.041,2.313-0.085,3.472-0.129C519.176,765.112,519.39,766.97,519.6,768.824z"/>
<path fill-rule="evenodd" clip-rule="evenodd" fill="#F5F4F4" d="M612.025,701.06c1.463-1.833,3.565-2.033,5.668-2.237
	C616.569,701.506,613.84,700.121,612.025,701.06z"/>
<path fill-rule="evenodd" clip-rule="evenodd" fill="#F5F4F4" d="M586.012,694.31c2.179-0.295,2.567,1.572,3.449,2.85
	C587.983,696.604,585.918,696.76,586.012,694.31z"/>
<path fill-rule="evenodd" clip-rule="evenodd" fill="#F5F4F4" d="M471.208,635.651c-2.572,0.938-3.186-1.274-4.306-2.677
	C468.709,633.267,470.746,633.197,471.208,635.651z"/>
<path fill-rule="evenodd" clip-rule="evenodd" fill="#F5F4F4" d="M621.443,637.606c-2.015,0.214-2.404-1.506-3.227-2.711
	C619.491,635.563,621.211,635.702,621.443,637.606z"/>
<path fill-rule="evenodd" clip-rule="evenodd" fill="#F5F4F4" d="M479.486,685.014c0.15-1.616,0.066-3.339,1.924-4.168
	C480.77,682.233,480.13,683.623,479.486,685.014z"/>
<path fill-rule="evenodd" clip-rule="evenodd" fill="#76A592" d="M360.979,563.076c-0.786-1.237-1.572-2.471-2.365-3.7
	c-0.004,0.003,0.678-0.565,0.676-0.565c1.681,0.807,2.057,2.281,2.032,3.964L360.979,563.076z"/>
<path fill-rule="evenodd" clip-rule="evenodd" fill="#F5F4F4" d="M589.546,697.228c0.662,0.6,1.327,1.199,1.993,1.802
	C590.873,698.427,590.208,697.827,589.546,697.228z"/>
<path fill-rule="evenodd" clip-rule="evenodd" fill="#468E7A" d="M262.137,215.329c5.596-25.364,8.665-49.99,6.846-74.857
	c-1.834-25.025-8.894-48.157-27.557-66.692c7.893,0.935,11.518,6.863,15.387,11.982c12.501,16.539,16.481,36.188,17.94,56.109
	c1.704,23.236,0.386,46.443-7.451,68.794C266.771,212.188,266.693,213.97,262.137,215.329z"/>
<path fill-rule="evenodd" clip-rule="evenodd" fill="#99CCB7" d="M87.827,147.479c20.397,2.965,40.529,8.555,56.913,23.521
	c1.614,1.475,4.544,3.233,3.141,5.599c-1.908,3.22-4.762,0.671-6.928-0.408c-17.221-8.58-34.206-17.734-53.566-20.797
	c-0.649-0.104-1.288-0.358-1.892-0.625c-3.739-1.66-11.4,1.487-11.1-2.828C74.852,145.336,82.47,149.334,87.827,147.479z"/>
<path fill-rule="evenodd" clip-rule="evenodd" fill="#99CCB7" d="M407.493,102.093c-0.904,5.806,0.077,14.154-5.895,14.659
	c-6.533,0.552-5.759-8.389-5.77-12.691c-0.033-14.191-2.831-27.583-7.736-40.738c-0.992-2.665-2.498-6.531,0.786-7.987
	c3.325-1.475,4.754,2.489,6.502,4.776C404.954,72.666,405.316,87.795,407.493,102.093z"/>
<path fill-rule="evenodd" clip-rule="evenodd" fill="#99CCB7" d="M276.629,49.512c17.971,13.777,25.825,32.12,30.334,52.189
	c0.827,3.685,2.996,7.642,1.34,11.668c-0.573,1.394-1.712,3.157-2.962,3.537c-2.039,0.618-2.611-1.714-3.171-3.129
	c-0.722-1.833-0.978-3.851-1.392-5.8c-3.926-18.469-10.975-35.519-22.685-50.495c-1.004-1.29-1.613-2.918-2.219-4.462
	C275.682,52.537,276.102,51.815,276.629,49.512z"/>
<path fill-rule="evenodd" clip-rule="evenodd" fill="#99CCB7" d="M449.546,141.146c-0.39,1.384-0.727,3.719-1.696,5.752
	c-1.379,2.891-2.903,7.115-6.661,6.022c-3.429-0.995-1.522-5.168-1.477-7.934c0.031-1.924,0.824-3.866,1.428-5.749
	c0.978-3.038-1.886-8.706,3.84-8.483C450.578,130.978,449.048,136.473,449.546,141.146z"/>
<path fill-rule="evenodd" clip-rule="evenodd" fill="#306F56" d="M315.706,519.667c-0.162-0.903-0.326-1.808-0.488-2.708
	c17.979-41.015,46.944-74.585,74.184-109.307c13.517-17.229,27.297-34.254,40.936-51.39c1.436-1.804,2.478-4.073,5.376-3.716
	c0.576,5.335-3.378,9.224-4.486,14.019c0,0,0.199-0.167,0.198-0.167c-1.007,1.418-2.015,2.831-3.024,4.25
	c-8.301,4.34-11.593,13.171-17.358,19.762c-10.683,12.217-20.118,25.514-30.576,37.936c-4.708,5.599-3.113,8.056,2.458,11.313
	c23.261,13.604,42.919,31.091,57.143,54.311c2.953,4.823,4.97,9.889,7.684,17.091c-7.427-4.606-9.674-10.952-13.711-15.625
	c-6.926-8.024-13.171-16.63-20-24.739c-2.25-2.671-4.431-6.025-8.708-6.02c-0.694-0.646-1.386-1.293-2.078-1.939
	c-7.323-9.368-17.7-14.737-27.502-20.8c-4.604-2.846-6.678,1.588-8.725,4.221c-15.112,19.42-28.862,39.74-40.463,61.494
	C324.008,512.449,322.398,518.459,315.706,519.667z"/>
<path fill-rule="evenodd" clip-rule="evenodd" fill="#99CCB7" d="M579.623,370.285c0,1.664,0.05,3.333-0.013,4.996
	c-0.101,2.706-0.248,5.599-3.399,6.521c-2.752,0.8-4.11-1.72-5.702-3.286c-4.729-4.645-5.847-11.172-8.149-16.956
	c-8.401-21.124-24.806-31.958-45.957-36.954c-2.64-0.621-6.014-0.48-5.994-3.832c0.019-4.403,3.533-5.91,7.494-6.402
	c12.405-1.544,22.847,3.879,32.857,9.857C568.096,334.581,577.899,349.993,579.623,370.285z"/>
<path fill-rule="evenodd" clip-rule="evenodd" fill="#306F56" d="M455.243,416.725c-8.699-9.625-20.121-14.715-31.882-19.304
	c-1.933-0.753-5.68-0.515-4.955-3.637c0.841-3.618,4.051-2.26,6.629-1.484c13.244,3.973,24.883,10.965,35.786,19.231
	c14.896,11.294,28.29,24.155,39.65,39.053c1.978,2.589,4.042,5.156,4.476,9.951c-13.426-6.433-17.856-21.114-29.761-27.438
	c-0.818-1.993-2.259-3.346-4.242-4.143c-0.534-3.085-2.61-4.237-5.494-4.372c-0.737-0.603-1.475-1.211-2.209-1.813
	c-0.783-2.938-2.835-4.177-5.73-4.293C456.756,417.893,456.001,417.309,455.243,416.725z"/>
<path fill-rule="evenodd" clip-rule="evenodd" fill="#F5F4F4" d="M553.44,314.376c10.516-11.668,20.731-23.744,37.147-28.922
	c0.452,7.827-1.732,12.876-7.68,16.814c-7.5,4.968-13.463,11.759-19.053,18.805C559.303,320.521,556.01,318.007,553.44,314.376z"/>
<path fill-rule="evenodd" clip-rule="evenodd" fill="#99CCB7" d="M463.241,422.77c0.734,0.603,1.472,1.211,2.209,1.813
	c-0.016,3.779,2.679,4.152,5.494,4.372c1.983,0.797,3.424,2.149,4.242,4.143c-1.415,4.208,6.011,8.021,2.523,10.378
	c-4.265,2.894-8.109-2.799-11.637-5.357c-10.206-7.403-19.922-15.494-31.83-20.226c-2.404-0.954-5.765-2.144-4.139-5.521
	c1.346-2.793,4.265-3.832,7.7-2.551c5.861,2.188,10.666,7.055,17.442,6.904c0.755,0.583,1.51,1.167,2.265,1.754
	C457.431,422.565,460.277,422.744,463.241,422.77z"/>
<path fill-rule="evenodd" clip-rule="evenodd" fill="#306F56" d="M336.1,503.932c28.692,19.397,49.978,44.692,61.478,77.779
	C380.043,553.429,361.211,526.182,336.1,503.932z"/>
<path fill-rule="evenodd" clip-rule="evenodd" fill="#99CCB7" d="M403.254,462.738c0.692,0.646,1.384,1.293,2.078,1.939
	c0.23,5.392,5.275,7.3,7.943,10.928c1.21,1.647,2.704,3.424,1.483,5.338c-1.478,2.316-3.568,0.754-5.199-0.166
	c-10.32-5.813-17.935-15.786-29.803-19.3c-1.511-0.446-2.572-2.504-1.337-4.102c0.906-1.17,2.53-2.247,3.967-2.463
	c4.248-0.627,7.524,2.14,11.014,3.917C396.579,460.448,399.132,463.523,403.254,462.738z"/>
<path fill-rule="evenodd" clip-rule="evenodd" fill="#F5F4F4" d="M459.656,466.821c-0.062,2.63-0.12,5.26-0.181,7.887
	c-0.838-0.515-1.783-0.907-2.497-1.557c-9.09-8.248-18.147-16.529-26.559-25.756C441.366,452.024,452.226,456.719,459.656,466.821z"
	/>
<path fill-rule="evenodd" clip-rule="evenodd" fill="#99CCB7" d="M361.322,562.774c0.025-1.683-0.352-3.157-2.032-3.964
	c-0.326-4.958-4.748-6.979-7.394-10.266c-1.514-1.879-3.184-3.69-0.879-6.025c1.954-1.977,4.315-2.012,6.285-0.291
	c3.254,2.846,6.399,5.853,9.297,9.057c2.428,2.684,5.47,5.881,3.794,9.631C368.678,564.752,364.388,562.084,361.322,562.774z"/>
<path fill-rule="evenodd" clip-rule="evenodd" fill="#306F56" d="M283.083,598.959c11.271,0.913,27.705,17.386,29.114,30.23
	c-7.698-4.829-11.576-12.349-17.245-17.957c-4.007-3.967-11.438-4.942-11.757-12.387L283.083,598.959z"/>
<path fill-rule="evenodd" clip-rule="evenodd" fill="#F5F4F4" d="M431.228,366.566c1.108-4.795,5.062-8.684,4.486-14.019
	l-0.281,0.11c2.057-0.688,1.758-2.429,1.798-4.017c0.45-1.058,0.899-2.112,1.35-3.167c1.021,2.962,2.04,5.925,3.06,8.888
	C439.492,359.558,436.382,363.936,431.228,366.566z"/>
<path fill-rule="evenodd" clip-rule="evenodd" fill="#F5F4F4" d="M428.401,370.649c1.009-1.418,2.017-2.831,3.024-4.25
	C430.418,367.818,429.41,369.23,428.401,370.649z"/>
<path fill-rule="evenodd" clip-rule="evenodd" fill="#306F56" d="M703.66,258.869c7.613-27.751,26.632-46.559,49.249-62.43
	c8.803-6.176,18.795-9.073,30.049-8.721c-34.725,16.539-61.755,40.343-76.006,76.722
	C703.723,263.837,703.782,261.298,703.66,258.869z"/>
<path fill-rule="evenodd" clip-rule="evenodd" fill="#99CCB7" d="M852.18,294.106c0.436-2.419-3.521-4.824-0.364-7.077
	c2.018-1.44,4.472-0.471,6.559,0.625c7.234,3.807,15.394,6.142,20.811,12.873c1.146,1.428,3.36,2.803,1.44,4.921
	c-1.287,1.418-3.035,0.493-4.579-0.091c-4.563-1.726-8.413-5.382-13.721-5.09C858.945,298.211,855.563,296.158,852.18,294.106z"/>
<path fill-rule="evenodd" clip-rule="evenodd" fill="#F5F4F4" d="M638.001,338.77c-9.663,9.371-16.943,20.741-26.619,33.09
	c0.644-20.154,14.656-27.73,26.051-37.201C637.621,336.03,637.81,337.398,638.001,338.77z"/>
<path fill-rule="evenodd" clip-rule="evenodd" fill="#F5F4F4" d="M642.633,271.171c-5.987,4.946-11.803,5.232-16.874,7.218
	c-1.45,0.571-3.974,2.479-4.45-1.152c-0.273-2.081,0.316-4.095,2.756-4.604C629.543,271.492,634.957,269.552,642.633,271.171z"/>
<path fill-rule="evenodd" clip-rule="evenodd" fill="#99CCB7" d="M638.001,338.77c-0.191-1.372-0.38-2.74-0.568-4.111
	c6.691-5.944,14.123-10.444,23.813-10.95C653.498,328.73,645.746,333.749,638.001,338.77z"/>
<path fill-rule="evenodd" clip-rule="evenodd" fill="#76A592" d="M681.899,236.205c0.308,0.358,0.615,0.719,0.926,1.08
	c-0.38-0.289-0.76-0.577-1.14-0.866C681.686,236.421,681.899,236.205,681.899,236.205z"/>
<path fill-rule="evenodd" clip-rule="evenodd" fill="#99CCB7" d="M789.981,172.315c9.896-0.608,18.937,1.07,27.348,5.687
	c1.72,0.945,4.183,1.858,3.577,4.127c-0.866,3.251-3.753,1.805-5.881,1.479c-14.223-2.185-28.43-2.448-42.634,0.153
	c-2.244,0.411-4.846,1.293-5.976-1.713c-1.001-2.677,0.832-4.601,2.74-5.875C775.615,171.851,783.012,172.049,789.981,172.315z"/>
<path fill-rule="evenodd" clip-rule="evenodd" fill="#99CCB7" d="M794.639,119.2c-18.484-4.623-37.21-4.202-55.98-1.355
	c-2.451,0.37-4.893-0.173-5.824-2.752c-0.697-1.93,1.079-2.803,2.551-3.65c10.558-6.091,48.33-3.641,58.124,3.816
	C794.61,116.097,795.289,117.186,794.639,119.2z"/>
<path fill-rule="evenodd" clip-rule="evenodd" fill="#99CCB7" d="M838.434,234.959c-10.582,3.515-18.849-1.447-27.444-0.973
	c-2.024,0.11-4.092-1.058-4.218-3.415c-0.163-3.034,2.25-3.97,4.67-4.026C820.781,226.338,829.709,227.646,838.434,234.959z"/>
<path fill-rule="evenodd" clip-rule="evenodd" fill="#286656" d="M317.364,463.762c0.111,11.477-8.438,17.713-18.684,13.426
	c-17.237-7.209-31.248-18.896-42.621-33.526c-4.665-6.004-6.666-13.702-1.611-20.377c5.134-6.785,12.581-4.767,19.215-2.097
	c16.481,6.638,29.041,18.419,40.244,31.782C316.526,456.092,317.661,459.98,317.364,463.762z M295.29,452.373l0.066,0.423
	l-0.033-0.27c-7.781-9.38-17.745-16.108-27.94-22.552C275.142,439.321,281.811,450.006,295.29,452.373z"/>
<path fill-rule="evenodd" clip-rule="evenodd" fill="#286656" d="M298.778,368.938c3.965-5.53,8.71-3.889,13.102-0.998
	c18.908,12.434,34.962,27.721,45.832,47.827c5.289,9.785,3.703,18.03-3.711,22.985c-6.826,4.563-14.251,1.835-21.552-6.242
	c-11.806-13.062-20.424-28.744-33.982-40.402c-3.625-3.116-5.942-8.028-8.106-12.481c-1.505-3.094-3.083-7.196,2.36-8.903
	c13.581,15.556,26.977,31.352,47.794,37.848C329.338,392.403,315.703,378.937,298.778,368.938z"/>
<path fill-rule="evenodd" clip-rule="evenodd" fill="#99CCB7" d="M385.295,280.072c10.446,1.469,20.275,4.315,28.86,10.388
	c2.249,1.591,5.667,3.672,4.177,7.13c-1.632,3.794-5.591,3.113-8.818,2.473c-2.904-0.574-5.784-1.61-8.479-2.862
	c-9.983-4.642-19.928-7.447-30.509-1.588c-2.324,1.287-5.363,1.708-6.77-1.635c-1.177-2.796,0.023-5.288,2.172-7.143
	C371.497,282.03,378.333,280.862,385.295,280.072z"/>
<path fill-rule="evenodd" clip-rule="evenodd" fill="#F5F4F4" d="M298.778,368.938c16.925,9.999,30.561,23.465,41.736,39.633
	c-20.817-6.496-34.213-22.292-47.794-37.848C293.936,367.407,296.592,368.973,298.778,368.938z"/>
<path fill-rule="evenodd" clip-rule="evenodd" fill="#468E7A" d="M396.157,387.234c-20.292-26.933-44.775-48.769-76.516-62.175
	C335.176,318.5,390.14,362.596,396.157,387.234z"/>
<path fill-rule="evenodd" clip-rule="evenodd" fill="#468E7A" d="M334.19,451.362c-23.048-18.315-48.667-33.162-70.456-53.027
	C288.833,413.913,314.664,428.494,334.19,451.362z"/>
<path fill-rule="evenodd" clip-rule="evenodd" fill="#306F56" d="M437.231,348.64c-0.041,1.588,0.259,3.33-1.798,4.017
	C435.408,351.038,435.75,349.584,437.231,348.64z"/>
<path fill-rule="evenodd" clip-rule="evenodd" fill="#99CCB7" d="M585.479,131.964c14.48-0.204,28.985,4.214,40.001,17.075
	c1.889,2.2,4.82,5.188,2.918,7.773c-2.31,3.138-5.671,0.116-7.927-1.334c-15.817-10.193-32.795-14.012-51.346-10.124
	c-2.774,0.581-4.588-0.649-5.278-3.245c-0.86-3.251,0.229-5.809,3.173-7.647C572.21,131.213,577.975,132.306,585.479,131.964z"/>
<path fill-rule="evenodd" clip-rule="evenodd" fill="#F5F4F4" d="M479.929,751.209c-4.026,6.098-5.121,12.934-13.364,8.781
	c-4.204-2.115-2.798-4.233-1.596-7.121C469.029,743.106,474.198,752.15,479.929,751.209z"/>
<path fill-rule="evenodd" clip-rule="evenodd" fill="#99CCB7" d="M497.402,767.184c-2.297-0.804-6.145-0.434-5.263-4.155
	c0.798-3.364,0.694-8.238,6.638-7.962c3.025,0.138,5.125,1.735,7.45,3.135C502.229,760.132,503.893,767.667,497.402,767.184z"/>
<path fill-rule="evenodd" clip-rule="evenodd" fill="#F5F4F4" d="M519.6,768.824c-0.21-1.854-0.424-3.712-0.64-5.57
	c0.392-4.28,2.175-6.509,7.029-5.896c5.047,0.641,3.098,4.249,3.361,6.819c0.562,5.477-3.606,4.356-6.747,4.557
	C521.605,768.8,520.602,768.8,519.6,768.824z"/>
<path fill-rule="evenodd" clip-rule="evenodd" fill="#99CCB7" d="M557.24,761.854c-0.913,3.772-4.425,4.158-6.964,4.124
	c-3.91-0.051-2.385-3.811-2.655-6.113c-0.389-3.286,1.29-4.934,4.586-4.529C556.004,755.801,555.662,759.595,557.24,761.854z"/>
<path fill-rule="evenodd" clip-rule="evenodd" fill="#76A592" d="M463.241,422.77c-2.964-0.025-5.811-0.204-5.73-4.29
	C460.406,418.592,462.458,419.832,463.241,422.77z"/>
<path fill-rule="evenodd" clip-rule="evenodd" fill="#76A592" d="M470.944,428.955c-2.815-0.22-5.51-0.593-5.494-4.372
	C468.334,424.718,470.41,425.87,470.944,428.955z"/>
<path fill-rule="evenodd" clip-rule="evenodd" fill="#F5F4F4" d="M295.291,452.363c-13.48-2.357-20.149-13.042-27.909-22.389
	c10.195,6.443,20.159,13.172,27.94,22.552L295.291,452.363z"/>
<path fill-rule="evenodd" clip-rule="evenodd" fill="#F5F4F4" d="M295.322,452.526l0.033,0.27c0,0-0.066-0.423-0.064-0.43
	C295.291,452.363,295.322,452.526,295.322,452.526z"/>
</svg>
