<?xml version="1.0" encoding="utf-8"?>
<!-- Generator: Adobe Illustrator 16.0.0, SVG Export Plug-In . SVG Version: 6.00 Build 0)  -->
<!DOCTYPE svg PUBLIC "-//W3C//DTD SVG 1.1//EN" "http://www.w3.org/Graphics/SVG/1.1/DTD/svg11.dtd">
<svg version="1.1" id="Layer_1" xmlns="http://www.w3.org/2000/svg" xmlns:xlink="http://www.w3.org/1999/xlink" x="0px" y="0px"
	 width="928px" height="928px" viewBox="0 0 928 928" enable-background="new 0 0 928 928" xml:space="preserve">
<path fill-rule="evenodd" clip-rule="evenodd" fill="#F9B6AA" d="M552.973,584.855c12.645,0.74,25.278,1.888,37.934,2.129
	c22.242,0.422,44.498,0.153,66.744,0.426c16.405,0.202,16.775,1.901,18.206,17.633c3.628,40.005-1.054,79.787-3.053,119.541
	c-2.212,44.003-12.369,86.301-40.856,122.146c-20.533,25.836-46.711,42.388-77.997,52.377
	c-35.26,11.256-71.05,15.533-108.025,16.231c-49.292,0.928-97.324-3.884-143.866-20.369c-66.502-23.562-101.34-71.476-110.17-140.89
	c-6.6-51.861-2.292-103.38,0.223-155.063c0.345-7.097,4.195-7.205,9.45-7.428c25.891-1.093,51.758-2.848,77.697-2.362
	c3.698,0.066,7.485,0.265,10.474-2.617c7.556,5.224,15.622,0.538,23.413,1.2c2.128,0.321,4.262,0.643,6.392,0.96
	c3.248,1.556,6.006,0.349,8.646-1.532c6.741-0.09,13.483-0.181,20.224-0.271c2.226,0.122,4.452,0.244,6.678,0.362
	c2.997-0.094,5.994-0.188,8.991-0.278c5.215-0.545,10.743,1.727,15.622-1.763c4.377,1.748,8.756,3.221,13.144,0.018
	c2.962-0.094,5.924-0.191,8.888-0.282c1.381,1.961,2.871,1.817,4.436,0.223c2.284-0.027,4.567-0.056,6.851-0.08
	c4.443-0.174,8.883-0.346,13.326-0.52c4.325-0.108,8.649-0.213,12.973-0.321c5.333,0.063,10.666,0.129,15.997,0.195
	c4.38-0.063,8.759-0.125,13.14-0.191c6.744,0.101,13.484,0.198,20.232,0.296c3.942,0.887,7.62,0.321,10.983-1.995
	c3.063,3.949,7.376,1.769,11.145,2.261c5.955,0.063,11.911,0.119,17.87,0.182c2.773,2.107,5.852,2.11,9.044,1.301
	C542.963,587.413,548.067,587.127,552.973,584.855z M541.955,683.218c-0.199-1.975-0.879-3.639-2.854-4.483
	c-8.073-5.278-16.513-8.555-26.233-4.741c-18.666,4.306-27.207,26.601-16.437,43.979c2.428,3.915,3.865,10.289,10.997,8.925
	l-0.355,0.604l-0.621-0.32c0.739,0.823,1.476,1.65,2.212,2.477c7.847,4.097,16.063,4.264,24.476,2.289
	c12.483-2.714,18.851-9.482,20.058-21.311c1.497-14.71-2.254-23.457-11.729-27.354L541.955,683.218z M361.528,731.562l-0.544,0.454
	l-0.464-0.534c13.089-4.634,13.355-15.711,12.046-26.408c-1.29-10.516-3.315-21.636-16.793-24.189
	c-8.194-7.254-17.539-7.463-27.408-4.477c-0.794,0.785-1.589,1.57-2.385,2.355l0.427-0.011c-10.802,1.891-17.124,9.18-18.3,21.105
	c-1.549,15.707,3.17,25.748,13.953,29.691l-0.513,0.049c0.688,0.834,1.373,1.671,2.059,2.505
	c11.455,8.011,23.286,9.459,35.626,2.045C359.998,733.285,360.762,732.424,361.528,731.562z M471.181,781.318
	c4.916-2.547,5.467-7.582,6.709-12.113c2.61-9.508,3.656-14.637-10.146-15.646c-22.461-1.64-44.892-3.038-67.403-3.276
	c-19.998-0.209-23.579,5.506-14.576,23.562c2.083,4.177,3.505,9.097,8.667,10.917c5.479,12.543,17.064,16.766,28.756,19.859
	C443.052,809.873,465.615,798.488,471.181,781.318z M535.396,778.793c7.958,0.948,15.771-0.308,21.653-7.282
	c3.848-4.563,4.298-9.36,0.404-14.043c-7.851-9.441-35.435-13.433-45.79-6.751c-9.469,6.108-9.769,14.556-0.778,21.408
	C517.989,777.54,526.038,779.592,535.396,778.793z M329.113,751.951c-9.724-0.642-18.264,1.65-20.676,12.268
	c-2.531,11.134,5.576,15.952,14.179,19.434c10.802,4.375,21.325,1.04,30.927-3.485c8.348-3.932,7.944-15.648-0.363-20.951
	C345.974,754.613,337.951,751.634,329.113,751.951z"/>
<path fill-rule="evenodd" clip-rule="evenodd" fill="#286656" d="M404.143,325.029c14.907-19.79,10.545-43.738,14.258-65.949
	c0.956-5.712-1.059-8.66-6.695-10.659c-18.937-6.72-36.085-16.974-52.796-27.989c-5.755-3.796-11.172-9.043-18.842-3.458
	c-1.625,1.183-4.475,1.228-5.86-1.172c-1.239-2.149,0.382-3.51,2.112-4.229c7.477-3.095,1.719-5.261-0.604-7.257
	c-9.813-8.44-19.76-16.727-29.658-25.065c-2.727-3.531-5.46-7.055-9.862-8.688c-8.536-7.655-17.211-15.163-25.541-23.038
	c-3.207-3.025-6.298-4.647-10.825-4.04c-3.018,0.408-7.629,2.6-8.906-1.347c-1.798-5.565,5.467-2.924,7.388-6.521
	c-8.356-10.488-16.564-21.367-22.117-33.969c-1.926-4.372-6.65-4.082-10.514-5.111c-2.071-0.555-4.785-0.952-4.557-3.883
	c0.234-2.979,2.734-3.238,4.995-2.69c6.12,1.49,4.633-2.275,4.094-5.593c-1.115-6.874-3.564-13.813,0.651-20.512
	c1.626-2.585,0.091-3.999-1.795-5.426c-1.914-1.448-5.53-2.645-3.167-5.739c2.497-3.269,5.331-0.37,7.732,1.04
	c1.897,1.117,3.555,2.645,5.32,3.988c0.14,7.069,5.106,12.167,7.446,18.328c3.459,9.099,15.231,14.769,11.032,27.148
	c-0.599,1.762,1.996,2.739,3.997,2.792c10.622,0.286,13.243,9.319,17.48,16.359c1.181,1.958-0.049,5.049,3.438,6.12
	c7.925,2.432,15.376,9.344,16.566,15.177c2.323,11.374,11.271,11.922,17.855,16.946c20.002,15.265,36.235,34.964,57.727,48.654
	c16.121,10.272,31.959,21.088,46.28,34.988c1.816-6.168-2.029-8.084-4.323-10.729c-5.176-5.973-12.004-9.905-18.516-14.061
	c-6.231-3.974-8.582-8.436-5.085-15.264l0.694-0.597c7.649,4.794,15.297,9.588,24.069,15.086c0.326-18.61-1.781-35.382-3.356-52.185
	c-0.509-5.432-5.354-5.341-8.752-7.17c-2.805-1.507-7.625-2.582-6.183-6.486c1.795-4.857,5.324-0.401,8.115,0.118
	c1.047,0.192,2.137,0.15,4.822,0.311c-4.222-13.841,0.883-30.476-17.043-38.005c-2.872-1.204-8.438-3.255-5.59-7.701
	c2.296-3.586,5.75,0.911,8.683,1.877c1.01,0.335,2.099,0.433,4.791,0.956c-2.073-14.839-7.151-28.164-10.827-41.788
	c-0.328-1.218-1.732-2.397-2.931-3.084c-4.192-2.393-14.149-2.097-2.183-9.751c3.285-2.101,2.635-13.649,4.239-20.788
	c1.233-0.774,2.467-1.553,3.7-2.331c3.245,8.283,8.437,16.144,5.673,25.749c11.943,8.14,11.622,22.152,16.009,33.847
	c3.565,9.504,0.762,19.88,6.631,29.925c4.979,8.523,6.872,21.632,4.248,31.077c-2.915,10.491,1.878,18.038,2.459,26.886
	c1.478,22.494-0.378,45.2,1.012,67.704c1.382,22.382-3.29,44.192-3.82,66.393c-0.694,29.018-8.524,57.576-7.96,86.855
	c0.023,1.197-1.385,2.421-2.128,3.632c-0.295-3.607-0.592-7.219-0.885-10.83c2.811-10.743-0.644-21.182-1.725-31.705
	c-0.851-8.272-3.962-16.273-5.949-24.214C407.79,334.467,402.295,330.877,404.143,325.029z"/>
<path fill-rule="evenodd" clip-rule="evenodd" fill="#286656" d="M399.6,28.582c2.777-2.544,6.387-3.074,9.37-1.633
	c7.758,3.748,13.397,3.091,17.298-7.051c-3.048,19.675,9.523,33.819,13.588,53.267c2.583-3.59,3.765-5.491,5.209-7.163
	c1.35-1.563,2.823-4.127,5.239-1.657c1.452,1.483,0.959,3.827-0.604,4.933c-12.147,8.59-6.531,19.493-4.11,30.002
	c0.494,2.136,0.93,4.285,1.362,6.291c2.866,0.991,4.332-1.036,6.102-2.243c1.535-1.047,3.042-2.38,4.818-0.534
	c1.687,1.759,0.935,4.142-0.499,4.836c-12.763,6.144-7.424,16.716-6.749,26.209c0.446,6.291,0.528,12.602,1.006,18.889
	c0.26,3.413-0.822,7.592,4.951,8.182c2.807,0.286,3.47,3.475,1.064,4.793c-6.568,3.604-4.536,9.462-4.527,14.728
	c0.037,25.958,1.174,51.93-1.427,77.843c-0.281,2.812-0.037,5.673-0.037,10.086c7.875-4.975,10.854-11.796,14.554-17.794
	c4.855-7.875,8.84-16.279,13.532-24.255c2.753-4.686,4.177-8.506-1.915-11.706c-1.877-0.987-3.629-3.335-2.024-5.6
	c1.696-2.386,4.006-1.144,5.743,0.412c4.403,3.943,6.238,1.106,8.137-2.721c5.652-11.377,14.542-22.354,2.927-35.246
	c-1.671-1.86-2.818-4.993,0.423-6.632c2.714-1.368,3.709,1.465,4.85,3.23c1.762,2.722,3.405,5.52,5.571,9.061
	c8.405-13.059,16.375-25.424,24.315-37.807c1.612-2.515,0.506-4.884-0.331-7.403c-0.98-2.955-4.026-7.013-0.168-8.936
	c4.889-2.435,4.009,4.951,7.938,6.21c10.178-10.376,20.341-21.272,33.955-27.787c4.089-1.957,2.833-5.331,3.123-8.551
	c0.324-3.639-2.509-9.713,3.178-10.069c4.603-0.29,3.176,5.537,3.602,8.957c0.307,2.445-0.499,5.415,3.272,6.008
	c2.955,0.468,4.972-0.583,6.322-3.266c1.158-2.292,2.596-5.439,5.628-3.685c2.927,1.692,0.638,4.522-0.099,6.915
	c-0.638,2.076-0.841,4.292-1.231,6.444l0.217-0.056c-2.547-0.439-4.041,1.246-5.75,2.69c-11.667,9.829-15.767,27.399-32.713,32.012
	c-0.991,0.269-1.18,3.943-1.511,6.067c-1.853,11.894-5.575,22.658-17.337,28.467c-3.05,1.511-2.777,4.176-2.606,6.664
	c0.293,4.243-0.575,8.108-2.882,11.629c-6.267,9.577-12.104,19.692-19.043,28.491c-6.029,7.641-11.549,16.032-17.665,22.793
	c-8.056,8.908-14.189,19.741-23.53,27.298c-6.821,5.523-13.406,10.621-18.331,18.275c-3.093,4.804-7.96,12.979-14.04,10.607
	c-6.537-2.551-1.973-11.235-2.408-17.156c-1.114-15.212,3.013-30.127,2.336-45.577c-0.544-12.394-6.003-26.548,5.159-37.814
	c0.485-0.492-0.234-3.374-1.045-3.757c-9.052-4.257-6.029-12.459-6.554-19.448c-1.28-17.033,0.395-34.29-4.872-51.023
	c-3.318-10.551-8.459-21.691-7.533-32.099c1.026-11.521-1.729-19.417-9.235-26.879c-0.237-0.234-0.262-0.684-0.397-1.026
	c-4.506-11.333-9.014-22.668-13.52-34C399.769,29.719,399.737,29.15,399.6,28.582z"/>
<path fill-rule="evenodd" clip-rule="evenodd" fill="#468E7A" d="M404.143,325.029c-1.848,5.848,3.647,9.438,4.523,12.934
	c1.987,7.941,5.098,15.941,5.949,24.214c1.082,10.522,4.536,20.962,1.734,31.701c-3.018-0.987-2.929-3.702-3.773-6.155
	c-5.145-14.919-6.952-30.958-15.048-44.966c2.095,79.295,11.428,157.438,34,235.63c1.634-3.23,2.627-4.455,2.889-5.819
	c8.4-43.871,20.856-86.744,31.928-129.958c7.02-27.389,16.929-54.383,10.498-83.454c-0.404-2.893-0.495-5.872-1.27-8.663
	c-3.521-12.645-3.591-12.624,10.68-14.707c0.304,5.181,0.61,10.359,1.064,18.146c4.542-7.355,2.543-13.007,3.601-18.108
	c5.087-2.198,5.774,1.535,5.833,4.839c0.07,3.992-0.701,8-1.109,12.002c-0.684,3.726-0.021,7.208,1.138,10.84
	c3.709,11.636,5.555,23.61,5.122,35.856c-0.97,27.745-7.913,54.411-14.264,81.235c-1.524,6.437-6.542,12.435-3.782,19.736
	c-6.518,21.423-13.034,42.846-19.55,64.265c0.598,3.468-1.888,7.581,1.535,10.341c1.689,1.365,3.3-0.771,4.695-1.88
	c26.949-21.392,46.689-48.051,57.736-80.712c1.409-4.169,5.771-9.511,0.191-14.276c0.136-3.283,0.146-6.58,0.446-9.85
	c0.339-3.723-1.015-9.686,4.638-9.145c4.622,0.439,2.173,5.914,2.358,9.277c7.731,7.563,10.24,16.23,7.557,27.05
	c-4.905,19.797-12.679,38.323-22.769,55.929c-1.672,2.914-3.695,5.478-3.28,9.055l-0.042,0.052
	c-2.938,0.091-4.235,1.745-4.319,4.547c-4.459,5.882-8.925,11.761-13.384,17.644c-3.363,2.316-7.041,2.882-10.983,1.995
	c-0.028-2.885,1.766-4.766,3.656-6.58c14.661-14.074,24.933-31.188,33.209-49.453c5.628-12.414,10.453-25.271,11.21-39.209
	c-7.261,20.403-16.363,39.865-30.438,56.215c-11.754,13.659-25.184,25.878-37.869,38.731c-4.381,0.066-8.759,0.129-13.14,0.191
	c0.113-2.955-0.316-6.053,0.422-8.845c7.261-27.472,14.839-54.861,22.086-82.337c9.318-35.33,19.824-70.513,17.396-107.716
	c-0.67-10.244-1.503-20.683-10.223-28.24c0.063,15.282,1.888,30.277-2.013,45.151c-7.586,28.91-15.18,57.823-22.239,86.866
	c-7.66,31.52-17.367,62.589-21.426,94.925c-4.323,0.108-8.648,0.213-12.973,0.321c-19.118-67.899-29.785-137.286-36.331-207.582
	c-1.906,6.646-1.202,13.237-2.023,19.632c-4.473,34.792-1.764,69.337,3.852,103.663c4.712,28.801,14.497,56.438,21.176,84.807
	c-2.283,0.024-4.567,0.053-6.851,0.08c-0.884-1.859-2.498-2.428-4.401-2.48c-0.314-0.97-0.625-1.939-0.937-2.906
	c-0.283,0.199-0.565,0.395-0.848,0.594c0.567,0.795,1.134,1.591,1.699,2.386c-0.04,0.729-0.023,1.455,0.051,2.185
	c-2.964,0.091-5.926,0.188-8.888,0.282c-8.665-11.587-13.907-25.459-24.083-36.034c-0.827-1.581-1.769-3.112-2.455-4.752
	c-1.077-2.571-3.039-5.314-0.799-7.997c2.715-3.252,5.04,0.607,7.592,0.827c1.354,0.115,2.758-0.356,4.14-0.569
	c-1.593,11.431,3.772,19.772,11.856,27.002c-0.888-7.254-5.153-13.527-5.185-20.882c2.751,0.729,5.504,1.455,8.445,2.229
	c1.977-4.808-1.471-9.044-1.453-13.604c2.685-2.558,1.143-3.769-1.478-4.634c-0.304-1.409-0.605-2.826-0.907-4.235
	c2.955-2.676,1.23-3.827-1.514-4.644c-0.239-1.424-0.478-2.844-0.717-4.268c2.983-2.651,1.298-3.824-1.476-4.647
	c-0.216-1.427-0.431-2.857-0.646-4.288c2.418-1.999,1.898-4.566,1.422-7.152c-2.202-11.957-2.364-24.238-4.351-36.107
	c-4.042-24.12,0.925-47.873,0.717-71.793c-0.105-12.051,2.99-24.102,3.454-36.199c0.258-6.73,4.764-14.602-2.956-20.341
	c-0.708-4.742-1.674-9.462-2.02-14.231c-0.184-2.53,0.504-5.583,4.058-5.38c2.742,0.154,2.965,2.735,3.424,4.919
	c0.769,3.671-1.368,8.144,3.39,11.461c3.477-4.508,3.524-9.57,3.731-14.563c0.098-2.358,0.623-4.923,3.194-5.049
	c2.626-0.129,3.041,2.457,3.531,4.731C402.473,318.424,399.663,322.632,404.143,325.029z M401.601,566.12
	c-1.034-4.892-1.622-9.106-2.884-13.112c-0.802-2.543-1.743-6.984-5.172-5.687c-4.795,1.811-1.095,5.593,0.161,7.972
	C395.615,558.908,396.006,563.754,401.601,566.12z M396.013,574.692c0.229-0.126,0.579-0.202,0.656-0.391
	c0.091-0.228-0.052-0.548-0.094-0.831c-0.34,0.179-0.68,0.359-1.021,0.538C395.706,574.235,395.859,574.466,396.013,574.692z"/>
<path fill-rule="evenodd" clip-rule="evenodd" fill="#286656" d="M592.957,104.14c4.989,2.767,9.692-6.447,12.889-1.877
	c3.545,5.077-6.016,5.583-6.538,9.577c-2.826,21.712-14.313,40.127-22.232,59.889c-2.554,6.375,4.177,5.711,6.112,8.656
	c1.326,2.009,4.927,3.342,2.959,6.259c-2.1,3.129-4.885,0.83-6.545-0.883c-6.089-6.284-8.751-2.467-11.897,3.147
	c-7.438,13.269-16.012,25.878-26.44,36.945c-5.268,5.589-4.772,8.97,1.222,12.888c1.891,1.235,5.457,2.624,3.077,5.802
	c-2.114,2.819-5.313,0.949-6.758-0.816c-6.451-7.881-10.443-3.238-15.648,1.839c-24.103,23.509-43.645,51.449-70.419,72.355
	c-3.569,2.784-5.821,6.354-6.113,11.297c-2.374,40.316-2.05,80.659-1.406,121.002c0.016,1.026,0.563,2.041,0.877,3.112
	c4.271,1.322,3.82-3.88,6.531-4.487c3.487,2.501,2.425,5.813,1.476,8.991c-5.209,17.442-17.955,31.066-23.546,48.417
	c-6.522-22.695-6.516-45.447-7.107-68.137c1.434-41.006,3.948-81.925,9.359-122.625c0.452-3.398-1.043-7.561,4.354-8.866
	c10.371-2.509,15.988-11.482,23.572-17.822c3.508-2.931,4.093-11.657,12.486-6.35c2.229,1.41,1.895-2.487,1.252-3.723
	c-2.097-4.033,0.241-6.591,2.903-8.527c7.829-5.687,11.238-17.079,23.027-17.731c1.93-0.108,2.174-2.065,2.516-4.121
	c2.609-15.589,14.595-25.431,23.648-36.983c1.326-1.696,3.552-2.24,4.375-5.237c3.469-12.612,7.111-25.337,20.418-31.799
	c0.984-0.478,1.835-2.477,1.759-3.705c-0.918-15.083,10.837-23.516,17.786-34.489c6.972-11.008,18.978-18.513,22.268-32.057
	L592.957,104.14z"/>
<path fill-rule="evenodd" clip-rule="evenodd" fill="#286656" d="M552.973,584.855c-4.905,2.271-10.01,2.558-15.243,1.518
	c0.038-4.776,3.901-7.086,6.863-9.56c11.004-9.214,19.015-21.195,30.184-30.595c8.513-7.167,11.758-20.631,24.876-24.025
	c2.411-0.625,1.794-2.662,1.12-4.519c-1.374-3.803,1.438-6.252,3.241-8.89c7.076-10.349,14.19-20.673,21.482-30.867
	c4.075-5.705,5.868-13.991,15.421-13.894c1.779,0.018,2.771-2.013,2.589-4.197c-1.242-15.195,8.161-30.002,22.089-34.908
	c0.43-3.419-6.786-2.146-4.309-6.151c8.708-14.082,15.526-29.472,27.444-41.369c1.856-1.85,5.171-2.233,7.815-3.297
	c-6.451-9.731,5.736-14.438,6.029-22.351c6.343-2.181,12.528-0.942,15.851,4.494c4.009,6.556,8.098,7.407,14.256,3.87
	c1.859-1.071,4.553-2.177,5.876,0.401c1.691,3.304-1.239,4.822-3.646,5.517c-19.354,5.6-16.911,26.963-27.95,38.574
	c-1.581,1.664,0.945,3.032,2.083,4.393c4.211,5.066,2.296,6.019-3.363,5.331c-4.219-0.513-16.392,12.777-15.743,16.866
	c0.579,3.656,4.508,3.168,6.762,4.783c1.863,1.333,4.075,2.631,2.513,5.157c-1.044,1.682-3.476,1.769-5.042,0.694
	c-9.176-6.277-12.878,0.251-17.044,6.769c-3.785,5.917-8.15,11.465-12.26,17.173c-3.671,5.094-10.349,10.194,0.265,15.125
	c1.313,0.606,2.101,2.352,1.047,3.768c-1.26,1.692-3.318,1.982-4.902,0.677c-6.276-5.174-11.021-2.965-13.757,3.493
	c-2.955,6.971-16.984,10.826-6.57,21.883c0.827,0.879,1.448,2.917,0.991,3.831c-0.974,1.957-3.563,2.086-4.748,0.771
	c-7.313-8.104-10.384-0.551-14.078,3.747C602.099,543.525,579.744,566.538,552.973,584.855z"/>
<path fill-rule="evenodd" clip-rule="evenodd" fill="#74A38F" d="M423.445,438.118c0.597,22.689,0.59,45.441,7.112,68.137
	c5.591-17.351,18.337-30.975,23.546-48.417c0.949-3.179,2.011-6.49-1.476-8.991c5.312-15.903,3.025-32.863,6.837-48.965
	c3.445-14.556,5.193-29.88,17.378-40.724c6.431,29.067-3.479,56.061-10.498,83.45c-11.072,43.214-23.528,86.087-31.928,129.958
	c-0.262,1.364-1.254,2.589-2.889,5.819c-22.572-78.191-31.905-156.335-34-235.63c8.096,14.008,9.903,30.047,15.048,44.966
	c0.845,2.453,0.756,5.167,3.773,6.155c0.284,3.614,0.581,7.226,0.876,10.833c1.042,7.097,2.201,13.97,0.846,21.426
	C417.511,429.222,417.307,436.13,423.445,438.118z M450.71,477.433c-12.737,17.554-18.984,38.386-14.977,49.973
	C443.207,511.496,449.081,496.535,450.71,477.433z"/>
<path fill-rule="evenodd" clip-rule="evenodd" fill="#286656" d="M528.683,585.072c-5.959-0.063-11.915-0.119-17.87-0.182
	c7.504-12.532,18.593-21.929,28.603-32.214c19.877-20.432,39.998-40.619,54.478-65.51c2.274-3.915,6.363-7.578,2.051-12.864
	c-1.444-1.769-0.746-5.449,1.954-4.728c8.046,2.146,8.011-4.762,10.24-8.572c4.288-7.323,7.704-15.153,11.811-22.588
	c3.279-5.932,3.933-10.478,1.183-17.913c-2.899-7.83,10.579,5.069,12.603-5.89c1.357-7.351,8.21-13.799,13.004-20.362
	c2.951-4.04,5.938-7.411,1.96-12.623c-1.793-2.352-4.598-6.35-0.098-8.332c3.782-1.671,4.041,3.221,5.75,5.314
	c0.691,0.844,1.273,1.776,2.188,3.074c11.611-10.903,22.627-21.381,36.894-27.351c-6.406,14.633-12.55,29.493-28.118,37.148
	c-2.986,1.469-2.638,4.001-3.028,6.542c-2.467,15.959-8.07,30.055-23.555,37.891c-2.079,1.05-2.857,2.31-2.017,4.288
	c3.199,7.543-2.236,12.578-5.149,18.366c-7.917,15.742-20.544,28.247-29.482,43.41c-6.685,11.34-16.538,20.795-24.817,31.22
	C562.484,551.818,544.219,567.163,528.683,585.072z"/>
<path fill-rule="evenodd" clip-rule="evenodd" fill="#286656" d="M313.147,587.811c-7.793-0.662-15.859,4.023-23.415-1.2
	c-3.21-8.677-6.507-17.333-9.602-26.06c-2.343-6.607-3.552-14.154-13.616-12.347c-1.716,0.307-3.866-0.758-4.047-2.956
	c-0.251-3.028,2.223-3.659,4.45-3.628c5.68,0.08,6.012-2.446,4.127-6.957c-1.562-3.744-2.73-7.7-3.622-11.664
	c-1.612-7.166-4.234-12.599-13.224-10.924c-2.578,0.478-5.819-0.353-5.581-3.733c0.173-2.442,3.139-3.035,5.368-2.815
	c7.519,0.746,7.714-2.509,5.357-8.37c-2.758-6.856-4.781-14.012-7.095-21.046c-2.709-8.234-3.074-18.81-16.669-15.69
	c-1.954,0.45-5.006-0.547-4.958-3.269c0.066-3.838,3.618-3.3,5.879-2.924c9.022,1.497,8.451-3.342,6.929-9.525
	c-1.148-4.661-2.305-9.476-2.301-14.225c0.007-7.864-1.426-13.907-10.823-14.602c-2.177-0.161-5.059-1.124-4.604-3.719
	c0.593-3.381,4.064-3.249,6.373-2.327c6.479,2.589,7.015-0.785,7.613-5.998c0.546-4.756,2.467-9.469,8.358-10.457
	c0.686,2.08,1.455,4.138,2.042,6.245c3.444,12.351,16.508,22.274,9.485,37.371c-0.241,0.517,1.479,2.69,2.566,2.959
	c5.673,1.402,5.664,6.193,6.636,10.422c2.811,12.215,3.524,25.459,8.929,36.383c5.98,12.086,1.802,25.048,9.469,37.797
	C298.722,543.752,306.776,565.761,313.147,587.811z"/>
<path fill-rule="evenodd" clip-rule="evenodd" fill="#286656" d="M243.634,57.317c6.614-0.129,11.196-2.111,10.431-10.122
	c-0.241-2.526,0.993-5.708,4.306-5.157c2.536,0.422,2.777,3.506,2.221,5.61c-3.004,11.335,6.13,15.438,12.389,21.272
	c1.623,1.514,3.118,3.248,5.41,0.705c1.596-1.769,3.243-4.993,6.156-2.163c2.516,2.439-0.099,4.892-1.21,6.992
	c-1.663,3.14-0.831,5.568,1.035,8.161c6.02,8.384,11.951,16.834,18.021,25.403c3.559-3.186,3.437-6.988,4.133-10.509
	c0.499-2.522,0.843-5.694,4.544-4.78c2.859,0.708,2.721,3.72,1.861,5.576c-11.17,24.109,9.719,34.67,20.325,50.577
	c4.721-4.428,5.08-9.891,7.564-14.183c0.955-1.65,2.298-3.356,4.276-2.739c2.891,0.9,2.727,3.51,1.371,5.426
	c-11.385,16.067-0.578,25.278,10.434,34.534c2.835,2.383,5.488,4.993,8.129,7.596c3.241,3.196,6.059,4.609,7.69-1.315
	c0.527-1.919,1.709-3.688,3.696-3.437c2.033,0.254,3.331,2.529,2.467,4.232c-5.709,11.234,3.521,14.874,9.853,20.065
	c1.699,1.393,3.213,3.008,4.812,4.522l-0.694,0.597c-5.314-1.305-10.725,5.732-15.714,0.471
	c-14.2-14.964-37.397-20.924-43.885-43.693c-0.201-0.702-2.537-1.159-3.859-1.117c-6.291,0.188-10.056-4.012-14.12-7.767
	c-7.505-6.933-12.936-16.021-20.263-22.668c-14.155-12.836-23.882-29.011-36.439-42.929c-3.433-3.81,2.96-9.479-1.608-10.69
	C246.825,73.098,246.844,64.299,243.634,57.317z"/>
<path fill-rule="evenodd" clip-rule="evenodd" fill="#286656" d="M328.183,587.238c-2.639,1.881-5.397,3.088-8.644,1.535
	c-1.417-12.592-13.792-22.28-9.713-36.425c0.182-0.628-1.694-2.48-2.847-2.746c-4.572-1.054-4.652-5.163-6.402-8.293
	c-11.662-20.844-11.508-45.249-20.615-67.063c-5.575-13.356-5.313-29.367-12.014-42.377c-3.582-6.95,7.555-14.172-1.479-17.881
	c-8.089-3.318-7.681-11.008-11.687-16.276c-1.727-2.268-1.886-5.743-5.244-6.758c-0.237-0.698-0.659-1.389-0.682-2.094
	c-0.14-4.347-6.146-10.463,0.042-12.431c4.435-1.413,4.011,6.409,5.429,10.226c0.772,2.08,0.98,4.452,3.102,5.614
	c12,6.569,17.175,18.792,24.163,29.472c2.786,0.181,2.603-2.191,3.438-3.458c1.305-1.975,1.688-5.6,5.204-3.733
	c2.188,1.162,2.149,4.001,0.846,5.91c-7.824,11.468-0.396,20.896,3.882,30.766c-0.199,0.715-0.251,1.441-0.157,2.181
	c-4.654-0.052-7.042,1.926-6.137,6.853c-5.541,5.788-2.568,11.633,0.171,17.215c10.583,21.569,20.135,43.501,26.372,66.804
	c1.244,4.651,1.333,10.719,7.88,12.25c0.152,2.09,0.305,4.177,0.457,6.263c-3.074,2.945-0.576,3.873,1.758,4.86
	c0.157,2.094,0.316,4.184,0.475,6.273c-3.042,2.927-0.576,3.869,1.751,4.86C327.747,581.604,327.965,584.423,328.183,587.238z"/>
<path fill-rule="evenodd" clip-rule="evenodd" fill="#5E9C8C" d="M528.683,585.072c15.536-17.909,33.802-33.254,48.581-51.875
	c8.279-10.425,18.133-19.88,24.817-31.22c8.938-15.163,21.565-27.668,29.482-43.41c2.913-5.788,8.349-10.823,5.149-18.366
	c-0.841-1.978-0.063-3.238,2.017-4.288c15.484-7.836,21.088-21.932,23.555-37.891c0.391-2.54,0.042-5.073,3.028-6.542
	c15.568-7.655,21.712-22.515,28.118-37.148c2.676-2.18,5.655-3.286,9.145-2.582c-0.293,7.913-12.48,12.62-6.029,22.351
	c-2.645,1.064-5.959,1.448-7.815,3.297c-11.918,11.897-18.736,27.287-27.444,41.369c-2.478,4.005,4.738,2.731,4.309,6.151
	c-13.928,4.906-23.331,19.713-22.089,34.908c0.182,2.184-0.81,4.215-2.589,4.197c-9.553-0.098-11.346,8.188-15.421,13.894
	c-7.292,10.194-14.406,20.519-21.482,30.867c-1.804,2.638-4.615,5.087-3.241,8.89c0.674,1.856,1.291,3.894-1.12,4.519
	c-13.118,3.395-16.363,16.858-24.876,24.025c-11.169,9.399-19.18,21.381-30.184,30.595c-2.962,2.474-6.825,4.783-6.863,9.56
	C534.534,587.183,531.456,587.18,528.683,585.072z"/>
<path fill-rule="evenodd" clip-rule="evenodd" fill="#5E9C8C" d="M243.634,57.317c3.21,6.981,3.191,15.781,13.33,18.471
	c4.569,1.211-1.825,6.88,1.608,10.69c12.557,13.917,22.284,30.093,36.439,42.929c7.327,6.646,12.758,15.735,20.263,22.668
	c4.064,3.754,7.829,7.955,14.12,7.767c1.322-0.042,3.658,0.415,3.859,1.117c6.487,22.769,29.685,28.729,43.885,43.693
	c4.989,5.261,10.4-1.776,15.714-0.471c-3.496,6.828-1.146,11.291,5.085,15.264c6.512,4.156,13.34,8.088,18.516,14.061
	c2.294,2.645,6.139,4.56,4.323,10.729c-14.321-13.9-30.159-24.716-46.28-34.988c-21.492-13.69-37.725-33.39-57.727-48.654
	c-6.584-5.024-15.532-5.572-17.855-16.946c-1.19-5.833-8.641-12.746-16.566-15.177c-3.487-1.071-2.257-4.163-3.438-6.12
	c-4.237-7.041-6.858-16.074-17.48-16.359c-2.001-0.053-4.595-1.029-3.997-2.792c4.199-12.379-7.573-18.049-11.032-27.148
	c-2.339-6.162-7.306-11.259-7.446-18.328C240.515,57.589,242.074,57.453,243.634,57.317z"/>
<path fill-rule="evenodd" clip-rule="evenodd" fill="#286656" d="M370.512,409.132c-4.858-6.472-9.802-12.882-14.544-19.441
	c-3.055-4.222-5.631-8.817-12.209-6.28c-1.75,0.677-3.805,0.024-4.644-1.94c-0.616-1.438-0.115-3.154,1.436-3.649
	c6.697-2.135,3.238-5.659,1.427-9.068c-3.988-7.508-7.742-15.177-8.009-23.851c-0.169-5.464-2.362-8.845-7.383-10.987
	c-2.771-1.183-7.508-2.4-5.401-6.632c1.833-3.685,5.368-0.782,7.554,0.698c5.039,3.412,6.109-1.138,8.28-3.636
	c10.91,12.484,13.445,21.744,7.749,31.056c10.44-2.048,14.439,4.982,18.772,11.929c2.482,3.978,4.628,8.419,9.04,10.872
	C376.131,388.798,374.648,399.052,370.512,409.132z"/>
<path fill-rule="evenodd" clip-rule="evenodd" fill="#5E9C8C" d="M249.537,390.954c3.358,1.015,3.517,4.49,5.244,6.758
	c4.005,5.269,3.597,12.958,11.687,16.276c9.035,3.709-2.102,10.931,1.479,17.881c6.701,13.01,6.439,29.021,12.014,42.377
	c9.106,21.813,8.953,46.219,20.615,67.063c1.75,3.13,1.83,7.239,6.402,8.293c1.153,0.266,3.029,2.118,2.847,2.746
	c-4.079,14.145,8.297,23.833,9.713,36.425c-2.132-0.32-4.265-0.642-6.394-0.963c-6.369-22.05-14.424-44.059-25.971-63.259
	c-7.667-12.749-3.489-25.711-9.469-37.797c-5.405-10.924-6.118-24.168-8.929-36.383c-0.972-4.229-0.963-9.02-6.636-10.422
	c-1.087-0.269-2.807-2.442-2.566-2.959c7.023-15.097-6.041-25.02-9.485-37.371c-0.588-2.107-1.357-4.166-2.042-6.245
	C248.545,392.569,249.042,391.76,249.537,390.954z"/>
<path fill-rule="evenodd" clip-rule="evenodd" fill="#74A38F" d="M370.512,409.132c4.136-10.08,5.619-20.334,2.069-30.93
	c0.08-1.717,0.16-3.43,0.239-5.143c3.66-8.234,2.362-17.313,4.417-25.818c1.738-4.675,3.475-9.347,5.212-14.022
	c7.72,5.739,3.214,13.61,2.956,20.341c-0.464,12.097-3.559,24.147-3.454,36.199c0.208,23.92-4.759,47.674-0.717,71.793
	c1.987,11.869,2.149,24.15,4.351,36.107c0.476,2.586,0.996,5.153-1.422,7.152c-8.278-26.223-9.909-53.396-11.316-80.578
	C372.579,419.083,372.776,413.943,370.512,409.132z"/>
<path fill-rule="evenodd" clip-rule="evenodd" fill="#5E9C8C" d="M483.855,500.334c-2.76-7.302,2.258-13.3,3.782-19.736
	c6.351-26.824,13.294-53.491,14.264-81.235c0.433-12.246-1.413-24.221-5.122-35.856c-1.158-3.632-1.821-7.114-1.138-10.84
	c4.341,2.875,8.681,5.75,13.018,8.625c-1.486,13.119,4.337,26.018,0.796,39.353c3.778-5.862,13.792-9.462,6.217-18.711
	c-0.366-0.447,0.594-2.792,0.778-2.771c13,1.364,9.448-11.183,14.134-16.737c1.762,0.475,2.742,1.539,2.62,3.447
	c-3.384,13.938-13.628,32.109-21.555,42.513c-8.541,11.214-12.561,24.256-9.623,38.676c-6.908,9.511-6.482,21.398-10.338,31.896
	C489.072,486.082,488.238,493.859,483.855,500.334z"/>
<path fill-rule="evenodd" clip-rule="evenodd" fill="#76A592" d="M364.076,587.051c-2.997,0.09-5.994,0.185-8.993,0.278
	c-1.118-18.638-7.111-36.055-13.375-53.406c-10.431-28.893-25.262-55.629-40.295-82.267c6.602-2.386,7.922,2.655,11.082,6.769
	C341.761,496.521,352.531,541.92,364.076,587.051z"/>
<path fill-rule="evenodd" clip-rule="evenodd" fill="#76A592" d="M528.463,478.071c5.579,4.766,1.218,10.107-0.191,14.276
	c-11.047,32.661-30.787,59.32-57.736,80.712c-1.396,1.109-3.006,3.245-4.695,1.88c-3.422-2.76-0.937-6.873-1.535-10.341
	c5.252,1.029,6.794-3.72,9.464-6.378c18.571-18.523,31.732-40.755,43.679-63.859C520.441,488.569,522.521,481.954,528.463,478.071z"
	/>
<path fill-rule="evenodd" clip-rule="evenodd" fill="#286656" d="M377.237,347.24c-2.055,8.506-0.757,17.584-4.417,25.818
	c-6.101-7.138-4.234-18.959-14.975-23.903c-2.866-1.319-7.506-7.75-1.348-12.965c1.223-1.033,0.579-4.731-1.312-4.148
	c-11.507,3.521-8.073-9.012-13.357-11.967c0.176-2.163,0.417-4.323,0.511-6.493c0.102-2.313-2.042-5.404,1.328-6.612
	c3.44-1.235,3.519,2.164,4.958,4.194c3.773,5.325,8.466,9.1,13.94,1.595c1.193-1.636,2.275-3.011,4.351-1.762
	c2.319,1.396,2.071,3.88,1.629,5.949C366.051,328.633,369.144,338.633,377.237,347.24z"/>
<path fill-rule="evenodd" clip-rule="evenodd" fill="#286656" d="M502.026,447.061c-2.938-14.42,1.082-27.462,9.623-38.676
	c7.927-10.404,18.171-28.575,21.555-42.513c5.852,6.992,5.422,14.989,2.935,22.867C529.192,410.719,518.271,430.471,502.026,447.061
	z"/>
<path fill-rule="evenodd" clip-rule="evenodd" fill="#468E7A" d="M301.414,451.656c15.033,26.638,29.864,53.375,40.295,82.267
	c6.264,17.352,12.257,34.769,13.375,53.406c-2.224-0.118-4.45-0.24-6.676-0.359c0.517-17.085-5.809-32.64-11.182-48.322
	c-10.363-30.261-25.156-58.382-42.421-85.24c-0.094-0.74-0.042-1.465,0.157-2.181C297.112,451.37,299.263,451.513,301.414,451.656z"
	/>
<path fill-rule="evenodd" clip-rule="evenodd" fill="#76A592" d="M517.413,560.388c-0.415-3.577,1.608-6.141,3.28-9.055
	c10.09-17.605,17.863-36.132,22.769-55.929c2.684-10.819,0.175-19.486-7.557-27.05c1.911,1.423,4.044,1.65,6.308,1.144
	c1.619,2.617,4.146,2.233,6.626,2.007c9.315,23.739,1.706,44.697-11.147,64.48C531.935,544.848,525.821,553.629,517.413,560.388z"/>
<path fill-rule="evenodd" clip-rule="evenodd" fill="#306F56" d="M530.584,362.424c-4.686,5.554-1.134,18.101-14.134,16.737
	c-0.185-0.021-1.145,2.324-0.778,2.771c7.575,9.249-2.438,12.85-6.217,18.711c3.541-13.335-2.282-26.234-0.796-39.353
	c5.761-4.142,16.524-1.159,17.521-12.253c0.032-0.349,1.905-0.862,2.837-0.729c1.699,0.244,2.261,1.706,2.198,3.255
	C531.069,355.185,530.804,358.803,530.584,362.424z"/>
<path fill-rule="evenodd" clip-rule="evenodd" fill="#5E9C8C" d="M341.827,320.075c5.284,2.955,1.851,15.488,13.357,11.967
	c1.891-0.583,2.535,3.116,1.312,4.148c-6.158,5.216-1.518,11.646,1.348,12.965c10.741,4.944,8.875,16.765,14.975,23.903
	c-0.079,1.713-0.159,3.426-0.239,5.143c-4.414-2.453-6.56-6.894-9.042-10.872c-4.333-6.947-8.332-13.977-18.772-11.929
	c5.696-9.312,3.161-18.572-7.749-31.056C337.506,321.666,339.486,320.668,341.827,320.075z"/>
<path fill-rule="evenodd" clip-rule="evenodd" fill="#74A38F" d="M368.759,549.271c10.176,10.575,15.418,24.447,24.083,36.034
	c-4.388,3.203-8.767,1.73-13.144-0.018C371.955,574.528,365.476,563.381,368.759,549.271z"/>
<path fill-rule="evenodd" clip-rule="evenodd" fill="#468E7A" d="M296.196,170.563c4.401,1.633,7.135,5.157,9.862,8.688
	c-5.528,1.497-11.038,3.067-16.592,4.452c-2.355,0.59-5.443,2.023-6.631-1.294c-1.431-3.999,2.444-4.316,4.802-5.806
	C290.58,174.75,296.587,177.092,296.196,170.563z"/>
<path fill-rule="evenodd" clip-rule="evenodd" fill="#468E7A" d="M399.6,28.582c0.138,0.568,0.169,1.137,0.094,1.72
	c-1.884,0.094-3.592,0.523-4.593,2.341c-1.233,0.778-2.467,1.556-3.7,2.331c-1.777-4.801-3.616-9.584-5.307-14.417
	c-0.874-2.505-1.545-5.356,1.673-6.622c3.522-1.382,4.1,1.549,5.131,3.991C394.541,21.813,394.347,26.945,399.6,28.582z"/>
<path fill-rule="evenodd" clip-rule="evenodd" fill="#74A38F" d="M383.908,542.9c0.031,7.354,4.296,13.628,5.185,20.882
	c-8.084-7.229-13.449-15.571-11.856-27.002c0.801-3.677,2.392-4.218,4.257-0.771C382.638,538.124,383.125,540.594,383.908,542.9z"/>
<path fill-rule="evenodd" clip-rule="evenodd" fill="#468E7A" d="M548.839,471.505c-2.48,0.227-5.007,0.61-6.626-2.007
	c0.35-0.635,0.537-1.489,1.068-1.873c3.949-2.861,1.685-13.9,8.875-10.143C557.555,460.302,551.18,466.896,548.839,471.505z"/>
<path fill-rule="evenodd" clip-rule="evenodd" fill="#8BBAB1" d="M490.918,335.824c-1.058,5.101,0.941,10.753-3.601,18.108
	c-0.454-7.788-0.761-12.965-1.064-18.146C487.809,335.8,489.365,335.81,490.918,335.824z"/>
<path fill-rule="evenodd" clip-rule="evenodd" fill="#74A38F" d="M384.808,509.099c2.774,0.823,4.459,1.996,1.476,4.647
	C384.703,512.543,384.23,510.99,384.808,509.099z"/>
<path fill-rule="evenodd" clip-rule="evenodd" fill="#74A38F" d="M387.001,518.014c2.744,0.816,4.469,1.968,1.514,4.644
	C386.959,521.453,386.417,519.918,387.001,518.014z"/>
<path fill-rule="evenodd" clip-rule="evenodd" fill="#74A38F" d="M389.422,526.893c2.62,0.865,4.163,2.076,1.478,4.634
	C389.499,530.271,388.852,528.777,389.422,526.893z"/>
<path fill-rule="evenodd" clip-rule="evenodd" fill="#76A592" d="M513.052,564.986c0.084-2.802,1.382-4.456,4.319-4.547
	C517.029,562.997,516.011,564.909,513.052,564.986z"/>
<path fill-rule="evenodd" clip-rule="evenodd" fill="#74A38F" d="M439.315,584.325c4.059-32.336,13.766-63.405,21.426-94.925
	c7.06-29.043,14.653-57.957,22.239-86.866c3.9-14.874,2.076-29.87,2.013-45.151c8.72,7.557,9.553,17.996,10.223,28.24
	c2.429,37.203-8.077,72.386-17.396,107.716c-7.247,27.476-14.825,54.865-22.086,82.337c-0.738,2.792-0.309,5.89-0.422,8.845
	C449.981,584.454,444.648,584.389,439.315,584.325z"/>
<path fill-rule="evenodd" clip-rule="evenodd" fill="#74A38F" d="M413.017,585.166c-6.68-28.369-16.464-56.006-21.176-84.807
	c-5.616-34.325-8.325-68.87-3.852-103.663c0.822-6.395,0.117-12.986,2.023-19.632c6.546,70.296,17.213,139.683,36.331,207.582
	C421.9,584.82,417.46,584.992,413.017,585.166z"/>
<path fill-rule="evenodd" clip-rule="evenodd" fill="#0A0909" d="M328.365,676.407c9.869-2.986,19.214-2.777,27.41,4.477
	c7.649,16.297,9.567,33.132,4.745,50.598l0.464,0.534c0,0,0.544-0.454,0.537-0.457c-2.141-0.35-1.95,1.354-2.289,2.589
	c-12.341,7.414-24.172,5.966-35.626-2.049c-0.162-1.263-0.412-2.456-2.059-2.501l0.513-0.049
	c-7.215-17.676-6.556-34.674,4.347-50.797c0,0-0.427,0.011-0.426,0.011C326.777,677.978,327.573,677.192,328.365,676.407z"/>
<path fill-rule="evenodd" clip-rule="evenodd" fill="#D84F6D" d="M471.181,781.318c-5.565,17.17-28.129,28.555-47.992,23.303
	c-11.692-3.094-23.277-7.316-28.753-19.859C409.252,759.903,452.409,757.97,471.181,781.318z"/>
<path fill-rule="evenodd" clip-rule="evenodd" fill="#0A0909" d="M471.181,781.318c-18.771-23.349-61.929-21.415-76.745,3.443
	c-5.166-1.82-6.587-6.74-8.67-10.917c-9.003-18.056-5.422-23.771,14.576-23.562c22.511,0.238,44.942,1.637,67.403,3.276
	c13.802,1.009,12.756,6.138,10.146,15.646C476.647,773.736,476.097,778.771,471.181,781.318z"/>
<path fill-rule="evenodd" clip-rule="evenodd" fill="#0A0909" d="M533.139,731.945c-8.412,1.975-16.629,1.808-24.476-2.289
	c-0.321-1.192-0.13-2.85-2.212-2.477l0.621,0.32c0,0,0.355-0.604,0.349-0.6c-4.815-18.317-4.361-36.094,5.446-52.907
	c9.721-3.813,18.16-0.537,26.233,4.741c0.698,1.654,0.604,3.813,2.854,4.483l-0.488,0.063
	C545.904,700.736,545.158,717.309,533.139,731.945z"/>
<path fill-rule="evenodd" clip-rule="evenodd" fill="#74A38F" d="M294.804,453.407c17.266,26.858,32.059,54.979,42.421,85.24
	c5.373,15.683,11.699,31.237,11.182,48.322c-6.741,0.088-13.483,0.179-20.224,0.269c-0.218-2.815-0.436-5.635-0.646-8.453
	c0.626-2.059,0.38-3.804-1.758-4.86c-0.159-2.09-0.317-4.18-0.468-6.276c0.626-2.059,0.372-3.804-1.765-4.857
	c-0.152-2.086-0.305-4.173-0.452-6.266c-4.407-26.625-11.744-52.416-23.256-76.839c-3.156-6.695-2.957-15.575-11.172-19.427
	C287.761,455.333,290.149,453.355,294.804,453.407z"/>
<path fill-rule="evenodd" clip-rule="evenodd" fill="#EF7E69" d="M535.396,778.793c-9.357,0.799-17.406-1.253-24.511-6.668
	c-8.99-6.853-8.69-15.3,0.778-21.408c10.355-6.682,37.939-2.69,45.79,6.751c3.894,4.683,3.443,9.479-0.404,14.043
	C551.166,778.485,543.354,779.741,535.396,778.793z"/>
<path fill-rule="evenodd" clip-rule="evenodd" fill="#EF7E69" d="M329.108,751.938c8.843-0.304,16.866,2.676,24.072,7.278
	c8.307,5.303,8.71,17.02,0.363,20.951c-9.602,4.525-20.125,7.86-30.927,3.485c-8.604-3.481-16.71-8.3-14.179-19.434
	C310.85,753.602,319.389,751.31,329.108,751.938z"/>
<path fill-rule="evenodd" clip-rule="evenodd" fill="#74A38F" d="M468.452,584.329c12.686-12.854,26.115-25.072,37.869-38.731
	c14.075-16.35,23.178-35.812,30.438-56.215c-0.757,13.938-5.582,26.795-11.21,39.209c-8.276,18.266-18.548,35.379-33.209,49.453
	c-1.891,1.814-3.685,3.695-3.656,6.58C481.937,584.527,475.196,584.43,468.452,584.329z"/>
<path fill-rule="evenodd" clip-rule="evenodd" fill="#F5F4F4" d="M512.867,673.993c-9.808,16.813-10.262,34.59-5.446,52.907
	c-7.125,1.36-8.563-5.014-10.99-8.929C485.66,700.594,494.201,678.299,512.867,673.993z"/>
<path fill-rule="evenodd" clip-rule="evenodd" fill="#F5F4F4" d="M326.407,678.752c-10.903,16.123-11.563,33.121-4.347,50.797
	c-10.783-3.943-15.501-13.984-13.953-29.691C309.283,687.932,315.605,680.643,326.407,678.752z"/>
<path fill-rule="evenodd" clip-rule="evenodd" fill="#F5F4F4" d="M360.52,731.481c4.822-17.466,2.904-34.301-4.745-50.598
	c13.476,2.554,15.501,13.674,16.791,24.189C373.875,715.771,373.608,726.848,360.52,731.481z"/>
<path fill-rule="evenodd" clip-rule="evenodd" fill="#F5F4F4" d="M533.139,731.945c12.02-14.637,12.766-31.209,8.328-48.664
	c9.476,3.896,13.227,12.644,11.729,27.354C551.989,722.463,545.622,729.231,533.139,731.945z"/>
<path fill-rule="evenodd" clip-rule="evenodd" fill="#74A38F" d="M401.767,582.766c1.901,0.053,3.515,0.621,4.399,2.48
	c-1.565,1.595-3.055,1.738-4.436-0.223c-0.074-0.729-0.091-1.455-0.051-2.185L401.767,582.766z"/>
<path fill-rule="evenodd" clip-rule="evenodd" fill="#F5F4F4" d="M541.955,683.218c-2.251-0.67-2.156-2.829-2.854-4.483
	C541.076,679.579,541.756,681.243,541.955,683.218z"/>
<path fill-rule="evenodd" clip-rule="evenodd" fill="#F5F4F4" d="M506.451,727.18c2.082-0.373,1.891,1.284,2.212,2.477
	C507.927,728.83,507.19,728.003,506.451,727.18z"/>
<path fill-rule="evenodd" clip-rule="evenodd" fill="#F5F4F4" d="M321.547,729.598c1.647,0.045,1.896,1.238,2.059,2.501
	C322.92,731.269,322.234,730.432,321.547,729.598z"/>
<path fill-rule="evenodd" clip-rule="evenodd" fill="#F5F4F4" d="M359.232,734.147c0.338-1.235,0.148-2.938,2.289-2.589
	C360.762,732.424,359.998,733.285,359.232,734.147z"/>
<path fill-rule="evenodd" clip-rule="evenodd" fill="#F5F4F4" d="M328.365,676.407c-0.792,0.785-1.587,1.57-2.383,2.355
	C326.775,677.978,327.571,677.192,328.365,676.407z"/>
<path fill-rule="evenodd" clip-rule="evenodd" fill="#5E9C8C" d="M395.101,32.643c1.001-1.818,2.709-2.247,4.593-2.341
	c4.508,11.329,9.016,22.665,13.522,33.997c0.136,0.342,0.16,0.792,0.397,1.026c7.507,7.463,10.261,15.358,9.235,26.879
	c-0.926,10.407,4.215,21.548,7.533,32.099c5.267,16.733,3.592,33.99,4.872,51.023c0.525,6.988-2.498,15.191,6.554,19.448
	c0.811,0.384,1.53,3.266,1.045,3.757c-11.162,11.266-5.703,25.421-5.159,37.814c0.677,15.449-3.45,30.364-2.336,45.577
	c0.435,5.921-4.129,14.605,2.408,17.156c6.08,2.372,10.947-5.803,14.04-10.607c4.925-7.655,11.51-12.752,18.331-18.275
	c9.341-7.557,15.475-18.391,23.53-27.298c6.116-6.761,11.636-15.152,17.665-22.793c6.939-8.799,12.776-18.914,19.043-28.491
	c2.307-3.521,3.175-7.386,2.882-11.629c-0.171-2.488-0.443-5.153,2.606-6.664c11.762-5.809,15.484-16.573,17.337-28.467
	c0.331-2.125,0.52-5.799,1.511-6.067c16.946-4.612,21.046-22.183,32.713-32.012c1.709-1.444,3.203-3.129,5.75-2.69
	c-3.29,13.544-15.296,21.049-22.268,32.057c-6.949,10.973-18.704,19.406-17.786,34.489c0.076,1.228-0.774,3.228-1.759,3.705
	c-13.307,6.462-16.949,19.187-20.418,31.799c-0.823,2.997-3.049,3.542-4.375,5.237c-9.054,11.552-21.039,21.395-23.648,36.983
	c-0.342,2.055-0.586,4.013-2.516,4.121c-11.789,0.652-15.198,12.044-23.027,17.731c-2.662,1.937-5,4.494-2.903,8.527
	c0.643,1.235,0.978,5.132-1.252,3.723c-8.393-5.307-8.978,3.419-12.486,6.35c-7.583,6.339-13.201,15.313-23.572,17.822
	c-5.397,1.305-3.902,5.467-4.354,8.866c-5.412,40.699-7.925,81.619-9.359,122.625c-6.144-1.988-5.94-8.896-5.38-11.981
	c1.355-7.456,0.196-14.33-0.846-21.426c0.743-1.21,2.151-2.435,2.128-3.632c-0.563-29.28,7.266-57.837,7.96-86.855
	c0.53-22.201,5.202-44.01,3.82-66.393c-1.39-22.504,0.466-45.21-1.012-67.704c-0.581-8.848-5.375-16.395-2.459-26.886
	c2.624-9.445,0.73-22.553-4.248-31.077c-5.869-10.045-3.065-20.421-6.631-29.925c-4.388-11.695-4.066-25.707-16.009-33.847
	C403.537,48.787,398.346,40.926,395.101,32.643z"/>
<path fill-rule="evenodd" clip-rule="evenodd" fill="#74A38F" d="M401.601,566.12c-5.595-2.366-5.985-7.212-7.896-10.827
	c-1.256-2.379-4.956-6.161-0.161-7.972c3.43-1.298,4.37,3.144,5.172,5.687C399.979,557.014,400.566,561.229,401.601,566.12z"/>
<path fill-rule="evenodd" clip-rule="evenodd" fill="#74A38F" d="M396.013,574.692c-0.154-0.227-0.307-0.457-0.459-0.684
	c0.34-0.179,0.68-0.359,1.021-0.538c0.042,0.283,0.185,0.604,0.094,0.831C396.592,574.49,396.242,574.566,396.013,574.692z"/>
<path fill-rule="evenodd" clip-rule="evenodd" fill="#74A38F" d="M401.679,582.839c-0.565-0.795-1.132-1.591-1.699-2.386
	c0.283-0.199,0.565-0.395,0.848-0.594c0.312,0.967,0.623,1.937,0.937,2.906C401.767,582.766,401.679,582.839,401.679,582.839z"/>
<path fill-rule="evenodd" clip-rule="evenodd" fill="#306F56" d="M450.71,477.433c-1.629,19.103-7.503,34.063-14.977,49.973
	C431.727,515.818,437.974,494.986,450.71,477.433z"/>
<path fill-rule="evenodd" clip-rule="evenodd" fill="#468E7A" d="M288.667,460.26c8.215,3.852,8.016,12.731,11.172,19.427
	c11.512,24.423,18.85,50.214,23.256,76.839c-6.553-1.528-6.642-7.596-7.885-12.247c-6.237-23.303-15.788-45.234-26.372-66.804
	C286.099,471.893,283.126,466.048,288.667,460.26z"/>
<path fill-rule="evenodd" clip-rule="evenodd" fill="#468E7A" d="M325.779,573.925c2.139,1.057,2.385,2.802,1.758,4.86
	C325.204,577.794,322.737,576.852,325.779,573.925z"/>
<path fill-rule="evenodd" clip-rule="evenodd" fill="#468E7A" d="M323.546,562.791c2.137,1.054,2.392,2.799,1.765,4.857
	C322.971,566.664,320.473,565.736,323.546,562.791z"/>
</svg>
