<?xml version="1.0" encoding="utf-8"?>
<!-- Generator: Adobe Illustrator 16.0.0, SVG Export Plug-In . SVG Version: 6.00 Build 0)  -->
<!DOCTYPE svg PUBLIC "-//W3C//DTD SVG 1.1//EN" "http://www.w3.org/Graphics/SVG/1.1/DTD/svg11.dtd">
<svg version="1.1" id="Layer_1" xmlns="http://www.w3.org/2000/svg" xmlns:xlink="http://www.w3.org/1999/xlink" x="0px" y="0px"
	 width="100%" height="100%" viewBox="0 0 928 928" xml:space="preserve">
<path fill-rule="evenodd" clip-rule="evenodd" fill="#F9B6AA" d="M506.516,591.085c64.337-0.019,128.683,0.442,193.01-0.333
	c20.406-0.248,40.729-1.564,61.152,0.271c6.44,0.581,7.456,2.851,7.617,8.481c1.364,47.518-8.255,93.224-21.634,138.466
	c-9.528,32.23-24.785,60.87-47.939,85.402c-30.575,32.396-68.971,50.063-111.271,61.086c-41.597,10.842-83.711,9.303-126.069,7.413
	c-28.751-1.284-55.988-7.84-82.2-18.878c-31.973-13.466-57.852-34.964-77.987-63.143c-26.679-37.339-48.118-77.574-59.913-121.989
	c-6.54-24.625-11.486-49.962-12.014-75.741c-0.237-11.569,1.438-13.387,12.71-13.754c13.985-0.449,28.002-1.171,41.946-1.322
	c37.971-0.414,75.814-3.441,113.741-4.647c23.951-0.76,47.904-0.078,71.827-1.302C481.833,591.095,494.173,591.09,506.516,591.085z
	 M618.844,703.313l-0.125,0.256c1.968-0.854,1.525-2.791,1.934-4.343c-0.359-2.449,1.064-4.319,2.057-6.331
	c4.355-16.99-1.845-30.367-17.43-37.237c-7.545-3.324-15.485-4.298-23.732-5.129c-14.095-1.419-30.038,15.607-32.46,25.309
	c-4.131,16.539,1.856,32.735,14.816,40.558c6.873,4.147,14.39,6.47,22.168,7.78c13.259,2.228,29.333-7.923,30.965-19.19
	l-0.057,0.275C618.183,705.166,618.661,704.383,618.844,703.313z M457.345,670.185l0.106,0.237
	c-0.155-4.905-3.437-7.699-6.843-10.576c-6.817-5.758-15.169-7.32-23.501-8.472c-32.008-4.428-48.692,19.6-43.191,47.023
	c3.34,16.646,20.594,29.236,37.565,27.354c10.625-1.179,22.423-1.492,29.127-12.566c14.558-9.209,18.057-25.868,8.664-41.265
	C458.63,671.341,457.989,670.76,457.345,670.185z M450.009,772.649c0.676,4.069,3.976,5.554,6.986,6.98
	c33.655,15.917,66.603,15.706,97.981-5.579c12.887-8.745,13.511-9.745,8.07-24.199c-4.191-11.132-9.206-21.682-20.661-27.111
	c-8.252-3.913-16.547-3.336-24.123,1.923c-7.31,5.079-7.664,12.687-6.383,20.491c1.427,8.71,4.469,16.918,8.695,24.671
	c4.837,8.872,4.641,9.393-5.811,10.481c-18.908,1.968-37.267-0.922-55.324-6.482C456.561,772.934,453.741,770.655,450.009,772.649z
	 M403.151,740.354c-2.333,0-3.499,0.058-4.66-0.01c-7.924-0.443-14.351,2.54-15.908,10.48c-1.487,7.573,2.72,13.357,9.749,16.734
	c10.868,5.223,21.801,5.421,32.46-0.338c7.991-4.316,8.711-13.866,1.597-19.4C419.252,742.27,411.172,739.396,403.151,740.354z
	 M609.95,760.03c5.717,0.22,11.064-1.33,16.267-3.191c4.74-1.702,8.116-5.379,8.08-10.413c-0.031-4.608-3.265-7.867-7.531-9.94
	c-8.274-4.015-17.081-4.144-25.675-2.446c-6.787,1.338-13.27,5.207-12.952,13.206c0.297,7.47,6.259,10.589,13.215,11.567
	C604.223,759.214,607.087,759.625,609.95,760.03z"/>
<path fill-rule="evenodd" clip-rule="evenodd" fill="#77A593" d="M554.268,215.958c9.215-1.099,18.403-2.51,27.649-3.23
	c18.645-1.458,24.711,5.854,20.39,24c-3.332,13.981-8.872,27.039-16.506,39.196c-3.718,5.922-6.426,12.292-8.935,18.771
	c-0.239,0.091-0.516,0.14-0.704,0.293c-0.09,0.071-0.02,0.346-0.02,0.529c0.197-0.313,0.397-0.623,0.599-0.935
	c3.39,1.032,5.342-1.407,7.685-3.082c33.892-24.186,71.77-33.854,113.098-31.146c20.104,1.316,39.025,6.717,56.906,15.849
	c16.325,8.34,17.516,23.135,1.854,33.101c-21.072,13.411-44.404,21.919-68.543,28.134c-19.198,4.944-38.63,8.798-58.191,11.989
	c-8.023-8.84-17.745-14.102-29.507-17.139c-22.325-5.763-45.061-7.582-67.84-9.593c-1.943-0.171-4.348,0.686-5.546-1.522
	c-1.474-2.718,0.786-4.368,2.416-5.882c3.994-3.709,6.043-8.594,8.009-13.402c4.881-11.929,3.071-24.417-3.983-30.23
	c-0.576-0.59-1.151-1.182-1.724-1.772c-2.104-6.39-6.399-7.299-12.333-5.393c-11.249,3.616-16.989,12.687-22.399,22.077
	c-2.657,4.612-4.876,9.476-7.292,14.224c-2.315-8.908-3.257-17.157-3.757-25.433c-0.549-9.076-2.419-17.714-5.954-26.148
	c-4.609-11.005-12.563-19.445-20.196-28.191c1.686-37.562,2.479-75.154,11.737-112.003c5.358-21.32,13.87-40.138,31.589-54.049
	c6.88-5.404,13.092-11.648,19.686-17.421c4.551-3.987,10.555-4.938,14.137-0.47c16.137,20.115,31.189,40.701,33.475,68.037
	c1.739,20.805-2.411,40.661-6.274,60.694c-3.199,16.596-6.631,33.146-9.958,49.72c-0.195,0.338-0.393,0.675-0.594,1.011
	C553.58,216.346,553.925,216.151,554.268,215.958z M682.461,266.463c-6.015-0.066-15.105-0.459-23.713,3.085
	c-2.118,0.875-4.811,1.949-3.904,4.89c0.854,2.769,3.324,2.338,5.854,2.049c19.794-2.253,39.51-2.432,58.946,2.889
	c2.635,0.721,6.115,3.033,7.554-0.735c1.338-3.503-2.474-4.823-4.994-6.064C710.599,266.854,698.076,266.404,682.461,266.463z
	 M559.62,90.616c-3.751-13.762-10.251-27.293-19.853-39.3c-1.791-2.242-4.666-3.473-7.006-1.713
	c-3.085,2.315-1.247,5.162,0.527,7.652c6.14,8.627,10.482,18.228,14.804,27.813c1.437,3.19,2.28,6.664,4.796,9.245
	c1.354,1.388,2.499,3.797,4.873,2.937C560.287,96.333,558.949,93.715,559.62,90.616z M596.313,233.898
	c-0.183-2.028-0.203-4.088-0.588-6.079c-0.287-1.474-1.298-2.642-2.977-2.746c-1.71-0.106-2.846,1.003-3.194,2.449
	c-1.434,5.927-2.812,11.877-3.946,17.866c-0.365,1.941-0.331,4.424,2.317,4.984c2.358,0.501,3.675-1.266,4.74-3.125
	C595.027,243.113,596.754,238.816,596.313,233.898z M564.504,109.149c-0.145-3.894-1.985-6.928-5.925-7.146
	c-3.515-0.195-6.159,2.435-5.936,5.976c0.25,3.935,3.228,5.805,7.19,5.885C563.053,113.928,564.641,112.428,564.504,109.149z
	 M542.75,232.683c-10.658,4.922-18.197,15.524-16.636,24.457C530.666,247.152,537.82,240.798,542.75,232.683z M740.443,282.261
	c-2.181,0.185-5.186-0.52-5.381,2.708c-0.201,3.322,2.364,5.289,5.346,5.71c3.27,0.465,5.836-1.566,5.846-4.783
	C746.266,282.522,743.047,282.479,740.443,282.261z M587.124,258.549c-0.323-2.593-1.881-4.096-4.531-4.246
	c-2.936-0.164-4.136,1.58-4.146,4.319c-0.011,2.725,1.117,4.515,4.089,4.352C585.187,262.83,586.751,261.333,587.124,258.549z"/>
<path fill-rule="evenodd" clip-rule="evenodd" fill="#8FBCB4" d="M533.098,271.657c7.055,5.813,8.864,18.301,3.983,30.23
	c-1.966,4.808-4.015,9.693-8.009,13.402c-1.63,1.514-3.89,3.164-2.416,5.882c1.198,2.208,3.603,1.351,5.546,1.522
	c22.779,2.011,45.515,3.831,67.84,9.593c11.762,3.037,21.483,8.298,29.507,17.139c-1.005,14.891-10.466,23.883-21.78,31.798
	c-11.919,8.341-25.089,12.144-39.516,12.003c-4.675-0.046-9.351-0.14-14.023-0.211c-2.227-0.616-4.418-1.424-6.684-1.811
	c-19.307-3.312-34.406-13.608-46.881-28.222c-1.983-2.322-2.969-6.952-6.54-5.797c-2.813,0.911-2.897,5.274-3.279,8.417
	c-0.174,1.448-0.149,2.917-0.214,4.377c-4.24,8.967-8.479,17.935-12.718,26.901c-7.269,2.975-11.476,9.556-16.873,14.652
	c-13.413,12.669-29.115,18.95-47.49,18.492c-21.917-0.545-33.556-19.104-24.48-38.954c2.443-5.344,5.87-10.022,9.98-14.241
	c1.713-1.761,4.553-3.055,3.596-6.385c4.23-0.202,7.874-1.733,10.91-4.722c7.715-7.598,17.033-12.923,26.258-18.361
	c2.49-1.467,5.404-2.374,5.816-5.851c9.937-1.468,18.669-6.235,27.181-10.985c4.716-2.634,0.231-5.441-2.169-6.952
	c-20.35-12.796-32.905-31.884-42.771-53.033c-5.208-11.164-5.773-23.133-3.53-35.085c2.907-15.487,13.31-21.278,28.431-16.369
	c2.199,0.715,4.445,1.29,6.669,1.93c7.633,8.748,15.587,17.188,20.196,28.193c3.534,8.435,5.404,17.073,5.954,26.148
	c0.5,8.276,1.442,16.525,3.757,25.433c2.416-4.749,4.635-9.612,7.292-14.224c5.41-9.391,11.15-18.461,22.399-22.077
	c5.934-1.906,10.229-0.997,12.33,5.396c-3.946-0.085-5.709,1.659-5.54,5.772c0.234,5.767,0.029,11.547,0.092,17.319
	c0.031,2.581-0.157,5.749,3.27,6.114c3.326,0.354,4.296-2.947,4.779-5.243C535.544,286.44,534.982,278.994,533.098,271.657z
	 M564.344,380.611c8.17,0.995,16.006-1.787,23.212-6.568c1.879-1.249,4.015-3.094,2.671-5.767c-1.271-2.519-3.452-0.959-5.374-0.566
	c-10.277,2.101-20.67,3.031-31.147,2.339c-4.894-0.325-9.744-1.273-14.635-1.65c-2.151-0.164-5.132-0.827-5.719,2.381
	c-0.512,2.792,1.803,4.108,4.02,4.993C545.811,379.142,554.55,380.978,564.344,380.611z M416.814,422.594
	c2.326,0,4.774,0.464,6.949-0.107c3.311-0.871,7.186-1.919,7.187-6.385c0.003-5.152-4.319-3.364-7.144-3.982
	c-7.684-1.681-15.365-3.353-20.931-9.691c-1.855-2.111-4.345-3.308-7.01-1.786c-2.462,1.407-1.626,4.173-1.564,6.381
	C394.548,416.127,404.086,422.756,416.814,422.594z M441.169,233.205c0.61-2.413,0.672-5.193-1.92-6.004
	c-3.949-1.237-6.235,2.333-7.196,4.917c-4.294,11.554-4.219,23.339,0.316,34.872c1.247,3.172,3.188,7.307,7.339,5.861
	c3.748-1.302,2.347-5.82,1.718-8.565C439.033,253.868,439.536,243.569,441.169,233.205z M604.451,368.38
	c4.688,0.375,6.395-3.483,7.061-7.591c0.516-3.179-2.03-4.863-4.992-4.501c-4.109,0.501-8.293,1.606-8.451,6.932
	C597.959,366.845,600.349,368.275,604.451,368.38z M453.876,283.777c-0.272-3.059-1.958-4.762-5.042-4.784
	c-3.551-0.024-5.4,1.932-5.238,5.437c0.167,3.618,2.472,5.109,5.86,4.776C452.577,288.9,453.892,286.829,453.876,283.777z"/>
<path fill-rule="evenodd" clip-rule="evenodd" fill="#77A593" d="M445.63,341.512c-0.413,3.477-3.326,4.384-5.816,5.851
	c-9.225,5.438-18.542,10.763-26.258,18.361c-3.036,2.989-6.679,4.52-10.91,4.722c-28.595-13.817-56.092-29.531-74.857-55.99
	c-10.728-15.128-17.227-32.601-14.358-51.948c1.709-11.531,6.786-15.335,18.425-15.222c6.642,0.065,12.632,2.193,18.354,5.213
	c35.188,18.565,65.636,42.494,86.894,76.844C439.708,333.547,442.777,337.462,445.63,341.512z M334.799,294.271
	c-1.541-5.974-3.243-13.334-5.405-20.557c-0.853-2.85-3.108-5.22-6.406-5.163c-2.795,0.046-4.148,2.349-4.004,4.866
	c0.522,9.111,1.991,18.004,8.183,25.278c1.485,1.746,3.253,3.77,5.945,2.496C335.472,300.073,334.523,297.665,334.799,294.271z
	 M339.584,313.465c-0.089-2.763-1.614-4.281-4.203-4.607c-2.293-0.288-4.019,0.617-4.137,3.18c-0.137,3,1.183,5.12,4.383,5.177
	C337.924,317.258,339.219,315.713,339.584,313.465z"/>
<path fill-rule="evenodd" clip-rule="evenodd" fill="#8FBCB4" d="M469.618,552.684c-35.962,22.656-74.906,31.569-116.972,24.395
	c-17.508-2.988-26.731-15.891-25.361-33.183c0.565-7.118,4.039-11.986,10.959-14.205c10.995-3.524,22.106-3.737,33.589-2.598
	c31.447,3.124,62.93,8.877,94.504,0.983c1.671-0.416,3.25-1.2,4.875-1.813c5.593-0.097,10.882,0.716,12.256,7.278
	c1.215,5.806-1.312,10.055-6.477,13.088C474.282,548.22,472.06,550.638,469.618,552.684z M388,575.548
	c4.642-0.22,9.417,0.669,13.667-2.005c1.875-1.183,5.03-1.672,4.414-4.627c-0.637-3.054-3.694-2.191-5.891-2.24
	c-20.544-0.469-40.605-2.822-58.341-14.543c-1.553-1.028-3.297-1.736-4.656-0.019c-1.298,1.641-0.448,3.413,0.843,4.678
	c2.278,2.229,4.561,4.524,7.146,6.36C357.998,572.257,372.595,575.35,388,575.548z M343.062,540.453
	c-0.57-1.374-1.185-3.218-3.31-2.978c-3.995,0.455-6.102,3.197-6.583,6.953c-0.282,2.2,0.988,4.435,3.402,3.991
	C340.466,547.701,341.618,544.091,343.062,540.453z"/>
<path fill-rule="evenodd" clip-rule="evenodd" fill="#85A596" d="M469.618,552.684c2.442-2.046,4.664-4.464,7.373-6.055
	c5.165-3.033,7.692-7.282,6.477-13.088c-1.374-6.563-6.663-7.375-12.256-7.278c1.938-40.52,3.867-81.04,5.839-121.557
	c0.128-2.617,0.571-5.218,0.866-7.826c4.236-8.966,8.475-17.934,12.718-26.9c5.961,13.469,11.923,26.935,17.887,40.401
	c0.51,0.59,1.025,1.181,1.541,1.771l0.125,0.147l-0.232,0.363c-0.096,3.94-0.195,7.879-0.291,11.818
	c-2.801-1.431-5.515-3.089-8.425-4.248c-8.825-3.512-18.98,2.485-16.96,10.628c2.691,10.855,4.111,22.047,9.026,32.449
	c4.806,10.164,12.583,18.774,15.376,29.927c-0.479,16.824-0.957,33.65-1.437,50.476c-1.447,0.052-2.898,0.052-4.338,0.178
	c-3.56,0.302-8.157-1.417-9.787,3.344c-1.618,4.727-0.452,9.188,3.794,12.365c3.209,2.399,6.494,4.695,9.742,7.039
	c-0.046,8.148-0.093,16.301-0.141,24.446c-12.342,0.005-24.682,0.01-37.022,0.01C469.533,578.292,469.577,565.488,469.618,552.684z"
	/>
<path fill-rule="evenodd" clip-rule="evenodd" fill="#8FBCB4" d="M508.682,493.237c-2.793-11.152-10.571-19.763-15.376-29.927
	c-4.915-10.402-6.335-21.594-9.026-32.449c-2.02-8.144,8.136-14.14,16.96-10.628c2.91,1.159,5.624,2.817,8.425,4.248
	c10.989,15.599,27.489,22.948,44.417,29.646c7.729,3.061,14.782,7.083,19.297,14.358c8.169,13.179,5.784,24.975-6.936,35.217
	c-2.703-2.102-2.036-7.589-7.306-7.152c-2.192,0.181-4.015,0.948-4.688,3.03c-1.117,3.442-0.102,6.155,3.452,7.593
	c-11.406,6.414-28.594,3.187-40.51-7.373C514.688,497.403,513.02,493.507,508.682,493.237z M541.152,505.37
	c2.051-0.401,4.443,0.544,4.889-1.755c0.537-2.775-1.924-4.21-3.936-5.082c-8.675-3.777-16.475-8.761-22.374-16.219
	c-4.129-5.221-7.75-10.839-11.666-16.229c-1.315-1.81-2.56-4.773-5.181-3.667c-2.79,1.178-1.102,3.913-0.647,6.113
	c1.276,6.184,4.853,11.388,8.399,16.136C518.388,495.031,527.763,503.701,541.152,505.37z"/>
<path fill-rule="evenodd" clip-rule="evenodd" fill="#8FBCB4" d="M506.656,566.639c-3.248-2.344-6.532-4.64-9.742-7.039
	c-4.246-3.177-5.412-7.639-3.794-12.365c1.629-4.761,6.227-3.042,9.787-3.344c1.439-0.126,2.891-0.126,4.338-0.178
	c11.643,1.713,22.502-0.539,32.988-5.816c15.872-7.986,31.863-15.755,47.932-23.336c6.665-3.146,13.968-4.171,21.312-3.888
	c12.882,0.497,21.468,8.164,23.217,20.695c0.737,5.258-1.32,9.288-5.462,12.983c-12.809,11.431-29.091,14.217-44.688,18.663
	C557.564,570.14,532.274,572.153,506.656,566.639z M564.58,561.536c15.801-2.682,31.598-6.373,45.453-15.813
	c2.814-1.919,5.806-4.582,4.192-7.628c-1.422-2.681-5.369-1.549-7.952-0.099c-13.62,7.625-28.637,11.557-43.232,16.62
	c-2.291,0.797-5.852,1.224-4.923,4.848C558.887,562.46,562.039,561.058,564.58,561.536z M623.909,530.878
	c-0.343-2.457-2.012-2.843-3.806-2.696c-2.119,0.174-4.13,1.035-3.983,3.524c0.138,2.376,1.979,3.376,4.238,3.074
	C622.645,534.476,623.754,532.914,623.909,530.878z"/>
<path fill-rule="evenodd" clip-rule="evenodd" fill="#77A593" d="M508.521,410.381c-5.964-13.466-11.926-26.932-17.887-40.401
	c0.063-1.46,0.038-2.93,0.212-4.378c0.382-3.142,0.466-7.505,3.279-8.417c3.571-1.155,4.557,3.475,6.54,5.797
	c12.475,14.613,27.574,24.91,46.881,28.222c2.266,0.386,4.457,1.195,6.684,1.811c1.846,8.697,6.011,16.941,3.762,26.367
	c-3.021,12.667-12.207,17.742-24.223,12.514c-8.966-3.901-16.416-9.817-21.829-18.1c-0.586-0.498-1.17-0.997-1.752-1.498
	l-0.125-0.147C509.547,411.563,509.031,410.971,508.521,410.381z"/>
<path fill-rule="evenodd" clip-rule="evenodd" fill="#ADCABD" d="M557.9,507.172c-3.554-1.438-4.569-4.15-3.452-7.593
	c0.674-2.082,2.496-2.85,4.688-3.03c5.27-0.437,4.603,5.051,7.306,7.152C564.099,506.099,561.219,507.177,557.9,507.172z"/>
<path fill-rule="evenodd" clip-rule="evenodd" fill="#8FBCB4" d="M510.188,412.299c0.582,0.501,1.166,1,1.752,1.498
	c-0.664-0.372-1.325-0.744-1.984-1.125C509.955,412.662,510.188,412.299,510.188,412.299z"/>
<path fill-rule="evenodd" clip-rule="evenodd" fill="#FFFFFF" d="M450.608,713.186c-6.704,11.074-18.501,11.388-29.127,12.566
	c-16.971,1.882-34.225-10.708-37.565-27.354c-5.501-27.424,11.183-51.451,43.191-47.023c8.332,1.151,16.684,2.714,23.501,8.472
	c3.407,2.877,6.688,5.671,6.843,10.576c-2.1-0.826-4.189-1.683-6.3-2.477c-9.659-3.637-24.271,2.438-27.745,12.036
	c-3.292,9.097-3.693,18.374,2.821,26.403C432.603,714.242,441.108,715.836,450.608,713.186z"/>
<path fill-rule="evenodd" clip-rule="evenodd" fill="#FFFFFF" d="M617.036,704.984c-1.632,11.268-17.706,21.418-30.965,19.19
	c-7.778-1.311-15.295-3.633-22.168-7.78c-12.96-7.822-18.947-24.019-14.816-40.558c2.422-9.701,18.365-26.728,32.46-25.309
	c8.247,0.831,16.188,1.805,23.732,5.129c15.585,6.87,21.785,20.247,17.43,37.239c2.32-20.185-16.675-35.638-35.333-23.293
	c-10.519,6.962-14.938,24.15-8.37,34.99c6.389,10.543,18.989,12.377,31.496,4.564C612.694,707.788,614.86,706.378,617.036,704.984z"
	/>
<path fill-rule="evenodd" clip-rule="evenodd" fill="#1C1B1D" d="M450.009,772.649c3.732-1.994,6.552,0.284,9.432,1.175
	c18.057,5.561,36.416,8.45,55.324,6.482c10.451-1.089,10.647-1.609,5.811-10.481c-4.227-7.753-7.269-15.961-8.695-24.671
	c-1.281-7.805-0.927-15.412,6.383-20.491c7.576-5.259,15.871-5.836,24.123-1.923c11.455,5.43,16.47,15.979,20.661,27.111
	c5.44,14.454,4.816,15.454-8.07,24.199c-31.379,21.285-64.327,21.496-97.981,5.579C453.985,778.203,450.685,776.719,450.009,772.649
	z M520.559,740.448c0.042,9.455,5.681,23.464,11.872,30.385c2.288,2.557,4.238,3.392,7.484,1.61c3.541-1.941,4.429-4.381,2.755-7.87
	c-1.763-3.672-3.674-7.278-5.443-10.948c-1.016-2.107-2.302-4.627,0.594-6.03c2.687-1.305,4.316,0.903,5.467,2.999
	c1.968,3.569,3.767,7.229,5.649,10.843c0.773,1.487,1.275,3.588,3.624,2.719c1.978-0.729,3.228-2.065,3.327-4.546
	c0.31-7.91-10.352-25.764-17.542-29.039C530.119,726.821,518.586,730.561,520.559,740.448z"/>
<path fill-rule="evenodd" clip-rule="evenodd" fill="#1C1B1D" d="M617.036,704.984c-2.176,1.394-4.342,2.804-6.534,4.174
	c-12.507,7.813-25.107,5.979-31.496-4.564c-6.568-10.84-2.148-28.028,8.37-34.99c18.658-12.345,37.653,3.108,35.333,23.293
	c-0.992,2.01-2.416,3.88-2.059,6.331c-1.239,1.18-2.519,2.347-1.932,4.341l0.125-0.256c-1.589-0.273-1.958,0.615-1.864,1.947
	L617.036,704.984z"/>
<path fill-rule="evenodd" clip-rule="evenodd" fill="#1C1B1D" d="M450.608,713.186c-9.5,2.65-18.005,1.057-24.381-6.801
	c-6.514-8.029-6.113-17.307-2.821-26.403c3.474-9.599,18.085-15.673,27.745-12.036c2.111,0.794,4.2,1.65,6.3,2.477
	c0,0-0.106-0.237-0.107-0.237c0.642,0.577,1.285,1.158,1.928,1.736C468.665,687.317,465.166,703.977,450.608,713.186z"/>
<path fill-rule="evenodd" clip-rule="evenodd" fill="#F79770" d="M403.151,740.354c8.021-0.958,16.101,1.915,23.238,7.467
	c7.114,5.534,6.394,15.084-1.597,19.4c-10.66,5.759-21.593,5.561-32.46,0.338c-7.028-3.377-11.235-9.161-9.749-16.734
	c1.558-7.94,7.984-10.924,15.908-10.48C399.653,740.412,400.819,740.354,403.151,740.354z"/>
<path fill-rule="evenodd" clip-rule="evenodd" fill="#F79770" d="M609.95,760.03c-2.863-0.405-5.728-0.816-8.597-1.218
	c-6.956-0.979-12.918-4.098-13.215-11.567c-0.317-7.999,6.165-11.868,12.952-13.206c8.594-1.697,17.4-1.568,25.675,2.446
	c4.267,2.073,7.5,5.332,7.531,9.94c0.036,5.034-3.34,8.711-8.08,10.413C621.015,758.7,615.667,760.25,609.95,760.03z"/>
<path fill-rule="evenodd" clip-rule="evenodd" fill="#FFFFFF" d="M618.719,703.568c-0.587-1.994,0.692-3.161,1.932-4.341
	C620.244,700.777,620.687,702.714,618.719,703.568z"/>
<path fill-rule="evenodd" clip-rule="evenodd" fill="#FFFFFF" d="M459.272,671.921c-0.643-0.578-1.286-1.159-1.928-1.736
	C457.989,670.76,458.63,671.341,459.272,671.921z"/>
<path fill-rule="evenodd" clip-rule="evenodd" fill="#FFFFFF" d="M616.979,705.26c-0.094-1.332,0.275-2.221,1.864-1.947
	C618.661,704.383,618.183,705.166,616.979,705.26z"/>
<path fill-rule="evenodd" clip-rule="evenodd" fill="#ADCABD" d="M682.461,266.463c15.615-0.06,28.138,0.391,39.743,6.114
	c2.521,1.241,6.332,2.561,4.994,6.064c-1.438,3.769-4.919,1.456-7.554,0.735c-19.437-5.32-39.152-5.142-58.946-2.889
	c-2.53,0.289-5,0.72-5.854-2.049c-0.906-2.941,1.786-4.015,3.904-4.89C667.355,266.004,676.446,266.397,682.461,266.463z"/>
<path fill-rule="evenodd" clip-rule="evenodd" fill="#ADCABD" d="M559.62,90.616c-0.671,3.099,0.667,5.717-1.858,6.634
	c-2.374,0.861-3.52-1.549-4.873-2.937c-2.516-2.581-3.359-6.055-4.796-9.245c-4.321-9.585-8.664-19.187-14.804-27.813
	c-1.774-2.49-3.612-5.336-0.527-7.652c2.34-1.76,5.215-0.529,7.006,1.713C549.369,63.323,555.869,76.854,559.62,90.616z"/>
<path fill-rule="evenodd" clip-rule="evenodd" fill="#ADCABD" d="M533.098,271.657c1.885,7.336,2.446,14.783,0.874,22.193
	c-0.483,2.296-1.453,5.596-4.779,5.243c-3.427-0.365-3.238-3.533-3.27-6.114c-0.063-5.772,0.143-11.553-0.092-17.319
	c-0.169-4.113,1.594-5.857,5.54-5.772C531.946,270.475,532.521,271.067,533.098,271.657z"/>
<path fill-rule="evenodd" clip-rule="evenodd" fill="#ADCABD" d="M596.313,233.898c0.44,4.918-1.286,9.215-3.647,13.349
	c-1.065,1.86-2.382,3.626-4.74,3.125c-2.648-0.56-2.683-3.043-2.317-4.984c1.135-5.989,2.513-11.939,3.946-17.866
	c0.349-1.446,1.484-2.555,3.194-2.449c1.679,0.104,2.689,1.272,2.977,2.746C596.11,229.81,596.131,231.871,596.313,233.898z"/>
<path fill-rule="evenodd" clip-rule="evenodd" fill="#ADCABD" d="M564.504,109.149c0.137,3.279-1.451,4.779-4.67,4.716
	c-3.963-0.081-6.94-1.95-7.19-5.885c-0.224-3.542,2.421-6.171,5.936-5.976C562.519,102.222,564.359,105.256,564.504,109.149z"/>
<path fill-rule="evenodd" clip-rule="evenodd" fill="#4F8A73" d="M542.75,232.683c-4.93,8.116-12.084,14.47-16.636,24.457
	C524.553,248.207,532.092,237.604,542.75,232.683z"/>
<path fill-rule="evenodd" clip-rule="evenodd" fill="#ADCABD" d="M740.454,282.26c2.593,0.22,5.812,0.263,5.8,3.637
	c-0.01,3.216-2.576,5.248-5.846,4.783c-2.981-0.422-5.547-2.389-5.346-5.71C735.258,281.741,738.263,282.446,740.454,282.26z"/>
<path fill-rule="evenodd" clip-rule="evenodd" fill="#ADCABD" d="M587.124,258.549c-0.373,2.784-1.938,4.281-4.589,4.425
	c-2.972,0.163-4.1-1.627-4.089-4.352c0.011-2.739,1.211-4.483,4.146-4.319C585.243,254.453,586.801,255.956,587.124,258.549z"/>
<path fill-rule="evenodd" clip-rule="evenodd" fill="#FFFFFF" d="M576.741,294.581c-0.201,0.312-0.401,0.622-0.599,0.935
	c0-0.183-0.07-0.458,0.02-0.529c0.188-0.153,0.465-0.202,0.704-0.293L576.741,294.581z"/>
<path fill-rule="evenodd" clip-rule="evenodd" fill="#FFFFFF" d="M554.268,215.958c-0.343,0.193-0.688,0.388-1.028,0.582
	c0.201-0.336,0.398-0.673,0.594-1.011C553.831,215.527,554.268,215.958,554.268,215.958z"/>
<path fill-rule="evenodd" clip-rule="evenodd" fill="#ADCABD" d="M564.344,380.611c-9.794,0.366-18.533-1.47-26.973-4.837
	c-2.217-0.885-4.531-2.201-4.02-4.993c0.587-3.208,3.567-2.545,5.719-2.381c4.891,0.376,9.741,1.325,14.635,1.65
	c10.478,0.692,20.87-0.239,31.147-2.339c1.922-0.394,4.104-1.953,5.374,0.566c1.344,2.672-0.792,4.518-2.671,5.767
	C580.35,378.824,572.514,381.606,564.344,380.611z"/>
<path fill-rule="evenodd" clip-rule="evenodd" fill="#ADCABD" d="M416.814,422.594c-12.728,0.162-22.266-6.466-22.514-15.57
	c-0.062-2.208-0.898-4.974,1.564-6.381c2.665-1.521,5.155-0.325,7.01,1.786c5.566,6.338,13.247,8.01,20.931,9.691
	c2.825,0.618,7.146-1.17,7.144,3.982c-0.001,4.466-3.876,5.514-7.187,6.385C421.588,423.058,419.14,422.594,416.814,422.594z"/>
<path fill-rule="evenodd" clip-rule="evenodd" fill="#ADCABD" d="M441.169,233.205c-1.634,10.364-2.137,20.664,0.257,31.081
	c0.629,2.745,2.03,7.263-1.718,8.565c-4.151,1.445-6.092-2.689-7.339-5.861c-4.535-11.532-4.611-23.317-0.316-34.872
	c0.961-2.585,3.247-6.154,7.196-4.917C441.842,228.012,441.78,230.792,441.169,233.205z"/>
<path fill-rule="evenodd" clip-rule="evenodd" fill="#ADCABD" d="M604.451,368.38c-4.103-0.105-6.492-1.536-6.383-5.161
	c0.158-5.325,4.342-6.431,8.451-6.932c2.962-0.362,5.508,1.323,4.992,4.501C610.846,364.897,609.139,368.756,604.451,368.38z"/>
<path fill-rule="evenodd" clip-rule="evenodd" fill="#ADCABD" d="M453.876,283.777c0.016,3.051-1.299,5.123-4.419,5.429
	c-3.388,0.333-5.694-1.158-5.86-4.776c-0.162-3.505,1.688-5.461,5.238-5.437C451.918,279.016,453.604,280.718,453.876,283.777z"/>
<path fill-rule="evenodd" clip-rule="evenodd" fill="#ADCABD" d="M334.799,294.271c-0.276,3.395,0.673,5.803-1.687,6.92
	c-2.692,1.274-4.459-0.75-5.945-2.496c-6.191-7.274-7.661-16.167-8.183-25.278c-0.145-2.517,1.209-4.82,4.004-4.866
	c3.297-0.058,5.553,2.313,6.406,5.163C331.556,280.936,333.258,288.297,334.799,294.271z"/>
<path fill-rule="evenodd" clip-rule="evenodd" fill="#ADCABD" d="M339.584,313.465c-0.365,2.248-1.66,3.793-3.957,3.75
	c-3.2-0.058-4.52-2.178-4.383-5.177c0.118-2.563,1.843-3.468,4.137-3.18C337.97,309.184,339.495,310.702,339.584,313.465z"/>
<path fill-rule="evenodd" clip-rule="evenodd" fill="#ADCABD" d="M388,575.548c-15.404-0.198-30.001-3.291-42.817-12.396
	c-2.585-1.836-4.869-4.132-7.146-6.36c-1.291-1.265-2.141-3.037-0.843-4.678c1.359-1.718,3.103-1.01,4.656,0.019
	c17.736,11.721,37.797,14.074,58.341,14.543c2.196,0.049,5.254-0.813,5.891,2.24c0.616,2.955-2.539,3.444-4.414,4.627
	C397.416,576.217,392.641,575.328,388,575.548z"/>
<path fill-rule="evenodd" clip-rule="evenodd" fill="#ADCABD" d="M343.062,540.453c-1.444,3.638-2.596,7.248-6.491,7.967
	c-2.414,0.443-3.685-1.791-3.402-3.991c0.481-3.756,2.588-6.498,6.583-6.953C341.877,537.235,342.492,539.079,343.062,540.453z"/>
<path fill-rule="evenodd" clip-rule="evenodd" fill="#8FBCB4" d="M508.521,410.381c0.51,0.59,1.025,1.181,1.541,1.771
	C509.547,411.563,509.031,410.971,508.521,410.381z"/>
<path fill-rule="evenodd" clip-rule="evenodd" fill="#ADCABD" d="M541.152,505.37c-13.39-1.669-22.765-10.339-30.516-20.703
	c-3.547-4.748-7.123-9.952-8.399-16.136c-0.454-2.2-2.142-4.935,0.647-6.113c2.621-1.106,3.865,1.856,5.181,3.667
	c3.916,5.391,7.537,11.009,11.666,16.229c5.899,7.458,13.699,12.441,22.374,16.219c2.012,0.872,4.473,2.307,3.936,5.082
	C545.596,505.914,543.203,504.969,541.152,505.37z"/>
<path fill-rule="evenodd" clip-rule="evenodd" fill="#ADCABD" d="M564.58,561.536c-2.541-0.479-5.693,0.924-6.462-2.072
	c-0.929-3.624,2.632-4.051,4.923-4.848c14.596-5.063,29.612-8.995,43.232-16.62c2.583-1.45,6.53-2.582,7.952,0.099
	c1.613,3.046-1.378,5.709-4.192,7.628C596.178,555.163,580.381,558.854,564.58,561.536z"/>
<path fill-rule="evenodd" clip-rule="evenodd" fill="#ADCABD" d="M623.909,530.878c-0.155,2.036-1.265,3.598-3.551,3.902
	c-2.26,0.302-4.101-0.698-4.238-3.074c-0.146-2.489,1.864-3.351,3.983-3.524C621.897,528.035,623.566,528.421,623.909,530.878z"/>
<path fill-rule="evenodd" clip-rule="evenodd" fill="#E16E8F" d="M520.559,740.448c-1.973-9.888,9.561-13.627,17.787-9.878
	c7.19,3.275,17.852,21.129,17.542,29.039c-0.1,2.48-1.35,3.816-3.327,4.546c-2.349,0.869-2.851-1.231-3.624-2.719
	c-1.883-3.613-3.682-7.273-5.649-10.843c-1.15-2.096-2.78-4.304-5.467-2.999c-2.896,1.403-1.609,3.923-0.594,6.03
	c1.77,3.67,3.681,7.276,5.443,10.948c1.674,3.489,0.786,5.929-2.755,7.87c-3.246,1.781-5.196,0.946-7.484-1.61
	C526.239,763.912,520.601,749.903,520.559,740.448z"/>
</svg>
