<?xml version="1.0" encoding="utf-8"?>
<!-- Generator: Adobe Illustrator 16.0.0, SVG Export Plug-In . SVG Version: 6.00 Build 0)  -->
<!DOCTYPE svg PUBLIC "-//W3C//DTD SVG 1.1//EN" "http://www.w3.org/Graphics/SVG/1.1/DTD/svg11.dtd">
<svg version="1.1" id="Layer_1" xmlns="http://www.w3.org/2000/svg" xmlns:xlink="http://www.w3.org/1999/xlink" x="0px" y="0px"
	 width="928px" height="928px" viewBox="0 0 928 928" enable-background="new 0 0 928 928" xml:space="preserve">
<path fill-rule="evenodd" clip-rule="evenodd" fill="#F9B6AA" d="M631.896,578.736c22.329,1.594,44.695-1.963,67.115,1.933
	c25.894,4.499,41.564,19.206,48.576,43.72c6.498,22.712,9.476,46.071,9.898,69.649c0.713,40.148,1.714,80.33-9.104,119.682
	c-9.021,32.799-24.001,60.588-55.624,77.563c-14.881,7.987-30.545,10.691-46.501,12.486c-79.408,8.926-159.156,4.947-238.718,3.965
	c-35.409-0.44-71.124,1.077-106.445-3.841c-34.63-4.823-69.082-10.175-94.418-38.157c-18.212-20.116-24.019-45.481-29.603-70.738
	c-3.917-17.698-5.944-35.802-5.042-54.021c1.205-24.263-3.265-48.459-0.076-72.776c2.355-17.936,2.701-36.145,5.329-54.029
	c3.328-22.646,10.422-27.778,38.143-28.256c17.793-0.306,35.507-1.307,53.221-2.729c17.339,3.083,34.768,0.942,52.165,0.896
	c6.08,1.823,12.279,0.898,18.442,0.815c11.576-0.103,23.152-0.204,34.728-0.306c3.254,1.536,6.25,0.44,9.225-0.896
	c17.896-0.219,35.794-0.444,53.694-0.663c6.935-0.16,13.873-0.32,20.812-0.48c8.599,0.091,17.284,2.046,25.723-1.241
	c3.76-0.204,7.521-0.407,11.281-0.611c4.775,0.131,9.544,0.266,14.313,0.396c2.363,2.429,4.686,2.355,6.976-0.102
	c25.802-0.288,51.601-0.571,77.392-0.855C606.258,580.433,619.17,582.201,631.896,578.736z M432.828,739.181
	c-6.844-0.272-13.531,0.12-19.253,4.569c-10.532-0.019-19.548,4.546-27.681,10.389c-11.711,8.409-12.752,21.081-3.204,31.893
	c12.006,13.578,27.251,21.052,45.168,23.225c8.882,5.326,18.682,4.161,28.336,4.02c4.187,0.993,8.369,0.939,12.548-0.033
	c10.735,0.678,21.376,0.12,31.841-2.559c13.881-2.086,25.151-9.163,35.162-18.555c9.963-9.349,11.216-23.938,2.049-34.156
	c-7.542-8.406-17.062-14.117-28.827-14.904c-5.312-5.81-12.482-5.94-19.548-6.389C470.469,735.486,451.528,734.656,432.828,739.181z
	 M370.616,729.728c17.677,0.152,33.807-15.727,33.531-34.332c-0.277-18.565-10.768-36.649-37.51-35.576
	c-20.997,0.845-33.694,11.361-34.135,30.844C332.058,710.292,350.853,729.557,370.616,729.728z M550.169,659.91
	c-20.797-0.102-31.9,10.582-31.838,30.626c0.065,19.545,15.536,36.941,32.733,36.807c17.167-0.131,34.645-18.012,34.731-35.536
	C585.897,671.756,572.789,660.02,550.169,659.91z M341.009,778.296c6.287,0.673,12.675-1.012,18.463-4.227
	c7.197-4.001,9.494-9.923,4.729-17.382c-9.84-15.402-33.163-19.76-48.128-9.047c-9.668,6.921-9.159,18.202,1.336,24.354
	C324.479,776.141,332.076,778.93,341.009,778.296z M591.03,773.527c6.211-1.904,12.989-1.856,18.438-6.116
	c7.459-5.831,8.15-12.657,1.886-19.832c-9.869-11.296-29.981-13.447-42.158-4.507c-10.291,7.554-9.083,20.717,2.828,25.668
	C577.973,771.208,584.624,771.973,591.03,773.527z"/>
<path fill-rule="evenodd" clip-rule="evenodd" fill="#236252" d="M355.094,332.843c-10.906-11.252-10.906-11.252-27-14.063
	c13.207-3.17,9.319-9.126,4.816-14.743c-5.169-6.458-4.361-17.236-15.366-19.897c-2.111-0.513,4.966-5.559,1.988-11.336
	c-4.354-8.445-5.646-18.358-6.385-28.034c-0.502-6.531-1.354-13.061-1.383-19.596c-0.069-14.044,6.436-28.9-5.603-41.39
	c-0.666-0.688,0.083-2.745,2.341-5.089c1.696,3.44,3.396,6.884,5.096,10.328c3.12,9.927,7.79,5.777,11.947,1.044
	c2.654-3.021,2.486-7.113,2.188-10.99c1.86,10.488,11.176,12.934,18.369,18.318c13.218,9.901,16.079,25.7,18.729,41.095
	c1.864,10.845,2.941,21.929,8.26,31.875c8.125-28.725,4.543-58.805,12.931-87.163c4.492-15.18,9.079-30.386,20.571-42.18
	c0.521,1.794,0.706,3.789,1.638,5.333c1.365,2.268,3.28,4.55,6.356,3.738c2.403-0.63,3.469-2.796,3.56-5.246
	c0.153-3.954-2.224-5.278-5.748-5.333c-1.515-0.025-3.029-0.095-4.543-0.146c2.29-7.059,13.972-6.487,13.105-16.112
	c7.24,4.39,9.374-0.2,10.218-6.516c3.153,6.232-3.17,16.523,8.162,17.783c7.041,0.783,6.658-5.701,7.066-10.583
	c0.404-0.619,0.976-0.961,1.711-1.034c1.249,1.649,2.494,3.298,3.742,4.947c16.363,11.51,20.356,29.522,23.793,47.323
	c1.616,8.369,3.822,7.765,10.083,4.514c9.684-5.02,16.437-12.304,21.835-21.587c4.073-7.011,6.064-13.265-1.842-20.724
	c12.256,6.207,12.365-3.32,14.105-9.141c2.534-8.457,3.873-17.27,5.727-25.93c2.832-2.69,2.373-6.036,1.867-9.392
	c-0.105-10.015,1.165-19.887,2.301-29.832c1.46-12.821,10.637-25.453,17.972-28.234c9.476-3.589,6.852-7.797,7.688-12.948
	c0.356-2.199,1.06-3.735,3.59-2.727c1.772,0.706,1.391,2.442,1.423,3.92c-1.999,6.742,0.921,12.075,4.914,17.095
	c16.884,15.657,19.37,36.443,19.45,57.556c0.059,15.813-1.085,31.725-5.631,47.08c-2.65,8.944-7.551,18.143,5.944,25.686
	c-15.792-9.265-17.183,3.808-21.689,11.008c-10.574,16.923-25.288,29.595-41.019,41.39c-8.234,6.177-8.049,6.421-1.572,14.102
	c-0.459,0.586-1.329,1.671-1.34,1.664c-10.815-8.529-18.478-0.396-27.186,4.565c-9.111,5.195-9.097,12.974-9.021,21.787
	c0.317,37.167,0.208,74.342,0.251,111.513c-0.226,1.51-0.451,3.025-0.681,4.536c-1.343,3.145-2.69,6.291-4.033,9.436
	c-4.004-4.022-8.616-4.55-13.694-2.37c-1.307-20.036-3.473-40.018-9.862-59.096c-3.287-9.807-5.431-21.416-18.242-24.554
	c-4.149-0.521-8.332-1.249-11.849,1.987c-8.937,5.687-16.403,12.516-18.395,23.611c-2.271,3.575-2.741,7.51-2.308,11.624
	c-2.738,4.372-2.72,9.155-2.093,14.03c-0.066,1.514-0.131,3.029-0.197,4.54c-2.454,8.485-3.553,16.985-0.193,25.515
	c0.04,3.127,0.077,6.247,0.117,9.374c-2.654,28.234,5.708,56.045,4.579,85.921c-12.217-8.529-22.278-17.39-36.461-16.516
	c-0.218-34.775-0.528-69.547-0.579-104.323c-0.007-5.974-0.637-11.445-4.794-16.021c1.788-3.797,7.397-6.967,2.792-11.918
	C363.572,327.983,359.204,330.819,355.094,332.843z M379.764,307.412c4.776,2.18,10.167,2.617,10.244-3.881
	c0.113-9.297-8.318-2.847-12.41-5.125c-3.538-1.973-7.32-0.007-7.502,4.179C369.764,310.211,375.305,308.176,379.764,307.412z
	 M351.588,320.27c2.676-1.649,6.13-3.2,5.493-7.364c-0.458-3.007-2.089-5.938-5.948-5.923c-3.993,0.018-6.902,1.794-6.607,6.101
	C344.784,316.844,347.38,319.134,351.588,320.27z M326.51,239.801c-3.316,0.502-5.337,2.538-5.559,6.043
	c-0.244,3.914,1.26,7.041,5.544,7.241c3.633,0.167,5.537-2.392,5.777-5.861C332.542,243.299,330.926,240.547,326.51,239.801z
	 M441.237,177.672c-0.732-4.091-3.473-5.729-7.386-5.387c-3.433,0.298-5.923,2.25-5.697,5.89c0.266,4.27,3.367,5.788,7.255,5.468
	C438.856,183.358,440.971,181.386,441.237,177.672z M394.944,280.281c-0.171-2.526-1.405-4.82-4.438-5.366
	c-3.611-0.655-6.036,1.19-6.44,4.743c-0.415,3.666,1.868,5.81,5.377,5.923C392.443,285.68,394.296,283.75,394.944,280.281z
	 M390.077,325.981c-0.874-3.316-2.938-5.311-6.563-4.609c-2.967,0.575-4.594,2.708-4.281,5.792c0.313,3.08,2.355,4.939,5.344,4.856
	C388.1,331.918,390.055,329.763,390.077,325.981z M435.795,292.61c3.385-0.575,5.639-2.359,5.308-6.068
	c-0.273-3.083-2.432-4.899-5.388-4.816c-3.531,0.102-5.657,2.275-5.344,5.956C430.629,290.765,432.755,292.257,435.795,292.61z
	 M470.716,292.734c2.948-0.404,5.082-1.89,5.293-4.991c0.255-3.662-1.871-5.952-5.392-5.922c-3.516,0.033-5.602,2.359-5.293,6.014
	C465.583,290.929,467.73,292.385,470.716,292.734z M364.318,297.179c3.007-0.572,4.944-2.439,4.845-5.428
	c-0.116-3.52-2.301-5.653-5.974-5.366c-3.09,0.24-4.943,2.373-4.856,5.344C358.436,295.257,360.623,297.193,364.318,297.179z
	 M471.434,202.201c-0.772-2.148-2.341-4.347-5.417-4.223c-3.539,0.142-5.683,2.264-5.381,5.948c0.248,3.061,2.326,4.965,5.318,4.889
	C469.5,208.728,471.4,206.511,471.434,202.201z M472.383,216.62c-3.028,0.579-4.95,2.464-4.845,5.439
	c0.124,3.513,2.286,5.667,5.974,5.351c3.072-0.266,4.954-2.384,4.859-5.355C478.259,218.531,476.034,216.62,472.383,216.62z
	 M394.401,229.914c2.857-0.761,5.289-2.366,4.943-6.13c-0.288-3.087-2.396-4.943-5.355-4.856c-3.52,0.098-5.664,2.275-5.362,5.959
	C388.875,227.963,390.987,229.481,394.401,229.914z M350.729,228.662c-0.765-2.829-2.33-5.304-6.112-4.929
	c-3.083,0.302-4.9,2.435-4.82,5.391c0.099,3.539,2.272,5.657,5.956,5.352C348.84,234.213,350.332,232.095,350.729,228.662z
	 M434.564,237.551c-2.05,0.747-4.285,2.304-4.135,5.388c0.171,3.509,2.315,5.77,5.977,5.348c3.561-0.412,5.417-2.843,4.711-6.443
	C440.542,238.884,438.401,237.409,434.564,237.551z M544.981,167.123c3.032-0.368,5.161-1.86,5.431-4.94
	c0.328-3.688-1.802-5.865-5.325-5.985c-2.964-0.105-5.107,1.733-5.384,4.816C539.371,164.713,541.581,166.537,544.981,167.123z
	 M342.109,284.42c-3.371,0.328-4.732,2.479-4.94,5.435c-0.222,3.164,1.132,5.261,4.598,5.228c2.923-0.029,5.675-0.986,5.864-4.255
	C347.835,287.267,345.104,285.538,342.109,284.42z M443.257,260.357c-0.735-2.755-2.679-4.321-5.686-4.459
	c-3.226-0.146-5.177,1.379-5.122,4.758c0.047,2.923,1.07,5.649,4.379,5.737C440.378,266.488,442.074,263.772,443.257,260.357z
	 M350.915,251.217c-2.901,0.131-5.665,1.012-5.861,4.263c-0.218,3.546,2.417,5.85,5.581,6.262c3.236,0.422,4.63-2.29,4.863-5.228
	C355.749,253.347,354.34,251.359,350.915,251.217z M475.732,325.508c-0.557-3.298-2.832-4.478-5.759-4.587
	c-3.287-0.116-5.093,1.631-4.937,4.936c0.139,2.894,1.237,5.694,4.568,5.555C472.987,331.277,474.921,328.766,475.732,325.508z
	 M469.376,303.033c-3.222,0.83-5.78,2.719-5.89,6.119c-0.105,3.331,2.705,4.405,5.595,4.54c3.299,0.149,5.061-1.642,4.922-4.937
	C473.883,305.832,472.707,303.55,469.376,303.033z M515.877,195.524c-0.029-3.4-1.914-4.943-5.133-4.732
	c-2.908,0.189-5.679,1.449-5.388,4.743c0.292,3.258,2.614,5.799,6.112,5.737C514.781,201.21,515.655,198.422,515.877,195.524z
	 M410.633,167.418c-0.663-3.287-2.661-5.679-5.854-6.043c-3.2-0.364-4.772,2.177-4.736,5.093c0.036,2.959,1.871,5.009,4.914,5.253
	C407.921,171.961,409.989,170.545,410.633,167.418z M473.876,266.877c-0.12-3.018-1.187-5.603-4.394-5.581
	c-3.383,0.022-5.552,2.537-6.069,5.701c-0.422,2.581,1.59,4.201,4.015,4.598C471.059,272.188,473.061,270.212,473.876,266.877z
	 M564.191,106.869c-0.775-2.548-2.41-5.191-5.563-5.861c-3.179-0.673-4.915,1.598-5.17,4.572c-0.258,3.043,1.445,5.085,4.395,5.661
	C560.842,111.824,562.924,110.433,564.191,106.869z M387.459,424.814c-1.208-2.887-2.908-5.606-6.367-5.479
	c-3.163,0.116-4.478,2.632-4.161,5.605c0.324,3.043,2.384,4.802,5.366,4.772C385.25,429.682,387.233,428.08,387.459,424.814z
	 M398.792,190.872c-3.517,0.328-5.657,2.155-5.588,5.766c0.043,2.432,1.383,4.58,3.972,4.718c3.52,0.182,5.748-2.377,6.371-5.366
	C404.19,192.885,401.744,191.353,398.792,190.872z M531.046,185.885c3.019-0.32,5.373-1.889,5.53-5.508
	c0.105-2.446-1.209-4.645-3.688-4.987c-3.543-0.488-5.737,2.035-6.59,5.005C525.375,183.613,527.781,185.066,531.046,185.885z
	 M563.965,59.72c-1.379-2.723-2.978-5.602-6.526-5.256c-3.105,0.302-4.397,2.803-3.928,5.792c0.47,2.981,2.508,4.722,5.525,4.569
	C562.007,64.675,563.914,63.026,563.965,59.72z M557.045,140.047c-0.251-3.273-2.268-4.849-5.198-4.842
	c-2.967,0.011-5.023,1.802-5.289,4.842c-0.259,2.945,1.03,5.475,4.223,5.533C554.213,145.642,555.924,142.98,557.045,140.047z
	 M453.741,142.7c-3.287,0.27-4.809,2.352-4.787,5.257c0.022,2.963,1.868,5.001,4.889,5.26c2.956,0.254,5.45-1.092,5.482-4.285
	C459.362,145.489,456.679,143.811,453.741,142.7z M435.256,217.02c-3.276,0.204-4.867,2.188-4.903,5.129
	c-0.036,2.981,1.74,5.027,4.762,5.358c2.967,0.324,5.46-0.983,5.591-4.146C440.851,219.889,438.132,218.214,435.256,217.02z
	 M433.225,142.052c-2.905,0.564-5.282,2.006-4.645,5.271c0.527,2.712,2.657,5.046,5.504,5.126c3.342,0.091,4.307-3.091,4.463-5.65
	C438.743,143.552,436.243,142.3,433.225,142.052z M469.784,242.003c-2.69-0.058-4.474,1.099-4.732,3.899
	c-0.244,2.599,0.739,4.674,3.549,5.005c3.12,0.368,5.312-0.874,5.345-4.397C473.967,243.776,472.595,242.207,469.784,242.003z
	 M557.354,77.423c-1.711,0.714-3.637,1.816-3.917,4.463c-0.316,3.08,0.972,5.424,4.183,5.719c2.672,0.248,4.212-1.711,4.551-4.201
	C562.586,80.328,561.147,78.286,557.354,77.423z M388.071,386.063c-0.757-1.609-1.562-3.993-4.339-3.975
	c-3.305,0.018-4.71,2.337-4.576,5.358c0.109,2.504,1.543,4.547,4.201,4.583C386.688,392.077,387.834,389.675,388.071,386.063z
	 M462.66,180.65c3.102-0.626,4.602-2.614,4.27-5.708c-0.27-2.505-1.772-4.474-4.434-4.328c-3.247,0.178-4.608,2.515-4.313,5.584
	C458.426,178.728,459.93,180.352,462.66,180.65z M382.159,364.79c2.919-0.288,5.351-1.445,5.173-4.802
	c-0.139-2.614-2.21-4.07-4.711-4.106c-3-0.043-5.373,1.373-5.216,4.726C377.525,363.261,379.607,364.422,382.159,364.79z
	 M397.303,244.963c-0.437-2.494-1.598-4.59-4.289-4.608c-3.298-0.025-4.718,2.319-4.59,5.344c0.109,2.504,1.555,4.54,4.205,4.583
	C395.967,250.343,397.109,247.94,397.303,244.963z M488.819,217.897c2.333-0.958,4.168-2.679,3.669-5.868
	c-0.39-2.49-1.871-4.445-4.55-4.212c-3.236,0.284-4.555,2.658-4.18,5.712C484.068,216.041,485.586,217.668,488.819,217.897z
	 M332.517,265.76c-2.734,0.299-4.248,1.9-4.503,4.441c-0.313,3.083,1.077,5.395,4.307,5.591c2.672,0.164,4.157-1.834,4.438-4.325
	C337.104,268.384,335.618,266.382,332.517,265.76z M439.195,203.274c-0.36-2.552-1.54-4.638-4.179-4.776
	c-3.356-0.175-4.769,2.22-4.739,5.209c0.025,2.497,1.456,4.579,4.084,4.721C437.721,208.615,438.9,206.205,439.195,203.274z"/>
<path fill-rule="evenodd" clip-rule="evenodd" fill="#76A592" d="M436.992,304.496c12.811,3.138,14.955,14.747,18.242,24.554
	c6.389,19.079,8.555,39.06,9.862,59.096c0.083,12.42,0.171,24.845,0.258,37.265c-2.115,31.39-5.9,62.521-14.39,92.926
	c-1.707,1.041-2.406,2.515-1.809,4.463c0.076,0.251,0.583,0.371,0.892,0.553c0.27-1.7,0.542-3.399,0.815-5.1
	c4.383-1.274,5.027-5.533,6.847-8.77c9.793-17.434,13.175-36.752,16.272-56.144c4.364-0.109,9.173-0.269,9.002-6.174
	c-0.149-5.053-4.343-5.599-8.464-5.398c-0.178-5.46-0.353-10.921-0.527-16.385c0.477-0.827,0.95-1.653,1.427-2.476
	c3.725,0.073,8.613,0.983,9.258-3.902c0.647-4.881-3.531-6.913-8.042-7.506c0.718-6.993,1.438-13.989,2.155-20.982
	c1.343-3.145,2.69-6.291,4.037-9.436c3.509,1.001,7.044,4.165,10.531,0.095c3.644-4.259-0.976-7.936-0.976-11.951
	c7.678-8.365,17.514-5.348,26.829-5.082c9.271,12.807,17.808,25.916,17.782,42.595c-4.547,0.691-9.181,2.628-8.26,7.67
	c1.023,5.577,6.698,3.699,10.742,3.939c2.745,5.529-1.019,10.91-0.371,16.392c-5.948,0.098-11.379,1.951-10.797,8.795
	c0.539,6.374,6.65,4.809,11.026,5.162c-0.913,42.063-12.763,80.385-38.806,113.894c-5.205,6.698-12.86,11.146-17.094,18.722
	c-8.438,3.287-17.124,1.332-25.723,1.249c-2.643-2.697-7.506-0.451-9.727-4.747c-1.449-2.811-3.644-6.56-7.783-4.787
	c-4.357,1.867-3.069,6.359-3.302,10.007c-17.899,0.219-35.798,0.444-53.69,0.659c0.277-4.139,1.503-8.616-3.331-11.157
	c-1.791-0.943-3.753-0.655-5.395,0.567c-4.816,3.601-0.837,7.634-0.502,11.489c-11.576,0.102-23.152,0.203-34.728,0.306
	c-0.681-7.044-6.808-8.18-11.634-10.725c-14.652-9.836-26.352-22.515-35.638-37.429c-4.059-6.517-7.204-13.637-13.266-18.719
	c1.795-8.515,3.589-17.025,5.388-25.54c21.725-10.087,25.395-9.472,43.028,7.809c9.333,9.141,18.409,18.543,27.779,27.644
	c3.029,2.941,5.675,7.263,12.399,5.895c-5.857-11.242-8.234-22.789-11.74-33.986c-0.058-3.207-0.116-6.418-0.175-9.628
	c-0.073-9.214,1.172-17.667,11.875-20.702c0.215,4.223,0.222,8.722,6.075,8.937c2.45,0.091,4.809-1.519,4.587-3.968
	c-0.553-6.138-5.606-4.686-9.534-4.943c-0.375-0.025-0.753-0.019-1.128-0.025c-0.149-0.754-0.16-1.515-0.033-2.275
	c0.987-0.885,1.973-1.773,2.956-2.658c14.183-0.874,24.244,7.987,36.461,16.516c1.129-29.876-7.233-57.688-4.579-85.921
	c3.436-0.455,7.135,4.044,10.331-0.466c1.656-2.34,1.766-4.991,0.509-7.51c-2.909-5.832-7.302-0.896-10.957-1.397
	c-3.36-8.529-2.261-17.029,0.193-25.515c1.445,0.433,3.036,0.607,4.295,1.347c2.556,1.503,4.827,4.412,7.907,1.019
	c2.028-2.239,2.432-5.133,0.746-7.404c-2.213-2.996-5.402-1.893-8.361-0.728c-1.405,0.554-2.923,0.83-4.39,1.227
	c-0.626-4.875-0.645-9.658,2.093-14.03c4.416-0.324,10.302,1.205,11.044-5.297c0.681-5.915-4.259-6.323-8.737-6.327
	c1.991-11.095,9.458-17.924,18.395-23.607c0.364,4.143,0.204,9.41,5.879,9.231C438.351,315.493,436.578,309.123,436.992,304.496z
	 M320.034,525.544c-3.324,0.347-5.904,2.039-5.744,5.592c0.189,4.212,2.981,7.044,7.135,7.608c3.593,0.484,5.984-1.875,5.89-5.341
	C327.194,529.141,324.151,526.812,320.034,525.544z M434.219,355.631c3.272-0.116,6.658-0.877,6.476-4.842
	c-0.149-3.203-2.65-5.912-6.094-5.842c-3.382,0.069-5.773,2.661-5.97,5.977C428.427,354.277,431.299,355.22,434.219,355.631z
	 M301.479,504.329c-0.888-3.87-3.738-4.747-7.044-4.489c-2.916,0.233-5.701,1.657-5.231,4.922c0.448,3.135,2.759,5.931,6.28,5.679
	C298.793,510.204,300.759,507.634,301.479,504.329z M518.247,436.543c-0.419-2.916-1.347-5.806-4.688-5.62
	c-3.316,0.189-5.916,2.606-6.007,5.959c-0.099,3.44,2.628,5.934,5.824,6.101C517.355,443.19,518.108,439.798,518.247,436.543z
	 M441.026,374.597c-0.448-3.509-2.723-5.861-5.821-6.389c-3.244-0.553-4.754,2.188-5.009,5.118
	c-0.288,3.284,0.404,6.669,4.335,6.942C438.004,380.509,439.807,377.658,441.026,374.597z M483.438,547.48
	c-0.611-2.155-1.252-5.242-4.681-5.049c-3.331,0.193-5.901,2.606-6.032,5.952c-0.139,3.469,2.603,5.959,5.788,6.137
	C482.485,554.75,483.261,551.357,483.438,547.48z M515.302,390.585c-0.721-3.371-2.81-5.832-6.058-6.142
	c-3.294-0.313-4.611,2.494-4.761,5.406c-0.171,3.294,0.63,6.694,4.623,6.68C512.444,396.519,514.425,393.868,515.302,390.585z
	 M501.443,499.087c3.109-0.24,4.747-2.151,5.057-5.155c0.342-3.283-0.24-6.657-4.092-7.148c-3.549-0.455-5.93,2.352-6.439,5.445
	C495.379,495.781,498.462,497.511,501.443,499.087z M438.805,467.485c-3.225-0.109-5.391,1.361-5.966,4.361
	c-0.695,3.633,1.158,6.094,4.758,6.509c3.702,0.426,5.875-1.86,5.996-5.409C443.694,469.921,441.754,468.043,438.805,467.485z
	 M441.233,441.654c0.528-3.182-0.896-5.49-3.706-6.363c-3.469-1.081-6.083,0.531-7.007,4.066c-0.815,3.108,0.855,5.42,3.647,6.305
	C437.651,446.769,440.068,445.069,441.233,441.654z M336.463,552.868c3.043-0.567,4.983-2.453,4.881-5.472
	c-0.117-3.549-2.283-5.726-6.006-5.428c-3.116,0.252-4.973,2.406-4.9,5.399C330.525,550.946,332.746,552.879,336.463,552.868z
	 M413.407,525.864c-0.575-3.043-2.476-4.972-5.482-4.881c-3.553,0.108-5.723,2.286-5.417,6.01c0.254,3.108,2.392,4.979,5.395,4.896
	C411.471,531.787,413.411,529.578,413.407,525.864z M432.723,323.753c-2.898,0.433-4.529,2.195-4.853,5.162
	c-0.404,3.677,1.114,5.883,5.001,5.693c2.789-0.139,5.468-1.168,5.522-4.416C438.449,326.738,435.718,325.114,432.723,323.753z
	 M468.87,568.827c-0.91-2.315-2.763-3.87-5.711-3.957c-3.866-0.112-5.5,1.947-5.06,5.653c0.346,2.88,1.81,5.424,4.929,4.958
	C466.093,575.026,468.226,572.715,468.87,568.827z M439.781,524.635c2.574-0.874,5.188-2.665,5.661-5.781
	c0.474-3.102-2.006-4.623-4.907-4.977c-3.662-0.451-5.879,1.089-5.719,4.973C434.929,521.664,436.057,523.932,439.781,524.635z
	 M518.214,409.711c0.063-3.102-1.172-5.129-4.528-5.118c-3.334,0.011-6.418,1.212-6.054,4.965c0.288,3.029,2.683,5.584,6.076,5.606
	C516.962,415.189,517.84,412.466,518.214,409.711z M399.05,503.83c-1.172-2.857-2.861-5.526-6.247-5.566
	c-3.232-0.04-4.335,2.64-4.492,5.442c-0.211,3.822,1.882,5.516,5.595,5.104C396.789,508.486,398.81,507.088,399.05,503.83z
	 M508.932,462.669c-3.302,0.157-4.729,2.133-4.445,5.184c0.299,3.222,1.595,6.313,5.537,5.271c2.909-0.765,5.537-3.036,4.958-6.56
	C514.479,463.528,511.797,462.702,508.932,462.669z M416.774,543.426c0.284,3.313,2.366,4.845,5.308,4.794
	c2.978-0.051,5.034-1.904,5.274-4.947c0.237-2.96-1.074-5.522-4.31-5.501C419.625,537.794,417.906,540.484,416.774,543.426z
	 M355.6,556.221c-3.16,0.71-4.558,2.771-4.23,5.777c0.331,3.051,2.384,4.83,5.373,4.819c2.952-0.011,5.49-1.631,5.009-4.819
	C361.286,558.878,358.923,556.777,355.6,556.221z M433.552,556.166c-2.067,1.602-5.286,2.898-4.998,6.513
	c0.251,3.16,2.745,4.452,5.741,4.056c3.029-0.404,4.78-2.465,4.71-5.476C438.937,558.263,437.287,556.334,433.552,556.166z
	 M445.7,490.686c-0.532-2.811-2.25-4.664-5.3-4.631c-2.993,0.029-5.053,1.78-5.38,4.823c-0.32,2.978,0.976,5.519,4.172,5.613
	C442.653,496.597,444.335,493.838,445.7,490.686z M439.213,398.75c-0.455-2.37-1.216-5.188-4.554-5.097
	c-3.389,0.095-5.559,2.64-6.101,5.785c-0.448,2.595,1.612,4.208,4.055,4.594C436.271,404.607,438.263,402.583,439.213,398.75z
	 M439.097,421.738c-0.564-3.447-2.399-5.595-6.083-5.322c-2.464,0.182-4.536,1.587-4.474,4.219c0.083,3.444,2.566,5.697,5.664,6.163
	C437.418,427.279,438.696,424.665,439.097,421.738z M494.848,522.432c-0.36-3.254-2.53-4.295-5.628-3.909
	c-2.472,0.306-4.616,1.481-4.732,4.157c-0.149,3.447,2.486,4.561,5.354,4.746C493.053,527.638,494.931,526.064,494.848,522.432z"/>
<path fill-rule="evenodd" clip-rule="evenodd" fill="#236252" d="M355.57,499.844c3.506,11.197,5.883,22.744,11.74,33.986
	c-6.724,1.368-9.37-2.953-12.399-5.895c-9.37-9.101-18.445-18.503-27.779-27.644c-17.634-17.28-21.303-17.896-43.028-7.809
	c-8.711-12.326-16.789-25.074-23.178-38.74c-3.469-7.419-12.868-11.161-10.284-22.803c1.951-8.798-6.683-14.317-15.529-15.166
	c0.386-7.725,11.023,0.943,8.86-7.251c-1.853-7.015,0.178-16.053-8.704-20.225c-3.007-1.416-5.795-3.291-8.89-5.075
	c3.742-5.508,7.572,0.59,11.223-1.718c0.721-19.919-5.475-40.294,0.459-60.498c1.252-0.073,2.504-0.146,3.757-0.218
	c1.085,4.39-1.194,15.162,6.032,10.477c9.596-6.225,22.027-8.06,29.301-17.867c9.173,2.967,14.321,10.211,18.048,18.274
	c5.293,11.459,9.763,23.294,14.583,34.965c-1.511,3.21-5.344,2.548-7.572,4.54c-2.283,2.042-2.796,4.532-1.103,7.102
	c1.656,2.512,4.295,3.607,6.854,1.9c2.111-1.401,3.586-3.768,5.34-5.704c5.042,3.196,0.073,14.394,12.199,13.363
	c4.223-0.356-1.758,9.261-0.029,14.317c-3.95,0.397-8.875-1.278-10.604,4.193c-0.79,2.501,1.285,4.339,3.174,5.566
	c5.956,3.862,6.421-3.047,9.436-4.995c2.341,4.034,4.678,8.067,7.019,12.104c-0.4,2.188-0.164,4.827-1.329,6.476
	c-2.537,3.6-7.713,6.429-1.965,11.252c6.287,5.278,7.138-2.77,10.582-4.478c5.024,6.305,9.002,13.218,11.951,20.72
	c-1.828-0.338-3.702-0.517-5.468-1.048c-3.28-0.986-5.22,0.608-6.083,3.375c-0.899,2.869,0.382,5.235,3.167,6.433
	c2.869,1.234,5.384,0.204,6.698-2.403c0.976-1.94,1.059-4.332,1.54-6.52c6.297,3.145,8.66,10.018,13.647,14.405
	c-0.127,0.761-0.116,1.521,0.033,2.275l0,0c-10.703,3.035-11.948,11.488-11.875,20.702c-4.594,0.818-11.725-0.739-10.644,6.912
	C345.724,504.016,351.14,501.978,355.57,499.844z M250.272,369.428c2.523-0.568,4.798-1.875,5.001-5.027
	c0.24-3.677-1.882-5.952-5.391-5.934c-3.513,0.018-5.61,2.333-5.308,5.999C244.833,367.56,246.978,369.02,250.272,369.428z
	 M334.923,480.831c2.013-0.743,4.237-2.279,4.077-5.384c-0.182-3.491-2.268-5.799-5.944-5.373c-3.561,0.414-5.388,2.879-4.711,6.461
	C328.905,479.502,331.061,480.955,334.923,480.831z M311.086,432.364c0.517-3.156-0.903-5.438-3.68-6.305
	c-3.448-1.074-6.025,0.546-6.942,4.037c-0.808,3.08,0.859,5.359,3.626,6.24C307.555,437.442,309.921,435.728,311.086,432.364z
	 M291.888,465.083c-2.563,0.149-4.838,1.401-5.395,4.431c-0.655,3.604,1.168,6.042,4.725,6.457c3.662,0.426,5.813-1.863,5.938-5.369
	C297.261,467.605,295.324,465.749,291.888,465.083z M282.801,449.382c-0.054-3.443-2.133-4.874-5.096-5.209
	c-3.098-0.35-5.344,0.768-5.53,4.248c-0.156,2.938,0.761,5.671,3.932,6.134C279.784,455.087,281.385,452.124,282.801,449.382z
	 M252.674,392.762c3.182,0.08,5.26-1.158,5.235-4.623c-0.022-2.927-0.99-5.683-4.255-5.861c-3.539-0.189-5.85,2.406-6.236,5.606
	C247.028,391.153,249.77,392.351,252.674,392.762z M273.675,372.005c-2.872,0.408-5.661,1.503-5.355,4.794
	c0.299,3.251,2.643,5.799,6.112,5.745c3.287-0.055,4.303-2.839,4.368-5.745C278.877,373.414,276.911,371.99,273.675,372.005z
	 M262.612,407.512c0.069-3.2-1.219-5.257-4.674-5.206c-2.909,0.04-5.687,0.997-5.832,4.284c-0.153,3.535,2.436,5.839,5.653,6.207
	C261.047,413.169,262.201,410.399,262.612,407.512z M262.602,353.229c3.425-0.047,4.889-1.999,4.652-5.198
	c-0.219-2.923-1.518-5.668-4.802-5.326c-3.232,0.339-5.803,2.658-5.671,6.178C256.904,352.18,259.696,353.039,262.602,353.229z
	 M292.324,407.596c-2.876,1.26-5.733,2.919-5.395,6.531c0.298,3.218,3.025,4.183,5.97,4.125c3.462-0.069,4.75-2.195,4.47-5.34
	C297.107,409.947,295.71,407.829,292.324,407.596z M292.71,342.832c-0.451-2.941-1.918-5.464-5.034-4.867
	c-3,0.579-5.559,2.817-5.438,6.33c0.087,2.6,2.188,3.964,4.638,4.052C290.512,348.474,292.332,346.337,292.71,342.832z
	 M317.355,446.558c-2.916,0.47-5.5,1.871-4.907,5.009c0.564,2.993,2.778,5.577,6.301,5.461c2.585-0.084,4.001-2.123,4.092-4.598
	C322.976,448.793,320.835,446.973,317.355,446.558z M287.41,395.328c-0.262-3.124-2.406-4.405-5.231-4.652
	c-2.978-0.266-5.162,0.863-5.304,4.241c-0.142,3.272,1.649,4.845,4.791,4.79C284.512,399.66,286.715,398.531,287.41,395.328z
	 M269.646,430.934c-0.517-2.228-1.358-4.878-4.783-4.769c-2.668,0.08-4.096,2.118-4.197,4.612c-0.124,3.01,1.267,5.384,4.601,5.333
	C267.945,436.07,269.132,434.006,269.646,430.934z"/>
<path fill-rule="evenodd" clip-rule="evenodd" fill="#286656" d="M483.436,581.31c4.233-7.575,11.889-12.023,17.094-18.722
	c26.043-33.509,37.893-71.83,38.806-113.894c1.249-4.674,0.87-9.323-0.229-13.957c-0.647-5.482,3.116-10.863,0.368-16.392
	c-0.826-3.866-1.653-7.739-2.479-11.609c0.025-16.68-8.511-29.789-17.782-42.595c2.053-13.287,3.574-26.676,6.309-39.821
	c2.767-13.301,6.993-26.363,20.214-33.359c8.493-4.496-3.142-11.278,2.949-16.399c4.663,3.065,3.545,9.829,7.619,13.123
	c5.664-0.065,1.008-7.499,6.64-8.045c3.837,3.691-0.852,10.888,6.553,14.776c2.723,0.725,1.416-8.38,5.944-5.551
	c3.272,2.046-1.169,5.926-0.623,7.885c1.369,4.915,4.532,9.33,6.979,13.946c-1.292,2.184-3.385,2.789-5.736,3.232
	c-4.78,0.899-5.031,4.303-3.434,7.819c1.66,3.651,4.372,3.513,7.463,1.234c1.452-1.067,3.422-1.42,5.158-2.093
	c3.852,18.726,0.455,37.167-2.217,55.638c-6.88,0.575-17.229-2.701-12.209,11.092c0.258,0.713-0.922,1.904-1.318,2.916
	c-3.731,9.563-2.355,11.143,8.81,10.16c-1.54,6.629-3.076,13.254-4.616,19.883c-0.753-0.859-1.638-1.638-2.231-2.596
	c-2.078-3.36-4.685-5.249-8.562-2.912c-2.188,1.318-3.102,3.625-2.228,5.999c1.233,3.353,3.837,4.722,7.382,3.597
	c1.653-0.531,2.96-0.302,4.022,1.085c-1.787,6.825-3.574,13.647-5.362,20.469c-4.229,1.853-11.762-6.393-12.97,3.294
	c-0.834,6.662,5.723,5.741,10.207,6.123c-1.271,3.866-2.541,7.728-3.808,11.594c-4.598-0.698-10.112-3.789-12.559,2.891
	c-2.326,6.367,4.659,5.384,7.251,7.906c0.539,0.524,0.997,1.133,1.493,1.704c-0.088,6.05-4.871,11.146-3.546,17.477l0.298-0.028
	c-0.789,0.065-1.579,0.127-2.369,0.192c-4.321,0.699-10.156-2.038-12.45,3.316c-1.929,4.488,2.625,6.454,5.985,8.296
	c-8.464,13.597-18.445,26.327-23.805,41.692l0.015-0.015c-8.583,10.011-17.163,20.021-25.743,30.036
	C490.956,580.902,487.195,581.105,483.436,581.31z M562.439,308.85c3.866-0.065,6.892-1.591,6.607-5.242
	c-0.83-10.528-12.061-0.707-15.689-7.488c-0.674-1.256-4.983,1.966-4.539,4.958C550.06,309.414,558.6,305.213,562.439,308.85z
	 M575.931,357.2c3.801-0.455,5.006-3.018,5.129-6.319c0.12-3.149-0.102-6.331-4.28-6.607c-3.932-0.262-6.826,1.492-6.902,5.653
	C569.808,353.767,572.534,355.918,575.931,357.2z M550.551,314.587c-0.757-2.865-2.355-5.286-6.112-4.937
	c-3.072,0.284-4.929,2.381-4.838,5.337c0.109,3.498,2.271,5.646,5.944,5.348C548.618,320.083,550.11,317.965,550.551,314.587z
	 M562.098,363.825c-0.354-3.029-1.838-5.137-4.91-5.41c-3.677-0.328-5.847,1.78-5.96,5.3c-0.098,2.949,1.711,5.093,4.791,5.37
	C559.702,369.417,561.519,367.214,562.098,363.825z M551.891,390.195c2.952-0.277,5.373-1.904,5.442-5.515
	c0.058-2.981-1.803-5.056-4.853-5.322c-3.681-0.32-5.832,1.813-5.941,5.326C546.444,387.647,548.334,389.54,551.891,390.195z
	 M531.119,357.833c2.362-0.567,5.169-1.456,4.823-4.758c-0.335-3.185-2.625-5.519-5.948-5.77c-2.617-0.2-4.063,1.846-4.332,4.267
	C525.258,355.216,527.348,357.087,531.119,357.833z M558.895,334.958c-2.931,0.451-5.438,1.929-4.834,5.023
	c0.582,2.974,2.824,5.526,6.315,5.409c2.588-0.083,3.938-2.198,4.022-4.63C564.519,337.146,562.378,335.333,558.895,334.958z
	 M568.857,322.748c-0.942-2.257-2.581-4.157-5.653-3.928c-3.007,0.222-4.939,2.101-5.056,5.097c-0.105,2.901,1.285,5.489,4.518,5.26
	C565.928,328.948,567.824,326.465,568.857,322.748z M541.341,331.736c-0.327-3.043-2.457-4.146-5.58-3.764
	c-2.479,0.298-4.616,1.474-4.762,4.15c-0.186,3.465,2.438,4.598,5.318,4.794C539.531,337.138,541.439,335.595,541.341,331.736z
	 M548.629,395.954c-2.716,0.284-4.201,1.89-4.467,4.408c-0.324,3.062,1.045,5.366,4.248,5.581c2.654,0.174,4.132-1.817,4.412-4.285
	C553.172,398.601,551.72,396.591,548.629,395.954z"/>
<path fill-rule="evenodd" clip-rule="evenodd" fill="#76A592" d="M520.445,550.677c5.359-15.365,15.341-28.096,23.801-41.692
	c2.169-3.083,4.343-6.17,6.516-9.257c1.635-0.065,2.596-0.75,2.322-2.548l-0.298,0.028c7.647-0.538,12.519-6.727,19.217-9.432
	c13.877-5.603,26.126-4.387,37.287,5.773c-0.262,1.351-0.521,2.701-0.778,4.052c-3.27-0.561-6.131,0.568-8.883,2.155
	c-0.007-4.441-0.313-8.872-6.229-8.966c-3.065-0.048-5.377,2.224-5.053,5.15c0.979,8.883,7.022,3.979,11.314,3.779
	c-0.641,9.701,4.95,9.061,11.459,6.897c5.824,11.776,1.172,23.495-0.211,35.228c-0.721,2.129-1.441,4.255-2.162,6.381
	c-0.754,1.639-1.515,3.276-2.268,4.911c-1.336,0.021-2.673,0.04-4.012,0.058c-3.662-0.869-6.36-6.84-11.089-2.07
	c-1.977,1.987-3.84,4.143-2.672,7.116c2.061,5.234,6.892,3.888,10.965,4.252c-1.602,6.054-7.379,10.626-6.269,17.641
	c-25.799,0.288-51.598,0.571-77.399,0.859c1.794-3.477,3.774-7.029-0.339-10.219c-2.006-1.554-4.364-1.518-6.363,0.065
	c-4.099,3.244-1.947,6.786-0.273,10.255c-4.769-0.131-9.537-0.266-14.313-0.396c8.58-10.015,17.16-20.025,25.743-30.036
	c0.073,1.529,0.146,3.062,0.215,4.594c0.175,3.892,1.642,6.881,6.003,6.841c3.04-0.029,5.101-2.028,5.147-5.101
	c0.069-4.372-2.912-5.846-6.789-6.075C523.507,550.833,521.975,550.757,520.445,550.677z M571.493,561.364
	c-0.394-3.047-1.89-5.202-5.005-5.464c-3.725-0.313-5.905,1.854-6.025,5.398c-0.098,2.996,1.766,5.144,4.882,5.41
	C569.076,567.025,570.922,564.809,571.493,561.364z M598.122,527.805c-2.912,0.735-5.373,2.33-5.027,6.148
	c0.284,3.123,2.41,4.98,5.398,4.907c3.563-0.084,5.723-2.271,5.438-5.988C603.691,529.752,601.551,528.242,598.122,527.805z
	 M589.64,520.514c-0.808-3.229-2.777-5.697-6.01-5.996c-3.243-0.302-4.707,2.312-4.608,5.25c0.098,2.996,2.006,5.001,5.038,5.198
	C587.03,525.158,589.127,523.731,589.64,520.514z M552.946,535.763c-0.43-3.495-2.254-5.646-5.912-5.515
	c-2.479,0.087-4.568,1.471-4.634,4.076c-0.091,3.517,2.497,5.741,5.5,6.327C551.061,541.271,552.487,538.711,552.946,535.763z
	 M578.053,543.757c2.851-0.758,5.268-2.337,4.97-6.094c-0.197-2.461-1.565-4.551-4.19-4.515c-3.451,0.048-5.712,2.538-6.207,5.617
	C572.119,541.955,574.697,543.298,578.053,543.757z M564.565,511.19c-0.098-3.403-2.206-4.598-5.205-4.379
	c-2.807,0.204-5.366,1.343-5.257,4.63c0.113,3.233,2.701,4.277,5.508,4.405C562.717,515.988,564.58,514.518,564.565,511.19z"/>
<path fill-rule="evenodd" clip-rule="evenodd" fill="#286656" d="M610.91,541.846c1.383-11.732,6.035-23.451,0.211-35.228
	c0.375-3.363-0.746-6.298-2.609-9.017c0.258-1.351,0.517-2.701,0.778-4.052c2.865-1.911,5.733-3.822,8.599-5.733
	c2.01,10.135,11.241,6.928,17.354,9.596c2.715,1.187,4.83,2.476,7.047-0.302c1.293-1.624,1.573-3.524,0.63-5.398
	c-1.394-2.778-3.921-4.22-6.684-2.938c-5.966,2.768-8.416-1.063-10.964-5.114c3.808-4.507-2.185-10.812,2.967-15.304
	c5.365,2.52-0.08,11.365,6.701,12.45c4.991,0.797,1.66-6.262,5.704-7.077c4.667,1.559-0.025,9.84,5.442,9.6
	c5.406-0.236,3.673-8.489,8.449-11.383c0.623,1.397,1.692,2.712,1.387,3.269c-6.578,11.995-0.276,23.414,1.18,35.11
	c1.463,11.736-2.093,22.777-6.756,33.439c-4.136,0.037-8.984-1.033-10.63,4.325c-1.249,4.069,1.401,6.392,5.082,7.619
	c-2.058,8.933-9.49,14.852-12.901,23.024c-12.727,3.469-25.639,1.7-38.5,1.405c-1.103-7.019,4.675-11.591,6.276-17.645
	c0.586-0.226,1.183-0.408,1.794-0.542c2.895,1.678,6.065,4.04,8.609-0.037c2.606-4.168,0.175-6.895-3.596-8.776
	c0.753-1.635,1.514-3.272,2.268-4.903c3.196,1.183,5.137,6.512,9.687,3.087c1.576-1.184,2.257-3.087,1.664-5.075
	C618.671,541.463,614.809,541.576,610.91,541.846z M627.608,519.938c3.079-0.641,4.543-2.64,4.187-5.701
	c-0.288-2.464-1.733-4.47-4.409-4.288c-3.21,0.215-4.561,2.541-4.259,5.584C623.378,518.057,624.903,519.64,627.608,519.938z
	 M622.093,534.244c2.821-0.331,4.81-1.831,4.973-4.906c0.146-2.851-1.776-3.881-4.324-3.852c-2.61,0.029-4.187,1.361-4.351,4.048
	C618.238,532.075,619.108,533.924,622.093,534.244z"/>
<path fill-rule="evenodd" clip-rule="evenodd" fill="#236252" d="M278.717,518.023c6.062,5.082,9.207,12.202,13.266,18.719
	c9.286,14.914,20.986,27.593,35.638,37.429c-2.461,3.167-7.506,4.562-6.808,9.909c-17.397,0.047-34.826,2.188-52.165-0.896
	c-9.858-13.12-19.293-26.429-19.395-43.862c4.095-0.127,8.802,4.784,12.169-0.932c3.273-5.548-2.486-7.779-4.813-11.244
	c-0.411-0.612-0.662-1.336-0.986-2.01c4.507-4.139-2.202-8.689,1.602-14.572C261.746,521.547,269.686,521.926,278.717,518.023z
	 M297.959,560.087c-3.102,0.116-6.483,0.852-6.367,4.747c0.113,3.812,3.083,6.191,6.836,6.501c3.644,0.303,5.854-2.042,5.788-5.599
	C304.155,562.118,301.604,560.447,297.959,560.087z M278.491,557.404c3.334-0.859,5.308-2.935,4.608-6.561
	c-0.575-2.967-2.708-4.598-5.792-4.277c-3.069,0.324-4.955,2.359-4.871,5.348C272.532,555.445,274.716,557.379,278.491,557.404z"/>
<path fill-rule="evenodd" clip-rule="evenodd" fill="#468E7A" d="M446.406,123.942c-0.408,4.882-0.025,11.365-7.066,10.583
	c-11.332-1.26-5.009-11.551-8.162-17.783c-0.844,6.316-2.978,10.906-10.218,6.516c-3.742-4.132-4.787-9.545-6.724-14.503
	c-0.892-2.279-2.854-5.635,0.844-6.909c3.822-1.318,3.637,2.741,4.838,4.911c1.515,2.734,0.703,7.393,5.391,7.426
	c0.754,0.007,1.529-3.131,2.294-4.813c1.394-0.728,2.785-1.453,4.175-2.181c2.352,2.537-0.138,7.149,4.256,9.199
	c1.401-3.146,2.654-6.334,4.233-9.352c1.318-2.508,2.013-7.113,5.73-5.719c4.601,1.729,0.608,5.144-0.157,7.667
	c-1.11,3.651-2.905,7.098-4.03,10.75C440.516,123.942,443.603,123.913,446.406,123.942z"/>
<path fill-rule="evenodd" clip-rule="evenodd" fill="#468E7A" d="M277.152,313.4c-7.273,9.807-19.705,11.642-29.301,17.867
	c-7.226,4.685-4.947-6.086-6.032-10.477l-0.044,0.043c8.311,1.58,9.949-3.375,9.829-10.043c5.77,1.285,9.137,0.004,7.655-6.888
	c-0.495-2.3-2.839-5.631,1.503-6.385c2.555-0.444,4.354,2.428,4.241,4.528C264.523,310.943,272.929,309.854,277.152,313.4z"/>
<path fill-rule="evenodd" clip-rule="evenodd" fill="#468E7A" d="M578.312,400.694c-11.165,0.983-12.541-0.597-8.81-10.16
	c0.396-1.012,1.576-2.202,1.318-2.916c-5.021-13.793,5.329-10.517,12.209-11.092c0.43,2.566,0.601,5.07-1.529,7.08
	c-2.147,0.608-4.063,1.671-4.43,4.008c-0.404,2.577,1.816,2.494,3.491,2.821C579.812,393.857,579.062,397.272,578.312,400.694z"/>
<path fill-rule="evenodd" clip-rule="evenodd" fill="#468E7A" d="M625.271,483.659c2.548,4.052,4.998,7.882,10.964,5.114
	c2.763-1.281,5.29,0.16,6.684,2.938c0.943,1.874,0.663,3.774-0.63,5.398c-2.217,2.777-4.332,1.488-7.047,0.302
	c-6.112-2.668-15.344,0.539-17.354-9.596C619.72,485.313,622.413,484.336,625.271,483.659z"/>
<path fill-rule="evenodd" clip-rule="evenodd" fill="#468E7A" d="M341.785,432.277c-3.444,1.708-4.295,9.756-10.582,4.478
	c-5.748-4.823-0.572-7.652,1.965-11.252c1.165-1.649,0.929-4.289,1.329-6.476C347.289,417.741,341.461,426.7,341.785,432.277z"/>
<path fill-rule="evenodd" clip-rule="evenodd" fill="#468E7A" d="M255.623,525.137c0.324,0.674,0.575,1.397,0.986,2.01
	c2.326,3.465,8.085,5.696,4.813,11.244c-3.367,5.716-8.074,0.805-12.169,0.932c-0.146-1.109,0.065-2.46-0.495-3.298
	C242.86,527.168,247.316,524.966,255.623,525.137z"/>
<path fill-rule="evenodd" clip-rule="evenodd" fill="#468E7A" d="M327.733,179.078c0.298,3.877,0.466,7.968-2.188,10.99
	c-4.157,4.732-8.828,8.882-11.947-1.044c2.29,0.055,3.79-1.314,3.622-3.331C316.445,176.468,321.774,177.359,327.733,179.078z"/>
<path fill-rule="evenodd" clip-rule="evenodd" fill="#468E7A" d="M451.859,127.855c-1.249-1.649-2.494-3.298-3.742-4.947
	c2.916-4.849,5.824-9.705,8.751-14.543c0.983-1.624,2.188-3.764,4.256-2.777c2.613,1.241,1.856,3.88,0.728,5.828
	C458.641,116.964,455.208,122.384,451.859,127.855z"/>
<path fill-rule="evenodd" clip-rule="evenodd" fill="#5E9C8C" d="M565.315,40.194c-3.993-5.02-6.913-10.353-4.914-17.095
	c3.561,3.469,6.393-5.555,9.414-0.844c2.326,3.633-1.351,6.989-2.45,10.451C566.586,35.17,565.993,37.697,565.315,40.194z"/>
<path fill-rule="evenodd" clip-rule="evenodd" fill="#468E7A" d="M585.246,320.888c-1.736,0.673-3.706,1.026-5.158,2.093
	c-3.091,2.279-5.803,2.417-7.463-1.234c-1.598-3.517-1.347-6.92,3.434-7.819c2.352-0.444,4.444-1.048,5.736-3.232
	C584.296,313.633,585.41,317.044,585.246,320.888z"/>
<path fill-rule="evenodd" clip-rule="evenodd" fill="#468E7A" d="M355.094,332.843c4.11-2.024,8.478-4.86,12.519-0.524
	c4.605,4.951-1.004,8.122-2.792,11.918C361.577,340.437,358.337,336.64,355.094,332.843z"/>
<path fill-rule="evenodd" clip-rule="evenodd" fill="#468E7A" d="M241.819,320.79c-1.252,0.073-2.505,0.146-3.757,0.218
	c0.175-1.125,0.731-2.359,0.455-3.356c-1.048-3.728-8.132-6.345-4.201-10.364c3.521-3.593,5.312,4.514,9.297,4.23
	c1.045-0.073,2.031-0.881,3.043-1.347c1.951,5.191-5.748,5.963-4.882,10.663L241.819,320.79z"/>
<path fill-rule="evenodd" clip-rule="evenodd" fill="#468E7A" d="M313.303,374.477c-1.754,1.937-3.229,4.303-5.34,5.704
	c-2.559,1.708-5.198,0.612-6.854-1.9c-1.693-2.57-1.18-5.06,1.103-7.102c2.228-1.991,6.061-1.329,7.572-4.54
	C312.167,368.71,312.717,371.601,313.303,374.477z"/>
<path fill-rule="evenodd" clip-rule="evenodd" fill="#468E7A" d="M556.332,479.731c-0.496-0.571-0.954-1.18-1.493-1.704
	c-2.592-2.522-9.577-1.539-7.251-7.906c2.446-6.68,7.961-3.589,12.559-2.891C560.03,471.748,558.396,475.808,556.332,479.731z"/>
<path fill-rule="evenodd" clip-rule="evenodd" fill="#468E7A" d="M572.079,425.75c-1.063-1.387-2.369-1.616-4.022-1.085
	c-3.545,1.125-6.148-0.244-7.382-3.597c-0.874-2.374,0.04-4.681,2.228-5.999c3.877-2.337,6.483-0.448,8.562,2.912
	c0.594,0.958,1.479,1.736,2.231,2.596C574.093,422.594,573.645,424.345,572.079,425.75z"/>
<path fill-rule="evenodd" clip-rule="evenodd" fill="#5E9C8C" d="M527.428,92.92c0.506,3.356,0.965,6.701-1.867,9.392
	c-1.038-0.47-2.126-0.852-3.105-1.42c-3.858-2.25-10-5.027-7.528-9.468c2.538-4.558,5.945,2.392,9.393,2.789
	C525.295,94.325,526.391,93.382,527.428,92.92z"/>
<path fill-rule="evenodd" clip-rule="evenodd" fill="#468E7A" d="M563.954,455.637c-4.484-0.382-11.041,0.539-10.207-6.123
	c1.208-9.687,8.74-1.441,12.97-3.294C565.796,449.357,564.875,452.499,563.954,455.637z"/>
<path fill-rule="evenodd" clip-rule="evenodd" fill="#468E7A" d="M407.855,139.37c1.515,0.051,3.029,0.12,4.543,0.146
	c3.524,0.055,5.901,1.379,5.748,5.333c-0.091,2.45-1.157,4.616-3.56,5.246c-3.076,0.812-4.991-1.471-6.356-3.738
	c-0.932-1.544-1.117-3.539-1.638-5.333C407.015,140.473,407.437,139.919,407.855,139.37z"/>
<path fill-rule="evenodd" clip-rule="evenodd" fill="#468E7A" d="M327.479,406.922c-3.014,1.948-3.48,8.857-9.436,4.995
	c-1.89-1.227-3.964-3.065-3.174-5.566c1.729-5.471,6.654-3.796,10.604-4.193C327.013,403.377,328.145,404.771,327.479,406.922z"/>
<path fill-rule="evenodd" clip-rule="evenodd" fill="#99CCB7" d="M492.383,369.224c0,4.015,4.619,7.692,0.976,11.951
	c-3.487,4.07-7.022,0.906-10.531-0.095c0.226-1.511,0.451-3.025,0.677-4.536C486.464,374.105,489.424,371.663,492.383,369.224z"/>
<path fill-rule="evenodd" clip-rule="evenodd" fill="#468E7A" d="M644.798,555.708c-3.681-1.228-6.331-3.55-5.082-7.619
	c1.646-5.358,6.494-4.288,10.63-4.325C649.446,548.187,647.506,552.126,644.798,555.708z"/>
<path fill-rule="evenodd" clip-rule="evenodd" fill="#236252" d="M241.775,320.833c-0.866-4.7,6.833-5.471,4.882-10.663
	c1.896-1.762,3.549-1.58,4.947,0.619C251.725,317.459,250.086,322.414,241.775,320.833z"/>
<path fill-rule="evenodd" clip-rule="evenodd" fill="#236252" d="M431.779,107.189c-1.39,0.728-2.781,1.453-4.175,2.181
	c-0.179-3.192-2.396-8.205,1.165-8.977C433.086,99.465,431.208,104.587,431.779,107.189z"/>
<path fill-rule="evenodd" clip-rule="evenodd" fill="#286656" d="M580.562,390.436c-1.675-0.328-3.896-0.244-3.491-2.821
	c0.367-2.337,2.282-3.4,4.43-4.008C581.188,385.882,580.874,388.16,580.562,390.436z"/>
<path fill-rule="evenodd" clip-rule="evenodd" fill="#0A0909" d="M508.968,743.068c11.766,0.787,21.285,6.498,28.827,14.904
	c9.167,10.218,7.914,24.808-2.049,34.156c-10.011,9.392-21.281,16.469-35.158,18.555c-3.119-3.735-0.779-10.116-5.835-12.777
	c-12.071-6.356-26.138,2.017-26.01,15.336c-4.179,0.973-8.362,1.026-12.548,0.033c1.82-10.771-2.916-15.341-13.633-16.382
	c-9.971-0.972-14.536,2.596-14.703,12.362c-17.917-2.173-33.163-9.646-45.168-23.225c-9.548-10.812-8.507-23.483,3.204-31.893
	c8.132-5.843,17.149-10.407,27.681-10.389c3.473,5.063,4.965,14.08,12.711,12.3c6.582-1.514,4.962-10.083,6.425-15.74
	c0.091-0.364,0.08-0.754,0.117-1.129c18.7-4.524,37.641-3.694,56.592-2.504c0.146,1.907,0.251,3.818,0.451,5.719
	c0.43,4.059-0.75,9.269,4.256,10.925c5.005,1.656,8.635-1.89,11.656-5.533C506.987,746.334,507.916,744.646,508.968,743.068z"/>
<path fill-rule="evenodd" clip-rule="evenodd" fill="#F5F4F4" d="M370.616,729.728c-19.763-0.171-38.558-19.436-38.114-39.064
	c0.44-19.482,13.138-29.999,34.135-30.844c26.742-1.073,37.233,17.011,37.51,35.576C404.423,714.001,388.293,729.88,370.616,729.728
	z M379.942,690.38c-2.006-7.572-7.561-10.754-15.435-10.408c-8.122,0.354-14.43,3.295-15.354,12.457
	c-0.244,2.432,1.143,4.565,3.724,5.202c2.042,0.502,3.88-0.27,4.787-2.268c3.579-7.893,8.202-8.672,13.884-2.094
	c1.602,1.857,3.167,3.447,5.857,2.381C379.571,694.795,379.826,692.881,379.942,690.38z"/>
<path fill-rule="evenodd" clip-rule="evenodd" fill="#F5F4F4" d="M550.169,659.91c22.62,0.109,35.729,11.846,35.627,31.896
	c-0.087,17.524-17.564,35.405-34.731,35.536c-17.197,0.135-32.668-17.262-32.733-36.807
	C518.269,670.492,529.372,659.809,550.169,659.91z M548.941,683.022c-5.413,0.641-11.568,2.628-15.518,8.599
	c-1.813,2.741-2.313,5.94,0.571,8.357c2.857,2.396,4.874,0.357,6.72-1.853c6.593-7.899,12.687-7.634,18.424,1.041
	c1.627,2.457,4.168,3.953,6.897,1.959c2.644-1.93,1.955-4.871,0.608-7.332C563.113,687.354,558.319,682.662,548.941,683.022z"/>
<path fill-rule="evenodd" clip-rule="evenodd" fill="#EF7E69" d="M341.009,778.296c-8.933,0.634-16.53-2.155-23.6-6.302
	c-10.495-6.151-11.004-17.433-1.336-24.354c14.965-10.713,38.289-6.355,48.128,9.047c4.765,7.459,2.468,13.381-4.729,17.382
	C353.685,777.284,347.296,778.969,341.009,778.296z"/>
<path fill-rule="evenodd" clip-rule="evenodd" fill="#EF7E69" d="M591.03,773.527c-6.406-1.555-13.058-2.319-19.006-4.787
	c-11.911-4.951-13.119-18.114-2.828-25.668c12.177-8.94,32.289-6.789,42.158,4.507c6.265,7.175,5.573,14.001-1.886,19.832
	C604.02,771.671,597.241,771.623,591.03,773.527z"/>
<path fill-rule="evenodd" clip-rule="evenodd" fill="#F5F4F4" d="M468.743,813.242c-0.128-13.319,13.938-21.692,26.01-15.336
	c5.056,2.661,2.716,9.042,5.835,12.777C490.119,813.362,479.479,813.92,468.743,813.242z"/>
<path fill-rule="evenodd" clip-rule="evenodd" fill="#F5F4F4" d="M427.859,809.256c0.167-9.767,4.732-13.334,14.703-12.362
	c10.717,1.041,15.453,5.61,13.633,16.382C446.541,813.417,436.741,814.582,427.859,809.256z"/>
<path fill-rule="evenodd" clip-rule="evenodd" fill="#F5F4F4" d="M432.828,739.181c-0.037,0.375-0.025,0.765-0.117,1.129
	c-1.463,5.657,0.157,14.227-6.425,15.74c-7.746,1.78-9.239-7.236-12.711-12.3C419.297,739.301,425.984,738.908,432.828,739.181z"/>
<path fill-rule="evenodd" clip-rule="evenodd" fill="#F5F4F4" d="M508.968,743.068c-1.052,1.577-1.98,3.266-3.185,4.719
	c-3.021,3.644-6.651,7.189-11.656,5.533c-5.006-1.656-3.826-6.866-4.256-10.925c-0.2-1.9-0.306-3.812-0.451-5.719
	C496.485,737.128,503.656,737.259,508.968,743.068z"/>
<path fill-rule="evenodd" clip-rule="evenodd" fill="#468E7A" d="M320.813,584.08c-0.699-5.348,4.347-6.742,6.808-9.909
	c4.827,2.545,10.954,3.681,11.634,10.725C333.092,584.979,326.893,585.903,320.813,584.08z"/>
<path fill-rule="evenodd" clip-rule="evenodd" fill="#99CCB7" d="M373.983,584.59c-0.335-3.855-4.314-7.889,0.502-11.489
	c1.642-1.223,3.604-1.511,5.395-0.567c4.834,2.541,3.607,7.019,3.331,11.157C380.233,585.03,377.237,586.126,373.983,584.59z"/>
<path fill-rule="evenodd" clip-rule="evenodd" fill="#8BBAB1" d="M436.901,583.031c0.233-3.647-1.056-8.14,3.302-10.007
	c4.139-1.772,6.334,1.977,7.783,4.787c2.22,4.296,7.084,2.05,9.727,4.747C450.774,582.711,443.836,582.871,436.901,583.031z"/>
<path fill-rule="evenodd" clip-rule="evenodd" fill="#8BBAB1" d="M509.029,581.095c-1.674-3.469-3.825-7.011,0.273-10.255
	c1.999-1.583,4.357-1.619,6.363-0.065c4.113,3.189,2.133,6.742,0.339,10.219C513.715,583.45,511.393,583.523,509.029,581.095z"/>
<path fill-rule="evenodd" clip-rule="evenodd" fill="#306F56" d="M465.354,425.411c-0.087-12.42-0.175-24.845-0.258-37.265
	c5.078-2.181,9.69-1.653,13.694,2.37c-0.717,6.993-1.438,13.99-2.155,20.982c-0.407,3.801-0.812,7.604-1.216,11.409
	c-0.477,0.823-0.95,1.649-1.427,2.476C471.113,425.393,468.233,425.4,465.354,425.411z"/>
<path fill-rule="evenodd" clip-rule="evenodd" fill="#468E7A" d="M379.764,307.412c-4.459,0.764-10,2.799-9.668-4.827
	c0.182-4.187,3.964-6.152,7.502-4.179c4.092,2.279,12.522-4.172,12.41,5.125C389.931,310.029,384.54,309.592,379.764,307.412z"/>
<path fill-rule="evenodd" clip-rule="evenodd" fill="#468E7A" d="M351.588,320.27c-4.208-1.136-6.804-3.426-7.062-7.186
	c-0.295-4.307,2.614-6.083,6.607-6.101c3.859-0.015,5.49,2.916,5.948,5.923C357.718,317.069,354.264,318.62,351.588,320.27z"/>
<path fill-rule="evenodd" clip-rule="evenodd" fill="#468E7A" d="M326.51,239.801c4.416,0.747,6.032,3.499,5.762,7.423
	c-0.24,3.469-2.144,6.028-5.777,5.861c-4.285-0.2-5.788-3.327-5.544-7.241C321.173,242.338,323.194,240.303,326.51,239.801z"/>
<path fill-rule="evenodd" clip-rule="evenodd" fill="#468E7A" d="M441.237,177.672c-0.266,3.713-2.381,5.686-5.828,5.97
	c-3.888,0.32-6.989-1.198-7.255-5.468c-0.226-3.64,2.264-5.591,5.697-5.89C437.764,171.943,440.505,173.581,441.237,177.672z"/>
<path fill-rule="evenodd" clip-rule="evenodd" fill="#8BBAB1" d="M401.958,385.802c3.655,0.502,8.048-4.434,10.957,1.397
	c1.256,2.519,1.147,5.169-0.509,7.51c-3.196,4.511-6.895,0.011-10.331,0.466C402.035,392.048,401.999,388.929,401.958,385.802z"/>
<path fill-rule="evenodd" clip-rule="evenodd" fill="#8BBAB1" d="M436.992,304.496c-0.415,4.627,1.358,10.997-5.97,11.223
	c-5.675,0.179-5.515-5.089-5.879-9.231C428.66,303.247,432.843,303.976,436.992,304.496z"/>
<path fill-rule="evenodd" clip-rule="evenodd" fill="#8BBAB1" d="M402.348,355.748c1.467-0.397,2.985-0.673,4.39-1.227
	c2.959-1.165,6.148-2.268,8.361,0.728c1.686,2.271,1.282,5.166-0.746,7.404c-3.08,3.393-5.351,0.484-7.907-1.019
	c-1.259-0.739-2.85-0.914-4.295-1.347C402.217,358.776,402.282,357.262,402.348,355.748z"/>
<path fill-rule="evenodd" clip-rule="evenodd" fill="#8BBAB1" d="M406.749,330.094c4.478,0.004,9.417,0.412,8.737,6.327
	c-0.743,6.502-6.629,4.973-11.044,5.297C404.008,337.604,404.478,333.669,406.749,330.094z"/>
<path fill-rule="evenodd" clip-rule="evenodd" fill="#468E7A" d="M394.944,280.281c-0.648,3.469-2.501,5.399-5.5,5.3
	c-3.509-0.113-5.792-2.257-5.377-5.923c0.404-3.553,2.829-5.398,6.44-4.743C393.539,275.461,394.772,277.754,394.944,280.281z"/>
<path fill-rule="evenodd" clip-rule="evenodd" fill="#468E7A" d="M390.077,325.981c-0.022,3.782-1.977,5.937-5.5,6.039
	c-2.989,0.083-5.031-1.776-5.344-4.856c-0.313-3.083,1.314-5.217,4.281-5.792C387.139,320.67,389.203,322.665,390.077,325.981z"/>
<path fill-rule="evenodd" clip-rule="evenodd" fill="#468E7A" d="M435.795,292.61c-3.04-0.353-5.166-1.846-5.424-4.929
	c-0.313-3.681,1.813-5.854,5.344-5.956c2.956-0.083,5.114,1.733,5.388,4.816C441.434,290.251,439.18,292.035,435.795,292.61z"/>
<path fill-rule="evenodd" clip-rule="evenodd" fill="#468E7A" d="M470.701,292.734c-2.971-0.35-5.118-1.806-5.377-4.9
	c-0.309-3.655,1.777-5.981,5.293-6.014c3.521-0.029,5.646,2.26,5.392,5.922C475.798,290.845,473.664,292.33,470.701,292.734z"/>
<path fill-rule="evenodd" clip-rule="evenodd" fill="#468E7A" d="M364.318,297.179c-3.695,0.014-5.882-1.922-5.984-5.45
	c-0.087-2.971,1.766-5.104,4.856-5.344c3.673-0.288,5.857,1.846,5.974,5.366C369.262,294.74,367.325,296.607,364.318,297.179z"/>
<path fill-rule="evenodd" clip-rule="evenodd" fill="#468E7A" d="M471.434,202.201c-0.033,4.31-1.934,6.527-5.479,6.614
	c-2.992,0.077-5.07-1.828-5.318-4.889c-0.302-3.684,1.842-5.806,5.381-5.948C469.093,197.854,470.661,200.053,471.434,202.201z"/>
<path fill-rule="evenodd" clip-rule="evenodd" fill="#468E7A" d="M472.383,216.62c3.651,0,5.876,1.911,5.988,5.435
	c0.095,2.971-1.787,5.089-4.859,5.355c-3.688,0.316-5.85-1.838-5.974-5.351C467.433,219.084,469.354,217.199,472.383,216.62z"/>
<path fill-rule="evenodd" clip-rule="evenodd" fill="#468E7A" d="M394.401,229.914c-3.415-0.433-5.526-1.951-5.773-5.027
	c-0.302-3.684,1.842-5.861,5.362-5.959c2.959-0.087,5.067,1.769,5.355,4.856C399.69,227.548,397.259,229.153,394.401,229.914z"/>
<path fill-rule="evenodd" clip-rule="evenodd" fill="#468E7A" d="M350.729,228.662c-0.397,3.433-1.889,5.552-4.976,5.814
	c-3.684,0.306-5.857-1.813-5.956-5.352c-0.08-2.956,1.737-5.089,4.82-5.391C348.399,223.358,349.964,225.833,350.729,228.662z"/>
<path fill-rule="evenodd" clip-rule="evenodd" fill="#468E7A" d="M434.564,237.551c3.837-0.142,5.978,1.333,6.553,4.292
	c0.706,3.6-1.15,6.032-4.711,6.443c-3.662,0.422-5.806-1.838-5.977-5.348C430.28,239.855,432.515,238.298,434.564,237.551z"/>
<path fill-rule="evenodd" clip-rule="evenodd" fill="#468E7A" d="M544.981,167.123c-3.4-0.586-5.61-2.41-5.278-6.108
	c0.276-3.083,2.42-4.922,5.384-4.816c3.523,0.12,5.653,2.297,5.325,5.985C550.143,165.263,548.014,166.755,544.981,167.123z"/>
<path fill-rule="evenodd" clip-rule="evenodd" fill="#468E7A" d="M342.109,284.42c2.996,1.118,5.726,2.847,5.522,6.407
	c-0.189,3.269-2.941,4.227-5.864,4.255c-3.466,0.033-4.82-2.064-4.598-5.228C337.376,286.899,338.738,284.748,342.109,284.42z"/>
<path fill-rule="evenodd" clip-rule="evenodd" fill="#468E7A" d="M443.257,260.357c-1.183,3.415-2.879,6.13-6.429,6.036
	c-3.309-0.087-4.332-2.814-4.379-5.737c-0.055-3.378,1.896-4.903,5.122-4.758C440.578,256.037,442.522,257.602,443.257,260.357z"/>
<path fill-rule="evenodd" clip-rule="evenodd" fill="#468E7A" d="M350.929,251.221c3.411,0.138,4.82,2.126,4.568,5.293
	c-0.233,2.938-1.627,5.649-4.863,5.228c-3.164-0.412-5.799-2.716-5.581-6.262C345.25,252.229,348.013,251.348,350.929,251.221z"/>
<path fill-rule="evenodd" clip-rule="evenodd" fill="#468E7A" d="M475.732,325.508c-0.812,3.258-2.745,5.77-6.127,5.904
	c-3.331,0.139-4.43-2.661-4.568-5.555c-0.156-3.305,1.649-5.052,4.937-4.936C472.9,321.03,475.176,322.209,475.732,325.508z"/>
<path fill-rule="evenodd" clip-rule="evenodd" fill="#468E7A" d="M469.376,303.033c3.331,0.517,4.507,2.799,4.627,5.722
	c0.139,3.295-1.623,5.086-4.922,4.937c-2.89-0.135-5.7-1.208-5.595-4.54C463.596,305.752,466.154,303.862,469.376,303.033z"/>
<path fill-rule="evenodd" clip-rule="evenodd" fill="#468E7A" d="M515.885,195.535c-0.229,2.887-1.104,5.675-4.416,5.737
	c-3.498,0.062-5.82-2.479-6.112-5.737c-0.291-3.294,2.479-4.554,5.388-4.743C513.963,190.581,515.848,192.125,515.885,195.535z"/>
<path fill-rule="evenodd" clip-rule="evenodd" fill="#468E7A" d="M410.633,167.418c-0.645,3.127-2.712,4.543-5.675,4.303
	c-3.043-0.244-4.878-2.293-4.914-5.253c-0.037-2.916,1.536-5.457,4.736-5.093C407.972,161.739,409.971,164.131,410.633,167.418z"/>
<path fill-rule="evenodd" clip-rule="evenodd" fill="#468E7A" d="M473.876,266.877c-0.815,3.334-2.817,5.311-6.447,4.718
	c-2.425-0.397-4.438-2.017-4.015-4.598c0.517-3.164,2.686-5.679,6.069-5.701C472.689,261.275,473.756,263.859,473.876,266.877z"/>
<path fill-rule="evenodd" clip-rule="evenodd" fill="#468E7A" d="M564.191,106.869c-1.268,3.564-3.35,4.955-6.338,4.372
	c-2.949-0.575-4.652-2.617-4.395-5.661c0.255-2.974,1.991-5.246,5.17-4.572C561.781,101.678,563.416,104.321,564.191,106.869z"/>
<path fill-rule="evenodd" clip-rule="evenodd" fill="#468E7A" d="M387.459,424.814c-0.226,3.265-2.209,4.867-5.162,4.899
	c-2.981,0.029-5.042-1.729-5.366-4.772c-0.317-2.974,0.998-5.489,4.161-5.605C384.551,419.208,386.251,421.928,387.459,424.814z"/>
<path fill-rule="evenodd" clip-rule="evenodd" fill="#468E7A" d="M398.792,190.872c2.952,0.48,5.398,2.013,4.754,5.118
	c-0.623,2.989-2.851,5.548-6.371,5.366c-2.588-0.138-3.928-2.286-3.972-4.718C393.134,193.027,395.275,191.2,398.792,190.872z"/>
<path fill-rule="evenodd" clip-rule="evenodd" fill="#468E7A" d="M531.046,185.885c-3.265-0.819-5.671-2.271-4.747-5.489
	c0.853-2.971,3.047-5.493,6.59-5.005c2.479,0.342,3.793,2.541,3.688,4.987C536.419,183.996,534.064,185.564,531.046,185.885z"/>
<path fill-rule="evenodd" clip-rule="evenodd" fill="#468E7A" d="M563.965,59.72c-0.051,3.306-1.958,4.955-4.929,5.104
	c-3.018,0.153-5.056-1.587-5.525-4.569c-0.47-2.989,0.822-5.49,3.928-5.792C560.987,54.118,562.586,56.998,563.965,59.72z"/>
<path fill-rule="evenodd" clip-rule="evenodd" fill="#468E7A" d="M557.045,140.047c-1.121,2.934-2.832,5.595-6.265,5.533
	c-3.192-0.059-4.481-2.588-4.223-5.533c0.266-3.04,2.322-4.831,5.289-4.842C554.777,135.198,556.794,136.774,557.045,140.047z"/>
<path fill-rule="evenodd" clip-rule="evenodd" fill="#468E7A" d="M453.741,142.7c2.938,1.11,5.621,2.789,5.584,6.232
	c-0.033,3.192-2.526,4.539-5.482,4.285c-3.021-0.259-4.867-2.297-4.889-5.26C448.933,145.052,450.454,142.97,453.741,142.7z"/>
<path fill-rule="evenodd" clip-rule="evenodd" fill="#468E7A" d="M435.256,217.02c2.876,1.194,5.595,2.869,5.45,6.341
	c-0.131,3.164-2.625,4.471-5.591,4.146c-3.021-0.331-4.798-2.377-4.762-5.358C430.389,219.208,431.98,217.224,435.256,217.02z"/>
<path fill-rule="evenodd" clip-rule="evenodd" fill="#468E7A" d="M433.225,142.052c3.018,0.248,5.519,1.5,5.322,4.747
	c-0.156,2.559-1.121,5.741-4.463,5.65c-2.847-0.08-4.977-2.414-5.504-5.126C427.943,144.058,430.32,142.617,433.225,142.052z"/>
<path fill-rule="evenodd" clip-rule="evenodd" fill="#468E7A" d="M469.788,242.011c2.807,0.196,4.179,1.766,4.157,4.499
	c-0.033,3.524-2.225,4.766-5.345,4.397c-2.81-0.331-3.793-2.406-3.549-5.005C465.311,243.103,467.094,241.945,469.788,242.011z"/>
<path fill-rule="evenodd" clip-rule="evenodd" fill="#468E7A" d="M557.354,77.423c3.793,0.863,5.231,2.905,4.816,5.981
	c-0.339,2.49-1.879,4.449-4.551,4.201c-3.211-0.295-4.499-2.639-4.183-5.719C553.718,79.239,555.644,78.137,557.354,77.423z"/>
<path fill-rule="evenodd" clip-rule="evenodd" fill="#468E7A" d="M388.071,386.063c-0.237,3.611-1.383,6.014-4.714,5.967
	c-2.657-0.037-4.091-2.079-4.201-4.583c-0.135-3.021,1.271-5.34,4.576-5.358C386.509,382.07,387.313,384.455,388.071,386.063z"/>
<path fill-rule="evenodd" clip-rule="evenodd" fill="#468E7A" d="M462.66,180.65c-2.73-0.299-4.234-1.922-4.478-4.452
	c-0.295-3.069,1.066-5.406,4.313-5.584c2.661-0.146,4.164,1.823,4.434,4.328C467.262,178.037,465.762,180.024,462.66,180.65z"/>
<path fill-rule="evenodd" clip-rule="evenodd" fill="#468E7A" d="M382.159,364.79c-2.552-0.368-4.634-1.529-4.754-4.183
	c-0.157-3.353,2.217-4.769,5.216-4.726c2.501,0.037,4.572,1.493,4.711,4.106C387.51,363.345,385.079,364.502,382.159,364.79z"/>
<path fill-rule="evenodd" clip-rule="evenodd" fill="#468E7A" d="M397.303,244.963c-0.193,2.978-1.336,5.38-4.674,5.318
	c-2.65-0.043-4.095-2.079-4.205-4.583c-0.127-3.025,1.292-5.369,4.59-5.344C395.705,240.373,396.866,242.469,397.303,244.963z"/>
<path fill-rule="evenodd" clip-rule="evenodd" fill="#468E7A" d="M488.819,217.897c-3.233-0.229-4.751-1.856-5.061-4.368
	c-0.375-3.054,0.943-5.428,4.18-5.712c2.679-0.233,4.16,1.722,4.55,4.212C492.987,215.218,491.152,216.94,488.819,217.897z"/>
<path fill-rule="evenodd" clip-rule="evenodd" fill="#468E7A" d="M332.517,265.76c3.102,0.623,4.587,2.625,4.241,5.708
	c-0.281,2.49-1.766,4.488-4.438,4.325c-3.229-0.197-4.62-2.508-4.307-5.591C328.269,267.66,329.783,266.059,332.517,265.76z"/>
<path fill-rule="evenodd" clip-rule="evenodd" fill="#468E7A" d="M439.195,203.274c-0.295,2.931-1.474,5.34-4.834,5.155
	c-2.628-0.142-4.059-2.224-4.084-4.721c-0.029-2.989,1.383-5.384,4.739-5.209C437.655,198.637,438.834,200.723,439.195,203.274z"/>
<path fill-rule="evenodd" clip-rule="evenodd" fill="#286656" d="M465.354,425.411c2.88-0.011,5.76-0.018,8.639-0.029
	c0.175,5.464,0.35,10.924,0.524,16.385c-0.179,3.859-0.356,7.717-0.535,11.572c-3.098,19.392-6.479,38.71-16.272,56.144
	c-1.82,3.236-2.464,7.495-6.847,8.77l0.102,0.084C459.453,487.933,463.239,456.801,465.354,425.411z"/>
<path fill-rule="evenodd" clip-rule="evenodd" fill="#99CCB7" d="M320.034,525.544c4.117,1.268,7.16,3.597,7.28,7.859
	c0.095,3.466-2.297,5.825-5.89,5.341c-4.154-0.564-6.946-3.396-7.135-7.608C314.13,527.583,316.71,525.891,320.034,525.544z"/>
<path fill-rule="evenodd" clip-rule="evenodd" fill="#99CCB7" d="M539.105,434.738c1.1,4.634,1.479,9.283,0.229,13.957
	c-4.376-0.353-10.487,1.212-11.026-5.162C527.727,436.689,533.157,434.836,539.105,434.738z"/>
<path fill-rule="evenodd" clip-rule="evenodd" fill="#8BBAB1" d="M434.219,355.631c-2.92-0.411-5.792-1.354-5.588-4.707
	c0.196-3.316,2.588-5.908,5.97-5.977c3.444-0.069,5.945,2.639,6.094,5.842C440.876,354.753,437.491,355.515,434.219,355.631z"/>
<path fill-rule="evenodd" clip-rule="evenodd" fill="#8BBAB1" d="M301.479,504.329c-0.721,3.305-2.687,5.875-5.995,6.111
	c-3.521,0.252-5.832-2.544-6.28-5.679c-0.47-3.265,2.315-4.688,5.231-4.922C297.741,499.582,300.591,500.459,301.479,504.329z"/>
<path fill-rule="evenodd" clip-rule="evenodd" fill="#468E7A" d="M355.57,499.844c-4.43,2.134-9.847,4.172-10.819-2.716
	c-1.081-7.651,6.05-6.094,10.644-6.912C355.454,493.426,355.512,496.637,355.57,499.844z"/>
<path fill-rule="evenodd" clip-rule="evenodd" fill="#8BBAB1" d="M518.247,436.543c-0.139,3.255-0.892,6.647-4.871,6.44
	c-3.196-0.167-5.923-2.661-5.824-6.101c0.091-3.353,2.69-5.77,6.007-5.959C516.9,430.737,517.828,433.627,518.247,436.543z"/>
<path fill-rule="evenodd" clip-rule="evenodd" fill="#8BBAB1" d="M441.026,374.597c-1.219,3.062-3.021,5.912-6.494,5.672
	c-3.932-0.273-4.624-3.659-4.335-6.942c0.255-2.93,1.765-5.671,5.009-5.118C438.303,368.736,440.578,371.087,441.026,374.597z"/>
<path fill-rule="evenodd" clip-rule="evenodd" fill="#8BBAB1" d="M483.438,547.48c-0.178,3.877-0.953,7.27-4.925,7.04
	c-3.186-0.178-5.927-2.668-5.788-6.137c0.131-3.346,2.701-5.759,6.032-5.952C482.187,542.238,482.827,545.325,483.438,547.48z"/>
<path fill-rule="evenodd" clip-rule="evenodd" fill="#8BBAB1" d="M515.302,390.585c-0.877,3.283-2.857,5.934-6.195,5.944
	c-3.993,0.015-4.794-3.385-4.623-6.68c0.149-2.912,1.467-5.719,4.761-5.406C512.492,384.753,514.581,387.214,515.302,390.585z"/>
<path fill-rule="evenodd" clip-rule="evenodd" fill="#8BBAB1" d="M501.443,499.087c-2.981-1.576-6.064-3.306-5.475-6.858
	c0.51-3.094,2.891-5.9,6.439-5.445c3.852,0.491,4.434,3.865,4.092,7.148C506.19,496.936,504.553,498.847,501.443,499.087z"/>
<path fill-rule="evenodd" clip-rule="evenodd" fill="#8BBAB1" d="M438.805,467.485c2.949,0.558,4.889,2.436,4.787,5.461
	c-0.12,3.549-2.293,5.835-5.996,5.409c-3.6-0.415-5.453-2.876-4.758-6.509C433.414,468.847,435.58,467.376,438.805,467.485z"/>
<path fill-rule="evenodd" clip-rule="evenodd" fill="#8BBAB1" d="M441.233,441.654c-1.165,3.415-3.582,5.114-7.066,4.008
	c-2.792-0.885-4.463-3.196-3.647-6.305c0.925-3.535,3.539-5.147,7.007-4.066C440.338,436.165,441.761,438.473,441.233,441.654z"/>
<path fill-rule="evenodd" clip-rule="evenodd" fill="#8BBAB1" d="M336.463,552.868c-3.717,0.011-5.938-1.922-6.025-5.5
	c-0.073-2.993,1.784-5.147,4.9-5.399c3.724-0.298,5.89,1.879,6.006,5.428C341.446,550.415,339.506,552.301,336.463,552.868z"/>
<path fill-rule="evenodd" clip-rule="evenodd" fill="#8BBAB1" d="M413.407,525.864c0.003,3.714-1.937,5.923-5.504,6.025
	c-3.003,0.083-5.141-1.788-5.395-4.896c-0.306-3.724,1.864-5.901,5.417-6.01C410.932,520.893,412.832,522.821,413.407,525.864z"/>
<path fill-rule="evenodd" clip-rule="evenodd" fill="#8BBAB1" d="M432.723,323.753c2.996,1.361,5.726,2.985,5.671,6.439
	c-0.055,3.248-2.734,4.277-5.522,4.416c-3.888,0.189-5.406-2.017-5.001-5.693C428.194,325.948,429.825,324.186,432.723,323.753z"/>
<path fill-rule="evenodd" clip-rule="evenodd" fill="#8BBAB1" d="M468.87,568.827c-0.645,3.888-2.777,6.199-5.842,6.654
	c-3.12,0.466-4.583-2.078-4.929-4.958c-0.44-3.706,1.194-5.766,5.06-5.653C466.107,564.957,467.96,566.512,468.87,568.827z"/>
<path fill-rule="evenodd" clip-rule="evenodd" fill="#8BBAB1" d="M439.781,524.635c-3.724-0.703-4.852-2.971-4.965-5.785
	c-0.16-3.884,2.057-5.424,5.719-4.973c2.901,0.354,5.381,1.875,4.907,4.977C444.968,521.97,442.354,523.761,439.781,524.635z"/>
<path fill-rule="evenodd" clip-rule="evenodd" fill="#8BBAB1" d="M518.229,409.714c-0.389,2.752-1.267,5.475-4.521,5.45
	c-3.394-0.022-5.788-2.577-6.076-5.606c-0.364-3.753,2.72-4.954,6.054-4.965C517.042,404.582,518.276,406.609,518.229,409.714z"/>
<path fill-rule="evenodd" clip-rule="evenodd" fill="#8BBAB1" d="M399.05,503.83c-0.24,3.258-2.261,4.656-5.144,4.979
	c-3.713,0.412-5.806-1.281-5.595-5.104c0.157-2.803,1.26-5.482,4.492-5.442C396.188,498.304,397.878,500.973,399.05,503.83z"/>
<path fill-rule="evenodd" clip-rule="evenodd" fill="#8BBAB1" d="M508.946,462.677c2.851,0.025,5.533,0.852,6.035,3.888
	c0.579,3.523-2.049,5.795-4.958,6.56c-3.942,1.042-5.238-2.049-5.537-5.271C504.203,464.803,505.63,462.826,508.946,462.677z"/>
<path fill-rule="evenodd" clip-rule="evenodd" fill="#8BBAB1" d="M416.774,543.426c1.132-2.941,2.851-5.632,6.272-5.654
	c3.236-0.021,4.546,2.541,4.31,5.501c-0.24,3.043-2.297,4.896-5.274,4.947C419.141,548.271,417.059,546.738,416.774,543.426z"/>
<path fill-rule="evenodd" clip-rule="evenodd" fill="#8BBAB1" d="M355.6,556.221c3.324,0.557,5.686,2.657,6.152,5.777
	c0.48,3.188-2.057,4.809-5.009,4.819c-2.989,0.011-5.042-1.769-5.373-4.819C351.042,558.991,352.44,556.931,355.6,556.221z"/>
<path fill-rule="evenodd" clip-rule="evenodd" fill="#8BBAB1" d="M433.552,556.166c3.735,0.168,5.384,2.097,5.453,5.093
	c0.069,3.011-1.682,5.071-4.71,5.476c-2.996,0.396-5.489-0.896-5.741-4.056C428.267,559.064,431.485,557.768,433.552,556.166z"/>
<path fill-rule="evenodd" clip-rule="evenodd" fill="#8BBAB1" d="M445.7,490.686c-1.365,3.152-3.047,5.911-6.509,5.806
	c-3.196-0.095-4.492-2.636-4.172-5.613c0.328-3.043,2.388-4.794,5.38-4.823C443.45,486.021,445.168,487.875,445.7,490.686z"/>
<path fill-rule="evenodd" clip-rule="evenodd" fill="#8BBAB1" d="M439.213,398.75c-0.95,3.833-2.941,5.857-6.6,5.282
	c-2.443-0.386-4.503-1.999-4.055-4.594c0.542-3.145,2.712-5.69,6.101-5.785C437.997,393.563,438.758,396.38,439.213,398.75z"/>
<path fill-rule="evenodd" clip-rule="evenodd" fill="#8BBAB1" d="M536.994,406.737c0.826,3.87,1.653,7.743,2.479,11.609
	c-4.041-0.24-9.716,1.638-10.739-3.939C527.813,409.365,532.447,407.428,536.994,406.737z"/>
<path fill-rule="evenodd" clip-rule="evenodd" fill="#8BBAB1" d="M439.097,421.738c-0.4,2.927-1.678,5.541-4.893,5.06
	c-3.098-0.466-5.581-2.719-5.664-6.163c-0.062-2.632,2.009-4.037,4.474-4.219C436.698,416.143,438.532,418.291,439.097,421.738z"/>
<path fill-rule="evenodd" clip-rule="evenodd" fill="#99CCB7" d="M494.848,522.432c0.083,3.633-1.795,5.206-5.006,4.994
	c-2.868-0.186-5.504-1.299-5.354-4.746c0.116-2.676,2.261-3.852,4.732-4.157C492.317,518.137,494.487,519.178,494.848,522.432z"/>
<path fill-rule="evenodd" clip-rule="evenodd" fill="#8BBAB1" d="M473.981,453.339c0.179-3.855,0.356-7.713,0.535-11.572
	c4.124-0.2,8.317,0.346,8.467,5.398C483.154,453.07,478.346,453.23,473.981,453.339z"/>
<path fill-rule="evenodd" clip-rule="evenodd" fill="#99CCB7" d="M367.271,469.514c0.375,0.007,0.753,0,1.128,0.025
	c3.928,0.258,8.98-1.194,9.534,4.943c0.222,2.449-2.137,4.059-4.587,3.968C367.492,478.235,367.485,473.736,367.271,469.514
	L367.271,469.514z"/>
<path fill-rule="evenodd" clip-rule="evenodd" fill="#8BBAB1" d="M475.419,422.907c0.404-3.804,0.809-7.608,1.216-11.409
	c4.511,0.594,8.689,2.625,8.042,7.506C484.032,423.89,479.144,422.979,475.419,422.907z"/>
<path fill-rule="evenodd" clip-rule="evenodd" fill="#286656" d="M450.862,518.253c-0.273,1.7-0.546,3.399-0.815,5.1
	c-0.309-0.182-0.815-0.302-0.892-0.553c-0.597-1.948,0.102-3.422,1.809-4.463L450.862,518.253z"/>
<path fill-rule="evenodd" clip-rule="evenodd" fill="#468E7A" d="M250.272,369.428c-3.294-0.408-5.438-1.868-5.697-4.962
	c-0.302-3.666,1.795-5.981,5.308-5.999c3.509-0.019,5.631,2.257,5.391,5.934C255.07,367.553,252.795,368.859,250.272,369.428z"/>
<path fill-rule="evenodd" clip-rule="evenodd" fill="#468E7A" d="M334.923,480.831c-3.862,0.124-6.018-1.329-6.578-4.296
	c-0.677-3.582,1.15-6.047,4.711-6.461c3.676-0.426,5.762,1.882,5.944,5.373C339.16,478.552,336.936,480.088,334.923,480.831z"/>
<path fill-rule="evenodd" clip-rule="evenodd" fill="#468E7A" d="M311.086,432.364c-1.165,3.363-3.531,5.078-6.997,3.972
	c-2.767-0.881-4.434-3.16-3.626-6.24c0.917-3.491,3.495-5.111,6.942-4.037C310.184,426.926,311.604,429.208,311.086,432.364z"/>
<path fill-rule="evenodd" clip-rule="evenodd" fill="#468E7A" d="M291.888,465.083c3.437,0.666,5.373,2.522,5.268,5.519
	c-0.124,3.506-2.275,5.795-5.938,5.369c-3.557-0.415-5.38-2.854-4.725-6.457C287.05,466.484,289.325,465.232,291.888,465.083z"/>
<path fill-rule="evenodd" clip-rule="evenodd" fill="#468E7A" d="M282.801,449.382c-1.416,2.741-3.018,5.705-6.694,5.173
	c-3.17-0.462-4.088-3.196-3.932-6.134c0.186-3.48,2.432-4.598,5.53-4.248C280.668,444.508,282.747,445.939,282.801,449.382z"/>
<path fill-rule="evenodd" clip-rule="evenodd" fill="#468E7A" d="M252.667,392.772c-2.897-0.422-5.639-1.62-5.249-4.889
	c0.386-3.2,2.697-5.795,6.236-5.606c3.265,0.178,4.233,2.934,4.255,5.861C257.935,391.604,255.856,392.842,252.667,392.772z"/>
<path fill-rule="evenodd" clip-rule="evenodd" fill="#468E7A" d="M353.59,452.833c-0.481,2.188-0.564,4.58-1.54,6.52
	c-1.314,2.606-3.83,3.637-6.698,2.403c-2.785-1.198-4.066-3.564-3.167-6.433c0.863-2.767,2.803-4.361,6.083-3.375
	c1.766,0.532,3.64,0.71,5.468,1.048L353.59,452.833z"/>
<path fill-rule="evenodd" clip-rule="evenodd" fill="#468E7A" d="M273.679,372.012c3.232-0.022,5.198,1.401,5.122,4.787
	c-0.065,2.905-1.081,5.69-4.368,5.745c-3.469,0.055-5.813-2.494-6.112-5.745C268.015,373.508,270.803,372.413,273.679,372.012z"/>
<path fill-rule="evenodd" clip-rule="evenodd" fill="#468E7A" d="M262.627,407.516c-0.426,2.883-1.58,5.653-4.867,5.282
	c-3.218-0.368-5.806-2.672-5.653-6.207c0.146-3.287,2.923-4.244,5.832-4.284C261.393,402.255,262.682,404.313,262.627,407.516z"/>
<path fill-rule="evenodd" clip-rule="evenodd" fill="#468E7A" d="M262.591,353.235c-2.895-0.196-5.687-1.056-5.81-4.354
	c-0.131-3.52,2.439-5.839,5.671-6.178c3.284-0.342,4.583,2.403,4.802,5.326C267.49,351.23,266.027,353.181,262.591,353.235z"/>
<path fill-rule="evenodd" clip-rule="evenodd" fill="#468E7A" d="M292.324,407.596c3.386,0.233,4.783,2.352,5.045,5.315
	c0.28,3.145-1.008,5.271-4.47,5.34c-2.945,0.058-5.671-0.906-5.97-4.125C286.591,410.515,289.448,408.855,292.324,407.596z"/>
<path fill-rule="evenodd" clip-rule="evenodd" fill="#468E7A" d="M292.71,342.832c-0.378,3.506-2.198,5.643-5.835,5.515
	c-2.45-0.087-4.551-1.452-4.638-4.052c-0.12-3.513,2.439-5.751,5.438-6.33C290.792,337.368,292.259,339.891,292.71,342.832z"/>
<path fill-rule="evenodd" clip-rule="evenodd" fill="#468E7A" d="M317.355,446.558c3.48,0.415,5.621,2.235,5.486,5.872
	c-0.091,2.475-1.507,4.514-4.092,4.598c-3.523,0.116-5.737-2.468-6.301-5.461C311.854,448.429,314.439,447.027,317.355,446.558z"/>
<path fill-rule="evenodd" clip-rule="evenodd" fill="#468E7A" d="M287.41,395.328c-0.695,3.203-2.898,4.332-5.745,4.379
	c-3.142,0.055-4.933-1.518-4.791-4.79c0.142-3.378,2.326-4.507,5.304-4.241C285.004,390.923,287.148,392.205,287.41,395.328z"/>
<path fill-rule="evenodd" clip-rule="evenodd" fill="#468E7A" d="M269.646,430.934c-0.513,3.072-1.7,5.137-4.379,5.177
	c-3.334,0.051-4.725-2.323-4.601-5.333c0.102-2.494,1.529-4.532,4.197-4.612C268.288,426.056,269.128,428.706,269.646,430.934z"/>
<path fill-rule="evenodd" clip-rule="evenodd" fill="#468E7A" d="M562.439,308.85c-3.84-3.637-12.38,0.564-13.621-7.772
	c-0.444-2.992,3.865-6.214,4.539-4.958c3.629,6.782,14.859-3.04,15.689,7.488C569.331,307.259,566.306,308.784,562.439,308.85z"/>
<path fill-rule="evenodd" clip-rule="evenodd" fill="#468E7A" d="M575.931,357.2c-3.396-1.281-6.123-3.433-6.054-7.273
	c0.076-4.161,2.971-5.916,6.902-5.653c4.179,0.276,4.4,3.458,4.28,6.607C580.937,354.182,579.731,356.745,575.931,357.2z"/>
<path fill-rule="evenodd" clip-rule="evenodd" fill="#468E7A" d="M550.551,314.587c-0.44,3.378-1.933,5.497-5.006,5.748
	c-3.673,0.298-5.835-1.85-5.944-5.348c-0.091-2.956,1.766-5.053,4.838-5.337C548.195,309.301,549.794,311.722,550.551,314.587z"/>
<path fill-rule="evenodd" clip-rule="evenodd" fill="#468E7A" d="M562.098,363.825c-0.579,3.389-2.396,5.591-6.079,5.26
	c-3.08-0.277-4.889-2.421-4.791-5.37c0.113-3.52,2.283-5.628,5.96-5.3C560.26,358.688,561.744,360.796,562.098,363.825z"/>
<path fill-rule="evenodd" clip-rule="evenodd" fill="#468E7A" d="M551.891,390.195c-3.557-0.655-5.446-2.548-5.352-5.511
	c0.109-3.513,2.261-5.646,5.941-5.326c3.05,0.266,4.91,2.34,4.853,5.322C557.264,388.292,554.843,389.918,551.891,390.195z"/>
<path fill-rule="evenodd" clip-rule="evenodd" fill="#468E7A" d="M550.762,499.728c-2.173,3.087-4.347,6.174-6.516,9.257
	c-3.356-1.842-7.91-3.808-5.981-8.296c2.294-5.354,8.129-2.617,12.45-3.316C550.729,498.155,550.747,498.941,550.762,499.728z"/>
<path fill-rule="evenodd" clip-rule="evenodd" fill="#468E7A" d="M531.119,357.833c-3.771-0.746-5.861-2.617-5.457-6.261
	c0.27-2.421,1.715-4.467,4.332-4.267c3.323,0.251,5.613,2.584,5.948,5.77C536.288,356.377,533.481,357.266,531.119,357.833z"/>
<path fill-rule="evenodd" clip-rule="evenodd" fill="#468E7A" d="M558.895,334.958c3.483,0.375,5.624,2.188,5.504,5.802
	c-0.084,2.432-1.435,4.547-4.022,4.63c-3.491,0.117-5.733-2.435-6.315-5.409C553.456,336.887,555.964,335.409,558.895,334.958z"/>
<path fill-rule="evenodd" clip-rule="evenodd" fill="#468E7A" d="M568.857,322.748c-1.033,3.717-2.93,6.2-6.191,6.429
	c-3.232,0.229-4.623-2.358-4.518-5.26c0.116-2.996,2.049-4.875,5.056-5.097C566.276,318.591,567.915,320.491,568.857,322.748z"/>
<path fill-rule="evenodd" clip-rule="evenodd" fill="#468E7A" d="M541.341,331.736c0.099,3.858-1.81,5.402-5.023,5.18
	c-2.88-0.196-5.504-1.329-5.318-4.794c0.146-2.676,2.282-3.852,4.762-4.15C538.884,327.59,541.014,328.693,541.341,331.736z"/>
<path fill-rule="evenodd" clip-rule="evenodd" fill="#468E7A" d="M548.629,395.954c3.091,0.637,4.543,2.646,4.193,5.705
	c-0.28,2.468-1.758,4.459-4.412,4.285c-3.203-0.215-4.572-2.52-4.248-5.581C544.428,397.844,545.913,396.238,548.629,395.954z"/>
<path fill-rule="evenodd" clip-rule="evenodd" fill="#FFFFFF" d="M550.762,499.728c-0.015-0.786-0.032-1.572-0.047-2.355
	c0.79-0.065,1.58-0.127,2.369-0.192C553.357,498.978,552.396,499.662,550.762,499.728z"/>
<path fill-rule="evenodd" clip-rule="evenodd" fill="#99CCB7" d="M601.467,561.951c-0.611,0.134-1.208,0.316-1.794,0.542
	c-4.073-0.364-8.904,0.982-10.965-4.252c-1.168-2.974,0.695-5.129,2.672-7.116c4.729-4.77,7.427,1.201,11.085,2.07
	C602.13,556.115,601.799,559.035,601.467,561.951z"/>
<path fill-rule="evenodd" clip-rule="evenodd" fill="#8BBAB1" d="M520.445,550.677c1.529,0.08,3.062,0.156,4.591,0.244
	c3.877,0.229,6.858,1.703,6.789,6.075c-0.047,3.072-2.107,5.071-5.147,5.101c-4.361,0.04-5.828-2.949-6.003-6.841
	c-0.069-1.532-0.142-3.064-0.215-4.594L520.445,550.677z"/>
<path fill-rule="evenodd" clip-rule="evenodd" fill="#8BBAB1" d="M571.493,561.364c-0.571,3.444-2.417,5.661-6.148,5.345
	c-3.116-0.267-4.979-2.414-4.882-5.41c0.12-3.545,2.301-5.711,6.025-5.398C569.604,556.162,571.1,558.317,571.493,561.364z"/>
<path fill-rule="evenodd" clip-rule="evenodd" fill="#8BBAB1" d="M598.122,527.805c3.429,0.438,5.569,1.947,5.81,5.067
	c0.284,3.717-1.875,5.904-5.438,5.988c-2.988,0.073-5.114-1.784-5.398-4.907C592.749,530.135,595.21,528.54,598.122,527.805z"/>
<path fill-rule="evenodd" clip-rule="evenodd" fill="#8BBAB1" d="M599.662,499.721c-4.292,0.199-10.335,5.104-11.314-3.779
	c-0.324-2.927,1.987-5.198,5.053-5.15c5.916,0.094,6.222,4.524,6.229,8.966L599.662,499.721z"/>
<path fill-rule="evenodd" clip-rule="evenodd" fill="#99CCB7" d="M608.512,497.602c1.863,2.719,2.984,5.653,2.609,9.017
	c-6.509,2.163-12.1,2.804-11.459-6.897l-0.033,0.036C602.381,498.17,605.242,497.041,608.512,497.602z"/>
<path fill-rule="evenodd" clip-rule="evenodd" fill="#8BBAB1" d="M589.64,520.514c-0.513,3.218-2.609,4.645-5.58,4.452
	c-3.032-0.197-4.94-2.202-5.038-5.198c-0.099-2.938,1.365-5.552,4.608-5.25C586.862,514.816,588.832,517.284,589.64,520.514z"/>
<path fill-rule="evenodd" clip-rule="evenodd" fill="#8BBAB1" d="M552.946,535.763c-0.459,2.948-1.886,5.508-5.046,4.889
	c-3.003-0.586-5.591-2.811-5.5-6.327c0.065-2.605,2.155-3.989,4.634-4.076C550.692,530.116,552.517,532.268,552.946,535.763z"/>
<path fill-rule="evenodd" clip-rule="evenodd" fill="#8BBAB1" d="M578.053,543.757c-3.355-0.459-5.934-1.802-5.428-4.991
	c0.495-3.079,2.756-5.569,6.207-5.617c2.625-0.036,3.993,2.054,4.19,4.515C583.32,541.42,580.903,542.999,578.053,543.757z"/>
<path fill-rule="evenodd" clip-rule="evenodd" fill="#468E7A" d="M610.91,541.846c3.898-0.27,7.761-0.383,9.188,4.4
	c0.593,1.988-0.088,3.892-1.664,5.075c-4.55,3.425-6.49-1.904-9.687-3.087C609.469,546.101,610.189,543.975,610.91,541.846z"/>
<path fill-rule="evenodd" clip-rule="evenodd" fill="#8BBAB1" d="M564.569,511.194c0.011,3.323-1.853,4.794-4.958,4.652
	c-2.807-0.128-5.395-1.172-5.508-4.405c-0.109-3.287,2.45-4.426,5.257-4.63C562.359,506.593,564.468,507.787,564.569,511.194z"/>
<path fill-rule="evenodd" clip-rule="evenodd" fill="#468E7A" d="M601.467,561.951c0.332-2.916,0.663-5.836,0.998-8.756
	c1.343-0.018,2.68-0.036,4.016-0.058c3.771,1.882,6.202,4.608,3.596,8.776C607.532,565.991,604.361,563.629,601.467,561.951z"/>
<path fill-rule="evenodd" clip-rule="evenodd" fill="#468E7A" d="M627.608,519.938c-2.705-0.299-4.23-1.882-4.481-4.405
	c-0.302-3.043,1.049-5.369,4.259-5.584c2.676-0.182,4.121,1.824,4.409,4.288C632.151,517.299,630.688,519.298,627.608,519.938z"/>
<path fill-rule="evenodd" clip-rule="evenodd" fill="#468E7A" d="M622.093,534.244c-2.984-0.32-3.854-2.169-3.702-4.71
	c0.164-2.687,1.74-4.019,4.351-4.048c2.548-0.029,4.47,1.001,4.324,3.852C626.902,532.413,624.914,533.913,622.093,534.244z"/>
<path fill-rule="evenodd" clip-rule="evenodd" fill="#468E7A" d="M297.959,560.087c3.644,0.36,6.196,2.031,6.258,5.649
	c0.065,3.557-2.144,5.901-5.788,5.599c-3.753-0.31-6.724-2.689-6.836-6.501C291.476,560.938,294.858,560.203,297.959,560.087z"/>
<path fill-rule="evenodd" clip-rule="evenodd" fill="#468E7A" d="M278.491,557.404c-3.775-0.025-5.959-1.959-6.054-5.49
	c-0.084-2.988,1.802-5.023,4.871-5.348c3.083-0.32,5.217,1.311,5.792,4.277C283.799,554.47,281.826,556.545,278.491,557.404z"/>
<path fill-rule="evenodd" clip-rule="evenodd" fill="#1B1515" d="M379.942,690.38c-0.117,2.501-0.372,4.415-2.538,5.271
	c-2.69,1.066-4.255-0.523-5.857-2.381c-5.683-6.578-10.306-5.799-13.884,2.094c-0.906,1.998-2.745,2.77-4.787,2.268
	c-2.581-0.637-3.968-2.771-3.724-5.202c0.924-9.162,7.233-12.104,15.354-12.457C372.381,679.626,377.937,682.808,379.942,690.38z"/>
<path fill-rule="evenodd" clip-rule="evenodd" fill="#1B1515" d="M548.941,683.022c9.378-0.36,14.172,4.332,17.703,10.771
	c1.347,2.461,2.035,5.402-0.608,7.332c-2.729,1.994-5.271,0.498-6.897-1.959c-5.737-8.675-11.831-8.94-18.424-1.041
	c-1.846,2.21-3.862,4.248-6.72,1.853c-2.884-2.417-2.385-5.616-0.571-8.357C537.373,685.65,543.528,683.663,548.941,683.022z"/>
</svg>
