<?xml version="1.0" encoding="utf-8"?>
<!-- Generator: Adobe Illustrator 16.0.0, SVG Export Plug-In . SVG Version: 6.00 Build 0)  -->
<!DOCTYPE svg PUBLIC "-//W3C//DTD SVG 1.1//EN" "http://www.w3.org/Graphics/SVG/1.1/DTD/svg11.dtd">
<svg version="1.1" id="Layer_1" xmlns="http://www.w3.org/2000/svg" xmlns:xlink="http://www.w3.org/1999/xlink" x="0px" y="0px"
	 width="928px" height="928px" viewBox="0 0 928 928" enable-background="new 0 0 928 928" xml:space="preserve">
<path fill-rule="evenodd" clip-rule="evenodd" fill="#F9B6AA" d="M630.084,596.104c7.143,3.364,15.072,2.109,22.519,3.838
	c8.372,1.942,11.46,5.407,11.855,13.937c1.276,27.569,0.834,55.162,1.306,82.739c0.429,24.986-3.427,49.606-4.982,74.403
	c-1.873,29.827-11.056,57.495-22.313,84.518c-6.42,15.409-18.054,27.179-32.66,36.268c-17.769,11.06-37.839,12.609-57.428,16.133
	c-45.478,8.179-91.487,5.912-137.291,5.057c-23.417-0.437-46.961-3.106-69.924-8.789c-11.681-2.892-23.008-7.271-32.646-14.12
	c-10.751-7.641-17.871-19.241-22.063-31.55c-8.806-25.856-14.725-52.549-18.405-79.627c-5.615-41.313-2.17-82.876-2.3-124.316
	c-0.047-15.053,3.429-30.1,4.975-45.183c0.684-6.696,10.822-10.782,19.204-12.567c1.913-0.409,3.961-0.163,5.949-0.221
	c2.684-0.035,5.37-0.072,8.054-0.109c6.636,0.235,13.254,0.177,19.797-1.172c3.048-0.021,6.095-0.043,9.145-0.065
	c4.907-0.109,9.817-0.218,14.724-0.328c4.939,0.677,9.788-0.11,14.634-0.908c3.018-0.023,6.038-0.045,9.056-0.067
	c15.519-0.458,31.04-0.912,46.561-1.37c3.081-0.066,6.162-0.132,9.243-0.198c5.67-0.055,11.341-0.11,17.013-0.159
	c3.16,0.423,6.311,0.737,9.3-0.805c15.468-0.033,30.935-0.066,46.406-0.102c2.319,0,4.638,0.002,6.956,0.002
	c3.38-0.004,6.76-0.008,10.14-0.014c2.758,0.025,5.517,0.051,8.275,0.074c5.546,2.043,11.264,0.952,16.923,0.92
	c2.771,0.056,5.546,0.114,8.316,0.169c8.301,0.368,16.601,0.734,24.899,1.102c3.077,0.118,6.152,0.232,9.233,0.35
	c8.605-0.44,17.066,2.268,25.699,1.164C616.791,596.873,623.413,596.993,630.084,596.104z M527.729,775.406
	c-6.5-4.608-14.195-5.875-21.669-7.76c-0.694,0.016-1.386,0.031-2.08,0.045c-6.682-2.977-13.976-2.686-20.981-3.94
	c-1.465-0.043-2.931-0.089-4.396-0.13c-4.727-2.094-9.715-0.889-14.587-1.16c-1.75-0.016-3.501-0.031-5.251-0.047
	c-6.773,0.07-13.547,0.142-20.322,0.21c-2.151,1.135-4.927,0.494-6.803,2.405c-6.184,0.724-12.407,1.349-16.787,6.64
	c-15.592,5.326-25.796,21.177-25.625,39.824c0.13,14.354,13.883,29.717,28.437,31.77c5.238,4.554,11.97,4.839,18.258,6.39
	c2.967-0.437,6.026,1.791,8.936-0.309c6.557,2.782,13.447,2.454,20.332,2.185c2.708,0.076,5.431,0.401,8.069-0.541
	c6.946,3.329,13.882-0.187,20.822-0.035c1.659-0.413,3.32-0.826,4.981-1.238c6.697,0.202,12.802-1.606,18.319-5.399
	c0.965-0.411,1.927-0.822,2.89-1.23c6.239-2.388,12.09-5.299,15.496-11.504c1.473,0.105,2.426-0.76,3.429-1.682
	C558.484,812.118,552.641,784.315,527.729,775.406z M554.579,762.354c4.902,0.226,9.753,0.139,14.267-2.047
	c4.963-2.403,10.479-4.59,10.572-11.29c0.092-6.651-4.488-10.44-9.897-12.815c-9.224-4.055-19.166-5.104-29.044-4.137
	c-8.688,0.848-13.655,11.443-9.563,19.28C535.944,760.982,544.986,762.371,554.579,762.354z M379.373,746.358
	c0.279-4.864-1.764-8.297-5.898-10.955c-9.007-5.789-25.918-3.354-34.021,5.147c-5.678,5.965-5.057,12.833,1.944,17.249
	c6.353,4.009,13.694,5.102,20.896,4.058C372.124,760.434,379.383,753.264,379.373,746.358z M377.728,698.581
	c0.142,6.368-0.488,12.864,2.741,18.765c2.398,4.379,5.967,7.086,11.16,6.909c4.778-0.165,8.002-3.04,9.367-7.224
	c4.022-12.363,4.319-24.707-2.236-36.427c-2.243-4.01-5.694-6.923-10.723-6.422c-5.486,0.549-7.662,4.76-9.143,9.296
	C377.293,688.378,377.861,693.523,377.728,698.581z M553.946,699.163c0.11-6.837-1.093-11.329-4.011-14.986
	c-4.449-5.574-14.398-6.174-17.037-0.479c-4.979,10.74-6.182,22.113-1.069,33.171c3.523,7.62,11.886,7.866,17.09,1.095
	C553.209,712.375,553.685,705.809,553.946,699.163z M468.621,738.749c0.881,0,1.768,0.044,2.646-0.008
	c4.03-0.241,7.977-1.229,7.843-6.116c-0.138-4.969-4.141-5.592-8.197-5.47c-1.101,0.033-2.226,0.161-3.305,0.002
	c-2.979-0.444-7.015-0.238-6.976-4.389c0.036-3.892,1.829-7.249,6.98-6.756c3.341,0.316,5.541-1.451,5.855-4.888
	c0.303-3.351-1.636-5.448-4.611-6.453c-4.581-1.549-8.714-0.373-12.328,2.684c-6.358,5.382-9.184,14.041-6.852,20.8
	C451.909,734.626,459.221,738.733,468.621,738.749z M534.759,646.784c7.381-0.233,12.903,0.962,17.723,4.459
	c2.979,2.163,6.058,3.343,8.747,0.075c2.859-3.477,1.292-7.008-1.747-9.214c-8.585-6.23-18.349-8.289-28.764-6.358
	c-3.025,0.559-5.025,2.895-4.587,6.308c0.452,3.504,3.044,4.567,6.172,4.719C533.622,646.835,534.945,646.784,534.759,646.784z
	 M384.851,634.588c-5.676,0.191-11.518-0.34-16.6,2.963c-3.056,1.982-4.734,4.849-2.941,8.42c1.736,3.452,4.73,3.24,7.939,1.978
	c5.895-2.324,12.005-2.501,18.018-0.761c3.303,0.957,6.288,1.39,7.904-2.114c1.77-3.83-0.132-6.814-3.404-8.918
	C392.403,633.986,388.545,634.768,384.851,634.588z"/>
<path fill-rule="evenodd" clip-rule="evenodd" fill="#D0EADF" d="M525.182,591.401c-2.759-0.023-5.518-0.049-8.273-0.074
	c-0.056-16.847,0.719-33.696-0.337-50.534c0.189-3.966,0.189-7.951,0.598-11.894c3.496-33.745,5.104-67.618,6.361-101.49
	c1.149-31.057,3.889-62.067,3.049-93.192c-0.102-3.729,0.104-7.448,0.623-11.2c2.112-15.25,3.897-30.545,5.801-45.823
	c4.135-13.613,7.507-27.417,10.33-41.358c2.045-2.076,3.745-4.28,2.784-7.477c6.445-23.271,14.084-46.083,26.966-66.95
	c-2.68-0.862-3.456,0.41-4.35,1.282c-11.191,10.913-19.449,23.882-26.202,37.851c-3.333,6.892-6.292,13.967-9.42,20.96
	c-0.032-7.504-0.065-15.009-0.097-22.513c6.43-10.946,12.32-22.204,20.126-32.328c4.127-5.354,10.491-8.752,13.122-15.341
	c0.427-0.454,0.853-0.907,1.281-1.36c7.759-5.272,15.138-10.978,21.034-18.38c2.485-0.075,4.973-0.148,7.458-0.223
	c0.265,4.34,0.435,8.689,0.853,13.013c0.156,1.61,1.328,2.979,3.088,2.696c1.948-0.314,2.115-1.828,1.475-3.518
	c-1.53-4.031-0.832-8.131-0.312-12.222c1.044,0.073,1.806,0.551,2.21,1.541c-0.137,4.502,2.631,7.912,4.678,11.458
	c6.079,10.536,11.024,21.555,15.26,32.937c9.123,24.516,10.478,50.285,11.572,75.94c0.948,22.247,0.171,44.564,0.297,66.85
	c0.035,6.6-0.66,13.229,0.504,19.802c-0.106,2.679-6.115,4.84-0.708,8.007c0.029,31.504,0.066,63.009,0.063,94.514
	c0,1.523-0.464,3.041-0.532,4.568c-0.49,10.714-0.933,21.432-1.395,32.148c-1.557,2.185-4.929,3.995-1.498,7.216
	c-0.559,6.327-1.201,12.646-1.659,18.977c-1.245,17.244-3.05,34.422-5.419,51.545c-2.571,1.943-5.696,1.884-8.659,2.388
	c1.646-17.303,3.118-34.614,4.969-51.886c2.487-23.198,4.89-46.424,4.98-69.76c0.231-59.643,0.092-119.29,0.072-178.935
	c-0.008-19.635-1.923-39.107-5.342-58.432c-2.583-14.586-8.496-27.933-15.316-41.036c-0.582,2.229-0.692,4.351-0.564,6.46
	c0.822,13.398,2.34,26.79,2.401,40.189c0.096,20.947,0.111,41.887-0.681,62.86c-1.418,37.482-1.191,75.026-1.646,112.544
	c-0.095,7.732,0.231,15.49-0.303,23.189c-1.992,28.751-4.004,57.505-6.528,86.212c-1.537,17.509-3.859,34.954-6.124,52.393
	c-2.21,17.001-4.8,33.953-7.222,50.927c-3.077-0.117-6.152-0.231-9.228-0.346c1.845-12.383,3.669-24.771,5.531-37.154
	c3.533-23.475,5.9-47.072,8.338-70.682c2.776-26.915,4.208-53.908,6.084-80.874c1.128-16.26,0.342-32.588,1.073-48.909
	c1.347-29.948-0.025-59.961,1.439-89.96c1.054-21.583,0.299-43.261,0.212-64.896c-0.037-8.646-1.886-17.174-1.77-25.931
	c-0.955,0.667-1.535,1.336-1.74,2.105c-5.757,21.708-9.773,43.735-12.402,66.037c-2.65,22.467-5.287,44.939-8.351,67.351
	c-3.185,23.297-5.322,46.692-7.459,70.091c-1.581,17.291-2.59,34.633-4.243,51.916c-2.196,22.978-4.357,45.95-5.163,69.032
	c-0.289,8.353-0.834,16.701-1.447,25.039c-1.614,21.913-3.329,43.822-5.004,65.73c-2.771-0.055-5.545-0.113-8.313-0.167
	c0.367-15.169,1.586-30.28,2.721-45.412c2.204-29.36,3.669-58.776,5.594-88.16c0.718-10.955,1.829-21.883,2.829-32.818
	c2.08-22.73,4.117-45.465,6.339-68.18c1.773-18.136,3.597-36.27,5.761-54.361c2.27-18.956,5.213-37.833,7.421-56.794
	c2.697-23.162,6.368-46.091,12.439-68.656c2.617-9.727,6.837-19.074,7.54-29.296c0.341-0.457,0.688-0.912,1.005-1.387
	c0.01-0.011-0.303-0.237-0.464-0.362c-0.188,0.574-0.379,1.15-0.568,1.726c-6.716,8.474-12.509,17.568-17.486,27.134
	c-16.963,32.599-24.788,68.184-32.733,103.593c-9.42,41.98-10.982,84.932-13.146,127.708c-1.221,24.171-1.995,48.388-2.656,72.583
	C525.687,516.88,525.64,554.146,525.182,591.401z M574.197,157.934c-0.169,0.071-0.363,0.111-0.495,0.224
	c-0.078,0.067-0.059,0.25-0.083,0.38c0.18-0.215,0.36-0.428,0.539-0.644c0.165-0.054,0.354-0.079,0.488-0.177
	c0.08-0.058,0.074-0.233,0.107-0.356C574.567,157.554,574.383,157.743,574.197,157.934z"/>
<path fill-rule="evenodd" clip-rule="evenodd" fill="#77A593" d="M444.105,592.241c-5.672,0.053-11.343,0.108-17.011,0.163
	c-0.002-34.86,2.851-69.63,3.52-104.466c0.59-30.662,1.23-61.31,2.819-91.944c1.29-24.884,1.966-49.805,2.601-74.716
	c0.722-28.243,1.064-56.494,1.638-84.742c0.189-9.254,0.653-18.532,0.787-27.759c0.482-32.657,3.561-65.218,3.213-97.892
	c-0.281-26.694,0.772-53.409-1.166-80.079c0.387-0.063,0.772-0.138,1.156-0.224c3.722,8.725,6.852,17.657,9.371,26.807
	c13.136,47.718,17.2,96.657,18.083,145.804c1.013,56.261,0.273,112.553,0.604,168.829c0.146,24.517-1.477,48.921-4.434,73.183
	C459.295,494.363,451.775,543.317,444.105,592.241z"/>
<path fill-rule="evenodd" clip-rule="evenodd" fill="#77A593" d="M362.232,594.04c-4.847,0.798-9.695,1.585-14.636,0.908
	c-0.452-3.25-1.447-6.531-1.274-9.752c1.308-24.393-1.38-48.702-0.733-73.163c0.879-33.202,3.5-66.355,3.24-99.588
	c2.316-1.759,0.737-3.541,0.028-5.316c0.43-2.359,1.211-4.713,1.232-7.075c0.21-21.932-0.444-43.877,1.416-65.774
	c-0.014-2.126-0.03-4.253-0.043-6.381c-0.855-16.106,1.726-32.018,2.692-48.021c0.004-2.182,0.008-4.364,0.012-6.544
	c0.049-16.406,0.849-32.785,0.485-49.228c-0.196-8.921,3.618-18.012,2.637-27.364c2.989-4.818-0.216-6.302-4.033-7.15
	c-2.235-0.498-4.87-0.624-4.274-3.681c0.631-3.246,3.374-3.136,5.806-2.204c6.938,2.657,5.377-3.301,5.796-6.134
	c3.059-20.776,7.391-41.201,15.081-60.823c1.345-3.431,3.967-6.46,3.537-10.496c3.863,0.084,1.864-3.963,3.729-5.289
	c5.04-9.55,9.15-19.585,14.184-29.086c6.28-11.856,15.012-22.12,25.422-30.788c0.594,0.055,1.184,0.109,1.775,0.163
	c-2.867,14.233-5.377,28.548-8.663,42.682c-9.131,39.266-17.31,78.722-24.091,118.453c-9.966,58.406-16.995,117.2-21.199,176.29
	c-2.737,38.44-5.024,76.932-6.491,115.439C362.604,527.396,363.89,560.747,362.232,594.04z"/>
<path fill-rule="evenodd" clip-rule="evenodd" fill="#77A593" d="M499.811,591.339c-15.471,0.035-30.938,0.068-46.406,0.1
	c0.468-3.045,0.946-6.089,1.398-9.135c4.729-31.778,9.593-63.54,14.139-95.345c4.612-32.27,9.434-64.639,9.482-97.238
	c0.112-77.197,2.004-154.434-2.447-231.585c-1.218-21.112-3.76-42.098-7.415-62.932c-3.928-22.368-9.31-44.363-17.351-65.649
	c0.706-0.001,1.414-0.004,2.12-0.006c1.156,2.131,2.432,4.208,3.447,6.406c21.388,46.339,29.689,95.731,33.828,146.055
	c1.661,20.197,2.637,40.451,4.313,60.647c2.951,35.591,5.687,71.251,5.956,106.914C501.483,430.156,502.859,510.764,499.811,591.339
	z"/>
<path fill-rule="evenodd" clip-rule="evenodd" fill="#77A593" d="M533.015,198.989c0.031,7.504,0.064,15.009,0.097,22.514
	c0.004,4.079,0.01,8.157,0.014,12.231c-0.012,2.113-0.02,4.229-0.03,6.344c-0.462,9.852,0.954,19.756-1.147,29.588
	c-0.504,2.359-1.1,5.283,1.056,7.527c-1.903,15.278-3.688,30.573-5.801,45.823c-0.519,3.752-0.725,7.472-0.623,11.2
	c0.84,31.125-1.899,62.136-3.049,93.192c-1.257,33.872-2.865,67.745-6.361,101.49c-0.408,3.942-0.408,7.928-0.594,11.894
	c-3.696,3.846-1.62,9.129-3.34,13.479c-1.507,3.811,0.442,8.71-3.667,11.714c0.273-4.83,0.812-9.665,0.784-14.496
	c-0.405-68.408,1.182-136.821-0.887-205.231c-1.011-33.488-3.099-66.887-5.397-100.294c-2.222-32.279-4.213-64.563-8.01-96.717
	c-4.125-34.95-11.754-68.99-24.651-101.815c-2.136-5.435-5.861-10.403-5.755-16.636c8.771,1.427,17.084,3.742,22.492,11.654
	c0.966,2.398,2.566,3.994,5.295,4.145c5.23,11.839,11.67,23.14,15.712,35.511c0.855,2.612,2.625,1.499,4.276,0.843
	c1.399-0.555,2.631-0.153,3.362,1.185c0.761,1.391,0.212,2.84-0.916,3.495c-4.442,2.57-3.003,5.938-1.858,9.622
	c5.169,16.616,10.07,33.309,12.354,50.632c0.435,2.661-0.774,5.959,2.843,7.401c-1.603,7.615,1.874,14.95,1.239,22.512
	C532.14,184.76,530.729,192.098,533.015,198.989z"/>
<path fill-rule="evenodd" clip-rule="evenodd" fill="#D0EADF" d="M362.232,594.04c1.658-33.293,0.372-66.645,1.636-99.924
	c1.467-38.508,3.753-76.999,6.491-115.439c4.204-59.09,11.232-117.884,21.199-176.29c6.781-39.73,14.96-79.187,24.091-118.453
	c3.286-14.134,5.796-28.449,8.663-42.682c1.282-2.097,3.553-3.614,3.744-6.354c4.148-1.365,8.299-2.728,12.45-4.092
	c1.938,26.67,0.885,53.384,1.166,80.079c0.348,32.674-2.731,65.235-3.213,97.892c-0.134,9.228-0.598,18.505-0.787,27.759
	c-0.574,28.248-0.916,56.499-1.638,84.742c-0.635,24.911-1.312,49.832-2.601,74.716c-1.589,30.634-2.229,61.282-2.819,91.944
	c-0.669,34.836-3.521,69.605-3.52,104.466c-3.083,0.066-6.164,0.132-9.247,0.198c1.258-32.16,3.125-64.311,3.624-96.483
	c0.66-42.349,2.265-84.647,4.111-126.951c1.335-30.625,2.216-61.281,2.558-91.932c0.492-44.117,2.057-88.182,3.917-132.259
	c1.172-27.777,0.389-55.639,0.482-83.462c0.008-2.331,0-4.662,0-6.995c-1.707,1.902-2.336,3.93-2.784,5.997
	c-12.487,57.461-25.452,114.821-34.074,173.052c-4.127,27.873-8.002,55.781-10.908,83.796c-2.454,23.645-4.178,47.369-5.912,71.089
	c-2.379,32.519-4.797,65.041-5.873,97.612c-1.186,35.949-1.184,71.936-1.699,107.906C368.27,593.995,365.25,594.017,362.232,594.04z
	"/>
<path fill-rule="evenodd" clip-rule="evenodd" fill="#D0EADF" d="M357.287,196.741c0.981,9.352-2.833,18.443-2.637,27.364
	c0.364,16.443-0.437,32.822-0.485,49.228c-3.303-0.126-4.528-2.59-5.72-5.091c1.028-16.216-4.146-31.879-4.105-48.103
	c-4.168,8.134-7.617,16.365-10.083,25c-8.103,28.377-10.375,57.486-10.521,86.796c-0.196,40.325-0.316,80.645,2.313,120.939
	c1.085,16.668,1.677,33.382,2.65,50.074c1.789,30.754,2.823,61.552,4.174,92.328c-3.05,0.022-6.097,0.044-9.145,0.065
	c-0.879-18.694-1.927-37.381-2.591-56.083c-0.891-25.08-2.632-50.111-3.875-75.168c-1.471-29.709-2.118-59.465-2.678-89.208
	c-0.387-20.5-0.004-41.001,0.942-61.507c0.954-20.714,3.104-41.161,7.725-61.417c2.255-9.892,6.982-18.997,8.397-29.079
	c0.34-0.477,0.684-0.95,0.999-1.442c0.008-0.015-0.315-0.24-0.482-0.367c-0.189,0.588-0.379,1.176-0.568,1.764
	c-5.214,5.49-8.313,12.35-11.925,18.832c-12.691,22.79-14.854,48.185-16.934,73.371c-2.72,32.917-3.486,65.97-3.966,98.988
	c-0.305,20.923-0.824,41.865,0.751,62.822c1.304,17.342,0.665,34.831,1.933,52.177c0.627,8.547,0.191,17.166,1.618,25.656
	c-3.144,3.348-7.235,3.075-11.288,2.961c0.01-0.663,0.018-1.325,0.027-1.986c2.338-1.875,1.296-4.49,1.384-6.795
	c0.487-12.781-0.651-25.517-1.207-38.27c2.092-0.982,6.056,1.381,6.242-2.612c0.144-3.065-3.315-2.692-5.483-3.337
	c-0.401-0.118-0.751-0.409-1.125-0.621c-2.36-46.014-0.474-92.063-1.166-138.089c1.439-1.931,3.23-3.811,0.912-6.287
	c1.044-15.811,2.112-31.621,3.121-47.433c0.979-15.38,2.438-30.702,6.435-45.637c2.098-7.842,4.66-15.56,7.013-23.335
	c4.502,0.25,5.796-1.501,3.457-5.529c7.928-11.856,14.306-24.698,22.902-36.13l-0.09,0.1c0.458-0.432,0.916-0.862,1.374-1.292
	C342.431,196.863,349.741,196.104,357.287,196.741z"/>
<path fill-rule="evenodd" clip-rule="evenodd" fill="#D0EADF" d="M451.21,29.555c8.042,21.287,13.423,43.281,17.351,65.649
	c3.655,20.834,6.197,41.82,7.415,62.932c4.451,77.151,2.56,154.388,2.447,231.585c-0.049,32.599-4.87,64.969-9.482,97.238
	c-4.546,31.805-9.41,63.566-14.139,95.345c-0.452,3.046-0.93,6.09-1.398,9.135c-2.989,1.544-6.14,1.229-9.3,0.807
	c7.67-48.928,15.19-97.882,21.179-147.04c2.957-24.262,4.579-48.666,4.434-73.183c-0.33-56.276,0.409-112.568-0.604-168.829
	c-0.883-49.146-4.947-98.086-18.083-145.804c-2.519-9.149-5.649-18.082-9.371-26.807C444.634,28.283,448.008,29.726,451.21,29.555z"
	/>
<path fill-rule="evenodd" clip-rule="evenodd" fill="#D0EADF" d="M465.652,30.796c-0.106,6.233,3.619,11.201,5.755,16.636
	c12.897,32.826,20.526,66.865,24.651,101.815c3.797,32.154,5.788,64.438,8.01,96.717c2.299,33.407,4.387,66.806,5.397,100.294
	c2.068,68.411,0.481,136.823,0.887,205.231c0.027,4.831-0.511,9.666-0.788,14.499c-0.935,8.452-1.866,16.9-2.798,25.352
	c-2.318,0-4.637-0.002-6.956-0.002c3.049-80.575,1.673-161.183,1.063-241.768c-0.27-35.663-3.005-71.323-5.956-106.914
	c-1.677-20.196-2.652-40.45-4.313-60.647c-4.139-50.324-12.439-99.716-33.828-146.055c-1.015-2.198-2.291-4.274-3.447-6.406
	c1.213-0.082,2.426-0.164,3.639-0.249c1.38,1.048,2.979,1.361,4.662,1.386C462.972,30.723,464.311,30.759,465.652,30.796z"/>
<path fill-rule="evenodd" clip-rule="evenodd" fill="#8FBCB4" d="M635.664,339.854c-1.168-6.574-0.473-13.204-0.508-19.803
	c-0.126-22.285,0.651-44.603-0.297-66.85c-1.095-25.655-2.449-51.425-11.572-75.94c-4.235-11.381-9.181-22.401-15.26-32.937
	c-2.047-3.546-4.814-6.955-4.678-11.458c8.725,2.194,14.979,8.029,20.384,14.653c5.602,6.868,11.657,13.586,14.079,22.498
	c-0.147,3.044-2.725,7.165,3.31,7.473c3.448,13.1,5.767,26.372,6.013,39.954c-0.799,1.846-4.749,1.145-3.703,4.385
	c0.744,2.3,2.838,2.335,4.843,2.277c2.557,34.951,1.353,69.956,1.438,104.941C645.519,333.284,640.752,336.779,635.664,339.854z"/>
<path fill-rule="evenodd" clip-rule="evenodd" fill="#8FBCB4" d="M633.092,479.091c0.458-10.716,0.9-21.434,1.391-32.148
	c0.068-1.528,0.532-3.045,0.532-4.568c0.004-31.505-0.033-63.01-0.063-94.517c5.557-2.207,8.706-7.922,14.428-9.883
	c1.415,18.089-0.506,36.079-1.642,54.09c-0.189,2.971-1.74,6.038,0.774,8.76c-2.419,1.822-4.949,3.514-7.226,5.5
	c-2.153,1.875-4.569,4.3-2.46,7.231c2.625,3.65,4.21-1.249,6.479-1.391c0.935,14.517-2.212,28.773-2.819,43.198
	c-0.283,6.771-1.178,13.516-1.797,20.274C638.373,477.266,636.021,478.815,633.092,479.091z"/>
<path fill-rule="evenodd" clip-rule="evenodd" fill="#8FBCB4" d="M307.94,243.244c-2.354,7.772-4.916,15.491-7.013,23.333
	c-3.997,14.935-5.456,30.256-6.435,45.637c-1.009,15.812-2.077,31.622-3.117,47.432c-2.643,0.001-5.287,0.004-7.933,0.008
	c0.086-8.771,0.157-17.542,0.259-26.313c0.157-13.858-0.047-27.706-1.138-41.531c3.83-1.013,5-2.645,1.264-5.423
	c3.049-17.675,8.126-34.803,13.896-51.748C301.13,237.507,304.535,240.375,307.94,243.244z"/>
<path fill-rule="evenodd" clip-rule="evenodd" fill="#8FBCB4" d="M290.459,365.932c0.692,46.027-1.194,92.075,1.166,138.085
	c-2.167,0.367-4.335,0.735-6.504,1.103c-1.258-18.633-2.515-37.267-3.773-55.896c1.854-2.031,7.568-3.979,0.136-6.217
	c0.313-25.627,0.625-51.255,0.938-76.883C285.102,366.06,287.779,365.997,290.459,365.932z"/>
<path fill-rule="evenodd" clip-rule="evenodd" fill="#8FBCB4" d="M533.015,198.989c-2.285-6.891-0.875-14.229-2.563-21.193
	c3.896,0.654,3.951-2.883,5.061-4.934c6.333-11.678,13.873-22.282,25.137-29.772c0.962,3.364,0.712,7.552,5.614,8.23
	c-2.631,6.589-8.995,9.987-13.122,15.341C545.335,176.786,539.444,188.043,533.015,198.989z"/>
<path fill-rule="evenodd" clip-rule="evenodd" fill="#8FBCB4" d="M624.512,556.828c2.369-17.123,4.174-34.301,5.419-51.545
	c0.458-6.33,1.101-12.649,1.657-18.975c3.128,0.528,5.283-1.853,7.963-2.668c0.242,12.894-1.754,25.648-2.424,38.485
	c-0.537,10.249-2.444,20.41-1.967,30.721C631.924,555.018,628.283,556.093,624.512,556.828z"/>
<path fill-rule="evenodd" clip-rule="evenodd" fill="#8FBCB4" d="M334.299,201.582c-8.596,11.432-14.974,24.274-22.902,36.129
	c-4.125-1.683-7.621-4.181-10.208-7.863c6.422-12.093,16.262-20.675,28.026-27.281C330.807,201.674,332.48,201.262,334.299,201.582z
	"/>
<path fill-rule="evenodd" clip-rule="evenodd" fill="#D0EADF" d="M303.934,596.514c-2.686,0.037-5.372,0.074-8.056,0.109
	c-0.922-10.939-1.842-21.877-2.764-32.818c3.15-0.578,6.297-1.156,9.445-1.734C301.726,573.604,303.988,585.012,303.934,596.514z"/>
<path fill-rule="evenodd" clip-rule="evenodd" fill="#8FBCB4" d="M633.08,560.515c0.067,8.272-1.663,16.317-2.98,24.424
	c-0.417,2.55-0.273,5.188-0.388,7.786c-2.2-0.507-4.401-1.017-6.603-1.523c0.341-8.816-0.454-17.668,0.766-26.461
	C626.201,561.717,629.566,560.955,633.08,560.515z"/>
<path fill-rule="evenodd" clip-rule="evenodd" fill="#61AE84" d="M648.274,224.105c-2.005,0.059-4.099,0.023-4.843-2.277
	c-1.046-3.24,2.904-2.539,3.703-4.385c7.703-1.121,14.447-4.822,21.394-7.966c2.111-0.956,4.558-3.195,6.29-0.174
	c1.848,3.231-1.558,4.179-3.516,5.054C663.693,217.758,655.961,220.881,648.274,224.105z"/>
<path fill-rule="evenodd" clip-rule="evenodd" fill="#61AE84" d="M281.484,443.008c7.432,2.238,1.718,4.186-0.136,6.217
	c-7.914,2.579-15.833,5.146-23.741,7.754c-1.894,0.625-4.066,1.704-5.057-0.88c-1.093-2.845,1.27-3.861,3.397-4.581
	C264.445,448.641,272.97,445.839,281.484,443.008z"/>
<path fill-rule="evenodd" clip-rule="evenodd" fill="#4F8A73" d="M639.551,483.641c-2.68,0.815-4.835,3.196-7.963,2.668
	c-3.429-3.223-0.057-5.033,1.5-7.218c2.934-0.275,5.285-1.825,7.602-3.453c5.086-2.013,10.134-4.133,15.281-5.977
	c1.816-0.649,4.323-0.999,4.946,1.568c0.521,2.136-1.646,2.687-3.299,3.366C651.371,477.154,644.611,478.709,639.551,483.641z"/>
<path fill-rule="evenodd" clip-rule="evenodd" fill="#4F8A73" d="M649.38,337.975c-5.722,1.961-8.871,7.676-14.428,9.883
	c-5.407-3.165,0.602-5.326,0.708-8.004c5.092-3.074,9.858-6.569,14.052-10.806c1.845-1.136,3.708-2.245,5.531-3.419
	c1.378-0.887,2.837-1.598,4.081-0.063c1.229,1.516,0.299,2.892-0.843,4.03C655.558,332.507,651.474,334.159,649.38,337.975z"/>
<path fill-rule="evenodd" clip-rule="evenodd" fill="#8FBCB4" d="M291.991,510.592c0.556,12.753,1.694,25.488,1.207,38.27
	c-0.088,2.305,0.954,4.92-1.384,6.795c-2.112-14.822-4.221-29.646-6.335-44.468C287.555,509.955,289.807,510.644,291.991,510.592z"
	/>
<path fill-rule="evenodd" clip-rule="evenodd" fill="#8FBCB4" d="M588.578,131.58c-5.896,7.402-13.275,13.107-21.034,18.38
	c-0.33-4.5-0.656-9.001-0.984-13.5C574.09,135.694,580.822,131.325,588.578,131.58z"/>
<path fill-rule="evenodd" clip-rule="evenodd" fill="#61AE84" d="M291.991,510.592c-2.185,0.052-4.436-0.637-6.512,0.597
	c-2.57,0.607-5.125,1.291-7.717,1.801c-2.086,0.411-4.732,1.48-5.582-1.538c-0.913-3.248,1.944-3.246,4.042-3.796
	c2.98-0.783,5.934-1.684,8.898-2.535c2.169-0.367,4.337-0.735,6.504-1.103c0.374,0.216,0.723,0.507,1.125,0.625
	c2.168,0.645,5.627,0.271,5.483,3.337C298.047,511.973,294.083,509.609,291.991,510.592z"/>
<path fill-rule="evenodd" clip-rule="evenodd" fill="#4F8A73" d="M633.08,560.515c-3.514,0.44-6.879,1.202-9.205,4.226
	c-2.861-0.126-5.722-0.248-8.58-0.373c-1.517-1.899-0.712-3.547,0.554-5.144c2.967-0.512,6.092-0.452,8.663-2.396
	c3.771-0.735,7.412-1.811,10.648-3.981c1.719,0.427,4.375-1.149,5.029,1.17c0.559,1.98-1.795,3.017-3.417,4.007
	C635.507,558.797,634.307,559.68,633.08,560.515z"/>
<path fill-rule="evenodd" clip-rule="evenodd" fill="#4F8A73" d="M566.56,136.459c0.328,4.5,0.654,9,0.984,13.5
	c-0.429,0.453-0.854,0.906-1.281,1.36c-4.902-0.678-4.652-4.866-5.614-8.23c0.087-5.032,0.219-10.061,0.236-15.092
	c0.008-2.166,0.401-4.195,2.891-4.321c2.878-0.146,2.684,2.327,2.748,4.238C566.626,130.76,566.556,133.61,566.56,136.459z"/>
<path fill-rule="evenodd" clip-rule="evenodd" fill="#4F8A73" d="M302.559,562.07c-3.148,0.578-6.295,1.156-9.445,1.734
	c-2.173-0.103-4.343-0.283-6.514-0.281c-1.659,0.002-3.205-0.203-3.429-2.13c-0.224-1.938,1.249-2.577,2.873-2.847
	c1.911-0.318,3.828-0.604,5.743-0.904c4.052,0.114,8.144,0.387,11.284-2.965c2.167-0.275,5.205-0.995,5.281,2.005
	C308.43,559.777,305.502,561.323,302.559,562.07z"/>
<path fill-rule="evenodd" clip-rule="evenodd" fill="#4F8A73" d="M301.188,229.848c2.588,3.683,6.083,6.18,10.208,7.863
	c2.34,4.029,1.046,5.78-3.457,5.53c-3.405-2.866-6.811-5.734-10.216-8.603c-1.325-3.042-8.399-3.674-5.149-7.872
	C295.145,223.444,298.07,229.111,301.188,229.848z"/>
<path fill-rule="evenodd" clip-rule="evenodd" fill="#61AE84" d="M290.459,365.932c-2.68,0.065-5.358,0.128-8.038,0.193
	c-3.274-0.033-6.549-0.03-9.821-0.11c-1.797-0.042-3.779-0.279-3.865-2.563c-0.09-2.293,1.842-2.653,3.653-2.821
	c3.681-0.341,7.365-0.655,11.052-0.98c2.648-0.002,5.292-0.005,7.935-0.006C293.69,362.122,291.898,364.001,290.459,365.932z"/>
<path fill-rule="evenodd" clip-rule="evenodd" fill="#4F8A73" d="M645.306,412.166c-2.269,0.143-3.854,5.041-6.479,1.391
	c-2.109-2.932,0.307-5.356,2.46-7.231c2.276-1.986,4.807-3.679,7.226-5.5c1.246-0.852,2.422-1.847,3.759-2.518
	c1.41-0.708,3.063-0.915,4.033,0.697c1.036,1.722-0.252,2.765-1.506,3.727C651.229,405.466,646.973,407.515,645.306,412.166z"/>
<path fill-rule="evenodd" clip-rule="evenodd" fill="#61AE84" d="M382.93,100.964c-1.866,1.326,0.134,5.374-3.729,5.289
	c-4.031-3.063-8.138-6.034-12.064-9.229c-1.791-1.456-4.617-3.26-2.686-5.888c2.33-3.174,4.074,0.282,5.898,1.424
	C374.623,95.235,378.123,99.077,382.93,100.964z"/>
<path fill-rule="evenodd" clip-rule="evenodd" fill="#4F8A73" d="M601.14,131.326c-0.521,4.09-1.219,8.191,0.312,12.222
	c0.641,1.69,0.474,3.204-1.475,3.518c-1.76,0.283-2.932-1.085-3.088-2.696c-0.418-4.324-0.588-8.673-0.853-13.013
	c0.068-4.837,0.1-9.675,0.239-14.51c0.036-1.283,0.162-2.852,1.874-3.016c2.074-0.199,2.544,1.387,2.604,3.008
	C600.928,121.667,601.018,126.497,601.14,131.326z"/>
<path fill-rule="evenodd" clip-rule="evenodd" fill="#61AE84" d="M529.212,155.285c-3.617-1.442-2.408-4.74-2.843-7.401
	c3.873-1.024,4.313-5.314,7.072-7.434c2.2-1.69,4.657-3.559,6.842-0.864c2.002,2.469-1.017,3.459-2.439,5.019
	C534.763,147.977,532.064,151.702,529.212,155.285z"/>
<path fill-rule="evenodd" clip-rule="evenodd" fill="#4F8A73" d="M641.122,177.49c-6.034-0.308-3.457-4.428-3.31-7.473
	c4.586-0.474,7.596-3.951,11.365-5.977c1.564-0.843,3.367-1.963,4.704-0.241c1.76,2.265-0.466,3.405-1.942,4.631
	C648.318,171.433,643.206,172.655,641.122,177.49z"/>
<path fill-rule="evenodd" clip-rule="evenodd" fill="#4F8A73" d="M283.828,286.385c3.735,2.778,2.566,4.41-1.264,5.423
	c-4.717-0.967-9.444-1.887-14.145-2.931c-1.719-0.38-3.809-0.962-3.189-3.318c0.586-2.23,2.735-1.762,4.477-1.68
	C274.521,284.104,278.806,287.324,283.828,286.385z"/>
<path fill-rule="evenodd" clip-rule="evenodd" fill="#4F8A73" d="M623.107,591.201c2.203,0.507,4.404,1.017,6.604,1.523
	c1.312,0.993,1.026,2.165,0.376,3.378c-6.675,0.891-13.297,0.771-19.837-0.995c-0.344-2.629,0.283-4.585,3.354-4.854
	C616.582,592.475,619.867,591.617,623.107,591.201z"/>
<path fill-rule="evenodd" clip-rule="evenodd" fill="#61AE84" d="M493.439,46.596c-2.729-0.151-4.329-1.747-5.295-4.145
	c4.202-1.005,5.058-5.265,7.623-7.865c1.422-1.439,2.821-3.271,4.967-1.501c1.799,1.486,0.708,3.302-0.347,4.715
	C498.156,40.794,495.766,43.671,493.439,46.596z"/>
<path fill-rule="evenodd" clip-rule="evenodd" fill="#75A491" d="M428.055,34.899c-0.191,2.74-2.462,4.256-3.744,6.354
	c-0.592-0.054-1.182-0.108-1.775-0.163c1.679-3.737-1.538-6.642-1.705-10.057c-0.124-2.562-0.965-6.046,2.4-6.618
	c4.035-0.685,3.097,3.144,3.547,5.525C427.098,31.617,426.659,33.498,428.055,34.899z"/>
<path fill-rule="evenodd" clip-rule="evenodd" fill="#4F8A73" d="M461.631,30.687c-1.683-0.025-3.282-0.338-4.662-1.386
	c0.091-3.928,0.106-7.859,0.307-11.78c0.086-1.712,0.287-3.815,2.77-3.544c2.078,0.226,1.844,2.142,1.833,3.619
	C461.846,21.959,461.72,26.323,461.631,30.687z"/>
<path fill-rule="evenodd" clip-rule="evenodd" fill="#8FBCB4" d="M335.583,200.39c-0.458,0.43-0.916,0.861-1.374,1.292
	C334.667,201.25,335.125,200.821,335.583,200.39z"/>
<path fill-rule="evenodd" clip-rule="evenodd" fill="#77A593" d="M371.288,593.973c0.515-35.971,0.513-71.957,1.699-107.906
	c1.076-32.571,3.494-65.093,5.873-97.612c1.734-23.721,3.458-47.444,5.912-71.089c2.906-28.015,6.781-55.923,10.908-83.796
	c8.622-58.231,21.586-115.59,34.074-173.052c0.448-2.066,1.077-4.094,2.784-5.997c0,2.333,0.008,4.664,0,6.995
	c-0.093,27.823,0.69,55.686-0.482,83.462c-1.86,44.077-3.425,88.142-3.917,132.259c-0.342,30.65-1.223,61.307-2.558,91.932
	c-1.846,42.304-3.451,84.602-4.111,126.951c-0.5,32.173-2.366,64.323-3.624,96.483C402.328,593.061,386.807,593.515,371.288,593.973
	z"/>
<path fill-rule="evenodd" clip-rule="evenodd" fill="#8FBCB4" d="M550.421,592.49c1.675-21.908,3.39-43.817,5.004-65.73
	c0.613-8.338,1.158-16.687,1.447-25.039c0.806-23.082,2.967-46.054,5.163-69.032c1.653-17.282,2.662-34.625,4.243-51.916
	c2.137-23.399,4.274-46.794,7.459-70.091c3.063-22.412,5.7-44.884,8.351-67.351c2.629-22.302,6.646-44.33,12.402-66.037
	c0.205-0.769,0.785-1.438,1.74-2.105c-0.116,8.757,1.732,17.286,1.77,25.931c0.087,21.635,0.842,43.313-0.212,64.896
	c-1.465,29.999-0.093,60.012-1.439,89.96c-0.731,16.321,0.055,32.649-1.073,48.909c-1.876,26.966-3.308,53.959-6.084,80.874
	c-2.438,23.609-4.805,47.207-8.338,70.682c-1.862,12.383-3.687,24.771-5.531,37.154C567.021,593.225,558.722,592.858,550.421,592.49
	z"/>
<path fill-rule="evenodd" clip-rule="evenodd" fill="#1C1B1D" d="M478.604,763.621c1.465,0.041,2.931,0.087,4.396,0.128
	c0.258,1.065,0.543,2.13,0.771,3.203c0.949,4.451,0.866,9.901,6.598,11.028c6.229,1.223,9.483-3.424,12.456-7.928
	c0.478-0.726,0.774-1.571,1.156-2.361c0.694-0.014,1.386-0.029,2.08-0.045c0.076,2.833-0.183,5.727,0.299,8.489
	c1.434,8.219,10.132,11.771,16.426,6.86c2.51-1.959,3.794-4.734,4.944-7.59c24.911,8.909,30.755,36.712,11.467,54.492
	c-1.003,0.922-1.956,1.787-3.431,1.68c-1.817-3.502-4.648-5.23-8.569-4.359c-4.186,0.93-6,4.182-6.607,8.049
	c-0.403,2.559-0.23,5.207-0.317,7.816c-0.963,0.408-1.925,0.819-2.89,1.23c-0.896-2.004-1.676-4.068-2.718-5.993
	c-1.429-2.639-3.466-4.581-6.741-4.504c-3.382,0.076-5.034,2.375-6.229,5.105c-1.5,3.438-2.888,6.919-2.631,10.791
	c-1.661,0.412-3.322,0.825-4.981,1.24c-0.82-2.159-1.888-4.098-2.136-6.612c-0.396-3.985-2.316-7.804-6.807-8.653
	c-4.658-0.879-7.109,2.557-9.231,5.962c-1.762,2.827-2.612,5.982-2.648,9.337c-2.639,0.942-5.361,0.617-8.069,0.541
	c-0.829-4.049-1.185-8.271-2.603-12.104c-2.255-6.098-8.104-6.862-12.269-1.864c-2.843,3.409-4.32,7.54-5.46,11.783
	c-2.91,2.1-5.969-0.128-8.932,0.311c-0.185-0.848-0.446-1.687-0.547-2.546c-0.582-4.878,0.258-10.834-6.077-12.412
	c-6.243-1.558-8.372,4.148-11.384,7.967c-0.129,0.163-0.171,0.396-0.253,0.6c-14.554-2.053-28.307-17.416-28.437-31.77
	c-0.171-18.647,10.033-34.498,25.625-39.822c0.682,2.517,1.172,5.102,2.092,7.524c1.082,2.854,3.156,4.73,6.463,4.544
	c3.344-0.191,5.212-2.419,5.833-5.329c0.944-4.424,3.254-8.635,2.399-13.381c1.875-1.911,4.652-1.271,6.801-2.407
	c0.586,3.211,1.038,6.457,1.799,9.631c0.873,3.644,2.857,6.599,6.937,6.826c3.866,0.212,5.767-2.604,7.108-5.774
	c1.53-3.616,2.991-7.261,4.481-10.891c1.75,0.016,3.501,0.031,5.251,0.045c-0.092,4.139-0.772,8.354,1.516,12.198
	c1.575,2.645,3.761,4.354,6.983,3.933c3.302-0.431,4.932-2.664,5.305-5.803C478.185,769.744,478.352,766.677,478.604,763.621z"/>
<path fill-rule="evenodd" clip-rule="evenodd" fill="#8FBCB4" d="M592.752,148.646c-0.703,10.222-4.923,19.569-7.54,29.296
	c-6.071,22.565-9.742,45.495-12.439,68.656c-2.208,18.961-5.151,37.839-7.421,56.794c-2.164,18.092-3.987,36.226-5.761,54.361
	c-2.222,22.715-4.259,45.45-6.339,68.18c-1,10.935-2.111,21.863-2.829,32.818c-1.925,29.383-3.39,58.799-5.594,88.16
	c-1.135,15.132-2.354,30.243-2.721,45.412c-5.663,0.03-11.381,1.121-16.927-0.922c0.458-37.255,0.505-74.521,1.521-111.761
	c0.661-24.195,1.436-48.412,2.656-72.583c2.163-42.775,3.726-85.727,13.146-127.708c7.945-35.41,15.771-70.994,32.733-103.593
	c4.978-9.565,10.771-18.66,17.486-27.134L592.752,148.646z"/>
<path fill-rule="evenodd" clip-rule="evenodd" fill="#8FBCB4" d="M613.605,590.253c-3.071,0.27-3.698,2.226-3.354,4.854
	c-8.631,1.102-17.092-1.606-25.697-1.166c2.418-16.974,5.008-33.926,7.218-50.927c2.265-17.438,4.587-34.884,6.124-52.393
	c2.524-28.707,4.536-57.461,6.528-86.212c0.534-7.699,0.208-15.457,0.303-23.189c0.454-37.518,0.228-75.062,1.646-112.544
	c0.792-20.973,0.776-41.914,0.681-62.86c-0.062-13.399-1.579-26.791-2.401-40.189c-0.128-2.109-0.018-4.23,0.564-6.46
	c6.82,13.103,12.733,26.45,15.316,41.036c3.419,19.325,5.334,38.797,5.342,58.432c0.02,59.645,0.159,119.292-0.072,178.935
	c-0.091,23.336-2.493,46.562-4.98,69.76c-1.851,17.271-3.323,34.583-4.969,51.886c-1.27,1.604-2.074,3.252-0.558,5.153
	C614.73,572.998,614.168,581.626,613.605,590.253z"/>
<path fill-rule="evenodd" clip-rule="evenodd" fill="#8FBCB4" d="M332.874,595.276c-1.351-30.776-2.385-61.574-4.174-92.328
	c-0.973-16.691-1.565-33.405-2.65-50.074c-2.629-40.294-2.509-80.614-2.313-120.939c0.146-29.311,2.418-58.419,10.521-86.796
	c2.466-8.635,5.915-16.867,10.083-25c-0.041,16.224,5.134,31.887,4.107,48.102c-0.95-0.49-1.954-0.9-2.845-1.482
	c-1.506-0.983-2.654-3.62-4.858-1.625c-2.277,2.063-0.631,3.997,0.989,5.548c3.744,3.588,6.895,8.006,12.42,9.196
	c-0.966,16.003-3.547,31.916-2.692,48.018c-2.977,0.522-6.703-5.812-8.498-0.271c-1.274,3.928,4.03,5.117,7.261,6.522
	c0.375,0.163,0.852,0.096,1.28,0.134c-1.86,21.896-1.206,43.842-1.416,65.774c-0.021,2.362-0.802,4.716-1.232,7.075
	c-2.503-0.735-4.998-1.502-7.513-2.194c-2.014-0.555-4.243-0.694-4.986,1.643c-0.678,2.14,1.398,2.952,3.006,3.589
	c3.04,1.203,6.111,2.355,9.465,2.278c0.26,33.232-2.361,66.386-3.24,99.588c-0.647,24.461,2.041,48.771,0.733,73.163
	c-0.173,3.221,0.822,6.502,1.274,9.752C342.69,595.059,337.781,595.167,332.874,595.276z"/>
<path fill-rule="evenodd" clip-rule="evenodd" fill="#8FBCB4" d="M302.559,562.07c2.943-0.747,5.871-2.293,5.792-5.388
	c-0.077-3-3.115-2.28-5.281-2.005c-1.423-8.486-0.987-17.105-1.614-25.652c-1.268-17.346-0.629-34.835-1.933-52.177
	c-1.575-20.957-1.056-41.899-0.751-62.822c0.479-33.019,1.246-66.071,3.966-98.988c2.08-25.187,4.243-50.582,16.934-73.371
	c3.612-6.482,6.71-13.342,11.925-18.832l0.053,0.045c-1.417,10.082-6.144,19.187-8.399,29.079
	c-4.621,20.256-6.771,40.703-7.725,61.417c-0.946,20.506-1.329,41.008-0.942,61.507c0.561,29.743,1.208,59.499,2.678,89.208
	c1.243,25.057,2.984,50.088,3.875,75.168c0.665,18.702,1.712,37.389,2.591,56.083c-6.543,1.349-13.161,1.407-19.797,1.172
	C303.988,585.012,301.726,573.604,302.559,562.07z"/>
<path fill-rule="evenodd" clip-rule="evenodd" fill="#F79770" d="M554.579,762.354c-9.593,0.018-18.635-1.371-23.666-11.009
	c-4.092-7.837,0.875-18.433,9.563-19.28c9.878-0.968,19.82,0.082,29.044,4.137c5.409,2.375,9.989,6.164,9.897,12.815
	c-0.093,6.7-5.609,8.887-10.572,11.29C564.332,762.492,559.481,762.579,554.579,762.354z"/>
<path fill-rule="evenodd" clip-rule="evenodd" fill="#F79770" d="M379.375,746.358c0.008,6.905-7.251,14.075-17.08,15.499
	c-7.202,1.044-14.543-0.049-20.896-4.058c-7.001-4.416-7.623-11.284-1.944-17.249c8.103-8.502,25.014-10.937,34.021-5.147
	C377.609,738.062,379.652,741.494,379.375,746.358z"/>
<path fill-rule="evenodd" clip-rule="evenodd" fill="#1C1B1D" d="M377.722,698.581c0.139-5.058-0.429-10.203,1.171-15.103
	c1.481-4.536,3.657-8.747,9.143-9.296c5.029-0.501,8.48,2.412,10.723,6.422c6.555,11.72,6.258,24.063,2.236,36.427
	c-1.365,4.184-4.589,7.059-9.367,7.224c-5.192,0.177-8.761-2.53-11.16-6.909C377.24,711.445,377.869,704.949,377.722,698.581z
	 M389.446,706.854c3.606-0.504,5.446-2.759,5.287-6.269c-0.146-3.232-2.078-5.503-5.464-5.32c-3.625,0.195-5.503,2.737-5.385,6.229
	C383.994,704.767,386.04,706.61,389.446,706.854z"/>
<path fill-rule="evenodd" clip-rule="evenodd" fill="#1C1B1D" d="M553.954,699.167c-0.27,6.642-0.745,13.208-5.035,18.796
	c-5.204,6.771-13.566,6.525-17.09-1.095c-5.112-11.058-3.909-22.431,1.069-33.171c2.639-5.694,12.588-5.095,17.037,0.479
	C552.854,687.834,554.057,692.326,553.954,699.167z M541.337,689.293c-4.17,0.721-5.936,3.478-5.833,7.428
	c0.096,3.649,2.367,5.832,5.912,5.611c3.757-0.234,5.991-2.817,5.999-6.587C547.423,691.963,545.301,689.682,541.337,689.293z"/>
<path fill-rule="evenodd" clip-rule="evenodd" fill="#1C1B1D" d="M468.621,738.749c-9.4-0.016-16.712-4.123-18.944-10.594
	c-2.332-6.759,0.494-15.418,6.852-20.8c3.614-3.057,7.747-4.232,12.328-2.684c2.976,1.005,4.914,3.103,4.611,6.453
	c-0.314,3.437-2.515,5.204-5.855,4.888c-5.151-0.493-6.944,2.864-6.98,6.756c-0.039,4.15,3.997,3.944,6.976,4.389
	c1.079,0.159,2.204,0.031,3.305-0.002c4.057-0.122,8.06,0.501,8.197,5.47c0.134,4.888-3.813,5.875-7.843,6.116
	C470.389,738.793,469.502,738.749,468.621,738.749z"/>
<path fill-rule="evenodd" clip-rule="evenodd" fill="#1C1B1D" d="M534.759,646.784c0.187,0-1.137,0.051-2.456-0.012
	c-3.128-0.151-5.72-1.215-6.172-4.719c-0.438-3.413,1.562-5.749,4.587-6.308c10.415-1.931,20.179,0.128,28.764,6.358
	c3.039,2.206,4.606,5.737,1.747,9.214c-2.689,3.268-5.769,2.088-8.747-0.075C547.662,647.746,542.14,646.551,534.759,646.784z"/>
<path fill-rule="evenodd" clip-rule="evenodd" fill="#1C1B1D" d="M384.853,634.59c3.692,0.178,7.55-0.604,10.914,1.565
	c3.272,2.104,5.173,5.088,3.404,8.918c-1.616,3.504-4.601,3.071-7.904,2.114c-6.012-1.74-12.123-1.563-18.018,0.761
	c-3.209,1.263-6.204,1.475-7.939-1.978c-1.793-3.571-0.114-6.438,2.941-8.42C373.333,634.248,379.174,634.779,384.853,634.59z"/>
<path fill-rule="evenodd" clip-rule="evenodd" fill="#8FBCB4" d="M506.767,591.341c0.932-8.451,1.863-16.899,2.798-25.352
	c4.113-3.007,2.164-7.906,3.671-11.717c1.72-4.351-0.356-9.634,3.34-13.479c1.052,16.838,0.277,33.688,0.333,50.534
	C513.526,591.333,510.146,591.337,506.767,591.341z"/>
<path fill-rule="evenodd" clip-rule="evenodd" fill="#FFFFFF" d="M527.729,775.406c-1.15,2.855-2.435,5.631-4.944,7.59
	c-6.294,4.911-14.992,1.358-16.426-6.86c-0.481-2.763-0.223-5.656-0.299-8.491C513.534,769.531,521.229,770.798,527.729,775.406z"/>
<path fill-rule="evenodd" clip-rule="evenodd" fill="#FFFFFF" d="M444.858,849.344c1.14-4.243,2.617-8.374,5.46-11.783
	c4.165-4.998,10.014-4.233,12.269,1.864c1.417,3.832,1.773,8.055,2.603,12.104C458.305,851.798,451.415,852.126,444.858,849.344z"/>
<path fill-rule="evenodd" clip-rule="evenodd" fill="#FFFFFF" d="M473.259,850.987c0.036-3.354,0.887-6.51,2.648-9.337
	c2.122-3.405,4.573-6.841,9.231-5.962c4.49,0.85,6.411,4.668,6.807,8.653c0.248,2.515,1.315,4.453,2.136,6.612
	C487.141,850.801,480.205,854.316,473.259,850.987z"/>
<path fill-rule="evenodd" clip-rule="evenodd" fill="#FFFFFF" d="M458.765,762.414c-1.49,3.63-2.951,7.274-4.481,10.891
	c-1.341,3.171-3.242,5.986-7.108,5.774c-4.08-0.228-6.063-3.183-6.937-6.826c-0.761-3.174-1.213-6.42-1.799-9.631
	C445.218,762.556,451.991,762.484,458.765,762.414z"/>
<path fill-rule="evenodd" clip-rule="evenodd" fill="#FFFFFF" d="M431.64,765.029c0.855,4.746-1.455,8.957-2.399,13.381
	c-0.622,2.91-2.489,5.138-5.833,5.329c-3.307,0.187-5.381-1.689-6.463-4.544c-0.92-2.423-1.41-5.008-2.092-7.524
	C419.233,766.378,425.456,765.753,431.64,765.029z"/>
<path fill-rule="evenodd" clip-rule="evenodd" fill="#FFFFFF" d="M503.98,767.691c-0.382,0.79-0.679,1.636-1.156,2.361
	c-2.973,4.504-6.227,9.15-12.456,7.928c-5.731-1.127-5.648-6.577-6.598-11.028c-0.229-1.073-0.514-2.138-0.771-3.203
	C490.005,765.006,497.299,764.715,503.98,767.691z"/>
<path fill-rule="evenodd" clip-rule="evenodd" fill="#FFFFFF" d="M499.063,849.714c-0.257-3.872,1.131-7.354,2.631-10.791
	c1.195-2.73,2.848-5.029,6.229-5.105c3.275-0.077,5.313,1.865,6.741,4.504c1.042,1.925,1.821,3.989,2.718,5.993
	C511.864,848.107,505.76,849.916,499.063,849.714z"/>
<path fill-rule="evenodd" clip-rule="evenodd" fill="#FFFFFF" d="M478.604,763.621c-0.252,3.056-0.419,6.123-0.783,9.166
	c-0.373,3.139-2.003,5.372-5.305,5.803c-3.223,0.421-5.408-1.288-6.983-3.933c-2.289-3.844-1.608-8.06-1.516-12.198
	C468.889,762.732,473.877,761.527,478.604,763.621z"/>
<path fill-rule="evenodd" clip-rule="evenodd" fill="#FFFFFF" d="M417.664,843.263c0.083-0.203,0.124-0.437,0.253-0.6
	c3.012-3.818,5.142-9.524,11.384-7.967c6.335,1.578,5.495,7.534,6.077,12.412c0.101,0.859,0.362,1.698,0.547,2.546
	C429.634,848.102,422.902,847.816,417.664,843.263z"/>
<path fill-rule="evenodd" clip-rule="evenodd" fill="#FFFFFF" d="M520.271,843.084c0.087-2.609-0.086-5.258,0.317-7.816
	c0.607-3.867,2.422-7.119,6.607-8.049c3.921-0.871,6.752,0.857,8.569,4.359C532.361,837.785,526.511,840.696,520.271,843.084z"/>
<path fill-rule="evenodd" clip-rule="evenodd" fill="#8FBCB4" d="M533.125,233.738c-0.004-4.079-0.01-8.156-0.014-12.235
	c3.128-6.994,6.087-14.069,9.42-20.961c6.753-13.969,15.011-26.938,26.202-37.851c0.894-0.872,1.67-2.144,4.35-1.282
	c-12.882,20.867-20.521,43.679-26.966,66.949C541.007,228.268,537.985,233.222,533.125,233.738z"/>
<path fill-rule="evenodd" clip-rule="evenodd" fill="#8FBCB4" d="M533.003,277.193c-2.155-2.244-1.56-5.168-1.056-7.527
	c2.102-9.832,0.686-19.736,1.147-29.588c3.414-1.415,6.827-2.829,10.238-4.243C540.51,249.776,537.138,263.58,533.003,277.193z"/>
<path fill-rule="evenodd" clip-rule="evenodd" fill="#4F8A73" d="M543.333,235.835c-3.411,1.414-6.824,2.828-10.238,4.243
	c0.011-2.115,0.019-4.231,0.03-6.344c4.86-0.512,7.882-5.467,12.992-5.376C547.078,231.555,545.378,233.759,543.333,235.835z"/>
<path fill-rule="evenodd" clip-rule="evenodd" fill="#8FBCB4" d="M592.725,148.623c0.189-0.575,0.38-1.151,0.568-1.726
	c0.161,0.125,0.474,0.351,0.464,0.362c-0.316,0.475-0.664,0.93-1.005,1.387L592.725,148.623z"/>
<path fill-rule="evenodd" clip-rule="evenodd" fill="#8FBCB4" d="M574.158,157.895c-0.179,0.215-0.359,0.428-0.539,0.644
	c0.024-0.13,0.005-0.313,0.083-0.38c0.132-0.113,0.326-0.153,0.495-0.224L574.158,157.895z"/>
<path fill-rule="evenodd" clip-rule="evenodd" fill="#8FBCB4" d="M574.197,157.934c0.186-0.191,0.37-0.38,0.557-0.572
	c-0.033,0.123-0.027,0.298-0.107,0.356c-0.134,0.099-0.323,0.123-0.488,0.177L574.197,157.934z"/>
<path fill-rule="evenodd" clip-rule="evenodd" fill="#4F8A73" d="M354.153,279.877c-5.525-1.19-8.677-5.607-12.42-9.196
	c-1.62-1.551-3.266-3.484-0.989-5.548c2.204-1.995,3.352,0.641,4.858,1.625c0.891,0.583,1.896,0.993,2.845,1.482
	c1.189,2.502,2.415,4.966,5.718,5.092C354.161,275.514,354.157,277.696,354.153,279.877z"/>
<path fill-rule="evenodd" clip-rule="evenodd" fill="#4F8A73" d="M348.829,412.445c-3.354,0.077-6.425-1.075-9.465-2.278
	c-1.608-0.637-3.685-1.449-3.006-3.589c0.743-2.337,2.973-2.197,4.986-1.643c2.515,0.692,5.01,1.458,7.513,2.194
	C349.566,408.904,351.145,410.686,348.829,412.445z"/>
<path fill-rule="evenodd" clip-rule="evenodd" fill="#4F8A73" d="M351.505,334.28c-0.429-0.038-0.905,0.029-1.28-0.134
	c-3.23-1.405-8.535-2.594-7.261-6.522c1.795-5.541,5.521,0.793,8.498,0.271C351.475,330.026,351.491,332.153,351.505,334.28z"/>
<path fill-rule="evenodd" clip-rule="evenodd" fill="#8FBCB4" d="M331.597,222.835c0.189-0.588,0.379-1.176,0.568-1.764
	c0.167,0.127,0.49,0.352,0.482,0.367c-0.315,0.493-0.659,0.965-0.999,1.442C331.65,222.88,331.597,222.835,331.597,222.835z"/>
<path fill-rule="evenodd" clip-rule="evenodd" fill="#D0EADF" d="M613.605,590.253c0.563-8.627,1.125-17.255,1.689-25.884
	c2.858,0.123,5.719,0.245,8.58,0.371c-1.22,8.793-0.425,17.645-0.766,26.461C619.867,591.617,616.582,592.475,613.605,590.253z"/>
<path fill-rule="evenodd" clip-rule="evenodd" fill="#D0EADF" d="M389.446,706.854c-3.406-0.244-5.452-2.088-5.563-5.36
	c-0.118-3.491,1.76-6.033,5.385-6.229c3.386-0.183,5.318,2.088,5.464,5.32C394.892,704.096,393.052,706.351,389.446,706.854z"/>
<path fill-rule="evenodd" clip-rule="evenodd" fill="#D0EADF" d="M541.337,689.293c3.964,0.389,6.086,2.67,6.078,6.452
	c-0.008,3.77-2.242,6.353-5.999,6.587c-3.545,0.221-5.816-1.962-5.912-5.611C535.401,692.771,537.167,690.014,541.337,689.293z"/>
</svg>
