<?xml version="1.0" encoding="utf-8"?>
<!-- Generator: Adobe Illustrator 16.0.0, SVG Export Plug-In . SVG Version: 6.00 Build 0)  -->
<!DOCTYPE svg PUBLIC "-//W3C//DTD SVG 1.1//EN" "http://www.w3.org/Graphics/SVG/1.1/DTD/svg11.dtd">
<svg version="1.1" id="Layer_1" xmlns="http://www.w3.org/2000/svg" xmlns:xlink="http://www.w3.org/1999/xlink" x="0px" y="0px"
	 width="928px" height="928px" viewBox="0 0 928 928" enable-background="new 0 0 928 928" xml:space="preserve">
<path fill-rule="evenodd" clip-rule="evenodd" fill="#F9B6AA" d="M629.392,530.494c15.886,0.474,31.767,1.007,47.651,1.382
	c4.502,0.105,7.036,2.075,7.808,6.506c3.125,17.99,6.664,35.895,8.107,54.166c2.638,33.416,0.394,66.906,1.861,100.313
	c1.886,43.008,0.427,86.023-12.215,127.092c-10.955,35.599-32.379,63.002-73.163,70.688c-31.255,5.894-62.422,10.688-94.167,12.596
	c-21.772,1.311-43.622,3.381-65.322,2.544c-47.317-1.83-94.733-4.529-139.61-22.12c-26.415-10.354-49.924-24.212-62.278-51.815
	c-7.405-16.547-8.865-34.294-12.095-51.697c-8.087-43.586-5.082-87.484-3.717-131.365c0.57-18.315,1.468-36.577,3.633-54.755
	c1.906-16.013,4.218-31.979,6.592-47.931c0.71-4.776,3.917-7.422,8.884-7.909c23.077-2.27,46.269-2.159,69.381-3.469
	c40.197-2.285,80.404-0.795,120.599-1.482c9.442,0.061,18.882,0.119,28.321,0.176c11.84,0.008,23.681,0.012,35.521,0.017
	c3.152,0.35,5.208,2.729,7.7,4.249c31.582,19.267,65.916,29.014,102.827,29.643c8.839,0.152,17.145-2.055,23.677-8.61
	c1.923-1.931,3.111-3.312,0.938-6.706C636.01,545.264,632.964,537.711,629.392,530.494z M561.43,627.618
	c-8.025,0.669-15.942,1.863-23.491,4.827c-26.933,10.581-27.329,38.557-11.04,52.104c10.282,8.549,21.938,11.879,34.844,12.323
	c4.554-0.43,9.175-0.495,13.641-1.36c10.433-2.032,19.506-7.121,25.326-15.938c12.101-18.322,0.64-45.06-20.887-49.536
	C573.785,628.784,567.565,628.399,561.43,627.618z M359.04,697.145c11.432,3.313,22.553,1.029,33.339-2.575
	c21.884-7.318,28.605-43.271,10.81-58.256c-11.662-9.82-25.29-12.764-40.199-8.756c-10.471,0.547-20.095,3.616-28.599,9.837
	c-12.998,9.508-17.29,32.723-7.646,44.059C335.076,691.24,345.538,697.556,359.04,697.145z M428.295,762.964
	c13.154,20.143,56.421,27.026,76.997,2.541c12.267-9.225,17.926-21.476,18.069-36.858c0.105-11.742-0.808-13.611-12.785-13.266
	c-30.413,0.879-60.822,2.026-91.224,3.273c-9.481,0.388-12.708,4.254-10.569,13.774
	C411.558,744.778,418.042,755.182,428.295,762.964z M351.009,718.359c-1.882,0-3.95-0.512-5.615,0.089
	c-6.215,2.253-13.368,3.611-15.352,11.415c-1.569,6.164,0.722,11.059,5.958,14.569c10.777,7.225,29.82,3.927,37.949-6.553
	c5.291-6.824,3.451-13.587-4.814-16.47C363.315,719.379,357.251,718.146,351.009,718.359z M592.473,734.47
	c1.077,0,2.151-0.017,3.227,0.005c5.467,0.104,10.604-1.202,12.533-6.763c2.086-6.025-0.649-10.875-5.682-14.597
	c-6.833-5.053-25.21-3.671-31.033,2.465c-3.513,3.705-3.784,7.503-0.303,11.394C576.927,733.358,584.445,734.644,592.473,734.47z"/>
<path fill-rule="evenodd" clip-rule="evenodd" fill="#7E9D98" d="M443.168,308.172c-4.155-5.063-9.027-5.831-15.119-3.421
	c-13.453,5.323-27.446,8.874-40.421,15.923c-16.011,8.696-34.27,10.944-52.286,12.583c-40.652,3.7-81.344,4.962-121.477-4.171
	c-49.165-11.189-93.325-32.73-131.261-66.343c-5.708-5.061-5.121-9.035,2.611-12.675c13.757-6.475,28.699-8.814,43.499-11.615
	c5.955-1.13,12.257-0.313,17.893-3.181c29.036,18.438,59.763,33.063,93.251,41.511c23.583,5.948,47.685,8.114,71.813,10.218
	c13.538,1.183,27.329-1.642,40.673,2.928c5.412,1.854,9.998-2.904,15.528-2.678c28.089,1.14,55.11-4.729,81.684-13.187
	c24.755,7.231,45.594,21.142,64.794,37.885c11.494,10.023,21.629,21.681,35.229,29.185c6.225,3.431,8.009,2.38,8.818-4.938
	c0.513-4.621-1.995-9.734,2.095-13.809c58.099,19.092,114.593,41.604,164.427,78.057c12.262,8.97,22.854,19.586,31.332,32.416
	c2.831,4.287,4.663,8.631,2.648,12.617c-1.903,3.777-7.258,4.703-11.354,4.698c-46.874-0.065-93.025-4.162-137.002-22.607
	c-35.972-15.083-68.062-36.07-97.957-60.787c-12.266-10.141-24.692-20.094-37.111-30.055c-0.966-0.774-2.433-0.926-3.668-1.366
	C463.959,324.508,453.15,316.774,443.168,308.172z M293.295,314.538c-6.938-4.114-14.675-4.323-22.279-4.777
	c-17.434-1.043-34.788-2.774-51.963-5.926c-31.461-5.775-61.016-17.416-90.344-29.725c-2.309-0.972-5.446-3.463-7.04-0.25
	c-1.419,2.858,2.521,3.646,4.37,4.76c16.013,9.641,33.457,16.168,50.883,22.611c22.055,8.155,45.021,12.982,68.371,14.615
	C261.134,316.952,277.222,318.211,293.295,314.538z M501.96,342.938c1.137,4.309,4.43,6.263,7.169,8.59
	c5.111,4.344,10.482,8.393,15.469,12.874c24.554,22.063,51.156,41.04,81.56,54.274c9.136,3.979,18.531,7.234,29.262,6.229
	c-37.667-19.767-74.644-40.282-107.833-66.911c-7.09-5.691-15.221-10.091-22.92-15.012
	C504.147,342.652,503.234,342.938,501.96,342.938z M653.661,428.171c-0.485-1.479-2.156-2.414-3.945-2.659
	c-2.159-0.298-3.59,1.043-3.498,3.25c0.108,2.592,2.243,2.527,4.1,2.515C651.98,431.269,653.529,430.96,653.661,428.171z"/>
<path fill-rule="evenodd" clip-rule="evenodd" fill="#294840" d="M527.4,150.82c32.301-44.552,70.996-81.944,121.108-105.975
	c30.207-14.483,61.86-23.756,95.956-22.013c8.073,0.411,16.19-0.083,24.282,0.09c16.808,0.359,17.924,4.863,14.949,19.803
	c-2.122,10.683-8.771,19.587-15.887,27.849c-37.962,44.069-82.757,80.31-130.09,113.651c-3.307,2.329-6.598,4.68-9.896,7.022
	c-1.409,0.709-2.967,1.221-4.21,2.151c-23.616,17.676-49.235,31.771-76.951,41.768c-13.423,4.839-26.713,9.689-38.679,17.604
	c-6.968-0.412-13.021-3.315-20.656-6.402c37.98-21.839,67.134-51.442,96.547-80.73c2.475-2.464,4.698-5.205,6.838-7.972
	c2.63-3.399,3.774-7.309,1.769-11.331c-1.903-3.827-5.866-3.229-9.276-3.33c-16.606-0.496-32.585,3.149-48.508,7.307
	C532.444,150.899,530.012,153.787,527.4,150.82z M681.019,47.349c-14.437,0.755-27.134,6.487-39.279,13.425
	c-30.142,17.215-58.547,36.606-78.867,65.644c-1.116,1.596-3.914,3.418-1.777,5.451c2.821,2.683,4.188-0.959,5.614-2.44
	c24.705-25.668,52.988-46.516,84.33-63.377C661.367,60.494,672.013,55.374,681.019,47.349z M708.108,32.539
	c-8.197-0.13-15.56,3.346-15.473,7.061c0.082,3.603,2.814,4.703,5.556,4.011c5.484-1.385,12.569-0.898,14.852-7.452
	C714.15,32.981,710.042,32.634,708.108,32.539z"/>
<path fill-rule="evenodd" clip-rule="evenodd" fill="#85A596" d="M527.4,150.82c2.611,2.966,5.044,0.079,7.297-0.507
	c15.923-4.157,31.901-7.802,48.508-7.307c3.41,0.101,7.373-0.498,9.276,3.33c2.006,4.022,0.861,7.932-1.769,11.331
	c-2.14,2.768-4.363,5.508-6.838,7.972c-29.413,29.288-58.566,58.891-96.547,80.73c7.635,3.087,13.688,5.991,20.656,6.402
	c7.203,5.893,16.148,8.941,23.114,15.555c7.804,7.417,11.598,17.173,17.819,25.422c3.327,9.761,6.309,19.661,11.574,28.639
	c-4.09,4.073-1.582,9.186-2.095,13.807c-0.81,7.319-2.594,8.37-8.818,4.938c-13.6-7.503-23.734-19.161-35.229-29.185
	c-19.2-16.743-40.039-30.653-64.793-37.885c-5.895-2.491-13.04-3.681-17.353-7.823c-4.836-4.64-9.492-5.287-15.192-4.962
	c-11.895,0.675-23.748-0.58-35.412-2.286c-43.544-6.366-83.365-21.181-115.108-53.243c-2.146-5.111-5.202-9.516-9.815-12.721
	c-0.433-5.772-0.225-9.158,7.908-10.215c32.676-4.256,64.935-3.034,97.111,3.58c2.072,0.425,4.278,0.204,6.42,0.286
	c2.921,1.241,5.745,2.839,8.777,3.664c19.977,5.424,39.719,11.47,58.386,20.594c1.62,0.791,3.512,2.404,5.082,0.421
	c4.751-5.994,11.471-10.465,14.118-18.094c9.478-3.111,15.745-10.822,23.5-16.397c9.829-4.546,19.545-9.282,27.771-16.519
	C513.665,158.759,520.611,154.965,527.4,150.82z M551.577,150.741c-1.385,0.308-3.221,0.661-5.036,1.125
	c-19.731,5.042-37.705,14.288-55.603,23.604c-6.406,3.334-12.379,7.607-18.185,11.941c-2.14,1.596-4.751,4.573-2.097,7.581
	c2.435,2.76,5.228,1.262,7.876-0.63c16.346-11.689,34.769-19.342,53.087-27.213c7.634-3.28,16.021-4.881,22.775-10.141
	c1.485-1.157,3.656-2.32,3.192-4.275C556.907,149.871,554.039,151.238,551.577,150.741z M306.885,186.457
	c-2.151,0-4.301-0.045-6.449,0.012c-3.176,0.086-7.315-0.471-7.482,3.986c-0.169,4.554,3.951,3.996,7.143,4.347
	c6.894,0.755,13.824,1.401,20.629,2.686c11.027,2.077,21.923,4.861,32.97,6.811c2.64,0.464,7.294,2.099,8.148-2.33
	c0.709-3.678-3.165-5.575-6.195-6.356C339.607,191.479,323.599,187.046,306.885,186.457z M381.576,205.186
	c-0.465-2.596-2.031-4.051-4.866-3.971c-2.398,0.067-4.318,1.202-4.413,3.666c-0.113,2.993,1.709,5.296,4.694,5.302
	C379.579,210.187,380.979,207.932,381.576,205.186z"/>
<path fill-rule="evenodd" clip-rule="evenodd" fill="#7E9D98" d="M548.918,293.749c-6.222-8.249-10.016-18.005-17.819-25.422
	c-6.966-6.614-15.911-9.662-23.114-15.555c11.966-7.915,25.256-12.764,38.679-17.604c27.716-9.997,53.335-24.092,76.951-41.768
	c1.243-0.931,2.801-1.442,4.21-2.151c7.236,0.879,12.757-3.744,18.951-6.061c40.619-15.199,79.949-33.885,121.664-46.064
	c22.498-6.566,45.444-11.773,69.266-10.451c4.048,0.226,8.577-0.584,10.561,3.991c1.929,4.445-1.125,7.354-4.056,10.458
	c-23.845,25.239-53.258,43.04-82.387,61.013c-58.787,36.282-120.414,66.488-187.665,83.952
	C565.817,290.253,557.335,291.876,548.918,293.749z M797.838,148.163c-2.222-2.661-3.952-2.106-5.368-1.822
	c-18.169,3.638-36.32,7.316-54.049,12.855c-42.002,13.119-82.262,30.398-121.472,50.248c-1.449,0.735-3.537,1.377-2.743,3.241
	c1.059,2.493,3.222,0.966,4.832,0.31c11.95-4.871,23.841-9.884,35.806-14.721c36.922-14.925,74.21-28.818,112.439-40.094
	C777.388,155.198,787.322,151.627,797.838,148.163z M822.931,140.513c-6.932-1.829-11.438,1.219-16.233,2.537
	c-1.546,0.423-3.354,1.276-2.673,3.279c0.648,1.916,2.73,1.599,4.181,1.226C813.043,146.31,817.985,145.17,822.931,140.513z"/>
<path fill-rule="evenodd" clip-rule="evenodd" fill="#294840" d="M266.493,205.749c31.743,32.062,71.564,46.877,115.108,53.243
	c11.664,1.707,23.517,2.961,35.412,2.286c5.7-0.325,10.356,0.322,15.192,4.962c4.313,4.142,11.458,5.333,17.353,7.823
	c-26.574,8.458-53.596,14.326-81.685,13.187c-5.531-0.226-10.117,4.532-15.528,2.678c-13.344-4.57-27.135-1.745-40.673-2.928
	c-24.128-2.104-48.23-4.27-71.813-10.218c-33.489-8.448-64.216-23.072-93.251-41.511c-4.125-2.952-8.359-5.76-12.348-8.886
	c-5.645-4.421-5.443-8.655,0.598-12.625c5.615-3.688,11.746-6.284,18.346-7.688c0.01,1.08,0.021,2.159,0.033,3.238
	c-1.66,0.899-3.36,1.731-4.968,2.72c-2.817,1.724-6.096,3.722-4.415,7.542c1.847,4.186,5.258,2.056,8.329,1.058
	c5.628-1.825,11.255-3.815,17.035-4.986C201.305,209.143,233.833,206.749,266.493,205.749z"/>
<path fill-rule="evenodd" clip-rule="evenodd" fill="#294840" d="M454.479,193.264c-2.647,7.628-9.367,12.1-14.118,18.094
	c-1.57,1.983-3.462,0.37-5.082-0.421c-18.667-9.124-38.41-15.17-58.386-20.594c-3.033-0.825-5.856-2.423-8.777-3.664
	c-25.581-43.482-43.632-90.191-59.013-138.031c-1.481-4.606-2.466-9.375-3.599-14.088c-1.607-6.677,0.752-9.713,7.464-8.982
	c7.573,0.826,14.627,3.565,21.393,7.017c30.968,15.793,53.807,40.446,73.021,68.571C426.948,129.803,441.386,161.23,454.479,193.264
	z M395.874,104.015c-0.146-1.587,0.029-2.729-0.372-3.605c-7.201-15.728-18.918-28.01-30.861-40.091
	c-1.266-1.28-3.366-2.364-4.984-0.389c-1.772,2.164-0.196,4.098,1.14,5.759c9.122,11.333,18.253,22.66,27.5,33.891
	C389.956,101.596,391.795,103.726,395.874,104.015z M410.297,121.369c-0.856-3.392-2.983-5.371-6.366-5.164
	c-2.807,0.171-4.51,2.231-4.032,5.005c0.544,3.157,2.511,5.587,6.107,5.141C408.674,126.019,410.168,124.078,410.297,121.369z"/>
<path fill-rule="evenodd" clip-rule="evenodd" fill="#7E9D98" d="M441.506,444.431c-12.921,3.443-25.799,7.059-38.772,10.294
	c-40.915,10.204-82.145,18.108-124.643,15.315c-13.986-0.919-27.885-2.779-41.216-7.388c-3.831-1.323-8.729-1.614-9.33-7.434
	c-0.591-5.727,3.158-7.994,7.245-10.432C272.98,422,314.537,408.66,358.005,400.593c27.652-5.13,55.535-7.193,83.633-6.572
	c10.918,0.983,20.209,6.212,29.55,11.309c3.411,3.866,1.007,7.587-0.276,11.338c-5.605,5.022-8.635,12.189-14.537,17.046
	C451.628,437.618,445.096,438.988,441.506,444.431z M414.709,406.88c-8.561-1.928-16.916-0.901-25.428-0.18
	c-32.896,2.781-64.907,9.646-95.997,20.459c-13.96,4.854-27.306,11.478-40.931,17.296c-1.484,0.635-3.38,1.226-2.832,3.239
	c0.568,2.086,2.593,1.56,4.078,1.183c1.548-0.397,2.979-1.238,4.478-1.842c28.062-11.28,57.099-19.19,86.623-25.571
	C367.985,416.427,391.783,413.97,414.709,406.88z"/>
<path fill-rule="evenodd" clip-rule="evenodd" fill="#7E9D98" d="M629.392,530.494c3.572,7.217,6.618,14.77,10.934,21.51
	c2.174,3.395,0.985,4.775-0.938,6.706c-6.532,6.556-14.838,8.763-23.677,8.61c-36.911-0.629-71.245-10.376-102.827-29.643
	c-2.492-1.52-4.548-3.899-7.702-4.249c-12.354-10.233-23.275-21.923-34.171-33.636c-3.565-7.944-10.809-13.207-14.988-20.775
	c-3.7-6.702-2.273-12.165,4.412-15.808c3.404-1.855,7.734,0.548,10.542-2.865c16.904,0.93,33.877,0.995,50.541,4.677
	C564.918,474.61,602.604,493.561,629.392,530.494z M512.471,470.464c0.962,3.048,2.827,2.638,4.295,3.061
	c27.868,7.983,54.257,19.067,77.212,37.222c5.052,3.993,9.877,8.272,14.854,12.36c1.142,0.935,2.477,2.754,4.02,0.98
	c1.271-1.462,0.081-3.027-0.981-4.265c-0.875-1.022-1.847-1.967-2.808-2.905c-20.474-19.903-45.017-32.867-71.861-41.748
	C529.389,472.582,521.443,470.007,512.471,470.464z"/>
<path fill-rule="evenodd" clip-rule="evenodd" fill="#7E9D98" d="M440.279,508.611c-19.304,2.717-38.575,3.019-57.716-1.224
	c-9.739-2.16-19.316-4.984-27.825-10.372c-3.6-2.279-7.494-5.063-6.576-10.187c0.817-4.554,4.771-6.098,8.686-7.516
	c25.522-9.254,51.564-9.905,77.971-4.858c1.843,0.351,3.713,0.551,5.57,0.821c3.171,3.772,7.509,5.861,11.62,8.377
	c7.257,4.434,7.319,9.251,2.065,15.75C450.28,504.092,444.105,504.439,440.279,508.611z M414.682,479.631
	c-13.939-2.383-27.664-1.099-41.305,1.243c-3.896,0.671-8.143,0.045-11.651,2.582c-1.079,0.781-2.382,1.479-2.02,3.08
	c0.395,1.738,1.996,1.648,3.253,1.553c6.389-0.488,12.81-0.813,19.142-1.727C393.064,484.78,404.331,484.682,414.682,479.631z
	 M428.144,482.405c-1.261-2.113-2.853-4.036-5.894-4.008c-2.303,0.02-3.437,1.315-3.177,3.503c0.341,2.868,2.581,3.979,5.038,3.933
	C425.81,485.805,427.762,485.103,428.144,482.405z"/>
<path fill-rule="evenodd" clip-rule="evenodd" fill="#61AE84" d="M440.279,508.611c3.827-4.172,10.001-4.52,13.794-9.208
	c5.254-6.499,5.192-11.316-2.065-15.75c-4.111-2.516-8.449-4.604-11.62-8.377c0.374-10.28,0.747-20.56,1.12-30.845
	c3.588-5.443,10.12-6.813,14.868-10.718c5.902-4.856,8.931-12.023,14.537-17.046c0.02,14.558,0.043,29.117,0.064,43.677
	c-2.808,3.414-7.138,1.01-10.542,2.865c-6.685,3.643-8.112,9.105-4.412,15.808c4.179,7.568,11.422,12.831,14.988,20.772
	c-0.45,11.209-0.899,22.416-1.349,33.622c-9.439-0.057-18.879-0.115-28.321-0.176C440.987,525.027,440.634,516.818,440.279,508.611z
	"/>
<path fill-rule="evenodd" clip-rule="evenodd" fill="#61AE84" d="M471.188,405.33c-9.341-5.097-18.632-10.326-29.55-11.309
	c2.405-22.417,0.86-44.92,1.413-67.38c0.152-6.154,0.084-12.312,0.117-18.468c9.981,8.602,20.791,16.336,28.638,27.186
	C471.6,358.681,471.396,382.004,471.188,405.33z"/>
<path fill-rule="evenodd" clip-rule="evenodd" fill="#ADCABD" d="M266.493,205.749c-32.66,1-65.188,3.395-97.276,9.896
	c-5.78,1.171-11.407,3.162-17.035,4.986c-3.07,0.998-6.482,3.127-8.329-1.058c-1.682-3.82,1.598-5.818,4.415-7.542
	c1.608-0.989,3.308-1.82,4.967-2.72c27.071-8.292,54.84-12.037,83.067-13.189c5.177-0.209,10.669-0.185,15.512-2.866
	c1.622-0.077,3.243-0.151,4.863-0.229C261.291,196.233,264.347,200.637,266.493,205.749z"/>
<path fill-rule="evenodd" clip-rule="evenodd" fill="#2D4B43" d="M505.751,160.348c-8.227,7.237-17.942,11.973-27.771,16.519
	c2.992-7.546,6.857-14.644,11.774-21.075c2.652-3.467,5.044-8.718,10.59-6.903C505.436,150.553,505.524,155.756,505.751,160.348z"/>
<path fill-rule="evenodd" clip-rule="evenodd" fill="#4F8A73" d="M251.814,193.256c-4.843,2.681-10.335,2.656-15.512,2.866
	c-28.227,1.152-55.996,4.897-83.067,13.189c-0.01-1.079-0.021-2.159-0.031-3.238c25.135-8.753,51.202-12.054,77.625-13.074
	C237.811,192.73,244.819,193.153,251.814,193.256z"/>
<path fill-rule="evenodd" clip-rule="evenodd" fill="#1C1B1D" d="M428.295,762.964c-10.253-7.782-16.738-18.186-19.512-30.535
	c-2.139-9.521,1.087-13.387,10.569-13.774c30.402-1.247,60.811-2.395,91.224-3.273c11.978-0.346,12.891,1.523,12.785,13.266
	c-0.144,15.383-5.803,27.634-18.074,36.858c-17.279-12.588-36.919-12.9-56.863-10.402
	C441.264,755.999,433.176,755.715,428.295,762.964z"/>
<path fill-rule="evenodd" clip-rule="evenodd" fill="#1C1B1D" d="M362.99,627.558c14.91-4.008,28.538-1.064,40.199,8.756
	c17.795,14.985,11.074,50.938-10.81,58.256c-10.787,3.604-21.907,5.889-33.339,2.575
	C346.898,673.185,349.484,650.061,362.99,627.558z"/>
<path fill-rule="evenodd" clip-rule="evenodd" fill="#1C1B1D" d="M561.43,627.618c6.136,0.781,12.355,1.166,18.393,2.421
	c21.526,4.477,32.987,31.214,20.887,49.536c-5.82,8.816-14.894,13.905-25.326,15.938c-4.466,0.865-9.087,0.931-13.636,1.36
	c-2.277-3.315-4.621-6.592-6.818-9.964C543.432,669.278,546.526,641.236,561.43,627.618z"/>
<path fill-rule="evenodd" clip-rule="evenodd" fill="#FFFFFF" d="M561.43,627.618c-14.903,13.618-17.998,41.66-6.501,59.291
	c2.197,3.372,4.541,6.648,6.818,9.964c-12.91-0.444-24.566-3.774-34.849-12.323c-16.289-13.548-15.893-41.523,11.04-52.104
	C545.487,629.481,553.404,628.287,561.43,627.618z"/>
<path fill-rule="evenodd" clip-rule="evenodd" fill="#FFFFFF" d="M362.99,627.558c-13.506,22.503-16.092,45.627-3.95,69.587
	c-13.502,0.411-23.964-5.904-32.294-15.691c-9.645-11.336-5.353-34.551,7.646-44.059
	C342.896,631.174,352.519,628.104,362.99,627.558z"/>
<path fill-rule="evenodd" clip-rule="evenodd" fill="#E16E8F" d="M428.295,762.964c4.88-7.249,12.968-6.965,20.129-7.861
	c19.944-2.498,39.583-2.186,56.863,10.402C484.717,789.99,441.449,783.106,428.295,762.964z"/>
<path fill-rule="evenodd" clip-rule="evenodd" fill="#F79770" d="M351.009,718.359c6.242-0.214,12.306,1.02,18.125,3.051
	c8.265,2.883,10.104,9.646,4.814,16.47c-8.128,10.479-27.172,13.777-37.949,6.553c-5.235-3.511-7.526-8.405-5.958-14.569
	c1.984-7.804,9.137-9.162,15.352-11.415C347.06,717.848,349.127,718.359,351.009,718.359z"/>
<path fill-rule="evenodd" clip-rule="evenodd" fill="#F79770" d="M592.47,734.479c-8.024,0.164-15.543-1.121-21.255-7.506
	c-3.481-3.891-3.21-7.688,0.303-11.394c5.823-6.136,24.2-7.518,31.033-2.465c5.032,3.722,7.768,8.571,5.682,14.597
	c-1.929,5.561-7.066,6.866-12.533,6.763C594.624,734.453,593.55,734.47,592.47,734.479z"/>
<path fill-rule="evenodd" clip-rule="evenodd" fill="#FFFFFF" d="M469.662,533.412c0.449-11.206,0.898-22.413,1.349-33.622
	c10.896,11.716,21.817,23.405,34.171,33.639C493.343,533.424,481.502,533.42,469.662,533.412z"/>
<path fill-rule="evenodd" clip-rule="evenodd" fill="#ADCABD" d="M293.295,314.538c-16.073,3.674-32.162,2.415-48.002,1.308
	c-23.351-1.633-46.316-6.46-68.371-14.615c-17.427-6.443-34.871-12.97-50.883-22.611c-1.848-1.114-5.789-1.902-4.37-4.76
	c1.594-3.213,4.731-0.722,7.04,0.25c29.328,12.309,58.882,23.95,90.344,29.725c17.175,3.152,34.529,4.883,51.963,5.926
	C278.62,310.215,286.357,310.424,293.295,314.538z"/>
<path fill-rule="evenodd" clip-rule="evenodd" fill="#ADCABD" d="M501.96,342.938c1.274,0,2.188-0.286,2.706,0.046
	c7.699,4.921,15.83,9.321,22.92,15.012c33.189,26.629,70.166,47.144,107.833,66.911c-10.73,1.005-20.126-2.25-29.262-6.229
	c-30.403-13.235-57.006-32.211-81.56-54.274c-4.986-4.481-10.357-8.53-15.469-12.874C506.39,349.201,503.097,347.247,501.96,342.938
	z"/>
<path fill-rule="evenodd" clip-rule="evenodd" fill="#ADCABD" d="M653.661,428.171c-0.132,2.789-1.681,3.097-3.344,3.106
	c-1.856,0.012-3.991,0.077-4.1-2.515c-0.092-2.207,1.339-3.548,3.498-3.25C651.505,425.758,653.176,426.693,653.661,428.171z"/>
<path fill-rule="evenodd" clip-rule="evenodd" fill="#ADCABD" d="M681.019,47.349c-9.006,8.025-19.651,13.145-29.979,18.702
	c-31.342,16.861-59.625,37.708-84.33,63.377c-1.426,1.481-2.793,5.123-5.614,2.44c-2.137-2.032,0.661-3.854,1.777-5.451
	c20.32-29.038,48.726-48.429,78.867-65.644C653.885,53.836,666.582,48.104,681.019,47.349z"/>
<path fill-rule="evenodd" clip-rule="evenodd" fill="#ADCABD" d="M708.108,32.539c1.934,0.095,6.042,0.442,4.935,3.621
	c-2.282,6.554-9.367,6.067-14.852,7.452c-2.741,0.691-5.474-0.409-5.556-4.011C692.549,35.885,699.911,32.409,708.108,32.539z"/>
<path fill-rule="evenodd" clip-rule="evenodd" fill="#ADCABD" d="M551.577,150.741c2.462,0.498,5.33-0.87,6.011,1.993
	c0.464,1.955-1.707,3.118-3.192,4.275c-6.754,5.26-15.142,6.861-22.775,10.141c-18.318,7.871-36.741,15.523-53.087,27.213
	c-2.648,1.892-5.441,3.39-7.876,0.63c-2.654-3.008-0.043-5.984,2.097-7.581c5.806-4.334,11.778-8.607,18.185-11.941
	c17.897-9.316,35.871-18.563,55.603-23.604C548.356,151.402,550.192,151.048,551.577,150.741z"/>
<path fill-rule="evenodd" clip-rule="evenodd" fill="#ADCABD" d="M306.885,186.457c16.714,0.589,32.722,5.022,48.763,9.155
	c3.03,0.781,6.904,2.678,6.195,6.356c-0.854,4.429-5.508,2.794-8.148,2.33c-11.047-1.95-21.943-4.734-32.97-6.811
	c-6.805-1.284-13.735-1.931-20.629-2.686c-3.192-0.351-7.312,0.207-7.143-4.347c0.167-4.457,4.306-3.899,7.482-3.986
	C302.584,186.412,304.734,186.457,306.885,186.457z"/>
<path fill-rule="evenodd" clip-rule="evenodd" fill="#ADCABD" d="M381.576,205.186c-0.598,2.746-1.997,5.001-4.585,4.997
	c-2.985-0.005-4.807-2.309-4.694-5.302c0.095-2.464,2.015-3.599,4.413-3.666C379.545,201.135,381.111,202.589,381.576,205.186z"/>
<path fill-rule="evenodd" clip-rule="evenodd" fill="#ADCABD" d="M797.838,148.163c-10.516,3.464-20.45,7.035-30.555,10.016
	c-38.229,11.276-75.518,25.169-112.439,40.094c-11.965,4.837-23.855,9.851-35.806,14.721c-1.61,0.656-3.773,2.183-4.832-0.31
	c-0.794-1.863,1.294-2.505,2.743-3.241c39.21-19.849,79.47-37.128,121.472-50.248c17.729-5.539,35.88-9.218,54.049-12.855
	C793.886,146.057,795.616,145.502,797.838,148.163z"/>
<path fill-rule="evenodd" clip-rule="evenodd" fill="#ADCABD" d="M395.874,104.015c-4.079-0.29-5.918-2.419-7.577-4.434
	c-9.247-11.231-18.378-22.558-27.5-33.891c-1.335-1.661-2.912-3.595-1.14-5.759c1.618-1.975,3.718-0.892,4.984,0.389
	c11.943,12.081,23.661,24.363,30.861,40.091C395.903,101.287,395.729,102.428,395.874,104.015z"/>
<path fill-rule="evenodd" clip-rule="evenodd" fill="#8FBCB4" d="M410.297,121.369c-0.129,2.709-1.624,4.65-4.29,4.982
	c-3.597,0.447-5.563-1.984-6.107-5.141c-0.479-2.774,1.225-4.834,4.032-5.005C407.314,115.998,409.441,117.977,410.297,121.369z"/>
<path fill-rule="evenodd" clip-rule="evenodd" fill="#ADCABD" d="M414.709,406.88c-22.926,7.09-46.724,9.547-70.01,14.584
	c-29.523,6.381-58.561,14.291-86.623,25.571c-1.499,0.604-2.93,1.445-4.478,1.842c-1.485,0.377-3.509,0.904-4.078-1.183
	c-0.548-2.013,1.348-2.604,2.832-3.239c13.625-5.818,26.971-12.442,40.931-17.296c31.09-10.813,63.101-17.678,95.997-20.459
	C397.793,405.979,406.148,404.952,414.709,406.88z"/>
<path fill-rule="evenodd" clip-rule="evenodd" fill="#ADCABD" d="M512.471,470.464c8.973-0.457,16.918,2.118,24.729,4.705
	c26.845,8.881,51.388,21.845,71.861,41.748c0.961,0.938,1.933,1.883,2.808,2.905c1.063,1.237,2.253,2.803,0.981,4.265
	c-1.543,1.773-2.878-0.046-4.02-0.98c-4.977-4.088-9.802-8.367-14.854-12.36c-22.955-18.154-49.344-29.238-77.212-37.222
	C515.298,473.102,513.433,473.512,512.471,470.464z"/>
<path fill-rule="evenodd" clip-rule="evenodd" fill="#ADCABD" d="M414.682,479.631c-10.351,5.051-21.617,5.149-32.58,6.731
	c-6.333,0.913-12.753,1.238-19.142,1.727c-1.257,0.096-2.859,0.186-3.253-1.553c-0.362-1.602,0.94-2.299,2.02-3.08
	c3.508-2.537,7.755-1.911,11.651-2.582C387.018,478.532,400.742,477.248,414.682,479.631z"/>
<path fill-rule="evenodd" clip-rule="evenodd" fill="#ADCABD" d="M428.144,482.405c-0.382,2.697-2.334,3.399-4.033,3.428
	c-2.457,0.047-4.697-1.064-5.038-3.933c-0.259-2.188,0.874-3.483,3.177-3.503C425.291,478.369,426.883,480.292,428.144,482.405z"/>
</svg>
