<?xml version="1.0" encoding="utf-8"?>
<!-- Generator: Adobe Illustrator 16.0.0, SVG Export Plug-In . SVG Version: 6.00 Build 0)  -->
<!DOCTYPE svg PUBLIC "-//W3C//DTD SVG 1.1//EN" "http://www.w3.org/Graphics/SVG/1.1/DTD/svg11.dtd">
<svg version="1.1" id="Layer_1" xmlns="http://www.w3.org/2000/svg" xmlns:xlink="http://www.w3.org/1999/xlink" x="0px" y="0px"
	 width="928px" height="928px" viewBox="0 0 928 928" enable-background="new 0 0 928 928" xml:space="preserve">
<path fill-rule="evenodd" clip-rule="evenodd" fill="#2D4B43" d="M435.248,371.838c-25.886-20.737-49.901-43.067-61.913-75.164
	c-3.807-10.172-7.408-20.551-5.509-31.333c8.168,7.627,16.631,14.588,23.965,22.583c15.057,16.411,32.431,30.1,49.93,43.597
	c22.734,17.534,40.276,38.234,45.607,67.415c0.461,2.538,1.755,4.922,3.398,9.381c16.131-57.384,29.484-112.503-6.303-165.81
	c-7.246-10.79-15.083-20.398-29.106-23.379c-7.563-1.607-12.022-8.544-15.296-15.495c-6.812-14.444-9.91-29.748-6.673-45.396
	c6.444-31.149-2.198-59.188-16.133-86.318c-5.48-10.665-10.592-21.396-12.473-33.371c6.985,4.384,10.962,11.58,16.133,17.606
	c17.297,20.146,31.176,42.508,41.853,66.837c1.843,22.974,3.055,45.934-3.625,68.431c-2.459,8.281,1.742,15.046,7.131,18.962
	c21.893,15.914,35.279,37.697,45.895,63.32c7.02-8.652,9.457-18.271,12.696-27.27c11.495-31.93,16.085-64.941,13.685-98.825
	c-3.594-50.741,20.366-90.177,51.67-126.642c1.14-1.328,2.179-2.945,4.411-1.592c2.041,1.238,1.724,2.829,1.065,4.621
	c-2.371,6.45-4.721,12.907-7.078,19.363c-10.328,15.675-13.796,33.434-14.616,51.668c-1.005,22.34-1.905,44.676-3.173,67.006
	c-0.853,15.049-2.525,30.253,0.509,45.317c-7.926,35.859-22.354,68.494-47.671,95.67c-1.945,2.089-3.083,3.828-2.816,6.957
	c3.221,37.68-4.977,73.685-16.498,109.144c-12.938,39.811-28.282,78.733-44.056,117.482c-1.623,3.991-3.061,8.056-4.838,12.75
	c5.893-0.416,8.477-4.107,11.935-6.143c16.452-9.687,34.151-16.171,52.927-18.894c16.671-2.421,30.734-9.664,43.26-20.222
	c19.66-16.566,37.671-34.922,56.05-52.872c1.968-1.922,3.383-6.251,6.846-4.24c3.141,1.825,0.783,5.375,0.174,8.167
	c-6.061,27.769-21.962,49.826-40.053,70.925c-7.766,9.06-15.717,17.811-24.226,26.139c-14.016,13.725-30.841,17.342-49.632,14.326
	c1.358-0.469,2.72-1.343,4.081-1.343c27.955-0.011,46.2-16.859,62.928-36.267c1.414-1.641,3.298-3.591,2.075-6.476
	c-3.682-0.362-5.049,2.757-6.81,4.803c-16.389,19.063-35.755,32.369-61.96,32.953c-5.067,0.114-10.121,0.729-15.182,0.783
	c-4.764,0.053-4.739,2.277-3.026,5.615c-20.436,4.739-35.196,18.445-50.21,31.76c-9.862,8.74-17.494,18.543-21.81,31.578
	c-14.484,43.731-28.603,87.548-40.276,132.126c-0.429,1.636-0.517,3.361-1.015,6.729c13.484-5.828,19.838-15.823,24.444-27.324
	c4.563-11.393,8.993-22.877,16.719-32.593c16.772-21.099,38.201-33.097,65.674-32.932c3.628,0.021,7.137,0.527,10.405,2.297
	c3.817,2.066,5.277,6.025,6.093,9.553c0.847,3.671-3.589,4.385-6.082,5.444c-12.172,5.168-20.004,13.701-25.723,25.915
	c-13.442,28.698-37.069,47.091-65.61,59.505c-6.01,2.613-12.523,4.494-19.119,1.361c-6.982-3.319-10.134-0.882-11.716,6.468
	c-8.458,39.287-13.661,78.959-14.897,119.139c-0.035,1.124-0.176,2.243-0.298,3.714c-11.46-3.935-15.222-12.161-15.728-23.195
	c-1.119-24.404,2.027-48.411,6.122-72.32c8.359-48.781,21.292-96.487,37.958-142.968c10.421-29.077-9.358-66.935-30.694-77.044
	c-9.158-4.345-18.077-9.358-26.599-14.856c-19.87-12.829-29.727-31.917-33.478-54.933c7.073-0.083,11.055,3.486,14.846,8.271
	c8.367,10.554,19.921,17.017,31.634,23.139c11.927,6.233,23.97,12.257,35.745,18.76c12.211,6.744,22.198,16.127,31.072,29.318
	c5.221-12.815,9.849-24.292,14.566-35.729c13.005-31.52,24.956-63.543,39.509-94.335c8.013-16.959,6.46-32.588,2.149-49.182
	c-0.748-2.889-1.67-5.735-2.512-8.603c6.463-2.125,2.85-6.318,1.513-9.372c-6.388-14.603-15.038-27.628-25.877-39.509
	c-22.217-24.356-47.772-46.202-60.985-77.671c-0.101-0.234-1.06-0.11-2.544-0.224c1.143,12.334,7.837,21.861,14.737,30.964
	c13.179,17.389,28.411,33.037,43.183,49.059C435.751,369.895,435.498,370.866,435.248,371.838z M318.772,550.355
	c0.24,0.146,0.479,0.293,0.719,0.439c-0.261-0.125-0.525-0.248-0.786-0.371c-0.237-0.146-0.472-0.293-0.709-0.437
	C318.258,550.11,318.514,550.232,318.772,550.355z M476.757,686.728c-4.251-2.619-6.884-0.72-9.598,0.33
	c-9.471,3.663-15.739,10.73-20.07,19.562c-7.328,14.941-12.382,31.133-24.34,43.504c-0.908,0.94-1.817,2.491,0.397,4.982
	c8.335-8.08,15.326-16.828,19.556-27.722c4.431-11.423,8.701-22.787,18.291-31.413C465.51,691.906,471.826,691.41,476.757,686.728z
	 M395.164,611.045c0.099-15.986-31.208-43.843-52.717-48.223C363.865,573.846,379.644,591.204,395.164,611.045z M335.48,558.177
	c-2.624-1.956-4.883-4.918-9.534-2.792C328.991,558.393,331.714,559.86,335.48,558.177z"/>
<path fill-rule="evenodd" clip-rule="evenodd" fill="#75A491" d="M436.002,368.921c-14.772-16.022-30.004-31.67-43.183-49.059
	c-6.899-9.103-13.594-18.63-14.737-30.964c1.484,0.113,2.443-0.011,2.544,0.224c13.213,31.469,38.768,53.315,60.985,77.671
	c10.839,11.881,19.489,24.907,25.877,39.509c1.337,3.054,4.95,7.247-1.513,9.372c-3.594-6.564-7.19-13.129-10.784-19.695
	c1.388-0.822,1.034-1.352-0.288-1.721l0.176,0.129C451.343,383.934,444.132,376.086,436.002,368.921z"/>
<path fill-rule="evenodd" clip-rule="evenodd" fill="#7E9D98" d="M494.806,566.61c-1.713-3.338-1.737-5.563,3.026-5.615
	c5.061-0.054,10.114-0.669,15.182-0.783c26.205-0.584,45.571-13.89,61.96-32.953c1.761-2.046,3.128-5.165,6.81-4.803
	c1.223,2.885-0.661,4.835-2.075,6.476c-16.728,19.407-34.973,36.256-62.928,36.267c-1.361,0-2.723,0.874-4.081,1.343
	C506.74,568.379,500.768,566.293,494.806,566.61z"/>
<path fill-rule="evenodd" clip-rule="evenodd" fill="#7E9D98" d="M462.729,122.991c-10.677-24.329-24.556-46.691-41.853-66.837
	c-5.171-6.026-9.148-13.222-16.133-17.606c-2.06-2.259-1.308-3.989,1.02-5.422c3.804,1.264,4.955,5.451,8.144,7.39
	c1.26,2.379,2.826,4.422,5.594,5.168l-0.066-0.08c0.783,5.469,4.769,8.272,9.025,10.85c0,0-0.048-0.073-0.045-0.073
	c3.178,7.32,7.216,13.951,14.465,18.003l-0.141-0.044c0.008,1.548,0.029,3.087,1.87,3.711c0,0-0.056-0.092-0.056-0.093
	c-0.088,1.585,0.243,2.961,1.854,3.692c0,0-0.12-0.11-0.117-0.11c0.82,0.604,1.641,1.209,2.461,1.815
	C456.935,95.324,463.981,107.694,462.729,122.991z"/>
<path fill-rule="evenodd" clip-rule="evenodd" fill="#4F8A73" d="M436.002,368.921c8.13,7.165,15.341,15.013,19.079,25.466
	c-6.609-7.516-13.222-15.032-19.833-22.549C435.498,370.866,435.751,369.895,436.002,368.921z"/>
<path fill-rule="evenodd" clip-rule="evenodd" fill="#4F8A73" d="M442.88,74.383c-7.249-4.052-11.287-10.683-14.465-18.003
	C435.741,60.367,438.86,67.735,442.88,74.383z"/>
<path fill-rule="evenodd" clip-rule="evenodd" fill="#2D4B43" d="M413.907,40.515c-3.189-1.939-4.34-6.125-8.144-7.39
	c6.441-4.148,7.174-3.689,11.221,7.017C415.958,40.268,414.933,40.392,413.907,40.515z"/>
<path fill-rule="evenodd" clip-rule="evenodd" fill="#4F8A73" d="M428.46,56.454c-4.257-2.578-8.242-5.381-9.025-10.85
	C424.099,47.844,427.405,51.212,428.46,56.454z"/>
<path fill-rule="evenodd" clip-rule="evenodd" fill="#4F8A73" d="M413.907,40.515c1.025-0.124,2.051-0.248,3.077-0.373
	c1.204,1.682,3.666,2.79,2.517,5.541C416.733,44.938,415.167,42.894,413.907,40.515z"/>
<path fill-rule="evenodd" clip-rule="evenodd" fill="#4F8A73" d="M446.407,81.649c-1.612-0.731-1.942-2.107-1.854-3.692
	C446.441,78.55,447.033,79.793,446.407,81.649z"/>
<path fill-rule="evenodd" clip-rule="evenodd" fill="#4F8A73" d="M444.609,78.05c-1.841-0.624-1.862-2.163-1.87-3.711
	C444.209,75.15,444.963,76.321,444.609,78.05z"/>
<path fill-rule="evenodd" clip-rule="evenodd" fill="#4F8A73" d="M454.905,394.258c1.321,0.369,1.676,0.899,0.288,1.721
	c-0.141-0.369-0.319-0.729-0.41-1.112C454.737,394.684,454.859,394.462,454.905,394.258z"/>
<path fill-rule="evenodd" clip-rule="evenodd" fill="#4F8A73" d="M448.751,83.354c-0.82-0.606-1.641-1.211-2.461-1.815
	C447.859,81.124,448.203,82.38,448.751,83.354z"/>
<path fill-rule="evenodd" clip-rule="evenodd" fill="#4F8A73" d="M476.757,686.728c-4.931,4.683-11.247,5.179-15.765,9.243
	c-9.59,8.626-13.86,19.99-18.291,31.413c-4.23,10.894-11.22,19.642-19.556,27.722c-2.214-2.491-1.305-4.042-0.397-4.982
	c11.958-12.371,17.012-28.563,24.34-43.504c4.332-8.831,10.6-15.898,20.07-19.562C469.873,686.008,472.506,684.108,476.757,686.728z
	"/>
<path fill-rule="evenodd" clip-rule="evenodd" fill="#75A491" d="M395.164,611.045c-15.52-19.841-31.298-37.199-52.717-48.223
	C363.956,567.202,395.262,595.059,395.164,611.045z"/>
<path fill-rule="evenodd" clip-rule="evenodd" fill="#4F8A73" d="M335.48,558.177c-3.767,1.684-6.489,0.216-9.534-2.792
	C330.598,553.259,332.857,556.221,335.48,558.177z"/>
<path fill-rule="evenodd" clip-rule="evenodd" fill="#4F8A73" d="M318.772,550.355c-0.258-0.123-0.514-0.245-0.775-0.368
	c0.237,0.144,0.472,0.29,0.709,0.437L318.772,550.355z"/>
<path fill-rule="evenodd" clip-rule="evenodd" fill="#4F8A73" d="M318.706,550.424c0.261,0.123,0.524,0.246,0.786,0.371
	c-0.24-0.146-0.479-0.293-0.719-0.439L318.706,550.424z"/>
</svg>
