<?xml version="1.0" encoding="utf-8"?>
<!-- Generator: Adobe Illustrator 16.0.0, SVG Export Plug-In . SVG Version: 6.00 Build 0)  -->
<!DOCTYPE svg PUBLIC "-//W3C//DTD SVG 1.1//EN" "http://www.w3.org/Graphics/SVG/1.1/DTD/svg11.dtd">
<svg version="1.1" id="Layer_1" xmlns="http://www.w3.org/2000/svg" xmlns:xlink="http://www.w3.org/1999/xlink" x="0px" y="0px"
	 width="928px" height="928px" viewBox="0 0 928 928" enable-background="new 0 0 928 928" xml:space="preserve">
<path fill-rule="evenodd" clip-rule="evenodd" fill="#61AE84" d="M672.095,223.897c-90.973,155.771-200.667,297.259-325.162,427.578
	c-23.861,24.979-47.446,50.374-68.237,78.119c-0.62,0.545-1.82,1.515-1.784,1.562c1.192,1.604,2.121,0.845,2.938-0.446
	c37.753-12.425,72.983-30.648,105.004-53.479c14.559-10.38,23.055-29.088,37.569-41.401c41.393-35.127,90.441-50.108,143.182-55.521
	c18.661-1.913,37.438-2.681,56.155-4.074c6.129-0.459,11.722,0.501,15.261,5.991c4.246,6.584-2.368,9.805-4.422,14.754
	c-12.392,29.838-34.085,50.841-60.874,67.418c-30.22,18.704-62.695,31.742-97.767,37.743c-19.411,3.323-38.604,0.643-56.802-6.348
	c-10.675-4.101-19.251-2.179-28.451,3.427c-33.373,20.334-68.201,37.841-104.483,52.415c-2.232,0.896-4.478,2.41-6.749,2.475
	c-24.846,0.717-38.618,17.979-53.267,34.573c-33.143,37.555-69.638,72.063-101.299,110.973c-4.313,5.306-9.363,9.701-15.843,5.044
	c-7.544-5.422-3.903-12.327,0.65-17.563c17.063-19.622,33.921-39.484,51.96-58.188c44.163-45.793,86.036-93.632,128.227-141.2
	c5.301-5.983,8.535-12.207,9.054-20.506c0.474-7.583,3.225-15.016,4.857-22.534c4.306-19.85,5.918-37.271-2.621-58.956
	c-20.861-52.994-28.384-109.87-27.769-167.119c0.326-30.451,16.686-54.8,35.42-77.282c5.473-6.566,12.31-4.336,17.306,1.78
	c5.583,6.836,8.407,15.144,10.764,23.495c15.176,53.736,21.783,108.545,18.779,164.284c-1.091,20.261-6.322,39.519-17.683,57.231
	c-9.862,15.372-7.971,34.162-12.071,51.335c7.675,2.449,9.656-3.208,12.588-6.279C444.228,520.29,541.334,399.105,623.381,266.118
	c11.336-18.37,20.445-38.223,35.011-54.525C664.68,213.78,668.767,218.412,672.095,223.897z M525.104,638.468
	c22.825-13.321,46.595-15.942,63.601-31.657c-25.635,5.112-48.328,18.88-75.421,23.95c2.878-10.028,14.664-13.605,12.459-25.593
	c-14.492,9.08-19.845,25.584-32.926,33.27c-12.854,7.553-27.3,12.387-44.708,20.013c8.599-18.718,21.518-28.394,33.711-38.648
	c2.179-1.831,5.652-3.457,3.606-6.596c-1.942-2.985-5.018-1.124-7.604,0.407c-16.286,9.646-27.505,24.134-35.839,40.453
	c-3.53,6.914-8.299,9.401-14.359,12.532c-8.741,4.525-20.608,3.984-26.418,14.287c3.71,3.208,6.496,0.857,8.76-0.189
	c26.866-12.429,53.942-21.342,83.536-8.826c4.705,1.99,10.264,2.428,15.471,2.642c4.289,0.176,11.361,2.934,11.777-3.938
	c0.369-6.034-6.421-4.049-10.328-4.207c-12.746-0.532-25.193-1.947-39.638-9.676c14.711-5.571,26.428-10.782,38.626-14.355
	c8.44-2.47,15.659,5.413,24.297,5.361c3.543-0.021,8.578,3.174,9.581-1.956c0.979-5.009-4.426-5.052-8.209-5.523
	C533.228,639.99,531.4,639.583,525.104,638.468z M303.82,465.374c-5.323-12.245-10.744-24.456-15.895-36.778
	c-1.227-2.938-2.578-5.859-5.951-4.336c-3.817,1.729-1.263,4.846-0.268,7.355c1.945,4.911,3.603,9.959,5.958,14.664
	c14.544,29.041,24.786,58.87,20.491,92.216c-1.349,10.461,1.542,20.78,5.35,31.657c1.613-2.012,2.559-2.659,2.664-3.423
	c0.319-2.372,0.622-4.816,0.395-7.184c-2.447-25.726,0.502-49.825,19.946-69.284c1.615-1.617,2.451-4.147,3.264-6.395
	c1.177-3.26,5.415-7.459,0.201-9.762c-3.922-1.729-4.703,3.226-6.255,6.15c-3.881,7.309-7.622,14.849-17.471,22.367
	c2.52-37.065-8.516-72.188,17.398-103.939c-13.695-0.279-10.907,12.284-19.989,13.84c0-8.063,0.128-15.62-0.058-23.169
	c-0.079-3.075,1.146-7.904-3.785-7.737c-3.83,0.129-4.797,4.328-4.649,7.84c0.476,11.49-1.036,22.963,1.319,34.496
	C309.243,437.487,308.42,451.229,303.82,465.374z M323.972,645.313c0.274-0.309,0.757-0.604,0.766-0.913
	c0.009-0.313-0.457-0.635-0.714-0.952c-0.275,0.305-0.757,0.601-0.766,0.913C323.249,644.669,323.712,644.991,323.972,645.313z"/>
<path fill-rule="evenodd" clip-rule="evenodd" fill="#E16E8F" d="M672.095,223.897c-3.328-5.485-7.415-10.118-13.703-12.305
	c-18.236-3.62-36.598-6.729-54.692-10.967c-22.161-5.194-42.988-13.802-61.813-26.935c-8.526-5.949-15.161-13.458-19.412-22.795
	c-6-13.185,0.563-21.827,14.888-20.398c14.767,1.479,28.972,5.751,45.39,9.779c-7.814-18.202-16.521-34.123-20.506-51.686
	c-2.659-11.713-10.533-25.854,3.152-34.239c12.799-7.844,22.11,4.696,31.1,11.911c23.748,19.056,45.18,40.401,61.637,66.294
	c1.243,1.952,2.269,4.036,4.495,8.038c8.067-21.59,14.23-39.639,21.53-57.206c7.763-18.678,16.285-37.25,32.433-50.481
	c8.942-7.321,18.893-14.896,31.34-8.205c11.627,6.245,11.82,18.009,11.069,29.212c-1.565,23.396-9.534,45.021-19.536,65.99
	c-3.276,6.867-6.609,13.708-10.723,22.221c19.378-2.569,35.65-10.444,53.277-11.773c3.822-0.287,7.601-1.325,11.418-1.462
	c7.892-0.292,17.464-3.688,21.62,6.301c4.392,10.551-3.834,17.713-10.452,23.216c-15.089,12.545-31.536,23.354-52.569,31.408
	c21.003,9.418,39.42,18.258,55.237,31.417c2.591,2.153,5.46,4.01,7.831,6.373c6.143,6.125,13.442,12.284,9.44,22.277
	c-3.744,9.363-12.382,11.34-21.487,11.537c-29.646,0.652-58.395-3.941-86.333-14.067
	C700.724,241.551,686.592,232.433,672.095,223.897z M687.196,149.57c-0.883-9.385-3.521-19.403,5.422-26.433
	c3.881-3.054,3.752-7.668,0.917-11.666c-1.81-2.556-4.709-3.478-7.677-2.251c-4.147,1.715-5.074,5.37-4.997,9.479
	c0.189,10.087,0.03,20.141-2.607,29.988c-1.415,5.284,2.711,14.192-3.097,15.38c-6.434,1.313-10.306-7.171-14.252-12.403
	c-1.668-2.209-2.338-5.198-3.312-7.883c-1.453-3.993-3.478-7.523-8.247-4.589c-3.843,2.363-2.234,5.49-0.018,8.552
	c7.931,10.949,17.439,20.454,27.286,29.568c5.7,5.275,9.423,4.525,14.257-3.243c4.902-7.883,9.869-17.863,21.132-19.596
	c4.722-0.729,7.604-2.509,5.263-7.428c-1.974-4.156-6.391-5.34-9.663-2.548c-4.392,3.753-7.694,8.779-11.465,13.257
	c-1.257-10.903,1.124-18.97,9.397-23.448c3.521-1.904,7.433-3.007,6.344-7.93c-0.301-1.377-2.454-3.037-3.98-3.315
	c-4.28-0.789-7.355,1.462-9.35,5.181C694.741,135.339,690.979,142.459,687.196,149.57z"/>
<path fill-rule="evenodd" clip-rule="evenodd" fill="#4F8A73" d="M525.104,638.468c6.296,1.115,8.123,1.522,9.976,1.75
	c3.783,0.472,9.188,0.515,8.209,5.523c-1.003,5.13-6.038,1.935-9.581,1.956c-8.638,0.052-15.856-7.831-24.297-5.361
	c-12.198,3.573-23.915,8.784-38.626,14.355c14.444,7.729,26.892,9.144,39.638,9.676c3.907,0.158,10.697-1.827,10.328,4.207
	c-0.416,6.871-7.488,4.113-11.777,3.938c-5.207-0.214-10.766-0.651-15.471-2.642c-29.594-12.516-56.67-3.603-83.536,8.826
	c-2.265,1.047-5.05,3.397-8.76,0.189c5.81-10.303,17.677-9.762,26.418-14.287c6.06-3.131,10.83-5.618,14.359-12.532
	c8.333-16.319,19.553-30.808,35.839-40.453c2.586-1.531,5.661-3.393,7.604-0.407c2.046,3.139-1.428,4.765-3.606,6.596
	c-12.193,10.255-25.112,19.931-33.711,38.648c17.409-7.626,31.854-12.46,44.708-20.013c13.081-7.686,18.434-24.189,32.926-33.27
	c2.205,11.987-9.581,15.564-12.459,25.593c27.093-5.07,49.786-18.838,75.421-23.95C571.699,622.525,547.93,625.146,525.104,638.468z
	"/>
<path fill-rule="evenodd" clip-rule="evenodd" fill="#4F8A73" d="M303.82,465.374c4.6-14.145,5.423-27.887,2.663-41.418
	c-2.354-11.533-0.843-23.006-1.319-34.496c-0.148-3.512,0.819-7.711,4.649-7.84c4.93-0.167,3.706,4.662,3.785,7.737
	c0.187,7.549,0.058,15.106,0.058,23.169c9.082-1.557,6.294-14.119,19.989-13.84c-25.914,31.751-14.878,66.874-17.398,103.939
	c9.85-7.519,13.59-15.059,17.471-22.367c1.553-2.925,2.333-7.879,6.255-6.15c5.213,2.303,0.976,6.502-0.201,9.762
	c-0.813,2.247-1.649,4.777-3.264,6.395c-19.444,19.459-22.393,43.559-19.946,69.284c0.228,2.367-0.075,4.812-0.395,7.184
	c-0.105,0.764-1.051,1.411-2.664,3.423c-3.809-10.877-6.699-21.196-5.35-31.657c4.295-33.347-5.947-63.176-20.491-92.216
	c-2.354-4.705-4.012-9.753-5.958-14.664c-0.995-2.509-3.549-5.627,0.268-7.355c3.374-1.523,4.725,1.398,5.951,4.336
	C293.076,440.918,298.498,453.129,303.82,465.374z"/>
<path fill-rule="evenodd" clip-rule="evenodd" fill="#FFFFFF" d="M323.972,645.313c-0.26-0.321-0.723-0.644-0.714-0.952
	c0.008-0.313,0.491-0.608,0.766-0.913c0.257,0.317,0.723,0.639,0.714,0.952C324.729,644.708,324.246,645.004,323.972,645.313z"/>
<path fill-rule="evenodd" clip-rule="evenodd" fill="#FFFFFF" d="M279.849,730.71c-0.817,1.291-1.746,2.05-2.938,0.446
	c-0.036-0.047,1.165-1.017,1.784-1.562C279.083,729.964,279.467,730.337,279.849,730.71z"/>
<path fill-rule="evenodd" clip-rule="evenodd" fill="#F9B6AA" d="M687.196,149.57c3.783-7.111,7.545-14.231,11.354-21.329
	c1.994-3.719,5.069-5.97,9.35-5.181c1.526,0.279,3.68,1.938,3.98,3.315c1.089,4.923-2.822,6.026-6.344,7.93
	c-8.273,4.478-10.654,12.545-9.397,23.448c3.771-4.478,7.073-9.504,11.465-13.257c3.272-2.792,7.689-1.608,9.663,2.548
	c2.342,4.919-0.541,6.699-5.263,7.428c-11.263,1.733-16.229,11.713-21.132,19.596c-4.834,7.768-8.557,8.518-14.257,3.243
	c-9.847-9.114-19.355-18.619-27.286-29.568c-2.217-3.063-3.825-6.189,0.018-8.552c4.77-2.934,6.794,0.596,8.247,4.589
	c0.974,2.685,1.644,5.674,3.312,7.883c3.946,5.232,7.818,13.716,14.252,12.403c5.808-1.188,1.682-10.096,3.097-15.38
	c2.638-9.848,2.797-19.901,2.607-29.988c-0.077-4.109,0.85-7.763,4.997-9.479c2.968-1.227,5.867-0.305,7.677,2.251
	c2.835,3.998,2.964,8.612-0.917,11.666C683.675,130.167,686.313,140.186,687.196,149.57z"/>
</svg>
