<?xml version="1.0" encoding="utf-8"?>
<!-- Generator: Adobe Illustrator 16.0.0, SVG Export Plug-In . SVG Version: 6.00 Build 0)  -->
<!DOCTYPE svg PUBLIC "-//W3C//DTD SVG 1.1//EN" "http://www.w3.org/Graphics/SVG/1.1/DTD/svg11.dtd">
<svg version="1.1" id="Layer_1" xmlns="http://www.w3.org/2000/svg" xmlns:xlink="http://www.w3.org/1999/xlink" x="0px" y="0px"
	 width="928px" height="928px" viewBox="0 0 928 928" enable-background="new 0 0 928 928" xml:space="preserve">
<path fill-rule="evenodd" clip-rule="evenodd" fill="#F9B6AA" d="M800.585,567.234c11.374,0.908,22.753,1.738,34.116,2.739
	c12.313,1.092,18.504,8.604,21.574,20.024c9.581,35.636,7.371,71.714,5.224,107.944c-1.682,28.313-6.001,56.225-9.954,84.229
	c-5.905,41.847-28.376,71.397-65.074,91.646c-33.438,18.45-69.256,27.163-106.9,30.561c-52.049,4.699-103.997-1.464-156.025-0.893
	c-42.108,0.464-84.289-1.999-126.368-4.415c-36.874-2.121-73.627-6.261-110.473-9.001c-36.466-2.711-72.956-5.5-108.465-14.564
	c-30.304-7.741-59.647-17.789-81.984-41.881c-19.647-21.197-27.23-47.781-33.926-74.465c-5.258-20.959-5.592-42.501-3.954-64.417
	c2.114-28.281,1.467-56.837,0.7-85.241c-0.436-16.192,8.958-27.701,16.721-39.501c4.973-7.555,16.421-6.358,25.327-7.027
	c9.823-0.738,19.731-0.362,29.604-0.468c1.484,0.024,2.972,0.05,4.457,0.07c27.683,2.356,55.398,3.527,83.184,2.314
	c22.917,1.474,45.849,0.796,68.777,0.436c36.287-0.038,72.576-0.073,108.87-0.108c11.919,0.042,23.842,0.085,35.766,0.131
	c35.594,2.222,71.205,2.542,106.83,0.844c18.085,0.999,36.166,1.537,54.195-0.908c2.567,2.47,5.855,2.009,8.926,2.013
	c25.538,0.014,51.073-0.061,76.607-0.105c14.188,0.073,28.376,0.141,42.567,0.214C747.463,567.347,774.023,567.287,800.585,567.234z
	 M590.58,631.426c-0.829,0.876-1.659,1.749-2.49,2.624l0.285-0.13c-16.526,6.653-24.834,19.449-23.688,36.469
	c1.132,16.802,16.165,36.068,30.694,39.343l-0.243-0.169c0.771,0.802,1.537,1.601,2.308,2.398
	c11.029,2.61,22.056,4.126,33.096,0.063c21.005-7.234,35.839-35.076,29.879-56.432c-3.897-13.953-12.49-23.344-27.079-26.475
	c-13.699-7.213-27.381-5.954-41.053,0.075c-0.636,0.805-1.272,1.603-1.905,2.404L590.58,631.426z M331.973,711.923
	c0.809,0.84,1.621,1.685,2.431,2.528c12.781,7.319,26.318,8.22,40.37,4.731c22.207-2.27,38.702-19.676,39.955-42.161
	c1.192-21.447-15.768-44.252-35.569-47.828c-13.586-4.984-26.744-2.28-39.803,2.215c-13.924,0.061-20.635,9.285-25.767,20.402
	c-10.287,22.299-0.911,52.294,18.757,60.204L331.973,711.923z M329.989,743.07c-5.916,0-11.913-0.63-17.73,0.134
	c-10.14,1.336-18.25,6.404-20.051,17.132c-1.749,10.449,4.583,17.329,13.39,21.384c16.907,7.787,34.422,8.305,51.304,0.457
	c14.357-6.672,15.194-18.31,4.671-30.316C352.611,741.632,341.371,742.775,329.989,743.07z M499.082,807.57
	c21.665,0.359,44.035-24.771,45.543-51.24c0.303-5.325,0.145-11.093-6.611-11.951c-6.845-0.865-8.308,4.769-9.205,9.999
	c-1.487,8.67-4.055,16.836-9.273,24.089c-12.11,16.833-32.211,17.04-44.296,0.176c-4.863-6.792-8.409-14.272-9.506-22.731
	c-0.626-4.821-2.902-8.606-8.333-7.977c-5.775,0.676-7.47,5.082-7.502,10.341C449.754,782.044,474.821,807.17,499.082,807.57z
	 M634.894,781.021c12.468-0.021,13.146-0.159,20.489-4.231c13.169-7.301,14.499-17.916,3.553-28.366
	c-10.273-9.813-35.178-13.628-47.716-7.314c-9.81,4.938-13.848,16.424-8.188,25.994C610.14,779.117,622.253,780.999,634.894,781.021
	z"/>
<path fill-rule="evenodd" clip-rule="evenodd" fill="#4F8A73" d="M287.143,565.324c-22.928,0.36-45.86,1.038-68.777-0.436
	c-1.167-4.54-2.107-9.154-3.535-13.611c-8.919-27.849-13.389-56.373-13.077-85.61c0.103-9.753,4.112-19.313,1.492-29.214
	c0.049-3.728,0.098-7.456,0.151-11.188c2.444-1.287,2.733-3.556,2.934-6.004c1.85-22.798,6.31-45.121,12.904-66.987
	c5.786-19.176,12.018-38.221,18.054-57.323c9.271-1.466,6.637-8.624,6.893-14.402c14.266-21.44,28.535-42.885,42.8-64.325
	c14.157-0.467,10.763-13.147,14.511-20.853c4.988-0.148,7.232-4.298,10.306-7.165c11.128-10.372,18.782-24.061,31.942-32.618
	c3.693-2.402,10.896-6.12,7.678-11.03c-2.715-4.136-8.097,1.97-12.373,3.253c-2.237,0.672-4.457,1.512-6.556,2.542
	c-16.643,8.185-34.025,15.103-48.037,27.835c-0.714,0.183-1.432,0.334-2.156,0.454c-4.598,0.197-7.938,3.032-11.624,5.311
	c-35.738,22.073-66.78,49.616-96.201,79.49c-45.114,45.818-64.989,101.417-64.786,164.349c0.088,26.903,4.864,53.718,11.973,80.067
	c4.882,18.1,13.298,35.438,13.523,54.713c-1.484-0.021-2.972-0.046-4.457-0.07c-4.547-11.1-11.1-21.332-14.251-33.025
	c0.475-1.003,1.586-2.201,1.344-2.982c-11.072-35.953-18.29-72.471-15.56-111.198c-3.24,2.036-3.62,5.764-7.094,5.085
	c-0.063-36.417,9.507-70.663,24.592-103.376c3.858-8.367,3.795-12.081-5.346-15.355c-4.4-1.572-13.727-3.623-10.593-9.447
	c3.084-5.733,8.926,3.517,14.272,3.221c0.991,1.421,2.655,2.388,3.848,1.189c1.579-1.583-0.471-2.469-1.551-3.373
	c-4.006-5.82-8.093-11.589-11.965-17.498c-1.347-2.054-1.962-4.812,0.507-6.317c2.852-1.737,3.917,1.147,5.307,2.962
	c2.568,3.362,4.186,7.572,8.483,9.837c2.655-4.906-1.188-9.109-0.988-13.583c0.113-2.434,0.011-5.3,2.722-5.877
	c3.011-0.644,3.64,2.244,4.15,4.541c1.435,6.444,2.015,13.13,6.18,20.562c22.903-36.086,49.391-67.961,82.308-91.424
	c-4.013-4.857-7.759-8.817-10.822-13.25c-3.637-5.254-1.073-7.062,4.428-6.506c0.644,0.439,1.284,0.886,1.923,1.326
	c-0.204-0.879-0.408-1.762-0.612-2.645c1.436-4.977-4.28-13.551,2.153-14.459c5.997-0.844,3.327,8.821,5.688,13.39
	c1.009,1.952,1.269,4.291,2.237,7.779c6.271-6.187,5.659-13.537,7.544-19.896c0.735-2.483,0.707-6.134,4.699-5.065
	c2.817,0.753,2.554,3.749,2.121,6.025c-1.294,6.837-2.82,13.629-4.801,23.041c49.976-31.31,100.798-54.34,157.333-62.542
	c4.031,4.031,8.065,8.065,12.099,12.092c-0.57,5.778-5.521,8.384-8.835,12.162c-17.097,19.499-34.598,38.502-48.821,60.502
	c-47.805,73.955-69.126,155.271-70.744,242.64C271.953,489.932,277.802,527.801,287.143,565.324z"/>
<path fill-rule="evenodd" clip-rule="evenodd" fill="#75A491" d="M800.585,567.234c-26.562,0.053-53.122,0.112-79.681,0.169
	c-1.017-41.319,1.256-82.628-1.854-123.996c-1.913-25.433-2.849-50.862-7.559-76.005c-8.381-44.742-21.985-87.619-45.156-127.071
	c-20.371-34.679-47.488-63.273-78.717-88.453c-8.287-6.679-19.13-11.332-23.365-22.457c9.842,0.928,19.465,2.813,28.648,6.587
	c0.629,1.132,1.332,1.484,2.194,0.218c1.935-0.468,3.679-0.264,5.008,1.414c0.673,7.797,8.249,7.273,12.711,10.453
	c10.799,7.695,25.254,10.33,32.207,23.343c-0.253,6.862,7.618,6.644,10.36,11.537c-7.931,2.437-10.407,8.821-6.899,14.529
	c3.496,5.694,9.721,1.505,14.522-0.725c4.224-1.962,8.321-4.185,12.472-6.295c16.513,15.307,35.059,28.749,45.529,49.602
	c-3.535,0.095-7.073,0.169-10.608,0.302c-2.37,0.084-5.24,0.057-5.441,3.134c-0.199,3.088,2.52,3.489,4.956,3.612
	c1.967,0.102,3.936,0.07,5.901,0.168c2.402,0.124,5.171,0.38,5.969,2.888c0.845,2.659-1.744,4.087-3.556,5.479
	c-3.273,2.515-8.036,3.662-8.142,9.26c6.207,3.138,9.883-4.041,15.292-3.625c0.007,0.007,0.514,0.513,0.514,0.513
	c-0.956,2.107-1.931,4.207-2.873,6.324c-1.322,2.965-5.969,6.549-2.217,8.983c4.623,2.996,5.931-3.046,8.389-5.765
	c2.863-3.162,3.729-8.001,8.227-9.756c2.055,1.751,4.734,3.123,6.061,5.314c13.776,22.777,27.208,45.769,37.003,70.61
	c4.556,11.546,11.512,22.358,11.656,35.372c-9.657-3.204-19.31-6.433-28.978-9.602c-2.068-0.679-4.71-2.691-6.031,0.475
	c-1.344,3.204,1.125,5.223,3.815,6.247c4.534,1.724,9.2,3.088,14.199,4.73c-4.334,6.278-10.127,7.713-15.563,9.76
	c-2.441,0.918-6.032,1.037-4.703,5.131c3.074,9.489,11.182,12.141,19.622,5.982c6.908-5.037,14.526-9.584,18.086-18.064
	c6.228,2.037,5.56,8.121,6.946,12.655c12.627,41.291,17.241,83.785,18.669,126.757c0.193,5.734-1.956,11.879,2.103,17.178
	C815.783,546.402,806.613,555.878,800.585,567.234z"/>
<path fill-rule="evenodd" clip-rule="evenodd" fill="#4F8A73" d="M564.254,129.422c4.235,11.125,15.078,15.778,23.365,22.457
	c31.229,25.18,58.346,53.774,78.717,88.453c23.171,39.452,36.775,82.329,45.156,127.071c4.71,25.144,5.646,50.573,7.559,76.005
	c3.109,41.368,0.837,82.677,1.854,123.996c-14.191-0.073-28.38-0.141-42.567-0.214c-0.131-10.253-0.257-20.509-0.387-30.761
	c11.943-13.365,11.943-13.365,0.2-23.442c0.471-34.243,0.33-68.464-3.015-102.591c5.378-6.138,2.166-10.848-2.554-15.3
	c-2.269-34.003-11.289-66.41-22.882-98.261c-4.027-11.058-10.945-21.061-12.151-33.146c2.25-11.354-9.62-12.159-13.914-18.627
	c-9.862-26.428-28.764-46.584-47.045-67.051c-16.056-17.969-34.777-32.878-55.582-45.11c7.826-2.673,15.651-5.346,23.477-8.016
	C551.076,126.394,557.667,127.909,564.254,129.422z"/>
<path fill-rule="evenodd" clip-rule="evenodd" fill="#4F8A73" d="M792.137,372.899c-0.145-13.013-7.101-23.825-11.656-35.372
	c-9.795-24.842-23.227-47.833-37.003-70.61c-1.326-2.191-4.006-3.563-6.061-5.314c3.869-14.297-5.824-18.251-16.41-21.518
	c-10.471-20.853-29.017-34.295-45.526-49.602c1.192-4.505,1.348-9.095-4.076-10.492c-8.986-2.321-16.805-8.156-26.382-8.554
	c-6.953-13.014-21.408-15.648-32.207-23.343c-4.462-3.179-12.038-2.655-12.711-10.453c39.42,8.793,77.079,22.189,111.543,43.268
	c6.151-4.076-2.139-13.46,6.334-15.655c2.44-0.629,2.233,3.696,3.837,5.374c2.85-1.182,3.159-4.242,4.738-6.355
	c2.156-2.887,3.295-9.327,7.902-6.429c4.288,2.694-0.876,6.774-2.177,10.175c-0.366,0.964-0.718,1.931-1.413,3.813
	c2.624-0.443,4.571-0.492,6.302-1.128c2.205-0.813,4.685-2.67,6.388-0.236c2.297,3.278-1.383,4.499-3.057,6.465
	c-4.594,5.398-15.45,7.667-13.844,15.173c1.211,5.641,9.771,9.658,14.948,14.515c8.294,7.78,16.495,15.658,25.439,24.166
	c3.823-8.043,7.604-15.218,10.611-22.707c1.157-2.88,2.532-3.908,5.064-3.141c3.489,1.055,1.445,3.443,1.182,5.648
	c-0.767,6.313-6.274,10.436-8.216,17.143c6.138,0.092,9.183-7.681,15.896-3.718c-2.078,6.648-10.752,7.271-13.318,14.442
	c5.438,3.277,11.866,1.793,17.638,3.137c2.607,0.609,6.093,0.981,5.199,4.83c-0.651,2.799-3.676,2.624-5.997,2.42
	c-3.883-0.341-7.741-0.988-11.532-1.492c-2.339,3.676,0.664,5.48,2.032,7.351c22.155,30.398,36.648,64.37,46.634,100.372
	c2.135,7.696,3.985,10.22,11.075,3.904c3.757-3.348,8.237-7.098,14.456-7.105c2.131,7.938-8.192,6.451-8.688,12.008
	c0.299,0.64,0.425,1.516,0.922,1.882c3.457,2.532,11.677-1.351,10.864,5.69c-0.605,5.227-7.415,1.959-11.382,2.817
	c-1.477,0.32-2.954,0.651-5.808,1.284c7.31,5.712,14.97,7.457,22.235,10.056c2.249,0.805,4.802,1.973,3.55,4.959
	c-0.862,2.061-3.373,1.966-5.205,1.379c-7.806-2.497-15.542-5.202-24.082-8.093c1.498,12.894,2.574,24.976,4.357,36.951
	c3.074,20.681,0.447,41.003-3.813,61.114c-1.488,7.023-1.188,9.911,6.873,10.488c7.938,0.569,8.012,1.438,5.127,9.324
	c-0.851,2.327,1.063,2.451,1.854,3.4c1.371,1.649,4.502,2.74,1.976,5.49c-2.515,2.74-5.074,0.145-7.586-0.506
	c-3.338-4.203-7.352-7.33-14.67-9.515c3.918,7.929,8.855,11.744,14.483,14.909c2.097,3.939,10.833,6.039,7.46,10.15
	c-4.386,5.339-8.159-2.602-12.176-4.821c-1.33-0.735-2.48-1.931-3.489-3.105c-5.378-6.265-9.401-7.341-12.574,2.086
	c-1.702,5.067-5.078,9.573-7.699,14.331c-4.059-5.299-1.909-11.443-2.103-17.178c-1.428-42.972-6.042-85.466-18.669-126.757
	c-1.387-4.534-0.719-10.618-6.953-12.651C792.429,376.008,792.281,374.454,792.137,372.899z"/>
<path fill-rule="evenodd" clip-rule="evenodd" fill="#F79770" d="M544.484,124.885c-7.825,2.669-15.65,5.342-23.473,8.019
	c-2.905,0.37-5.817,0.736-8.729,1.102c-11.237-1.787-22.077,2.455-33.216,2.202c-9.613-0.489-19.165-0.26-28.489,2.539
	c-11.79,1.495-23.583,3.352-35.375,0.018c-4.607-1.491-9.085-3.57-14.125-3.028c-4.034-4.027-8.068-8.062-12.099-12.092
	c4.287-13.073,0.784-24.089-5.49-36.332c-8.216-16.027,2.765-28.802,20.941-27.493c12.211,0.883,21.936,7.948,33.529,13.77
	c0.433-13.988,1.361-26.797,7.104-38.667c3.268-6.764,7.175-12.482,15.553-12.531c8.455-0.049,12.447,5.898,15.574,12.549
	c4.432,9.415,5.635,19.71,7.062,29.808c0.942,6.647,2.652,8.199,8.741,4.716c4.403-2.518,9.299-4.4,14.197-5.775
	c20.344-5.708,34.845,6.725,32.01,27.638c-0.664,4.906-1.69,8.479,3.454,12.021C549.958,109.061,546.631,117.267,544.484,124.885z
	 M460.535,109.589c6.844,1.241,11.385-1.748,14.17-7.889c2.961-6.531-0.95-10.801-5.469-13.967
	c-3.854-2.698-4.552-5.947-4.766-10.009c-0.13-2.501-1.435-4.685-4.238-4.818c-2.855-0.137-4.621,2.082-4.502,4.467
	c0.5,9.974-5.3,11.722-13.534,11.62c-3.344-0.039-7.203,3.303-4.009,6.099C444.855,100.926,448.235,112.431,460.535,109.589z"/>
<path fill-rule="evenodd" clip-rule="evenodd" fill="#75A491" d="M95.164,420.384c3.475,0.679,3.854-3.049,7.094-5.085
	c-2.73,38.727,4.488,75.245,15.56,111.198c0.243,0.781-0.869,1.979-1.344,2.982c-10.523-18.831-13.991-39.955-19.432-61.079
	c-5.705,1.942-7.111,7.348-10.436,10.806c-2.152,2.24-4.438,5.726-7.758,3.2c-3.732-2.835-0.081-5.445,1.576-7.932
	c1.048-1.576,1.941-3.253,3.345-5.634c-6.222-1.281-10.492,2.039-15.19,3.172c-2.617,0.627-5.845,2.001-7.235-1.383
	c-1.421-3.467,1.804-4.87,4.288-5.901c4.245-1.765,8.645-3.158,13.165-4.776c-2.096-5.584-7.161-5.669-10.499-8.096
	c-1.896-1.378-4.572-2.49-3.471-5.325c1.385-3.57,4.427-2.634,6.985-1.442c7.382,3.447,14.684,7.063,23.354,11.254
	C95.164,443.111,95.164,431.748,95.164,420.384z"/>
<path fill-rule="evenodd" clip-rule="evenodd" fill="#D0EADF" d="M848.78,515.508c-5.628-3.165-10.565-6.98-14.483-14.909
	c7.318,2.185,11.332,5.312,14.67,9.515C848.907,511.906,848.844,513.707,848.78,515.508z"/>
<path fill-rule="evenodd" clip-rule="evenodd" fill="#4F8A73" d="M595.097,136.228c-0.862,1.266-1.565,0.914-2.194-0.218
	C593.658,135.848,594.39,135.921,595.097,136.228z"/>
<path fill-rule="evenodd" clip-rule="evenodd" fill="#75A491" d="M450.578,138.749c9.324-2.803,18.875-3.031,28.489-2.542
	c0.946,2.114,1.797,4.277,2.855,6.338c10.773,20.937,22.77,41.347,27.715,64.778c-6.595-2.557-13.221-5.029-19.763-7.713
	c-2.754-1.129-5.648-2.206-7.08,1.171c-1.659,3.921,2.585,4.016,4.534,5.521c2.944,2.279,7.614,1.745,10.059,6.229
	c-5.768,3.268-13.903,2.483-17.185,9.532c5.814,4.403,10.949-2.146,16.187,0.168c-0.229,3.285-3.25,3.401-4.826,4.984
	c-2.008,2.019-6.408,3.679-3.57,7.168c2.17,2.659,4.952-0.303,7.145-1.847c6.436-4.523,12.851-9.071,19.273-13.608
	c7.077,14.508,9.672,30.381,13.382,45.835c7.105,29.586,13.172,59.408,14.501,89.955c-13.195-1.85-24.18-11.579-41.178-12.398
	c11.174,10.794,24.04,12.04,35.238,20.34c-9.616,1.364-17.167,2.444-24.723,3.499c-2.423,0.341-5.148,1.013-5.247,3.704
	c-0.124,3.337,3.061,2.631,5.255,3.039c4.878,0.911,4.864,0.975,4.902,2.944c0.145,7.217,0.222,7.383,6.774,4.424
	c7.168-3.235,14.178-6.823,21.254-10.255c4.913,33.293,2.8,66.811,3.19,100.249c0.045,3.715-1.01,6.974-2.962,10.034
	c-4.601-0.854-9.19-1.828-13.812-2.532c-4.987-0.768-11.843-6.485-14.448-0.242c-2.16,5.17,7.368,3.573,10.098,7.267
	c0.204,0.274,0.306,0.626,0.692,1.467c-3.722,2.008-7.551,3.911-11.209,6.101c-2.424,1.453-4.847,3.648-2.923,6.639
	c1.755,2.721,4.15,0.267,6.215-0.44c3.507-1.192,6.25-4.863,11.325-3.243c-0.714,4.864-4.522,7.045-7.597,9.756
	c-2.064,1.83-7.253,2.607-4.214,6.519c2.336,3,5.859-0.215,8.374-1.72c6.409-3.838,9.943-11.188,17.037-14.28
	c1.263,4.231,0.524,8.35,0.025,12.676c-2.23,19.274-3.888,38.608-5.754,57.924c-35.625,1.702-71.236,1.382-106.83-0.844
	c1.449-43.982,5.856-87.841,4.818-131.938c-0.369-15.669,1.484-31.513,1.449-47.045c-0.126-57.86,7.07-115.281,8.526-173.043
	C447.198,188.548,442.664,163.2,450.578,138.749z"/>
<path fill-rule="evenodd" clip-rule="evenodd" fill="#75A491" d="M401.077,135.735c5.04-0.542,9.518,1.537,14.125,3.028
	c-0.865,4.217-1.435,8.519-2.631,12.644c-11.628,40.081-18.458,81.081-23.575,122.41c0.457,7.819-0.496,15.338-4.249,22.862
	c-4.238-2.986-4.319-7.101-5.244-10.682c-0.7-2.697-0.777-6.598-3.882-6.479c-4.699,0.183-2.522,4.772-3.166,7.53
	c-0.337,1.453-0.686,2.902-0.992,4.186c-4.804,1.73-7.256-6.373-12.862-1.343c7.333,9.7,12.848,21.054,25.376,25.971
	c-1.751,31.105-3.5,62.21-5.248,93.316c-7.112-5.512-14.22-11.022-21.335-16.531c-1.509-1.167-3.18-3.053-5.058-1.309
	c-2.311,2.149-0.479,4.214,0.904,6.17c3.133,4.427,10.923,4.825,11.125,13.009c-2.096-0.439-3.528-0.742-4.956-1.041
	c-2.599-0.542-5.997-2.152-7.098,1.354c-1.09,3.467,2.902,3.921,5.008,5.458c2.712,1.973,7.313,0.833,8.839,5.761
	c-4.393,1.85-8.275,0.447-12.274-0.967c-2.139-0.759-5.061-1.551-6.134,1.252c-1.069,2.796,1.551,4.326,3.708,5.117
	c8.919,3.257,18.12,5.076,27.683,4.52c-1.02,31.387,2.482,62.451,6.595,93.475c-4.667-0.141-9.353-0.584-13.991-0.316
	c-3.837,0.218-8.357,3.349-5.614,6.461c6.148,6.975-0.731,8.347-3.577,11.399c-4.263,4.568-6.243,7.967,2.684,7.864l0.01,0.011
	c0.862,2.937-3.819,6.482-0.133,8.521c3.911,2.16,6.352-1.835,8.396-4.582c4.424-5.94,8.582-12.085,12.852-18.149
	c7.428,8.097,6.137,19.137,9.651,28.56c-36.293,0.035-72.583,0.07-108.87,0.108c-9.341-37.523-15.19-75.393-14.466-114.285
	c1.618-87.369,22.939-168.686,70.744-242.64c14.224-22,31.725-41.003,48.821-60.502C395.556,144.12,400.507,141.514,401.077,135.735
	z"/>
<path fill-rule="evenodd" clip-rule="evenodd" fill="#75A491" d="M286.981,216.225c-14.266,21.44-28.534,42.885-42.8,64.325
	c-3.253-5.708-6.447-11.456-9.795-17.107c-1.438-2.43-3.651-5.09-6.552-3.451c-3.563,2.016-0.535,4.861,0.531,7.052
	c1.942,3.999,6.349,6.936,5.269,12.623c-1.304-0.084-2.406-0.031-3.446-0.256c-0.908-0.19-17.811,0.84-18.36,1.051
	c-9.348,3.56-3.19,5.617,0.911,6.855c8.206,2.476,16.896,3.365,24.55,7.635c-6.036,19.102-12.268,38.147-18.054,57.323
	c-6.595,21.866-11.055,44.189-12.904,66.987c-0.201,2.448-0.489,4.717-2.93,6.004c-6.035-2.743-11.898-6.049-18.176-8.069
	c-5.779-1.86-12.81-10.927-16.984-3.59c-2.5,4.403,8.751,6.496,14.019,9.299c2.079,1.105,4.71,1.812,4.105,4.815
	c-0.493,2.461-2.997,1.952-4.833,2.384c-5.35,1.256-10.766,2.322-15.971,4.031c-2.792,0.915-6.809,2.339-5.167,6.458
	c1.754,4.389,4.66,1.934,7.695,0.594c4.259-1.881,8.926-2.902,13.499-3.946c1.361-0.313,3.545,0.024,4.365,0.942
	c1.604,1.801,0.109,3.605-1.259,5.065c-1.625,1.723-3.479,3.26-4.924,5.117c-1.488,1.913-5.505,3.714-2.206,6.573
	c2.609,2.265,4.977-0.594,7.083-2.332c6.341-5.223,10.499-12.957,18.599-16.155c2.621,9.901-1.389,19.46-1.492,29.214
	c-0.313,29.237,4.157,57.762,13.077,85.61c1.428,4.457,2.368,9.071,3.535,13.611c-27.786,1.213-55.5,0.042-83.184-2.314
	c-0.225-19.274-8.642-36.613-13.523-54.713c-7.108-26.35-11.885-53.164-11.973-80.067c-0.204-62.932,19.671-118.53,64.786-164.349
	c29.421-29.874,60.463-57.417,96.201-79.49c3.686-2.279,7.026-5.114,11.624-5.311c-1.562,7.903,5.335,14.533,3.956,22.341
	c-2.363,0.594-3.376-0.439-4.435-1.695c-1.977-2.353-4.351-5.846-7.492-2.718c-2.582,2.563,1.167,4.801,2.592,6.802
	C280.074,207.798,283.605,211.955,286.981,216.225z"/>
<path fill-rule="evenodd" clip-rule="evenodd" fill="#75A491" d="M512.282,134.005c2.912-0.366,5.824-0.731,8.729-1.102
	c20.801,12.229,39.522,27.139,55.578,45.107c18.281,20.467,37.183,40.623,47.045,67.051c-5.539,0.939-11.695-8.793-15.208-2.036
	c-2.944,5.652,6.81,5.051,10.171,8.177c0.507,0.471,0.665,1.308,0.988,1.991c-2.402,3.292-8.746-0.866-9.446,4.459
	c-0.603,4.576,5.413,2.561,6.64,4.671c6.454,11.11,13.767,2.796,20.77,1.365c1.206,12.084,8.124,22.087,12.151,33.146
	c11.593,31.851,20.613,64.258,22.893,98.254c-8.335-0.875-14.979-8.458-24.869-6.654c2.311,8.402,12.65,6.7,15.915,14.23
	c-6.588,1.738-12.624,3.056-18.455,4.994c-2.613,0.865-7.509,0.563-6.523,5.076c0.949,4.333,4.906,2.62,7.881,1.945
	c2.755-0.626,5.48-2.765,8.607,0.024c-1.115,0.897-1.98,1.618-2.87,2.308c-2.469,1.917-8.294,2.476-5.371,6.929
	c2.136,3.246,6.683,0.654,9.638-1.182c6.316-3.929,12.408-8.22,18.591-12.362c3.345,34.126,3.485,68.348,3.015,102.591
	c-3.982-1.633-7.936-3.345-11.955-4.867c-3.45-1.306-8.058-4.974-10.213-0.169c-1.875,4.167,3.942,4.758,6.688,6.556
	c2.107,1.382,5.758,0.384,6.426,4.256c-3.119,2.385-6.752,0.688-10.056,1.305c-2.757,0.514-5.996,0.921-5.655,4.533
	c0.307,3.222,3.524,2.413,5.709,2.494c4.002,0.144,8.015,0.043,12.021,0.043c-4.253,4.41-8.701,6.734-13.246,8.873
	c-3.264,1.537-9.345,1.506-6.517,7.111c2.62,5.205,6.844,0.718,10.186-0.56c5.455-2.089,10.115-6.285,16.411-6.133
	c0.13,10.252,0.256,20.508,0.387,30.761c-25.534,0.045-51.069,0.119-76.607,0.105c-3.07-0.004-6.358,0.457-8.926-2.013
	c0.006-21.622,2.146-43.289,1.859-64.778c-0.583-43.869-2.655-87.738-8.43-131.411c-4.98-37.651-7.994-75.614-17.224-112.538
	C557.928,212.19,545.674,168.142,512.282,134.005z"/>
<path fill-rule="evenodd" clip-rule="evenodd" fill="#4F8A73" d="M385.736,525.447c-4.112-31.023-7.615-62.087-6.592-93.471
	c13.675-4.069,13.981-5.156,4.893-15.236c-2.047-2.272-3.553-5.029-5.308-7.562c1.748-31.106,3.496-62.211,5.248-93.313
	c10.477-11.501,7.104-26.41,9.602-39.85c0.394-2.106-2.56-2.384-4.583-2.198c5.117-41.33,11.947-82.329,23.575-122.41
	c1.196-4.125,1.766-8.427,2.631-12.644c11.793,3.334,23.586,1.478,35.375-0.018c-7.914,24.455-3.38,49.803-4.006,74.57
	c-1.456,57.762-8.652,115.183-8.526,173.043c0.035,15.532-1.818,31.376-1.449,47.045c1.038,44.098-3.37,87.956-4.818,131.938
	c-11.923-0.042-23.846-0.085-35.766-0.127c-3.514-9.423-2.223-20.463-9.651-28.56C386.154,532.918,385.947,529.183,385.736,525.447z
	"/>
<path fill-rule="evenodd" clip-rule="evenodd" fill="#4F8A73" d="M512.282,134.005c33.392,34.137,45.646,78.186,56.728,122.551
	c9.229,36.923,12.243,74.887,17.224,112.538c5.774,43.672,7.847,87.542,8.43,131.411c0.286,21.489-1.854,43.156-1.859,64.778
	c-18.029,2.445-36.11,1.907-54.195,0.908c1.866-19.319,3.523-38.653,5.754-57.928c0.499-4.326,1.237-8.444-0.019-12.672
	c1.354-5.058,1.579-10.157,0.454-15.293c1.952-3.061,3.007-6.319,2.962-10.034c-0.391-33.438,1.723-66.956-3.18-100.245
	c3.978-5.807,3.025-10.878-2.287-15.299c-1.329-30.546-7.396-60.368-14.501-89.955c-3.71-15.454-6.305-31.327-13.379-45.835
	c1.312-5.064-1.093-8.599-4.776-11.606c-4.945-23.431-16.941-43.841-27.715-64.778c-1.059-2.061-1.909-4.224-2.855-6.338
	C490.205,136.459,501.045,132.218,512.282,134.005z"/>
<path fill-rule="evenodd" clip-rule="evenodd" fill="#1C1B1D" d="M374.773,719.183c-14.051,3.488-27.588,2.588-40.37-4.731
	c-0.81-0.844-1.622-1.688-2.431-2.528l0.373,0.092c-13.84-28.278-12.169-55.201,7.009-80.606
	c13.059-4.495,26.217-7.199,39.803-2.215c1.056,1.646,2.343,3.189,3.138,4.951C398.077,669.164,400.314,700.161,374.773,719.183z"/>
<path fill-rule="evenodd" clip-rule="evenodd" fill="#1C1B1D" d="M592.289,629.193c13.672-6.029,27.354-7.288,41.053-0.07
	c11.912,28.065,10.238,55.676-2.8,82.901c-11.04,4.063-22.066,2.547-33.096-0.06c-0.768-0.802-1.537-1.601-2.308-2.402l0.243,0.169
	c-18.047-23.818-17.892-49.32-7.007-75.812l-0.285,0.13c0.834-0.875,1.661-1.748,2.49-2.62c0-0.004-0.196,0.168-0.193,0.172
	C591.023,630.801,591.653,629.998,592.289,629.193z"/>
<path fill-rule="evenodd" clip-rule="evenodd" fill="#F79770" d="M329.989,743.07c11.381-0.295,22.622-1.438,31.583,8.79
	c10.523,12.007,9.687,23.645-4.671,30.316c-16.882,7.848-34.397,7.33-51.304-0.457c-8.807-4.055-15.138-10.935-13.39-21.384
	c1.801-10.728,9.911-15.796,20.051-17.132C318.076,742.44,324.073,743.07,329.989,743.07z"/>
<path fill-rule="evenodd" clip-rule="evenodd" fill="#1C1B1D" d="M499.082,807.57c-24.261-0.4-49.328-25.526-49.184-49.295
	c0.032-5.259,1.727-9.665,7.502-10.341c5.431-0.63,7.707,3.155,8.333,7.977c1.097,8.459,4.643,15.939,9.506,22.731
	c12.085,16.864,32.186,16.657,44.296-0.176c5.219-7.253,7.786-15.419,9.273-24.089c0.897-5.23,2.36-10.864,9.205-9.999
	c6.756,0.858,6.914,6.626,6.611,11.951C543.117,782.8,520.747,807.93,499.082,807.57z"/>
<path fill-rule="evenodd" clip-rule="evenodd" fill="#F79770" d="M634.894,781.021c-12.641-0.021-24.754-1.903-31.862-13.918
	c-5.659-9.57-1.621-21.057,8.188-25.994c12.538-6.313,37.442-2.498,47.716,7.314c10.946,10.45,9.616,21.065-3.553,28.366
	C648.04,780.861,647.361,780.999,634.894,781.021z"/>
<path fill-rule="evenodd" clip-rule="evenodd" fill="#FFFFFF" d="M374.773,719.183c25.541-19.021,23.304-50.019,7.523-85.038
	c-0.795-1.762-2.082-3.306-3.138-4.951c19.802,3.576,36.762,26.381,35.569,47.828C413.475,699.507,396.98,716.913,374.773,719.183z"
	/>
<path fill-rule="evenodd" clip-rule="evenodd" fill="#FFFFFF" d="M630.542,712.024c13.038-27.226,14.712-54.836,2.8-82.901
	c14.589,3.126,23.182,12.517,27.079,26.47C666.381,676.948,651.547,704.79,630.542,712.024z"/>
<path fill-rule="evenodd" clip-rule="evenodd" fill="#FFFFFF" d="M339.355,631.408c-19.179,25.405-20.849,52.328-7.009,80.606
	c-19.668-7.91-29.044-37.905-18.757-60.204C318.72,640.693,325.431,631.469,339.355,631.408z"/>
<path fill-rule="evenodd" clip-rule="evenodd" fill="#FFFFFF" d="M588.375,633.92c-10.885,26.491-11.04,51.993,7.007,75.812
	c-14.529-3.274-29.563-22.541-30.694-39.343C563.541,653.369,571.849,640.573,588.375,633.92z"/>
<path fill-rule="evenodd" clip-rule="evenodd" fill="#FFFFFF" d="M592.289,629.193c-0.636,0.805-1.266,1.607-1.902,2.408
	C591.017,630.796,591.653,629.998,592.289,629.193z"/>
<path fill-rule="evenodd" clip-rule="evenodd" fill="#FFFFFF" d="M595.139,709.563c0.771,0.802,1.54,1.601,2.308,2.402
	C596.676,711.163,595.909,710.364,595.139,709.563z"/>
<path fill-rule="evenodd" clip-rule="evenodd" fill="#FFFFFF" d="M331.973,711.923c0.809,0.84,1.621,1.685,2.431,2.528
	C333.594,713.607,332.782,712.763,331.973,711.923z"/>
<path fill-rule="evenodd" clip-rule="evenodd" fill="#FFFFFF" d="M590.58,631.43c-0.829,0.872-1.656,1.745-2.49,2.62
	C588.921,633.175,589.751,632.302,590.58,631.43z"/>
<path fill-rule="evenodd" clip-rule="evenodd" fill="#75A491" d="M284.453,178.19c14.012-12.732,31.394-19.65,48.037-27.835
	c2.1-1.03,4.319-1.871,6.556-2.542c4.276-1.284,9.658-7.39,12.373-3.253c3.218,4.91-3.985,8.627-7.678,11.03
	c-13.161,8.557-20.814,22.246-31.942,32.618c-3.074,2.867-5.318,7.017-10.306,7.161c-1.568-3.728,2.336-9.641-3.306-11.371
	c-4.847-1.484-2.353,5.571-5.624,6.887C288.67,187.233,289.834,180.607,284.453,178.19z"/>
<path fill-rule="evenodd" clip-rule="evenodd" fill="#ADCABD" d="M203.246,436.453c-8.1,3.198-12.258,10.932-18.599,16.155
	c-2.106,1.737-4.474,4.597-7.083,2.332c-3.299-2.859,0.718-4.66,2.206-6.573c1.445-1.857,3.299-3.395,4.924-5.117
	c1.368-1.46,2.863-3.264,1.259-5.065c-0.819-0.918-3.003-1.255-4.365-0.942c-4.572,1.044-9.239,2.064-13.499,3.946
	c-3.035,1.34-5.941,3.795-7.695-0.594c-1.643-4.119,2.374-5.543,5.167-6.458c5.205-1.709,10.622-2.775,15.971-4.031
	c1.836-0.433,4.34,0.077,4.833-2.384c0.604-3.004-2.027-3.71-4.105-4.815c-5.268-2.803-16.52-4.896-14.019-9.299
	c4.175-7.337,11.206,1.73,16.984,3.59c6.278,2.02,12.141,5.326,18.176,8.069C203.344,428.997,203.294,432.726,203.246,436.453z"/>
<path fill-rule="evenodd" clip-rule="evenodd" fill="#ADCABD" d="M237.288,294.952c-7.654-4.27-16.344-5.16-24.55-7.635
	c-4.101-1.238-10.259-3.296-0.911-6.855c0.549-0.211,17.452-1.241,18.36-1.051c1.041,0.225,2.142,0.172,3.446,0.256
	c1.08-5.687-3.327-8.624-5.269-12.623c-1.066-2.191-4.094-5.036-0.531-7.052c2.901-1.639,5.114,1.021,6.552,3.451
	c3.348,5.652,6.542,11.399,9.795,17.107C243.925,286.328,246.559,293.486,237.288,294.952z"/>
<path fill-rule="evenodd" clip-rule="evenodd" fill="#ADCABD" d="M284.453,178.19c5.381,2.417,4.217,9.042,8.111,12.693
	c3.271-1.315,0.777-8.371,5.624-6.887c5.642,1.73,1.738,7.643,3.306,11.371c-3.749,7.709-0.354,20.389-14.511,20.856
	c-3.376-4.27-6.908-8.427-10.063-12.852c-1.425-2.001-5.174-4.238-2.592-6.802c3.141-3.127,5.515,0.365,7.492,2.718
	c1.059,1.256,2.072,2.29,4.435,1.695c1.379-7.808-5.518-14.438-3.956-22.341C283.021,178.524,283.738,178.373,284.453,178.19z"/>
<path fill-rule="evenodd" clip-rule="evenodd" fill="#FFFFFF" d="M120.385,293.243c1.08,0.904,3.13,1.791,1.551,3.373
	c-1.192,1.199-2.856,0.232-3.848-1.189C118.855,294.699,119.622,293.971,120.385,293.243z"/>
<path fill-rule="evenodd" clip-rule="evenodd" fill="#FFFFFF" d="M212.006,175.37c0.204,0.883,0.408,1.766,0.612,2.645
	c-0.64-0.44-1.28-0.886-1.923-1.326C211.127,176.246,211.563,175.806,212.006,175.37z"/>
<path fill-rule="evenodd" clip-rule="evenodd" fill="#ADCABD" d="M792.137,372.899c0.145,1.555,0.292,3.109,0.44,4.664
	c-3.553,8.477-11.171,13.024-18.079,18.061c-8.44,6.158-16.548,3.507-19.622-5.982c-1.329-4.094,2.262-4.213,4.703-5.131
	c5.437-2.047,11.229-3.482,15.563-9.76c-4.999-1.643-9.665-3.007-14.199-4.73c-2.69-1.024-5.159-3.042-3.815-6.247
	c1.321-3.166,3.963-1.154,6.031-0.475C772.827,366.466,782.479,369.695,792.137,372.899z M766.143,391.558
	c0.277-0.211,0.559-0.422,0.837-0.629c-0.236-0.254-0.472-0.507-0.711-0.76c-0.355,0.352-0.714,0.704-1.072,1.056
	C765.509,391.332,765.825,391.448,766.143,391.558z"/>
<path fill-rule="evenodd" clip-rule="evenodd" fill="#ADCABD" d="M721.007,240.085c10.586,3.267,20.279,7.221,16.41,21.518
	c-4.498,1.755-5.363,6.594-8.227,9.756c-2.458,2.718-3.766,8.761-8.389,5.765c-3.752-2.434,0.895-6.018,2.217-8.983
	c0.942-2.117,1.917-4.217,2.87-6.327c0.728-0.844,1.463-1.688,2.191-2.529c0.319-0.373,0.64-0.746,0.956-1.119
	c-0.366,0.327-0.729,0.654-1.09,0.978c-0.859,0.721-1.717,1.438-2.571,2.156c-5.406-0.412-9.082,6.767-15.289,3.629
	c0.105-5.599,4.868-6.746,8.142-9.26c1.812-1.393,4.4-2.821,3.556-5.479c-0.798-2.508-3.566-2.765-5.969-2.888
	c-1.966-0.098-3.935-0.066-5.901-0.168c-2.437-0.123-5.155-0.524-4.956-3.612c0.201-3.077,3.071-3.049,5.441-3.134
	C713.934,240.254,717.472,240.18,721.007,240.085z"/>
<path fill-rule="evenodd" clip-rule="evenodd" fill="#ADCABD" d="M645.022,171.438c9.577,0.397,17.396,6.232,26.382,8.554
	c5.424,1.396,5.269,5.986,4.076,10.492c-4.153,2.11-8.251,4.333-12.475,6.295c-4.802,2.23-11.026,6.419-14.522,0.725
	c-3.508-5.708-1.031-12.092,6.899-14.529C652.641,178.081,644.77,178.299,645.022,171.438z"/>
<path fill-rule="evenodd" clip-rule="evenodd" fill="#8FBCB4" d="M677.95,536.429c-6.296-0.152-10.956,4.044-16.411,6.133
	c-3.342,1.277-7.565,5.765-10.186,0.56c-2.828-5.605,3.253-5.574,6.517-7.111c4.545-2.139,8.993-4.463,13.246-8.873
	c-4.007,0-8.02,0.101-12.021-0.043c-2.185-0.081-5.402,0.728-5.709-2.494c-0.341-3.612,2.898-4.02,5.655-4.533
	c3.304-0.616,6.937,1.08,10.056-1.305c-0.668-3.872-4.318-2.874-6.426-4.256c-2.746-1.798-8.563-2.389-6.688-6.556
	c2.155-4.805,6.763-1.137,10.213,0.169c4.02,1.522,7.973,3.234,11.955,4.867C689.894,523.063,689.894,523.063,677.95,536.429z"/>
<path fill-rule="evenodd" clip-rule="evenodd" fill="#ADCABD" d="M675.136,410.396c-6.183,4.143-12.274,8.434-18.591,12.362
	c-2.955,1.836-7.502,4.428-9.638,1.182c-2.923-4.453,2.902-5.012,5.371-6.929c0.89-0.69,1.755-1.411,2.87-2.308
	c-3.127-2.789-5.853-0.651-8.607-0.024c-2.975,0.675-6.932,2.388-7.881-1.945c-0.985-4.513,3.91-4.21,6.523-5.076
	c5.831-1.938,11.867-3.256,18.455-4.994c-3.265-7.53-13.604-5.828-15.915-14.23c9.89-1.804,16.534,5.779,24.869,6.654
	C677.302,399.548,680.514,404.258,675.136,410.396z"/>
<path fill-rule="evenodd" clip-rule="evenodd" fill="#ADCABD" d="M637.549,263.688c-7.003,1.432-14.315,9.746-20.77-1.365
	c-1.227-2.11-7.242-0.095-6.64-4.671c0.7-5.325,7.044-1.167,9.446-4.459c-0.323-0.683-0.481-1.52-0.988-1.991
	c-3.361-3.126-13.115-2.525-10.171-8.177c3.513-6.757,9.669,2.975,15.208,2.036C627.929,251.53,639.799,252.335,637.549,263.688z"/>
<path fill-rule="evenodd" clip-rule="evenodd" fill="#F9B6AA" d="M460.535,109.589c-12.3,2.842-15.679-8.663-22.348-14.498
	c-3.193-2.796,0.665-6.138,4.009-6.099c8.234,0.102,14.034-1.646,13.534-11.62c-0.119-2.385,1.646-4.604,4.502-4.467
	c2.803,0.133,4.108,2.317,4.238,4.818c0.214,4.062,0.912,7.312,4.766,10.009c4.519,3.166,8.43,7.436,5.469,13.967
	C471.92,107.841,467.379,110.83,460.535,109.589z"/>
<path fill-rule="evenodd" clip-rule="evenodd" fill="#ADCABD" d="M542.293,354.719c5.313,4.421,6.265,9.492,2.287,15.299
	c-7.087,3.429-14.097,7.017-21.265,10.252c-6.553,2.958-6.63,2.793-6.774-4.424c-0.038-1.969-0.024-2.033-4.902-2.944
	c-2.194-0.408-5.379,0.299-5.255-3.039c0.099-2.691,2.824-3.363,5.247-3.704c7.556-1.055,15.106-2.135,24.723-3.499
	c-11.198-8.301-24.064-9.546-35.238-20.34C518.113,343.14,529.098,352.869,542.293,354.719z"/>
<path fill-rule="evenodd" clip-rule="evenodd" fill="#ADCABD" d="M544.798,480.298c1.125,5.136,0.9,10.235-0.454,15.293
	c-7.101,3.088-10.635,10.438-17.044,14.276c-2.515,1.505-6.038,4.72-8.374,1.72c-3.039-3.911,2.149-4.688,4.214-6.519
	c3.074-2.711,6.883-4.892,7.597-9.756c-5.075-1.62-7.818,2.051-11.325,3.243c-2.064,0.707-4.46,3.161-6.215,0.44
	c-1.924-2.99,0.499-5.186,2.923-6.639c3.658-2.189,7.487-4.093,11.209-6.101c-0.387-0.841-0.488-1.192-0.692-1.467
	c-2.729-3.693-12.258-2.097-10.098-7.267c2.605-6.243,9.461-0.525,14.448,0.242C535.607,478.47,540.197,479.444,544.798,480.298z"/>
<path fill-rule="evenodd" clip-rule="evenodd" fill="#ADCABD" d="M509.637,207.323c3.684,3.007,6.088,6.542,4.776,11.606
	c-6.426,4.537-12.841,9.085-19.276,13.608c-2.192,1.544-4.975,4.506-7.145,1.847c-2.838-3.489,1.563-5.149,3.57-7.168
	c1.576-1.583,4.597-1.699,4.826-4.984c-5.237-2.314-10.372,4.235-16.187-0.168c3.281-7.049,11.417-6.264,17.185-9.532
	c-2.444-4.484-7.114-3.95-10.059-6.229c-1.949-1.505-6.193-1.6-4.534-5.521c1.432-3.377,4.326-2.3,7.08-1.171
	C496.416,202.293,503.042,204.766,509.637,207.323z"/>
<path fill-rule="evenodd" clip-rule="evenodd" fill="#ADCABD" d="M378.729,409.178c1.755,2.532,3.26,5.29,5.308,7.562
	c9.088,10.081,8.782,11.167-4.893,15.236c-9.566,0.553-18.767-1.266-27.686-4.523c-2.156-0.791-4.776-2.321-3.708-5.117
	c1.073-2.803,3.996-2.012,6.134-1.252c3.999,1.414,7.882,2.817,12.274,0.967c-1.526-4.927-6.126-3.788-8.839-5.761
	c-2.106-1.538-6.099-1.991-5.008-5.458c1.101-3.507,4.499-1.896,7.098-1.354c1.428,0.299,2.86,0.602,4.956,1.041
	c-0.201-8.184-7.991-8.582-11.125-13.009c-1.383-1.956-3.215-4.021-0.904-6.17c1.878-1.744,3.549,0.141,5.058,1.309
	C364.51,398.156,371.618,403.667,378.729,409.178z"/>
<path fill-rule="evenodd" clip-rule="evenodd" fill="#ADCABD" d="M388.996,273.817c2.022-0.186,4.977,0.092,4.583,2.198
	c-2.497,13.439,0.875,28.349-9.602,39.85c-12.528-4.92-18.043-16.274-25.376-25.974c5.606-5.029,8.058,3.074,12.862,1.343
	c0.306-1.283,0.654-2.732,0.992-4.186c0.644-2.757-1.533-7.347,3.166-7.53c3.105-0.12,3.183,3.781,3.882,6.479
	c0.925,3.581,1.006,7.695,5.244,10.682C388.5,289.156,389.453,281.636,388.996,273.817z"/>
<path fill-rule="evenodd" clip-rule="evenodd" fill="#ADCABD" d="M385.736,525.447c0.211,3.735,0.418,7.471,0.626,11.209
	c-4.27,6.064-8.427,12.209-12.852,18.149c-2.043,2.747-4.484,6.742-8.396,4.582c-3.686-2.039,0.995-5.585,0.133-8.521
	c0.295-0.105,0.637-0.158,0.869-0.342c0.148-0.112,0.138-0.429,0.194-0.653c-0.359,0.327-0.714,0.656-1.073,0.984
	c-8.926,0.103-6.946-3.296-2.684-7.864c2.845-3.053,9.725-4.425,3.577-11.399c-2.743-3.112,1.776-6.243,5.614-6.461
	C376.383,524.863,381.068,525.307,385.736,525.447z M375.423,533.365c-0.06-0.271-0.035-0.672-0.204-0.789
	c-0.253-0.168-0.644-0.137-0.978-0.192c0.095,0.45,0.183,0.896,0.278,1.347C374.818,533.607,375.125,533.487,375.423,533.365z"/>
<path fill-rule="evenodd" clip-rule="evenodd" fill="#75A491" d="M766.143,391.558c-0.317-0.109-0.634-0.226-0.946-0.334
	c0.358-0.352,0.717-0.704,1.072-1.056c0.239,0.253,0.475,0.506,0.711,0.76C766.701,391.135,766.42,391.347,766.143,391.558z"/>
<path fill-rule="evenodd" clip-rule="evenodd" fill="#75A491" d="M728.083,259.285c-0.731,0.84-1.467,1.685-2.194,2.529
	c0.003,0.003-0.504-0.503-0.511-0.51c0.852-0.722,1.709-1.439,2.568-2.16L728.083,259.285z"/>
<path fill-rule="evenodd" clip-rule="evenodd" fill="#75A491" d="M727.946,259.145c0.361-0.324,0.724-0.651,1.09-0.978
	c-0.316,0.373-0.637,0.746-0.956,1.119C728.083,259.285,727.946,259.145,727.946,259.145z"/>
<path fill-rule="evenodd" clip-rule="evenodd" fill="#75A491" d="M375.423,533.365c-0.299,0.122-0.605,0.242-0.904,0.365
	c-0.095-0.451-0.183-0.896-0.278-1.347c0.334,0.056,0.724,0.024,0.978,0.192C375.388,532.693,375.364,533.094,375.423,533.365z"/>
<path fill-rule="evenodd" clip-rule="evenodd" fill="#75A491" d="M365.238,550.855c0.358-0.328,0.714-0.657,1.073-0.984
	c-0.056,0.225-0.046,0.541-0.194,0.653c-0.232,0.184-0.573,0.236-0.869,0.342L365.238,550.855z"/>
</svg>
