<?xml version="1.0" encoding="utf-8"?>
<!-- Generator: Adobe Illustrator 16.0.0, SVG Export Plug-In . SVG Version: 6.00 Build 0)  -->
<!DOCTYPE svg PUBLIC "-//W3C//DTD SVG 1.1//EN" "http://www.w3.org/Graphics/SVG/1.1/DTD/svg11.dtd">
<svg version="1.1" id="Layer_1" xmlns="http://www.w3.org/2000/svg" xmlns:xlink="http://www.w3.org/1999/xlink" x="0px" y="0px"
	 width="928px" height="928px" viewBox="0 0 928 928" enable-background="new 0 0 928 928" xml:space="preserve">
<path fill-rule="evenodd" clip-rule="evenodd" fill="#F9B6AA" d="M570.845,501.979c30.637,3.368,61.517,0.593,92.192,3.864
	c17.648,1.879,21.966,4.965,22.412,22.813c0.905,35.982-0.936,71.887-3.398,107.798c-1.916,27.916-4.438,55.75-9.012,83.316
	c-6.034,36.394-11.332,72.956-27.661,106.863c-19.522,40.527-50.488,66.684-94.505,75.278
	c-65.035,12.697-129.914,11.055-193.483-8.803c-29.279-9.146-55.124-24.808-72.278-51.29c-15.265-23.563-22.97-50.197-27.691-77.65
	c-6.508-37.853-8.642-76.136-10.781-114.422c-2.24-40.074-3.952-80.155-3.708-120.302c0.125-20.774,2.496-23.188,23.338-23.264
	c26.686-0.091,53.373,0.026,80.058-0.052c3.708-0.013,7.697,1.017,10.951-1.877c3.401,1.089,6.788,2.366,10.421,0.958
	c14.368-0.039,28.735-0.078,43.102-0.113c30.032-0.46,60.065-0.923,90.095-1.385c10.664-0.023,21.344,0.276,31.988-0.16
	C545.536,503.035,558.312,505.264,570.845,501.979z M446.333,649.846c-4.166,0.456-7.227,2.99-9.012,6.327
	c-9.958,18.61-14.107,38.061-7.507,58.835c5.293,20.266,27.445,26.879,38.941,23.344c18.111-5.568,32.092-35.08,25.699-55.498
	c-1.166-11.244-5.343-21.006-14.062-28.525C471.577,645.655,459.115,644.014,446.333,649.846z M515.053,627.827
	c4.474,1.583,7.918-5.063,8.579-2.326c2.304,9.553,5.49,5.591,10.384,2.485c1.863-1.183,6.135-0.335,8.185,2.825
	c1.036,1.6,3.417,2.678,4.099,0.831c3.785-10.247,18.76-2.277,21.634-13.577c10.306,2.835,7.858-6.235,10.084-10.882
	c0.863-1.802,2.101-3.845,0.182-5.702c-2.303-2.225-4.779-0.501-6.686,0.502c-5.477,2.896-10.644,6.38-16.046,9.423
	c-18.004,10.139-35.051,6.578-47.578-9.765c-1.333-1.743-1.809-4.656-5.562-4.226c-2.307,6.559,5.343,11.95,2.567,18.519
	c-0.114,0.268,1.492,1.845,2.033,1.714C516.356,615.342,514.519,622.568,515.053,627.827z M374.394,630.72
	c3.691-2.665,5.649-10.481,10.063-2.385c0.667,1.226,2.385,2.209,3.377,1.043c6.22-7.292,17.884,2.235,23.334-7.702
	c0.837-1.525,3.577-1.727,5.697-0.548c2.21,1.231,4.445,0.994,3.919-2.026c-0.811-4.666,3.278-5.102,5.041-7.532
	c3.144-4.327,9.67-10.28,5.693-14.818c-4.221-4.815-8.369,2.802-12.427,5.245c-0.576,0.346-0.993,0.952-1.5,1.421
	c-18.799,17.337-37.278,17.623-57.172,1.063c-2.54-2.114-4.698-6.054-8.603-4.415c-1.989,10.091,9.991,12.723,9.618,21.48
	c-0.013,0.319,2.061,1.284,2.471,0.987C373.469,615.642,372.249,625.006,374.394,630.72z M382.48,678.526
	c3.804,0,7.683,0.47,11.396-0.114c5.096-0.801,8.987-3.789,10.39-8.995c1.362-5.061-1.385-9.019-5.062-11.642
	c-10.467-7.461-22.021-9.781-34.158-4.555c-9.626,4.147-10.646,15.244-2.466,21.692C368.601,679.657,375.601,678.8,382.48,678.526z
	 M548.784,676.751c4.447-0.144,8.853,0.127,13.238-1.496c9.794-3.619,11.771-11.791,4.304-18.926
	c-6.722-6.422-26.094-9.045-34.285-4.64c-9.585,5.151-10.42,13.742-1.844,20.311C535.671,676.19,542.121,676.976,548.784,676.751z"
	/>
<path fill-rule="evenodd" clip-rule="evenodd" fill="#236252" d="M441.944,190.432c1.619,4.99,6.381,8.531,6.549,14.192
	c-4.436,0-8.872,0.086-13.305-0.023c-7.759-0.19-8.805,3.336-5.635,9.605c5.182,10.245,10.584,11.346,23.728,4.649
	c3.779,7.967,6.099,16.276,5.852,25.18c0.119,2.183,0.234,4.366,0.354,6.549c-12.018,16.398-22.511,33.72-31.472,51.967
	c-6.65-4.099-6.492-11.672-9.082-17.835c-1.567-3.722-3.938-7.114-8.229-6.379c-4.157,0.71-5.483,4.373-5.837,8.574
	c-1.266,15.132,2.554,20.567,18.72,25.858c-7.965,20.52-14.009,41.667-20.367,62.708c-4.518-1.952-8.526-10.96-13.951-1.818
	c-3.918,6.603-9.646,6.42-15.83,6.492c-10.4,0.115-21.975-4.006-29.077,8.333c-1.25,2.173-4.205,3.46-6.532,4.897
	c-5.234,3.229-10.574,7.445-13.585-2.608c-1.28-4.279-5.354-7.124-8.176-2.207c-4.951,8.629-14.428,7.296-21.222,11.55
	c-4.095-13.617-7.748-27.332-9.025-41.561c5.541-0.089,12.19,1.025,9.989-8.254c-0.865-3.644,1.033-4.283,3.827-4.221
	c6.339,0.14,11.221-1.958,14.855-7.595c2.364-3.666,7.326-5.509,10.952-3.788c9.682,4.599,14.813-12.692,24.682-4.524
	c0.722-1.167,1.606-2.264,2.132-3.512c1.36-3.221,4.324-5.417,7.123-5.438c9.106-0.077,17.405-1.069,23.126-9.401
	c1.01-1.47,3.224-0.424,4.767,0.456c7.259,4.147,11.565,2.139,13.639-6.01c2.36-9.274-3.384-23.27-6.482-20.92
	c-5.896,4.47-14.893,2.203-17.651,7.015c-3.214,5.612-5.974,6.873-11.677,6.962c-6.454,0.099-12.731,2.315-18.17,5.904
	c-10.188,6.721-20.328,12.542-33.283,7.734c-3.073-1.139-6.295,0.085-6.477,4.452c-0.125,2.965-0.608,5.635-4.504,5.539
	c-3.359-0.082-3.462-2.599-3.988-5.022c-0.836-3.846-2.076-7.833-7.181-7.039c-5.728,0.888-4.912,5.658-5.202,9.779
	c-0.324,4.555,1.989,10.006-3.945,12.864c-2.887-22.951-1.802-45.781,2.139-68.522c6.802-1.04,13.51-2.84,20.497-2.281
	c7.021,0.56,13.81-0.074,19.938-4.048c16.325-10.587,34.044-16.76,53.671-16.66c3.437,0.02,5.41-2.685,7.932-3.679
	c5.382-2.123,6.495-10.31,12.713-9.367c4.509,0.685,8.09-1.273,12.125-1.482c8.484-0.443,3.685-7.186,5.257-10.877
	c1.982-4.657-1.008-7.432-4.558-9.063c-3.995-1.834-8.297-1.847-10.934,2.625c-3.553,6.026-7.648,6.278-12.615,1.772
	c-4.731-4.292-8.054-3.434-13.129,1.013c-5.29,4.635-10.571,13.12-20.7,6.778c-3.467-2.17-8.978-1.321-12.29,2.815
	c-3.09,3.86-7.576,3.843-11.739,5.313c-9.523,3.362-21.425,0.71-28.486,10.876c-2.624-7.451-7.25-8.903-13.718-5.008
	c1.197-13.31,3.453-26.443,6.531-39.443c5.081-0.467,10.113,0.34,15.266-1.523c14.176-5.133,25.187-18.541,42.269-16.221
	c1.392,0.189,3.481-1.09,4.481-2.31c6.19-7.549,13.251-11.178,23.713-9.965c13,1.507,23.344-7.438,34.836-11.869
	C424.348,165.087,433.146,177.76,441.944,190.432z"/>
<path fill-rule="evenodd" clip-rule="evenodd" fill="#74A38F" d="M500.896,503.713c-30.029,0.462-60.063,0.925-90.095,1.388
	c1.146-5.725-2.453-10.784-2.291-16.362c5.967,1.446,12.677-0.938,18.008,4.372c1.601,1.594,5.982,1.187,7.521-1.407
	c4.723-7.96,11.811-5.695,18.148-4.135c6.358,1.567,8.013,0.697,5.089-5.532c-1.168-2.492-1.872-5.2-3.002-7.712
	c-0.942-2.095-1.59-5.412-4.663-4.45c-2.6,0.811-6.559,0.364-7.121,4.772c-0.218,1.718,1.245,4.158-1.562,5.181
	c-9.152-14.563-13.999-15.67-20.775-5.203c-0.899-6.885-1.733-14.067-2.802-21.215c-0.804-5.368-3.879-5.941-8.125-3.39
	c-0.526-0.831-1.575-1.713-1.502-2.487c1.849-19.354,3.817-38.695,5.762-58.037c2.489,2.23,6.8-3.819,8.541,1.893
	c1.024,3.359,2.098,6.966,6.583,6.63c4.403-0.327,6.288-3.631,7.575-7.428c0.736-2.175,1.158-4.619,3.527-5.883
	c4.968,1.331,5.244,10.939,10.201,8.546c6.935-3.343,13.177-0.676,19.648-1.321c7.278-0.729,7.129-6.854,7.041-11.688
	c-0.068-3.788-0.955-7.733-7.687-6.492c-4.616,0.849-10.963-0.958-14.166-5.589c-7.648-11.062-18.249-15.743-31.227-16.164
	c3.304-11.64,7.116-23.056,14.349-32.985c2.729,0.041,5.467,0.563,8.052-1.007c9.611-5.835,19.444-5.56,27.022,3.114
	c8.758,10.027,20.973,7.236,31.444,10.303c4.942,1.445,7.738,1.648,8.726,7.213c1.466,8.245,6.725,10.146,12.296,4.276
	c2.389-2.52,4.691-2.818,5.604-0.92c2.923,6.088,10.022,9.291,12.146,14.499c3.108,7.621,4.568,10.562,11.313,3.752
	c1.785-1.803,3.933-2.302,5.936,0.625c8.804,12.858,13.646,14.181,27.35,7.932c2.651,7.87,5.818-2.571,8.614,0.243
	c0.078,3.015-1.649,4.928-3.969,6.475c-7.483-0.746-12.72,3.98-16.473,8.915c-7.774,10.209-14.336,21.342-21.394,32.096
	c-7.2,5.705-13.56,12.076-16.668,21.024c-6.998,5.361-10.804,12.948-14.397,20.679c-5.842,9.175-11.684,18.35-17.76,27.896
	c-1.206-3.239-0.772-7.693-5.507-6.253c-6.522,1.984-12.521,1.485-19.111-0.424c-5.634-1.629-8.289,2.021-6.289,7.973
	c2.835,8.429,9.681,8.898,16.845,8.272C497.714,495.173,502.103,496.089,500.896,503.713z M488.991,389.735
	c-0.798-4.4-0.771-7.285-1.876-9.639c-1.646-3.5-4.154-3.226-6.148-0.029c-2.736,4.382,0.01,19.734,2.613,23.784
	c2.984,4.646,6.259-2.53,9.699,1.684c6.037,7.393,12.055,16.818,24.56,11.743c0.72-0.292,2.219,1.42,3.389,2.14
	c4.206,2.592,8.823,1.429,13.094,0.743c3.418-0.549,6.37-3.585,7.129-6.858c0.802-3.447-2.587-5.794-5.428-6.575
	c-4.705-1.292-6.659-4.563-8.109-8.543c-0.759-2.083,0.642-5.324-2.694-5.974c-3.379-0.66-4.564,2.25-6.214,4.463
	c-1.983,2.67-3.913,6.667-7.966,4.964c-3.258-1.367-4.499-5.022-4.392-8.709c0.137-4.758-0.244-8.3-6.373-9.866
	C494.396,381.561,491.387,383.343,488.991,389.735z M459.136,433.517c6.324,3.854,5.476,13.565,14.78,14.363
	c10.484,0.897,19.702,4.387,26.848,12.746c2.098,2.454,6.219,4.369,9.239,2.248c2.213-1.551,4.206-5.32,4.024-7.945
	c-0.3-4.323-5.139-3.675-8.194-4.317c-2.672-0.561-5.432,1.984-8.113-1.727c-6.757-9.339-19.62-9.082-27.771-16.756
	C467.798,430.101,463.463,430.705,459.136,433.517z M469.104,484.828c-0.147-2.736-1.398-4.718-4.083-5.196
	c-2.621-0.47-3.708,1.277-3.677,3.633c0.034,2.577,0.989,4.867,3.835,5.245C467.681,488.843,468.762,487.061,469.104,484.828z"/>
<path fill-rule="evenodd" clip-rule="evenodd" fill="#74A38F" d="M619.505,310.901c-0.059,6.604-4.467,11.247-7.458,16.528
	c-0.873-0.528-2.404-0.943-2.515-1.597c-2.372-14.208-12.146-20.396-24.801-24.451c-5.429-1.738-9.794-6.588-15.144-8.807
	c-5.444-2.258-8.602-5.056-8.771-11.25c-0.149-5.373-3.59-7.886-8.95-7.916c-4.845-0.026-9.686-0.228-14.527-0.335
	c-3.728-0.082-7.188-0.814-7.5-5.344c-0.417-5.959-4.575-5.713-8.898-7.52c-5.815-2.426-17.258,2.343-16.658-11.147
	c0.186-4.24-5.441-3.752-8.452-2.157c-4.672,2.477-9.158,6.026-7.22,12.233c1.316,4.212,4.854,4.402,8.432,2.115
	c1.665-1.067,3.976-3.366,5.246-0.87c4.297,8.479,12.876,11.172,19.988,15.883c15.063,9.981,25.798,26.566,46.177,28.491
	c-8.517,12.312-7.584,14.622,5.995,16.924c2.053,0.351,3.018,1.158,3.757,2.811c2.851,6.361,7.236,8.028,13.303,4.243
	c2.643-1.65,4.659-0.544,6.366,1.414c2.857,3.268,6.536,3.557,10.449,3.201c-6.031,11.667-11.618,23.594-19.969,33.897
	c-0.202-5.833-5.946-8.926-6.826-14.753c-1.606-10.652-7.471-14.761-17.245-11.104c-9.396,3.516-12.863-2.305-12.681-8.362
	c0.385-12.873-5.203-5.483-9.445-3.696l0.121,0.101c0.123-1.369,0.257-2.738,0.371-4.107c0.41-4.843,6.985-10.063-0.463-14.424
	c-6.483-3.797-11.813-1.652-15.912,4.236c-2.216,3.188-4.529,2.834-7.917,1.388c-4.953-2.114-9.43-3.24-10.928-9.97
	c-1.323-5.946-5.973-12.073-12.675-11.793c-6.353,0.264-5.669,7.519-7.128,12.273c-0.443,1.452-1.467,2.727-2.223,4.084
	c0.417-5.729-6.712-8.554-4.854-14.539c1.544-4.972-0.307-7.213-5.858-5.333c-4.548,1.54-5.287-0.761-4.538-4.868
	c1.926-10.54,1.805-10.563-6.98-11.347c0.844-2.231,1.163-4.908,2.614-6.632c13.316-15.803,26.831-31.442,40.29-47.13
	c1.893,0.886,9.27-2.67,3.558,4.357c-1.551,1.909-3.408,3.693-1.349,6.236c1.431,1.766,3.564,2.414,5.542,1.409
	c3.333-1.698,5.285,0.534,8.1,1.508c7.839,2.716,16.082,8.3,24.484,0.984c-3.092,5.738,6.872,5.381,4.943,10.61
	c-1.857,5.029,1.195,7.425,4.887,10.04c10.172,7.204,14.665,22.181,30.242,21.999c0.99,8.039,7.301,7.933,13.013,8.13
	c9.599,0.331,16.431,3.73,17.776,14.207C617.566,304.234,611.278,309.164,619.505,310.901z"/>
<path fill-rule="evenodd" clip-rule="evenodd" fill="#236252" d="M408.503,488.731c-0.154,5.585,3.444,10.645,2.299,16.369
	c-14.367,0.032-28.733,0.071-43.1,0.11c4.277-8.366,4.467-21.891,20.208-15.76c1.843,0.721,4.123-0.303,5.342-2.251
	c1.717-2.75-0.365-4.496-1.975-6.184c-2.836-2.978-5.701-5.949-8.774-8.673c-2.375-2.111-4.419-6.996-8.095-4.412
	c-4.162,2.926-12.578,2.392-10.965,11.137l-0.135,0.137c-4.441-1.89-9.311-10.159-12.844-5.129
	c-5.612,7.982-11.947,4.686-18.306,5.103c-10.465-12.14-18.926-25.428-23.519-40.939c8.245-3.69,10.606-14.833,21.2-16.001
	c5.534-0.611,10.104-4.335,11.979-10.189c1.03-3.214,3.811-3.926,6.484-4.307c6.71-0.963,15.569,4.288,18.755-6.718
	c0.045-0.163,2.103-0.139,2.851,0.358c9.463,6.283,19.964,2.671,30.014,3.266c0.727,20.689-0.356,41.468,3.066,62.021
	c-2.012-0.373-4.182-0.389-5.993-1.205c-2.654-1.196-5.454-4.951-7.881-1.013c-2.424,3.934,0.317,8.466,3.892,9.293
	C401.552,475.731,405.089,481.948,408.503,488.731z"/>
<path fill-rule="evenodd" clip-rule="evenodd" fill="#99CCB7" d="M402.989,466.669c-3.422-20.553-2.339-41.332-3.063-62.021
	c1.1-9.724,2.198-19.448,3.294-29.171c6.358-21.041,12.402-42.188,20.367-62.708c2.797-2.836,3.409-6.615,4.428-10.217
	c8.961-18.247,19.454-35.569,31.47-51.967c8.104-5.453,17.149-10.118,18.211-21.53c5.2-6.876,11.619-12.555,17.988-18.286
	c3.145,0.335,4.956-0.863,4.884-4.232l-0.088,0.161c0.739-0.812,1.476-1.621,2.216-2.432c15.107-13.072,30.213-26.145,45.316-39.218
	c7.377-0.865,10.505-7.373,15.219-11.69c1.906-1.748,5.91-3.926,1.548-7.36c12.518-12.856,19.836-29.355,30.47-43.533
	c0.397,2.859,0.795,5.72,1.192,8.58c-2.866,8.921-5.74,17.843-8.61,26.767c-4.982,8.481-10.671,16.436-17.024,23.968
	c-3.623,4.296-9.236,7.261-9.882,13.723c-4.411,0.238-7.653,2.703-10.709,5.57c-8.24,7.729-16.509,15.434-24.765,23.147
	c-6.458,5.684-12.915,11.368-19.373,17.053c-13.459,15.688-26.974,31.327-40.29,47.13c-1.451,1.724-1.771,4.4-2.614,6.634
	c-13.48,11.757-19.875,27.588-25.299,43.977c-7.233,9.929-11.045,21.345-14.347,32.986c-7.909,11.278-9.542,24.232-10.038,37.495
	c-1.945,19.342-3.913,38.683-5.762,58.037c-0.073,0.774,0.976,1.657,1.5,2.487c-1.846,6.122-1.989,12.435-2.136,18.747
	c-1.002-0.176-2.002-0.349-3.002-0.524C403.82,467.648,403.453,467.127,402.989,466.669z"/>
<path fill-rule="evenodd" clip-rule="evenodd" fill="#306F56" d="M437.874,319.014c5.425-16.389,11.819-32.22,25.299-43.977
	c8.785,0.782,8.906,0.805,6.98,11.345c-0.749,4.107-0.01,6.407,4.538,4.868c5.552-1.88,7.402,0.362,5.858,5.333
	c-1.857,5.985,5.271,8.81,4.854,14.539c0.756-1.357,1.779-2.632,2.223-4.084c1.459-4.755,0.775-12.009,7.128-12.273
	c6.702-0.28,11.352,5.847,12.675,11.793c1.498,6.729,5.975,7.855,10.928,9.97c3.388,1.447,5.701,1.8,7.917-1.388
	c4.099-5.888,9.429-8.033,15.912-4.236c7.448,4.361,0.873,9.581,0.463,14.424c-0.114,1.369-0.248,2.738-0.371,4.107
	c-0.828,0.722-2.652,1.171-0.717,2.637c0.202-0.911,0.397-1.825,0.596-2.738c4.242-1.787,9.83-9.176,9.445,3.696
	c-0.183,6.057,3.284,11.877,12.681,8.362c9.774-3.657,15.639,0.451,17.245,11.104c0.88,5.827,6.624,8.919,6.826,14.753
	c-0.196,0.52-0.392,1.038-0.593,1.553c-13.704,6.249-18.546,4.926-27.35-7.932c-2.003-2.927-4.15-2.429-5.936-0.625
	c-6.744,6.81-8.204,3.869-11.313-3.752c-2.124-5.208-9.224-8.411-12.146-14.499c-0.912-1.898-3.215-1.6-5.604,0.92
	c-5.571,5.87-10.83,3.969-12.296-4.276c-0.987-5.564-3.783-5.768-8.726-7.213c-10.472-3.066-22.687-0.275-31.444-10.303
	c-7.578-8.674-17.411-8.95-27.022-3.114C443.341,319.577,440.602,319.054,437.874,319.014z"/>
<path fill-rule="evenodd" clip-rule="evenodd" fill="#74A38F" d="M587.83,137.812c2.87-8.924,5.744-17.846,8.61-26.767
	c11.124,4.009,15.991,18.043,29.435,18.412c0.413,0.013,0.983,0.984,1.179,1.603c3.47,11.042,13.951,15.834,21.034,23.65
	c4.849,19.233,5.549,38.75,3.982,58.42c-17.637-1.294-24.625-19.06-39.088-25.259l0.055,0.125c-0.071-1.357-0.143-2.712-0.211-4.071
	c-1.15-2.984-3.203-5.08-6.181-6.256c-10.739,2.84-15.177,0.437-11.664-6.727c6.076-12.382-9.689-20.599-4.308-32.038
	C589.726,138.54,588.777,138.175,587.83,137.812z"/>
<path fill-rule="evenodd" clip-rule="evenodd" fill="#468E7A" d="M288.455,233.742c6.467-3.895,11.094-2.443,13.718,5.008
	c7.061-10.166,18.962-7.514,28.486-10.876c4.163-1.471,8.649-1.453,11.739-5.313c3.312-4.137,8.823-4.985,12.29-2.815
	c10.129,6.342,15.411-2.144,20.7-6.778c5.075-4.447,8.398-5.306,13.129-1.013c4.967,4.506,9.062,4.253,12.615-1.772
	c2.637-4.472,6.939-4.458,10.934-2.625c3.55,1.631,6.541,4.405,4.558,9.063c-1.572,3.691,3.227,10.434-5.257,10.877
	c-4.035,0.209-7.616,2.167-12.125,1.482c-6.218-0.943-7.331,7.245-12.713,9.367c-2.522,0.994-4.495,3.698-7.932,3.679
	c-19.627-0.1-37.346,6.073-53.671,16.66c-6.128,3.975-12.917,4.608-19.938,4.048c-6.987-0.559-13.695,1.241-20.497,2.281
	C284.336,254.403,285.11,243.909,288.455,233.742z"/>
<path fill-rule="evenodd" clip-rule="evenodd" fill="#468E7A" d="M403.22,375.477c-1.096,9.724-2.194,19.447-3.294,29.171
	c-10.053-0.595-20.554,3.017-30.017-3.266c-0.748-0.497-2.805-0.521-2.851-0.358c-3.187,11.006-12.045,5.755-18.755,6.718
	c-2.673,0.381-5.454,1.093-6.484,4.307c-1.875,5.854-6.444,9.579-11.979,10.189c-10.594,1.168-12.956,12.311-21.2,16.001
	c-6.435-12.044-10.454-24.962-13.793-38.125c6.793-4.253,16.271-2.921,21.222-11.55c2.822-4.917,6.896-2.072,8.176,2.207
	c3.011,10.053,8.351,5.837,13.585,2.608c2.328-1.437,5.283-2.724,6.532-4.897c7.103-12.338,18.677-8.217,29.077-8.333
	c6.184-0.072,11.912,0.11,15.83-6.492C394.694,364.516,398.703,373.525,403.22,375.477z"/>
<path fill-rule="evenodd" clip-rule="evenodd" fill="#468E7A" d="M282.353,333.536c5.935-2.858,3.621-8.31,3.945-12.864
	c0.29-4.122-0.526-8.892,5.202-9.779c5.105-0.793,6.345,3.193,7.181,7.039c0.526,2.424,0.628,4.941,3.988,5.022
	c3.896,0.096,4.379-2.574,4.504-5.539c0.182-4.367,3.404-5.591,6.477-4.452c12.956,4.808,23.095-1.013,33.283-7.734
	c5.439-3.589,11.716-5.805,18.17-5.904c5.703-0.09,8.463-1.351,11.677-6.962c2.758-4.813,11.755-2.545,17.651-7.015
	c3.098-2.349,8.842,11.646,6.482,20.92c-2.074,8.148-6.379,10.157-13.639,6.01c-1.542-0.88-3.756-1.926-4.767-0.456
	c-5.721,8.333-14.02,9.325-23.126,9.401c-2.799,0.021-5.762,2.217-7.123,5.438c-0.526,1.248-1.41,2.346-2.132,3.512
	c-9.869-8.168-15,9.123-24.682,4.524c-3.626-1.722-8.588,0.122-10.952,3.788c-3.634,5.636-8.517,7.735-14.855,7.595
	c-2.793-0.062-4.691,0.577-3.827,4.221c2.201,9.279-4.449,8.165-9.989,8.254C283.297,350.404,282.315,342.04,282.353,333.536z"/>
<path fill-rule="evenodd" clip-rule="evenodd" fill="#306F56" d="M500.896,503.713c1.206-7.624-3.183-8.54-9.243-8.016
	c-7.164,0.626-14.01,0.156-16.845-8.272c-2-5.952,0.655-9.602,6.289-7.973c6.591,1.909,12.589,2.408,19.111,0.424
	c4.734-1.44,4.301,3.014,5.507,6.253c6.076-9.547,11.918-18.722,17.76-27.896c4.981,11.72,12.778,15.467,25.54,10.592
	c6.692-2.559,9.657-0.237,11.703,5.188c0.978,2.587,1.486,6.691,4.803,4.111c5.598-4.359,7.334-3.173,8.328,3.232
	c0.485,3.114,3.45,3.945,6.372,4.092c-3.124,5.513-6.249,11.025-9.377,16.532c-12.533,3.284-25.309,1.056-37.96,1.573
	C522.24,503.989,511.561,503.689,500.896,503.713z"/>
<path fill-rule="evenodd" clip-rule="evenodd" fill="#236252" d="M299.578,164.95c0.335-6.858,0.982-13.671,3.017-20.28
	c10.654-1.5,21.849,0.554,31.056-8.303c7.411-7.129,19.669-7.834,25.55-17.773c0.914-1.544,3.252-2.947,5.065-3.136
	c8.998-0.94,9.981-6.98,9.579-14.111c11.493,12.065,24.004,23.309,31.334,38.739c-5.633-0.29-10.522,0.541-15.029,4.908
	c-3.191,3.092-7.342,6.932-12.808,4.982c-6.764-2.413-11.977,0.184-16.918,4.389c-2.36,2.012-4.825,4.141-8.155,3.861
	C334.217,156.71,317.016,161.729,299.578,164.95z"/>
<path fill-rule="evenodd" clip-rule="evenodd" fill="#8BBAB1" d="M405.18,140.086c-7.331-15.43-19.842-26.674-31.333-38.732
	c-0.145-0.497-0.48-0.754-1.008-0.764c-1.416-1.564-2.714-3.424-5.285-2.143l0.132,0.036c1.328-4.43-2.632-5.897-4.822-8.136
	c-10.551-10.776-22.616-19.732-34.925-28.357c-1.691-1.194-3.384-2.395-5.075-3.595c-14.279-9.714-27.326-21.302-43.291-28.453
	c-1.675-1.691-3.444-3.304-4.996-5.101c-1.323-1.531-3.096-3.302-1.696-5.459c1.896-2.921,4.148-0.673,6.352-0.05
	c42.144,11.877,72.211,40.332,99.079,72.829c20.886,25.26,40.93,51.216,56.685,80.135c3.102,5.693,7.112,11.146,6.948,18.136
	c-8.798-12.672-17.597-25.345-26.396-38.019c-2.054-3.709-3.919-7.554-7.43-10.204c-1.056-0.73-2.111-1.457-3.165-2.187
	L405.18,140.086z"/>
<path fill-rule="evenodd" clip-rule="evenodd" fill="#306F56" d="M608.323,333.351c-3.913,0.355-7.592,0.067-10.449-3.201
	c-1.707-1.958-3.724-3.064-6.366-1.414c-6.066,3.785-10.452,2.118-13.303-4.243c-0.739-1.652-1.704-2.46-3.757-2.811
	c-13.579-2.302-14.512-4.612-5.995-16.924c-20.379-1.924-31.114-18.51-46.177-28.491c-7.112-4.711-15.691-7.404-19.988-15.883
	c-1.271-2.496-3.581-0.197-5.246,0.87c-3.577,2.287-7.115,2.098-8.432-2.115c-1.938-6.207,2.548-9.756,7.22-12.233
	c3.011-1.595,8.638-2.083,8.452,2.157c-0.6,13.49,10.843,8.722,16.658,11.147c4.323,1.807,8.481,1.561,8.898,7.52
	c0.313,4.529,3.772,5.262,7.5,5.344c4.842,0.107,9.683,0.31,14.527,0.335c5.36,0.029,8.801,2.543,8.95,7.916
	c0.17,6.194,3.327,8.992,8.771,11.25c5.35,2.219,9.715,7.069,15.144,8.807c12.654,4.055,22.429,10.242,24.801,24.451
	c0.11,0.653,1.642,1.069,2.515,1.597C610.806,329.403,609.564,331.376,608.323,333.351z"/>
<path fill-rule="evenodd" clip-rule="evenodd" fill="#468E7A" d="M408.119,142.209c3.511,2.65,5.376,6.495,7.43,10.204
	c-11.49,4.43-21.834,13.375-34.834,11.868c-10.462-1.213-17.522,2.416-23.713,9.965c-1,1.22-3.09,2.499-4.481,2.31
	c-17.082-2.32-28.093,11.087-42.269,16.221c-5.153,1.863-10.185,1.056-15.266,1.523c1.531-9.784,3.061-19.566,4.592-29.349
	c17.438-3.221,34.639-8.24,52.692-6.725c3.33,0.28,5.794-1.849,8.155-3.861c4.941-4.205,10.154-6.801,16.918-4.389
	c5.465,1.95,9.616-1.89,12.808-4.982c4.507-4.367,9.396-5.198,15.029-4.908l-0.226-0.063
	C406.009,140.751,407.064,141.479,408.119,142.209z"/>
<path fill-rule="evenodd" clip-rule="evenodd" fill="#306F56" d="M537.873,437.553c3.108-8.948,9.468-15.32,16.668-21.021
	c5.39-2.064,11.717-0.559,16.633-4.564c2.16-1.758,3.669-0.406,4.93,1.627c3.023,4.874,6.614,6.847,11.827,2.53
	c2.099-1.733,3.486,0.238,5.011,1.844c3.965,4.17,9.07,7.328,12.915,11.336c5.855,6.099,7.08,1.753,6.853-2.468
	c-0.499-9.268,4.782-6.813,9.751-5.743c-7.559,15.209-15.261,30.333-26.293,43.44c-4.979-13.803-4.979-13.803-17.438-9.47
	c-1.841-4.46,5.871-8.851,1.555-11.908c-4.011-2.839-9.569,1.002-14.463,1.73c-2.222,0.329-2.45,4.239-5.435,3.944
	C555.676,439.379,548.67,434.68,537.873,437.553z"/>
<path fill-rule="evenodd" clip-rule="evenodd" fill="#468E7A" d="M537.873,437.553c10.797-2.874,17.803,1.826,22.514,11.278
	c2.984,0.295,3.213-3.615,5.435-3.944c4.894-0.728,10.452-4.569,14.463-1.73c4.316,3.058-3.396,7.448-1.555,11.908
	c12.459-4.333,12.459-4.333,17.438,9.47c-5.313,6.975-10.628,13.943-15.945,20.912c-2.922-0.146-5.887-0.978-6.372-4.092
	c-0.994-6.405-2.73-7.592-8.328-3.232c-3.316,2.58-3.825-1.524-4.803-4.111c-2.046-5.425-5.011-7.746-11.703-5.188
	c-12.762,4.875-20.559,1.128-25.54-10.592C527.069,450.501,530.875,442.915,537.873,437.553z"/>
<path fill-rule="evenodd" clip-rule="evenodd" fill="#236252" d="M327.937,61.982c12.311,8.633,24.376,17.589,34.927,28.365
	c2.189,2.238,6.149,3.706,4.822,8.134c-7.758-3.299-13.171-0.645-16.952,6.521c-1.241,2.355-2.079,5.986-5.354,5.638
	c-14.895-1.586-26.764,11.084-41.758,8.599c-0.759-11.055-1.518-22.108-2.275-33.161c2.33-0.458,4.67-1.369,6.983-1.303
	C322.52,85.166,330.815,75.625,327.937,61.982z"/>
<path fill-rule="evenodd" clip-rule="evenodd" fill="#306F56" d="M587.83,137.812c0.947,0.363,1.896,0.728,2.844,1.093
	c-5.382,11.439,10.384,19.656,4.308,32.038c-3.513,7.163,0.925,9.566,11.664,6.727c0.013,3.721-0.078,7.448,0.071,11.162
	c0.088,2.157,1.166,4.332,3.414,4.363c3.683,0.051,2.255-3.323,2.852-5.324c14.463,6.199,21.451,23.965,39.088,25.259
	c-0.245,3.815-0.489,7.629-0.73,11.445c-5.813-0.34-1.629-7.583-6.347-8.837c-4.294,1.896-1.476,7.512-4.818,10.022
	c-12.746-4.785-26.72-7.766-32.448-22.682c-0.403-1.054-1.935-1.893-3.127-2.393c-8.348-3.503-11.071-13.298-19.979-17.081
	c-3.199-1.358-6.985-4.871-10.087-3.522c-6.575,2.856-10.243,0.397-13.609-4.579c0.646-6.462,6.259-9.427,9.882-13.723
	C577.159,154.248,582.848,146.293,587.83,137.812z M583.643,162.867c-0.488,0.706-0.977,1.408-1.466,2.113
	c0.371,0.248,0.743,0.495,1.114,0.741c0.241-0.844,0.485-1.686,0.724-2.535c0.498-0.701,1.013-1.391,1.446-2.129
	c0.022-0.037-0.658-0.488-1.01-0.746C584.181,161.161,583.91,162.015,583.643,162.867z"/>
<path fill-rule="evenodd" clip-rule="evenodd" fill="#76A592" d="M600.26,85.937c2.28-15.722,4.538-31.451,6.874-47.165
	c0.395-2.654,0.392-5.875,4.066-6.306c2.411-0.28,3.812,1.616,4.685,3.489c12.688,27.314,24.554,54.888,25.856,85.645
	c-5.34,0.914-8.109-1.72-10.158-6.451c-2.004-4.63-4.06-10.134-11.188-7.733c-1.479,0.495-3.011,0.494-3.16-1.291
	c-0.594-6.918-9.853-8.213-9.82-15.867C607.431,86.855,603.713,85.677,600.26,85.937z"/>
<path fill-rule="evenodd" clip-rule="evenodd" fill="#306F56" d="M592.407,375.519c2.319-1.547,4.047-3.46,3.969-6.475
	c4.737-4.257,9.475-8.515,14.212-12.773c8.888,1.973,15.443,11.677,27.452,7.202c-7.089,9.118-6.001,16.431,2.311,22.525
	c-5.653,10.97-11.31,21.94-16.962,32.91c-1.711-3.286-3.021-6.87-5.236-9.771c-2.456-3.224-5.753-4.654-7.161,1.017
	c-0.961,3.856-2.229,8.401-6.656,7.132c-3.782-1.085-1.521-6.021-1.658-9.229c-0.117-2.67,0.17-5.529,1.049-8.031
	c1.362-3.86-0.064-6.5-3.46-7.12C588.921,390.832,590.596,383.299,592.407,375.519z"/>
<path fill-rule="evenodd" clip-rule="evenodd" fill="#468E7A" d="M303.621,119.239c14.994,2.486,26.863-10.185,41.758-8.599
	c3.276,0.349,4.113-3.282,5.354-5.638c3.781-7.167,9.194-9.82,16.952-6.521c0,0.002-0.132-0.034-0.132-0.034
	c1.139,2.253,3.198,2.232,5.285,2.143c0.528,0.01,0.863,0.267,1.008,0.764c0.401,7.124-0.583,13.165-9.581,14.104
	c-1.813,0.189-4.151,1.592-5.065,3.136c-5.881,9.939-18.139,10.645-25.55,17.773c-9.208,8.857-20.402,6.803-31.056,8.303
	C302.937,136.192,303.279,127.717,303.621,119.239z"/>
<path fill-rule="evenodd" clip-rule="evenodd" fill="#468E7A" d="M592.407,375.519c-1.812,7.781-3.486,15.313,7.858,17.386
	c3.396,0.621,4.822,3.26,3.46,7.12c-0.879,2.502-1.166,5.361-1.049,8.031c0.137,3.208-2.124,8.144,1.658,9.229
	c4.428,1.269,5.695-3.276,6.656-7.132c1.408-5.67,4.705-4.24,7.161-1.017c2.216,2.901,3.525,6.485,5.236,9.771
	c-0.31,0.729-0.619,1.458-0.929,2.188c-4.969-1.07-10.25-3.525-9.751,5.743c0.228,4.221-0.997,8.567-6.853,2.468
	c-3.845-4.009-8.95-7.166-12.915-11.336c-1.524-1.606-2.912-3.577-5.011-1.844c-5.213,4.317-8.804,2.344-11.827-2.53
	c-1.261-2.033-2.77-3.385-4.93-1.627c-4.916,4.006-11.243,2.5-16.633,4.564c7.058-10.756,13.619-21.889,21.394-32.099
	C579.688,379.499,584.924,374.772,592.407,375.519z"/>
<path fill-rule="evenodd" clip-rule="evenodd" fill="#306F56" d="M629.224,337.273c11.756-16.409,23.589-32.762,29.552-52.457
	c0.651-2.157,1.831-5.167,4.704-4.749c3.969,0.577,3.845,4.28,4.047,7.328c1.31,19.522-1.313,38.431-8.986,56.53
	c-1.883-0.635-3.805-1.176-5.649-1.92c-10.025-4.066-12.159-2.724-12.908,8.21C631.824,349.702,632.149,342.133,629.224,337.273z"/>
<path fill-rule="evenodd" clip-rule="evenodd" fill="#306F56" d="M600.26,85.937c3.453-0.259,7.171,0.918,7.154,4.322
	c-0.032,7.653,9.227,8.948,9.82,15.867c0.149,1.784,1.681,1.786,3.16,1.291c7.129-2.401,9.185,3.103,11.188,7.733
	c2.049,4.731,4.818,7.365,10.158,6.451c3.418,10.788,6.119,21.712,6.347,33.11c-7.083-7.816-17.564-12.609-21.034-23.65
	c-0.195-0.619-0.766-1.59-1.179-1.603c-13.443-0.368-18.311-14.402-29.435-18.412c-0.397-2.86-0.795-5.721-1.192-8.58
	C596.916,96.957,598.585,91.447,600.26,85.937z"/>
<path fill-rule="evenodd" clip-rule="evenodd" fill="#468E7A" d="M332.159,479.179c6.358-0.417,12.693,2.88,18.306-5.103
	c3.533-5.03,8.403,3.239,12.845,5.129c0.138,2.639,1.513,4.04,4.173,4.15c0.329,0.28,0.658,0.561,0.987,0.848
	c-0.29-0.322-0.582-0.643-0.872-0.961c-0.096-2.676-1.502-4.044-4.156-4.174c-1.612-8.745,6.803-8.211,10.965-11.137
	c3.675-2.584,5.72,2.301,8.095,4.412c3.073,2.724,5.938,5.695,8.774,8.673c1.61,1.688,3.691,3.434,1.975,6.184
	c-1.219,1.948-3.499,2.972-5.342,2.251c-15.741-6.131-15.931,7.394-20.208,15.76c-3.635,1.408-7.021,0.131-10.423-0.958
	C349.774,495.026,338.672,489.402,332.159,479.179z"/>
<path fill-rule="evenodd" clip-rule="evenodd" fill="#99CCB7" d="M640.178,225.761c3.34-2.512,0.521-8.127,4.815-10.023
	c4.718,1.254,0.534,8.497,6.347,8.837c-0.762,22.717-9.575,43.055-18.73,63.289c-4.845,0.895-5.458,4.307-4.995,8.365
	c0,0,0.017-0.026,0.017-0.024c-5.666,3.226-7.249,8.785-8.367,14.614c0,0,0.241,0.083,0.241,0.082
	c-8.227-1.737-1.938-6.667-2.231-10.149c1.896-5.578,3.795-11.153,5.695-16.73C629.729,264.901,639.773,246.755,640.178,225.761z"/>
<path fill-rule="evenodd" clip-rule="evenodd" fill="#468E7A" d="M629.224,337.273c2.926,4.859,2.601,12.428,10.759,12.941
	l-0.039-0.041c0.71,0.709,1.417,1.421,2.127,2.128l-0.052-0.042c2.525,3.893,5.193,7.611,10.286,8.341
	c-3.108,8.88-6.787,17.489-11.954,25.397c-8.312-6.095-9.399-13.407-2.311-22.525c-12.009,4.476-18.564-5.229-27.452-7.202
	C616.804,349.938,623.014,343.605,629.224,337.273z"/>
<path fill-rule="evenodd" clip-rule="evenodd" fill="#236252" d="M279.573,29.942c15.965,7.151,29.012,18.739,43.284,28.455
	c-7.489,6.241-17.469,6.634-25.749,11C292.868,55.532,287.005,42.389,279.573,29.942z"/>
<path fill-rule="evenodd" clip-rule="evenodd" fill="#468E7A" d="M297.108,69.396c8.28-4.366,18.26-4.758,25.749-11
	c1.697,1.199,3.39,2.4,5.081,3.594c2.877,13.634-5.418,23.175-19.609,22.784c-2.313-0.065-4.654,0.845-6.983,1.303
	C299.933,80.518,298.521,74.958,297.108,69.396z"/>
<path fill-rule="evenodd" clip-rule="evenodd" fill="#468E7A" d="M453.281,218.856c-13.144,6.697-18.545,5.596-23.728-4.649
	c-3.17-6.269-2.124-9.795,5.635-9.605c4.433,0.109,8.869,0.023,13.305,0.023C451.36,208.939,452.924,213.696,453.281,218.856z"/>
<path fill-rule="evenodd" clip-rule="evenodd" fill="#468E7A" d="M639.982,350.215c0.749-10.935,2.883-12.277,12.908-8.21
	c1.845,0.745,3.767,1.285,5.649,1.92c-0.736,3.747-1.407,7.526-4.261,10.408c-4.086-0.692-8.172-1.383-12.261-2.074l0.052,0.042
	c-0.71-0.707-1.417-1.419-2.127-2.128L639.982,350.215z"/>
<path fill-rule="evenodd" clip-rule="evenodd" fill="#76A592" d="M477.695,229.055c-1.062,11.412-10.106,16.077-18.211,21.53
	c-0.117-2.183-0.233-4.366-0.352-6.549c6.386,1.543,7.251-4.617,10.45-7.505C472.313,234.068,474.991,231.549,477.695,229.055z"/>
<path fill-rule="evenodd" clip-rule="evenodd" fill="#74A38F" d="M564.778,145.998c4.362,3.434,0.358,5.612-1.548,7.36
	c-4.714,4.317-7.842,10.825-15.219,11.69C552.492,157.721,559.227,152.379,564.778,145.998z"/>
<path fill-rule="evenodd" clip-rule="evenodd" fill="#306F56" d="M642.019,352.259c4.089,0.69,8.175,1.381,12.261,2.074
	c0.318,2.396-0.678,4.379-1.975,6.267C647.212,359.87,644.544,356.152,642.019,352.259z"/>
<path fill-rule="evenodd" clip-rule="evenodd" fill="#74A38F" d="M619.264,310.819c1.118-5.829,2.701-11.389,8.367-14.614
	C626.937,302.275,625.301,307.806,619.264,310.819z"/>
<path fill-rule="evenodd" clip-rule="evenodd" fill="#74A38F" d="M627.614,296.229c-0.463-4.058,0.15-7.471,4.995-8.365
	C631.364,290.902,631.681,294.874,627.614,296.229z"/>
<path fill-rule="evenodd" clip-rule="evenodd" fill="#76A592" d="M500.567,206.537c0.072,3.369-1.739,4.567-4.884,4.232
	C497.31,209.358,498.938,207.946,500.567,206.537z"/>
<path fill-rule="evenodd" clip-rule="evenodd" fill="#76A592" d="M502.695,204.266c-0.74,0.811-1.477,1.621-2.216,2.432
	C501.219,205.887,501.955,205.077,502.695,204.266z"/>
<path fill-rule="evenodd" clip-rule="evenodd" fill="#D84F6D" d="M494.455,682.854c6.393,20.418-7.588,49.93-25.699,55.498
	c-11.497,3.535-33.648-3.078-38.943-23.351c11.139-22.129,33.208-33.174,57.627-28.727
	C490.813,686.89,494.318,688.542,494.455,682.854z"/>
<path fill-rule="evenodd" clip-rule="evenodd" fill="#1B1515" d="M494.455,682.854c-0.137,5.688-3.643,4.036-7.015,3.421
	c-24.419-4.447-46.488,6.598-57.627,28.727c-6.599-20.768-2.45-40.218,7.508-58.828c1.785-3.337,4.846-5.871,9.012-6.327
	c0.556,4.222-1.779,9.624,3.656,11.979c5.526,2.395,8.991-1.417,12.576-6.461c0.536,6.646,4.268,9.013,9.471,8.823
	c6.103-0.219,8.07-4.444,8.357-9.859C489.112,661.848,493.289,671.609,494.455,682.854z"/>
<path fill-rule="evenodd" clip-rule="evenodd" fill="#1B1515" d="M515.053,627.827c-0.534-5.259,1.304-12.485-8.125-10.179
	c-0.541,0.131-2.147-1.446-2.033-1.714c2.775-6.568-4.874-11.96-2.567-18.519c3.753-0.431,4.229,2.482,5.562,4.226
	c12.527,16.343,29.574,19.903,47.578,9.765c5.402-3.043,10.569-6.526,16.046-9.423c1.906-1.003,4.383-2.727,6.686-0.502
	c1.919,1.857,0.682,3.9-0.182,5.702c-2.226,4.646,0.222,13.717-10.084,10.882c-2.874,11.3-17.849,3.33-21.634,13.577
	c-0.682,1.847-3.063,0.769-4.099-0.831c-2.05-3.16-6.321-4.008-8.185-2.825c-4.894,3.105-8.08,7.067-10.384-2.485
	C522.971,622.764,519.526,629.41,515.053,627.827z"/>
<path fill-rule="evenodd" clip-rule="evenodd" fill="#1B1515" d="M374.394,630.72c-2.146-5.714-0.925-15.078-10.488-8.188
	c-0.411,0.297-2.484-0.668-2.471-0.987c0.373-8.758-11.607-11.39-9.618-21.48c3.905-1.639,6.063,2.301,8.603,4.415
	c19.894,16.561,38.373,16.274,57.172-1.063c0.507-0.469,0.924-1.075,1.5-1.421c4.058-2.443,8.206-10.061,12.427-5.245
	c3.977,4.538-2.55,10.491-5.693,14.818c-1.763,2.431-5.852,2.866-5.041,7.532c0.526,3.021-1.709,3.258-3.919,2.026
	c-2.12-1.179-4.859-0.978-5.697,0.548c-5.451,9.938-17.115,0.41-23.334,7.702c-0.992,1.166-2.711,0.183-3.377-1.043
	C380.043,620.238,378.085,628.055,374.394,630.72z"/>
<path fill-rule="evenodd" clip-rule="evenodd" fill="#EF7E69" d="M382.48,678.526c-6.879,0.273-13.879,1.131-19.9-3.613
	c-8.18-6.448-7.16-17.545,2.466-21.692c12.137-5.227,23.691-2.906,34.158,4.555c3.677,2.623,6.423,6.581,5.062,11.642
	c-1.403,5.206-5.294,8.194-10.39,8.995C390.163,678.996,386.285,678.526,382.48,678.526z"/>
<path fill-rule="evenodd" clip-rule="evenodd" fill="#EF7E69" d="M548.788,676.737c-6.667,0.238-13.117-0.547-18.591-4.737
	c-8.576-6.568-7.741-15.159,1.844-20.311c8.191-4.405,27.563-1.782,34.285,4.64c7.468,7.135,5.49,15.307-4.304,18.926
	C557.637,676.878,553.231,676.607,548.788,676.737z"/>
<path fill-rule="evenodd" clip-rule="evenodd" fill="#F5F4F4" d="M480.394,654.328c-0.287,5.415-2.255,9.641-8.357,9.859
	c-5.203,0.189-8.935-2.177-9.471-8.823c-3.585,5.044-7.05,8.855-12.576,6.461c-5.435-2.355-3.1-7.758-3.656-11.979
	C459.115,644.014,471.577,645.655,480.394,654.328z"/>
<path fill-rule="evenodd" clip-rule="evenodd" fill="#468E7A" d="M428.015,302.552c-1.019,3.602-1.631,7.381-4.428,10.217
	c-16.166-5.291-19.985-10.726-18.72-25.858c0.354-4.201,1.68-7.863,5.837-8.574c4.291-0.735,6.661,2.657,8.229,6.379
	C421.522,290.88,421.365,298.453,428.015,302.552z"/>
<path fill-rule="evenodd" clip-rule="evenodd" fill="#306F56" d="M413.488,389.495c0.497-13.262,2.129-26.216,10.038-37.495
	c12.977,0.419,23.577,5.101,31.226,16.162c3.203,4.631,9.55,6.438,14.166,5.589c6.731-1.242,7.618,2.704,7.687,6.492
	c0.088,4.835,0.237,10.96-7.041,11.688c-6.471,0.645-12.713-2.021-19.648,1.321c-4.958,2.393-5.233-7.215-10.201-8.546
	c-2.369,1.264-2.791,3.708-3.527,5.883c-1.287,3.797-3.172,7.101-7.575,7.428c-4.485,0.336-5.559-3.271-6.583-6.63
	C420.288,385.676,415.978,391.725,413.488,389.495z M422.785,383.552c0.188-2.396,3.668-4.587,0.969-7.789
	C420.819,378.28,421.674,380.903,422.785,383.552z"/>
<path fill-rule="evenodd" clip-rule="evenodd" fill="#306F56" d="M488.991,389.735c2.396-6.392,5.405-8.174,11.283-6.671
	c6.129,1.565,6.51,5.107,6.373,9.866c-0.107,3.687,1.134,7.342,4.392,8.709c4.053,1.704,5.982-2.294,7.966-4.964
	c1.649-2.214,2.835-5.124,6.214-4.463c3.336,0.65,1.936,3.89,2.694,5.974c1.45,3.979,3.404,7.251,8.109,8.543
	c2.841,0.78,6.229,3.127,5.428,6.575c-0.759,3.273-3.711,6.309-7.129,6.858c-4.271,0.686-8.888,1.849-13.094-0.743
	c-1.17-0.72-2.669-2.432-3.389-2.14c-12.505,5.076-18.522-4.35-24.56-11.743c-3.44-4.214-6.715,2.962-9.699-1.684
	c-2.604-4.05-5.35-19.402-2.613-23.784c1.994-3.196,4.503-3.47,6.148,0.029C488.22,382.45,488.193,385.335,488.991,389.735z"/>
<path fill-rule="evenodd" clip-rule="evenodd" fill="#306F56" d="M407.091,468.766c0.146-6.313,0.29-12.625,2.136-18.747
	c4.247-2.551,7.322-1.978,8.126,3.39c1.068,7.148,1.902,14.331,2.802,21.215c6.777-10.467,11.623-9.36,20.775,5.203
	c2.807-1.022,1.344-3.463,1.562-5.181c0.562-4.408,4.521-3.962,7.121-4.772c3.072-0.962,3.721,2.355,4.663,4.45
	c1.13,2.512,1.834,5.22,3.002,7.712c2.924,6.229,1.269,7.1-5.089,5.532c-6.337-1.561-13.425-3.825-18.148,4.135
	c-1.539,2.594-5.92,3.001-7.521,1.407c-5.331-5.311-12.041-2.926-18.008-4.372c-3.422-6.79-6.959-13.007-15.505-14.994
	c-3.574-0.827-6.315-5.359-3.892-9.293c2.427-3.938,5.228-0.183,7.881,1.013c1.812,0.816,3.981,0.832,5.993,1.205
	c0.464,0.458,0.831,0.979,1.091,1.575c-0.819,2.099-2.499,5.197,0.724,5.683C408.332,474.461,406.956,470.845,407.091,468.766z"/>
<path fill-rule="evenodd" clip-rule="evenodd" fill="#306F56" d="M459.136,433.517c4.327-2.812,8.662-3.416,10.813-1.388
	c8.151,7.674,21.015,7.417,27.771,16.756c2.682,3.711,5.441,1.167,8.113,1.727c3.056,0.642,7.895-0.006,8.194,4.317
	c0.182,2.625-1.812,6.394-4.024,7.945c-3.021,2.121-7.142,0.206-9.239-2.248c-7.146-8.359-16.363-11.848-26.848-12.746
	C464.611,447.082,465.46,437.371,459.136,433.517z"/>
<path fill-rule="evenodd" clip-rule="evenodd" fill="#306F56" d="M469.104,484.828c-0.343,2.232-1.424,4.015-3.925,3.682
	c-2.846-0.378-3.801-2.668-3.835-5.245c-0.031-2.355,1.056-4.103,3.677-3.633C467.706,480.11,468.957,482.092,469.104,484.828z"/>
<path fill-rule="evenodd" clip-rule="evenodd" fill="#306F56" d="M622.969,284.024c-1.9,5.575-3.799,11.149-5.695,16.728
	c-1.346-10.474-8.178-13.873-17.776-14.204c-5.712-0.197-12.022-0.091-13.013-8.13c-15.577,0.182-20.07-14.795-30.242-21.999
	c-3.691-2.615-6.744-5.011-4.887-10.04c1.929-5.229-8.035-4.873-4.943-10.61l-0.081,0.098c0.727-0.723,1.453-1.451,2.18-2.178
	l-0.101,0.099c0.729-0.731,1.459-1.463,2.192-2.193l-0.127,0.126c0.743-0.738,1.482-1.475,2.222-2.214l-0.137,0.133
	c5.393,0.533,12.394-2.922,14.678,5.531c2.767,10.258,12.732,13.327,19.807,18.817c3.466,2.691,5.089,9.657,9.383,8.311
	c10.479-3.291,10.813,6.935,16.18,10.104C617.625,275.361,615.689,283.733,622.969,284.024z"/>
<path fill-rule="evenodd" clip-rule="evenodd" fill="#306F56" d="M506.077,221.273c6.458-5.686,12.915-11.369,19.373-17.051
	c8.37,1.508,11.146,12.265,19.62,12.687c10.058,0.5,10.331,5.358,7.49,12.731c0,0,0.137-0.133,0.137-0.132
	c-0.742,0.738-1.479,1.474-2.222,2.212l0.127-0.126c-0.733,0.73-1.463,1.461-2.192,2.193l0.101-0.099
	c-0.727,0.727-1.453,1.455-2.18,2.178l0.081-0.098c-8.402,7.316-16.646,1.732-24.484-0.984c-2.814-0.974-4.767-3.206-8.1-1.508
	c-1.978,1.005-4.111,0.356-5.542-1.409c-2.06-2.543-0.202-4.327,1.349-6.236C515.347,218.604,507.97,222.16,506.077,221.273z"/>
<path fill-rule="evenodd" clip-rule="evenodd" fill="#74A38F" d="M552.561,229.64c2.841-7.373,2.567-12.231-7.49-12.731
	c-8.475-0.422-11.25-11.179-19.62-12.687c8.256-7.715,16.524-15.419,24.765-23.149c3.056-2.867,6.298-5.332,10.709-5.57
	c3.366,4.977,7.034,7.435,13.609,4.579c3.102-1.349,6.888,2.164,10.087,3.522c8.908,3.783,11.632,13.578,19.979,17.081
	c1.192,0.5,2.724,1.339,3.127,2.393c5.729,14.916,19.702,17.897,32.448,22.682c-0.401,20.995-10.446,39.141-17.206,58.262
	c-7.279-0.289-5.344-8.66-10.361-11.619c-5.366-3.168-5.701-13.394-16.18-10.104c-4.294,1.346-5.917-5.62-9.383-8.311
	c-7.074-5.49-17.04-8.56-19.807-18.817C564.954,226.718,557.953,230.173,552.561,229.64z"/>
<path fill-rule="evenodd" clip-rule="evenodd" fill="#74A38F" d="M407.091,468.766c-0.135,2.079,1.241,5.695-2.287,5.161
	c-3.223-0.485-1.543-3.584-0.724-5.683C405.089,468.417,406.089,468.59,407.091,468.766z"/>
<path fill-rule="evenodd" clip-rule="evenodd" fill="#74A38F" d="M542.157,329.333c-0.198,0.914-0.394,1.828-0.596,2.738
	c-1.936-1.466-0.111-1.916,0.717-2.637L542.157,329.333z"/>
<path fill-rule="evenodd" clip-rule="evenodd" fill="#468E7A" d="M612.982,187.871c-0.597,2,0.831,5.375-2.852,5.324
	c-2.248-0.031-3.326-2.206-3.414-4.363c-0.149-3.714-0.059-7.441-0.071-11.162c2.978,1.176,5.03,3.271,6.184,6.256
	c-2.235,1.474-1.975,2.823,0.208,4.071L612.982,187.871z"/>
<path fill-rule="evenodd" clip-rule="evenodd" fill="#306F56" d="M613.037,187.997c-2.183-1.248-2.443-2.597-0.208-4.071
	C612.895,185.284,612.966,186.64,613.037,187.997z"/>
<path fill-rule="evenodd" clip-rule="evenodd" fill="#236252" d="M372.838,100.59c-2.087,0.089-4.146,0.11-5.285-2.143
	C370.124,97.166,371.423,99.026,372.838,100.59z"/>
<path fill-rule="evenodd" clip-rule="evenodd" fill="#236252" d="M408.119,142.209c-1.054-0.73-2.109-1.458-3.165-2.187
	C406.007,140.752,407.063,141.479,408.119,142.209z"/>
<path fill-rule="evenodd" clip-rule="evenodd" fill="#74A38F" d="M584.021,163.189c-0.244,0.845-0.488,1.688-0.729,2.531
	c-0.371-0.246-0.743-0.493-1.114-0.741c0.489-0.705,0.978-1.407,1.466-2.113L584.021,163.189z"/>
<path fill-rule="evenodd" clip-rule="evenodd" fill="#74A38F" d="M583.643,162.867c0.268-0.852,0.538-1.706,0.809-2.556
	c0.352,0.258,1.032,0.709,1.01,0.746c-0.434,0.738-0.948,1.429-1.443,2.131C584.021,163.189,583.643,162.867,583.643,162.867z"/>
<path fill-rule="evenodd" clip-rule="evenodd" fill="#236252" d="M363.443,479.068c2.654,0.13,4.06,1.498,4.156,4.174l-0.117,0.113
	c-2.659-0.11-4.034-1.512-4.172-4.15C363.309,479.205,363.443,479.068,363.443,479.068z"/>
<path fill-rule="evenodd" clip-rule="evenodd" fill="#236252" d="M367.599,483.242c0.29,0.318,0.582,0.639,0.872,0.961
	c-0.329-0.287-0.658-0.567-0.987-0.848C367.482,483.355,367.599,483.242,367.599,483.242z"/>
<path fill-rule="evenodd" clip-rule="evenodd" fill="#306F56" d="M639.943,350.174c0.71,0.709,1.417,1.421,2.127,2.128
	C641.36,351.595,640.653,350.883,639.943,350.174z"/>
<path fill-rule="evenodd" clip-rule="evenodd" fill="#74A38F" d="M422.785,383.552c-1.111-2.649-1.966-5.271,0.969-7.789
	C426.454,378.964,422.973,381.155,422.785,383.552z"/>
<path fill-rule="evenodd" clip-rule="evenodd" fill="#74A38F" d="M546.331,235.866c0.727-0.723,1.453-1.451,2.18-2.178
	C547.784,234.415,547.058,235.143,546.331,235.866z"/>
<path fill-rule="evenodd" clip-rule="evenodd" fill="#74A38F" d="M550.476,231.721c0.743-0.738,1.479-1.475,2.222-2.212
	C551.958,230.246,551.219,230.982,550.476,231.721z"/>
<path fill-rule="evenodd" clip-rule="evenodd" fill="#74A38F" d="M548.41,233.788c0.729-0.731,1.459-1.463,2.192-2.193
	C549.869,232.325,549.14,233.056,548.41,233.788z"/>
</svg>
