<?xml version="1.0" encoding="utf-8"?>
<!-- Generator: Adobe Illustrator 16.0.0, SVG Export Plug-In . SVG Version: 6.00 Build 0)  -->
<!DOCTYPE svg PUBLIC "-//W3C//DTD SVG 1.1//EN" "http://www.w3.org/Graphics/SVG/1.1/DTD/svg11.dtd">
<svg version="1.1" id="Layer_1" xmlns="http://www.w3.org/2000/svg" xmlns:xlink="http://www.w3.org/1999/xlink" x="0px" y="0px"
	 width="928px" height="928px" viewBox="0 0 928 928" enable-background="new 0 0 928 928" xml:space="preserve">
<path fill-rule="evenodd" clip-rule="evenodd" fill="#F9B6AA" d="M720.121,489.123c32.988,0.079,65.977,0.123,98.965,0.263
	c17.483,0.079,18.912,2.561,20.992,19.542c7.879,64.28,6.035,128.832,4.759,193.227c-0.97,49.1-8.429,97.247-27.474,143.711
	c-14.468,35.296-40.508,50.739-74.75,59.168c-28.256,6.953-57.114,6.962-85.58,7.46c-82.214,1.45-164.555,2.857-246.678-0.166
	c-79.846-2.941-160.063-5.393-238.642-23.266c-44.051-10.016-65.355-38.419-73.862-81.668
	C78.895,711.008,81.012,613.717,81.53,516.387c0.135-25.655,13.975-32.166,38.876-31.572c33.755,0.813,67.4,5.476,101.289,4.169
	c27.604,0.228,55.211,0.464,82.817,0.69c2.615,2.604,5.535,2.186,8.547,0.87c15.885,0.765,31.817,2.984,47.529-1.534
	c4.392,0.053,8.788,0.105,13.182,0.157c2.211,0.132,4.42,0.263,6.631,0.394c60.243-0.279,120.484-0.56,180.731-0.839
	c2.416-0.42,4.828-0.831,7.24-1.245c30.996,3.338,62.088,1.48,93.14,1.765c5.502,0.03,11.008,0.058,16.514,0.088
	C692.059,489.259,706.09,489.189,720.121,489.123z M582.633,670.591c20.923,2.382,35.854-7.202,46.324-24.266
	c8.696-14.167,6.433-38.28-3.828-51.312c-9.684-12.305-27.063-18.039-42.139-13.904c-23.199,0.957-38.135,16.26-38.699,39.652
	C543.597,649.681,557.707,668.017,582.633,670.591z M433.839,759.417c1.221,15.601,6.587,29.68,15.81,42.257
	c18.229,24.851,50.31,22.68,64.8-4.283c4.003-7.441,5.865-15.478,7.066-23.729c1.805-24.174,1.656-48.217-8.608-70.817
	c-11.449-25.21-36.896-31.127-58.353-13.966c-8.209,6.563-13.236,15.281-16.383,25.205
	C433.472,728.889,433.216,744.104,433.839,759.417z M349.841,675.943c27.464,8.189,55.366-10.715,57.907-39.236
	c2.464-27.64-15.161-51.73-44.433-60.72c-29.064-1.075-50.011,14.063-53.16,38.42C306.141,645.434,321.807,669.726,349.841,675.943z
	 M348.738,751.446c13.21-0.568,24.788-4.492,29.816-18.078c4.807-12.991-1.608-22.519-11.923-29.501
	c-9.524-6.45-20.41-4.72-30.609-2.106c-11.602,2.98-22.487,8.478-22.894,22.452c-0.391,13.521,8.759,20.534,20.65,24.498
	C338.604,750.318,343.426,751.992,348.738,751.446z M607.301,698.195c0,0.092-0.005,0.179-0.01,0.267
	c-2.778,0-5.58,0.235-8.328-0.04c-13.354-1.337-19.766,5.48-21.303,17.996c-1.6,13.009,5.588,20.865,17.042,23.028
	c9.802,1.853,20.573,1.91,30.296-0.157c10.008-2.133,19.551-8.525,19.228-20.538c-0.302-11.179-9.518-16.54-19.018-19.433
	C619.646,697.623,613.296,698.488,607.301,698.195z"/>
<path fill-rule="evenodd" clip-rule="evenodd" fill="#76A592" d="M561.129,488.717c-60.243,0.284-120.484,0.564-180.731,0.844
	c-0.441-12.979-7.475-23.794-12.244-35.204c-8.882-21.255-14.628-43.884-27.242-63.536c0.227-4.693-0.468-9.17-3.081-13.204
	c-2.089-6.089-3.68-12.408-6.35-18.233c-16.912-36.899-33.816-73.82-45.031-112.955c-2.841-9.917-6.452-19.107-12.966-27.093
	c3.099-2.023,1.973-4.593,1.158-7.33c-14.071-47.389-27.984-94.822-36.414-143.644c10.153-9.085,20.405-8.565,31.502-1.289
	c3.535,2.32,8.611,2.296,12.98,3.343c7.473,8.264,8.056,20.473,16.223,28.343c24.808,75.765,46.779,152.582,82.512,227.276
	c8.642-20.713,9.708-40.806,20.835-57.129c17.069-1.982,23.198,9.1,27.998,22.649c2.244,6.334,5.452,12.95,13.87,13.56
	c2.495,2.65,2.117,6.006,2.196,9.214c0.931,38.018,1.586,76.046,2.893,114.049c0.408,11.86,2.561,23.659,3.917,35.483
	c4.134-10.837,5.512-21.718,7.372-32.521c5.506-31.941,11.867-63.665,26.559-92.995c7.8,3.631,15.984,5.465,19.856-4.438
	c3.604-9.209-3.042-13.372-10.995-15.589c2.754-10.267,7.469-19.453,14.941-27.117c4.466-0.88,8.9-2.021,13.406-2.589
	c12.742-1.605,23.523-0.673,25.996,15.832c0.839,5.6,2.443,13.005,10.471,14.523c-2.578,33.642-13.446,65.601-20.46,98.525
	c25.887-45.101,54.072-88.409,81.646-132.085c0.795,1.202,1.948,2.161,3.002,0.714c0.56-0.762,0.062-2.294,0.044-3.476l-0.279,0.186
	c9.718-0.583,11.466-10.546,17.785-15.176c4.4-3.221,8.337-7.082,12.484-10.652c25.686,1.964,25.673,1.964,25.86,27.596
	c0.026,3.238,0.249,6.472,0.376,9.71c-4.221,13.7-14.368,24.329-19.463,37.574c-7.333,8.375-15.142,16.468-17.156,28.098
	c-2.495,2.714-5.432,5.144-7.42,8.189c-18.756,28.71-37.782,57.259-55.777,86.442C574.482,465.846,563.715,474.904,561.129,488.717z
	 M351.688,286.69c-1.503-4.903-4.494-9.636-11.012-9.179c-7.73,0.542-12.745,5.644-13.595,13.156
	c-0.712,6.257,3.415,11.252,9.625,11.049C344.93,301.447,349.688,295.707,351.688,286.69z M513.331,363.807
	c-5.52,0.712-10.033,3.658-10.208,9.236c-0.201,6.35,4.396,10.125,10.697,9.961c6.214-0.16,10.789-3.892,10.243-10.37
	C523.592,367.069,519.13,364.202,513.331,363.807z M440.367,458.779c-6.378,0.345-8.993,5.377-9.303,10.182
	c-0.363,5.642,2.418,11.073,9.251,11.707c5.475,0.512,8.624-2.434,9.094-8.054C449.992,465.714,447.105,461.128,440.367,458.779z
	 M574.71,425.824c-1.774-5.281-4.981-8.962-10.872-8.954c-6.643,0.009-8.574,4.328-8.421,10.188
	c0.166,6.251,3.316,9.701,9.592,8.908C570.598,435.261,573.98,431.697,574.71,425.824z M410.073,373.185
	c-1.302-5.915-5.508-6.867-10.494-6.605c-5.943,0.31-6.212,4.527-5.825,8.832c0.424,4.673,2.854,8.167,7.969,7.236
	C406.623,381.756,409.494,378.19,410.073,373.185z M630.92,327.521c-5.703,0.247-8.557,3.208-8.391,8.806
	c0.131,4.215,2.32,7.45,6.629,7.376c5.165-0.089,8.718-3.537,9.383-8.543C639.227,329.976,635.596,327.906,630.92,327.521z
	 M320.358,185.027c-1.466-4.268-4.127-7.477-8.648-7.652c-5.141-0.199-7.204,3.406-7.097,8.093c0.107,4.741,2.456,8.139,7.562,7.566
	C316.571,192.541,319.322,189.465,320.358,185.027z M277.439,99.17c-4.938,0.935-6.726,4.352-6.284,8.982
	c0.389,4.104,2.714,7.11,7.116,6.752c5.152-0.417,6.795-4.248,6.387-8.854C284.293,101.928,281.96,99.358,277.439,99.17z
	 M388.093,439.622c-0.153-4.108-1.492-8.071-6.601-8.474c-4.3-0.343-7.169,2.462-6.804,6.714c0.43,4.988,3.686,8.547,8.801,8.952
	C388.097,447.18,387.883,443.223,388.093,439.622z M418.616,426.248c-0.745-4.034-3.175-7.744-7.461-8.401
	c-4.578-0.701-6.148,3.146-6.192,7.202c-0.042,4.088,1.656,7.304,6.026,7.875C415.424,433.5,417.681,430.825,418.616,426.248z
	 M652.227,291.007c-1.026-3.797-3.33-7.038-7.136-7.132c-4.497-0.111-7.678,3.131-7.634,7.702c0.035,3.778,3.412,5.004,6.825,5.063
	C648.215,296.712,651.388,295.469,652.227,291.007z M515.153,428.033c-2.714,0.284-6.097,1.61-6.603,6.048
	c-0.494,4.404,2.08,7.103,6.318,7.269c4.365,0.168,6.611-2.784,6.931-6.937C522.088,430.707,520.52,428.223,515.153,428.033z
	 M531.793,346.648c3.588-0.441,6.153-2.244,6.468-5.982c0.372-4.459-2.206-7.201-6.463-7.199c-4.239,0.007-6.848,2.729-6.493,7.188
	C525.602,344.407,528.197,346.183,531.793,346.648z"/>
<path fill-rule="evenodd" clip-rule="evenodd" fill="#236252" d="M621.948,285.407c-27.574,43.677-55.76,86.984-81.646,132.085
	c7.014-32.924,17.882-64.883,20.46-98.525c1.572-12.002,1.687-24.05,0.018-35.999c-1.093-7.833-3.042-16-11.454-19.286
	c-8.315-3.253-15.557,0.592-21.521,6.133c-6.69,6.212-14.411,11.79-16.915,21.386c-7.473,7.665-12.188,16.85-14.937,27.122
	c-5.624,5.493-7.529,12.633-8.866,20.022c-14.691,29.331-21.053,61.054-26.559,92.995c-1.859,10.802-3.238,21.684-7.372,32.521
	c-1.357-11.825-3.509-23.624-3.917-35.483c-1.307-38.002-1.962-76.031-2.893-114.049c-0.079-3.208,0.299-6.563-2.196-9.214
	c0.374-16.35-2.6-32.112-8.569-47.293c-2.451-6.242-5.932-11.639-13.724-11.803c-7.372-0.153-11.94,4.483-15.563,9.939
	c-2.508,3.782-4.549,8.056-4.012,12.948c-11.128,16.324-12.194,36.416-20.835,57.129c-35.732-74.694-57.704-151.512-82.512-227.276
	c-0.109-20.473-1.319-41.002,3.341-61.215c12.771,8.279,24.589,18.548,40.874,19.439c15.863,40.943,25.968,83.635,38.199,125.839
	c0.562-22.942-0.575-45.786,1.503-68.557c1.101-12.057,2.535-24.01,8.211-34.981c11.468,14.414,28.836,18.286,44.631,24.967
	c5.307,12.162,6.699,25.172,8.254,38.142c0.265,2.205,0.042,5.631,2.454,5.554c1.868-0.059,3.642-3.096,5.458-4.809
	c12.769-1.42,23.75,0.807,29.824,13.932c0.659,1.422,2.919,2.104,4.439,3.131c-2.22,17.105,5.017,33.667,3.002,51.018
	c6.188-7.2,7.687-16.278,10.649-24.648c12.341-34.917,22.221-70.739,38.206-104.313c2.771-5.82,6.424-11.222,9.666-16.815
	c24.318-0.636,36.563,8.01,45.328,32.002c-2.88,20.938-9.22,40.906-16.911,60.494c1.425,13.475,3.994,14.718,17.121,8.261
	c16.007-7.868,16.012-7.868,22.902,7.918c-3.09,19.5-12.576,36.895-19.844,57.455c5.205-2.609,8.491-4.254,11.773-5.899
	c1.083,3.24,3.02,7.029,6.572,5.779c17.745-6.251,22.023,4.923,24.842,18.397c-4.902,10.993-9.814,21.985-14.717,32.979
	c0,0,0.279-0.186,0.279-0.188C623.98,283.563,622.967,284.483,621.948,285.407z M560.613,137.258
	c5.033-1.673,8.556-4.907,8.477-10.715c-0.078-5.589-3.43-8.396-8.853-7.968c-6.604,0.52-7.81,5.309-7.442,10.829
	C553.109,134.06,555.251,137.112,560.613,137.258z M574.789,248.838c-0.538-4.955-3.247-7.586-8.103-7.568
	c-5.637,0.02-8.398,3.201-8.141,8.698c0.231,4.883,3.155,7.496,8.006,7.481C572.188,257.434,574.731,254.198,574.789,248.838z
	 M608.034,257.665c0.171-4.416-1.66-7.439-5.947-7.761c-5.112-0.385-7.263,2.982-7.407,7.665c-0.122,4.021,1.451,7.422,5.781,7.881
	C605.994,266.033,606.47,261.096,608.034,257.665z M517.596,213.51c-5.025,1.001-6.786,4.403-6.467,9.063
	c0.244,3.513,1.932,6.506,5.741,6.616c5.48,0.155,6.616-4.464,7.171-8.471C524.641,216.39,521.948,213.96,517.596,213.51z
	 M518.688,262.142c-0.367-3.686-2.159-6.266-5.943-6.559c-4.562-0.352-6.834,2.436-7.21,6.67c-0.332,3.795,1.302,6.328,5.488,6.313
	C515.314,268.553,517.98,266.479,518.688,262.142z M402.039,247.914c-0.251-3.865-0.375-8.594-6-8.541
	c-3.741,0.035-4.956,3.509-4.988,6.961c-0.04,4.014,1.376,7.344,5.744,7.988C401.332,254.993,401.867,251.63,402.039,247.914z
	 M479.578,289.006c-0.655-3.599-2.857-6.065-6.586-5.545c-4.343,0.603-3.974,4.444-3.82,7.689c0.15,3.168,1.566,5.504,5.109,4.936
	C478.031,295.479,479.613,292.812,479.578,289.006z M417.799,140.431c-0.75-3.658-3.103-5.375-6.732-4.99
	c-2.952,0.314-5.27,2.066-5.086,5.189c0.223,3.806,2.989,5.386,6.583,5.045C415.549,145.391,417.435,143.616,417.799,140.431z
	 M595.467,233.491l0.537,0.522l0.162-0.797L595.467,233.491z"/>
<path fill-rule="evenodd" clip-rule="evenodd" fill="#76A592" d="M360.591,489.006c-15.714,4.522-31.646,2.303-47.533,1.542
	c0.397-4.614,5.169-9.587-0.802-13.722c-2.816-1.948-6.389-2.596-8.844,0.105c-3.924,4.317-0.402,8.569,1.101,12.742
	c-27.606-0.227-55.213-0.463-82.817-0.69c-34.308-39.353-65.74-80.862-93.587-125.048c-6.878-10.907-14.178-21.591-18.909-33.709
	c0.164-2.338-0.314-4.396-2.498-5.707c-0.406-0.646-0.646-1.348-0.728-2.11c0.109-5.098-0.015-10.208,0.391-15.277
	c0.404-5.064-2.482-11.785,5.88-13.435c24.161,29.044,48.285,58.117,72.518,87.1c3.743,4.479,6.419,10.344,13.158,11.44
	c6.374,18.128,21.465,30.604,30.486,47.015c-2.639-0.728-5.624-0.898-7.844-2.292c-5.382-3.372-11.766-6.907-15.557-0.206
	c-4.149,7.328,1.544,13.381,7.669,17.227c9.282,5.825,15.31,1.075,16.795-12.71c8.187,3.585,4.676-2.061,3.697-4.947
	c-6.696-19.767-12.603-39.687-13.101-60.785c4.267-1.093,8.076,0.684,12.074,1.708c4.031,1.029,8.481,1.503,11.527-2.211
	c3.289-4.009,0.311-8.235-1.228-11.632c-4.42-9.751-12.531-12.782-22.811-10.348c-5.427-14.008-8.512-28.887-15.692-42.244
	c-0.16-6.504-0.789-12.723-8.821-14.412c2.819-5.652-0.133-10.639-1.73-15.83c-5.106-16.558-12.533-32.512-13.238-50.234
	c14.929-2.849,26.99,1.602,36.563,13.594c3.035,3.807,6.277,8.159,12.045,8.462c10.737,11.464,16.396,26.224,25.249,38.912
	c27.867,52.405,56.028,104.63,87.294,155.141C349.472,459.649,359.009,472.641,360.591,489.006z M264.891,332.803
	c-3.247-5.714-7.499-11.078-14.355-13.304c-4.092-1.326-7.289,0.481-7.464,5.482c-0.306,8.801,4.748,14.034,12.485,15.839
	C259.855,341.824,262.864,337.743,264.891,332.803z M325.575,463.881c5.884-1.739,9.843-5.294,9.336-11.744
	c-0.441-5.61-4.053-9.98-9.66-9.709c-6.194,0.304-9.832,4.977-9.391,11.348C316.25,459.404,319.969,462.675,325.575,463.881z
	 M251.246,403.168c-0.081-5.613-2.974-8.476-8.515-8.74c-5.709-0.273-10.291,1.208-10.59,7.931c-0.251,5.639,2.891,8.46,8.414,8.753
	C246.295,411.414,250.617,409.782,251.246,403.168z"/>
<path fill-rule="evenodd" clip-rule="evenodd" fill="#76A592" d="M661.513,489.241c-31.052-0.284-62.144,1.573-93.13-1.761
	c8.486-19.219,21.561-35.439,33.87-52.207c17.301-23.562,39.617-42.708,57.302-65.901c10.873-5.847,19.625-13.724,24.367-25.441
	c7.267-4.96,14.533-9.922,21.801-14.875c8.023,10.575,14.569,21.882,17.418,35.024c-12.694,31.974-35.36,57.586-54.496,85.457
	c-2.6,3.786-4.925,7.761-7.372,11.647c-0.97,0.47-2.792,0.61-0.835,2.142c0.053,0.037,0.944-1.007,1.447-1.549
	c17.619-5.41,33.022-17.436,52.416-17.567c5.004,9.572,14.923,14.82,20.783,23.637c-1.626,7.18-6.197,12.148-12.104,16.12
	c-0.114-2.294,0.021-4.627-0.385-6.86c-1.001-5.454-3.92-9.562-9.837-9.601c-3.391-0.02-3.823,3.339-3.889,6.209
	c-0.14,5.996,2.395,9.623,8.753,9.85c1.835,0.07,3.661,0.176,5.493,0.263c-0.997,1.766-1.998,3.531-2.994,5.296
	c-14.031,0.066-28.063,0.136-42.095,0.206c-1.752-8.023,5.179-22.146-4.995-22.973C661.6,465.433,662.326,479.746,661.513,489.241z
	 M706.099,374.961c-0.913-6.186-3.897-11.017-10.444-10.656c-6.707,0.367-11.213,5.097-11.326,11.807
	c-0.092,5.694,4.186,9.384,9.832,9.664C701.283,386.13,704.949,381.741,706.099,374.961z M668.71,405.543
	c-5.921-0.055-10.072,2.215-9.811,8.753c0.224,5.746,3.685,9.992,9.29,10.216c5.751,0.232,9.242-4.085,9.775-9.686
	C678.564,408.502,674.858,405.604,668.71,405.543z M611.369,471.609c4.321-1.22,7.341-3.944,7.77-8.447
	c0.419-4.385-2.334-7.068-6.586-7.031c-4.313,0.042-6.493,3.072-6.699,7.248C605.662,467.326,606.745,470.639,611.369,471.609z
	 M675.037,378.575c-0.607-3.5-2.564-6.188-6.248-5.432c-3.348,0.69-7.359,1.993-6.87,6.826c0.372,3.671,2.985,5.696,6.459,5.609
	C672.538,385.475,674.841,382.896,675.037,378.575z"/>
<path fill-rule="evenodd" clip-rule="evenodd" fill="#286656" d="M340.912,390.821c12.614,19.651,18.36,42.281,27.242,63.536
	c4.77,11.41,11.803,22.225,12.244,35.204c-2.207-0.131-4.416-0.262-6.627-0.394c-19.588-31.756-39.597-63.267-58.571-95.39
	c-8.296-14.042-18.48-27.329-22.16-43.784c2.264-0.107,4.527-0.289,6.791-0.299c4.129-0.026,7.26-1.204,7.077-6.092
	c-0.162-4.131-2.169-7.145-6.48-7.302c-4.372-0.157-6.389,2.84-6.876,6.904c-0.269,2.249-0.354,4.519-0.524,6.78
	c-5.254-1.396-5.814-6.638-7.87-10.328c-9.55-17.132-18.631-34.52-27.879-51.818c-6.151-19.54-14.733-38.603-12.17-59.897
	c0.894-7.418,1.897-15.021,10.434-17.886c8.997-3.02,13.177,3.819,17.944,9.281c6.514,7.986,10.125,17.176,12.966,27.093
	c11.215,39.134,28.12,76.055,45.031,112.955c2.67,5.825,4.261,12.144,6.35,18.233c-7.095,0.997-9.892,5.384-7.324,11.694
	C332.504,394.23,336.546,396.518,340.912,390.821z"/>
<path fill-rule="evenodd" clip-rule="evenodd" fill="#236252" d="M203.938,310.813c7.18,13.356,10.265,28.236,15.688,42.244
	c-3.087,7.56-2.525,15.045,0.441,22.483c0.498,21.098,6.404,41.018,13.101,60.785c0.979,2.886,4.49,8.532-3.697,4.949
	c-0.183-0.76-0.538-1.436-1.064-2.021c-9.021-16.411-24.113-28.887-30.486-47.015c-8.65-23.527-15.62-47.407-15.083-72.839
	C189.931,316.678,194.576,307.949,203.938,310.813z"/>
<path fill-rule="evenodd" clip-rule="evenodd" fill="#F5F4F4" d="M257.277,287.839c9.249,17.298,18.33,34.686,27.879,51.818
	c2.056,3.69,2.616,8.932,7.87,10.328l0.011,0.009c3.682,16.455,13.866,29.741,22.162,43.784
	c18.974,32.123,38.983,63.634,58.571,95.39c-4.394-0.052-8.79-0.104-13.182-0.157c-1.58-16.369-11.117-29.361-19.289-42.563
	c-31.266-50.511-59.428-102.735-87.294-155.141C255.096,290.153,256.188,288.995,257.277,287.839z"/>
<path fill-rule="evenodd" clip-rule="evenodd" fill="#99CCB7" d="M282.711,70.417c-4.37-1.046-9.445-1.022-12.98-3.343
	c-11.097-7.276-21.349-7.796-31.502,1.289c-0.135-8.292-0.643-16.599-0.28-24.869c0.267-6.116,2.117-12.212,8.904-14.193
	c6.85-2.004,12.769,0.144,16.892,6.198C271.234,46.5,279.808,56.923,282.711,70.417z"/>
<path fill-rule="evenodd" clip-rule="evenodd" fill="#468E7A" d="M592.976,97.446c-8.766-23.993-21.01-32.638-45.328-32.002
	c0.56-1.254,0.896-2.672,1.704-3.732c7.971-10.442,16.295-22.658,31.393-17.949c14.854,4.634,14.002,19.07,13.757,31.697
	C594.357,82.788,596.026,90.302,592.976,97.446z"/>
<path fill-rule="evenodd" clip-rule="evenodd" fill="#99CCB7" d="M681.221,294.309c-0.127-3.238-0.35-6.472-0.376-9.71
	c-0.188-25.631-0.175-25.631-25.86-27.596c5.126-9.437,13.795-15.004,22.811-19.736c10.89-5.718,20.063-0.345,19.616,11.934
	C696.809,265.736,690.065,280.502,681.221,294.309z"/>
<path fill-rule="evenodd" clip-rule="evenodd" fill="#468E7A" d="M435.694,104.252c-15.795-6.682-33.163-10.553-44.631-24.967
	c2.244-9.793,9.159-15.57,18.347-16.094c9.308-0.531,14.652,6.994,18.183,14.875C431.337,86.43,435.832,94.652,435.694,104.252z"/>
<path fill-rule="evenodd" clip-rule="evenodd" fill="#468E7A" d="M343.149,56.984c-16.284-0.892-28.103-11.161-40.874-19.439
	c1.331-9.5,1.49-21.109,13.002-23.171c12.238-2.189,15.153,9.773,19.05,18.192C337.949,40.392,340.26,48.821,343.149,56.984z"/>
<path fill-rule="evenodd" clip-rule="evenodd" fill="#468E7A" d="M683.922,343.931c-4.742,11.718-13.494,19.594-24.371,25.441
	c-6.887-0.118-14.451,0.863-14.949-9.391c2.015-11.63,9.823-19.723,17.156-28.098C673.102,328.614,680.845,331.981,683.922,343.931z
	"/>
<path fill-rule="evenodd" clip-rule="evenodd" fill="#99CCB7" d="M228.757,252.395c-5.768-0.304-9.011-4.656-12.045-8.462
	c-9.572-11.993-21.633-16.443-36.563-13.594c-0.944-9.524-8.532-21.135,3.865-27.34c11.421-5.716,14.764,7.412,21.611,12.662
	C218.042,225.178,222.534,239.229,228.757,252.395z"/>
<path fill-rule="evenodd" clip-rule="evenodd" fill="#468E7A" d="M486.124,160.202c-1.521-1.027-3.78-1.709-4.439-3.131
	c-6.074-13.125-17.056-15.352-29.824-13.932c1.805-11.847,9.021-18.482,20.639-17.073c11.266,1.363,13.079,11.169,13.521,20.733
	C486.229,151.259,486.098,155.734,486.124,160.202z"/>
<path fill-rule="evenodd" clip-rule="evenodd" fill="#468E7A" d="M639.432,249.852c-2.818-13.474-7.097-24.648-24.842-18.397
	c-3.553,1.25-5.489-2.539-6.572-5.779c0.572-0.697,0.996-1.637,1.73-2.056c9.119-5.242,18.23-15.976,29.164-6.146
	C649.417,226.921,645.663,238.91,639.432,249.852z"/>
<path fill-rule="evenodd" clip-rule="evenodd" fill="#468E7A" d="M616.088,174.12c-6.891-15.786-6.896-15.786-22.902-7.918
	c-13.127,6.457-15.696,5.213-17.121-8.261c6.477,0.267,11.126-4.208,16.531-6.601c16.754-7.411,24.357-2.593,24.253,15.922
	C616.831,169.549,616.354,171.833,616.088,174.12z"/>
<path fill-rule="evenodd" clip-rule="evenodd" fill="#99CCB7" d="M723.141,364.08c-2.849-13.143-9.395-24.449-17.418-35.024
	c4.361-6.833,10.291-8.436,17.554-5.111c6.922,3.168,8.045,9.243,7.831,15.99C730.828,348.781,728.267,356.848,723.141,364.08z"/>
<path fill-rule="evenodd" clip-rule="evenodd" fill="#99CCB7" d="M112.246,293.697c-8.362,1.65-5.476,8.371-5.88,13.435
	c-0.406,5.069-0.282,10.18-0.391,15.277c-7.051-6.247-9.349-15.537-14.665-22.922c-3.348-4.649-5.788-10.285-0.253-14.709
	c5.705-4.56,11.195-1.853,15.771,2.819C108.726,289.539,110.445,291.658,112.246,293.697z"/>
<path fill-rule="evenodd" clip-rule="evenodd" fill="#99CCB7" d="M735.084,467.847c-5.86-8.816-15.779-14.064-20.783-23.637
	c7.39-6.463,15.968-6.965,21.933,0.168C742.049,451.326,742.408,460.356,735.084,467.847z"/>
<path fill-rule="evenodd" clip-rule="evenodd" fill="#468E7A" d="M203.938,310.813c-9.363-2.864-14.008,5.864-21.1,8.585
	c-1.005-10.385,2.12-18.572,12.279-22.997C203.149,298.091,203.779,304.309,203.938,310.813z"/>
<path fill-rule="evenodd" clip-rule="evenodd" fill="#99CCB7" d="M106.702,324.52c2.183,1.311,2.661,3.369,2.498,5.707
	C107.117,328.872,106.294,326.967,106.702,324.52z"/>
<path fill-rule="evenodd" clip-rule="evenodd" fill="#0A0909" d="M363.316,575.987c29.271,8.989,46.897,33.08,44.433,60.72
	c-2.541,28.521-30.443,47.426-57.907,39.236c-10.876-16.422-4.588-34.924-6.454-52.438
	C341.298,603.881,349.148,588.669,363.316,575.987z"/>
<path fill-rule="evenodd" clip-rule="evenodd" fill="#0A0909" d="M433.839,759.417c-0.623-15.313-0.367-30.528,4.333-45.333
	c3.146-9.924,8.174-18.642,16.383-25.205c21.458-17.161,46.904-11.244,58.353,13.966c10.265,22.601,10.413,46.644,8.612,70.813
	c-1.939-2.539-4.028-4.969-5.803-7.617c-20.582-30.68-47.795-34.172-75.975-9.797C438.095,757.669,435.823,758.377,433.839,759.417z
	"/>
<path fill-rule="evenodd" clip-rule="evenodd" fill="#D84F6D" d="M433.839,759.417c1.984-1.04,4.256-1.748,5.903-3.173
	c28.18-24.375,55.393-20.883,75.975,9.797c1.774,2.648,3.863,5.078,5.803,7.617c-1.205,8.255-3.067,16.291-7.07,23.732
	c-14.49,26.963-46.571,29.134-64.8,4.283C440.426,789.097,435.06,775.018,433.839,759.417z"/>
<path fill-rule="evenodd" clip-rule="evenodd" fill="#0A0909" d="M582.99,581.109c15.076-4.135,32.455,1.6,42.139,13.904
	c10.261,13.031,12.524,37.145,3.828,51.312c-10.47,17.063-25.401,26.647-46.324,24.266c-9.422-10.339-14.613-22.417-13.508-36.479
	C570.572,615.666,573.543,597.514,582.99,581.109z"/>
<path fill-rule="evenodd" clip-rule="evenodd" fill="#F5F4F4" d="M363.316,575.987c-14.167,12.682-22.018,27.894-19.929,47.519
	c1.866,17.514-4.422,36.016,6.454,52.438c-28.035-6.218-43.701-30.51-39.685-61.536C313.305,590.05,334.252,574.912,363.316,575.987
	z"/>
<path fill-rule="evenodd" clip-rule="evenodd" fill="#EF7E69" d="M348.738,751.446c-5.312,0.546-10.133-1.128-14.96-2.735
	c-11.891-3.964-21.041-10.978-20.65-24.498c0.406-13.975,11.292-19.472,22.894-22.452c10.199-2.613,21.085-4.344,30.609,2.106
	c10.315,6.982,16.73,16.51,11.923,29.501C373.526,746.954,361.948,750.878,348.738,751.446z"/>
<path fill-rule="evenodd" clip-rule="evenodd" fill="#EF7E69" d="M607.301,698.195c5.995,0.293,12.345-0.572,17.907,1.123
	c9.5,2.893,18.716,8.254,19.018,19.433c0.323,12.013-9.22,18.405-19.228,20.538c-9.723,2.067-20.494,2.01-30.296,0.157
	c-11.454-2.163-18.642-10.02-17.042-23.028c1.537-12.516,7.948-19.333,21.303-17.996c2.748,0.275,5.55,0.04,8.328,0.04
	C607.296,698.374,607.301,698.287,607.301,698.195z"/>
<path fill-rule="evenodd" clip-rule="evenodd" fill="#F5F4F4" d="M582.99,581.109c-9.447,16.404-12.418,34.557-13.865,53.002
	c-1.105,14.063,4.086,26.141,13.508,36.479c-24.926-2.574-39.036-20.91-38.342-49.829
	C544.855,597.369,559.791,582.066,582.99,581.109z"/>
<path fill-rule="evenodd" clip-rule="evenodd" fill="#286656" d="M644.602,359.981c0.498,10.254,8.063,9.273,14.949,9.391
	c-17.681,23.193-39.997,42.339-57.298,65.901c-12.31,16.768-25.384,32.988-33.87,52.207c-2.422,0.41-4.834,0.821-7.25,1.241
	c2.582-13.817,13.35-22.876,20.271-34.109c17.995-29.184,37.021-57.732,55.777-86.442
	C639.17,365.125,642.106,362.695,644.602,359.981z"/>
<path fill-rule="evenodd" clip-rule="evenodd" fill="#8BBAB1" d="M661.513,489.241c0.813-9.495,0.087-23.809,11.519-22.885
	c10.174,0.826,3.243,14.949,4.995,22.973C672.521,489.299,667.015,489.271,661.513,489.241z"/>
<path fill-rule="evenodd" clip-rule="evenodd" fill="#8BBAB1" d="M304.513,489.674c-1.503-4.173-5.025-8.425-1.101-12.742
	c2.456-2.701,6.028-2.054,8.844-0.105c5.972,4.135,1.2,9.107,0.802,13.722C310.047,491.859,307.128,492.278,304.513,489.674z"/>
<path fill-rule="evenodd" clip-rule="evenodd" fill="#99CCB7" d="M510.889,291.202c2.504-9.596,10.225-15.174,16.915-21.386
	c5.965-5.541,13.206-9.386,21.521-6.133c8.412,3.286,10.361,11.453,11.454,19.286c1.669,11.949,1.555,23.997-0.018,35.999
	c-8.027-1.519-9.632-8.923-10.471-14.523c-2.473-16.505-13.254-17.438-25.996-15.832
	C519.789,289.181,515.354,290.321,510.889,291.202z"/>
<path fill-rule="evenodd" clip-rule="evenodd" fill="#99CCB7" d="M402.282,268.907c-0.538-4.892,1.503-9.166,4.012-12.948
	c3.623-5.456,8.191-10.092,15.563-9.939c7.792,0.164,11.272,5.561,13.724,11.803c5.969,15.181,8.943,30.943,8.569,47.293
	c-8.418-0.609-11.626-7.226-13.87-13.56C425.479,278.007,419.351,266.925,402.282,268.907z"/>
<path fill-rule="evenodd" clip-rule="evenodd" fill="#8BBAB1" d="M351.688,286.69c-1.999,9.017-6.758,14.757-14.982,15.026
	c-6.209,0.203-10.337-4.792-9.625-11.049c0.85-7.512,5.864-12.614,13.595-13.156C347.193,277.054,350.185,281.787,351.688,286.69z"
	/>
<path fill-rule="evenodd" clip-rule="evenodd" fill="#8BBAB1" d="M487.086,338.346c1.337-7.389,3.242-14.53,8.866-20.022
	c7.948,2.213,14.595,6.375,10.99,15.585C503.07,343.811,494.886,341.977,487.086,338.346z"/>
<path fill-rule="evenodd" clip-rule="evenodd" fill="#8BBAB1" d="M513.331,363.807c5.799,0.396,10.261,3.262,10.732,8.827
	c0.546,6.479-4.029,10.21-10.243,10.37c-6.301,0.164-10.898-3.612-10.697-9.961C503.298,367.464,507.812,364.519,513.331,363.807z"
	/>
<path fill-rule="evenodd" clip-rule="evenodd" fill="#8BBAB1" d="M440.367,458.779c6.738,2.349,9.625,6.935,9.042,13.835
	c-0.47,5.62-3.619,8.565-9.094,8.054c-6.833-0.634-9.614-6.065-9.251-11.707C431.374,464.156,433.989,459.125,440.367,458.779z"/>
<path fill-rule="evenodd" clip-rule="evenodd" fill="#8BBAB1" d="M574.71,425.824c-0.729,5.874-4.112,9.437-9.701,10.143
	c-6.275,0.793-9.426-2.657-9.592-8.908c-0.153-5.86,1.778-10.18,8.421-10.188C569.729,416.861,572.936,420.543,574.71,425.824z"/>
<path fill-rule="evenodd" clip-rule="evenodd" fill="#8BBAB1" d="M410.073,373.185c-0.579,5.006-3.45,8.571-8.351,9.463
	c-5.115,0.931-7.545-2.563-7.969-7.236c-0.387-4.305-0.118-8.521,5.825-8.832C404.565,366.317,408.771,367.27,410.073,373.185z"/>
<path fill-rule="evenodd" clip-rule="evenodd" fill="#8BBAB1" d="M630.92,327.521c4.676,0.385,8.307,2.454,7.621,7.639
	c-0.665,5.006-4.218,8.454-9.383,8.543c-4.309,0.074-6.498-3.161-6.629-7.376C622.363,330.729,625.217,327.769,630.92,327.521z"/>
<path fill-rule="evenodd" clip-rule="evenodd" fill="#8BBAB1" d="M320.358,185.027c-1.036,4.438-3.787,7.514-8.183,8.008
	c-5.106,0.572-7.455-2.825-7.562-7.566c-0.107-4.687,1.956-8.292,7.097-8.093C316.23,177.55,318.892,180.76,320.358,185.027z"/>
<path fill-rule="evenodd" clip-rule="evenodd" fill="#8BBAB1" d="M277.439,99.17c4.521,0.188,6.854,2.757,7.219,6.88
	c0.409,4.605-1.234,8.436-6.387,8.854c-4.402,0.358-6.727-2.648-7.116-6.752C270.714,103.522,272.501,100.105,277.439,99.17z"/>
<path fill-rule="evenodd" clip-rule="evenodd" fill="#8BBAB1" d="M388.093,439.622c-0.209,3.601,0.004,7.558-4.604,7.192
	c-5.115-0.404-8.371-3.963-8.801-8.952c-0.365-4.252,2.504-7.057,6.804-6.714C386.601,431.551,387.94,435.514,388.093,439.622z"/>
<path fill-rule="evenodd" clip-rule="evenodd" fill="#8BBAB1" d="M418.616,426.248c-0.935,4.577-3.192,7.251-7.627,6.675
	c-4.37-0.57-6.067-3.787-6.026-7.875c0.043-4.055,1.614-7.903,6.192-7.202C415.441,418.504,417.871,422.214,418.616,426.248z"/>
<path fill-rule="evenodd" clip-rule="evenodd" fill="#8BBAB1" d="M652.227,291.007c-0.839,4.461-4.012,5.705-7.944,5.632
	c-3.413-0.059-6.79-1.284-6.825-5.063c-0.044-4.57,3.137-7.813,7.634-7.702C648.896,283.97,651.2,287.21,652.227,291.007z"/>
<path fill-rule="evenodd" clip-rule="evenodd" fill="#8BBAB1" d="M515.153,428.033c5.366,0.19,6.935,2.674,6.646,6.38
	c-0.319,4.153-2.565,7.105-6.931,6.937c-4.238-0.166-6.813-2.865-6.318-7.269C509.057,429.643,512.439,428.317,515.153,428.033z"/>
<path fill-rule="evenodd" clip-rule="evenodd" fill="#8BBAB1" d="M531.78,346.648c-3.583-0.465-6.179-2.242-6.476-5.993
	c-0.354-4.459,2.254-7.182,6.493-7.188c4.257-0.002,6.835,2.74,6.463,7.199C537.946,344.405,535.381,346.207,531.78,346.648z"/>
<path fill-rule="evenodd" clip-rule="evenodd" fill="#468E7A" d="M340.912,390.821c-4.366,5.696-8.408,3.409-10.405-1.51
	c-2.567-6.31,0.229-10.697,7.324-11.694C340.444,381.651,341.139,386.128,340.912,390.821z"/>
<path fill-rule="evenodd" clip-rule="evenodd" fill="#FFFFFF" d="M621.948,285.407c1.019-0.924,2.032-1.844,3.046-2.764
	c0.018,1.184,0.516,2.716-0.044,3.478C623.896,287.568,622.743,286.609,621.948,285.407z"/>
<path fill-rule="evenodd" clip-rule="evenodd" fill="#468E7A" d="M560.613,137.258c-5.362-0.146-7.504-3.198-7.818-7.854
	c-0.367-5.52,0.839-10.309,7.442-10.829c5.423-0.428,8.774,2.379,8.853,7.968C569.169,132.351,565.646,135.584,560.613,137.258z"/>
<path fill-rule="evenodd" clip-rule="evenodd" fill="#468E7A" d="M574.789,248.838c-0.058,5.36-2.601,8.596-8.237,8.611
	c-4.851,0.015-7.774-2.598-8.006-7.481c-0.258-5.498,2.504-8.679,8.141-8.698C571.542,241.252,574.251,243.883,574.789,248.838z"/>
<path fill-rule="evenodd" clip-rule="evenodd" fill="#306F56" d="M608.034,257.665c-1.564,3.431-2.04,8.368-7.573,7.785
	c-4.33-0.459-5.903-3.861-5.781-7.881c0.145-4.682,2.295-8.049,7.407-7.665C606.374,250.226,608.205,253.25,608.034,257.665z"/>
<path fill-rule="evenodd" clip-rule="evenodd" fill="#468E7A" d="M517.596,213.51c4.353,0.45,7.045,2.88,6.445,7.208
	c-0.555,4.007-1.69,8.626-7.171,8.471c-3.81-0.109-5.497-3.103-5.741-6.616C510.81,217.913,512.57,214.511,517.596,213.51z"/>
<path fill-rule="evenodd" clip-rule="evenodd" fill="#468E7A" d="M518.688,262.142c-0.708,4.337-3.374,6.411-7.665,6.424
	c-4.187,0.015-5.82-2.517-5.488-6.313c0.376-4.234,2.648-7.022,7.21-6.67C516.529,255.876,518.321,258.456,518.688,262.142z"/>
<path fill-rule="evenodd" clip-rule="evenodd" fill="#306F56" d="M402.039,247.914c-0.172,3.716-0.708,7.079-5.244,6.408
	c-4.368-0.645-5.784-3.975-5.744-7.988c0.033-3.452,1.248-6.926,4.988-6.961C401.664,239.32,401.788,244.049,402.039,247.914z"/>
<path fill-rule="evenodd" clip-rule="evenodd" fill="#468E7A" d="M479.578,289.006c0.035,3.806-1.547,6.474-5.297,7.079
	c-3.543,0.568-4.959-1.768-5.109-4.936c-0.153-3.245-0.522-7.086,3.82-7.689C476.721,282.94,478.923,285.407,479.578,289.006z"/>
<path fill-rule="evenodd" clip-rule="evenodd" fill="#468E7A" d="M417.799,140.431c-0.365,3.186-2.25,4.96-5.235,5.244
	c-3.594,0.341-6.36-1.239-6.583-5.045c-0.184-3.123,2.135-4.875,5.086-5.189C414.697,135.056,417.05,136.773,417.799,140.431z"/>
<polygon fill-rule="evenodd" clip-rule="evenodd" fill="#FFFFFF" points="595.467,233.491 596.166,233.216 596.004,234.013 "/>
<path fill-rule="evenodd" clip-rule="evenodd" fill="#99CCB7" d="M220.067,375.54c-2.967-7.438-3.528-14.923-0.441-22.483
	c10.285-2.434,18.395,0.596,22.815,10.348c1.538,3.397,4.516,7.624,1.228,11.632c-3.046,3.715-7.497,3.241-11.527,2.211
	C228.143,376.224,224.334,374.447,220.067,375.54z"/>
<path fill-rule="evenodd" clip-rule="evenodd" fill="#8BBAB1" d="M228.407,439.252c0.526,0.585,0.881,1.261,1.064,2.021
	c-1.486,13.783-7.514,18.533-16.795,12.708c-6.125-3.846-11.818-9.898-7.669-17.227c3.791-6.701,10.175-3.166,15.557,0.206
	C222.783,438.354,225.768,438.525,228.407,439.252z"/>
<path fill-rule="evenodd" clip-rule="evenodd" fill="#8BBAB1" d="M264.891,332.803c-2.027,4.94-5.036,9.021-9.334,8.017
	c-7.737-1.805-12.791-7.038-12.485-15.839c0.175-5.001,3.372-6.808,7.464-5.482C257.393,321.725,261.645,327.089,264.891,332.803z"
	/>
<path fill-rule="evenodd" clip-rule="evenodd" fill="#8BBAB1" d="M325.575,463.881c-5.606-1.206-9.325-4.477-9.714-10.105
	c-0.441-6.371,3.196-11.044,9.391-11.348c5.606-0.271,9.218,4.099,9.66,9.709C335.418,458.587,331.459,462.142,325.575,463.881z"/>
<path fill-rule="evenodd" clip-rule="evenodd" fill="#8BBAB1" d="M251.246,403.168c-0.629,6.614-4.951,8.246-10.69,7.944
	c-5.523-0.293-8.666-3.114-8.414-8.753c0.299-6.723,4.881-8.205,10.59-7.931C248.272,394.693,251.166,397.555,251.246,403.168z"/>
<path fill-rule="evenodd" clip-rule="evenodd" fill="#8BBAB1" d="M706.099,374.961c-1.149,6.78-4.815,11.169-11.938,10.815
	c-5.646-0.28-9.924-3.97-9.832-9.664c0.113-6.71,4.619-11.44,11.326-11.807C702.201,363.944,705.186,368.775,706.099,374.961z"/>
<path fill-rule="evenodd" clip-rule="evenodd" fill="#8BBAB1" d="M668.723,405.541c6.136,0.063,9.842,2.961,9.242,9.286
	c-0.533,5.6-4.024,9.917-9.775,9.686c-5.605-0.225-9.066-4.47-9.29-10.216C658.638,407.759,662.789,405.489,668.723,405.541z"/>
<path fill-rule="evenodd" clip-rule="evenodd" fill="#8BBAB1" d="M723.115,483.827c-1.832-0.087-3.658-0.192-5.493-0.263
	c-6.358-0.227-8.893-3.854-8.753-9.85c0.065-2.87,0.498-6.229,3.889-6.209c5.917,0.039,8.836,4.146,9.837,9.601
	c0.406,2.233,0.271,4.566,0.385,6.86L723.115,483.827z"/>
<path fill-rule="evenodd" clip-rule="evenodd" fill="#8BBAB1" d="M611.369,471.609c-4.624-0.971-5.707-4.283-5.516-8.231
	c0.206-4.175,2.387-7.206,6.699-7.248c4.252-0.037,7.005,2.646,6.586,7.031C618.71,467.665,615.69,470.39,611.369,471.609z"/>
<path fill-rule="evenodd" clip-rule="evenodd" fill="#8BBAB1" d="M675.037,378.575c-0.196,4.322-2.499,6.9-6.659,7.003
	c-3.474,0.087-6.087-1.938-6.459-5.609c-0.489-4.833,3.522-6.135,6.87-6.826C672.473,372.387,674.43,375.075,675.037,378.575z"/>
<path fill-rule="evenodd" clip-rule="evenodd" fill="#FFFFFF" d="M661.885,461.777c-0.503,0.542-1.395,1.586-1.447,1.549
	c-1.957-1.532-0.135-1.672,0.835-2.142C661.268,461.185,661.885,461.777,661.885,461.777z"/>
<path fill-rule="evenodd" clip-rule="evenodd" fill="#468E7A" d="M293.026,349.985c0.171-2.261,0.256-4.531,0.524-6.78
	c0.487-4.064,2.504-7.062,6.876-6.904c4.311,0.157,6.319,3.17,6.48,7.302c0.184,4.888-2.947,6.065-7.077,6.092
	c-2.264,0.011-4.527,0.192-6.791,0.299C293.038,349.994,293.026,349.985,293.026,349.985z"/>
</svg>
