<?xml version="1.0" encoding="utf-8"?>
<!-- Generator: Adobe Illustrator 16.0.0, SVG Export Plug-In . SVG Version: 6.00 Build 0)  -->
<!DOCTYPE svg PUBLIC "-//W3C//DTD SVG 1.1//EN" "http://www.w3.org/Graphics/SVG/1.1/DTD/svg11.dtd">
<svg version="1.1" id="Layer_1" xmlns="http://www.w3.org/2000/svg" xmlns:xlink="http://www.w3.org/1999/xlink" x="0px" y="0px"
	 width="928px" height="928px" viewBox="0 0 928 928" enable-background="new 0 0 928 928" xml:space="preserve">
<path fill-rule="evenodd" clip-rule="evenodd" fill="#F9B6AA" d="M763.862,441.075c17.813,0.102,35.628,0.063,53.437,0.364
	c9.517,0.159,26.732,13.477,27.096,22.76c0.896,22.523,2.133,45.174-0.588,67.645c-2.387,19.729-15.688,29.907-33.532,35.592
	c-16.925,5.39-20.484,12.814-18.96,30.79c5.867,69.226,9.03,138.79-4.43,207.243c-7.633,38.812-28.686,69.831-70.722,82.396
	c-37.54,11.221-75.122,18.915-114.437,21.256c-46.044,2.742-92.019,2.485-137.977,1.766
	c-79.875-1.242-158.822-11.045-236.212-31.469c-57.927-15.29-86.984-49.415-95.149-108.266c-3.428-24.738-2.538-49.411-2.096-74.06
	c0.609-33.888-2.607-67.604-2.738-101.43c-0.016-4.69,0.776-9.451-6.473-10.379c-34.108-4.372-34.819-22.303-37.508-46.936
	c-2.407-22.065,1.23-44.173,2.729-66.206c0.911-13.449,20.865-30.117,34.676-30.624c8.679-0.319,17.375-0.204,26.058-0.284
	c10.71,2.763,21.583,2.405,32.478,1.735c5.447,0.276,10.894,0.547,16.345,0.823c3.437-0.147,6.873-0.296,10.31-0.441
	c2.432,0.039,4.863,0.08,7.298,0.121c4.45,0.519,8.924,1.432,13.199-0.852c2.934,0.053,5.864,0.102,8.785,0.141
	c1.524,0.176,3.057,0.364,4.593,0.556c4.152,0.015,8.299,0.033,12.447,0.051c3.727-0.029,7.449-0.06,11.172-0.088
	c8.458,0.848,16.917,1.081,25.355-0.26c3.739,0.769,7.522,1.9,10.824-1.22c3.474-0.045,6.943-0.092,10.416-0.137
	c3.506-0.061,7.012-0.123,10.519-0.184c5.974-0.041,11.948-0.08,17.922-0.12c3.572-0.011,7.143-0.017,10.714-0.027
	c5.186,0,10.367,0,15.548,0c8.757-0.065,17.51-0.128,26.267-0.192c5.945-0.035,11.891-0.072,17.837-0.106
	c3.608,0.015,7.22,0.033,10.828,0.049c3.367-0.02,6.734-0.039,10.102-0.059c3.621-0.018,7.245-0.033,10.865-0.051
	c6.747-0.051,13.493-0.102,20.235-0.153c3.612,0.088,7.221,0.173,10.833,0.259c8.581-0.086,17.166-0.171,25.752-0.259
	c2.741,0.035,5.483,0.069,8.226,0.108c3.485,0.047,6.975,0.088,10.465,0.129c11.18-0.073,22.359-0.147,33.544-0.223
	c3.641,0.004,7.286,0.006,10.931,0.008c5.026-0.017,10.057-0.035,15.087-0.053c3.633,0.033,7.27,0.069,10.902,0.104
	c6.819-0.025,13.644-0.053,20.464-0.078c3.559,0.053,7.122,0.106,10.686,0.162c0,0.006,1.234,0.241,1.234,0.241l1.238-0.255
	c7.796-0.196,15.593-0.391,23.394-0.581c1.978-0.071,3.947-0.151,5.921-0.233c2.313,0.01,4.626,0.019,6.942,0.029
	c8.896,1.87,17.845,1.363,26.802,0.609c3.245-0.021,6.481-0.039,9.726-0.06c2.877-0.014,5.749-0.028,8.626-0.042
	c3.236,0.053,6.477,0.11,9.718,0.166c3.506,0.102,7.012,0.206,10.522,0.311c6.166-0.056,12.34-0.11,18.506-0.166
	C748.367,441.024,756.115,441.049,763.862,441.075z M424.673,763.495c13.296,22.834,34.938,30.422,59.32,29.417
	c15.156-0.621,31.117-3.551,40.487-18.65c15.475-9.304,19.834-25.118,23.7-41.046c6.432-26.504,6.301-26.536-21.18-30.513
	c-19.732-0.062-39.469-0.123-59.202-0.188c-2.247-0.029-4.495-0.054-6.742-0.086c-7.024,0.016-14.048,0.032-21.073,0.049
	c-7.302-0.245-14.613-0.38-21.915-0.76c-13.162-0.679-17.273,3.588-14.511,16.696C407.053,735.01,413.403,750.451,424.673,763.495z
	 M364.625,699.974c29.871,3.093,53.841-24.109,52.917-52.66c-1.038-31.897-21.453-50.11-55.206-52.623
	c-30.484-2.268-50.265,30.934-49.726,56.317C313.231,680.352,333.43,699.916,364.625,699.974z M565.771,657.619
	c0,2.289-0.339,6.652,0.062,10.947c1.487,15.99,9.239,27.856,24.33,33.933c16.112,6.489,33.241,10.788,47.846-1.761
	c14.878-12.791,24.669-29.353,21.38-50.282c-3.045-19.356-8.401-38.774-30.3-44.128C598.25,598.785,562.335,609.336,565.771,657.619
	z M344.021,712.891c-11.359,0.642-19.92,5.573-25.796,15.16c-4.332,7.061-1.623,13.574,2.17,19.36
	c10.408,15.88,41.905,18.72,55.561,5.353c9.088-8.896,8.806-19.315-1.242-28.104C365.953,716.993,355.288,713.781,344.021,712.891z
	 M614.031,765.048c4.049,0,7.143,0.38,10.113-0.073c9.832-1.488,19.405-4.598,21.706-15.528
	c2.269-10.804-5.639-15.948-14.073-20.759c-13.652-7.792-27.484-5.925-41.59-2.509c-6.873,1.659-11.977,5.599-13.293,12.717
	c-1.434,7.747,2.6,13.615,8.807,17.489C594.588,761.926,603.938,766.674,614.031,765.048z"/>
<path fill-rule="evenodd" clip-rule="evenodd" fill="#286656" d="M334.86,261.181c-0.065-3.473-0.257-6.953-0.159-10.424
	c0.159-5.606-2.501-6.7-7.343-5.071c-3.286,1.105-6.632,2.104-10.028,2.799c-3.249,0.666-6.346-0.115-7.257-3.719
	c-0.822-3.269,0.437-6.832,3.906-7.123c22.854-1.914,23.529-17.894,23.001-35.066c-0.114-3.822,1.128-7.715,1.937-11.533
	c1.226-5.774,1.377-10.412-6.832-9.875c-3.837,0.249-6.881-1.702-6.665-6.162c0.221-4.538,3.784-6.124,7.323-5.474
	c10.718,1.961,12.999-5.181,15.679-12.933c6.375-18.429,16.807-34.38,31.905-46.759c5.786-4.74,7.801-8.757,3.057-15.05
	c-1.287-1.702-2.027-3.833-2.93-5.805c-2.133-4.656-6.146-10.483-0.033-13.781c6.926-3.739,8.753,3.764,10.399,8.148
	c4.18,11.111,9.272,15.689,20.292,6.604c4.507-3.718,10.931-5.12,16.48-7.572c-1.079,11.258-7.053,21.143-8.271,32.562
	c-4.773,44.798-7.18,89.551-2.668,134.537c0.65,6.491,2.812,13.767-2.117,19.933c-5.855-8.93-13.57-15.405-24.142-17.941
	c-8.536-2.051-14.498-0.135-14.621,10.102c-2.922-0.037-6.632,0.921-8.209-2.027c-4.192-7.833-9.762-5.986-16.149-3.535
	c-4.691,1.804-9.783,2.577-14.694,3.809C335.686,259.702,335.061,260.155,334.86,261.181z M368.18,237.562
	c4.127-13.423,10.363-25.558,10.755-40.44c0.658-25.296,4.287-50.741,13.951-74.718c1.765-4.382,6.95-10.242-1.214-12.72
	c-6.542-1.984-6.783,5.298-8.173,9.204C369.798,157.328,367.465,197.302,368.18,237.562z"/>
<path fill-rule="evenodd" clip-rule="evenodd" fill="#5E9C8C" d="M213.469,443.472c-2.436-0.041-4.867-0.082-7.298-0.116
	c-8.916-31.769-15.287-63.45,4.54-93.942c-5.778-1.894-7.498,3.719-11.434,3.705c-8.348-40.755-8.009-81.908-4.344-126.46
	c-10.604,15.066-15.405,28.896-17.395,43.354c-7.56,54.813-1.328,108.752,11.736,162.131c0.973,3.98,0.466,9.104,6.375,10.036
	c0.074,0.539,0.143,1.076,0.212,1.614c-5.451-0.276-10.898-0.547-16.349-0.823c-0.597-18.241-6.15-35.661-9.08-53.52
	c-6.983-42.544-8.675-84.938-1.426-127.674c2.983-17.598,13.681-31.44,19.888-47.399c-0.348-2.887,1.557-2.676,3.437-2.5
	c4.07,1.097,4.119,8.933,9.791,6.591c5.435-2.247,3.171-8.414,4.801-12.667c0.838-0.247,1.345,0.057,1.521,0.909
	c2.746,4.642-4.45,17.451,5.749,13.804c10.191-3.643,13.064,1.125,17.886,5.888c8.684,8.569,14.801,19.005,20.746,29.54
	c15.548,27.542,21.032,58.103,26.61,88.638c-1.034,0.895-2.06,1.79-3.093,2.687c-2.333,0.275-4.667,0.547-7,0.819
	c-6.154-41.606-15.083-82.075-45.766-113.668c13.615,36.724,21.563,74.634,26.728,113.227c-3.592-0.946-7.18-1.894-10.771-2.836
	c-5.823-39.126-12.863-77.907-32.236-114.998c-1.806,3.14-3.269,4.521-3.314,5.945c-0.903,27.697-2.603,55.522,0.245,83.062
	c2.656,25.69,3.947,25.558,30.128,25.928c1.733,0.024,3.465,0.026,5.198,0.041c0.033,5.255,4.63,7.743,6.979,11.597
	c3.735,6.117,5.173,11.795-3.849,14.633c-1.961-6.183-3.882-15.117-10.882-14.124c-8.532,1.209-4.45,10.68-4.944,16.601
	c-1.982,23.653,6.922,46.03,8.61,69.283c-2.934-0.051-5.864-0.1-8.798-0.159c-3.939-27.38-14.327-54.043-7.784-85.375
	c-8.254,9.549-9.689,18.01-10.58,27.135C206.343,404.462,212.035,423.757,213.469,443.472z"/>
<path fill-rule="evenodd" clip-rule="evenodd" fill="#99CCB7" d="M586.837,440.894c-3.633-0.035-7.27-0.072-10.902-0.103
	c3.571-55.467,4.249-111.175,13.309-166.211c0.213-0.327,0.425-0.652,0.634-0.977c-0.18,0.355-0.363,0.709-0.548,1.063
	c-10.547,6.695-13.207,17.933-15.503,28.804c-9.566,45.268-11.241,91.334-12.979,137.373c-3.645-0.002-7.29-0.004-10.931-0.002
	c4.282-52.3,3.601-105.159,18.429-156.48c-4.67,0.12-5.847,3.148-7.551,5.531c-15.381,21.52-19.667,46.565-23.954,71.898
	c-1.863,10.984,1.672,23.492-7.421,32.905c-0.842-0.067-1.684-0.169-2.521-0.304c-1.353-19.418,1.594-38.473,4.821-57.504
	c-1.197-14.974,8.635-27.065,10.76-41.171c1.115-1.718,2.23-3.433,3.351-5.148c4.915-1.612,6.276-6.508,9.026-10.04
	c4.617-5.929,8.389-12.678,16.647-14.302c6.428,4.949,9.901,2.64,11.355-4.624c4.573,0.603,8.626-0.856,12.464-3.157
	c1.467,0.174,2.93,0.347,4.396,0.519c5.513,0.108,11.217,6.323,16.509-0.521c3.228,4.178,12.304-0.214,12.446,8.493
	c-4.564-0.676-9.129-1.348-15.196-2.245c6.975,9.169,13.256,17.16,18.122,26.215c16.591,30.859,22.037,64.271,23.709,98.647
	c-0.359,5.895-0.719,11.789-1.074,17.686c-2.452,0.527-4.9,1.052-7.348,1.577c-3.073-41.508-5.39-83.209-29.752-119.409
	c5.442,28.15,7.27,56.456,5.957,84.882c-0.992,21.549-3.256,43.039-4.952,64.551c-0.094,0.711-0.147,1.422-0.155,2.137
	c-3.563-0.053-7.127-0.106-10.686-0.157c1.267-15.052,2.047-30.165,3.914-45.147c2.857-22.934,2.346-45.952,0.621-68.77
	c-1.152-15.168-3.371-30.747-11.608-44.945C590.081,334.493,588.663,387.712,586.837,440.894z"/>
<path fill-rule="evenodd" clip-rule="evenodd" fill="#286656" d="M443.522,77.059c11.466-3.148,12.852-8.612,4.752-17.489
	c-4.008-4.397-7.359-9.705-8.569-15.833c-0.707-3.587-0.396-7.224,3.657-8.628c3.776-1.306,5.324,1.9,6.894,4.468
	c3.784,6.183,7.494,12.41,12.794,21.212c0-13.006-0.131-22.885,0.062-32.757c0.09-4.575-0.728-10.917,6.13-10.674
	c6.55,0.233,5.618,6.455,5.925,11.092c0.657,9.932,1.287,19.864,1.929,29.795c-0.85,2.854-0.887,6.426-2.677,8.452
	c-17.902,20.297-20.374,44.82-21.077,70.403c-0.956,34.748,3.429,69.119,6.175,103.569c1.25,15.705,1.729,31.812,6.505,47.157
	c0.286,7.237,0.564,14.476,0.851,21.711c-11.295-0.411-22.585-0.824-33.876-1.236c-8.523-45.337-8.507-91.157-7.943-137.027
	C425.457,138.703,427.002,106.431,443.522,77.059z"/>
<path fill-rule="evenodd" clip-rule="evenodd" fill="#286656" d="M188.895,214.376c-6.207,15.959-16.905,29.801-19.888,47.399
	c-7.249,42.736-5.557,85.129,1.426,127.674c2.93,17.859,8.483,35.279,9.08,53.52c-10.89,0.67-21.764,1.028-32.474-1.735
	c-2.031-18.515-4.642-36.993-5.811-55.561c-0.495-7.803-3.02-8.532-9.86-8.25c-6.072,0.25-16.893,4.081-17.007-5.614
	c-0.122-10.148,10.78-5.807,16.823-5.839c7.017-0.037,7.495-2.06,8.214-8.708c1.622-15.042-7.188-20.309-18.523-24.979
	c-4.454-1.835-11.613-3.972-7.977-10.698c3.457-6.399,9.072-1.639,13.636,0.301c3.461,1.469,6.869,3.064,11.151,4.987
	c0.527-16.728,0.715-32.298,5.692-47.221c1.724-3.036,2.962-6.205,2.652-9.793c2.819-11.491,7.445-22.35,14.355-31.803
	c7.159-9.799,15.847-18.38,9.398-32.178c-1.5-3.202,0.4-7.112,4.708-7.835c4.564-0.764,5.835,2.756,6.804,6.24
	C182.507,208.651,182.033,214.264,188.895,214.376z"/>
<path fill-rule="evenodd" clip-rule="evenodd" fill="#5E9C8C" d="M466.021,287.827c-4.776-15.346-5.255-31.452-6.505-47.157
	c-2.746-34.45-7.131-68.821-6.175-103.569c0.703-25.583,3.175-50.106,21.077-70.403c1.79-2.026,1.827-5.598,2.677-8.452
	c0.898,0,1.794,0.002,2.688,0.002c-0.404,9.186-0.936,18.476,13.063,15.595l-0.122-0.125c-0.404,5.061,2.325,9.114,4.295,13.419
	c6.309,13.798,11.404,28.051,14.036,42.992c5.782,32.807,7.96,65.948,7.776,99.227c-0.041,7.719,1.173,12.943,10.51,11.372
	c3.444,13.967,6.89,27.936,10.334,41.905c-3.265,0.1-6.53,0.204-9.795,0.307c-0.633-8.673-3.212-16.762-7.188-24.931
	c-1.021,1.467-2.178,2.421-2.407,3.559c-5.676,28.469-7.861,57.232-6.063,86.192c0.984,15.869,3.003,31.673,4.56,47.503
	c-1.851,2.292-4.515,2.039-7.036,2.227c-6.701-9.304-1.818-19.896-3.302-29.781c-0.694-4.636,2.346-10.922-5.483-12.402
	c2.395-4.858,12.876-11.176-2.325-12.847c-0.004-1.691-0.013-3.383-0.017-5.071c5.975-7.089,2.436-15.813,3.567-23.655
	c2.894-20.015,1.843-40.468,5.676-60.673c-13.325,19.534-22.731,40.415-27.48,63.296c-2.635-1.747-5.275-3.498-7.915-5.247
	c0.409-2.519,0.797-5.041,1.23-7.555c3.298-19.188,15.233-35.201,19.814-53.917c12.381-3.304,13.423-11.962,13.272-23.335
	c-0.307-22.564-1.071-45.1-3.359-67.491c-2.905-28.449-10.388-55.747-24.918-82.506c-11.377,13.732-15.581,28.543-16.112,44.238
	c-1.063,31.213-1.602,62.555,2.901,93.508c2.586,17.798,0.367,36.3,7.457,53.448C471.841,274.277,468.932,281.052,466.021,287.827z"
	/>
<path fill-rule="evenodd" clip-rule="evenodd" fill="#5E9C8C" d="M740.615,440.996c-6.166,0.055-12.34,0.11-18.506,0.167
	c0.004-0.719,0.073-1.438,0.208-2.149c5.606,0.431,7.253-3.868,9.124-7.76c26.986-56.192,42.895-114.978,39.977-177.784
	c-0.654-14.036-2.995-28.422-14.367-41.03c-2.031,20.164-4.662,38.076-8.811,55.737c-8.508,36.227-17.996,72.137-34.402,105.798
	c-4.715-0.94-7.621-4.058-9.758-8.102c11.319-12.841,13.681-29.542,18.58-44.94c12.075-37.97,23.386-76.22,22.957-116.704
	c5.021-8.841,13.824-7.325,21.837-7.973c0.609-0.462,1.201-0.433,1.77,0.082c0.425,7.034,6.656,9.801,10.673,14.05
	c9.129,9.652,14.984,20.625,18.491,33.606c5.251,19.44,7.584,39.379,11.944,58.942c0.898,4.987-1.814,9.212-2.91,13.781
	c-10.306-0.944-8.944-9.558-9.112-15.711c-0.282-10.424-1.3-20.726-3.257-30.868c-3.061-15.822-4.944-32.269-16.904-44.702
	c0.857,12.664,3.951,24.781,4.225,37.34c0.948,43.805-8.867,85.689-22.319,126.928C754.383,407.096,744.322,422.844,740.615,440.996
	z"/>
<path fill-rule="evenodd" clip-rule="evenodd" fill="#286656" d="M740.615,440.996c3.707-18.151,13.768-33.9,19.438-51.291
	c13.452-41.239,23.268-83.123,22.319-126.928c-0.273-12.559-3.367-24.677-4.225-37.34c11.96,12.433,13.844,28.88,16.904,44.702
	c1.957,10.143,2.975,20.444,3.257,30.868c0.168,6.154-1.193,14.768,9.112,15.711c2.093,1.479,4.132,3.038,6.285,4.421
	c3.048,1.953,5.953,4.123,4.404,8.238c-1.336,3.539-4.846,3.867-7.67,2.782c-6.901-2.654-7.972,1.798-9.324,6.659
	c-1.614,5.807-3.236,11.652-5.443,17.25c-3.477,8.814-7.085,17.146,5.95,21.51c3.362,1.127,5.631,4.47,3.571,8.401
	c-2.076,3.956-5.949,3.927-8.888,1.704c-10.081-7.625-12.03-0.827-15.491,7.133c-6.579,15.121-8.025,32.067-16.958,46.261
	C756.115,441.049,748.367,441.024,740.615,440.996z"/>
<path fill-rule="evenodd" clip-rule="evenodd" fill="#286656" d="M599.721,258.962c-1.467-0.172-2.93-0.345-4.4-0.515
	c-2.489-7.288-10.445-9.149-14.638-14.746c-0.58-11.57-1.124-23.139-1.753-34.705c-1.684-31.05-6.714-61.346-17.526-90.752
	c-5.549-15.081-17.656-26.514-21.538-42.246c10.179,6.297,20.247,10.058,31.202,1.084c2.669-2.184,6.976-1.704,8.614,2.568
	c1.553,4.054-0.817,7.069-4.303,8.217c-12.247,4.031-9.231,9.967-3.326,17.71c6.869,9.008,11,19.667,14.408,30.41
	c2.211,6.963,4.282,12.294,13.288,8.712c3.694-1.467,8.386-1.532,9.787,3.339c1.405,4.887-2.57,7.468-6.542,7.891
	c-10.429,1.105-9.411,7.615-8.1,14.911c1.152,6.381,1.859,12.847,2.583,19.295c0.801,7.061,1.07,14.122,11.515,12.88
	c3.519-0.419,7.008,1.416,6.62,6.089c-0.311,3.682-3.195,5.663-6.28,5.3c-10.135-1.195-9.791,5.014-9.604,12.03
	C600.02,237.27,599.749,248.117,599.721,258.962z"/>
<path fill-rule="evenodd" clip-rule="evenodd" fill="#286656" d="M628.676,266.934c-0.143-8.708-9.219-4.315-12.446-8.493
	c-2.129-8.31,3.559-9.468,8.839-7.864c8.09,2.452,10.742-1.645,13.26-7.793c1.622-3.974,3.551-8.044,6.264-11.305
	c5.647-6.783,7.103-12.71,0.205-19.834c-3.073-3.175-6.053-8.906-0.445-12.375c5.925-3.667,8.201,2.027,10.424,6.19
	c2.995,5.606,6.473,6.183,11,1.594c1.483-1.506,3.404-2.921,5.386-3.534c14.604-4.499,20.419-13.193,15.046-28.483
	c-1.349-3.835-0.993-9.409,4.797-10.333c6.326-1.007,6.183,4.373,6.935,8.596c3.313,18.58,3.335,18.576,22.091,16.404
	c-1.994,4.37-6.403,5.562-10.135,7.558c-18.257,9.772-33.396,22.323-42.104,41.98c-6.248,14.1-14.098,27.49-21.232,41.191
	C639.823,276.952,633.629,272.771,628.676,266.934z"/>
<path fill-rule="evenodd" clip-rule="evenodd" fill="#5E9C8C" d="M646.558,280.438c7.135-13.706,14.984-27.096,21.232-41.196
	c8.708-19.657,23.848-32.208,42.104-41.98c3.731-1.996,8.141-3.188,10.135-7.558c4.147-0.509,8.291-1.016,12.438-1.524
	c-1.401,7.476,9.271,8.759,8.229,16.051c-6.976,7.188-12.524,15.391-17.571,24.015c-18.457,31.53-33.065,64.886-46.302,98.833
	c-3.338,8.567-8.082,12.906-17.215,12.212c0-0.723,0.049-1.442,0.146-2.158c3.069-2.115,3.932-5.522,5.104-8.743
	c12.312-33.693,27.966-65.853,44.164-97.803c4.434-8.751,12.631-15.503,13.763-25.964c0.311-0.564,0.625-1.128,0.944-1.688
	c-0.576,0.3-1.157,0.599-1.737,0.899c-17.901,6.806-32.788,17.203-41.876,34.694c-8.532,16.421-17.224,32.76-25.842,49.136
	C649.667,287.427,647.138,284.975,646.558,280.438z"/>
<path fill-rule="evenodd" clip-rule="evenodd" fill="#286656" d="M503.518,64.202c4.977,0.952,9.954,1.906,14.931,2.86
	c8.749,13.295,18.426,26.081,26.063,39.986c22.81,41.525,23.991,87.553,26.161,133.272c-2.628,0.006-5.256,0.014-7.879,0.021
	c-3.04-2.019-7.445-2.272-7.69-7.588c-0.355-7.717-1.851-15.391-2.067-23.106c-0.826-29.993-7.355-58.74-17.175-87.003
	C528.407,101.197,514.787,83.403,503.518,64.202z"/>
<path fill-rule="evenodd" clip-rule="evenodd" fill="#286656" d="M279.438,344.571c-5.582-30.528-11.065-61.09-26.614-88.631
	c-5.945-10.534-12.063-20.971-20.746-29.54c-4.822-4.763-7.694-9.531-17.886-5.888c-10.199,3.647-3.003-9.162-5.749-13.804
	c8.704-5.598,9.713-15.711,13.938-23.921c1.965-3.817,3.171-9.135,8.753-7.223c6.473,2.219,3.906,7.695,2.378,12.008
	c-2.002,5.653-4.561,11.104-6.882,16.645c-4.393,4.103-0.613,6.091,2.362,7.438c21.906,9.919,31.358,29.562,39.915,50.12
	c10.285,24.712,17.326,50.425,24.313,76.166c-3.196,2.174-6.391,4.352-9.583,6.528C282.237,344.504,280.84,344.539,279.438,344.571z
	"/>
<path fill-rule="evenodd" clip-rule="evenodd" fill="#5E9C8C" d="M503.518,64.202c11.27,19.202,24.89,36.995,32.343,58.442
	c9.819,28.263,16.349,57.01,17.175,87.003c0.217,7.715,1.712,15.389,2.067,23.106c0.245,5.316,4.65,5.57,7.69,7.592
	c1.978,4.226,3.951,8.451,5.925,12.676c-1.058,1.146-2.112,2.29-3.171,3.437c-8.463-0.519-10.387-11.311-19.671-12.367
	c-0.065,6.779,4.769,11.251,6.235,16.807c1.051,3.968,1.197,8.551-3.457,9.756c-4.196,1.085-3.751-3.852-4.785-6.295
	c-3.334-7.891-6.297-15.937-9.402-23.923c8.324-1.99,11-6.832,10.494-15.648c-2.154-37.8-7.776-74.916-23.011-109.755
	c-6.763-15.468-13.578-31.742-29.225-41.312c0,0,0.122,0.125,0.122,0.123c0.683-3.521-4.09-6.303-1.368-10.102
	C495.492,63.895,499.505,64.048,503.518,64.202z"/>
<path fill-rule="evenodd" clip-rule="evenodd" fill="#5E9C8C" d="M443.522,77.059c-16.521,29.372-18.065,61.644-18.47,94.215
	c-0.564,45.871-0.58,91.69,7.939,137.029c-2.672,0.078-5.345,0.159-8.021,0.239c1.418-14.347-6.239-26.277-10.432-39.126
	c4.928-6.166,2.767-13.442,2.117-19.933c-4.511-44.986-2.104-89.739,2.668-134.537c1.218-11.419,7.192-21.304,8.271-32.562
	C432.608,79.713,437.822,77.654,443.522,77.059z"/>
<path fill-rule="evenodd" clip-rule="evenodd" fill="#5E9C8C" d="M570.672,240.32c-2.17-45.719-3.352-91.747-26.161-133.272
	c-7.637-13.906-17.313-26.691-26.063-39.986c6.788,0.668,13.281,2.16,18.679,6.698c0.944,0.882,1.888,1.765,2.832,2.647l-0.09-0.406
	c3.878,15.73,15.985,27.163,21.534,42.244c10.813,29.407,15.843,59.703,17.526,90.752c0.629,11.566,1.173,23.134,1.757,34.705
	C577.353,242.572,574.014,241.446,570.672,240.32z"/>
<path fill-rule="evenodd" clip-rule="evenodd" fill="#5E9C8C" d="M293.229,337.943c-6.996-25.743-14.037-51.456-24.322-76.168
	c-8.557-20.558-18.008-40.201-39.915-50.12c-2.975-1.347-6.755-3.334-2.362-7.438c7.854,2.52,16.701,1.831,23.631,7.321
	c9.819,12.112,18.666,24.831,24.709,39.32c11.654,27.966,21.42,56.538,27.484,86.286
	C299.379,337.412,296.306,337.676,293.229,337.943z"/>
<path fill-rule="evenodd" clip-rule="evenodd" fill="#306F56" d="M302.456,337.145c-6.064-29.748-15.83-58.319-27.484-86.286
	c-6.043-14.49-14.89-27.208-24.709-39.32c26.029,10.481,39.682,31.524,46.698,57.122c5.61,20.479,8.144,41.647,8.401,62.98
	c-0.131,1.855-0.261,3.708-0.392,5.565C304.123,337.427,303.286,337.41,302.456,337.145z"/>
<path fill-rule="evenodd" clip-rule="evenodd" fill="#306F56" d="M740.697,204.23c1.042-7.292-9.631-8.575-8.229-16.051
	c0.069-6.937-0.033-13.879,0.273-20.806c0.18-4.172,1.749-8.179,6.808-7.629c5.01,0.545,3.604,5.018,3.69,8.281
	c0.102,3.811,0.024,7.625,0.024,11.174c5.794,1.667,5.41-2.707,6.652-4.991c4.229-7.783,6.942-19.167,17.979-5.422
	c2.534,3.158,5.051-1.453,7.552-2.497c2.946-1.23,5.938-2.26,8.328,0.552c2.852,3.353,1.315,6.328-1.423,9.074
	c-4.883,4.903-9.124,10.679-14.678,14.615c-3.964,2.807-0.968,3.839-0.221,5.727c-8.013,0.647-16.815-0.868-21.833,7.973
	C743.979,204.229,742.34,204.23,740.697,204.23z"/>
<path fill-rule="evenodd" clip-rule="evenodd" fill="#306F56" d="M810.332,302.937c-4.36-19.563-6.693-39.502-11.944-58.942
	c-3.507-12.98-9.362-23.954-18.491-33.606c-4.017-4.25-10.248-7.016-10.673-14.05c19.859,5.712,31.55,20.037,39.171,38.125
	c2.432,5.77,3.698,11.266,11.671,10.871c3.158-0.155,5.88,1.917,6.121,5.484c0.241,3.626-2.149,5.995-5.464,5.88
	c-8.029-0.278-7.698,4.828-7.326,10.25C814.238,279.101,812.203,291.011,810.332,302.937z"/>
<path fill-rule="evenodd" clip-rule="evenodd" fill="#8BBAB1" d="M304.969,337.206c0.131-1.857,0.261-3.71,0.392-5.565
	c4.761-10.694,1.639-21.936,2.084-32.901c0.785-19.449,8.622-30.751,27.415-37.555c0.2-1.029,0.825-1.483,1.859-1.353
	c-0.862,3.748-0.993,7.854-2.685,11.166c-10.678,20.887-14.057,43.149-13.366,66.277c-4.197,0.029-8.39,0.062-12.582,0.09
	C307.045,337.313,306.007,337.259,304.969,337.206z"/>
<path fill-rule="evenodd" clip-rule="evenodd" fill="#286656" d="M491.479,63.74c-2.722,3.798,2.051,6.581,1.368,10.102
	c-13.999,2.883-13.468-6.407-13.063-15.593c1.483-10.322,2.815-20.668,4.527-30.947c0.83-4.987,1.382-11.894,8.512-10.469
	c6.437,1.287,3.973,7.447,3.343,12.046C494.585,40.495,493.04,52.119,491.479,63.74z"/>
<path fill-rule="evenodd" clip-rule="evenodd" fill="#306F56" d="M206.923,205.799c-1.63,4.254,0.634,10.42-4.801,12.667
	c-5.672,2.342-5.721-5.494-9.791-6.591c4.858-9.331,2.1-19.651,3.837-29.385c0.748-4.185,0.789-9.748,6.828-9.098
	c5.835,0.629,5.227,5.886,5.006,10.285C207.63,191.052,207.283,198.426,206.923,205.799z"/>
<path fill-rule="evenodd" clip-rule="evenodd" fill="#306F56" d="M146.029,269.858c0.311,3.588-0.928,6.757-2.652,9.793
	c-6.555-2.575-13.538-4.43-16.925-11.708c-1.553-3.336-2.795-6.589,0.743-9.141c3.457-2.489,6.281-0.681,8.958,1.998
	C139.308,263.955,140.59,269.202,146.029,269.858z"/>
<path fill-rule="evenodd" clip-rule="evenodd" fill="#286656" d="M539.959,76.407c-0.944-0.882-1.888-1.765-2.832-2.647
	C538.071,74.642,539.015,75.525,539.959,76.407z"/>
<path fill-rule="evenodd" clip-rule="evenodd" fill="#FFFFFF" d="M364.625,699.974c-31.195-0.058-51.394-19.622-52.015-48.966
	c-0.539-25.384,19.242-58.585,49.726-56.317c33.752,2.513,54.167,20.726,55.206,52.623
	C418.466,675.864,394.496,703.066,364.625,699.974z M338.718,653.651c0.041,4.548,0.67,8.994,6.146,9.885
	c4.744,0.78,7.041-2.223,7.997-6.55c0.744-3.388,1.753-6.559,4.618-9.002c8.344-7.123,16.39-5.729,23.014,4.417
	c2.668,4.09,5.039,8.528,11,6.456c3.167-1.1,4.401-3.878,4.278-7.253c-0.405-11.303-13.493-22.875-25.694-22.671
	C352.946,629.22,338.661,640.481,338.718,653.651z"/>
<path fill-rule="evenodd" clip-rule="evenodd" fill="#99CCB7" d="M424.971,308.543c2.677-0.08,5.349-0.162,8.021-0.239
	c11.294,0.411,22.585,0.823,33.875,1.228c-0.232,1.945,0.581,3.345,2.276,4.274c7.196,12.686,18.339,23.496,18.784,39.402
	c-1.748,6.489-0.396,10.608,7.462,9.744c3.511,18.325,7.017,36.646,10.526,54.971c-0.004,7.666-0.004,15.332-0.008,23.001
	c-2.742-0.035-5.484-0.069-8.226-0.098c-1.9-43.431-19.419-109.44-43.72-123.33c3.907,12.308,10.522,22.45,13.117,34.374
	c6.448,29.577,4.531,59.413,4.851,89.209c-3.612-0.086-7.221-0.171-10.829-0.257c-0.519-36.715,5.778-74.37-14.841-112.187
	c-0.834,40.056-6.763,76.013-5.398,112.338c-3.62,0.018-7.245,0.033-10.865,0.053c-0.049-35.433,6.297-70.627,3.755-106.239
	c-12.565,34.412-14.486,70.186-13.857,106.296c-3.608-0.016-7.22-0.034-10.828-0.047c0.012-34.184,3.53-68.069,10.767-104.421
	c-7.948,7.051-11.536,13.383-14.87,19.811c-13.844,26.714-14.069,55.678-13.734,84.715c-8.757,0.063-17.51,0.126-26.267,0.192
	c0.082-3.261,0.155-6.524,0.237-9.789c5.843-0.666,12.5,0.082,14.069-8.056c5.096-11.754,3.621-24.473,4.994-36.719
	c2.006-17.92,11.421-32.874,17.424-49.181c0.927-1.804,1.855-3.604,2.783-5.404c9.729-2.495,11.662-12.543,17.874-18.448
	C424.489,312.649,424.975,310.721,424.971,308.543z M379.907,436.402c-0.167-0.335-0.339-0.672-0.511-1.007
	c-0.233,0.291-0.621,0.568-0.649,0.875c-0.029,0.317,0.298,0.666,0.474,0.999C379.45,436.979,379.679,436.69,379.907,436.402z"/>
<path fill-rule="evenodd" clip-rule="evenodd" fill="#FFFFFF" d="M565.771,657.619c-3.437-48.283,32.479-58.834,63.317-51.291
	c21.898,5.354,27.255,24.771,30.3,44.128c3.289,20.93-6.502,37.491-21.38,50.282c-14.604,12.549-31.733,8.25-47.846,1.761
	c-15.091-6.076-22.843-17.942-24.33-33.933C565.433,664.271,565.771,659.908,565.771,657.619z M586.873,655.993
	c-0.384,8.454,0.65,13.603,6.412,14.416c6.031,0.846,8.348-3.979,8.54-9.174c0.262-7.122,4.511-9.799,10.632-10.951
	c7.119-1.34,8.512,4.349,10.952,8.835c1.446,2.664,2.827,5.422,4.675,7.801c2.537,3.269,5.843,5.606,10.068,2.954
	c4.045-2.533,4.135-6.284,2.137-10.253c-2.342-4.649-4.507-9.414-7.146-13.893c-5.836-9.918-14.159-13.215-25.453-9.767
	C595.818,639.582,587.687,646.092,586.873,655.993z"/>
<path fill-rule="evenodd" clip-rule="evenodd" fill="#1B1515" d="M527.001,702.703c27.48,3.977,27.611,4.009,21.18,30.513
	c-3.866,15.928-8.226,31.742-23.7,41.042c-4.569-11.286-13.816-17.48-24.579-21.351c-6.081-2.187-13.702-3.433-17.645,3.24
	c-4.553,7.711-7.229,6.031-11.802,0.355c-4.666-5.79-11.568-7.081-18.772-6.673c-10.997,0.621-19.557,6.048-27.01,13.665
	c-11.27-13.044-17.62-28.485-21.114-45.08c-2.762-13.108,1.349-17.375,14.511-16.696c7.302,0.38,14.612,0.515,21.915,0.76
	c-3.347,14.281,0.956,20.006,14.155,18.658c14.891-1.521,5.844-12.006,6.918-18.707c2.248,0.032,4.495,0.057,6.742,0.09
	c0.589,17.497,3.028,19.5,18.396,13.705c4.099-1.545,6.031,0.262,9.101,2.019C511.633,727.601,525.04,720.883,527.001,702.703z"/>
<path fill-rule="evenodd" clip-rule="evenodd" fill="#99CCB7" d="M304.969,337.206c1.038,0.053,2.076,0.106,3.11,0.157
	c-0.96,4.746,2.627,7.161,5.451,9.507c14.004,11.629,20.137,27.685,24.575,44.385c4.389,16.529,7.592,33.373,11.311,50.077
	c-3.571,0.01-7.143,0.016-10.714,0.031c-2.664-12.666-4.973-25.417-8.083-37.974c-4.27-17.267-8.124-34.94-24.661-45.842
	c8.054,27.583,11.772,55.698,14.821,83.932c-3.506,0.062-7.012,0.123-10.519,0.184c-2.031-27.817-5.79-55.263-16.986-84.061
	c-7.454,30.876,0.515,57.455,6.57,84.198c-3.302,3.12-7.085,1.988-10.824,1.228c-7.699-32.527-10.424-65.332-5.382-98.559
	c3.191-2.176,6.387-4.354,9.583-6.528c3.085-0.266,6.158-0.529,9.235-0.797C303.286,337.41,304.123,337.427,304.969,337.206z"/>
<path fill-rule="evenodd" clip-rule="evenodd" fill="#76A592" d="M586.837,440.894c1.826-53.181,3.244-106.401,13.391-158.938
	c8.237,14.198,10.456,29.777,11.608,44.945c1.725,22.818,2.236,45.836-0.621,68.77c-1.867,14.982-2.647,30.095-3.914,45.147
	C600.48,440.84,593.656,440.869,586.837,440.894z"/>
<path fill-rule="evenodd" clip-rule="evenodd" fill="#D84F6D" d="M424.673,763.495c7.453-7.617,16.014-13.044,27.01-13.665
	c7.204-0.408,14.106,0.883,18.772,6.673c4.572,5.676,7.249,7.355,11.802-0.355c3.942-6.673,11.563-5.427,17.645-3.24
	c10.763,3.87,20.01,10.064,24.579,21.351c-9.37,15.104-25.331,18.033-40.487,18.654C459.61,793.917,437.969,786.329,424.673,763.495
	z"/>
<path fill-rule="evenodd" clip-rule="evenodd" fill="#76A592" d="M529.42,394.694c9.093-9.413,5.558-21.921,7.421-32.905
	c4.287-25.333,8.573-50.378,23.954-71.898c1.704-2.382,2.881-5.411,7.551-5.531c-14.828,51.321-14.146,104.18-18.429,156.48
	c-11.185,0.069-22.364,0.143-33.544,0.218c-1.848-10.16-3.694-20.325-5.541-30.487l0.617-0.846c3.121-0.053,6.243-0.11,9.365-0.164
	c1.79,9.291,3.576,18.576,5.369,27.862c6.559-11.131,8.267-21.935,2.652-32.949c1.222-2.397,3.939-4.702,0.438-7.376
	C529.322,396.296,529.371,395.497,529.42,394.694z"/>
<path fill-rule="evenodd" clip-rule="evenodd" fill="#76A592" d="M618.142,438.838c1.696-21.512,3.96-43.002,4.952-64.551
	c1.313-28.426-0.515-56.732-5.957-84.882c24.362,36.2,26.679,77.901,29.752,119.401c-0.376,3.369,0.846,6.215,2.905,8.781
	c-6.481,6.422-5.32,14.837-5.941,22.79c-7.801,0.196-15.598,0.39-23.394,0.59C619.687,440.26,618.914,439.549,618.142,438.838z"/>
<path fill-rule="evenodd" clip-rule="evenodd" fill="#EF7E69" d="M344.021,712.891c11.266,0.891,21.931,4.103,30.692,11.769
	c10.048,8.789,10.33,19.209,1.242,28.104c-13.656,13.367-45.153,10.527-55.561-5.353c-3.792-5.786-6.501-12.3-2.17-19.36
	C324.101,718.464,332.662,713.532,344.021,712.891z"/>
<path fill-rule="evenodd" clip-rule="evenodd" fill="#5E9C8C" d="M654.236,407.232c0.355-5.893,0.715-11.787,1.062-17.681
	c8.038-4.078,6.175-13.285,9.926-19.663c2.015-3.426,11.185-11.76-3.809-10.778c-2.288,0.151-1.435-5.226-1.826-8.093
	c16.554-4.023,29.735,2.722,41.774,13.097c0.682,3.802,0.984,7.719,2.1,11.391c6.473,21.328,9.484,43.055,8.124,65.346
	c-3.241-0.056-6.481-0.112-9.722-0.164c-0.883-18.123,1.291-36.668-8.622-53.73c0,17.924,0,35.847,0,53.771
	c-3.244,0.021-6.48,0.039-9.726,0.062c-0.004-25.964-0.004-51.933-0.004-79.78c-7.253,5.15-8.271,10.945-10.882,15.683
	c-5.814,10.559-5.696,23.349-12.397,33.616C658.232,409.282,656.234,408.258,654.236,407.232z"/>
<path fill-rule="evenodd" clip-rule="evenodd" fill="#EF7E69" d="M614.031,765.048c-10.094,1.626-19.443-3.122-28.33-8.663
	c-6.207-3.874-10.24-9.742-8.807-17.489c1.316-7.118,6.42-11.058,13.293-12.717c14.105-3.416,27.938-5.283,41.59,2.509
	c8.435,4.811,16.342,9.955,14.073,20.759c-2.301,10.931-11.874,14.04-21.706,15.528C621.174,765.428,618.08,765.048,614.031,765.048
	z"/>
<path fill-rule="evenodd" clip-rule="evenodd" fill="#76A592" d="M560.848,440.842c1.737-46.038,3.412-92.105,12.979-137.373
	c2.296-10.872,4.956-22.109,15.503-28.804l-0.086-0.086c-9.06,55.036-9.737,110.745-13.309,166.211
	C570.904,440.808,565.874,440.826,560.848,440.842z"/>
<path fill-rule="evenodd" clip-rule="evenodd" fill="#76A592" d="M471.931,441.079c-0.319-29.797,1.598-59.633-4.851-89.209
	c-2.595-11.924-9.21-22.066-13.117-34.374c24.301,13.889,41.819,79.899,43.72,123.33
	C489.097,440.908,480.512,440.993,471.931,441.079z"/>
<path fill-rule="evenodd" clip-rule="evenodd" fill="#76A592" d="M440.862,440.973c-1.365-36.325,4.564-72.282,5.398-112.338
	c20.619,37.817,14.322,75.472,14.841,112.187C454.355,440.871,447.609,440.922,440.862,440.973z"/>
<path fill-rule="evenodd" clip-rule="evenodd" fill="#76A592" d="M349.416,441.333c-3.718-16.705-6.922-33.548-11.311-50.077
	c-4.438-16.701-10.571-32.756-24.575-44.385c-2.824-2.346-6.411-4.761-5.451-9.507c4.2-0.026,8.393-0.059,12.585-0.088
	c1.982,4.605,5.856,5.404,10.273,5.122c10.526,11.808,17.522,25.456,20.824,40.902c0.703,3.29,1.475,5.827,5.304,6.056
	c0.082,1.516,0.163,3.032,0.245,4.548c-1.68,8.871,2.157,17.156,2.746,25.786c-3.265,1.179-8.695,0.572-7.404,6.211
	c1.528,6.697,7.997,4.497,12.549,5.645c-0.082,3.263-0.155,6.526-0.237,9.787C359.782,441.333,354.601,441.333,349.416,441.333z"/>
<path fill-rule="evenodd" clip-rule="evenodd" fill="#76A592" d="M283.639,344.469c-5.042,33.228-2.317,66.032,5.382,98.559
	c-8.438,1.332-16.897,1.099-25.355,0.257c-2.726-32.921,0.482-65.066,12.676-96.027c1.034-0.891,2.06-1.786,3.093-2.681
	C280.84,344.539,282.237,344.504,283.639,344.469z"/>
<path fill-rule="evenodd" clip-rule="evenodd" fill="#76A592" d="M391.23,441.141c-0.335-29.037-0.11-58.001,13.734-84.715
	c3.334-6.428,6.922-12.759,14.87-19.811c-7.237,36.352-10.755,70.237-10.767,104.421
	C403.122,441.069,397.176,441.105,391.23,441.141z"/>
<path fill-rule="evenodd" clip-rule="evenodd" fill="#8BBAB1" d="M660.238,410.308c6.697-10.267,6.579-23.057,12.394-33.616
	c2.611-4.738,3.629-10.532,10.882-15.683c0,27.848,0,53.816,0.004,79.78c-8.957,0.752-17.906,1.259-26.802-0.604
	c2.022-7.274,3.947-14.566,2.894-22.246C659.817,415.397,660.03,412.854,660.238,410.308z"/>
<path fill-rule="evenodd" clip-rule="evenodd" fill="#76A592" d="M242.682,371.014c9.022-2.838,7.584-8.516,3.849-14.633
	c-2.35-3.854-6.947-6.342-6.979-11.597l-0.021,0.021c3.592,0.944,7.18,1.892,10.771,2.838c2.358,4.229,6.771,5.847,10.535,8.297
	c-6.35,28.802-9.721,57.888-8.344,87.428c-4.147-0.019-8.295-0.037-12.447-0.047C240.251,419.197,233.218,394.804,242.682,371.014z"
	/>
<path fill-rule="evenodd" clip-rule="evenodd" fill="#76A592" d="M320.779,441.479c-3.049-28.234-6.767-56.35-14.821-83.932
	c16.537,10.902,20.391,28.576,24.661,45.842c3.11,12.557,5.418,25.308,8.083,37.974C332.728,441.4,326.753,441.439,320.779,441.479z
	"/>
<path fill-rule="evenodd" clip-rule="evenodd" fill="#76A592" d="M419.896,441.083c-0.629-36.11,1.292-71.884,13.857-106.296
	c2.542,35.612-3.804,70.807-3.755,106.239C426.63,441.044,423.263,441.063,419.896,441.083z"/>
<path fill-rule="evenodd" clip-rule="evenodd" fill="#F5F4F4" d="M527.001,702.703c-1.961,18.18-15.368,24.897-31.705,15.54
	c-3.069-1.757-5.002-3.563-9.101-2.019c-15.368,5.795-17.808,3.792-18.396-13.705C487.532,702.58,507.269,702.642,527.001,702.703z"
	/>
<path fill-rule="evenodd" clip-rule="evenodd" fill="#99CCB7" d="M252.493,443.368c-1.377-29.54,1.994-58.626,8.344-87.43
	c2.836-2.619,5.667-5.234,8.503-7.854c2.333-0.271,4.667-0.543,7-0.819c-12.193,30.955-15.401,63.1-12.676,96.021
	C259.942,443.308,256.22,443.339,252.493,443.368z"/>
<path fill-rule="evenodd" clip-rule="evenodd" fill="#76A592" d="M299.845,441.8c-6.056-26.743-14.024-53.322-6.57-84.198
	c11.196,28.798,14.956,56.244,16.986,84.061C306.788,441.708,303.318,441.755,299.845,441.8z"/>
<path fill-rule="evenodd" clip-rule="evenodd" fill="#8BBAB1" d="M242.682,371.014c-9.464,23.791-2.431,48.184-2.636,72.307
	c-1.537-0.196-3.069-0.384-4.593-0.56c-1.675-23.241-10.579-45.617-8.597-69.271c0.495-5.921-3.588-15.391,4.944-16.601
	C238.8,355.896,240.721,364.831,242.682,371.014z"/>
<path fill-rule="evenodd" clip-rule="evenodd" fill="#8BBAB1" d="M213.469,443.472c-1.434-19.714-7.126-39.01-5.165-59.098
	c0.891-9.125,2.325-17.585,10.58-27.135c-6.542,31.331,3.845,57.994,7.784,85.375C222.394,444.904,217.919,443.991,213.469,443.472z
	"/>
<path fill-rule="evenodd" clip-rule="evenodd" fill="#8BBAB1" d="M195.861,443.792c-0.069-0.538-0.139-1.075-0.212-1.62
	c-0.568-4.726-1.148-9.439-1.7-14.161c-2.942-25.302-9.223-50.839,5.328-74.893c3.936,0.014,5.656-5.599,11.434-3.705
	c-19.827,30.492-13.456,62.173-4.54,93.942C202.734,443.496,199.298,443.646,195.861,443.792z"/>
<path fill-rule="evenodd" clip-rule="evenodd" fill="#8BBAB1" d="M711.587,440.851c1.36-22.291-1.651-44.018-8.124-65.346
	c-1.115-3.672-1.418-7.588-2.096-11.38c0.906,0.59,1.806,1.168,2.713,1.749c2.137,4.043,5.043,7.162,9.758,8.102
	c7.613,21.056,9.354,42.877,8.479,65.039c-0.135,0.711-0.204,1.43-0.208,2.149C718.599,441.057,715.093,440.953,711.587,440.851z"/>
<path fill-rule="evenodd" clip-rule="evenodd" fill="#F5F4F4" d="M461.057,702.43c-1.074,6.701,7.973,17.187-6.918,18.707
	c-13.199,1.348-17.501-4.377-14.155-18.658C447.008,702.462,454.033,702.445,461.057,702.43z"/>
<path fill-rule="evenodd" clip-rule="evenodd" fill="#8BBAB1" d="M693.243,440.728c0-17.924,0-35.847,0-53.771
	c9.913,17.062,7.739,35.608,8.622,53.73C698.992,440.699,696.12,440.713,693.243,440.728z"/>
<path fill-rule="evenodd" clip-rule="evenodd" fill="#8BBAB1" d="M510.832,410.571c1.847,10.162,3.693,20.327,5.541,30.487
	c-3.49-0.043-6.979-0.083-10.465-0.131c0.004-7.674,0.004-15.34,0.008-23.005C507.555,415.475,509.193,413.021,510.832,410.571z"/>
<path fill-rule="evenodd" clip-rule="evenodd" fill="#5E9C8C" d="M659.605,417.938c1.058,7.68-0.867,14.972-2.89,22.246
	c-2.316-0.017-4.63-0.025-6.946-0.025c-2.084-7.496,3.334-14.338,1.916-21.782C654.326,418.229,656.965,418.083,659.605,417.938z"/>
<path fill-rule="evenodd" clip-rule="evenodd" fill="#8BBAB1" d="M651.686,418.378c1.418,7.443-4,14.286-1.916,21.782
	c-1.97,0.072-3.939,0.151-5.917,0.223c0.621-7.958-0.54-16.374,5.938-22.791C650.443,417.804,651.077,418.063,651.686,418.378z"/>
<path fill-rule="evenodd" clip-rule="evenodd" fill="#8BBAB1" d="M618.142,438.838c0.772,0.711,1.545,1.422,2.317,2.129
	c0-0.004-1.238,0.251-1.238,0.251s-1.234-0.235-1.234-0.241C617.994,440.26,618.048,439.549,618.142,438.838z"/>
<path fill-rule="evenodd" clip-rule="evenodd" fill="#5E9C8C" d="M330.938,342.397c-4.417,0.282-8.291-0.517-10.273-5.122
	c-0.687-23.128,2.693-45.391,13.371-66.277c1.691-3.312,1.822-7.418,2.685-11.166c4.916-1.24,10.007-2.012,14.698-3.816
	c6.387-2.452,11.957-4.299,16.149,3.535c1.577,2.948,5.288,1.99,8.205,2.027c5.586,0.345,8.177,4.397,10.347,8.693
	c5.059,10.014,10.874,19.69,14.077,30.563c2.644,8.981,4.344,19.492,17.865,10.841c0.703-0.445,2.82,1.326,4.283,2.062
	c-6.211,5.905-8.145,15.953-17.874,18.443c-4.499-5.661-8.994-11.323-13.489-16.986c1.691-19.279-10.796-33.003-18.997-48.4
	c-0.912-1.71-2.55-2.271-4.376-1.589c-2.534,0.948-2.48,3.304-2.525,5.418c-0.658,29.738-0.76,59.413,10.232,87.796
	c-0.045,8.74-0.09,17.479-0.131,26.215c-2.538-0.169-5.075-0.333-7.617-0.497c0.155-4.76-0.335-9.345-1.467-14.081
	c-6.992-29.389-12.86-58.904-11.765-89.457c0.208-5.909,4.479-12.055,0.923-18.595c-7.408,5.323-7.184,5.459-10.15,10.336
	C331.943,294.01,330.374,317.978,330.938,342.397z"/>
<path fill-rule="evenodd" clip-rule="evenodd" fill="#8BBAB1" d="M422.344,313.736c-1.463-0.735-3.58-2.507-4.283-2.062
	c-13.521,8.651-15.221-1.859-17.865-10.841c-3.204-10.874-9.019-20.55-14.077-30.563c-2.17-4.296-4.761-8.348-10.347-8.693
	c0.127-10.236,6.089-12.152,14.625-10.102c10.571,2.536,18.286,9.011,24.142,17.941c4.193,12.85,11.85,24.779,10.432,39.126
	C424.975,310.721,424.489,312.649,422.344,313.736z"/>
<path fill-rule="evenodd" clip-rule="evenodd" fill="#5E9C8C" d="M368.18,237.562c-0.715-40.26,1.618-80.234,15.319-118.674
	c1.39-3.906,1.631-11.188,8.173-9.204c8.164,2.478,2.979,8.338,1.214,12.72c-9.664,23.977-13.293,49.422-13.951,74.718
	C378.542,212.004,372.307,224.139,368.18,237.562z"/>
<path fill-rule="evenodd" clip-rule="evenodd" fill="#286656" d="M199.277,353.118c-14.551,24.054-8.271,49.591-5.328,74.893
	c0.552,4.722,1.132,9.435,1.7,14.161c-5.909-0.926-5.402-6.05-6.375-10.03c-13.064-53.379-19.295-107.318-11.736-162.131
	c1.99-14.458,6.792-28.287,17.395-43.354C191.269,271.21,190.929,312.363,199.277,353.118z"/>
<path fill-rule="evenodd" clip-rule="evenodd" fill="#236252" d="M239.552,344.784c-1.732-0.015-3.465-0.017-5.198-0.041
	c-26.181-0.37-27.472-0.237-30.128-25.928c-2.848-27.539-1.148-55.365-0.245-83.062c0.045-1.424,1.508-2.805,3.314-5.945
	c19.373,37.091,26.414,75.872,32.236,114.998C239.531,344.805,239.552,344.784,239.552,344.784z"/>
<path fill-rule="evenodd" clip-rule="evenodd" fill="#286656" d="M269.341,348.083c-2.836,2.62-5.667,5.235-8.503,7.854
	c-3.764-2.448-8.177-4.066-10.535-8.295c-5.165-38.593-13.113-76.503-26.728-113.227
	C254.258,266.009,263.187,306.477,269.341,348.083z"/>
<path fill-rule="evenodd" clip-rule="evenodd" fill="#8BBAB1" d="M518.779,395.27c-1.553-15.836-3.571-31.64-4.556-47.509
	c-1.798-28.959,0.388-57.723,6.063-86.192c0.229-1.138,1.386-2.092,2.407-3.559c3.976,8.168,6.555,16.257,7.18,24.926
	c-1.491,4.518,1.39,7.807,3.199,11.397c0.761,14.222-7.637,28.152-1.353,42.552c-3.228,19.032-6.174,38.086-4.821,57.506
	c-0.005,0.002-0.54,0.603-0.536,0.603C523.839,395.084,521.309,395.178,518.779,395.27z"/>
<path fill-rule="evenodd" clip-rule="evenodd" fill="#76A592" d="M659.589,351.018c0.392,2.867-0.462,8.244,1.826,8.093
	c14.993-0.982,5.823,7.352,3.809,10.778c-3.751,6.378-1.888,15.585-9.926,19.663c-1.659-34.376-7.105-67.788-23.696-98.647
	c-4.866-9.055-11.147-17.046-18.122-26.215c6.067,0.897,10.632,1.569,15.196,2.245c4.953,5.837,11.147,10.018,17.882,13.499
	c0.58,4.542,3.109,6.994,7.719,7.231c1.275,16.551,7.585,32.545,5.479,49.468c-0.098,0.715-0.146,1.435-0.146,2.16
	C655.678,343.196,650.354,347.097,659.589,351.018z"/>
<path fill-rule="evenodd" clip-rule="evenodd" fill="#76A592" d="M534.467,240.435c3.105,7.987,6.068,16.033,9.402,23.923
	c1.034,2.443,0.589,7.38,4.785,6.295c4.654-1.206,4.508-5.789,3.457-9.756c-1.467-5.555-6.301-10.027-6.235-16.807
	c9.284,1.057,11.208,11.848,19.675,12.367c-0.036,4.489,3.878,6.566,5.958,9.766c-8.263,1.625-12.034,8.373-16.651,14.302
	c-2.75,3.532-4.111,8.428-9.03,10.04c-1.104-3.38-2.697-6.379-6.15-7.932c-3.444-13.969-6.89-27.938-10.334-41.905
	C531.047,240.631,532.759,240.533,534.467,240.435z"/>
<path fill-rule="evenodd" clip-rule="evenodd" fill="#8BBAB1" d="M570.672,240.32c3.342,1.126,6.681,2.251,10.015,3.381
	c4.188,5.596,12.145,7.458,14.634,14.746c-3.834,2.296-7.887,3.755-12.46,3.152c-4.151-3.788-7.731-8.518-14.143-8.579
	c-1.974-4.225-3.947-8.45-5.925-12.676C565.416,240.334,568.044,240.326,570.672,240.32z"/>
<path fill-rule="evenodd" clip-rule="evenodd" fill="#76A592" d="M531.721,336.885c-6.284-14.4,2.113-28.33,1.345-42.544
	c3.134,0.464,6.272,0.919,9.415,1.373C540.355,309.82,530.523,321.911,531.721,336.885z"/>
<path fill-rule="evenodd" clip-rule="evenodd" fill="#306F56" d="M542.48,295.714c-3.143-0.454-6.281-0.909-9.415-1.373
	c-1.802-3.598-4.683-6.887-3.191-11.405c3.272-0.098,6.538-0.202,9.803-0.302c3.453,1.553,5.047,4.552,6.15,7.932
	C544.711,292.281,543.596,293.996,542.48,295.714z"/>
<path fill-rule="evenodd" clip-rule="evenodd" fill="#306F56" d="M568.718,253.021c6.411,0.062,9.991,4.791,14.143,8.579
	c-1.454,7.263-4.928,9.572-11.355,4.624c-2.076-3.2-5.99-5.277-5.954-9.766C566.605,255.311,567.66,254.167,568.718,253.021z"/>
<path fill-rule="evenodd" clip-rule="evenodd" fill="#306F56" d="M651.686,418.378c-0.608-0.314-1.242-0.574-1.896-0.787
	c-2.056-2.57-3.277-5.417-2.901-8.786c2.447-0.517,4.896-1.042,7.348-1.569c1.998,1.021,3.996,2.045,5.998,3.071
	c-0.204,2.546-0.417,5.089-0.625,7.631C656.965,418.083,654.326,418.229,651.686,418.378z"/>
<path fill-rule="evenodd" clip-rule="evenodd" fill="#76A592" d="M589.329,274.666c0.185-0.354,0.368-0.707,0.548-1.063
	c-0.209,0.325-0.421,0.65-0.634,0.977L589.329,274.666z"/>
<path fill-rule="evenodd" clip-rule="evenodd" fill="#8BBAB1" d="M529.42,394.694c-0.049,0.803-0.098,1.602-0.146,2.405
	c-0.973-0.701-1.941-1.401-2.914-2.104c0,0,0.535-0.601,0.54-0.603C527.736,394.524,528.578,394.626,529.42,394.694z"/>
<path fill-rule="evenodd" clip-rule="evenodd" fill="#8BBAB1" d="M469.14,313.806c-1.691-0.929-2.505-2.329-2.272-4.274
	c-0.281-7.229-0.56-14.467-0.846-21.705c2.91-6.775,5.819-13.55,8.732-20.331c5.275-7.868,11.654-14.445,20.759-17.857
	c-4.581,18.715-16.517,34.729-19.814,53.917c-0.434,2.515-0.821,5.036-1.23,7.555C472.277,311.188,470.324,311.734,469.14,313.806z"
	/>
<path fill-rule="evenodd" clip-rule="evenodd" fill="#236252" d="M495.513,249.639c-9.104,3.412-15.483,9.989-20.759,17.857
	c-7.09-17.142-4.871-35.645-7.457-53.442c-4.503-30.954-3.964-62.295-2.901-93.508c0.531-15.695,4.735-30.506,16.112-44.238
	c14.53,26.759,22.013,54.058,24.918,82.506c2.288,22.391,3.053,44.927,3.359,67.491
	C508.936,237.677,507.894,246.335,495.513,249.639z"/>
<path fill-rule="evenodd" clip-rule="evenodd" fill="#286656" d="M534.467,240.435c-1.708,0.098-3.42,0.196-5.124,0.294
	c-9.337,1.571-10.551-3.653-10.51-11.372c0.184-33.279-1.994-66.42-7.776-99.227c-2.632-14.941-7.728-29.194-14.036-42.992
	c-1.97-4.305-4.699-8.358-4.295-13.419c15.646,9.57,22.462,25.844,29.225,41.312c15.234,34.84,20.856,71.956,23.011,109.755
	C545.467,233.603,542.791,238.445,534.467,240.435z"/>
<path fill-rule="evenodd" clip-rule="evenodd" fill="#8BBAB1" d="M482.383,316.358c4.749-22.881,14.155-43.762,27.48-63.296
	c-3.833,20.205-2.782,40.658-5.676,60.673c-1.132,7.842,2.407,16.566-3.567,23.651C497.973,327.399,489.493,322.473,482.383,316.358
	z"/>
<path fill-rule="evenodd" clip-rule="evenodd" fill="#76A592" d="M482.383,316.358c7.11,6.115,15.59,11.041,18.237,21.028
	c0.004,1.692,0.013,3.384,0.017,5.075c-4.233,3.58-8.471,7.165-12.709,10.747c-0.445-15.906-11.588-26.716-18.784-39.402
	c1.181-2.071,3.134-2.617,5.324-2.695C477.107,312.86,479.748,314.611,482.383,316.358z"/>
<path fill-rule="evenodd" clip-rule="evenodd" fill="#76A592" d="M510.832,410.571c-1.639,2.449-3.277,4.903-4.916,7.351
	c-3.51-18.325-7.016-36.646-10.526-54.969c1.532-3.531,4.291-5.847,7.572-7.646c7.829,1.479,4.789,7.766,5.483,12.402
	c1.483,9.885-3.399,20.477,3.298,29.779c-3.755,3.99-4.454,8.056-0.294,12.236L510.832,410.571z"/>
<path fill-rule="evenodd" clip-rule="evenodd" fill="#286656" d="M502.962,355.308c-3.281,1.798-6.04,4.115-7.572,7.646
	c-7.857,0.862-9.21-3.257-7.462-9.746c4.238-3.582,8.476-7.167,12.709-10.747C515.838,344.132,505.356,350.45,502.962,355.308z"/>
<path fill-rule="evenodd" clip-rule="evenodd" fill="#306F56" d="M511.449,409.725c-4.16-4.18-3.461-8.246,0.294-12.236
	c2.525-0.186,5.189,0.067,7.04-2.225c2.525-0.086,5.056-0.18,7.58-0.27c0.969,0.703,1.938,1.404,2.91,2.104
	c3.502,2.674,0.784,4.979-0.438,7.38c-3.171,0.909-6.211,2.027-8.021,5.083C517.692,409.615,514.57,409.672,511.449,409.725z"/>
<path fill-rule="evenodd" clip-rule="evenodd" fill="#236252" d="M722.317,439.014c0.874-22.162-0.866-43.983-8.479-65.039
	c16.406-33.661,25.895-69.571,34.402-105.798c4.148-17.661,6.779-35.573,8.811-55.737c11.372,12.608,13.713,26.994,14.367,41.03
	c2.918,62.807-12.99,121.592-39.977,177.784C729.57,435.146,727.924,439.445,722.317,439.014z"/>
<path fill-rule="evenodd" clip-rule="evenodd" fill="#236252" d="M659.589,351.018c-9.235-3.921-3.911-7.821,0.021-11.726
	c9.133,0.692,13.877-3.647,17.215-12.214c13.236-33.947,27.845-67.303,46.302-98.833c5.047-8.624,10.596-16.827,17.571-24.015
	c1.643,0,3.281-0.002,4.924-0.002c0.425,40.484-10.886,78.734-22.961,116.704c-4.899,15.399-7.261,32.1-18.58,44.94
	c-0.907-0.58-1.807-1.158-2.713-1.749C689.324,353.739,676.143,346.995,659.589,351.018z"/>
<path fill-rule="evenodd" clip-rule="evenodd" fill="#236252" d="M659.756,337.132c2.105-16.923-4.204-32.917-5.479-49.468
	c8.618-16.376,17.31-32.715,25.842-49.136c9.088-17.491,23.975-27.889,41.876-34.694l0.797,0.797
	c-1.136,10.453-9.333,17.205-13.767,25.956c-16.198,31.95-31.853,64.109-44.164,97.803
	C663.688,331.61,662.825,335.018,659.756,337.132z"/>
<path fill-rule="evenodd" clip-rule="evenodd" fill="#236252" d="M721.994,203.834c0.58-0.3,1.161-0.599,1.737-0.899
	c-0.319,0.56-0.634,1.124-0.944,1.688C722.791,204.631,721.994,203.834,721.994,203.834z"/>
<path fill-rule="evenodd" clip-rule="evenodd" fill="#1B1515" d="M338.73,653.647c-0.069-13.166,14.216-24.428,31.346-24.714
	c12.201-0.204,25.29,11.368,25.694,22.671c0.123,3.375-1.111,6.153-4.278,7.253c-5.962,2.072-8.332-2.366-11-6.456
	c-6.624-10.146-14.669-11.54-23.014-4.417c-2.865,2.443-3.874,5.614-4.618,9.002c-0.956,4.327-3.253,7.33-7.997,6.55
	C339.388,662.646,338.759,658.199,338.73,653.647z"/>
<path fill-rule="evenodd" clip-rule="evenodd" fill="#76A592" d="M375.184,384.638c0.041-8.741,0.086-17.479,0.131-26.224
	c4.953-8.647,2.909-20.869,13.607-26.567c3.935,2.625,7.367,6.364,12.766,5.741c-6.003,16.307-15.418,31.26-17.424,49.181
	c-1.373,12.247,0.102,24.965-4.998,36.721c-0.425-0.868-0.85-1.739-1.271-2.607c-0.887-8.317-1.777-16.637-2.664-24.957
	C381.023,392.089,378.833,388.352,375.184,384.638z"/>
<path fill-rule="evenodd" clip-rule="evenodd" fill="#286656" d="M401.688,337.588c-5.398,0.623-8.831-3.116-12.77-5.739
	c-1.623-2.87-3.641-5.596-4.785-8.645c-2.419-6.423-0.809-9.939,6.849-8.011c4.495,5.664,8.99,11.325,13.489,16.986
	C403.542,333.984,402.615,335.784,401.688,337.588z"/>
<path fill-rule="evenodd" clip-rule="evenodd" fill="#306F56" d="M377.995,420.883c0.421,0.868,0.846,1.739,1.271,2.607
	c-1.565,8.136-8.221,7.388-14.064,8.054c-4.552-1.146-11.021,1.054-12.549-5.643c-1.291-5.639,4.14-5.032,7.404-6.207
	C366.035,420.094,372.017,420.488,377.995,420.883z"/>
<path fill-rule="evenodd" clip-rule="evenodd" fill="#76A592" d="M379.907,436.402c-0.229,0.288-0.458,0.576-0.687,0.866
	c-0.175-0.333-0.502-0.682-0.474-0.999c0.028-0.307,0.417-0.584,0.649-0.875C379.568,435.73,379.74,436.067,379.907,436.402z"/>
<path fill-rule="evenodd" clip-rule="evenodd" fill="#1B1515" d="M586.873,655.993c0.813-9.901,8.945-16.411,20.816-20.031
	c11.294-3.448,19.617-0.151,25.453,9.767c2.64,4.479,4.805,9.243,7.146,13.893c1.998,3.969,1.908,7.72-2.137,10.253
	c-4.226,2.652-7.531,0.314-10.068-2.954c-1.848-2.379-3.229-5.137-4.675-7.801c-2.44-4.486-3.833-10.175-10.952-8.835
	c-6.121,1.152-10.37,3.829-10.632,10.951c-0.192,5.194-2.509,10.02-8.54,9.174C587.523,669.596,586.489,664.447,586.873,655.993z"/>
<path fill-rule="evenodd" clip-rule="evenodd" fill="#8BBAB1" d="M520.814,409.562c1.811-3.056,4.851-4.174,8.021-5.083
	c5.614,11.01,3.906,21.814-2.652,32.945C524.391,428.138,522.604,418.852,520.814,409.562z"/>
<path fill-rule="evenodd" clip-rule="evenodd" fill="#8BBAB1" d="M330.938,342.397c-0.564-24.419,1.005-48.388,14.171-70.057
	c2.967-4.877,2.742-5.014,10.15-10.336c3.555,6.54-0.715,12.686-0.923,18.595c-1.095,30.553,4.773,60.068,11.765,89.457
	c1.132,4.736,1.622,9.321,1.467,14.081c-4.389-0.049-8.438,0.589-10.501,5.218c-3.829-0.229-4.602-2.766-5.304-6.056
	C348.459,367.853,341.464,354.205,330.938,342.397z"/>
<path fill-rule="evenodd" clip-rule="evenodd" fill="#8BBAB1" d="M377.995,420.883c-5.979-0.395-11.96-0.789-17.939-1.189
	c-0.588-8.634-4.425-16.919-2.746-25.787c6.007,0.674,12.014,1.349,18.021,2.019C376.218,404.246,377.108,412.565,377.995,420.883z"
	/>
<path fill-rule="evenodd" clip-rule="evenodd" fill="#306F56" d="M375.331,395.926c-6.007-0.67-12.014-1.344-18.021-2.019
	c-0.082-1.52-0.164-3.036-0.245-4.552c2.063-4.629,6.113-5.267,10.501-5.218c2.542,0.164,5.079,0.327,7.617,0.497
	C378.833,388.352,381.023,392.089,375.331,395.926z"/>
<path fill-rule="evenodd" clip-rule="evenodd" fill="#8BBAB1" d="M390.981,315.193c-7.658-1.929-9.268,1.587-6.849,8.011
	c1.144,3.049,3.163,5.774,4.785,8.645c-10.694,5.696-8.651,17.918-13.604,26.565c-10.992-28.379-10.89-58.054-10.232-87.792
	c0.045-2.115-0.008-4.47,2.525-5.418c1.827-0.682,3.465-0.121,4.376,1.589C380.186,282.19,392.673,295.914,390.981,315.193z"/>
</svg>
