<?xml version="1.0" encoding="UTF-8" standalone="no"?>
<!DOCTYPE svg PUBLIC "-//W3C//DTD SVG 1.1//EN" "http://www.w3.org/Graphics/SVG/1.1/DTD/svg11.dtd">
<svg width="241px" height="253px" version="1.1" xmlns="http://www.w3.org/2000/svg" xmlns:xlink="http://www.w3.org/1999/xlink" xml:space="preserve" xmlns:serif="http://www.serif.com/" style="fill-rule:evenodd;clip-rule:evenodd;stroke-linecap:round;stroke-linejoin:round;stroke-miterlimit:1.5;">
    <g transform="matrix(1,0,0,1,-628.056,-467.759)">
        <g transform="matrix(1,0,0,1,235.382,90.5411)">
            <path d="M570.805,485.808L494.581,409.584C491.414,406.417 489.454,402.043 489.454,397.215C489.454,387.558 497.294,379.718 506.95,379.718C511.779,379.718 516.153,381.678 519.32,384.845L519.329,384.835L625.429,490.935L625.503,491.01C628.626,494.17 630.556,498.514 630.556,503.304L630.556,503.33C630.556,508.12 628.626,512.464 625.503,515.625L625.429,515.699L519.329,621.799L519.32,621.789C516.153,624.956 511.779,626.916 506.95,626.916C497.294,626.916 489.454,619.076 489.454,609.42C489.454,604.591 491.414,600.217 494.581,597.05L570.866,520.766L413.784,520.766C413.415,520.789 413.044,520.801 412.67,520.801C403.013,520.801 395.174,512.961 395.174,503.304C395.174,493.648 403.013,485.808 412.67,485.808L570.805,485.808Z" style="fill:none;stroke:black;stroke-width:5px;"/>
        </g>
    </g>
</svg>
