<?xml version="1.0" encoding="utf-8"?>
<!-- Generator: Adobe Illustrator 16.0.0, SVG Export Plug-In . SVG Version: 6.00 Build 0)  -->
<!DOCTYPE svg PUBLIC "-//W3C//DTD SVG 1.1//EN" "http://www.w3.org/Graphics/SVG/1.1/DTD/svg11.dtd">
<svg version="1.1" id="Layer_1" xmlns="http://www.w3.org/2000/svg" xmlns:xlink="http://www.w3.org/1999/xlink" x="0px" y="0px"
	 width="128px" height="128px" viewBox="0 0 128 128" enable-background="new 0 0 128 128" xml:space="preserve">
<path fill="#61AE84" d="M-16.19,57.75c-12.388,21.213-27.326,40.479-44.278,58.227c-3.25,3.4-6.461,6.859-9.293,10.638
	c-0.085,0.073-0.249,0.207-0.243,0.212c0.162,0.221,0.289,0.116,0.399-0.06c5.141-1.693,9.939-4.175,14.299-7.283
	c1.984-1.412,3.141-3.961,5.117-5.638c5.636-4.784,12.316-6.824,19.498-7.561c2.541-0.26,5.098-0.365,7.647-0.556
	c0.834-0.061,1.595,0.069,2.076,0.815c0.578,0.897-0.321,1.336-0.6,2.011c-1.688,4.063-4.644,6.923-8.291,9.18
	c-4.114,2.548-8.537,4.324-13.313,5.141c-2.644,0.453-5.258,0.087-7.736-0.864c-1.454-0.559-2.621-0.298-3.874,0.466
	c-4.544,2.769-9.287,5.153-14.228,7.138c-0.305,0.121-0.61,0.328-0.92,0.338c-3.383,0.097-5.259,2.447-7.254,4.707
	c-4.513,5.115-9.483,9.813-13.794,15.113c-0.588,0.723-1.275,1.32-2.157,0.685c-1.027-0.737-0.532-1.677,0.088-2.39
	c2.323-2.671,4.619-5.377,7.075-7.925c6.014-6.236,11.716-12.751,17.461-19.227c0.723-0.815,1.163-1.662,1.233-2.793
	c0.064-1.033,0.44-2.045,0.662-3.069c0.586-2.703,0.806-5.074-0.357-8.028c-2.84-7.218-3.865-14.962-3.782-22.758
	c0.045-4.146,2.272-7.462,4.824-10.523c0.745-0.896,1.676-0.591,2.356,0.241c0.761,0.932,1.146,2.063,1.465,3.2
	c2.066,7.317,2.968,14.781,2.559,22.371c-0.149,2.76-0.862,5.382-2.41,7.794c-1.341,2.093-1.085,4.652-1.644,6.991
	c1.045,0.332,1.316-0.438,1.716-0.854c14.666-15.376,27.89-31.879,39.062-49.989c1.544-2.501,2.784-5.205,4.769-7.425
	C-17.199,56.373-16.644,57.003-16.19,57.75z M-36.207,114.204c3.107-1.813,6.346-2.17,8.662-4.312
	c-3.492,0.698-6.582,2.572-10.271,3.264c0.392-1.367,1.996-1.854,1.697-3.487c-1.975,1.237-2.704,3.485-4.484,4.532
	c-1.75,1.029-3.718,1.686-6.088,2.725c1.17-2.548,2.929-3.865,4.591-5.264c0.296-0.248,0.771-0.47,0.49-0.898
	c-0.265-0.405-0.683-0.152-1.035,0.057c-2.219,1.313-3.746,3.286-4.881,5.508c-0.48,0.942-1.131,1.28-1.955,1.708
	c-1.191,0.615-2.806,0.543-3.598,1.945c0.506,0.437,0.885,0.115,1.193-0.027c3.658-1.691,7.346-2.905,11.375-1.199
	c0.642,0.269,1.398,0.329,2.106,0.358c0.586,0.023,1.549,0.4,1.604-0.535c0.051-0.823-0.872-0.553-1.405-0.574
	c-1.735-0.072-3.43-0.266-5.397-1.317c2.003-0.759,3.598-1.468,5.26-1.955c1.148-0.336,2.132,0.737,3.308,0.729
	c0.483-0.002,1.169,0.433,1.305-0.265c0.134-0.683-0.602-0.688-1.116-0.753C-35.101,114.413-35.349,114.355-36.207,114.204z
	 M-66.341,90.633c-0.725-1.668-1.463-3.33-2.164-5.008c-0.167-0.4-0.351-0.797-0.811-0.59c-0.519,0.235-0.171,0.66-0.037,1.001
	c0.265,0.669,0.491,1.355,0.812,1.997c1.98,3.955,3.375,8.017,2.79,12.558c-0.184,1.425,0.21,2.831,0.728,4.312
	c0.221-0.274,0.349-0.363,0.363-0.467c0.044-0.323,0.085-0.655,0.054-0.979c-0.333-3.504,0.068-6.785,2.716-9.435
	c0.221-0.221,0.333-0.564,0.444-0.871c0.161-0.443,0.738-1.016,0.028-1.33c-0.533-0.234-0.64,0.441-0.853,0.839
	c-0.528,0.994-1.037,2.021-2.377,3.045c0.343-5.046-1.161-9.83,2.368-14.154c-1.866-0.037-1.485,1.674-2.722,1.885
	c0-1.098,0.017-2.126-0.008-3.154c-0.011-0.418,0.156-1.076-0.516-1.054c-0.521,0.018-0.653,0.589-0.633,1.067
	c0.064,1.565-0.14,3.127,0.18,4.697C-65.602,86.835-65.714,88.708-66.341,90.633z M-63.597,115.137
	c0.037-0.042,0.104-0.082,0.104-0.124c0.002-0.043-0.061-0.086-0.095-0.13c-0.038,0.042-0.104,0.082-0.105,0.125
	C-63.695,115.05-63.632,115.093-63.597,115.137z"/>
<path fill="#FEE600" d="M68.466,91.126c-1.94-1.457-4.017-2.507-6.517-2.392c-6.848,1.303-13.672,2.794-20.56,3.854
	c-8.438,1.298-16.903,1.213-25.308-0.75c-3.812-0.886-7.188-2.589-9.993-5.27c-3.969-3.78-2.921-7.744,2.262-9.262
	c5.344-1.566,10.885-2.063,17.155-2.967c-5.302-5.286-10.599-9.653-14.481-15.262c-2.596-3.737-7.346-7.597-3.787-12.469
	c3.326-4.563,8.35-1.465,12.5-0.201C30.705,49.754,41.19,54.23,50.6,61.007c0.707,0.507,1.364,1.097,2.706,2.194
	c-0.28-8.726-0.707-15.931-0.671-23.136c0.026-7.652,0.347-15.376,4.069-22.3c2.061-3.833,4.435-7.894,9.714-7.301
	c4.928,0.556,6.672,4.662,8.003,8.704c2.8,8.436,3.113,17.155,2.627,25.93c-0.162,2.877-0.344,5.749-0.56,9.317
	c6.367-3.634,10.891-8.69,16.829-11.643c1.286-0.64,2.45-1.536,3.755-2.124c2.704-1.216,5.544-3.76,8.413-0.833
	c3.028,3.089,1.193,6.762-0.325,9.626c-3.452,6.534-7.625,12.649-13.782,18.442c8.638,0.344,16.293,0.854,23.662,3.251
	c1.212,0.388,2.473,0.638,3.622,1.131c3.019,1.287,6.431,2.426,6.462,6.503c0.035,3.811-2.688,5.722-5.816,7.074
	c-10.207,4.407-20.853,6.851-31.996,7.229C80.927,93.293,74.718,92.077,68.466,91.126z M63.116,62.889
	c-1.646-3.174-3.99-6.318-1.885-10.053c0.911-1.615,0.211-3.219-1.343-4.225c-0.99-0.642-2.13-0.556-2.989,0.291
	c-1.194,1.188-0.992,2.603-0.387,4.035c1.507,3.517,2.887,7.07,3.37,10.9c0.265,2.056,2.966,4.603,1.122,5.839
	c-2.049,1.374-4.604-1.067-6.723-2.341c-0.896-0.548-1.55-1.505-2.272-2.313c-1.073-1.195-2.282-2.15-3.522-0.444
	c-0.997,1.369,0.01,2.243,1.216,3c4.317,2.732,8.973,4.734,13.688,6.547c2.733,1.05,3.92,0.258,4.497-3.147
	c0.578-3.461,0.875-7.667,4.546-9.868c1.537-0.916,2.28-1.944,0.77-3.348c-1.281-1.175-2.988-0.971-3.722,0.471
	c-0.988,1.938-1.423,4.168-2.092,6.269c-1.993-3.652-2.313-6.821-0.076-9.559c0.95-1.167,2.15-2.103,1.072-3.681
	c-0.305-0.439-1.283-0.721-1.856-0.602c-1.6,0.327-2.343,1.55-2.506,3.137C63.708,56.823,63.419,59.857,63.116,62.889z"/>
<path fill="#508B73" d="M-36.207,114.204c0.858,0.151,1.106,0.209,1.359,0.239c0.515,0.064,1.25,0.07,1.116,0.753
	c-0.135,0.697-0.821,0.263-1.305,0.265c-1.175,0.008-2.157-1.065-3.308-0.729c-1.662,0.487-3.257,1.196-5.26,1.955
	c1.968,1.052,3.662,1.245,5.397,1.317c0.533,0.021,1.456-0.249,1.405,0.574c-0.055,0.935-1.018,0.559-1.604,0.535
	c-0.708-0.029-1.465-0.09-2.106-0.358c-4.029-1.706-7.717-0.493-11.375,1.199c-0.308,0.143-0.687,0.464-1.193,0.027
	c0.792-1.402,2.407-1.33,3.598-1.945c0.826-0.428,1.475-0.766,1.955-1.708c1.135-2.222,2.663-4.194,4.881-5.508
	c0.353-0.209,0.771-0.463,1.035-0.057c0.28,0.429-0.194,0.65-0.49,0.898c-1.662,1.398-3.42,2.716-4.591,5.264
	c2.37-1.039,4.338-1.697,6.088-2.725c1.781-1.047,2.51-3.295,4.484-4.532c0.299,1.634-1.306,2.12-1.697,3.487
	c3.689-0.691,6.779-2.565,10.271-3.264C-29.861,112.034-33.098,112.391-36.207,114.204z"/>
<path fill="#508B73" d="M-66.341,90.633c0.626-1.925,0.739-3.798,0.363-5.64c-0.32-1.57-0.116-3.132-0.181-4.698
	c-0.02-0.477,0.112-1.049,0.634-1.066c0.671-0.022,0.504,0.635,0.516,1.053C-64.983,81.31-65,82.339-65,83.437
	c1.236-0.212,0.856-1.922,2.72-1.885c-3.528,4.324-2.025,9.107-2.368,14.155c1.341-1.024,1.85-2.051,2.378-3.047
	c0.211-0.397,0.318-1.072,0.851-0.836c0.71,0.312,0.133,0.884-0.026,1.327c-0.111,0.307-0.224,0.652-0.444,0.871
	c-2.647,2.651-3.049,5.934-2.716,9.436c0.029,0.322-0.01,0.656-0.054,0.979c-0.015,0.103-0.142,0.19-0.363,0.465
	c-0.519-1.48-0.912-2.886-0.728-4.312c0.585-4.54-0.81-8.603-2.791-12.556c-0.321-0.641-0.547-1.33-0.812-1.998
	c-0.135-0.342-0.483-0.767,0.037-1.002c0.46-0.207,0.643,0.191,0.811,0.59C-67.804,87.303-67.065,88.965-66.341,90.633z"/>
<path fill="#FFFFFF" d="M-63.597,115.137c-0.035-0.044-0.099-0.087-0.097-0.129c0.001-0.045,0.068-0.083,0.105-0.125
	c0.034,0.044,0.098,0.087,0.095,0.13C-63.493,115.055-63.56,115.095-63.597,115.137z"/>
<path fill="#FFFFFF" d="M-69.605,126.767c-0.111,0.176-0.238,0.28-0.4,0.06c-0.005-0.005,0.158-0.139,0.243-0.212
	C-69.709,126.665-69.657,126.714-69.605,126.767z"/>
<path fill="#FFCE06" d="M63.116,62.889c0.303-3.031,0.592-6.065,0.907-9.093c0.163-1.587,0.906-2.81,2.506-3.137
	c0.573-0.119,1.552,0.163,1.856,0.602c1.082,1.578-0.122,2.514-1.072,3.681c-2.236,2.737-1.917,5.906,0.076,9.559
	c0.669-2.101,1.099-4.333,2.092-6.269c0.733-1.442,2.443-1.65,3.722-0.471c1.511,1.404,0.768,2.432-0.77,3.348
	c-3.671,2.201-3.968,6.407-4.546,9.868c-0.577,3.405-1.764,4.197-4.497,3.145c-4.716-1.81-9.371-3.812-13.688-6.544
	c-1.206-0.76-2.213-1.631-1.21-3.001c1.235-1.704,2.443-0.751,3.517,0.446c0.722,0.809,1.376,1.766,2.272,2.313
	c2.119,1.273,4.673,3.715,6.723,2.341c1.844-1.238-0.857-3.783-1.122-5.839c-0.483-3.831-1.862-7.383-3.37-10.903
	c-0.605-1.43-0.807-2.844,0.387-4.032c0.859-0.847,1.999-0.932,2.994-0.291c1.549,1.007,2.25,2.61,1.338,4.226
	C59.126,56.57,61.47,59.714,63.116,62.889z"/>
</svg>
