<?xml version="1.0" encoding="utf-8"?>
<!-- Generator: Adobe Illustrator 16.0.0, SVG Export Plug-In . SVG Version: 6.00 Build 0)  -->
<!DOCTYPE svg PUBLIC "-//W3C//DTD SVG 1.1//EN" "http://www.w3.org/Graphics/SVG/1.1/DTD/svg11.dtd">
<svg version="1.1" id="Layer_1" xmlns="http://www.w3.org/2000/svg" xmlns:xlink="http://www.w3.org/1999/xlink" x="0px" y="0px"
	 width="128px" height="128px" viewBox="0 0 128 128" enable-background="new 0 0 128 128" xml:space="preserve">
<path fill="#61AE84" d="M-72.791,5.526c4.859,24.08,6.519,48.402,5.665,72.931c-0.165,4.7-0.263,9.419,0.136,14.124
	c-0.015,0.111-0.048,0.32-0.041,0.319c0.268,0.058,0.293-0.104,0.259-0.31c2.713-4.685,4.646-9.729,5.833-14.949
	c0.542-2.374-0.289-5.047,0.071-7.613c1.026-7.321,4.658-13.288,9.531-18.614c1.725-1.884,3.563-3.663,5.341-5.502
	c0.583-0.6,1.237-1.009,2.093-0.771c1.029,0.285,0.649,1.211,0.89,1.9c1.442,4.155,1.137,8.258-0.085,12.369
	c-1.377,4.639-3.499,8.907-6.521,12.693c-1.673,2.097-3.869,3.562-6.352,4.5c-1.457,0.55-2.155,1.521-2.583,2.925
	c-1.551,5.09-3.507,10.025-5.876,14.793c-0.147,0.293-0.237,0.651-0.462,0.864c-2.462,2.322-2.3,5.325-2.286,8.34
	c0.033,6.821-0.554,13.635-0.248,20.46c0.042,0.931-0.074,1.834-1.155,1.946c-1.258,0.133-1.513-0.898-1.523-1.844
	c-0.042-3.539-0.127-7.087,0.012-10.623c0.343-8.657,0.268-17.314,0.25-25.972c-0.002-1.089-0.237-2.015-0.937-2.905
	c-0.639-0.814-1.032-1.819-1.547-2.732c-1.36-2.408-2.773-4.325-5.607-5.757c-6.922-3.501-12.838-8.602-17.961-14.479
	c-2.724-3.127-3.266-7.084-3.397-11.067c-0.04-1.164,0.858-1.556,1.92-1.387c1.188,0.189,2.227,0.778,3.223,1.415
	c6.41,4.09,12.047,9.063,16.791,15.003c1.724,2.16,2.936,4.592,3.384,7.423c0.39,2.455,2.284,4.195,3.423,6.313
	c1.001-0.447,0.691-1.203,0.713-1.779c0.724-21.236-0.377-42.355-4.081-63.309c-0.511-2.895-1.383-5.739-1.378-8.716
	C-74.46,5.169-73.625,5.27-72.791,5.526z M-50.188,60.996c1.114-3.421,3.295-5.842,3.601-8.981c-2.144,2.845-3.204,6.299-5.5,9.27
	c-0.617-1.281,0.258-2.712-1.052-3.733c-0.652,2.237,0.299,4.401-0.334,6.367c-0.622,1.933-1.655,3.731-2.733,6.084
	c-0.821-2.682-0.384-4.835-0.073-6.984c0.056-0.382,0.263-0.863-0.231-0.997c-0.467-0.126-0.611,0.341-0.735,0.731
	c-0.783,2.456-0.611,4.944,0.019,7.358c0.268,1.023,0.007,1.709-0.324,2.576c-0.48,1.252-1.734,2.271-1.393,3.846
	c0.668-0.011,0.737-0.503,0.873-0.814c1.607-3.695,3.553-7.055,7.697-8.461c0.658-0.227,1.263-0.685,1.812-1.134
	c0.453-0.372,1.423-0.731,0.841-1.466c-0.51-0.648-1.019,0.167-1.431,0.506c-1.344,1.1-2.738,2.083-4.907,2.606
	c0.991-1.899,1.71-3.489,2.627-4.959c0.634-1.015,2.082-0.867,2.955-1.655c0.359-0.322,1.161-0.454,0.798-1.065
	c-0.354-0.599-0.907-0.113-1.334,0.181C-49.223,60.416-49.446,60.538-50.188,60.996z M-88.368,63.438
	c-1.65-0.764-3.307-1.514-4.947-2.3c-0.392-0.188-0.792-0.362-0.998,0.099c-0.231,0.521,0.311,0.607,0.639,0.771
	c0.643,0.323,1.268,0.687,1.935,0.951c4.109,1.637,7.852,3.742,10.436,7.521c0.811,1.187,2.04,1.975,3.412,2.735
	c-0.018-0.352,0.019-0.503-0.039-0.59c-0.183-0.271-0.373-0.546-0.61-0.767c-2.58-2.395-4.462-5.112-4.248-8.852
	c0.018-0.312-0.126-0.644-0.248-0.946c-0.175-0.438-0.125-1.249-0.864-1.012c-0.554,0.18-0.184,0.755-0.079,1.193
	c0.267,1.094,0.57,2.199,0.25,3.855c-3.1-3.996-7.405-6.568-7.646-12.145c-1.418,1.213,0.004,2.237-0.779,3.218
	c-0.73-0.82-1.401-1.6-2.104-2.351c-0.286-0.305-0.599-0.907-1.086-0.443c-0.377,0.359-0.096,0.874,0.237,1.218
	c1.089,1.126,1.975,2.429,3.259,3.388C-90.342,60.11-89.18,61.583-88.368,63.438z M-70.021,79.91c0-0.057,0.023-0.13-0.005-0.162
	c-0.027-0.033-0.103-0.023-0.158-0.033c0,0.057-0.023,0.131,0.004,0.163C-70.152,79.91-70.076,79.9-70.021,79.91z"/>
<path fill="#FEE600" d="M-61.201,154.626c-1.94-1.457-4.017-2.507-6.517-2.392c-6.848,1.303-13.672,2.794-20.56,3.854
	c-8.438,1.298-16.903,1.213-25.308-0.75c-3.812-0.886-7.188-2.589-9.993-5.27c-3.969-3.78-2.921-7.744,2.262-9.262
	c5.344-1.566,10.885-2.063,17.155-2.967c-5.302-5.286-10.599-9.653-14.481-15.263c-2.596-3.736-7.346-7.596-3.787-12.469
	c3.326-4.563,8.35-1.465,12.5-0.2c10.967,3.345,21.453,7.821,30.862,14.599c0.707,0.507,1.364,1.096,2.706,2.193
	c-0.28-8.725-0.707-15.931-0.671-23.135c0.026-7.652,0.347-15.377,4.069-22.301c2.061-3.833,4.435-7.895,9.714-7.301
	c4.928,0.557,6.672,4.662,8.003,8.703c2.8,8.437,3.113,17.156,2.627,25.93c-0.162,2.877-0.344,5.75-0.56,9.317
	c6.367-3.634,10.891-8.69,16.829-11.644c1.286-0.64,2.45-1.535,3.755-2.123c2.704-1.216,5.544-3.76,8.413-0.832
	c3.028,3.089,1.193,6.762-0.325,9.626c-3.452,6.534-7.625,12.649-13.782,18.442c8.638,0.344,16.293,0.854,23.662,3.251
	c1.212,0.388,2.473,0.638,3.622,1.131c3.019,1.287,6.431,2.426,6.462,6.503c0.035,3.811-2.688,5.722-5.816,7.074
	c-10.207,4.407-20.853,6.851-31.996,7.229C-48.74,156.793-54.949,155.577-61.201,154.626z M-66.55,126.389
	c-1.646-3.174-3.99-6.318-1.885-10.053c0.911-1.615,0.211-3.219-1.343-4.225c-0.99-0.643-2.13-0.557-2.989,0.29
	c-1.194,1.188-0.992,2.603-0.387,4.034c1.507,3.518,2.887,7.07,3.37,10.9c0.265,2.057,2.966,4.604,1.122,5.84
	c-2.049,1.374-4.604-1.067-6.723-2.341c-0.896-0.548-1.55-1.505-2.272-2.313c-1.073-1.195-2.282-2.15-3.522-0.443
	c-0.997,1.368,0.01,2.242,1.216,2.999c4.317,2.732,8.973,4.734,13.688,6.547c2.733,1.05,3.92,0.258,4.497-3.147
	c0.578-3.461,0.875-7.667,4.546-9.867c1.537-0.916,2.28-1.944,0.77-3.349c-1.281-1.175-2.988-0.972-3.722,0.471
	c-0.988,1.938-1.423,4.168-2.092,6.269c-1.993-3.652-2.313-6.821-0.076-9.559c0.95-1.167,2.15-2.104,1.072-3.682
	c-0.305-0.439-1.283-0.721-1.856-0.602c-1.6,0.327-2.343,1.55-2.506,3.137C-65.958,120.323-66.248,123.357-66.55,126.389z"/>
<path fill="#508B73" d="M-50.188,60.996c0.742-0.458,0.965-0.58,1.174-0.726c0.427-0.294,0.98-0.779,1.334-0.181
	c0.363,0.61-0.438,0.743-0.798,1.065c-0.872,0.787-2.32,0.64-2.955,1.655c-0.917,1.47-1.636,3.06-2.627,4.959
	c2.169-0.523,3.563-1.507,4.907-2.606c0.413-0.339,0.921-1.154,1.431-0.506c0.581,0.734-0.388,1.094-0.841,1.466
	c-0.548,0.449-1.154,0.907-1.812,1.134c-4.144,1.406-6.09,4.765-7.697,8.461c-0.135,0.312-0.204,0.804-0.873,0.814
	c-0.341-1.574,0.913-2.594,1.393-3.846c0.332-0.868,0.592-1.553,0.324-2.576c-0.63-2.414-0.801-4.903-0.019-7.358
	c0.125-0.391,0.268-0.858,0.735-0.731c0.495,0.134,0.288,0.615,0.231,0.997c-0.311,2.149-0.748,4.303,0.073,6.984
	c1.078-2.353,2.11-4.153,2.733-6.084c0.634-1.967-0.317-4.13,0.334-6.367c1.31,1.021,0.435,2.452,1.052,3.733
	c2.295-2.971,3.356-6.425,5.5-9.27C-46.893,55.154-49.072,57.573-50.188,60.996z"/>
<path fill="#508B73" d="M-88.368,63.438c-0.813-1.854-1.975-3.327-3.48-4.453c-1.284-0.959-2.169-2.262-3.26-3.388
	c-0.332-0.343-0.614-0.857-0.236-1.218c0.486-0.464,0.799,0.138,1.085,0.442c0.703,0.751,1.375,1.531,2.105,2.351
	c0.782-0.98-0.639-2.004,0.778-3.217c0.242,5.576,4.545,8.148,7.647,12.146c0.32-1.657,0.018-2.762-0.25-3.857
	c-0.106-0.438-0.476-1.013,0.08-1.19c0.737-0.239,0.687,0.572,0.863,1.009c0.121,0.303,0.267,0.636,0.248,0.946
	c-0.213,3.74,1.67,6.459,4.248,8.852c0.236,0.222,0.429,0.497,0.611,0.768c0.058,0.087,0.021,0.237,0.038,0.589
	c-1.372-0.761-2.601-1.548-3.412-2.735c-2.583-3.779-6.327-5.885-10.435-7.52c-0.666-0.265-1.293-0.629-1.935-0.952
	c-0.329-0.165-0.871-0.251-0.639-0.772c0.206-0.461,0.607-0.285,0.998-0.099C-91.675,61.924-90.018,62.674-88.368,63.438z"/>
<path fill="#FFFFFF" d="M-70.021,79.91c-0.055-0.01-0.131,0-0.158-0.032c-0.029-0.034-0.004-0.106-0.004-0.163
	c0.055,0.01,0.131,0,0.158,0.033C-69.998,79.78-70.021,79.854-70.021,79.91z"/>
<path fill="#FFFFFF" d="M-69.605,126.767c-0.111,0.176-0.238,0.28-0.4,0.06c-0.005-0.005,0.158-0.139,0.243-0.212
	C-69.709,126.665-69.657,126.714-69.605,126.767z"/>
<path fill="#FFCE06" d="M-66.55,126.389c0.303-3.031,0.592-6.065,0.907-9.094c0.163-1.587,0.906-2.81,2.506-3.137
	c0.573-0.119,1.552,0.162,1.856,0.602c1.082,1.578-0.122,2.515-1.072,3.682c-2.236,2.737-1.917,5.906,0.076,9.559
	c0.669-2.101,1.099-4.333,2.092-6.269c0.733-1.442,2.443-1.65,3.722-0.471c1.511,1.404,0.768,2.433-0.77,3.349
	c-3.671,2.2-3.968,6.406-4.546,9.867c-0.577,3.405-1.764,4.197-4.497,3.145c-4.716-1.81-9.371-3.812-13.688-6.544
	c-1.206-0.76-2.213-1.631-1.21-3.001c1.235-1.705,2.443-0.752,3.517,0.445c0.722,0.809,1.376,1.766,2.272,2.313
	c2.119,1.273,4.673,3.715,6.723,2.341c1.844-1.238-0.857-3.783-1.122-5.84c-0.483-3.83-1.862-7.383-3.37-10.902
	c-0.605-1.43-0.807-2.844,0.387-4.032c0.859-0.847,1.999-0.933,2.994-0.291c1.549,1.007,2.25,2.61,1.338,4.226
	C-70.541,120.07-68.196,123.215-66.55,126.389z"/>
<circle fill="#FEE500" cx="64" cy="64" r="62.167"/>
</svg>
