<?xml version="1.0" encoding="UTF-8" standalone="no"?>
<!DOCTYPE svg PUBLIC "-//W3C//DTD SVG 1.1//EN" "http://www.w3.org/Graphics/SVG/1.1/DTD/svg11.dtd">
<svg width="100%" height="100%" viewBox="0 0 147 253" version="1.1" xmlns="http://www.w3.org/2000/svg" xmlns:xlink="http://www.w3.org/1999/xlink" xml:space="preserve" xmlns:serif="http://www.serif.com/" style="fill-rule:evenodd;clip-rule:evenodd;stroke-linecap:round;stroke-linejoin:round;stroke-miterlimit:1.5;">
    <g transform="matrix(1,0,0,1,-1049.25,-467.759)">
        <g transform="matrix(0.707107,0.707107,-0.707107,0.707107,1124.2,-190.989)">
            <g transform="matrix(0.707107,-0.707107,0.707107,0.707107,-659.882,929.981)">
                <path d="M1150.61,593.858L1056.87,500.125C1053.71,496.958 1051.75,492.584 1051.75,487.756C1051.75,478.099 1059.59,470.259 1069.24,470.259C1074.07,470.259 1078.45,472.219 1081.61,475.386L1081.62,475.377L1187.72,581.476L1187.8,581.551C1190.92,584.711 1192.85,589.055 1192.85,593.845L1192.85,593.858L1192.85,593.871C1192.85,598.661 1190.92,603.005 1187.8,606.166L1187.72,606.24L1081.62,712.34L1081.61,712.33C1078.45,715.497 1074.07,717.457 1069.24,717.457C1059.59,717.457 1051.75,709.617 1051.75,699.961C1051.75,695.132 1053.71,690.758 1056.87,687.591L1150.61,593.858Z" style="fill:none;stroke:black;stroke-width:5px;"/>
            </g>
        </g>
    </g>
</svg>
